<svg xmlns="http://www.w3.org/2000/svg"  viewBox="0 0 48 48" width="64px" height="64px"><path fill="#c56528" d="M4.488,13.284c0,0,4.71,2.109,9.996,3.35s8.493,1.959,10.287,1.652 c1.794-0.307,6.406-1.628,8.453-1.103c-0.62,1.379-1.462,5.26-2.623,7.555s-1.653,3.784-0.415,7.387 c1.238,3.603,2.377,7.396,1.397,10.687c-2.671,0.331-6.055,1.095-9.778,0.152c-3.722-0.944-4.61-1.261-9.479-1.769 c-4.868-0.508-7.16-1.049-7.16-1.049s0.024-5.447-1.196-7.473S3.625,27.5,4.271,25.125S4.488,13.284,4.488,13.284z"/><path fill="#c56528" d="M31.984,42.469l2.511-2.035c0,0,0.849-0.515,2.229-1.568c1.595-1.217,4.197-4.091,4.916-5.369 c-0.359-1.559,0.031-3.897-0.08-6.433c-0.111-2.535-0.164-5.001,0.487-7.475s2.374-11.699,2.374-11.699s-0.504-0.635-2.158,0.917 s-4.521,3.11-5.067,3.796s-3.962,3.951-4.462,5.521s-1.069,4.429-1.889,6.111c-0.82,1.682-2.176,3.583-1.092,6.669 S32.333,37.738,31.984,42.469z"/><path fill="#f58420" d="M4.313,13.024c0,0,4.06,2.317,11.092,3.85s8.567,1.722,11.445,1.024 c2.878-0.699,5.891-0.917,6.538-0.884c0.682-1.025,3.605-4.398,5.93-6.026s3.477-2.859,4.454-3.08 c0-1.762-6.824-1.049-11.401-2.049c-1.581,0.022-1.432,1.54-2.95,1.516c-1.375-0.021-2.683-0.131-3.852-0.456 c-2.46-0.685-4.051-1.309-5.47-0.764S4.797,12.156,4.313,13.024z"/><polygon fill="#513620" points="17.281,17.229 20.359,14.833 31.453,17.453 25.672,18.375"/><path fill="#513620" d="M17.583,20.854c-1.646-0.521-2.379-0.338-4.726-0.776c-0.097-0.018-0.199-0.035-0.292-0.001 c-0.161,0.059-0.231,0.247-0.252,0.417c-0.08,0.632,0.245,1.264,0.716,1.693c0.47,0.43,1.07,0.688,1.668,0.906 c1.964,0.715,4.055,1.08,6.145,1.07c0.115-0.001,0.234-0.003,0.338-0.052c0.201-0.094,0.293-0.345,0.26-0.564 c-0.033-0.22-0.167-0.411-0.317-0.575C20.476,22.264,18.497,21.143,17.583,20.854z"/><path fill="#010101" d="M20.768,24.663c-2.137,0-4.235-0.37-6.242-1.101c-0.632-0.229-1.292-0.511-1.834-1.007 c-0.642-0.587-0.969-1.381-0.875-2.125c0.053-0.408,0.263-0.708,0.575-0.823c0.226-0.084,0.442-0.043,0.56-0.021 c0.979,0.183,1.668,0.255,2.276,0.318c0.846,0.089,1.515,0.158,2.507,0.473l0,0c0.921,0.291,3.014,1.442,3.757,2.257 c0.254,0.278,0.399,0.552,0.442,0.838c0.071,0.46-0.152,0.91-0.542,1.092C21.148,24.679,20.93,24.664,20.768,24.663z M12.818,20.579c-0.032,0.458,0.179,0.9,0.548,1.238c0.414,0.379,0.966,0.61,1.501,0.806c1.92,0.699,3.917,1.019,5.972,1.04 c0.038,0,0.112-0.001,0.136-0.008c-0.043-0.115-0.107-0.221-0.222-0.347c-0.563-0.616-2.459-1.705-3.32-1.978l0,0 c-0.896-0.283-1.488-0.346-2.309-0.431C14.508,20.836,13.811,20.763,12.818,20.579z"/><path fill="#010101" d="M22.251,39.935c-0.867,0-1.704-0.236-2.52-0.467c-0.224-0.063-0.447-0.126-0.669-0.184 c-0.925-0.24-1.888-0.39-2.819-0.534l-3.318-0.518c-0.273-0.043-0.459-0.299-0.417-0.571c0.043-0.272,0.301-0.457,0.571-0.417 l3.317,0.518c0.955,0.148,1.942,0.302,2.916,0.554c0.229,0.06,0.46,0.125,0.691,0.19c0.958,0.27,1.861,0.525,2.752,0.393 c0.274-0.044,0.527,0.146,0.569,0.42c0.041,0.272-0.147,0.527-0.42,0.568C22.685,39.92,22.467,39.935,22.251,39.935z"/><path fill="#010101" d="M15.857,32.458l-1.009-2.132c-0.087-0.185-0.27-0.312-0.48-0.285 c-0.203,0.012-0.379,0.145-0.445,0.338c-0.188,0.551-0.449,1.075-0.774,1.559c-0.154,0.229-0.093,0.54,0.136,0.694 c0.229,0.154,0.54,0.094,0.694-0.136c0.035-0.053,0.063-0.11,0.097-0.164c-0.026,0.679-0.005,1.294,0.073,1.874l0.022,0.162 c0.056,0.39,0.108,0.759-0.011,1.033c-0.109,0.254,0.007,0.548,0.26,0.658c0.065,0.028,0.132,0.041,0.198,0.041 c0.193,0,0.377-0.112,0.459-0.301c0.231-0.535,0.153-1.086,0.083-1.573l-0.021-0.153c-0.045-0.335-0.067-0.688-0.073-1.059 c0.094,0.092,0.208,0.158,0.338,0.158c0.071,0,0.145-0.016,0.213-0.048C15.868,33.006,15.975,32.708,15.857,32.458z"/><path fill="#010101" d="M20.482,31.583c-0.005-0.21-0.141-0.394-0.339-0.461c-0.2-0.066-0.418-0.004-0.55,0.159 c-0.413,0.512-0.763,1.073-1.039,1.668c-0.105,0.229-0.026,0.499,0.186,0.634c0.212,0.134,0.492,0.089,0.652-0.103 c0.046-0.056,0.091-0.111,0.135-0.168l0.083,3.199c0.007,0.271,0.229,0.487,0.5,0.487c0.004,0,0.009,0,0.014,0 c0.276-0.008,0.494-0.237,0.487-0.513l-0.065-2.528c0.15,0.182,0.407,0.317,0.671,0.262c0.215-0.046,0.417-0.281,0.435-0.501 C21.671,33.461,20.482,31.583,20.482,31.583z"/><path fill="#010101" d="M42.271,20.623c1.251-4.255,2.108-8.458,2.62-12.851c0.017-0.148-0.035-0.285-0.127-0.388 c-0.001-0.001-0.002-0.001-0.002-0.002c-0.04-0.045-0.087-0.082-0.141-0.11c-0.005-0.003-0.008-0.008-0.014-0.011 c-0.049-0.024-0.098-0.048-0.147-0.072c-0.077-0.078-0.174-0.126-0.284-0.139c-0.546-0.262-1.114-0.496-1.744-0.564 c-0.896-0.097-1.735-0.122-2.547-0.146c-1.224-0.037-2.28-0.068-3.178-0.336c-0.553-0.164-1.928-0.335-3.034-0.472 c-0.43-0.053-0.91-0.112-1.108-0.146c-0.013-0.009-0.03-0.01-0.044-0.018c-0.045-0.026-0.091-0.046-0.142-0.057 c-0.025-0.006-0.048-0.008-0.074-0.01c-0.051-0.003-0.102,0.003-0.153,0.017c-0.017,0.004-0.035-0.001-0.052,0.006 c-0.009,0.003-0.015,0.011-0.024,0.015c-0.008,0.004-0.017,0.003-0.025,0.007c-0.966,0.481-1.84,0.898-2.658,1.288 c-0.051,0.024-0.099,0.047-0.149,0.071c-2.507,0.032-4.674-0.653-7.105-1.084c-1.919-0.341-3.473,0.548-5.246,1.238 c-4.507,1.755-9.003,3.556-13.344,5.696c-0.314,0.155-0.34,0.717,0,0.864c0.069,0.03,0.139,0.058,0.208,0.088 c0.545,1.199,0.403,3.162,0.301,4.495c-0.042,0.549-0.075,0.982-0.056,1.279c0.193,2.986,0.252,4.556-0.496,7.568 c-0.067,0.271-0.145,0.542-0.222,0.813c-0.209,0.734-0.425,1.493-0.462,2.295c-0.074,1.594,0,1.835,0.495,2.611 c0.159,0.25,0.371,0.581,0.645,1.115c0.458,0.892,0.548,2.567,0.626,4.046c0.054,1.016,0.105,1.975,0.265,2.698 c0.046,0.211,0.223,0.368,0.437,0.39c1.655,0.171,3.934,0.472,6.137,0.763c2.223,0.293,4.521,0.597,6.204,0.77 c0.557,0.058,1.083,0.112,1.584,0.256c0.301,0.085,0.592,0.202,0.883,0.318c0.163,0.064,0.325,0.13,0.489,0.19 c1.522,0.559,3.129,0.723,4.709,0.723c1.188,0,2.359-0.093,3.468-0.181c0.521-0.041,1.063-0.103,1.605-0.164 c0.509-0.058,1.018-0.115,1.508-0.155c0.04-0.001,0.082-0.005,0.123-0.014c0.21-0.041,0.358-0.211,0.39-0.413 c1.02-1.021,3.979-3.331,4.367-3.524c1.911-0.712,3.02-2.413,4.093-4.06c0.34-0.521,0.68-1.044,1.045-1.531 c0.153-0.205,0.119-0.483-0.061-0.655c-0.318-1.889-0.195-3.79-0.048-5.797c0.1-1.361,0.204-2.769,0.148-4.174 c-0.017-0.422-0.032-0.82,0.014-1.208C42,21.543,42.122,21.128,42.271,20.623z M36.419,6.964c1.023,0.305,2.194,0.339,3.434,0.376 c0.793,0.023,1.612,0.048,2.47,0.141c0.171,0.019,0.342,0.058,0.512,0.109c-0.256,0.201-0.49,0.427-0.707,0.647l-0.214,0.215 c-0.676,0.662-1.464,1.185-2.298,1.737c-0.279,0.185-0.558,0.369-0.832,0.559c-2.278,1.581-4.241,3.53-5.843,5.787 c-0.041-0.009-0.079-0.022-0.125-0.021c-1.688,0.046-3.417-0.122-5.004-0.472l-0.566-0.13c-0.79-0.183-1.984-0.46-3.562-0.748 c-0.46-0.084-1.704-0.436-2.907-0.775c-0.782-0.221-1.535-0.434-2.12-0.588c0.494-0.322,1.232-0.651,1.788-0.897 c0.68-0.301,1.268-0.561,1.631-0.839c2.874-2.206,5.023-3.23,7.746-4.527c0.758-0.361,1.573-0.751,2.455-1.189 c0.168,0.04,0.539,0.087,1.271,0.178C34.503,6.645,35.947,6.823,36.419,6.964z M20.38,15.315c0.042,0.012,0.083,0.023,0.125,0.035 c1.282,0.362,2.493,0.705,3,0.798c1.555,0.283,2.735,0.557,3.516,0.738l0.577,0.132c0.521,0.115,1.059,0.204,1.603,0.28 c-0.496,0.074-0.997,0.16-1.517,0.274c-1.748,0.381-3.519,0.711-5.294,0.308c-0.986-0.224-1.88-0.613-2.885-0.769 c-0.395-0.061-0.787-0.135-1.18-0.204c0.273-0.206,0.548-0.411,0.823-0.615c0.267-0.198,0.556-0.376,0.815-0.584 C20.1,15.596,20.231,15.418,20.38,15.315z M17.157,7.824c0.885-0.345,1.812-0.835,2.733-1.059c1.43-0.349,2.643,0.002,4.025,0.333 c1.147,0.275,2.266,0.45,3.404,0.54c-1.896,0.946-3.665,1.954-5.853,3.633c-0.268,0.205-0.857,0.466-1.426,0.718 c-1.171,0.518-2.372,1.055-2.764,1.814c-0.005,0.007-0.008,0.015-0.013,0.022c-0.01,0.021-0.027,0.041-0.036,0.062 c-0.008,0.018-0.006,0.038-0.012,0.057c-0.005,0.017-0.016,0.031-0.02,0.049c-0.003,0.015,0.002,0.029,0.001,0.043 c-0.003,0.035-0.002,0.068,0.002,0.103c0.004,0.031,0.008,0.061,0.018,0.091c0.01,0.03,0.022,0.058,0.037,0.086 c0.016,0.029,0.032,0.056,0.053,0.081c0.019,0.023,0.041,0.043,0.064,0.063c0.027,0.023,0.055,0.042,0.087,0.059 c0.013,0.007,0.021,0.018,0.035,0.024c0.017,0.007,0.034,0.005,0.051,0.01c0.019,0.006,0.034,0.018,0.054,0.022 c0.296,0.054,0.917,0.219,1.641,0.42c-0.195,0.149-0.401,0.288-0.596,0.433c-0.55,0.408-1.093,0.825-1.646,1.23 c-4.104-0.825-8.093-2.087-11.971-3.697C8.988,11.063,13.064,9.418,17.157,7.824z M31.212,42.396 c-0.315,0.032-0.635,0.068-0.955,0.104c-0.531,0.06-1.062,0.12-1.572,0.161c-2.48,0.195-5.292,0.419-7.753-0.485 c-0.156-0.057-0.31-0.118-0.463-0.18c-0.323-0.129-0.646-0.257-0.98-0.352c-0.584-0.167-1.179-0.229-1.761-0.289 c-1.664-0.172-3.955-0.474-6.17-0.767c-2.05-0.271-4.165-0.549-5.793-0.726c-0.094-0.607-0.135-1.378-0.178-2.186 c-0.088-1.656-0.179-3.368-0.735-4.45C4.557,32.655,4.331,32.3,4.16,32.032c-0.366-0.574-0.404-0.635-0.339-2.027 c0.032-0.686,0.223-1.357,0.425-2.067c0.08-0.282,0.16-0.563,0.23-0.847c0.782-3.149,0.717-4.865,0.523-7.873 c-0.015-0.227,0.018-0.649,0.055-1.139c0.088-1.148,0.208-2.733-0.081-4.059c4.178,1.729,8.555,3.195,13.002,3.974 c2.45,0.429,5.001,1.304,7.52,0.99c2.341-0.291,4.474-0.851,6.818-0.923c-0.199,0.412-0.368,0.839-0.499,1.281 c-0.146,0.496-0.246,1.001-0.342,1.488c-0.116,0.59-0.226,1.146-0.411,1.682c-0.164,0.477-0.385,0.931-0.619,1.412 c-0.228,0.466-0.438,1.146-0.66,1.867c-0.202,0.651-0.41,1.326-0.603,1.724c-0.214,0.438-0.283,1.281-0.237,1.669 c0.252,2.091,0.745,3.304,1.222,4.476c0.473,1.163,0.92,2.262,1.155,4.219c0.159,1.315,0.339,2.807-0.038,4.13 C31.262,42.081,31.226,42.227,31.212,42.396z M41.292,20.405c-0.136,0.46-0.276,0.936-0.336,1.44 c-0.055,0.465-0.038,0.922-0.02,1.372c0.053,1.342-0.049,2.721-0.146,4.054c-0.151,2.046-0.296,4.161,0.088,6.243 c-0.295,0.414-0.584,0.836-0.866,1.268c-1.029,1.58-2.001,3.072-3.604,3.668c-0.387,0.145-2.619,1.88-4.007,3.097 c0.208-1.289,0.054-2.604-0.088-3.788c-0.252-2.091-0.745-3.304-1.222-4.476c-0.473-1.163-0.92-2.262-1.155-4.219 c-0.035-0.289,0.045-0.912,0.142-1.112c0.228-0.466,0.438-1.146,0.66-1.867c0.202-0.651,0.41-1.326,0.604-1.724 c0.237-0.487,0.482-0.99,0.666-1.523c0.207-0.601,0.329-1.218,0.446-1.813c0.096-0.487,0.187-0.948,0.32-1.399 c0.252-0.853,0.65-1.647,1.183-2.361c0.108-0.145,0.118-0.327,0.055-0.483c1.489-2.018,3.275-3.777,5.343-5.212 c0.269-0.186,0.542-0.366,0.814-0.548c0.837-0.554,1.703-1.127,2.446-1.857l0.225-0.225c0.331-0.335,0.649-0.653,0.993-0.809 C43.321,12.294,42.5,16.298,41.292,20.405z"/></svg>