<svg xmlns="http://www.w3.org/2000/svg"  viewBox="0 0 512 512" width="64px" height="64px"><path fill="#C56528" d="M363.1 417.2c-.1.2-.1.4-.1.5 0 0 0-.1.1-.1C363 417.6 363 417.5 363.1 417.2zM362.8 417.9c.1-.1.1-.1.1-.2 0 0 0 0 0 0C362.9 417.8 362.8 417.9 362.8 417.9zM346.7 133.8c-17.9-17-39.8-29.3-64.1-34.1-26.2-5.2-54-4.1-80 2-24.6 5.8-49.1 15.5-67.3 33.5-17.9 17.6-30.2 39.9-39.5 63.1-18.9 47.3-33.2 103.4-6 150.6 27.3 47.4 83.1 79.5 137.8 79.3-4.8-3.4-9.5-6.9-14.2-10.3-2.9 3.1-9.6 2.2-10.1-3.3-.2-1.6-.3-3.2-.5-4.8-1-1.4-1-3-.4-4.4-2-21.5-3.3-43.3-.2-64.7 3.6-24.5 13.2-47.7 29.2-66.8 31.1-36.9 76.6-66.1 125.5-70.4 6.8-.6 13.6-.6 20.3-.2C380 176.8 365.4 151.6 346.7 133.8zM274.1 182.7c-15.1 5.4-37.6-4.8-39.8-21.6-.9-7.3 10.5-8.2 11.4-.9 1.2 9.3 16.8 14.4 24.6 11.7C277.3 169.4 281.1 180.2 274.1 182.7zM291 151.9c-3.3 3.6-7.1 7.8-12.5 7.2-4.2-.4-8-3.2-10.2-6.7-3.3-5.2-4.9-11.2-6-17.2-.6-.8-1-1.9-1-3.2v-2.2c-1.4-1.5-1.9-3.6-.5-6 4.6-7.2 10.7-13.3 18.8-16.4 2.3-.9 5.3.1 6.6 2.2 4.6 7.2 12 12.7 15.4 20.8C305.8 140.3 296.8 145.6 291 151.9z"/><path fill="#C56528" d="M291.3,135.2c-1-2.4-2.6-4.5-4.2-6.5c-2.3-2.9-4.9-5.6-7.2-8.5c-2.8,1.8-5.3,4.2-7.3,6.8c0.1,0.3,0.2,0.7,0.2,1.1c0.8,5.5,1.5,11.3,4,16.3c0.5,1.1,2.1,3.6,2.8,3.1c2.4-2.1,4.5-4.6,6.8-6.8C287.6,139.4,291.7,136,291.3,135.2z"/><path fill="#D6E5E5" d="M390.1,338.6c-1.9-7-3.5-14.1-5.2-21.2c-0.5-2.2-0.9-6.9-2.9-8.5c-0.2-0.2-3.2,0.4-3.6,0.5c-4.6,0.6-9.1,0.5-13.8,0.1c-5.7-0.5-11.3-1.3-17-1.4c-4-0.1-9.5-0.6-12.9,1.8c-3.8,2.7-5.3,9.1-7.1,13.1c-2.3,4.9-6.5,9.2-8.1,14.4c-0.1,0.3-0.2,0.6-0.4,0.9c0.1,0.1,0.1,0.2,0.2,0.3c1.8,3.8,1.6,8.1,0.7,12.2c-0.7,3.1-3.2,8.5-1.8,11.7c1.6,3.7,8,3.2,11.3,4.9c4.6,2.4,9.2,5.1,13.3,8.2c4.5,3.3,8,4.9,13.1,1.8c4-2.4,7.5-5.3,11.4-7.8c8.4-5.6,17.7-8.5,27.2-11.5C394.2,351.4,391.8,344.9,390.1,338.6z"/><path fill="#3AB37C" d="M467.2,292.7c-9.6-22.8-28.4-41.6-51.5-50.8c-26.5-10.5-56.1-8.3-82.6,0.9c-26.3,9.1-53.1,24.6-72,45.4c-9.8,10.8-17.6,23.4-21.7,37.5c-4,13.9-5.5,28.3-6.1,42.8c2.1,5.8,3.4,11.9,6.1,17.4c2.3,4.7,5.1,9.2,8.3,13.3c5.7,7.2,12.9,13.2,20.9,17.6c19.9,10.8,43.2,13.6,65.5,13c5.7-0.1,11.5-0.6,17.1-1.3c-1.6-1.7-2.4-4.4-1.1-6.6c0.1-0.1,0.6-1.4,0.5-0.7c0.1-0.5,0.2-1,0.3-1.4c0.2-0.9,0.3-1.9,0.4-2.8c0.4-2.4,1.1-4.8,2.8-6.7c4.8-5.5,13.1,1.7,8.8,7.3c0,0,0,0,0,0c0.4-0.4,0.1,0.1,0,0c0,0-0.1,0.1-0.1,0.1c0,0.1-0.1,0.3-0.1,0.4c-0.2,0.9-0.3,1.8-0.4,2.7c-0.3,2.1-0.8,4.3-1.9,6.2c0,0-0.1,0.1-0.1,0.1c6-1,11.9-2.4,17.7-4c-0.5-0.5-0.9-1.2-1.1-2c-1.4-5.9-3.2-14,1.1-19.2c4.6-5.5,12.9,1.5,8.9,7.1c-0.1,0.3-0.1,0.6-0.1,1c0,0,0.1,1.7,0.1,1.9c0.2,1.8,0.5,4.1,0.8,5.4c0.2,0.9,0.3,1.8,0.2,2.6c6.5-2.3,12.9-4.9,19.2-8c-1-0.4-1.8-1.1-2.4-2c-2.5-4-3-8.5-3-13.1c0-3.1,2-5.9,5.3-6.1c2.9-0.2,6.1,2.1,6.1,5.3c0,2.9,0,5.8,1.1,7.6c0.8,1.3,1.1,2.9,0.8,4.3c20.1-11.2,39.8-27.2,50.2-47.6C476.1,339.2,476.5,314.6,467.2,292.7z M430.6,303.5c-7.3,0-8.2-11.4-0.9-11.4C437.1,292.1,438,303.5,430.6,303.5z M412.1,265.7c1-1,2-1.8,3.4-2.2c0.9-0.3,1.9-0.5,2.8-0.5c1.6,0,3,0.3,4.2,1.4c1.1,1,1.8,2.4,1.9,3.9c0.2,2.4-1.3,4.9-3.6,5.8c-0.2,0.5-0.5,1-0.9,1.5c-1,1.1-2.4,1.8-3.9,1.9c-1.5,0.1-3.1-0.4-4.2-1.4c-1-0.9-1.9-2.4-1.9-3.9C410,270,410.4,267.4,412.1,265.7z M382.5,268.2c2.8-6.4,9.2-8.6,14.4-12.6c2.5-1.9,6.3-0.9,7.9,1.5c1.8,2.7,0.9,6-1.5,7.9c-2.3,1.7-4.7,3.1-7.1,4.6c-1.9,1.2-2.6,1.8-3.4,3.6C389.7,280.1,379.5,275,382.5,268.2z M363.3,252c0.9-3,3.4-5.2,6.7-4.5c2.8,0.5,5.4,3.7,4.5,6.7c-0.9,3-0.9,4.9-0.9,7.8c0,3.1-2,5.9-5.3,6.1c-2.9,0.2-6.1-2.1-6.1-5.3C362.1,259.3,362.2,255.5,363.3,252z M335.2,252.6c2.9-0.2,6.1,2.1,6.1,5.3c0,1.5,0,3,0.2,4.5c0-0.1,0.2,0.7,0.4,1.2c0.1,0,0.9,1.2,0.6,0.9c2.1,2.3,2.7,5.6,0.5,8.1c-1.9,2.2-5.9,2.8-8.1,0.5c-3.9-4.1-5-8.7-5-14.2C329.9,255.6,331.9,252.9,335.2,252.6z M318.9,253.5c1-1.1,2.4-1.8,3.9-1.9c1.4-0.1,3.2,0.4,4.2,1.4c0.6,0.6,1.1,1.1,1.6,1.8c0.4,0.5,0.7,1.1,0.9,1.7c0.3,0.8,0.4,1.7,0.4,2.5c0,1.6-0.3,3-1.4,4.2c-1,1.1-2.4,1.8-3.9,1.9c-1.5,0.1-3.1-0.4-4.2-1.4c-0.8-0.7-1.5-1.8-1.8-3c-0.6-0.9-1.1-1.8-1.2-3C317.4,256.2,317.9,254.7,318.9,253.5z M305.1,259.9c3.4,0.1,6.2,1.2,9.2,2.7c2.8,1.4,4,4.9,2.6,7.7c-1.4,2.8-4.9,4-7.7,2.6c-0.9-0.4-1.8-0.9-2.7-1.3c-0.1,0-0.1-0.1-0.2-0.1c0,0-0.1,0-0.1,0c-0.3-0.1-1.7-0.2-0.3-0.1c-3.1-0.1-5.9-1.9-6.1-5.3C299.6,263.2,301.9,259.8,305.1,259.9z M285.8,274.5c1.5-3.1,4.7-3.6,7.7-2.6c2.8,1,5.5,2.2,8.3,3.1c3,1,3.8,5.2,2.6,7.7c-1.5,3.1-4.7,3.6-7.7,2.6c-2.8-1-5.5-2.2-8.3-3.1C285.5,281.1,284.6,277,285.8,274.5z M273.9,289.4c0.6-2.9,3.7-5.4,6.7-4.5c2.3,0.6,4.4,1.6,6.6,2.6c1.3,0.7,2.7,1.4,3.3,1.4c3.1,0.1,5.9,1.9,6.1,5.3c0.2,2.8-2.1,6.3-5.3,6.1c-2.9-0.1-5.5-0.7-8.1-2c-1.6-0.8-3.5-1.9-4.9-2.3C275.4,295.3,273.3,292.7,273.9,289.4z M263.5,303.5c2.8,0.1,5.3,0.5,7.9,1.4c2.1,0.7,4.4,1.7,6.6,1.8c3.1,0.1,5.9,1.9,6.1,5.3c0.2,2.8-2.1,6.3-5.3,6.1c-2.8-0.1-5.3-0.5-7.9-1.4c-2.1-0.7-4.4-1.7-6.6-1.8c-3.1-0.1-5.9-1.9-6.1-5.3C258,306.8,260.4,303.4,263.5,303.5z M263.5,330.5h10.4c3.1,0,5.9,2,6.1,5.3c0.2,2.9-2.1,6.1-5.3,6.1h-10.4c-3.1,0-5.9-2-6.1-5.3C258,333.8,260.4,330.5,263.5,330.5z M261,372.2c-4.7,5.7-13.3-1.9-8.6-7.5c2-2.4,4.7-4,7.7-4.8c2.3-0.7,4.9-1,6.9-2.4c6.1-4.2,12.5,5.3,6.4,9.5c-2.3,1.6-4.8,2.4-7.4,3.1C264,370.6,262.1,370.9,261,372.2z M283.8,388.8c-2.8,2.7-6.1,5.1-8.3,8.3c-1.8,2.6-5.9,2.4-8.1,0.5c-2.5-2.2-2.3-5.5-0.5-8.1c2.3-3.2,5.5-5.6,8.3-8.3c2.2-2.2,5.6-2.7,8.1-0.5C285.5,382.7,286,386.6,283.8,388.8z M308,408c-1.3,5.5-5.4,9.5-7.8,13.9c-3.4,6.5-13.7,1.4-10.2-5.1c2-3.8,5.9-7.1,6.8-11C298.4,398.6,309.7,400.8,308,408z M334,412.1c-1.2,5.1-1.8,10.1-5.5,14.1c-5,5.4-13.6-2.1-8.6-7.5c2-2.1,2-5.3,2.8-8.7c0.7-3,3.5-5.1,6.7-4.5C332.4,406,334.7,409.1,334,412.1z M405.7,363.3c-0.1,1.9-2,3.7-3.7,4.3c-6.9,2.2-14,4-20.6,7c-5.6,2.6-10.2,6.4-15.3,9.8c-10,6.8-19.3,8.3-29.4,0.8c-4.9-3.7-10.4-7.4-16.4-8.8c-5.3-1.1-9-3.2-11.8-7.8c-2.5-4.1-2.3-9.2-1.2-13.7c0.9-3.9,3.1-8.7,1.2-12.6c-0.7-1.5-0.7-2.8-0.3-3.9c-0.3-0.9-0.3-2,0.1-3.2c2.2-7,7.2-12.8,10.1-19.5c2.4-5.6,5-12.6,10.7-15.7c11.2-6.2,25.8-2.6,37.8-1.7c5.7,0.5,11.8-1.5,17.4-0.4c6.9,1.3,9.7,8,11.2,14.2c2.1,8.8,4,17.6,6.5,26.3C404.2,346.5,406.3,354.6,405.7,363.3z M410.6,296.4c-2.3,2.1-5.5,2.8-8.1,0.5c-2.1-1.9-2.8-6-0.5-8.1c5.3-4.8,12.5-6,19.4-6.1c7.3-0.1,8.2,11.3,0.9,11.4C419,294.2,413,294.2,410.6,296.4z M421.7,316.3c-1-2.7,0.5-6.5,3.5-7.3c6.1-1.5,12-2.4,17.9,0.3c6.7,3,1.6,13.2-5.1,10.2c-2.8-1.3-6.2-0.4-9.1,0.3C425.9,320.6,422.8,319.5,421.7,316.3z M438.9,388.2c-0.8,3-3.5,5.1-6.7,4.5c-2.9-0.6-5.3-3.7-4.5-6.7c0-0.1,0.1-0.3,0.1-0.3c-0.2-0.5-0.7-1.6-0.6-1.4c-0.9-1.5-1.8-2.9-2.8-4.3c-4.1-6.1,5.4-12.5,9.5-6.4C436.7,377.8,440.3,382.8,438.9,388.2z M451,354.5c-2.4,1.6-6.4,1.2-7.9-1.5c-2.6-4.7-7.7-5.6-12.4-7.4c-2.9-1.1-3.9-5.1-2.6-7.7c1.5-3,4.8-3.7,7.7-2.6c6.6,2.6,13.1,4.6,16.7,11.3C454.1,349.3,453.8,352.6,451,354.5z"/><path fill="#C56528" d="M497.4,318c-6-48.1-50.3-87.4-95.5-99.3c-53-13.9-108.5,9.3-146.7,46.3c-19.7,19.1-34.8,41.5-40.2,68.7c-4.6,23.2-3.5,46.9-1.3,70.3c34.3,24.9,71.6,55.8,116.5,52.1c18.4-1.6,36.6-7.3,54-13.4c15-5.3,29.9-11.5,43.8-19.2C466.7,402,503.3,366.1,497.4,318z M466.3,379.5c-31.7,40.3-84.9,61.7-135.4,61.7c-22.5,0-46.1-2.7-66.2-13.6c-9.8-5.3-18.7-12.3-25.6-21c-3.9-4.8-7.1-10-9.8-15.6c-2.8-5.7-4.3-11.8-6.4-17.7c-0.6-0.7-1-1.7-1-3c-0.2-0.9-0.1-1.6,0.1-2.4c1.2-25.5,4.9-50.8,19.2-72.7c13.7-21,34.6-36.5,56.2-48.7c47.1-26.8,110.8-35.2,153.8,4.3C487.2,283.9,497.6,339.6,466.3,379.5z"/><path d="M486.4,263.3c-23.2-31.3-59.4-53.1-97.9-58.8c5.1-48.9-37.7-92.2-80.3-109c-24-9.5-50.2-11.7-75.7-9.8c-26.3,1.9-52.4,8.5-76,20.4c-46,23.2-68.1,73.1-82.5,119.8c-7.9,25.5-12.9,51.6-10.2,78.3c2.7,26.3,13.6,51,30.5,71.2c33.1,39.6,83.8,65.1,135.8,64.2c3.8-0.1,5.4-3.1,5.1-6c14.4,9.9,29.2,19.1,45.5,25.8c14.9,6.1,30.4,8.9,46.5,8.4c14.9-0.5,29.3-4.5,43.5-8.7c42.3-12.4,86.8-32.5,115.2-67.4c14.3-17.6,22.5-38.8,23.4-61.5C510.2,306,500.6,282.4,486.4,263.3z M89.7,348.9c-27.2-47.2-13-103.3,6-150.6c9.3-23.2,21.6-45.4,39.5-63.1c18.3-18,42.7-27.8,67.3-33.5c26-6.1,53.8-7.2,80-2c24.3,4.9,46.2,17.1,64.1,34.1c18.8,17.8,33.4,42.9,30.5,69.4c-6.8-0.4-13.5-0.4-20.3,0.2c-48.9,4.3-94.5,33.5-125.5,70.4c-16,19.1-25.6,42.3-29.2,66.8c-3.1,21.4-1.9,43.2,0.2,64.7c-0.6,1.4-0.6,3,0.4,4.4c0.2,1.6,0.3,3.2,0.5,4.8c0.6,5.5,7.2,6.4,10.1,3.3c4.7,3.4,9.4,6.9,14.2,10.3C172.8,428.4,117,396.3,89.7,348.9z M428,423.5c-14,7.7-28.8,13.9-43.8,19.2c-17.4,6.1-35.6,11.8-54,13.4c-45,3.8-82.2-27.2-116.5-52.1c-2.2-23.4-3.3-47.1,1.3-70.3c5.4-27.2,20.5-49.6,40.2-68.7c38.2-37.1,93.7-60.3,146.7-46.3c45.3,11.9,89.6,51.2,95.5,99.3C503.3,366.1,466.7,402,428,423.5z"/><path d="M401.8 338.2c-2.5-8.7-4.4-17.5-6.5-26.3-1.5-6.2-4.3-12.8-11.2-14.2-5.5-1.1-11.7.9-17.4.4-12-1-26.6-4.5-37.8 1.7-5.6 3.1-8.3 10.2-10.7 15.7-2.9 6.8-7.8 12.5-10.1 19.5-.4 1.2-.4 2.3-.1 3.2-.5 1.1-.4 2.5.3 3.9 1.9 3.9-.3 8.6-1.2 12.6-1 4.5-1.2 9.7 1.2 13.7 2.8 4.6 6.5 6.7 11.8 7.8 6.1 1.3 11.5 5.1 16.4 8.8 10.1 7.5 19.4 6 29.4-.8 5-3.4 9.7-7.2 15.3-9.8 6.6-3 13.7-4.8 20.6-7 1.7-.6 3.6-2.4 3.7-4.3C406.3 354.6 404.2 346.5 401.8 338.2zM367.3 369.5c-3.8 2.5-7.4 5.4-11.4 7.8-5.2 3.1-8.6 1.5-13.1-1.8-4.2-3.1-8.7-5.8-13.3-8.2-3.3-1.7-9.7-1.2-11.3-4.9-1.4-3.2 1.1-8.6 1.8-11.7.9-4 1.1-8.4-.7-12.2 0-.1-.1-.2-.2-.3.1-.3.3-.6.4-.9 1.6-5.1 5.9-9.5 8.1-14.4 1.9-4 3.3-10.5 7.1-13.1 3.5-2.4 8.9-1.9 12.9-1.8 5.7.1 11.3.9 17 1.4 4.7.4 9.2.6 13.8-.1.5-.1 3.4-.6 3.6-.5 2 1.5 2.4 6.2 2.9 8.5 1.7 7.1 3.2 14.2 5.2 21.2 1.7 6.3 4.1 12.8 4.4 19.4C385 361 375.7 363.9 367.3 369.5zM342.5 264.4c.3.4-.5-.9-.6-.9-.1-.5-.4-1.2-.4-1.2-.2-1.5-.2-3-.2-4.5 0-3.1-3.2-5.5-6.1-5.3-3.3.3-5.3 3-5.3 6.1 0 5.6 1.1 10.1 5 14.2 2.1 2.3 6.1 1.7 8.1-.5C345.2 270 344.7 266.7 342.5 264.4zM370 247.5c-3.3-.6-5.8 1.5-6.7 4.5-1.1 3.5-1.1 7.2-1.1 10.9 0 3.1 3.2 5.5 6.1 5.3 3.3-.3 5.3-3 5.3-6.1 0-2.9 0-4.9.9-7.8C375.4 251.2 372.8 248.1 370 247.5zM404.8 257.2c-1.7-2.5-5.5-3.5-7.9-1.5-5.2 4-11.6 6.2-14.4 12.6-3 6.7 7.3 11.8 10.2 5.1.8-1.8 1.5-2.3 3.4-3.6 2.4-1.5 4.9-2.9 7.1-4.6C405.7 263.2 406.6 259.9 404.8 257.2zM421.4 282.7c-6.9.1-14.2 1.3-19.4 6.1-2.3 2.1-1.6 6.2.5 8.1 2.5 2.2 5.8 1.6 8.1-.5 2.4-2.2 8.4-2.2 11.7-2.2C429.7 294.1 428.8 282.7 421.4 282.7zM443.1 309.3c-5.9-2.6-11.9-1.8-17.9-.3-3 .7-4.5 4.6-3.5 7.3 1.1 3.1 4.3 4.2 7.3 3.5 2.9-.7 6.3-1.5 9.1-.3C444.7 322.5 449.8 312.3 443.1 309.3zM452.6 346.5c-3.6-6.7-10.1-8.7-16.7-11.3-2.9-1.1-6.2-.4-7.7 2.6-1.3 2.6-.3 6.5 2.6 7.7 4.7 1.8 9.8 2.7 12.4 7.4 1.5 2.7 5.5 3.2 7.9 1.5C453.8 352.6 454.1 349.3 452.6 346.5zM433.9 373.6c-4.1-6.1-13.6.3-9.5 6.4 1 1.4 1.9 2.8 2.8 4.3-.1-.2.4 1 .6 1.4 0 .1 0 .2-.1.3-.8 3 1.6 6.1 4.5 6.7 3.2.6 5.9-1.5 6.7-4.5C440.3 382.8 436.7 377.8 433.9 373.6z"/><path d="M451.1,250.8c-42.9-39.5-106.7-31-153.8-4.3c-21.6,12.3-42.5,27.7-56.2,48.7c-14.3,21.8-18,47.1-19.2,72.7c-0.2,0.7-0.2,1.5-0.1,2.4c0,1.3,0.4,2.3,1,3c2.1,5.9,3.6,12,6.4,17.7c2.7,5.6,6,10.8,9.8,15.6c7,8.8,15.8,15.7,25.6,21c20,10.9,43.7,13.6,66.2,13.6c50.5,0,103.7-21.4,135.4-61.7C497.6,339.6,487.2,283.9,451.1,250.8z M465.2,360.4c-10.4,20.4-30.1,36.4-50.2,47.6c0.3-1.4,0-3-0.8-4.3c-1.2-1.9-1.1-4.8-1.1-7.6c0-3.1-3.2-5.5-6.1-5.3c-3.3,0.3-5.3,3-5.3,6.1c0,4.6,0.6,9.1,3,13.1c0.6,0.9,1.5,1.6,2.4,2c-6.2,3.1-12.6,5.7-19.2,8c0.1-0.9,0.1-1.7-0.2-2.6c-0.3-1.2-0.7-3.5-0.8-5.4c0-0.3-0.1-2-0.1-1.9c0-0.3,0.1-0.6,0.1-1c4-5.6-4.3-12.6-8.9-7.1c-4.3,5.1-2.5,13.3-1.1,19.2c0.2,0.8,0.6,1.4,1.1,2c-5.8,1.6-11.7,3-17.7,4c0,0,0.1-0.1,0.1-0.1c1.1-1.9,1.6-4.1,1.9-6.2c0.1-0.9,0.2-1.8,0.4-2.7c0-0.1,0.1-0.3,0.1-0.4c0,0-0.1,0.1-0.1,0.2c0.1-0.1,0.1-0.1,0.1-0.2c0-0.2,0.1-0.4,0.1-0.5c-0.1,0.3-0.1,0.4-0.1,0.5c4.3-5.5-4-12.7-8.8-7.3c-1.6,1.9-2.4,4.2-2.8,6.7c-0.1,0.9-0.2,1.9-0.4,2.8c-0.1,0.5-0.2,1-0.3,1.4c0.2-0.7-0.4,0.6-0.5,0.7c-1.3,2.1-0.6,4.9,1.1,6.6c-5.7,0.7-11.4,1.1-17.1,1.3c-22.4,0.5-45.6-2.2-65.5-13c-8.1-4.4-15.2-10.4-20.9-17.6c-3.2-4.1-6-8.6-8.3-13.3c-2.7-5.6-4-11.6-6.1-17.4c0.6-14.4,2.1-28.8,6.1-42.8c4.1-14.1,11.9-26.7,21.7-37.5c18.9-20.8,45.6-36.3,72-45.4c26.5-9.2,56.2-11.4,82.6-0.9c23.1,9.2,41.8,28,51.5,50.8C476.5,314.6,476.1,339.2,465.2,360.4z"/><path d="M363 417.7C363.1 417.8 363.4 417.3 363 417.7L363 417.7zM363 417.7C363 417.7 363 417.7 363 417.7c-.1.1-.1.1-.1.1C363 417.7 363 417.7 363 417.7 363 417.7 363 417.7 363 417.7zM329.5 405.4c-3.2-.6-6 1.5-6.7 4.5-.8 3.4-.9 6.6-2.8 8.7-5 5.4 3.6 12.9 8.6 7.5 3.7-4 4.3-9 5.5-14.1C334.7 409.1 332.4 406 329.5 405.4zM296.8 405.8c-.9 3.9-4.7 7.2-6.8 11-3.5 6.5 6.8 11.6 10.2 5.1 2.3-4.4 6.5-8.4 7.8-13.9C309.7 400.8 298.4 398.6 296.8 405.8zM283.3 380.8c-2.5-2.2-5.9-1.7-8.1.5-2.8 2.7-6.1 5.1-8.3 8.3-1.8 2.6-2 5.8.5 8.1 2.1 1.9 6.3 2 8.1-.5 2.3-3.2 5.5-5.6 8.3-8.3C286 386.6 285.5 382.7 283.3 380.8zM267 357.5c-2 1.3-4.6 1.7-6.9 2.4-3 .8-5.7 2.4-7.7 4.8-4.7 5.7 3.9 13.2 8.6 7.5 1.1-1.3 3.1-1.7 5-2.2 2.6-.7 5.1-1.6 7.4-3.1C279.4 362.8 273.1 353.3 267 357.5zM280 335.8c-.3-3.3-3-5.3-6.1-5.3h-10.4c-3.1 0-5.5 3.2-5.3 6.1.3 3.3 3 5.3 6.1 5.3h10.4C277.9 341.9 280.3 338.7 280 335.8zM284.2 311.9c-.3-3.4-3-5.1-6.1-5.3-2.2-.1-4.5-1.1-6.6-1.8-2.6-.9-5.2-1.3-7.9-1.4-3.1-.1-5.5 3.3-5.3 6.1.3 3.4 3 5.1 6.1 5.3 2.2.1 4.5 1.1 6.6 1.8 2.6.9 5.2 1.3 7.9 1.4C282 318.2 284.4 314.7 284.2 311.9zM296.7 294.2c-.3-3.4-3-5.1-6.1-5.3-.7 0-2-.7-3.3-1.4-2.1-1.1-4.2-2-6.6-2.6-3-.8-6.1 1.6-6.7 4.5-.6 3.2 1.5 5.9 4.5 6.7 1.4.4 3.2 1.5 4.9 2.3 2.6 1.3 5.2 1.9 8.1 2C294.5 300.5 296.9 297.1 296.7 294.2zM301.8 275c-2.8-1-5.5-2.2-8.3-3.1-2.9-1-6.1-.5-7.7 2.6-1.2 2.5-.4 6.7 2.6 7.7 2.8 1 5.5 2.2 8.3 3.1 2.9 1 6.1.5 7.7-2.6C305.6 280.2 304.8 276 301.8 275zM314.3 262.5c-3-1.5-5.9-2.5-9.2-2.7-3.1-.1-5.5 3.3-5.3 6.1.3 3.4 3 5.2 6.1 5.3-1.5-.1-.1.1.3.1.1 0 .1 0 .1 0 .1 0 .1 0 .2.1.9.4 1.8.8 2.7 1.3 2.8 1.4 6.3.2 7.7-2.6C318.2 267.4 317.1 263.9 314.3 262.5zM329.5 256.4c-.3-.6-.5-1.2-.9-1.7-.5-.6-1-1.2-1.6-1.8-1-1.1-2.8-1.5-4.2-1.4-1.5.1-2.9.8-3.9 1.9-1 1.1-1.5 2.7-1.4 4.2.1 1.1.5 2.1 1.2 3 .3 1.1 1 2.2 1.8 3 1.1 1 2.7 1.5 4.2 1.4 1.5-.1 2.9-.8 3.9-1.9 1.1-1.2 1.4-2.6 1.4-4.2C329.9 258.1 329.8 257.2 329.5 256.4zM301.7 130.5c-3.3-8.1-10.7-13.6-15.4-20.8-1.3-2.1-4.3-3.1-6.6-2.2-8.1 3.1-14.2 9.2-18.8 16.4-1.5 2.3-1 4.5.5 6v2.2c0 1.3.4 2.4 1 3.2 1.1 6 2.6 12 6 17.2 2.2 3.5 6 6.3 10.2 6.7 5.4.5 9.2-3.6 12.5-7.2C296.8 145.6 305.8 140.3 301.7 130.5zM286.3 140.6c-2.3 2.2-4.4 4.7-6.8 6.8-.6.6-2.2-2-2.8-3.1-2.5-5-3.2-10.8-4-16.3-.1-.4-.1-.7-.2-1.1 2-2.7 4.5-5.1 7.3-6.8 2.3 2.9 4.9 5.6 7.2 8.5 1.6 2 3.2 4.1 4.2 6.5C291.7 136 287.6 139.4 286.3 140.6zM270.4 171.9c-7.8 2.8-23.4-2.3-24.6-11.7-.9-7.3-12.3-6.4-11.4.9 2.2 16.8 24.7 27 39.8 21.6C281.1 180.2 277.3 169.4 270.4 171.9zM422.5 264.4c-1.2-1.1-2.6-1.4-4.2-1.4-1 0-1.9.2-2.8.5-1.4.4-2.4 1.2-3.4 2.2-1.8 1.7-2.2 4.3-2.2 6.5 0 1.4.9 2.9 1.9 3.9 1.1 1 2.7 1.5 4.2 1.4 1.5-.1 2.9-.8 3.9-1.9.4-.5.7-1 .9-1.5 2.2-.9 3.8-3.4 3.6-5.8C424.3 266.8 423.6 265.4 422.5 264.4zM429.7 292.1c-7.4 0-6.5 11.4.9 11.4C438 303.5 437.1 292.1 429.7 292.1z"/></svg>