<svg xmlns="http://www.w3.org/2000/svg"  viewBox="0 0 512 512" width="64px" height="64px"><path fill="#71C598" d="M178.8,300.1c-2.6-1.4-5.3-2.2-8.2-3c-6.1-1.7-13.8-3.1-18.3-7.9c-3-3.2-2.1-7.4,1.8-9.3c5.6-2.7,11.5-4.7,17.1-7.1c-6.8-3.6-13.7-7.1-20.2-11.5c-7.2-4.9-15.7-10.1-20.6-17.6c-3.9-6-5.6-16.7,3.7-18.8c3.7-0.8,8-0.2,11.6-1.6c3.2-1.2,6.3-2.6,9.4-4c-6.4-5.7-15.6-8.9-22.3-14c-7-5.4-11.6-12.4-16.6-19.3c-6.1,18.6-23.6,30-38,43.4c2.2,0.5,4.3,1,6.4,1.6c4.2,1.2,9.3,2.3,13.1,4.7c7.3,4.7,5.7,11.2,1.2,17.4c-8.3,11.4-17.4,23.2-29.2,31.1c1.7,0.3,3.3,0.6,5,0.9c4.4,0.6,9.2-0.1,13.5,0.9c9.1,2.1,10.1,11.1,5.6,18.3c-4.9,7.8-11.8,14.2-19.2,19.6c-3.4,2.5-7,5-10.8,7.1c9.9,3.6,20.1,6.2,29.5,11.1c1.5,0.8,2.4,1.9,2.7,3.2c10.6-8.5,22.3-15.7,34.5-21.9c12.6-6.4,25.7-11.8,39.1-16.2c0.4-1.5,1.5-2.8,3.4-3.4c1.8-0.6,3.7-1.4,4.9-2.9c0.4-0.5,0.7-0.7,0.9-0.7C178.9,300.1,178.9,300.1,178.8,300.1z"/><path fill="#FEBF10" d="M218.4 326.1c2.8-6.5 6.5-12.2 10.5-17.8-1.1-.1-2.1-.5-2.9-1.2-11.6 4.6-21.5 13.6-30.6 21.9-11.4 10.4-21.4 22.2-30.8 34.4-17.6 22.9-25.8 51.1-19.4 79.8.1.3.1.7.1 1 .9-.1 1.8-.1 2.7-.2 23.2-1.8 46.3-2.2 69.5-2.4-4-11.2-7.7-22.5-9.7-34.2-2.3-13.8-1.9-27.8.1-41.6C209.9 352.2 213 338.7 218.4 326.1zM157.1 61.9c-9.4-5.5-22.9-6.7-32.1-.1-4.9 3.5-7.9 9-9.2 14.8-.6 2.9-1.3 7.3-.9 11.2 3.4-.6 6.4 2.2 6.8 5.2.4.3.8.6 1.2.8 2.2 1.2 3.8 3 6.1 4.1 4.5 2.2 9.2 2.3 14.1 1.4 6.1-1.1 13.3-2.5 17.2-7.8C166.7 82.4 167.7 68.1 157.1 61.9z"/><path fill="#71C598" d="M320,147.3c-5.7-0.5-11-1.4-16.4-3.4c-3.4-1.2-3.9-6.1-1.7-8.6c11.9-13.2,26.1-24.4,38.1-37.5c-1.5-0.7-2.6-2.1-2.5-4.4c0.5-14.4-19.7-24.7-32.2-19.6c-13.4,5.5-16.6,22.7-8.7,34.1c3,4.3-1.1,8.8-5.6,8.5c-25.4-1.9-43.8,35.9-24.3,53.5c3,2.7,2.2,8-1.8,9.3c-12.6,4.1-22.7,12.1-24.2,26c-0.7,6.9,0.5,13.4,4.9,19c4.2,5.3,9.5,9.7,14.1,14.7c2,2.1,2.7,5.4,0.5,7.8c-5.9,6.4-19.4,13.7-19.1,23.7c0.3,9.6,6,16.5,12.8,22.4c8.8-0.4,17.6-0.6,26.3-0.4c1.3-1.4,3.2-2.2,5.3-1.6c0.2-0.1,0.4-0.3,0.7-0.6c0.7-0.8,1.5-1.6,2.1-2.5c1.1-1.6,2.3-3.5,2.8-5.4c0.1-0.4,0.4-1.1,0.4-1.7c0,0,0,0-0.1,0c-1.1-0.8-2.6-1.3-3.8-1.6c-7.8-2.1-15.8-2.5-23.7-3.6c-4.6-0.6-6.2-7.6-2-10c12.5-7.1,25.3-13.7,37-22.1c7.3-5.2,14.8-11.4,20-19c-11.6,2.6-25.1,0.5-36-2c-5.2-1.2-6.1-8.9-0.8-10.6c18.1-5.8,30.1-25.4,40.2-40.3c2.6-3.8,5.1-7.6,7.8-11.3c1-1.3,6.5-7.9,5.1-9.7C332.6,147.3,323.7,147.7,320,147.3z"/><path fill="#C56528" d="M163.5 321.1c-22.8 8.5-45.1 19.5-63.7 35.4-15.7 13.4-28.8 30.7-33.7 51-2.8 11.5-7.7 36.1 9 39.2 1 .2 1.8.6 2.4 1 5.1-1.6 12-1.1 16-1.2 8.6-.3 17.1-.3 25.7-.5 5.1-.1 10.2-.5 15.2-.9-6.4-31.3 1.4-62.2 20.8-87.5 10.4-13.6 21.4-26.7 34.3-38 3.4-3 6.9-6.1 10.4-9C187.7 313.2 175.5 316.6 163.5 321.1zM444.1 410.7c-6.3-10-13.4-19.6-21.1-28.6-15.2-17.8-32.3-35.2-51.1-49.1-15.9-11.7-33.6-20.9-52.9-25.3-17.8-4.1-36.1-4.6-54.3-4 .1 4-5.1 7.8-9.2 4.5-1.6-1.2-3.2-2.5-4.8-3.9-1.9.1-3.7.2-5.6.3-5.8 8-12.1 15.7-16 24.9-5 11.7-8.2 24.1-10 36.7-1.9 13.4-2.6 26.9-.1 40.3 2.2 12 6.2 23.6 10.4 35 5.6 0 11.2 0 16.7 0 16.2 0 32.4-.1 48.6.5 8.1.3 16.3.8 24.4.3 7.5-.5 14.9-1.5 22.3-2.1 15.4-1.4 31.3-1.6 46.7-1.1 6 .2 11.7.6 17.6 1.7 1.4.3 3.4.8 5.4 1.2 0-3.9 3.5-7.6 7.5-4.9 9.8 6.6 22.9 2.2 34.4 1.5C452.9 428.6 449.4 419.2 444.1 410.7z"/><path fill="#3AB37C" d="M419.4,340.1c-2.4-2.7-2.5-6.4,0.6-8.7c7.8-6,18.2-5.9,27.3-8.4c7.5-2,16.2-4,23.5-7.7c-12.1-9.7-25.5-17.6-37.8-27.1c-6.2-4.8-12.4-9.9-17-16.2c-3.3-4.5-7.1-11.1-4.7-16.8c1.6-4,6.6-5.9,10.3-7.2c5.6-2,11.4-3.4,17.1-4.7c6.3-1.5,12.7-2.8,19.1-4.3c0.9-0.2,1.8-0.4,2.7-0.7c-9.9-7.2-18.9-15.8-28-23.8c-9.8-8.6-22.8-18.4-26.8-31.4c-1.5-4.7-3.2-11.8,1.1-15.7c3.8-3.4,8.3-4.1,13.3-4.2c10.1-0.2,21.6-1.3,30.8-6.3c-15.2-13.7-30.1-27.8-44-42.8c-7.1-7.7-13.5-15.5-18.5-24.7c-4.4-8.1-8.2-16.4-12.4-24.6c-1.8,3.7-4.2,7.3-6.4,10.8c-5.5,8.8-10.8,17.8-17.6,25.6c-10.8,12.4-23.5,22.9-35,34.5c11,1.1,25.4,0.9,28.8,10.9c3.5,10.4-6.7,20.1-12,28c-9,13.4-19,29.5-32.6,39.7c1.8,0.1,3.6,0.2,5.4,0.2c6.5,0,14.5-0.3,19.5-5c3.7-3.4,10.9-1.1,9.5,4.7c-6.1,25.3-30.5,40.2-52.9,52.5c0.7,0.1,1.3,0.2,2,0.4c5.3,1,13.6,2.6,16.6,7.9c2.7,4.9,1,12.5-2.9,18.5c23.7,2.1,46.7,9.2,67,21.9c24,15,44.8,35.3,63.3,56.6c2.7,3.1,5.5,6.3,8.2,9.5c-0.2-2.2,0.8-4.5,3.5-5.5c6.6-2.6,13.1-6,18.3-10.8C445.2,357,430.1,352.2,419.4,340.1z"/><path fill="#010101" d="M483.6 311.9c-12.3-10.9-26.3-19.4-39.6-29-5.4-3.9-10.6-8.1-15.3-12.7-2.1-2.1-4-4.4-5.6-6.9-.6-1-1-2-1.4-3 0-.1-.1-.3-.1-.4.4-.2.6-.3 1.4-.7 2-.9 4.1-1.5 6.2-2.2 5.7-1.7 11.5-3 17.4-4.4 9.7-2.2 20.6-3.5 29.5-8.1 3.9-2.1 2.6-7.7-.6-9.5-5.5-3.1-10.5-7-15.4-11-5.1-4.2-10.5-8.3-15.2-12.9-7.5-7.4-16.2-13.6-23-21.8-3.1-3.6-5.6-7.6-6.7-12.2-.8-3.4.2-2.8 3.5-3 9.2-.6 17.9-1.2 26.9-3.7 7.5-2.1 26.3-9.3 15.6-18.9-10.8-9.6-21.3-19.5-31.6-29.6-10-9.8-20.4-19.8-28.1-31.6-7.1-10.9-12-23-18-34.5-.6-1.2-1.4-1.9-2.3-2.3 0-.9-.2-1.8-.7-2.7-1.9-3.8-6.7-3.6-9.5-1.1-2.1 1.9-3.1 5.2-4.2 7.8-1.9 4.6-4.8 8.8-7.4 12.9-3.1 5.1-6.2 10.3-9.7 15.2-.5.8-1.1 1.5-1.7 2.2-3-19.4-29.1-30.8-46.5-24.6-17.3 6.2-23.9 26.3-18.3 42.6-13.7 2.3-25 11.8-31.2 24.9-6.3 13.1-6.3 28.9 1.7 40.8-12.2 5.9-21.3 15.7-23.8 30-1.5 8.9-.2 17.7 4.3 25.5 3.5 6 8.9 10.8 13.9 15.7-8.5 8.2-17.7 14.9-18.2 28.2-.3 8.7 3.7 16.1 9.2 22.5 0 0 0 0 0 .1-3.1.3-6.1.6-9.2.9-.7 0-1.3 0-1.9.2-.1 0-.1 0-.2.1-7.5.9-14.8 2-22.1 3.3-5.5 1-11 2.1-16.4 3.5.9-3.9-.3-8-5.1-11-3.8-2.4-8.4-3.5-12.7-4.7-.7-.2-1.5-.4-2.3-.6 5.7-2.3 11.5-4.6 16.8-7.8 3.8-2.3 2.7-7.5-.6-9.5-7.9-4.8-16.8-8-24.3-13.3-6-4.1-12.1-8-17.5-12.9-2.1-1.9-4.2-4.1-5.2-6.8 0 0 0 0 0 0 .9-.2 2-.1 2.9-.2 8.9-.5 16.6-4.8 24.5-8.7 3.2-1.6 4.9-5 2.7-8.3-5.8-9-16.4-13.4-25.2-18.8-10.8-6.6-16-17.7-23.8-27.2-1.3-1.6-3-2.2-4.6-2.1-3.1-.6-7.2 1.4-7.4 5.6-.7 11.9-9.1 21.4-17.4 29.2-8.9 8.5-19.1 15.6-27.3 24.7-2.7 3-1.1 8.5 3.1 9 8 1.1 16 2.8 23.6 5.5.7.2 1.3.5 1.9.8 0 0 0 .1 0 .1-1.7 2.9-4 5.6-5.9 8.2-8.6 11.5-19.3 23.1-33.3 27.8-5.3 1.8-4.4 9.4.8 10.6 9.5 2.2 18.7 4.9 28.5 5.1 1.3 0 2.6 0 3.9.1.1 0 .1 0 .1 0-.7 2.3-2.6 4.4-4 6.2-8.1 9.9-20.8 19.6-33.3 23-4.8 1.3-4.6 8.1-.6 10.1 13.1 6.8 27.9 9.2 40.9 16-5.1 4.7-9.8 9.7-14.1 15.1-11.7 14.7-19 31.8-21.4 50.4-2 16.1.9 36.3 19.7 39.9 1.8 1.9 5 2.7 7.4 1.1 0 0 0 0 0 0 .1 0 .1 0 .1 0 .1 0 .2 0 .3 0 1.3-.2 2.6-.3 3.9-.5 4-.4 8-.5 12-.6 8.4-.2 16.9-.3 25.4-.5 10.4-.2 20.7-1.5 31-2.3 16.2-1.2 32.4-2.1 48.6-2.1 32.6-.1 65.2-.6 97.8.6 7.5.3 15 .5 22.4.1 8.1-.5 16.2-1.7 24.3-2.3 15.4-1.2 31.3-1.3 46.7-.6 9.6.4 22.1 6.1 31 .6 11.2 2 23.7-2 34.9-1.4 2.3.1 4.7-2.3 5-4.4 2.4-22.1-9-41.5-22.5-58.5.9.2 1.8.1 2.9-.3 10.3-4 20.4-9.8 27.3-18.6 1.7-2.1 2.1-6-.5-7.8-12.2-8.5-26.9-13.1-38.3-22.6 6.6-2.3 14.3-2.4 20.7-4.5 10.2-3.3 21.5-5.4 30.1-12.2C485.8 318.4 486.4 314.4 483.6 311.9zM260.1 246.6c2.2-2.4 1.5-5.6-.5-7.8-4.6-5-9.9-9.4-14.1-14.7-4.4-5.6-5.6-12-4.9-19 1.4-13.9 11.6-21.9 24.2-26 4-1.3 4.8-6.6 1.8-9.3-19.5-17.6-1.1-55.4 24.3-53.5 4.5.3 8.6-4.2 5.6-8.5-7.8-11.4-4.7-28.5 8.7-34.1 12.5-5.2 32.7 5.2 32.2 19.6-.1 2.3 1 3.7 2.5 4.4-12 13.1-26.2 24.3-38.1 37.5-2.2 2.4-1.7 7.3 1.7 8.6 5.4 2 10.7 2.8 16.4 3.4 3.8.4 12.6 0 15.3 3.2 1.5 1.8-4.1 8.4-5.1 9.7-2.7 3.7-5.3 7.5-7.8 11.3-10.1 14.9-22.1 34.5-40.2 40.3-5.4 1.7-4.4 9.4.8 10.6 10.9 2.5 24.3 4.6 36 2-5.2 7.6-12.7 13.8-20 19-11.7 8.4-24.5 15-37 22.1-4.1 2.3-2.6 9.3 2 10 7.9 1.1 16 1.4 23.7 3.6 1.3.3 2.8.9 3.8 1.6 0 0 0 0 .1 0-.1.6-.3 1.2-.4 1.7-.5 1.9-1.7 3.8-2.8 5.4-.6.9-1.4 1.7-2.1 2.5-.3.3-.5.5-.7.6-2.2-.6-4.1.2-5.3 1.6-8.7-.2-17.5-.1-26.3.4-6.7-5.9-12.5-12.8-12.8-22.4C240.7 260.3 254.2 253 260.1 246.6zM64 331c3.8-2.1 7.4-4.6 10.8-7.1 7.4-5.4 14.3-11.8 19.2-19.6 4.6-7.2 3.6-16.2-5.6-18.3-4.3-1-9.1-.3-13.5-.9-1.7-.2-3.4-.5-5-.9 11.8-8 20.9-19.7 29.2-31.1 4.6-6.3 6.1-12.7-1.2-17.4-3.7-2.4-8.9-3.5-13.1-4.7-2.1-.6-4.3-1.1-6.4-1.6 14.4-13.4 31.9-24.9 38-43.4 4.9 6.9 9.6 13.9 16.6 19.3 6.6 5.1 15.8 8.3 22.3 14-3.1 1.4-6.2 2.8-9.4 4-3.5 1.3-7.8.7-11.6 1.6-9.3 2.1-7.5 12.9-3.7 18.8 4.9 7.5 13.3 12.7 20.6 17.6 6.5 4.4 13.4 7.8 20.2 11.5-5.7 2.4-11.6 4.4-17.1 7.1-3.9 1.9-4.8 6.1-1.8 9.3 4.5 4.8 12.2 6.2 18.3 7.9 2.8.8 5.6 1.6 8.2 3 .1 0 .1.1.2.1-.2.1-.5.2-.9.7-1.2 1.5-3.1 2.4-4.9 2.9-2 .6-3.1 1.9-3.4 3.4-13.4 4.4-26.5 9.8-39.1 16.2-12.2 6.1-23.9 13.3-34.5 21.9-.4-1.3-1.2-2.4-2.7-3.2C84.1 337.2 73.8 334.6 64 331zM119.2 446c-8.6.2-17.1.2-25.7.5-4 .1-11-.4-16 1.2-.6-.5-1.4-.9-2.4-1-16.7-3.1-11.8-27.7-9-39.2 4.9-20.3 18.1-37.6 33.7-51 18.6-15.9 41-26.9 63.7-35.4 12-4.5 24.1-7.9 36.5-10.5-3.6 2.9-7 6-10.4 9-12.9 11.3-23.9 24.4-34.3 38-19.4 25.3-27.2 56.2-20.8 87.5C129.4 445.5 124.3 445.8 119.2 446zM148 443.9c-.9.1-1.8.1-2.7.2 0-.3-.1-.6-.1-1-6.4-28.7 1.8-56.8 19.4-79.8 9.4-12.2 19.4-24 30.8-34.4 9.1-8.3 19-17.3 30.6-21.9.8.7 1.8 1.1 2.9 1.2-4 5.6-7.7 11.3-10.5 17.8-5.4 12.6-8.6 26.2-10.5 39.7-2 13.8-2.4 27.8-.1 41.6 2 11.7 5.7 23 9.7 34.2C194.4 441.7 171.2 442.2 148 443.9zM444.1 410.7c5.3 8.5 8.8 17.9 8.7 27.9-11.5.7-24.6 5.1-34.4-1.5-4-2.7-7.5 1-7.5 4.9-2-.4-4-.9-5.4-1.2-5.9-1.1-11.6-1.5-17.6-1.7-15.4-.5-31.3-.3-46.7 1.1-7.4.7-14.8 1.7-22.3 2.1-8.1.5-16.3 0-24.4-.3-16.2-.6-32.4-.5-48.6-.5-5.6 0-11.2 0-16.7 0-4.1-11.5-8.2-23-10.4-35-2.5-13.4-1.8-26.9.1-40.3 1.8-12.6 5-25 10-36.7 3.9-9.1 10.2-16.9 16-24.9 1.9-.1 3.7-.2 5.6-.3 1.6 1.3 3.3 2.6 4.8 3.9 4.2 3.3 9.3-.5 9.2-4.5 18.2-.6 36.5 0 54.3 4 19.3 4.4 37 13.6 52.9 25.3 18.8 13.9 35.9 31.3 51.1 49.1C430.7 391 437.8 400.6 444.1 410.7zM447.2 323.1c-9.1 2.4-19.5 2.4-27.3 8.4-3.1 2.3-3 6-.6 8.7 10.7 12.1 25.8 16.9 39.1 24.9-5.3 4.8-11.7 8.2-18.3 10.8-2.6 1-3.6 3.3-3.5 5.5-2.7-3.3-5.5-6.4-8.2-9.5-18.6-21.2-39.3-41.5-63.3-56.6-20.3-12.7-43.3-19.8-67-21.9 3.9-5.9 5.6-13.6 2.9-18.5-3-5.3-11.2-6.8-16.6-7.9-.7-.1-1.3-.2-2-.4 22.4-12.4 46.8-27.2 52.9-52.5 1.4-5.8-5.8-8.1-9.5-4.7-5 4.7-13.1 5-19.5 5-1.8 0-3.6-.1-5.4-.2 13.6-10.2 23.5-26.3 32.6-39.7 5.3-7.9 15.6-17.6 12-28-3.4-10-17.8-9.8-28.8-10.9 11.5-11.6 24.2-22.1 35-34.5 6.8-7.9 12.1-16.8 17.6-25.6 2.2-3.5 4.6-7.1 6.4-10.8 4.2 8.2 8 16.5 12.4 24.6 5 9.2 11.4 17.1 18.5 24.7 13.9 15 28.8 29.1 44 42.8-9.2 4.9-20.7 6.1-30.8 6.3-5 .1-9.5.8-13.3 4.2-4.3 3.9-2.6 11-1.1 15.7 4 13 17 22.8 26.8 31.4 9.1 8 18.1 16.6 28 23.8-.9.2-1.8.4-2.7.7-6.3 1.5-12.7 2.9-19.1 4.3-5.8 1.3-11.5 2.7-17.1 4.7-3.7 1.3-8.7 3.3-10.3 7.2-2.4 5.7 1.4 12.4 4.7 16.8 4.7 6.3 10.9 11.5 17 16.2 12.3 9.5 25.7 17.4 37.8 27.1C463.4 319.1 454.7 321 447.2 323.1zM172.5 62.2c-8-14.3-27.8-17.8-42.4-14.5-18.2 4.1-27.3 22.5-26.1 40.1.5 7.1 3.6 13.3 9.5 17.2 2.1 1.4 4.1 1 5.5-.2 3 2 6 3.6 7.6 4.2 9.7 4 22.5 1.5 31.8-2.6C174.1 99.4 180.7 76.8 172.5 62.2zM160.1 91.5c-3.9 5.4-11.1 6.7-17.2 7.8-4.9.9-9.6.8-14.1-1.4-2.2-1.1-3.9-3-6.1-4.1-.4-.2-.8-.5-1.2-.8-.3-3-3.3-5.8-6.8-5.2-.4-3.9.3-8.3.9-11.2 1.2-5.9 4.3-11.3 9.2-14.8 9.2-6.6 22.8-5.4 32.1.1C167.7 68.1 166.7 82.4 160.1 91.5z"/></svg>