<?xml version="1.0" encoding="UTF-8"?>
<svg xmlns="http://www.w3.org/2000/svg" xmlns:xlink="http://www.w3.org/1999/xlink" viewBox="0 0 64 64" width="64px" height="64px">
<g id="surface11837045">
<path style=" stroke:none;fill-rule:nonzero;fill:rgb(97.647059%,89.019608%,68.235296%);fill-opacity:1;" d="M 9.378906 59 L 12.511719 59 L 12.511719 63 L 9.378906 63 Z M 47.378906 59 L 50.511719 59 L 50.511719 63 L 47.378906 63 Z M 32 15 L 18.378906 15 L 20.378906 11 L 29 11 Z M 32 15 "/>
<path style=" stroke:none;fill-rule:nonzero;fill:rgb(80.392158%,63.137257%,65.490198%);fill-opacity:1;" d="M 3 15 L 61 15 C 62.105469 15 63 15.894531 63 17 L 63 57 C 63 58.105469 62.105469 59 61 59 L 3 59 C 1.894531 59 1 58.105469 1 57 L 1 17 C 1 15.894531 1.894531 15 3 15 Z M 3 15 "/>
<path style=" stroke:none;fill-rule:nonzero;fill:rgb(98.039216%,93.725491%,87.058824%);fill-opacity:1;" d="M 3 45 L 61 45 C 62.105469 45 63 45.894531 63 47 L 63 57 C 63 58.105469 62.105469 59 61 59 L 3 59 C 1.894531 59 1 58.105469 1 57 L 1 47 C 1 45.894531 1.894531 45 3 45 Z M 3 45 "/>
<path style=" stroke:none;fill-rule:nonzero;fill:rgb(93.725491%,84.705883%,74.509805%);fill-opacity:1;" d="M 62 59 L 2 59 C 1.449219 59 1 58.550781 1 58 C 1 55.789062 2.789062 54 5 54 L 59 54 C 61.210938 54 63 55.789062 63 58 C 63 58.550781 62.550781 59 62 59 Z M 62 59 "/>
<path style=" stroke:none;fill-rule:nonzero;fill:rgb(77.254903%,89.411765%,98.039216%);fill-opacity:1;" d="M 40.339844 51.121094 L 38.199219 51.351562 C 30.097656 52.21875 21.921875 52.21875 13.820312 51.351562 L 11.679688 51.121094 C 9.199219 50.886719 7.195312 48.988281 6.828125 46.519531 L 6.660156 45.261719 C 5.773438 38.671875 5.816406 31.988281 6.789062 25.410156 C 7.183594 22.972656 9.171875 21.113281 11.628906 20.878906 L 13.828125 20.640625 C 21.933594 19.769531 30.105469 19.769531 38.210938 20.640625 L 40.410156 20.878906 C 42.867188 21.113281 44.855469 22.972656 45.25 25.410156 C 46.222656 31.988281 46.269531 38.671875 45.378906 45.261719 L 45.210938 46.519531 C 44.84375 48.992188 42.828125 50.894531 40.339844 51.121094 Z M 40.339844 51.121094 "/>
<path style=" stroke:none;fill-rule:nonzero;fill:rgb(89.019608%,94.901961%,100%);fill-opacity:1;" d="M 45.800781 40.941406 C 46.179688 35.757812 45.988281 30.550781 45.230469 25.410156 C 45.15625 24.960938 45.027344 24.523438 44.839844 24.109375 L 17.289062 51.660156 C 23.222656 52.125 29.179688 52.125 35.109375 51.660156 Z M 42.601562 21.609375 C 42.121094 21.332031 41.601562 21.125 41.058594 21 L 36.058594 21 L 8 49.121094 C 8.925781 50.25 10.257812 50.96875 11.710938 51.121094 L 12.980469 51.261719 Z M 29.410156 21 L 6.5 43.910156 C 6.550781 44.359375 6.601562 44.808594 6.660156 45.261719 L 6.710938 45.628906 L 31.339844 21 Z M 29.410156 21 "/>
<path style=" stroke:none;fill-rule:nonzero;fill:rgb(97.647059%,89.019608%,68.235296%);fill-opacity:1;" d="M 54 23 C 52.34375 23 51 24.34375 51 26 C 51 27.65625 52.34375 29 54 29 C 55.65625 29 57 27.65625 57 26 C 57 24.34375 55.65625 23 54 23 Z M 54 23 "/>
<path style=" stroke:none;fill-rule:nonzero;fill:rgb(92.941177%,47.058824%,60.000002%);fill-opacity:1;" d="M 54 33 C 52.894531 33 52 33.894531 52 35 C 52 36.105469 52.894531 37 54 37 C 55.105469 37 56 36.105469 56 35 C 56 33.894531 55.105469 33 54 33 Z M 54 33 "/>
<path style=" stroke:none;fill-rule:nonzero;fill:rgb(55.29412%,42.352942%,62.352943%);fill-opacity:1;" d="M 61 14 L 33.410156 14 L 30.871094 11.460938 C 30.027344 10.613281 28.910156 10.09375 27.71875 10 L 37.640625 1.730469 C 37.980469 1.527344 38.167969 1.140625 38.117188 0.746094 C 38.070312 0.351562 37.789062 0.0234375 37.40625 -0.0898438 C 37.027344 -0.199219 36.613281 -0.0742188 36.359375 0.230469 L 25.058594 9.648438 L 18.710938 3.289062 C 18.3125 2.949219 17.722656 2.972656 17.351562 3.34375 C 16.984375 3.710938 16.960938 4.304688 17.300781 4.699219 L 22.601562 10 C 21.296875 10.015625 20.050781 10.539062 19.128906 11.460938 L 16.589844 14 L 3 14 C 1.34375 14 0 15.34375 0 17 L 0 57 C 0 58.65625 1.34375 60 3 60 L 8 60 L 8 61 C 8 62.65625 9.34375 64 11 64 C 12.65625 64 14 62.65625 14 61 L 14 60 L 46 60 L 46 61 C 46 62.65625 47.34375 64 49 64 C 50.65625 64 52 62.65625 52 61 L 52 60 L 61 60 C 62.65625 60 64 58.65625 64 57 L 64 17 C 64 15.34375 62.65625 14 61 14 Z M 20.539062 12.878906 C 21.101562 12.316406 21.863281 12 22.660156 12 L 27.351562 12 C 28.144531 12 28.90625 12.316406 29.46875 12.878906 L 30.589844 14 L 19.410156 14 Z M 2 17 C 2 16.449219 2.449219 16 3 16 L 61 16 C 61.550781 16 62 16.449219 62 17 L 62 44 L 46.519531 44 C 47.242188 37.765625 47.144531 31.46875 46.230469 25.261719 C 45.769531 22.375 43.417969 20.164062 40.511719 19.878906 L 38.308594 19.640625 C 30.136719 18.765625 21.894531 18.765625 13.71875 19.640625 L 11.519531 19.878906 C 8.609375 20.164062 6.261719 22.375 5.800781 25.261719 C 4.882812 31.46875 4.78125 37.765625 5.5 44 L 2 44 Z M 40.238281 50.121094 L 38.101562 50.351562 C 30.070312 51.210938 21.96875 51.210938 13.941406 50.351562 L 11.800781 50.121094 C 9.761719 49.953125 8.105469 48.402344 7.800781 46.378906 L 7.628906 45.121094 C 6.75 38.625 6.792969 32.035156 7.75 25.550781 C 8.078125 23.546875 9.726562 22.027344 11.75 21.859375 L 13.949219 21.621094 C 21.980469 20.757812 30.078125 20.757812 38.109375 21.621094 L 40.308594 21.859375 C 42.332031 22.027344 43.980469 23.546875 44.308594 25.550781 C 45.269531 32.035156 45.308594 38.625 44.429688 45.121094 L 44.261719 46.378906 C 43.953125 48.410156 42.289062 49.960938 40.238281 50.121094 Z M 12 61 C 12 61.550781 11.550781 62 11 62 C 10.449219 62 10 61.550781 10 61 L 10 60 L 12 60 Z M 50 61 C 50 61.550781 49.550781 62 49 62 C 48.449219 62 48 61.550781 48 61 L 48 60 L 50 60 Z M 61 58 L 3 58 C 2.449219 58 2 57.550781 2 57 L 2 46 L 5.75 46 L 5.839844 46.648438 C 6.265625 49.574219 8.636719 51.832031 11.578125 52.109375 L 13.71875 52.339844 C 17.796875 52.777344 21.898438 53 26 53 C 30.105469 53 34.207031 52.777344 38.289062 52.339844 L 40.429688 52.109375 C 43.371094 51.828125 45.734375 49.574219 46.160156 46.648438 L 46.25 46 L 62 46 L 62 57 C 62 57.550781 61.550781 58 61 58 Z M 61 58 "/>
<path style=" stroke:none;fill-rule:nonzero;fill:rgb(55.29412%,42.352942%,62.352943%);fill-opacity:1;" d="M 11 42 C 10.449219 42 10 42.449219 10 43 L 10 45 C 10 45.550781 10.449219 46 11 46 C 11.550781 46 12 45.550781 12 45 L 12 43 C 12 42.449219 11.550781 42 11 42 Z M 26 42 C 25.449219 42 25 42.449219 25 43 L 25 45 C 25 45.550781 25.449219 46 26 46 C 26.550781 46 27 45.550781 27 45 L 27 43 C 27 42.449219 26.550781 42 26 42 Z M 31 42 C 30.449219 42 30 42.449219 30 43 L 30 45 C 30 45.550781 30.449219 46 31 46 C 31.550781 46 32 45.550781 32 45 L 32 43 C 32 42.449219 31.550781 42 31 42 Z M 36 42 C 35.449219 42 35 42.449219 35 43 L 35 45 C 35 45.550781 35.449219 46 36 46 C 36.550781 46 37 45.550781 37 45 L 37 43 C 37 42.449219 36.550781 42 36 42 Z M 41 42 C 40.449219 42 40 42.449219 40 43 L 40 45 C 40 45.550781 40.449219 46 41 46 C 41.550781 46 42 45.550781 42 45 L 42 43 C 42 42.449219 41.550781 42 41 42 Z M 16 42 C 15.449219 42 15 42.449219 15 43 L 15 45 C 15 45.550781 15.449219 46 16 46 C 16.550781 46 17 45.550781 17 45 L 17 43 C 17 42.449219 16.550781 42 16 42 Z M 21 42 C 20.449219 42 20 42.449219 20 43 L 20 45 C 20 45.550781 20.449219 46 21 46 C 21.550781 46 22 45.550781 22 45 L 22 43 C 22 42.449219 21.550781 42 21 42 Z M 54 30 C 56.210938 30 58 28.210938 58 26 C 58 23.789062 56.210938 22 54 22 C 51.789062 22 50 23.789062 50 26 C 50 28.210938 51.789062 30 54 30 Z M 54 23.789062 C 55.21875 23.789062 56.210938 24.78125 56.210938 26 C 56.210938 27.21875 55.21875 28.210938 54 28.210938 C 52.78125 28.210938 51.789062 27.21875 51.789062 26 C 51.789062 24.78125 52.78125 23.789062 54 23.789062 Z M 54 32 C 52.34375 32 51 33.34375 51 35 C 51 36.65625 52.34375 38 54 38 C 55.65625 38 57 36.65625 57 35 C 57 33.34375 55.65625 32 54 32 Z M 54 36.171875 C 53.355469 36.171875 52.828125 35.644531 52.828125 35 C 52.828125 34.355469 53.355469 33.828125 54 33.828125 C 54.644531 33.828125 55.171875 34.355469 55.171875 35 C 55.171875 35.644531 54.644531 36.171875 54 36.171875 Z M 57 50 L 49 50 C 48.449219 50 48 50.449219 48 51 C 48 51.550781 48.449219 52 49 52 L 57 52 C 57.550781 52 58 51.550781 58 51 C 58 50.449219 57.550781 50 57 50 Z M 57 50 "/>
<path style=" stroke:none;fill-rule:nonzero;fill:rgb(100%,97.254902%,97.254902%);fill-opacity:1;" d="M 15.75 24.5 L 16.988281 26.761719 L 19.25 28 L 16.988281 29.238281 L 15.75 31.5 L 14.511719 29.238281 L 12.25 28 L 14.511719 26.761719 Z M 32.421875 23.160156 L 33.269531 24.730469 L 34.839844 25.578125 L 33.269531 26.441406 L 32.421875 28 L 31.558594 26.441406 L 30 25.578125 L 31.558594 24.730469 Z M 31.648438 36.699219 L 32.230469 37.769531 L 33.300781 38.351562 L 32.230469 38.941406 L 31.648438 40 L 31.070312 38.941406 L 30 38.351562 L 31.070312 37.769531 Z M 31.648438 36.699219 "/>
<path style=" stroke:none;fill-rule:nonzero;fill:rgb(97.647059%,89.019608%,68.235296%);fill-opacity:1;" d="M 63 51 C 63 57.628906 57.628906 63 51 63 C 44.371094 63 39 57.628906 39 51 C 39 44.371094 44.371094 39 51 39 C 57.628906 39 63 44.371094 63 51 Z M 63 51 "/>
<path style=" stroke:none;fill-rule:nonzero;fill:rgb(55.29412%,42.352942%,62.352943%);fill-opacity:1;" d="M 51 38 C 43.832031 38 38 43.832031 38 51 C 38 58.167969 43.832031 64 51 64 C 58.167969 64 64 58.167969 64 51 C 64 43.832031 58.167969 38 51 38 Z M 51 62 C 44.933594 62 40 57.066406 40 51 C 40 44.933594 44.933594 40 51 40 C 57.066406 40 62 44.933594 62 51 C 62 57.066406 57.066406 62 51 62 Z M 48 48 C 48 49.101562 48.898438 50 50 50 L 50 48 C 50 47.449219 50.445312 47 51 47 C 51.554688 47 52 47.449219 52 48 L 52 50 C 54.207031 50 56 51.792969 56 54 C 56 56.207031 54.207031 58 52 58 L 52 59 C 52 59.550781 51.554688 60 51 60 C 50.445312 60 50 59.550781 50 59 L 50 58 C 47.792969 58 46 56.207031 46 54 C 46 53.449219 46.445312 53 47 53 C 47.554688 53 48 53.449219 48 54 C 48 55.101562 48.898438 56 50 56 L 50 54 C 50 53.449219 50.445312 53 51 53 C 51.554688 53 52 53.449219 52 54 L 52 56 C 53.101562 56 54 55.101562 54 54 C 54 52.898438 53.101562 52 52 52 L 50 52 C 47.792969 52 46 50.207031 46 48 C 46 45.792969 47.792969 44 50 44 L 50 43 C 50 42.449219 50.445312 42 51 42 C 51.554688 42 52 42.449219 52 43 L 52 44 C 54.207031 44 56 45.792969 56 48 C 56 48.550781 55.554688 49 55 49 C 54.445312 49 54 48.550781 54 48 C 54 46.898438 53.101562 46 52 46 L 50 46 C 48.898438 46 48 46.898438 48 48 Z M 48 48 "/>
</g>
</svg>
