<svg xmlns="http://www.w3.org/2000/svg"  viewBox="0 0 512 512" width="64px" height="64px"><path fill="#74CCCF" d="M342.8,388.3c0.6-13.3,0.8-26.4,0.6-39.7c-0.5-28.5-2-56.9-3.4-85.4c-1.4-27.6-3.8-55.2-5.3-82.8c-0.4-6.5-0.1-13-0.4-19.5c-0.2-5-0.9-9.9-1.1-14.9c-0.2-4.3-0.3-8.7-1-13c-0.4-2.5-0.6-6.2-2.8-7.9c0,0,0,0-0.1-0.1c-4.5-0.6-9.7,1-14,1.8c-5.9,1.2-11.7,2.5-17.8,2.8c-17.6,1-35.1-0.1-52.7-0.7c-17-0.7-33.8,0.1-50.8,0.4c-11.7,0.2-25.4-2.6-36.8,0.9c-1.8,28.1-3.4,56.2-2,84.4c0.8,15,1.8,29.9,2.1,44.8c0.3,14.2,0.3,28.4,0.8,42.6c0.6,16.2,2.1,32.3,3.1,48.4c1,15.4-0.5,30.2-1.5,45.6c-0.8,11.5,0,26.2,9.2,34.5c6.3,5.7,15,7.8,23.3,8c19.8,0.6,39.3-4.6,59.1-5.6c29.9-1.5,59.8-2.2,89.3-7.6c-0.1-0.3-0.1-0.7-0.1-1v-3c0-2,0.8-3.4,2.1-4.4c0.7-3.6,0.5-7.5,0.3-11.1C342.6,400,342.5,394.2,342.8,388.3z M165.7,276.9c0.2-2.8,2-4.1,4.1-4.3c-0.1-2.6,1.5-5.1,4.9-5.1c24.5,0,48.9-1.4,73.4-2.6c24.2-1.1,48.4-1.4,72.6-1.4c2.3,0,3.9,1.2,4.8,2.7c3.8,2.1,3.7,6.7,3.8,10.9c0.2,6.9,0.1,13.8,0,20.8c-0.2,12.2-0.7,24.5-0.8,36.7c0,2.8-1.9,5.9-5.1,5.9c-21.4,0-43-0.7-64.4,0.7c-21.2,1.4-42.3,3.6-63.6,3.3c-12.2-0.1-23.2-3.7-26.3-16.7c-1.8-7.5-1.4-15.2-2.2-22.8C166.1,295.5,165,286.3,165.7,276.9z M333.6,415.7c-1.2,1.7-3.3,2.8-5.6,2.6c-10.3-0.7-20.2,3.4-30.3,4c-11.1,0.6-22.1,0.4-33.2,1.9c-11.2,1.5-22.1,3.8-33.3,4.7c-12.1,0.9-24.7,1.6-36.7-0.3c-6.8-1.1-15.2-3.4-18.5-9.7c-0.9-0.3-1.7-0.9-2.4-1.9c-4.2-5.5-3.8-16.3-3.9-22.8c-0.2-11.5,0-23.5-2-34.8c-0.9-4.7,3.8-6.6,7.3-5.2c0.8-1,2-1.6,3.7-1.7c21.3-0.8,42.6-2.1,63.8-3.1c20-1,40.3-3.2,60.4-2c9.9,0.6,24.1,1,28.7,11.6c2.7,6.4,1.8,13.6,2.2,20.3c0.6,10.4,1.9,20.8,2.8,31.2C336.8,413.1,335.4,414.9,333.6,415.7z"/><path fill="#FEBF10" d="M318.4,282.4c0-2.3-0.1-4.6-0.2-6.9c0-0.3,0-0.7-0.1-1c-23.1,0-46.2,0.3-69.3,1.4c-24.1,1.1-48.3,2.5-72.4,2.6c0,0.2,0,0.4,0,0.6c-0.6,9,1,17.9,1.7,26.8c0.5,6.3-0.1,13.1,1.6,19.2c1,3.6,2.6,6.5,6.5,7.5c7.1,1.7,14.8,1.2,22,1c19.3-0.5,38.5-3,57.7-3.8c17.2-0.7,34.5-0.3,51.7-0.3c0.1-8.9,0.5-17.7,0.6-26.6C318.4,296.1,318.5,289.2,318.4,282.4z"/><path fill="#BCBCBC" d="M288.7,82.9c0.7-3.5-0.6-8.7-1.4-12.3c-0.8-3.3-1.5-9.4-5.2-10.7c-4.6-1.7-10.6-0.2-15.2,0.8c-5.9,1.2-11.8,2.4-17.8,3.3c-15.7,2.2-31.3,3.1-47.2,3.5c-2.8,0.1-8.1,0.7-12.4,0.1c0,5.2,0,10.6,0.7,15.7c1.4-0.4,3,0,4.4,1.6c4.1,4.6,11.8,4.6,17.5,4.4c8.1-0.2,16.2-1.2,24.3-2c7.7-0.8,15.4-0.9,23.2-0.9c9.7-0.6,19.4-1,29-1.3C288.5,84.4,288.5,83.7,288.7,82.9z"/><path fill="#F6851F" d="M322.9,382.1c-0.3-4.5-0.1-9.1-0.4-13.6c-0.1-1.6-0.1-3.9-1-5.4c-1.8-3-5.6-3.3-8.9-3.8c-7.2-1-14.3-1.5-21.6-1.4c-18.4,0.3-36.9,1.7-55.4,2.7c-18.7,1-37.4,2-56.1,2.7c-0.1,0-0.1,0-0.2,0c1.2,9.5,1.1,19.5,1.3,29c0.1,3.9,0.3,7.8,0.7,11.6c0.2,1.3,0.3,3.3,0.6,4.9c1.8,0.6,3.4,2.1,3.6,4.6c0,0.2,0,0.3,0,0.3c0,0,0.1,0.1,0.2,0.2c-0.6-0.8,0.7,0.6,1,0.8c0.1,0.1,2.4,1.2,3.4,1.5c4.7,1.3,9.6,2,14.5,2.2c11,0.5,22.1-0.1,33.1-1.3c11.9-1.3,23.5-4.1,35.4-5c10.1-0.8,20.4,0,30.4-1.8c6.7-1.2,13.3-2.6,20.1-3c0.5-0.4,1-0.8,1.6-1C324.4,398.4,323.4,390.3,322.9,382.1z"/><path fill="#BCBCBC" d="M367.1,281.2c-2.8-31.2-2.7-62.7-4.4-94c-0.9-15.7-2.1-31.3-4.3-46.9c-2.2-15.2-5.6-30-9.3-44.8c-18.3,0-36.5,0-54.7,0.5c-12.8,1.9-25.8,1.6-38.8,1.7c-3.9,0.3-7.8,0.5-11.7,0.9c-34,2.8-67.9,6.5-102,6.9c-9.1,17.1-12.4,36.2-13.3,55.4c-1,21.5,0.3,43.1,1.5,64.5c2.4,43.6,3.8,87,3.5,130.7c-0.2,24.5-1.9,53.6,10.5,75.8c12.6,22.6,38.4,30.6,62.7,33c24.9,2.5,50.6,1.1,75.6-0.4c13.1-0.8,26.4-2.1,39.1-5.6c11.7-3.2,24.5-8,33.3-16.7c16.8-16.5,18.8-41.5,18.8-63.8C373.5,345.9,370,313.5,367.1,281.2z M351.3,425.8c0.2,0.5,0.3,1.1,0.3,1.7v2c0,3.3-1.9,5.3-5.1,5.9c-32.3,6.5-65.3,7-98.1,8.8c-20.1,1.1-39.8,7-60.1,5.1c-8.9-0.8-18.1-3.3-25-9.1c-8.5-7.1-13.2-18.3-14.3-29.1c-1.5-14.8,2-29.5,1.9-44.3c-0.1-16.1-2-32.1-3-48.2c-1.9-32.4-1.4-64.8-3.3-97.2c-1.9-32.2,0.1-64.3,2.1-96.5c0.2-3.2,2.6-4.5,5-4.3c12.4-4.8,26.7-1.9,39.7-2.2c17.6-0.3,35.1-1.2,52.7-0.5c18.2,0.7,36.4,1.9,54.6,0.6c11-0.8,23.5-7,34.4-4.1c1.3,0.3,2.2,1,2.9,1.8c0.2,0.1,0.5,0.3,0.7,0.5c6.7,5.2,6.8,16.1,7.2,23.8c0.6,11.2,1.6,22.3,1.6,33.5c0,14.5,1.9,29.1,3,43.5c1.1,14.2,1.6,28.5,2.3,42.7c1.5,30.4,3.1,60.9,3.6,91.3c0.2,14.4-0.8,28.7-0.9,43C353.5,404.9,355.8,416.2,351.3,425.8z"/><path fill="#010101" d="M375.9,242.9c-1-25.8-1.5-51.6-3.7-77.3c-2.1-25.3-6.8-49.8-13-74.5c-0.5-2.1-1.9-3.2-3.4-3.6c-0.9-1.8-2.6-3.1-5.1-3.1h-2.2c-16.3,0-32.7,0-48.9,0.4c-0.1,0-0.1-0.1-0.2-0.1c1.5-8.3-1.4-19.5-4.9-26.9c-5.1-10.7-17.3-10.3-27.3-8.4c-14.7,2.7-29.2,5.1-44.1,6.2c-7.6,0.6-15.2,0.6-22.8,0.8c-1.9,0.1-3.8,0.2-5.7,0.2c-1,0-2,0-3.1,0c-0.1,0-0.2,0-0.3,0c-0.2-0.2-0.5-0.3-0.8-0.5c-0.8-0.5-1.8-0.8-2.9-0.8c-2.6,0-4.1,1.4-4.6,3.3c-0.1,0.4-0.3,0.7-0.3,1.2c-0.1,0.4-0.1,0.7-0.1,1.1c-2.1,0.7-4,2.5-4,5.4c0,8.6,0.1,17.1,2.3,25.4c0.1,0.3,0.2,0.6,0.3,0.9c-15.2,1-30.3,1.8-45.5,1.8c-4.4,0-5.8,4.3-4.4,7.5c-13.1,25.5-14.2,54.8-13.8,83c0.5,32.4,2.8,64.9,4.4,97.3c0.8,16.3,1,32.7,0.9,49c0,16.1-0.8,32.4-0.2,48.5c0.9,23.2,3.5,48.6,18.5,67.4c15.8,19.7,42.6,26.5,66.6,28.7c24.9,2.3,50.5,0.9,75.4-0.5c25.4-1.5,52-5.5,73.3-20.5c19.6-13.7,26-38.1,27.5-60.7C387.4,343.8,377.9,293.2,375.9,242.9z M189.5,67.5c4.3,0.6,9.6,0,12.4-0.1c15.8-0.5,31.4-1.3,47.2-3.5c6-0.8,11.8-2,17.8-3.3c4.6-1,10.6-2.5,15.2-0.8c3.7,1.4,4.4,7.5,5.2,10.7c0.9,3.7,2.1,8.9,1.4,12.3c-0.1,0.8-0.1,1.5,0,2.2c-9.7,0.3-19.4,0.7-29,1.3c-7.7,0-15.5,0.1-23.2,0.9c-8.1,0.9-16.1,1.9-24.3,2c-5.7,0.1-13.4,0.2-17.5-4.4c-1.4-1.6-3-1.9-4.4-1.6C189.5,78.1,189.5,72.8,189.5,67.5z M354.8,442.2c-8.8,8.7-21.6,13.5-33.3,16.7c-12.7,3.5-26,4.7-39.1,5.6c-24.9,1.5-50.7,2.9-75.6,0.4c-24.4-2.4-50.1-10.4-62.7-33c-12.4-22.2-10.6-51.3-10.5-75.8c0.3-43.7-1.1-87.1-3.5-130.7c-1.2-21.4-2.5-43.1-1.5-64.5c0.9-19.2,4.2-38.3,13.3-55.4c34.1-0.4,68-4.1,102-6.9c3.9-0.3,7.8-0.6,11.7-0.9c13-0.1,25.9,0.2,38.8-1.7c18.2-0.4,36.4-0.5,54.7-0.5c3.7,14.9,7.1,29.7,9.3,44.8c2.2,15.5,3.4,31.2,4.3,46.9c1.8,31.3,1.6,62.7,4.4,94c2.9,32.3,6.4,64.7,6.5,97.2C373.6,400.7,371.6,425.7,354.8,442.2z"/><path fill="#010101" d="M353.6,394.7c0.1-14.4,1.1-28.6,0.9-43c-0.4-30.5-2-60.9-3.6-91.3c-0.7-14.2-1.3-28.5-2.3-42.7c-1.1-14.4-3-29-3-43.5c0-11.2-1-22.3-1.6-33.5c-0.4-7.6-0.6-18.6-7.2-23.8c-0.2-0.2-0.5-0.3-0.7-0.5c-0.7-0.8-1.6-1.5-2.9-1.8c-10.9-3-23.5,3.3-34.4,4.1c-18.2,1.3-36.4,0.1-54.6-0.6c-17.6-0.7-35.1,0.1-52.7,0.5c-13,0.3-27.3-2.7-39.7,2.2c-2.5-0.2-4.8,1.1-5,4.3c-2,32.1-4,64.3-2.1,96.5c1.9,32.4,1.4,64.8,3.3,97.2c0.9,16.1,2.8,32.1,3,48.2c0.1,14.8-3.4,29.5-1.9,44.3c1.1,10.8,5.8,22,14.3,29.1c7,5.8,16.2,8.3,25,9.1c20.2,1.8,40-4,60.1-5.1c32.8-1.8,65.8-2.2,98.1-8.8c3.1-0.6,5.1-2.6,5.1-5.9v-2c0-0.7-0.1-1.2-0.3-1.7C355.8,416.2,353.5,404.9,353.6,394.7z M342.9,405.9c0.2,3.6,0.4,7.5-0.3,11.1c-1.2,1-2.1,2.4-2.1,4.4v3c0,0.4,0,0.7,0.1,1c-29.5,5.4-59.4,6.2-89.3,7.6c-19.8,1-39.2,6.2-59.1,5.6c-8.4-0.3-17-2.3-23.3-8c-9.2-8.3-10-23-9.2-34.5c1-15.4,2.5-30.1,1.5-45.6c-1-16.2-2.5-32.2-3.1-48.4c-0.5-14.2-0.5-28.4-0.8-42.6c-0.3-15-1.3-29.9-2.1-44.8c-1.4-28.1,0.3-56.3,2-84.4c11.4-3.5,25.2-0.7,36.8-0.9c17-0.3,33.8-1.1,50.8-0.4c17.6,0.7,35.1,1.7,52.7,0.7c6-0.3,11.9-1.6,17.8-2.8c4.3-0.9,9.5-2.4,14-1.8c0,0,0,0,0.1,0.1c2.2,1.7,2.4,5.3,2.8,7.9c0.6,4.3,0.7,8.6,1,13c0.3,5,0.9,9.9,1.1,14.9c0.3,6.5,0,13,0.4,19.5c1.5,27.6,3.9,55.2,5.3,82.8c1.4,28.4,2.9,56.9,3.4,85.4c0.2,13.3,0,26.5-0.6,39.7C342.5,394.2,342.6,400,342.9,405.9z"/><path fill="#010101" d="M336.5 410.5c-.8-10.4-2.2-20.8-2.8-31.2-.4-6.7.5-14-2.2-20.3-4.6-10.7-18.8-11.1-28.7-11.6-20-1.1-40.4 1.1-60.4 2-21.3 1-42.6 2.3-63.8 3.1-1.7.1-2.9.7-3.7 1.7-3.5-1.4-8.2.5-7.3 5.2 2.1 11.3 1.8 23.4 2 34.8.1 6.6-.3 17.3 3.9 22.8.7.9 1.5 1.5 2.4 1.9 3.3 6.3 11.7 8.6 18.5 9.7 12 1.9 24.6 1.3 36.7.3 11.3-.9 22.2-3.2 33.3-4.7 11.1-1.5 22.1-1.3 33.2-1.9 10.2-.6 20.1-4.6 30.3-4 2.3.2 4.4-1 5.6-2.6C335.4 414.9 336.8 413.1 336.5 410.5zM323.5 407.6c-6.7.4-13.3 1.8-20.1 3-10 1.7-20.3 1-30.4 1.8-11.9.9-23.5 3.7-35.4 5-11 1.2-22.1 1.8-33.1 1.3-4.9-.2-9.8-.8-14.5-2.2-1-.3-3.2-1.4-3.4-1.5-.2-.2-1.6-1.6-1-.8-.1-.2-.2-.2-.2-.2 0 0 0-.1 0-.3-.3-2.5-1.8-4-3.6-4.6-.3-1.6-.5-3.6-.6-4.9-.5-3.9-.7-7.8-.7-11.6-.2-9.5-.1-19.4-1.3-29 .1 0 .1 0 .2 0 18.7-.7 37.4-1.8 56.1-2.7 18.4-.9 36.9-2.4 55.4-2.7 7.2-.1 14.4.3 21.6 1.4 3.3.5 7.1.8 8.9 3.8.9 1.4.9 3.8 1 5.4.4 4.5.2 9.1.4 13.6.5 8.2 1.5 16.3 2.2 24.4C324.5 406.8 324 407.1 323.5 407.6zM329.3 277.1c-.1-4.2-.1-8.7-3.8-10.9-.9-1.6-2.6-2.7-4.8-2.7-24.2 0-48.4.3-72.6 1.4-24.5 1.1-48.9 2.5-73.4 2.6-3.4 0-4.9 2.5-4.9 5.1-2.1.2-3.9 1.5-4.1 4.3-.6 9.4.4 18.6 1.3 28 .7 7.6.4 15.4 2.2 22.8 3.1 13 14.1 16.6 26.3 16.7 21.3.2 42.4-2 63.6-3.3 21.4-1.4 43-.7 64.4-.7 3.2 0 5.1-3.1 5.1-5.9 0-12.2.6-24.5.8-36.7C329.4 290.9 329.5 284 329.3 277.1zM318.3 302.9c-.2 8.9-.5 17.7-.6 26.6-17.2-.1-34.5-.4-51.7.3-19.3.8-38.4 3.3-57.7 3.8-7.2.2-15 .7-22-1-3.9-1-5.5-3.9-6.5-7.5-1.7-6.1-1.1-12.9-1.6-19.2-.7-8.9-2.3-17.9-1.7-26.8 0-.2 0-.4 0-.6 24.2-.1 48.3-1.4 72.4-2.6 23.1-1.1 46.2-1.4 69.3-1.4 0 .3 0 .7.1 1 .1 2.3.2 4.6.2 6.9C318.5 289.2 318.4 296.1 318.3 302.9z"/></svg>