<svg xmlns="http://www.w3.org/2000/svg"  viewBox="0 0 48 48" width="64px" height="64px"><path fill="#2b8c5e" d="M4.868,26.468c8.797-1.28,20.757-1.534,29.646-1.629c2.698-0.029,5.396-0.058,8.094-0.087 c0.114-0.001,0.175,0.194,0.223,0.346c0.188,0.977,0.252,2.354,0.293,3.348c0.12,2.928,0.241,5.857,0.361,8.785 c0.074,1.811,0.148,3.637-0.149,5.425c-0.016,0.097-0.211,0.271-0.309,0.275c-11.368,0.416-26.123,0.512-37.496,0.215 C5.112,37.657,4.769,31.973,4.868,26.468z"/><path fill="#010101" d="M20.089,43.819c-5.132,0-10.127-0.057-14.572-0.173c-0.256-0.007-0.466-0.206-0.485-0.462 c-0.386-5.063-0.767-11.009-0.664-16.726c0.004-0.245,0.186-0.451,0.428-0.486c8.643-1.258,20.419-1.534,29.712-1.634l8.093-0.086 c0.004,0,0.008,0,0.012,0c0.47,0,0.624,0.479,0.69,0.684c0.206,1.047,0.272,2.347,0.319,3.489l0.361,8.785 c0.074,1.811,0.151,3.683-0.155,5.527c-0.054,0.33-0.45,0.68-0.783,0.693C36.055,43.688,27.914,43.819,20.089,43.819z M5.995,42.658c11.098,0.278,25.491,0.192,36.87-0.221c0.263-1.701,0.191-3.472,0.121-5.186l-0.361-8.785 c-0.032-0.782-0.092-2.225-0.272-3.211l-7.832,0.083c-9.112,0.098-20.614,0.365-29.158,1.563 C5.287,32.279,5.632,37.846,5.995,42.658z M42.616,25.253H42.61C42.612,25.253,42.614,25.253,42.616,25.253z"/><path fill="#71c598" d="M37.993,40.258c-0.571,0.013-1.384,0.104-1.956,0.117c-0.276,0.006-0.552,0.012-0.829,0.018 c-5.446,0.119-11.893,0.175-17.34,0.166c-1.323-0.002-4.648-0.008-5.967-0.116c-0.657-0.054-1.34-0.143-1.886-0.511 c-0.609-0.41-1.128-1.177-1.852-1.053c0.641-2.717-0.653-5.633-0.53-8.422c0.842-0.124,1.54-0.767,1.943-1.517 c0.086-0.16,0.165-0.339,0.322-0.43c0.133-0.077,0.295-0.076,0.449-0.072c1.691,0.044,3.382,0.143,5.074,0.115 c6.202-0.103,15.405-1.837,21.483-0.602c0.779,0.816,1.854,1.362,2.983,1.364c0.878,2.831,0.883,5.848,0.881,8.812 c-0.573-0.156-1.194,0.115-1.612,0.537S38.24,39.718,37.993,40.258z M26.035,32.346c-1.105-0.693-2.399-1.167-3.574-0.601 s-1.921,1.915-1.774,3.211c0.08,0.709,0.423,1.405,1.003,1.821c0.261,0.187,0.56,0.312,0.86,0.426 c0.596,0.227,1.225,0.416,1.862,0.378c0.78-0.047,1.523-0.449,2.022-1.051c0.499-0.601,0.755-1.389,0.748-2.17 C27.173,33.524,26.743,32.789,26.035,32.346z M34.917,33.021c-0.406-0.609-1.138-0.554-1.827-0.307 c-0.171,0.061-0.337,0.141-0.481,0.252c-0.581,0.445-0.688,1.359-0.299,1.979s1.183,0.924,1.908,0.82 c0.268-0.039,0.537-0.132,0.731-0.32c0.27-0.262,0.351-0.66,0.38-1.035C35.347,34.157,35.25,33.521,34.917,33.021z M14.183,33.537 c-0.534-0.493-1.232-0.373-1.884-0.053c-0.378,0.185-0.712,0.518-0.774,0.934c-0.038,0.253,0.028,0.511,0.129,0.746 c0.138,0.322,0.348,0.621,0.64,0.817c0.42,0.281,0.995,0.312,1.445,0.081c0.45-0.231,0.759-0.713,0.786-1.218 C14.55,34.334,14.558,33.883,14.183,33.537z"/><path fill="#010101" d="M18.937,41.062c-0.358,0-0.713,0-1.068-0.001c-1.442-0.003-4.687-0.011-6.007-0.118 c-0.684-0.056-1.467-0.152-2.125-0.594c-0.194-0.131-0.38-0.292-0.565-0.455c-0.401-0.354-0.666-0.569-0.924-0.52 c-0.168,0.029-0.334-0.028-0.449-0.15c-0.115-0.123-0.161-0.294-0.123-0.458c0.347-1.469,0.088-3.009-0.185-4.64 c-0.203-1.208-0.412-2.456-0.358-3.689c0.011-0.24,0.189-0.438,0.427-0.474c0.611-0.09,1.2-0.561,1.575-1.258 c0.12-0.229,0.247-0.473,0.511-0.626c0.256-0.151,0.528-0.146,0.712-0.14c0.511,0.014,1.022,0.031,1.533,0.05 c1.156,0.041,2.352,0.087,3.52,0.064c2.066-0.034,4.464-0.251,7.002-0.479c5.153-0.468,10.482-0.947,14.589-0.112 c0.1,0.021,0.191,0.071,0.262,0.145c0.732,0.768,1.688,1.208,2.622,1.21c0.219,0,0.412,0.143,0.477,0.352 c0.909,2.93,0.906,5.996,0.903,8.961c0,0.155-0.073,0.302-0.197,0.396c-0.123,0.095-0.283,0.127-0.435,0.085 c-0.343-0.093-0.787,0.064-1.125,0.406c-0.37,0.373-0.841,0.966-1.062,1.449c-0.08,0.175-0.252,0.289-0.444,0.293 c-0.278,0.006-0.615,0.031-0.952,0.057c-0.355,0.026-0.711,0.053-1.004,0.06l-0.82,0.019 C30.342,41.001,24.465,41.062,18.937,41.062z M37.993,40.259h0.01H37.993z M8.757,38.436c0.425,0.135,0.775,0.442,1.075,0.707 c0.152,0.134,0.303,0.27,0.462,0.376c0.457,0.308,1.09,0.382,1.647,0.428c1.281,0.104,4.499,0.111,5.873,0.114 c5.793-0.001,12.272-0.054,17.383-0.167l0.828-0.019c0.279-0.006,0.616-0.031,0.953-0.057c0.241-0.019,0.481-0.036,0.703-0.048 c0.306-0.548,0.76-1.096,1.119-1.457c0.422-0.427,0.948-0.68,1.467-0.723c0-2.606-0.044-5.277-0.759-7.793 c-1.03-0.099-2.046-0.59-2.853-1.385c-3.951-0.764-9.367-0.274-14.151,0.157c-2.557,0.23-4.972,0.448-7.075,0.483 c-1.195,0.016-2.403-0.022-3.572-0.065c-0.507-0.018-1.015-0.036-1.523-0.049c-0.052-0.003-0.158-0.005-0.19,0.007 c-0.014,0.016-0.062,0.109-0.094,0.171c-0.471,0.877-1.163,1.487-1.924,1.736c0.002,1.017,0.18,2.077,0.353,3.106 C8.725,35.432,8.979,36.948,8.757,38.436z"/><path fill="#010101" d="M24.243,38.085c-0.679,0-1.323-0.207-1.871-0.415c-0.304-0.116-0.653-0.258-0.973-0.487 c-0.667-0.478-1.107-1.269-1.209-2.172c-0.168-1.498,0.695-3.062,2.055-3.717c1.146-0.553,2.51-0.342,4.057,0.628l0,0 c0.868,0.544,1.371,1.431,1.38,2.433c0.009,0.928-0.298,1.813-0.863,2.494c-0.595,0.717-1.483,1.177-2.377,1.23 C24.375,38.083,24.309,38.085,24.243,38.085z M23.584,31.992c-0.325,0-0.626,0.067-0.906,0.202 c-0.989,0.477-1.618,1.614-1.495,2.705c0.069,0.612,0.367,1.162,0.797,1.471c0.223,0.159,0.502,0.271,0.747,0.365 c0.501,0.19,1.097,0.38,1.653,0.346c0.624-0.037,1.247-0.363,1.668-0.871c0.408-0.492,0.639-1.165,0.632-1.846 c-0.006-0.654-0.338-1.236-0.911-1.595l0,0C24.941,32.25,24.218,31.992,23.584,31.992z"/><path fill="#010101" d="M33.927,36.285c-0.831,0-1.621-0.406-2.04-1.075c-0.543-0.863-0.356-2.048,0.418-2.641 c0.172-0.134,0.375-0.241,0.618-0.327c1.459-0.521,2.136,0.091,2.41,0.501l0,0c0.408,0.611,0.52,1.369,0.495,1.703 c-0.029,0.391-0.117,0.956-0.53,1.357c-0.25,0.242-0.59,0.396-1.009,0.456C34.167,36.277,34.046,36.285,33.927,36.285z M33.955,33.039c-0.173,0-0.399,0.039-0.697,0.146c-0.143,0.051-0.254,0.108-0.343,0.177c-0.357,0.274-0.443,0.901-0.181,1.316 c0.27,0.431,0.85,0.675,1.413,0.592c0.142-0.02,0.335-0.068,0.454-0.184c0.128-0.124,0.203-0.357,0.23-0.715 c0.012-0.152-0.067-0.68-0.33-1.073l0,0C34.45,33.222,34.328,33.039,33.955,33.039z"/><path fill="#010101" d="M13.086,36.716c-0.377,0-0.755-0.107-1.072-0.319c-0.348-0.233-0.631-0.591-0.822-1.036 c-0.154-0.361-0.209-0.703-0.164-1.015c0.08-0.539,0.473-1.029,1.05-1.311c1.238-0.609,2.011-0.264,2.442,0.133 c0,0.001,0,0.001,0,0.001c0.563,0.521,0.527,1.203,0.501,1.701c-0.037,0.684-0.452,1.326-1.058,1.637 C13.692,36.646,13.389,36.716,13.086,36.716z M13.324,33.706c-0.197,0-0.458,0.057-0.805,0.228c-0.218,0.106-0.463,0.309-0.5,0.558 c-0.019,0.126,0.013,0.287,0.094,0.477c0.079,0.186,0.223,0.439,0.458,0.598c0.271,0.18,0.646,0.202,0.938,0.052 c0.291-0.149,0.498-0.471,0.515-0.8c0.028-0.525,0.005-0.742-0.18-0.914C13.777,33.843,13.628,33.706,13.324,33.706z"/><path fill="#73a1b2" d="M7.691,20.359c-0.784,0.579-1.844-0.204-2.211-0.831s-0.355-1.458,0.031-2.074 c0.24-0.383,0.602-0.673,0.956-0.954c2.957-2.348,6.95-4.718,10.373-6.311c0.594-0.276,1.225-0.533,1.879-0.497 c0.9,0.05,1.667,0.638,2.384,1.185c1.266,0.967,2.57,1.884,3.908,2.748c0.354,0.228,0.727,0.459,1.146,0.501 c0.691,0.069,1.314-0.385,1.86-0.814c1.264-0.994,3.396-2.047,4.659-3.04c-0.813-0.58-2.757-2.22-3.57-2.8 c-0.031-0.022-0.064-0.048-0.071-0.085c-0.012-0.066,0.064-0.111,0.127-0.135c2.543-0.979,6.086-0.959,8.628-1.938 c0.887-0.342,1.802-0.688,2.752-0.661c-0.044,3.212-0.621,7.726-1.015,10.914c-1.115-0.73-2.535-2.235-3.534-3.118 c-2.71,1.574-5.716,4.166-8.284,5.928c-0.717,0.492-1.669,0.507-2.404,0.043c-1.177-0.744-2.331-1.526-3.459-2.344 c-0.583-0.423-1.164-0.86-1.639-1.402c-0.401-0.459-0.808-1.036-1.416-1.067c-0.418-0.021-0.794,0.233-1.135,0.476 C14.613,16.253,10.735,18.186,7.691,20.359z"/><path fill="#010101" d="M7.077,21.062c-0.115,0-0.232-0.013-0.351-0.037c-0.741-0.151-1.389-0.752-1.678-1.244 c-0.458-0.782-0.443-1.824,0.04-2.592c0.289-0.461,0.703-0.79,1.069-1.08c2.815-2.235,6.828-4.677,10.473-6.372 c0.614-0.286,1.328-0.597,2.118-0.544c1.051,0.058,1.902,0.708,2.653,1.282c1.255,0.959,2.559,1.876,3.882,2.73 c0.345,0.222,0.632,0.394,0.924,0.422c0.482,0.061,0.99-0.308,1.503-0.709c0.656-0.516,1.532-1.044,2.38-1.555 c0.604-0.364,1.222-0.737,1.749-1.099c-0.369-0.287-0.81-0.642-1.267-1.01c-0.678-0.546-1.355-1.092-1.755-1.377 c-0.152-0.106-0.245-0.244-0.273-0.408c-0.039-0.221,0.052-0.535,0.437-0.686c1.323-0.51,2.897-0.758,4.418-0.997 c1.47-0.231,2.99-0.472,4.212-0.942c0.882-0.34,1.873-0.722,2.946-0.694c0.273,0.008,0.49,0.233,0.486,0.507 C41,7.743,40.469,12.03,40.081,15.16l-0.058,0.466c-0.021,0.171-0.129,0.319-0.286,0.393c-0.158,0.07-0.341,0.059-0.484-0.036 c-0.804-0.526-1.739-1.417-2.564-2.204c-0.265-0.252-0.521-0.496-0.758-0.714c-1.551,0.938-3.202,2.193-4.803,3.411 c-1.1,0.837-2.138,1.627-3.136,2.312c-0.884,0.608-2.043,0.629-2.954,0.054c-1.178-0.745-2.35-1.539-3.485-2.361 c-0.592-0.43-1.212-0.896-1.721-1.479l-0.157-0.183c-0.305-0.359-0.593-0.698-0.909-0.715c-0.242-0.019-0.525,0.175-0.819,0.385 c-1.539,1.098-3.308,2.146-5.018,3.161c-1.692,1.003-3.442,2.041-4.946,3.114C7.715,20.961,7.407,21.062,7.077,21.062z M18.598,10.188c-0.524,0-1.071,0.232-1.547,0.454c-3.579,1.665-7.515,4.06-10.273,6.249c-0.317,0.252-0.646,0.512-0.843,0.828 c-0.29,0.461-0.299,1.086-0.024,1.555c0.184,0.314,0.614,0.688,1.016,0.771c0.186,0.037,0.333,0.009,0.467-0.089 c0.002-0.002,0.004-0.003,0.006-0.005c1.54-1.099,3.309-2.147,5.02-3.162c1.692-1.004,3.442-2.042,4.947-3.115 c0.334-0.239,0.822-0.616,1.451-0.568c0.748,0.038,1.232,0.608,1.621,1.066l0.146,0.171c0.441,0.504,0.987,0.915,1.556,1.326 c1.118,0.811,2.272,1.593,3.432,2.326c0.571,0.359,1.299,0.348,1.854-0.032c0.978-0.671,2.007-1.454,3.097-2.283 c1.733-1.318,3.525-2.682,5.219-3.666c0.186-0.106,0.42-0.084,0.582,0.058c0.317,0.28,0.676,0.623,1.055,0.983 c0.566,0.539,1.185,1.129,1.758,1.597c0.357-2.885,0.809-6.625,0.894-9.479c-0.696,0.08-1.388,0.347-2.062,0.605 c-1.32,0.509-2.894,0.757-4.416,0.996c-1.226,0.193-2.486,0.392-3.58,0.726c0.364,0.284,0.794,0.63,1.224,0.976 c0.683,0.55,1.366,1.101,1.769,1.388c0.128,0.092,0.206,0.238,0.209,0.396c0.003,0.157-0.067,0.308-0.191,0.404 c-0.656,0.517-1.533,1.045-2.38,1.556c-0.822,0.496-1.671,1.008-2.279,1.485c-0.653,0.513-1.359,1.01-2.219,0.918 c-0.554-0.054-1.024-0.355-1.367-0.576c-1.346-0.87-2.671-1.802-3.941-2.771c-0.674-0.516-1.364-1.043-2.108-1.084 C18.66,10.188,18.629,10.188,18.598,10.188z"/></svg>