<svg xmlns="http://www.w3.org/2000/svg"  viewBox="0 0 48 48" width="64px" height="64px"><path fill="#c56528" d="M5.844,43.58c-0.209-3.439-0.026-7.717,0.36-11.14c0.128-1.133,0.288-2.271,0.205-3.408 c-0.076-1.051-0.358-2.074-0.534-3.113C5.615,24.374,5.59,22.8,5.566,21.233c-0.031-2.019,0.03-5.259-0.001-7.279 c5.643-3.475,12.339-6.605,18.665-8.578c5.813,2.737,12.265,5.273,18.14,7.875c0.097,4.651,0.276,10.324-0.206,14.951 c-0.117,1.125-0.268,2.251-0.257,3.382c0.01,1.01,0.15,2.013,0.265,3.016c0.296,2.593,0.27,6.402,0.225,9.011 C30.232,43.475,18.009,43.716,5.844,43.58z"/><path fill="#bcbcbc" d="M38.148,37.92c-0.21-6.442-0.075-13.985,0.609-20.393c-2.593,0.358-5.315,0.443-7.932,0.427 c-7.175-0.045-14.501-1.425-21.624-0.559c-0.236,2.186,0.245,5.439,0.439,7.629c0.094,1.065,0.087,2.136,0.08,3.205 c-0.014,2.167-0.028,4.334-0.042,6.502C9.662,37.18,9.516,41.049,9.5,43.5h29.172c0.118-0.719-0.095-1.93-0.246-2.644 C38.223,39.893,38.18,38.904,38.148,37.92z"/><path fill="#010101" d="M42.611,34.044c-0.096-0.811-0.195-1.649-0.203-2.465c-0.009-0.905,0.092-1.837,0.191-2.737 l0.063-0.588c0.444-4.269,0.333-9.341,0.234-13.816l-0.026-1.197c-0.004-0.193-0.12-0.368-0.297-0.446 c-2.333-1.033-4.804-2.075-7.193-3.084c-3.657-1.542-7.438-3.138-10.938-4.785c-0.113-0.055-0.242-0.062-0.362-0.025 c-6.225,1.941-12.894,5.006-18.778,8.629c-0.15,0.093-0.24,0.257-0.238,0.434c0.016,1.01,0.008,2.325,0,3.641 c-0.007,1.314-0.015,2.629,0,3.639c0.024,1.562,0.048,3.176,0.316,4.761c0.061,0.361,0.135,0.72,0.208,1.078 c0.14,0.684,0.272,1.328,0.32,1.987c0.069,0.957-0.046,1.954-0.158,2.918l-0.046,0.398C5.289,36.097,5.15,40.398,5.345,43.61 c0.016,0.262,0.231,0.467,0.494,0.47c2.862,0.032,5.748,0.043,8.628,0.043c3.236,0,6.464-0.014,9.633-0.027 c6.001-0.025,12.206-0.053,18.292,0.016c0.296,0.013,0.501-0.217,0.506-0.491c0.045-2.642,0.071-6.456-0.228-9.077L42.611,34.044z M37.625,27.515C28.543,27.898,19.34,28,10.262,27.813c-0.015-0.001-0.028,0.006-0.042,0.006c0.005-0.935,0.002-1.89-0.082-2.839 c-0.018-0.205-0.04-0.425-0.063-0.647c5.944-0.79,12.067-0.554,17.991-0.323c3.1,0.12,6.307,0.249,9.458,0.223 c0.086-0.001,0.163-0.029,0.234-0.068C37.704,25.261,37.656,26.375,37.625,27.515z M37.56,32.27 c-3.279,0.676-6.725,0.367-10.066,0.059c-1.654-0.152-3.364-0.31-5.048-0.349c-1.46-0.034-2.931,0.021-4.354,0.074l-7.899,0.296 l0.023-3.544c0.009,0.001,0.016,0.005,0.025,0.006c2.979,0.062,5.97,0.092,8.968,0.092c6.136,0,12.292-0.132,18.394-0.388 C37.576,29.755,37.561,31.008,37.56,32.27z M10.178,34.732l0.009-1.38l7.943-0.297c1.41-0.053,2.866-0.106,4.293-0.074 c1.65,0.038,3.342,0.194,4.979,0.345c1.912,0.177,3.858,0.355,5.803,0.355c1.46,0,2.917-0.112,4.358-0.391 c0.007,1.276,0.029,2.555,0.064,3.828c-3.756,0.108-7.58-0.03-11.282-0.166c-5.316-0.197-10.811-0.4-16.207,0.128 C10.159,36.229,10.174,35.422,10.178,34.732z M37.801,23.324c-0.083-0.059-0.178-0.1-0.284-0.093 c-3.128,0.029-6.323-0.101-9.412-0.222c-5.955-0.233-12.113-0.469-18.133,0.329c-0.196-1.84-0.414-3.901-0.309-5.494 c4.298-0.472,8.755-0.138,13.067,0.187c2.656,0.199,5.403,0.405,8.091,0.423c2.902,0.01,5.261-0.094,7.373-0.351 C38.032,19.737,37.903,21.496,37.801,23.324z M24.095,43.096c-4.625,0.019-9.37,0.039-14.091,0.015 c0.013-1.158,0.048-2.557,0.084-3.971c0.009-0.358,0.018-0.716,0.027-1.07c0.028,0.002,0.053,0.011,0.081,0.009 c5.34-0.529,10.816-0.325,16.112-0.129c2.795,0.104,5.66,0.21,8.52,0.21c0.944,0,1.887-0.016,2.826-0.043 c0.034,0.967,0.086,1.914,0.281,2.843c0.185,0.877,0.273,1.615,0.263,2.121C33.474,43.057,28.725,43.076,24.095,43.096z M41.618,34.161l0.058,0.495c0.274,2.404,0.268,5.872,0.229,8.45c-0.9-0.009-1.806-0.013-2.71-0.019 c0.012-0.729-0.132-1.633-0.28-2.334c-0.191-0.907-0.236-1.866-0.268-2.851c-0.232-7.122-0.011-14.53,0.606-20.324 c0.017-0.152-0.039-0.305-0.149-0.412c-0.111-0.107-0.266-0.158-0.417-0.136c-2.224,0.307-4.725,0.435-7.86,0.423 c-2.654-0.017-5.383-0.222-8.022-0.42c-4.497-0.336-9.146-0.686-13.666-0.136c-0.23,0.027-0.412,0.211-0.437,0.442 c-0.189,1.748,0.058,4.073,0.277,6.124c0.061,0.571,0.118,1.113,0.162,1.603c0.092,1.041,0.085,2.117,0.079,3.157l-0.042,6.502 c-0.008,1.226-0.048,2.808-0.089,4.388c-0.037,1.421-0.072,2.827-0.085,3.99c-0.896-0.006-1.794-0.01-2.687-0.019 c-0.152-3.102-0.009-7.106,0.384-10.59L6.746,32.1c0.117-1.01,0.238-2.054,0.162-3.104C6.855,28.271,6.71,27.563,6.57,26.88 c-0.071-0.348-0.143-0.695-0.201-1.044c-0.255-1.51-0.279-3.086-0.302-4.61c-0.015-1.004-0.008-2.311,0-3.617 c0.007-1.202,0.014-2.405,0.003-3.377c5.698-3.48,12.115-6.426,18.125-8.319c3.467,1.627,7.193,3.199,10.798,4.72 c2.286,0.964,4.646,1.96,6.886,2.948l0.019,0.879c0.098,4.446,0.208,9.486-0.229,13.691l-0.063,0.582 c-0.102,0.931-0.207,1.892-0.197,2.856C41.417,32.459,41.52,33.324,41.618,34.161z"/><path fill="#010101" d="M27.154,41.328c-0.14,0-0.28-0.059-0.378-0.174c0,0-0.001-0.001-0.001-0.001 c-1.557-0.079-3.128-0.1-4.678-0.062c-0.237-0.004-0.505-0.212-0.512-0.487c-0.007-0.276,0.212-0.506,0.488-0.513 c1.64-0.04,3.305-0.016,4.95,0.073c0.23,0.011,0.525,0.154,0.624,0.441c0.066,0.192-0.01,0.467-0.165,0.601 C27.386,41.288,27.27,41.328,27.154,41.328z M26.968,41.163c0,0,0.001,0,0.002,0C26.969,41.163,26.968,41.163,26.968,41.163z"/></svg>