<svg xmlns="http://www.w3.org/2000/svg"  viewBox="0 0 512 512" width="64px" height="64px"><path fill="#EF4823" d="M168.3 137.7c-.3-3.2-1-7.4-4.3-9-6.1-3.1-10.4.1-14.7 4.5-2.6 2.7-9.6 7.1-9.5 11.3.1 5.5 2 11.3 4.2 16.2 1.2 2.7 2.5 4.8 4.5 4.8 4.4 0 8.8-.7 13.1-1.2.4 0 .8 0 1.1 0 .1-.5.2-1 .3-1.5C166 155.1 169 146.2 168.3 137.7zM108.7 145c-6-5.2-15.9 3.4-19.5 8.1-3.8 5-10.9 18.9-3.7 24 3.4 2.4 9.2.8 12.9-.2 2.9-.8 5.8-1.6 8.7-2.4.4-5.3 1.7-10.2 2.8-15.4C110.7 155.1 112.4 148.1 108.7 145zM95.6 357.8c-.7-.4-1.3-1-1.7-1.5-9 9.4-20.3 16.6-28.4 26.9 3.1 1.9 6.3 3.8 9.5 5.4.1-1.4.9-2.7 2.6-3.6 10.6-5.6 18.2-14.9 26.3-23.6C101 360.5 98.2 359.4 95.6 357.8zM247.1 146.4c-1.7-12.6-18.6-14.7-27.6-8.2-16.9 12.2-8.6 46.7 14 44.2h0c.2-.4.5-.8.8-1.1C242 172.4 248.7 158.3 247.1 146.4zM178.4 442.8c-3.8 3.4-8.1 6.3-12.2 9.5-5.2 4.1-9 11.3-15.7 13.2 0 0 0 0 0 0 .6 1.2 1.2 2.4 1.8 3.6 1.5 3 2.9 6.1 4.3 9.2 1.9-2.4 4-4.7 6.1-7 5.7-6.4 10.8-13.2 16.8-19.4C178.6 449 178.4 445.8 178.4 442.8zM387.1 378.4c.4-.3.6-.6.8-.8 0 0 0 0 0 0C387.6 377.9 387.4 378.2 387.1 378.4z"/><path fill="#EF4823" d="M387.9 377.6C387.9 377.6 387.9 377.6 387.9 377.6 388.4 377 388 376.9 387.9 377.6zM396.3 411.6c-.5-2.9-.9-6.6-2.8-9.1-.7-1-.2-.9-1.5-.3-4.7 2.2-8.2 8-11.1 12.3.7 1 1.1 2.4.9 4-.5 3.6 2 5.7 5.2 6.8 2 .7 6 2.1 8 .6C398.5 423.1 396.9 415.1 396.3 411.6z"/><path fill="#D6E5E5" d="M422.3,80.8c-6.6-4.5-15.8-2.4-22.7,0.2c-10.3,3.9-19.3,10.4-28.4,16.6c-11.4,7.8-22.6,15.7-33.5,24.1c-16.9,12.9-33.3,26.9-47.2,43.1c0,0,0,0-0.1,0c-0.2,0-0.4,0.1-0.6,0.1c-1.6,0.4-3.2,0.8-4.7,1.4c-1.5,0-3.1,0.1-4.6,0.2c-0.6,0-1.1,0.1-1.7,0.1c-1.4,0.1-2.7,0.2-4.1,0.3c0.3-0.3,0.5-0.7,0.8-1c-1.9-0.4-3.7-0.8-5.6-1.1c-2.5-0.4-5.2-0.9-7.8-1c-0.8,0-1.5,0-2.3,0c-0.9,1.8-2.7,2.5-4.5,2.5c-2.8,8.3-7.4,16.2-12.7,22.2c-1.2,1.3-2.5,1.9-3.9,1.9c-0.7,1.5-2.1,2.7-4.3,3c-4.1,0.4-8.3,0.2-12.3-1c-14.3-4.4-22-19-22.3-33.6c-1.2,0.5-2.7,0.4-4.2-0.4c-5.1-3-13.2-1.1-19.1-1c-1.1,3.6-2.3,7.1-3.6,10.5c-1.1,2.8-3.5,3.6-5.7,2.9c-0.3,2.3-1.9,4.3-4.8,4.6c-5.7,0.5-12.2,2.2-17.9,0.6c-6-1.7-9.2-7.1-11.4-12.6c-2.2-0.1-4.3-0.2-6.5-0.2h-0.1c-0.2,0.5-0.5,0.9-0.9,1.4c-1.5,1.7-4.2,2.4-6.3,1.5c-0.7,3.3-1.3,6.5-1.4,9.4c0,0.7-0.1,1.3-0.4,1.9c0.5,2.9-1,6.3-4.7,7c-11.6,2.2-29.6,11-37.9-2.7c-1.1-1.8-1.9-3.8-2.4-5.8c-4.9,1.3-10.7,2.2-14.4,5.1c-4.2,3.1-3.2,11.9-3.1,16.5c0.2,5.4,0.1,12.2,3.6,16.8c3.2,4.1,9.1,5.4,13.9,6.2c11.7,2.1,23.6,2,35.4,2.8c12,0.8,24,2.2,35.9,4c11.6,1.8,23.2,4.2,34.9,5.6c10.5,1.3,20.6,0.3,30.7,4c1.6,0.6,3,2.8,3,4.5v8.9c1.9,1.8,2.5,4.7,0.1,7.2c-7.8,8-14,17.4-19.5,27c-5.5,9.7-9.6,20-14.7,29.8c-4.8,9.1-10.5,17.6-15.6,26.4c-3.4,5.9-7.4,12.3-9.4,19c1,2.1,0.8,4.7-1.6,6.5c-0.6,1.1-1.4,1.8-2.4,2.2c-1.4,3.2-5.3,5.2-8.4,2c-1.8-1.8-6.1-2.3-8.5-2.8c-3.2-0.7-6.4-1.6-9.6-2.2c-2.2-0.4-4.4-0.8-6.6-1.2c-0.2,0.4-0.5,0.7-0.8,1.1c-9.6,9.8-18.2,21.2-30.3,28.1c2.9,1.3,5.7,2.7,8.6,4c9.8,4.5,19.9,8.7,28.5,15.5c0.1,0.1,0.2,0.2,0.3,0.2c2.7-2.6,6.1-4.8,8.7-7.3c4.6-4.6,8.9-9.5,13.5-14.1c0.3-2.3,1.8-4.2,4.8-4.2h1.3c4.3,0,8.4,5.5,4.6,9.1c-5.2,4.8-9.7,10.2-14.7,15.2c-2.4,2.4-4.9,5.2-7.7,7.1c-1,0.7-3.4,1.8-3.7,3.2c0,0.3-0.1,0.5-0.2,0.7c5.2,6.6,9.4,18,10.7,20.8c1.9,4,3.8,8,5.7,12c0.4-0.2,0.8-0.3,1.2-0.5c2.7-0.7,4.5-3.7,6.3-5.7c1.8-2,3.7-3.7,5.8-5.4c5.3-4.1,12.4-7.8,16.1-13.5c0.8-1.2,1.8-2,3-2.3c-0.9-8.8-2.8-17.5-2.2-26.5H175c3.3-13.9,15.6-22.8,26.8-30.5c28.7-19.9,47.1-50.4,74.1-72.3c3.2-2.6,6.6-0.6,7.8,2.4c3.4,1.2,4.2,4.9,3.1,7.7c0,0.1,0,0.1,0.1,0.2c0.5,1.1,1.2,2.2,1.8,3.2c1.4,2.6,2.8,5.1,4.4,7.6c4.3,6.7,8.2,13.6,11.9,20.6c7.4,14,14.1,28.4,21.7,42.3c6.2,11.3,12.9,22.7,16.7,35.2c1.6,5.2,3,10.5,4.7,15.7c0.7,2,1.3,4,2.2,5.9c0.5,1.1,1,2,1.4,2.2c2.3,1.8,2.4,4.2,1.4,6.2c1.2,5.8,2,12.1,5,16.9c3.5,5.5,11.6,7.6,17.1,3.7c8.8-6.2,12.8-24.4,3.7-32c-1.7-1.4-2.1-3.1-1.9-4.7c-4.3-3.7-6.8-9-5.9-15.5c0.1-1,0.5-1.8,1-2.5c-0.9-1.8-1.1-4,0.3-6.1c2-3,5-7.4,8.6-11c-1.9-6-4.9-13.6-4.1-19.9c-3.5,0.1-7-0.6-10.1-2.1c-7.8-3.8-11.2-11.6-10.8-20c0.1-1.5,0.5-3,1.4-4.1c-2-6.3,6.3-13,10.4-16.3c0.4-0.3,0.7-0.6,1.1-0.9c-4.2-2.3-5.1-8.2-5.4-12.6c-0.1-1.4-0.4-3.6-0.3-5.6c-5.9,1.5-13.4,3.1-19,0c-5.7-3.1-9.9-7.5-10.8-14.3c-0.4-3.3,0-6.6,1.1-9.5c-0.8-1-1.1-2.4-0.8-4.1c1.8-8.7,8.4-17.1,14.7-23.7c-5.8-12.7-7.5-28.1-0.7-40.7c0.2-0.4,0.5-0.8,0.8-1.2c-0.4-1.5,0-3.1,1.5-4.5c13.6-12.7,26.4-26.3,38.8-40.2c9.8-11,20.1-21.8,29.4-33.2c7.6-9.4,13.7-20.4,14.5-32.7C433.2,101.2,431.2,86.9,422.3,80.8z"/><path fill="#EF4823" d="M387.9 333.9c-3.8 1.7-7.3 4.4-10.5 6.7-2.4 1.8-4.9 3.7-7 6-.6.7-1.5 1.5-1.9 2.2.1.3.2.6.2 1 1.9 2.6 1.8 6.5-1.7 7.9.4 3.5 1.9 6.7 5.9 7.6 4.9 1.1 10.2.1 14.5-2.4C397.6 357 393.5 342.9 387.9 333.9zM375.1 281.4c-.7-5.5-1.6-14.4-6.3-18.2-1.4-1.1-2-1.1-3.6 0-3.2 2.1-5.9 4.7-8.5 7.5-3.4 3.7-7.7 8.3-10.3 13.2 2.7 2 3.7 6.5.1 9-6.7 4.6-.2 13.4 6.4 12.9 8-.6 15.5-3.8 22.9-6.5C376.3 293.4 375.9 287.3 375.1 281.4z"/><path d="M387.9 377.6C387.9 377.6 387.9 377.6 387.9 377.6 387.9 377.6 387.9 377.6 387.9 377.6 387.9 377.6 387.9 377.6 387.9 377.6zM421.3 156.7c17.6-18.6 27.2-42.6 19.2-67.9-2.9-9.2-9.3-17.1-18.6-20.2-8.5-2.8-17.8-1-26 2-10.3 3.7-19.3 10-28.3 16.1-11.3 7.7-22.5 15.6-33.5 23.8-18.1 13.6-36 28.5-50.9 45.7-6.2-1.7-17.3-4.6-25.1-3.6.2-2.7.1-5.4-.2-8-2.4-18.3-22.7-24.6-38.4-18.9-10.4 3.8-16.6 12.7-18.8 22.8-.1-.1-.2-.1-.3-.2-6.2-3.6-14.3-2.6-21.5-2.2.6-4.9.6-9.8-.5-14.5-1.5-6.2-5.4-11.2-11.3-13.7-8.5-3.7-16.5-1.1-23.1 5-5.7 5.3-12.5 10.7-14.8 18.3-1 3.2-.6 7.1.3 10.9-2.5-.1-5.1-.3-7.5.2-.1 0-.2 0-.3.1.4-6.5-1-12.6-7.4-17.1-11.4-7.9-25.9 1.3-33.4 10.4-4.2 5.1-7.5 11.8-8.7 18.7-.2 0-.4.1-.5.2-6.3 2.3-13.3 3.4-19.2 6.8-6.4 3.8-8 11.7-8.4 18.6-.7 14.3.2 31.2 14.9 37.9 8.5 3.9 18.4 4.4 27.5 5 14.2.9 28.4 1.4 42.4 3.5 12.8 1.9 25.7 3.9 38.5 5.9 6.4 1 12.9 2 19.4 2 4.9 0 9.8.2 14.6 1.5v7.4c-14.2 15.7-24.3 35.9-32.4 55.2-6.7 15.9-20.5 29.6-25.7 46.3v4.2c-4.8-2-10.9-2.6-15.3-3.6-9.1-2.2-19.3-2.4-27.6-7.3-1.8-1.1-3.5-1-4.8-.2-1.9-2.4-5.8-3.5-8.5-.5-10 11.1-23.4 18.9-32 31.3-.4.6-.7 1.1-.8 1.7-2.9 2.2-3.7 7.3.5 9.5 5.2 2.7 10.1 5.8 15.2 8.6 5.5 3 11.4 5.4 17 8 8.4 3.8 17.3 7.3 25 12.5.7 2.1 2.5 3.8 4.6 4.1-.1 2.2 1.1 4.5 2.9 5.6.5.7 1 1.5 1.5 2.2 1 1.6 2 3.2 3 4.8 3.4 5.5 5.6 12.1 8.5 17.9 3.1 6.4 6.2 12.7 9.2 19.1 1.5 3.1 2.9 6.2 4.3 9.4.7 1.5 2.7 4.6 3.3 6.5-.5 2.7.7 5.5 4.2 5.8.1 0 .3 0 .4 0 1.4.1 2.8-.2 3.9-.8 2.2-.2 4.2-1.5 4.8-4.2 1.1-5 7.2-9.7 10.4-13.4 4.9-5.7 9.5-11.7 14.8-17.1 3.1-1.5 4.9-6.1 1.7-9.3 1.6 1.5.7.9.5-.5-.3-1.8-.4-3.5-.5-5.3-.2-3-.2-6.1-.2-9.2 0-10.9-3.9-21.5-2.8-32.5 0-.5 0-.9 0-1.4 4-10 16.4-17 24.4-22.6 25.6-17.7 42.3-44.7 65.2-65.2 2.4 5.7 6.2 11.1 9.4 16.3 9.8 15.7 17.3 32.5 25.7 48.9 7.2 14 16.2 27.4 21 42.4 1.9 5.9 3.5 12 5.5 17.9.9 2.6 1.8 5.6 3.3 8.1 3.1 10 3.5 20.7 10.9 28.8 7.2 7.8 20.5 7.8 29 2.4 11.9-7.6 16.9-26.8 11.3-40.3.1 0 .1 0 .2 0 11.6-.2 15.3-10.5 15-20.5-.3-9.2-2.4-22.8-12.6-25.8-1.6-.5-3.1-.5-4.6-.2-.5-1.5-.9-3-1.4-4.5-.5-1.7-.9-3.5-1.2-5.3-.2-1-.2-2-.3-3 0-.2 0-.3 0-.4-.2.2-.4.5-.8.8.3-.3.6-.5.8-.8.1-.7.5-.7 0 0 .8-1 1.2-2.2 1.3-3.4.8-.3 1.5-.6 2.2-1 9.1-4.5 13-11.7 13.1-21.8.1-9.5-4.1-19.9-9.9-27.2-1.7-2.1-3.8-2.7-6.4-2.1-3.7.9-7.4 2.7-10.8 4.9-.3-1.1-1-2.1-2.2-2.8-.2-.4-.4-.8-.4-1 0-.1 0-.1 0-.2-.1-.3-.1-.7-.2-1-.1-.9-.2-1.8-.3-2.7-.1-1.4-.1-2.9-.1-4.3.1-.5.2-1.1.2-1.7 0-.6-.1-1.2-.2-1.8 2.8-1 5.7-2.1 8.6-3.1 1.7-.6 3.4-2.3 3.6-4.1 1-9 .7-18.2-.7-27.1-1.3-8.5-3.9-19.3-11.8-24-6.1-3.7-11.9-1.3-16.9 2.4-3.3-9.1-4.2-19.1.5-27.9.6-1.2.8-2.3.6-3.3 0 0 .1 0 .1-.1C380.8 203.3 400 179.2 421.3 156.7zM219.5 138.2c9-6.5 25.9-4.4 27.6 8.2 1.6 11.9-5.1 26.1-12.8 34.8-.3.4-.6.8-.8 1.1h0C210.9 184.9 202.7 150.4 219.5 138.2zM149.3 133.2c4.3-4.5 8.6-7.7 14.7-4.5 3.2 1.6 4 5.8 4.3 9 .7 8.4-2.3 17.4-5.2 25.2-.2.5-.3 1-.3 1.5-.4 0-.7 0-1.1 0-4.4.4-8.7 1.2-13.1 1.2-2 0-3.2-2.1-4.5-4.8-2.2-4.9-4.1-10.7-4.2-16.2C139.7 140.3 146.7 135.9 149.3 133.2zM89.2 153.1c3.6-4.7 13.4-13.3 19.5-8.1 3.7 3.2 2 10.1 1.2 14.1-1 5.2-2.4 10.2-2.8 15.4-2.9.7-5.8 1.6-8.7 2.4-3.7 1-9.4 2.6-12.9.2C78.3 171.9 85.4 158.1 89.2 153.1zM75 388.6c-3.3-1.6-6.4-3.5-9.5-5.4 8.1-10.3 19.4-17.5 28.4-26.9.4.6 1 1.1 1.7 1.5 2.6 1.6 5.4 2.7 8.3 3.6-8.1 8.7-15.7 18-26.3 23.6C75.9 385.9 75.1 387.2 75 388.6zM162.6 471.3c-2 2.3-4.2 4.5-6.1 7-1.4-3.1-2.8-6.1-4.3-9.2-.6-1.2-1.2-2.4-1.8-3.6 0 0 0 0 0 0 6.7-1.9 10.5-9.1 15.7-13.2 4.1-3.2 8.4-6.1 12.2-9.5 0 3.1.2 6.3.9 9.1C173.4 458 168.2 464.9 162.6 471.3zM392 402.2c1.3-.6.8-.7 1.5.3 1.8 2.5 2.3 6.2 2.8 9.1.6 3.5 2.2 11.6-1.2 14.2-2 1.5-6 .1-8-.6-3.1-1.1-5.7-3.2-5.2-6.8.2-1.6-.2-2.9-.9-4C383.8 410.2 387.4 404.4 392 402.2zM377.4 340.7c3.2-2.4 6.7-5 10.5-6.7 5.6 8.9 9.7 23.1-.4 29-4.3 2.5-9.7 3.5-14.5 2.4-4-.9-5.5-4.1-5.9-7.6 3.5-1.4 3.5-5.4 1.7-7.9 0-.3-.1-.6-.2-1 .5-.7 1.3-1.6 1.9-2.2C372.6 344.4 375 342.5 377.4 340.7zM356.8 270.7c2.6-2.8 5.3-5.4 8.5-7.5 1.6-1.1 2.2-1.1 3.6 0 4.7 3.8 5.5 12.7 6.3 18.2.8 5.9 1.1 12 .7 18-7.5 2.8-15 5.9-22.9 6.5-6.5.5-13.1-8.4-6.4-12.9 3.7-2.5 2.6-7-.1-9C349.1 279 353.4 274.4 356.8 270.7zM349.9 217.2c-1.5 1.4-1.9 3.1-1.5 4.5-.3.3-.6.7-.8 1.2-6.7 12.6-5 28 .7 40.7-6.4 6.6-12.9 15-14.7 23.7-.3 1.7 0 3 .8 4.1-1.2 2.9-1.5 6.2-1.1 9.5.8 6.8 5 11.2 10.8 14.3 5.6 3.1 13.1 1.5 19 0 0 2.1.2 4.2.3 5.6.3 4.3 1.3 10.2 5.4 12.6-.4.3-.7.6-1.1.9-4 3.3-12.3 10-10.4 16.3-.9 1.1-1.3 2.7-1.4 4.1-.4 8.4 3 16.1 10.8 20 3.1 1.5 6.6 2.2 10.1 2.1-.8 6.3 2.1 13.9 4.1 19.9-3.6 3.6-6.6 8-8.6 11-1.4 2.1-1.3 4.3-.3 6.1-.5.6-.8 1.5-1 2.5-.9 6.5 1.6 11.8 5.9 15.5-.3 1.6.2 3.3 1.9 4.7 9.1 7.6 5.1 25.7-3.7 32-5.5 3.9-13.6 1.8-17.1-3.7-3-4.8-3.8-11.1-5-16.9 1-2 .9-4.4-1.4-6.2-.3-.3-.9-1.1-1.4-2.2-.9-1.9-1.5-3.9-2.2-5.9-1.7-5.2-3.1-10.4-4.7-15.7-3.8-12.4-10.5-23.8-16.7-35.2-7.6-13.9-14.3-28.3-21.7-42.3-3.7-7-7.6-13.9-11.9-20.6-1.6-2.5-3-5-4.4-7.6-.6-1.1-1.2-2.1-1.8-3.2 0-.1 0-.1-.1-.2 1.2-2.7.4-6.5-3.1-7.7-1.2-3-4.6-4.9-7.8-2.4-27 21.9-45.3 52.4-74.1 72.3-11.2 7.7-23.5 16.5-26.8 30.5h.8c-.6 9 1.3 17.7 2.2 26.5-1.1.4-2.2 1.1-3 2.3-3.8 5.8-10.8 9.4-16.1 13.5-2.1 1.6-4 3.4-5.8 5.4-1.8 2-3.6 5-6.3 5.7-.4.1-.8.3-1.2.5-1.9-4-3.9-8-5.7-12-1.3-2.8-5.5-14.1-10.7-20.8.1-.2.1-.5.2-.7.2-1.3 2.7-2.5 3.7-3.2 2.8-1.9 5.3-4.7 7.7-7.1 5-5 9.5-10.4 14.7-15.2 3.9-3.6-.3-9.1-4.6-9.1h-1.3c-3 0-4.6 2-4.8 4.2-4.6 4.6-8.9 9.5-13.5 14.1-2.5 2.5-6 4.7-8.7 7.3-.1-.1-.2-.2-.3-.2-8.6-6.8-18.7-10.9-28.5-15.5-2.9-1.3-5.7-2.7-8.6-4 12.1-6.9 20.6-18.4 30.3-28.1.3-.3.6-.7.8-1.1 2.2.4 4.4.8 6.6 1.2 3.2.7 6.4 1.5 9.6 2.2 2.4.6 6.7 1 8.5 2.8 3 3.2 7 1.2 8.4-2 1-.4 1.9-1.1 2.4-2.2 2.4-1.7 2.6-4.4 1.6-6.5 2-6.7 5.9-13.1 9.4-19 5.1-8.8 10.9-17.4 15.6-26.4 5.1-9.8 9.2-20.1 14.7-29.8 5.5-9.7 11.7-19.1 19.5-27 2.4-2.4 1.7-5.3-.1-7.2v-8.9c0-1.7-1.4-3.9-3-4.5-10.2-3.8-20.2-2.8-30.7-4-11.7-1.4-23.2-3.8-34.9-5.6-11.9-1.8-23.9-3.2-35.9-4-11.8-.8-23.8-.7-35.4-2.8-4.8-.9-10.8-2.1-13.9-6.2-3.5-4.5-3.4-11.4-3.6-16.8-.1-4.6-1.1-13.3 3.1-16.5 3.8-2.9 9.6-3.8 14.4-5.1.5 2 1.3 4 2.4 5.8 8.3 13.6 26.3 4.8 37.9 2.7 3.7-.7 5.2-4.2 4.7-7 .2-.6.3-1.2.4-1.9.1-3 .7-6.2 1.4-9.4 2.1.9 4.8.2 6.3-1.5.4-.4.7-.9.9-1.4h.1c2.2 0 4.3.2 6.5.2 2.2 5.5 5.4 10.9 11.4 12.6 5.7 1.6 12.2 0 17.9-.6 2.9-.3 4.5-2.3 4.8-4.6 2.2.6 4.6-.1 5.7-2.9 1.2-3.4 2.5-6.9 3.6-10.5 5.8-.2 13.9-2 19.1 1 1.5.9 3 .9 4.2.4.4 14.6 8.1 29.2 22.3 33.6 4 1.2 8.2 1.5 12.3 1 2.2-.2 3.6-1.4 4.3-3 1.4 0 2.7-.5 3.9-1.9 5.3-6.1 9.9-13.9 12.7-22.2 1.8.1 3.6-.7 4.5-2.5.8-.1 1.5 0 2.3 0 2.6 0 5.2.5 7.8 1 1.9.3 3.7.7 5.6 1.1-.3.3-.5.7-.8 1 1.4-.1 2.7-.2 4.1-.3.6 0 1.1-.1 1.7-.1 1.5-.1 3.1-.1 4.6-.2 1.5-.5 3.1-1 4.7-1.4.2 0 .4-.1.6-.1 0 0 0 0 .1 0 13.9-16.2 30.3-30.1 47.2-43.1 10.9-8.4 22.2-16.3 33.5-24.1 9.1-6.2 18-12.7 28.4-16.6 6.9-2.6 16.1-4.7 22.7-.2 9 6.1 10.9 20.4 10.2 30.3-.8 12.3-6.9 23.3-14.5 32.7-9.3 11.4-19.6 22.2-29.4 33.2C376.3 190.9 363.5 204.5 349.9 217.2z"/></svg>