<svg xmlns="http://www.w3.org/2000/svg"  viewBox="0 0 512 512" width="64px" height="64px"><path fill="#74CCCF" d="M373.5,272.8c-2.2-16.5-5.2-32.1-15.9-45.3c-7.9-9.7-21.6-17.3-32.1-8.1c-0.5,1.7-2.1,3.1-3.9,3.7c-0.7,1.5-2.2,2.6-4.4,2.7c-25.3,0.8-50.4,3.5-75.6,5.7c-24.9,2.2-49.8,3.8-74.7,6.4c-16.1,1.7-32.3,3.2-48.5,2.7c-10.7-0.4-22.3-0.8-32.7-4.1c1,2.3,2,4.6,3.1,6.8c6.2,12.5,14.1,24.6,24.6,33.9c10.5,9.3,22.9,14.5,36.8,16.5c14.2,2.1,28.7,1.9,43,1.8c16.5-0.1,32.9-1.1,49.3-2.2c16.2-1,32.4-2,48.6-2.4c16-0.4,32.1-0.2,48-1.9c13.4-1.5,25.6-4.6,36.7-12.3C374.6,275.8,373.7,274.6,373.5,272.8z"/><path fill="#BCBCBC" d="M207.2,306.5c5.3,3.2,10.5,6.6,16.5,8.4c1.2,0.4,2.2,1,2.9,1.9c7.1-4.1,14.2-8.2,21.3-12.3C234.3,305.3,220.8,306.1,207.2,306.5z"/><path fill="#14B6B9" d="M409.9,147.8c-0.3-1.6-0.7-3.4-1.2-5.1c0.2,5.9,0.3,11.8,0,17.8c-0.6,9.6-2.9,18.9-6.5,27.8c-6.6,16.5-17.2,30.8-27.7,45c5.5,11.2,8.1,23.5,9.9,36.4c7.2-6.8,12.9-14.9,16.3-24.4c0.2-0.6,0.5-1.2,0.8-1.6C411.2,212.8,416.6,179.9,409.9,147.8z"/><path fill="#BCBCBC" d="M150.7,398.6c-5.3-12.8-23.3-15.6-35.4-13.7c-7.6,1.2-14.8,4.4-20.2,10c-5,5.2-12.5,14.1-9.4,21.9c0.2,0.4,0.3,0.9,0.4,1.3c8.8,13.2,24.6,23.6,41,18.3c8.5-2.8,15.5-8.7,19.9-16.4C150.6,413.6,153.7,405.8,150.7,398.6z"/><path fill="#14B6B9" d="M397,128.6c0-0.7,0.1-1.4,0.3-2c-3.4-1.5-7.2-2-11-2.4c-11.5-1.2-22.9-2.6-30.7-12.1c-7.4-9.1-10.6-20.5-20.4-27.8c-5.8-4.3-13.2-6.8-20.5-7c0.1,0.1,0.2,0.2,0.2,0.3c2.8,3.2,5.7,6.4,8.6,9.5c7.7,8.1,13.2,18.1,17.2,28.5c11,28.6,10.1,58.6,10.1,88.8c0,1.1-0.3,2.1-0.7,2.9c4.4,2.1,8.6,5.1,12.3,8.8c1.9,1.9,3.6,3.9,5.2,6c0.4-0.1,0.9-0.2,1.3-0.2c8.6-11.7,17.1-23.6,22.5-37.1c3.5-8.6,5.9-17.7,6.1-27C397.9,148.1,397.1,138.3,397,128.6z"/><path fill="#1E4384" d="M298.3,200.5c-4.9-6.5-9-13.5-14-19.9c-9.6-12.4-20.4-23.6-32.3-33.8c-9.6-8.2-19.7-15.7-29.7-23.4c-7.5-5.8-15-11.7-23.2-16.5c-6.1-3.6-16.3-10-23.8-6.9c-1.1,0.5-1.6,0.8-1.8,1c0,0.1-0.1,0.5-0.1,0.5c0.8,2.5,2.4,4.7,4.2,6.8c9.8,11.7,23.4,20.5,35.9,29.1c23.9,16.4,48.4,31.6,71,49.8c2.4,2,2.3,5.6,0.6,7.9c0.5,3-1,6.5-4.9,7c-16.6,2.4-33.2,0-49.8-0.1c-17.3-0.2-34.7,0.8-51.9,1.7c-16.7,0.8-33.3,1.8-49.9,3.7c-10.6,1.2-21.8,1.6-32.1,4.8c-4.4,1.4-9.7,3.1-12.7,6.9c-2.2,2.8-2.1,3.6,1.2,5.2c10.2,4.7,23.3,5,34.3,5.2c32.5,0.5,65.1-5,97.5-7.2c31-2.2,61.9-6.1,92.9-7.4C305.8,210.1,302,205.3,298.3,200.5z"/><path fill="#14B6B9" d="M327,111.8c-2.6-5.3-5.6-10.9-9.7-15.1c-2.9-3-5.8-6.1-8.5-9.3c-1.5-1.7-4.5-4.6-6.8-7.8c-0.6,0.2-1.1,0.5-1.7,0.7c-12.2,6-21.8,15.1-36.3,14.5c-11.9-0.5-22.7-6.3-34.4-7.9c-12.4-1.8-29.2-2.6-42.5,2.3c9.7,2.8,19.7,9.1,25.7,13.2c18.9,12.9,37.7,27.2,54.3,42.8c10.1,9.5,21.3,20.1,28.7,32c7.1,11.4,15.5,22,24.1,32.4c6.1-4.5,13-6,19.9-5.2C339.8,172.9,341.1,140.7,327,111.8z"/><path fill="#BCBCBC" d="M291.9 302.2c-7 .2-13.9.5-20.8.9-.4 1-1.1 1.9-2.4 2.6-18.6 10-36.4 21.3-55.2 30.9-8.7 4.4-17.4 8.8-26.2 12.9-5.3 2.5-11.8 4.5-16.5 8.3 3.9 2.1 7.6 4.6 10.8 7.5.3-.4.7-.8 1.1-1.1 2.3.5 4.6-.3 6.8-1.5.2-.1.4-.1.5-.2 2-.8 4-1.6 5.9-2.6 3.1-1.5 6-3.3 9.2-4.7 13.1-5.8 26.2-11.8 39-18.1 22-10.8 43.5-22.5 64.5-35.1C303.1 302 297.5 302 291.9 302.2zM398 398.6c-5.3-12.8-23.3-15.6-35.4-13.7-7.6 1.2-14.8 4.4-20.2 10-5 5.2-12.5 14.1-9.4 21.9.2.4.3.9.4 1.3 8.8 13.2 24.7 23.6 41 18.3 8.5-2.8 15.5-8.7 19.9-16.4C397.9 413.6 401 405.8 398 398.6z"/><path fill="#127274" d="M414.2 368.4c-21.4-11.5-49.5-14.4-72.3-5.9-21.4 8-32.8 29.1-33.2 51 .8 1.1 1.2 2.4 1.1 4.1-1.5 13.4 11.2 24.6 21.5 30.9 11.9 7.3 25.1 11.9 39.3 10.8 23.8-2 44.7-16 54.5-37.8C433.3 403.1 434.3 379.2 414.2 368.4zM374.9 447.8c-21.1 4.7-41-7.5-51.8-25.1-.6-1-.9-2-.9-3-2.4-6.8-.5-14.5 3-20.6 10.3-17.9 28.3-27.4 48.9-25.9 16.3 1.2 35.4 10.9 36.3 29.4C411.3 423.1 394.5 443.4 374.9 447.8zM166.9 368.4c-21.4-11.5-49.5-14.4-72.3-5.9-21.4 8-32.8 29.1-33.2 51 .8 1.1 1.2 2.4 1.1 4.1C61 431 73.7 442.2 84 448.6c11.9 7.3 25.1 11.9 39.3 10.8 23.8-2 44.7-16 54.5-37.8C186 403.1 187 379.2 166.9 368.4zM127.6 447.8c-21.1 4.7-41-7.5-51.8-25.1-.6-1-.9-2-.9-3-2.4-6.8-.5-14.5 3-20.6 10.3-17.9 28.3-27.4 48.9-25.9 16.3 1.2 35.4 10.9 36.3 29.4C164.1 423.1 147.2 443.4 127.6 447.8z"/><path fill="#BCBCBC" d="M318.9,355.9c-3.9-2.5-7.9-4.8-11.9-7.3c-3.2-2-6.3-4.2-9.5-6.3c-4.1-2.7-8.5-6.8-13.7-7.2c-2.6-0.2-4-1.8-4.3-3.7c-6.5,3.5-13,6.9-19.6,10.3c8.3,3.7,15.8,8.7,24,12.8c9.4,4.8,19.4,10.1,27.7,16.7c3.5-4.5,7.6-8.5,12.3-11.9C322.3,358,320.2,356.7,318.9,355.9z"/><path fill="#010101" d="M163.1 402.7c-.9-18.4-20-28.2-36.3-29.4-20.5-1.5-38.6 8-48.9 25.9-3.5 6.1-5.4 13.8-3 20.6 0 1 .3 2 .9 3 10.8 17.6 30.8 29.8 51.8 25.1C147.2 443.4 164.1 423.1 163.1 402.7zM147 419.9c-4.4 7.8-11.4 13.7-19.9 16.4-16.4 5.3-32.2-5.1-41-18.3-.1-.4-.2-.9-.4-1.3-3.1-7.8 4.4-16.7 9.4-21.9 5.4-5.6 12.6-8.8 20.2-10 12.1-1.9 30.1.9 35.4 13.7C153.7 405.8 150.6 413.6 147 419.9zM410.3 402.7c-.9-18.4-20-28.2-36.3-29.4-20.5-1.5-38.6 8-48.9 25.9-3.5 6.1-5.4 13.8-3 20.6 0 1 .3 2 .9 3 10.8 17.6 30.8 29.8 51.8 25.1C394.5 443.4 411.3 423.1 410.3 402.7zM394.3 419.9c-4.4 7.8-11.4 13.7-19.9 16.4-16.4 5.3-32.2-5.1-41-18.3-.1-.4-.2-.9-.4-1.3-3.1-7.8 4.4-16.7 9.4-21.9 5.4-5.6 12.6-8.8 20.2-10 12.1-1.9 30.1.9 35.4 13.7C401 405.8 397.9 413.6 394.3 419.9z"/><path fill="#010101" d="M438.7,379.2c-4.1-10.3-12.3-17.2-21.9-22.2c-24.5-12.5-57.3-14.6-82.6-3.6c-4.9-5.7-13.1-9.5-19-13c-3.9-2.3-7.6-5-11.4-7.4c-4.2-2.6-8.2-6.1-12.9-7.9c11.8-6.6,23.5-13.5,35.1-20.6c1.4-0.9,2.1-2,2.4-3.2c17.5-1,34.7-3.8,49.9-12.9c14.3-8.6,26.9-22.3,32.4-38.2c0.2-0.4,0.3-0.9,0.3-1.3c0.5-0.6,0.9-1.3,1.2-2.2c9.5-30.1,13.8-60.3,10.2-91.7c-1.5-12.5-4.6-27.3-14.9-35.5c-8.8-7-22.3-6.7-32.9-8.4c-11.2-1.8-15.2-14.5-20.4-22.9c-6.5-10.5-17.8-18-29.6-20.9c-6.2-1.5-12.3-1.5-18.2-0.3c-1.9-0.7-4.2-0.5-6.1,1.3c-0.2,0.2-0.4,0.4-0.5,0.6c-3.8,1.3-7.4,3.1-10.9,5.2c-5.5,3.3-10.8,7-17,8.9c-7.3,2.3-15.5-0.4-22.5-2.6c-14.6-4.6-29.3-6.6-44.6-5.5c-14.5,1-31,5.1-40.5,16.8c-1.3,1.7-1.6,3.5-1.1,5.1c-6,12.3,13.7,27.2,21.4,33.4c9.1,7.4,18.8,14.1,28.6,20.5c20.1,13.1,40.1,26.4,59,41.2c-13.5,1-27.1-0.5-40.7-0.9c-16.5-0.5-33.3,0.7-49.8,1.4c-16.7,0.7-33.4,1.8-50,3.5c-11.3,1.1-22.7,2.1-33.9,4.5c-10.2,2.2-19.3,6.4-25.2,15.3c-0.4,0.6-0.8,1.3-1,1.9c-2.2,1.2-3.6,3.6-2.6,6.6c8.3,25.7,22.2,52.1,44.9,67.8c21.2,14.7,48,15,73.1,14.9c0.5,1.7,1.8,3.2,3.9,3.8c8.7,2.6,15.9,8.6,24,12.6c-2.6,1.4-5.3,2.8-8,4.2c-8.5,4.3-17.1,8.7-25.8,12.6c-7.4,3.3-15.4,6.4-21,12.5c-0.1,0.1-0.2,0.2-0.3,0.3c-23.1-8.6-50.9-9-73,0.8c-25.7,11.3-38.3,39.5-36.5,66.5c0.1,1.3,0.5,2.3,1.1,3.1c2.2,18.8,20.2,32.6,36.5,40.4c21.1,10.2,45.8,9.1,66.4-1.7c20.3-10.6,34.3-30.1,39.1-52.4c2.1-10,1.8-20.7-2-30.2c-0.7-1.7-1.4-3.2-2.3-4.7c4.7-0.9,10-3.7,12.5-4.9c12.4-6.1,25-11.7,37.4-17.6c2.6-1.2,5.2-2.5,7.8-3.8c0.6,0.5,1.4,1,2.3,1.2c10.7,3.1,20.1,9.9,29.8,15.1c9,4.8,18.7,9.7,26.6,16.1c-6.2,11.9-9,25.8-8.1,39.3c0.1,1.3,0.5,2.3,1.1,3.1c2.2,18.8,20.2,32.6,36.5,40.4c21.1,10.2,45.8,9.1,66.4-1.7c20.3-10.6,34.3-30.1,39.1-52.4C442.9,399.5,442.5,388.7,438.7,379.2z M408.6,160.4c0.4-5.9,0.3-11.8,0-17.8c0.5,1.8,0.9,3.5,1.2,5.1c6.7,32.1,1.3,65-8.4,95.9c-0.3,0.4-0.6,1-0.8,1.6c-3.3,9.5-9.1,17.6-16.3,24.4c-1.8-12.9-4.4-25.2-9.9-36.4c10.5-14.2,21-28.5,27.7-45C405.8,179.3,408,170,408.6,160.4z M335.2,84.4c9.8,7.3,13,18.7,20.4,27.8c7.7,9.5,19.2,10.9,30.7,12.1c3.8,0.4,7.6,0.9,11,2.4c-0.2,0.6-0.3,1.2-0.3,2c0.1,9.8,0.9,19.5,0.6,29.3c-0.3,9.3-2.7,18.4-6.1,27c-5.4,13.5-13.9,25.4-22.5,37.1c-0.4,0-0.9,0.1-1.3,0.2c-1.6-2.1-3.3-4.1-5.2-6c-3.6-3.8-7.8-6.8-12.3-8.8c0.5-0.8,0.7-1.8,0.7-2.9c0-30.2,0.9-60.1-10.1-88.8c-4-10.5-9.5-20.4-17.2-28.5c-2.9-3.1-5.8-6.2-8.6-9.5c-0.1-0.1-0.2-0.2-0.2-0.3C322.1,77.5,329.4,80,335.2,84.4z M229.6,86.9c11.7,1.7,22.5,7.5,34.4,7.9c14.5,0.6,24.1-8.5,36.3-14.5c0.5-0.3,1.1-0.5,1.7-0.7c2.4,3.2,5.4,6.1,6.8,7.8c2.8,3.2,5.6,6.2,8.5,9.3c4.1,4.3,7.1,9.8,9.7,15.1c14.2,28.9,12.8,61.1,12.8,92.4c-6.9-0.8-13.8,0.7-19.9,5.2c-8.6-10.4-16.9-20.9-24.1-32.4c-7.4-11.8-18.6-22.5-28.7-32c-16.7-15.6-35.4-29.9-54.3-42.8c-6-4.1-15.9-10.4-25.7-13.2C200.4,84.3,217.2,85.1,229.6,86.9z M83.9,219.2c3-3.8,8.3-5.5,12.7-6.9c10.3-3.2,21.4-3.6,32.1-4.8c16.6-1.9,33.2-2.9,49.9-3.7c17.2-0.8,34.7-1.8,51.9-1.7c16.7,0.2,33.2,2.6,49.8,0.1c3.8-0.6,5.4-4.1,4.9-7c1.8-2.3,1.9-6-0.6-7.9c-22.6-18.2-47.2-33.4-71-49.8c-12.5-8.6-26.1-17.4-35.9-29.1c-1.8-2.1-3.4-4.3-4.2-6.8c0,0,0.1-0.4,0.1-0.5c0.2-0.2,0.7-0.6,1.8-1c7.4-3.1,17.6,3.3,23.8,6.9c8.2,4.8,15.7,10.7,23.2,16.5c10,7.7,20.1,15.1,29.7,23.4c11.8,10.2,22.7,21.4,32.3,33.8c4.9,6.4,9.1,13.4,14,19.9c3.7,4.9,7.5,9.6,11.4,14.3c-31,1.3-61.9,5.3-92.9,7.4c-32.4,2.3-65,7.7-97.5,7.2c-10.9-0.2-24.1-0.5-34.3-5.2C81.7,222.8,81.6,222,83.9,219.2z M150.2,293.7c-13.8-2-26.3-7.2-36.8-16.5c-10.5-9.3-18.5-21.4-24.6-33.9c-1.1-2.3-2.2-4.5-3.1-6.8c10.4,3.3,21.9,3.8,32.7,4.1c16.2,0.5,32.4-1,48.5-2.7c24.9-2.6,49.8-4.2,74.7-6.4c25.2-2.3,50.3-5,75.6-5.7c2.2-0.1,3.7-1.2,4.4-2.7c1.9-0.6,3.4-2,3.9-3.7c10.4-9.2,24.2-1.6,32.1,8.1c10.7,13.3,13.7,28.9,15.9,45.3c0.2,1.8,1.1,3.1,2.3,3.9c-11.1,7.8-23.2,10.9-36.7,12.3c-15.9,1.7-32,1.6-48,1.9c-16.2,0.4-32.4,1.4-48.6,2.4c-16.4,1.1-32.8,2-49.3,2.2C178.9,295.6,164.3,295.8,150.2,293.7z M207.2,306.5c13.6-0.4,27.1-1.2,40.7-2.1c-7.1,4.1-14.2,8.3-21.3,12.3c-0.7-0.8-1.6-1.5-2.9-1.9C217.7,313.1,212.5,309.7,207.2,306.5z M177.7,421.5c-9.8,21.9-30.7,35.9-54.5,37.8c-14.2,1.2-27.3-3.4-39.3-10.8c-10.3-6.3-23-17.5-21.5-30.9c0.2-1.6-0.3-3-1.1-4.1c0.4-21.9,11.8-43,33.2-51c22.8-8.6,51-5.6,72.3,5.9C187,379.2,186,403.1,177.7,421.5z M244.2,337.1c-12.9,6.3-25.9,12.3-39,18.1c-3.2,1.4-6.1,3.2-9.2,4.7c-1.9,0.9-3.9,1.8-5.9,2.6c-0.2,0.1-0.4,0.1-0.5,0.2c-2.2,1.3-4.4,2-6.8,1.5c-0.4,0.3-0.8,0.7-1.1,1.1c-3.2-2.9-6.9-5.4-10.8-7.5c4.7-3.8,11.1-5.9,16.5-8.3c8.8-4.1,17.5-8.5,26.2-12.9c18.8-9.6,36.6-20.9,55.2-30.9c1.3-0.7,2-1.6,2.4-2.6c6.9-0.4,13.9-0.7,20.8-0.9c5.5-0.1,11.1-0.2,16.8-0.2C287.7,314.5,266.3,326.2,244.2,337.1z M284,354.5c-8.1-4.2-15.7-9.1-24-12.8c6.6-3.3,13.1-6.8,19.6-10.3c0.3,1.9,1.7,3.5,4.3,3.7c5.1,0.4,9.5,4.5,13.7,7.2c3.2,2.1,6.2,4.3,9.5,6.3c4,2.4,8,4.8,11.9,7.3c1.3,0.8,3.3,2.1,5.1,3.4c-4.7,3.4-8.8,7.4-12.3,11.9C303.3,364.6,293.4,359.3,284,354.5z M425,421.5c-9.8,21.9-30.7,35.9-54.5,37.8c-14.2,1.2-27.3-3.4-39.3-10.8c-10.3-6.3-23-17.5-21.5-30.9c0.2-1.6-0.3-3-1.1-4.1c0.4-21.9,11.8-43,33.2-51c22.8-8.6,51-5.6,72.3,5.9C434.3,379.2,433.3,403.1,425,421.5z"/></svg>