<svg xmlns="http://www.w3.org/2000/svg"  viewBox="0 0 512 512" width="64px" height="64px"><path fill="#14B6B9" d="M421.4 127.8c-15.5-18.5-35.2-32.9-56.9-43.3-.6-.3-1.2-.6-1.8-.9-.5 3.9-2.4 8.2-4.2 11.1-3.1 5-7 9.2-11.4 12.8 3.6 4.1 7.1 8.4 10.3 12.9 11.9 16.5 20.9 34.9 26.8 54.3 1.3 4.2 2.6 8.6 3.8 12.9 8.1-2.9 16-6.2 23.3-10.3 5.7-3.2 11.3-7 15.7-11.9.4-.5.9-1 1.3-1.5 3.8-2.1 7.1-4.8 8-8.7 1.5-.6 3.1-.8 4.6-.4C435 145.3 428.5 136.3 421.4 127.8zM444.5 161v.2c0 2.6-1.6 5.5-4.3 6-8.9 12-21.3 19.8-34.9 25.6-4.9 2.1-9.9 4-14.9 5.9.4 2.1.7 4.1 1 6.2 1 8.4 1.4 16.7 1.5 25.1 1-.7 2-1.4 3.1-2.1 17.9-12.3 37.8-26.2 48.7-45.5-.3-.6-.5-1.2-.6-1.9 2.4-2 4.3-4.1 4.7-6 .7-.4 1.4-.9 2.2-1.1.1 0 .1 0 .2 0C449 169.1 446.8 165 444.5 161zM380 205.7c-.2-1.1-.4-2.2-.6-3.3-8.1 2.6-16.3 4.8-24.7 6.6-20.2 4.2-40.7 6.1-61.2 6.5.8 9.2 1.7 18.4 2.4 27.6 1 11.5 2.4 23 2.5 34.5 0 2.1 0 4.1 0 6.2 4.4-14 8.5-28.2 13.5-42 1.3-3.7 6.3-3.8 8.9-1.8 6.9 5.5 13.5 15.4 15.5 25 15.8-7.9 30.6-17.4 45.3-27.3C381.7 227.1 381.9 216.1 380 205.7zM349.5 78c-19.7-7.8-40.5-12.8-61.7-15.1 7.6 3.5 14.9 7.6 22 12.3 10.6 7 20.5 15.1 29.4 24 .2-.2.5-.4.7-.6 2.8-2.3 5.7-5 7.7-8.1 1.1-1.7 2.1-3.4 2.8-5.3 0-.1.1-.2.1-.3C348.9 83.2 348.5 80.3 349.5 78zM253.1 61.4c-.2.5-.6.9-.9 1.2 0 .2-.1.3-.1.5C252.8 62.6 253.1 62 253.1 61.4 253.2 61.4 253.1 61.4 253.1 61.4zM261.7 90.3c-3.5-6.7-7.9-12.5-12.7-18.1-1.8 3.5-4.2 6.8-6.8 10.1-5.9 7.3-10.8 14-14.2 22.8-1.5 3.9-2.8 7.9-3.9 11.9 12.7 1.4 25.5 2 38.1 1.7 2.6-.1 5.2-.2 7.8-.3C268.4 108.6 266.3 99.1 261.7 90.3zM300.2 82.5c-9-5.5-18.1-9.7-27.8-13.6-2.7-1.1-5.4-2.2-8-3.5-1.3-.6-3.8-2.6-5.2-2.8-1.2-.1-2.6-.3-4-.6 1 1.1 2 2.2 3.1 3.2 3.2 3.2 6 7.2 8.4 11 5.3 8.2 9.7 17.2 11.8 26.6 1.1 4.9 2.1 9.8 3 14.7 11.9-1.1 23.7-3.2 35-7 4.4-1.4 8.7-3.1 12.8-5.2C320.5 96.7 310.7 88.9 300.2 82.5zM372.9 177c-5.9-18.4-14.3-36-25.9-51.5-3-4-6.1-7.8-9.4-11.6-7.9 4.4-16.6 7.5-25.2 9.7-9.4 2.4-19.1 4.1-28.8 5.1 2.3 14.5 4 29.2 5.7 43.7 1.2 10.5 2.3 21.1 3.3 31.6 27.2-.5 54.5-3.4 80.5-11.5 1.3-.4 2.6-.8 3.9-1.2C375.7 186.5 374.4 181.7 372.9 177z"/><path fill="#FEBF10" d="M469.3,220.6c-2.7-9.8-5.9-19.4-9.8-28.8c-1-2.5-2-4.9-3.1-7.3c-11,22.2-32.9,38.3-52.8,51.9c-4.1,2.8-8.3,5.7-12.4,8.5c-0.5,0.4-1,0.8-1.6,1.1c-17.2,11.6-34.6,22.8-53.4,31.6c-1.3,0.6-2.6,1.2-4,1.8c-0.3-0.5-0.5-1-0.8-1.5c-3.2,0-6.6-2.5-6-6.7c0.7-5-2.4-11.3-6.2-16.3c-8.4,24.9-14.6,50.5-25.4,74.5c13.7,3.4,27.6,6.4,40.9,11.4c6.8,2.5,12.5,6.5,18.4,10.7c3.1,2.3,6.3,4.7,9.7,6.5c0-3,0-5.9-0.2-8.8c-0.2-3.1-0.2-12.5-3-13.9c-6.6-3.2-1.6-13.5,5.1-10.3c10.2-5.4,20.2-11.2,29.8-17.5c16.3-10.7,31.6-22.8,45.4-36.7c6.8-6.9,13.8-14.2,19-22.4c1.9-3,4.3-6.8,5.5-10.7C469.6,232.7,473,225.8,469.3,220.6z"/><path fill="#14B6B9" d="M372 334.1c1 3.1 1.5 6.4 1.8 9.4.7 7.4.4 14.7.4 22.1 0 3.7-2.9 6.8-6.8 6.1-14-2.6-23-15-36-19.9-.3-.1-.7-.2-1-.4 0 0 0 0 0 0-.2.6-.2 1.1 0 1.5 0 .1 0 .2 0 .4-.3.1-.6.2-.9.4v-1.5c.2-.2.3-.3.4-.5.1-.1.1-.2.2-.3-10.1-3.7-20.6-6.2-31.1-8.8-1.3 11.6 0 23.4 1 35 .9 10.3 1.2 20.4.7 30.7 16.5-2.4 32.8-5.1 49.1-8.4 6.9-1.4 13.9-2.9 20.8-4.4 11.1-23.1 19.7-47 21.5-72.8C385.5 326.7 378.8 330.5 372 334.1zM195.8 235.1c.1-8.3.2-16.6.5-24.8-19.4-2-38.8-4.7-57.7-9-5.8-1.3-12.6-3-19.6-5.1-4.2 10.6-7.8 21.5-10.9 32.4-4.5 16.1-8.2 32.5-9.8 49.1 8.8 2.5 17.7 4.6 26.6 6.6 14.1 3.1 28.4 5.3 42.8 5.8 0-1.6 0-3.1 0-4.7 0-5 5.4-8 9.5-4.7 6.3 5.1 12.7 10.2 19.2 15.1.1 0 .1-.1.2-.1C195.5 275.4 195.7 255.2 195.8 235.1zM180.1 107.9c5.1 1.7 10.2 3 15.2 4.1 5.7 1.3 11.6 2.4 17.5 3.3 1-3.5 2.1-7 3.3-10.4 3.1-8.9 6.9-17.1 12.9-24.5 2.6-3.2 6.2-6.9 8.8-10.9C217.3 80.3 197.6 92.9 180.1 107.9zM178.2 119.1c-2.5-.8-5-1.7-7.5-2.7-13.1 12.6-24.7 26.7-34 42.7-4.9 8.5-9.4 17.3-13.4 26.4 12.2 3.8 24.9 6.4 37.4 8.4 12 2 24 3.5 36.1 4.7.6-10.8 1.7-21.5 3.5-32.2 1.9-11.1 4.8-21.9 7.6-32.8.6-2.3 1.2-4.7 1.8-7.1C199 124.9 188.4 122.5 178.2 119.1zM276.6 163.7c-1.4-11.4-3-22.7-4.8-34-5.6.3-11.1.4-16.7.3-11.2-.2-22.6-.7-34-2-.7 2.6-1.3 5.1-2 7.7-2.7 10.3-5.6 20.4-7.3 30.9-1.8 10.9-2.9 22-3.6 33 .9.1 1.8.2 2.8.2 22.6 2 45.2 4 67.9 4.2.7 0 1.3 0 2 0C279.6 190.7 278.2 177.2 276.6 163.7zM286.9 274.6c-.4-12.2-1.9-24.3-2.9-36.5-.7-7.5-1.3-15-2-22.5-13.2-.1-26.4-.7-39.6-1.6-11.5-.8-23.2-1.6-34.8-2.7-.3 8.3-.4 16.6-.5 24.9-.1 19.6-.2 39.2.8 58.7 26.2.2 52.5 1.2 78.7 1.4C287 289.1 287.2 281.8 286.9 274.6zM168.3 304.2c-.1-.9-.1-1.9-.2-2.8-13.3-.4-26.6-2-39.6-4.8-10.3-2.1-20.7-4.5-30.9-7.4-.1 2.5-.1 5.1 0 7.6.2-.1.3-.1.5-.2 4.2-1.9 7.3 1.6 7.3 5.3 20.7 2.7 41.3 4.8 62.3 4.2.3 0 .6 0 .9 0C168.5 305.5 168.4 304.8 168.3 304.2zM436.3 391.9c-8.1 2.3-16.4 4.4-24.7 6.2-6 1.3-12.3 2-18.2 3.6-4.9 1.2-9.8 2.4-14.7 3.6-4.3 8.7-8.5 17.7-13.8 25.8-9.6 14.7-21.4 29.2-36.6 38.5 20.3-4 40-10.5 58.3-20.1 20.6-10.8 39.1-25.3 53.5-43.6 4.9-6.2 9.3-12.8 13.3-19.7C447.9 388.4 442.1 390.2 436.3 391.9zM238.5 427.1c8.5 16 24 29.1 37.8 40.9.4 0 .8.1 1.2.2.8.2 1.4.5 2 .8.7-.4 1.5-.6 2.4-.7 4-15.2 5.5-31.1 6.6-46.9C271.9 423.7 255.2 425.7 238.5 427.1zM226.6 427.9c-10.2.6-20.5 1-30.7 1-9 0-18-.3-27-1 6.2 5.3 12.6 10.2 19.3 14.8 22.5 15.5 48.1 27.5 75.3 31.7.7.1 1.4.3 1.9.7.6 0 1.1 0 1.7 0C251.1 461.3 235 446.4 226.6 427.9zM287.8 339.7c-1-.3-2.1-.5-3.1-.8-3.6-1-5.8-4.6-4-8.2 2.3-4.7 4.4-9.6 6.4-14.4-.5-.8-.8-1.7-.8-2.9 0-1.9 0-3.8.1-5.7-25.2-.3-50.4-1.2-75.5-1.4 15.6 10.9 31.9 20.7 49.4 28.1 3.1 1.3 3.6 4.9 2.6 7.7-4.5 12.2-16.3 19.8-21.9 31.2-3.6 7.3-6.2 15-9.2 22.5.3.8.4 1.6.4 2.6-.5 6.2.2 12 1.8 17.4 5.4-.4 10.8-.9 16.2-1.5 13.1-1.3 26.1-2.8 39.2-4.6 0-.3 0-.6.1-.9C290.8 385.8 284.9 362.7 287.8 339.7zM474.6 244.3c-4.3 11.1-14.3 21.7-20.9 28.8-12.9 13.8-27.4 26.3-42.8 37.2-2.3 1.6-4.7 3.2-7 4.8-.4 20.5-4.4 40.6-11.7 59.8-2.2 5.7-4.6 11.4-7.1 17 3.1-.8 6.3-1.5 9.5-2 7.4-1.1 14.7-2.8 21.9-4.5 9.4-2.3 18.8-4.8 27.9-8 3.5-1.3 7.2-2.5 10.5-4.4 1.1-.6 2.3-1.3 3.3-2.2 0 0 .2-.8-.1.5.6-2.7 2.6-4.1 4.7-4.4 3.7-8.8 6.7-17.9 8.9-27.2C479.5 308.5 480.1 275.9 474.6 244.3zM300 419.9c-1.3 18.3-3 36.7-8 54.4.3 0 .5 0 .8 0 .2 0 .4 0 .6 0 .6 0 1.1-.1 1.7-.1.2-.1.4-.1.6-.2 1.2-.5 2.4-1 3.5-1.6 2.7-1.3 5.4-2.8 8.1-4.2 5.6-3 11.5-5.8 16.7-9.5 14.9-10.2 26.5-24.6 35-40.5 1.7-3.2 3.4-6.4 5-9.6C342.9 413 321.5 416.8 300 419.9zM219.2 64.5c-20.7 3.3-41.4 8.8-60.2 18.3-.6 2.4-1.4 4.7-2 7.1-.9 3.6-.7 5.5 2.4 7.8 2.8 2.1 5.8 3.9 9.1 5.5 17-15.3 36.2-28.3 56.4-39.6C223 63.9 221.1 64.1 219.2 64.5zM182 452.2c-11.3-7.8-22.2-16.5-32.1-26.2-10.6-1.4-21.2-3.2-31.7-5.6-7.6-1.7-15.2-3.7-22.6-6.2 6.9 6.9 14.4 13.2 22.3 18.9 29.1 21 62.4 32.7 97.2 38.2C203.6 465.9 192.5 459.4 182 452.2zM86.3 285.8c-.3-.1-.6-.2-.9-.3-10.4-3.5-21-7.5-30.7-12.6-3.7-2-7.3-4.1-11-6-.2-.1-.3-.2-.5-.3.1 3.8.3 7.6.7 11.4 2.7 1 4.5 4 4 6.7 0 0 0 0 0 0 1.2.9 2.6 1.6 3.9 2.4 2.3 1.2 4.6 2.5 7 3.6 8.8 3.8 18 6.6 27.4 8.4C86.1 294.7 86.1 290.3 86.3 285.8zM72 165.9c-16.2 26.7-26.9 56.8-28.6 87.8 3.7 1.6 7.2 3.9 9.4 5.1 9.4 5.2 17.3 9 27.3 12.8 2.3.9 4.6 1.7 6.9 2.5 1.7-16.8 5.5-33.3 10.2-49.5 3.1-10.9 6.7-21.7 10.8-32.2C93.2 186.7 78.9 178.5 72 165.9zM158.3 110.5c-4.4-2.5-9.1-5.5-11.6-10.1-1.7-3.2-1.9-6.4-1.5-9.7-20.2 12.8-38.2 28.8-53.4 47.2-3.4 4.2-6.7 8.5-9.9 12.9-.2 1.4-1 2.6-2.2 3.3 2.9 11.7 14.2 19.2 24.8 24.2 2.6 1.2 5.2 2.3 7.8 3.4 4.3-10 9.2-19.8 14.9-29.1 9.2-15.3 20.2-28.9 32.5-41.1C159.3 111.1 158.8 110.8 158.3 110.5zM222 414.3c-1.7 1.3-3.9 1.8-5.9.6-5.7-3-19.6-15.4-23.4-25.7-11.6 2-23.2 3.7-34.9 4.3-6.9.4-13.8.3-20.7 0 5.5 7.7 11.6 15 18.2 21.7 22.3 2.7 44.8 2.7 67.2 1.3C222.4 415.9 222.2 415.1 222 414.3zM122.7 392.6c-17.1-1.6-34.1-4.5-50.9-7.5 1.2 1.7 2.3 3.5 3.6 5.2 7.9 9.1 22.6 13.1 33.5 16.1 9.4 2.6 19 4.7 28.7 6.4C132.1 406.3 127.2 399.6 122.7 392.6z"/><path fill="#FEBF10" d="M179.3,297c0,0.1,0,0.2,0,0.3c0.1,2.3,0.2,4.7,0.5,7c0,0.2,0.1,0.8,0.2,1.3c2.3,2.3,3,6.5-0.4,9.1c-0.7,0.6-1.4,1-2,1.2c0.2,0.5,0.3,0.9,0.5,1.4c-1.3,0.1-2.5,0.1-3.8,0.2c-16,0.6-32.1,0.2-48.1-1.2c-15.7-1.5-31.9-3.3-47.2-6.9c-11.5-2.7-23-6.5-33.2-12.4c-0.6-0.3-1.2-0.7-1.8-1.1c0,4.9,0.1,9.7,0.7,14.5c0.9,7.3,2,14.6,3.8,21.7c3.5,13.7,8.3,27.1,15.1,39.5c0.1,0.2,0.2,0.4,0.3,0.6c27.9,5,56.6,11,85.1,10.4c15.9-0.4,31.6-2.5,47.3-5.3c0.5-0.3,1.1-0.6,1.7-0.8c6.1-2.5,9.7,5.7,5.7,9.6c0.2,0.5,0.4,0.9,0.7,1.4c1.5,2.5,3.3,4.9,5.3,7.1c2.1,2.3,4.5,4.9,7,7.1c2.3-4.4,4.2-9,6-13.7c2.4-6.4,4.5-13.6,8-19.5c5.4-9.1,14.1-16.6,19.3-25.8C224.5,330.7,201.3,314.4,179.3,297z"/><path d="M487.8,255.5c-6-49.6-26.3-98.2-58.7-136.3C397.3,81.8,349.6,61,301.9,53.3c-14.7-2.4-29.5-3.5-44.4-3.4c-0.6-0.2-1.2-0.2-1.8-0.2c-0.7,0-1.4,0.1-2,0.3c-8.9,0.2-17.7,0.8-26.5,1.8c-23.6,2.8-48.5,8.4-70,19.1c-3.1-1.6-7.6-0.7-8.1,3.7c0,0.2-0.1,0.4-0.1,0.6c-29.3,16.3-55.9,40.1-76.2,68.2c-3.1,0.2-5,3.3-4.9,6.1c0,0.3,0,0.6,0,0.9c-20.9,31.2-34.3,67.2-35.9,104c0,0.1-0.1,0.1-0.1,0.2c-1.9,2.4-1.5,5.2,0,7.1c0,6.6,0.4,13.3,1.2,19.9c0,14.9-0.1,29.4,2.7,44.1c2.3,11.8,5.7,23.2,10.2,34.3c2.4,5.9,5.1,11.6,8.1,17.2c0,1.9,0.8,3.7,2.6,4.7c2.2,3.8,4.5,7.4,6.9,11c0.2,0.4,0.4,0.8,0.7,1.3c0.7,1.1,1.5,2.1,2.3,3c5.2,7.3,10.9,14.2,17,20.7c32.3,34.3,77,55.8,123.2,63.6c27.6,4.7,57.1,6.4,86.1,4.2c1.6,0.3,3.3,0.1,5-0.4c63.7-5.9,125-31,161.2-86.2C486.3,357.4,493.7,304.2,487.8,255.5z M459.5,191.9c3.8,9.4,7.1,19,9.8,28.8c3.7,5.1,0.3,12.1-4.8,17.1c-1.2,3.8-3.6,7.7-5.5,10.7c-5.2,8.2-12.2,15.5-19,22.4c-13.7,13.9-29.1,26-45.4,36.7c-9.6,6.3-19.6,12.2-29.8,17.5c-6.6-3.2-11.7,7-5.1,10.3c2.8,1.4,2.9,10.8,3,13.9c0.2,2.9,0.2,5.9,0.2,8.8c-3.5-1.8-6.6-4.2-9.7-6.5c-5.9-4.2-11.6-8.2-18.4-10.7c-13.3-5-27.2-7.9-40.9-11.4c10.8-24,17-49.6,25.4-74.5c3.8,5,6.9,11.3,6.2,16.3c-0.6,4.1,2.8,6.6,6,6.7c0.3,0.5,0.5,1,0.8,1.5c1.3-0.6,2.6-1.2,4-1.8c18.8-8.8,36.3-20,53.4-31.6c0.6-0.3,1.1-0.6,1.6-1.1c4.1-2.8,8.3-5.7,12.4-8.5c19.9-13.7,41.8-29.7,52.8-51.9C457.5,187,458.5,189.4,459.5,191.9z M300,377.5c-1-11.6-2.3-23.4-1-35c10.5,2.6,21,5.1,31.1,8.8c-0.1,0.1-0.1,0.2-0.2,0.3c-0.1,0.2-0.2,0.4-0.4,0.5v1.5c0.3-0.1,0.6-0.2,0.9-0.4c0-0.1,0-0.2,0-0.4c-0.2-0.4-0.2-0.9,0-1.5c0,0,0,0,0,0c0.3,0.1,0.7,0.2,1,0.4c13,4.9,21.9,17.3,36,19.9c3.9,0.7,6.8-2.4,6.8-6.1c0-7.4,0.3-14.7-0.4-22.1c-0.3-3-0.8-6.3-1.8-9.4c6.8-3.6,13.6-7.5,20.1-11.5c-1.8,25.8-10.4,49.7-21.5,72.8c-6.9,1.6-13.8,3-20.8,4.4c-16.3,3.3-32.7,6-49.1,8.4C301.1,398,300.8,387.9,300,377.5z M167.7,285.3c0,1.6,0,3.1,0,4.7c-14.4-0.5-28.7-2.7-42.8-5.8c-8.8-2-17.8-4.1-26.6-6.6c1.5-16.6,5.3-33,9.8-49.1c3.1-11,6.7-21.8,10.9-32.4c7,2.1,13.8,3.8,19.6,5.1c18.9,4.3,38.3,7,57.7,9c-0.3,8.3-0.4,16.6-0.5,24.8c-0.1,20.2-0.3,40.4,0.8,60.5c-0.1,0-0.1,0.1-0.2,0.1c-6.5-4.9-12.9-10-19.2-15.1C173.1,277.3,167.7,280.3,167.7,285.3z M168.6,306.2c-0.3,0-0.6,0-0.9,0c-21.1,0.6-41.6-1.5-62.3-4.2c0-3.7-3.1-7.2-7.3-5.3c-0.2,0.1-0.3,0.1-0.5,0.2c-0.1-2.5-0.1-5.1,0-7.6c10.2,2.9,20.6,5.3,30.9,7.4c13,2.7,26.3,4.3,39.6,4.8c0.1,0.9,0.1,1.9,0.2,2.8C168.4,304.8,168.5,305.5,168.6,306.2z M160.8,193.9c-12.5-2.1-25.2-4.6-37.4-8.4c4-9,8.4-17.8,13.4-26.4c9.3-16,20.9-30.2,34-42.7c2.5,1,5,1.9,7.5,2.7c10.2,3.4,20.8,5.8,31.5,7.5c-0.6,2.4-1.2,4.7-1.8,7.1c-2.8,10.9-5.8,21.7-7.6,32.8c-1.8,10.6-2.8,21.4-3.5,32.2C184.8,197.3,172.7,195.8,160.8,193.9z M211.8,166.7c1.7-10.5,4.6-20.6,7.3-30.9c0.7-2.6,1.3-5.1,2-7.7c11.3,1.3,22.8,1.8,34,2c5.6,0.1,11.1,0,16.7-0.3c1.7,11.3,3.4,22.7,4.8,34c1.6,13.5,3,26.9,4.3,40.4c-0.7,0-1.3,0-2,0c-22.7-0.2-45.3-2.3-67.9-4.2c-0.9-0.1-1.8-0.2-2.8-0.2C208.9,188.6,210,177.6,211.8,166.7z M207.2,236.2c0-8.3,0.1-16.6,0.5-24.9c11.6,1,23.2,1.9,34.8,2.7c13.1,0.9,26.4,1.5,39.6,1.6c0.7,7.5,1.3,15,2,22.5c1.1,12.1,2.5,24.3,2.9,36.5c0.3,7.2,0.1,14.5-0.2,21.7c-26.2-0.3-52.5-1.2-78.7-1.4C207,275.3,207.1,255.7,207.2,236.2z M283.5,128.8c9.7-1,19.3-2.7,28.8-5.1c8.6-2.2,17.4-5.3,25.2-9.7c3.3,3.7,6.5,7.6,9.4,11.6c11.6,15.5,20,33.1,25.9,51.5c1.5,4.7,2.9,9.5,4,14.4c-1.3,0.4-2.6,0.8-3.9,1.2c-26,8.1-53.3,11-80.5,11.5c-1-10.5-2.1-21.1-3.3-31.6C287.5,158,285.8,143.3,283.5,128.8z M354.7,209c8.4-1.8,16.6-4,24.7-6.6c0.2,1.1,0.4,2.2,0.6,3.3c1.9,10.3,1.7,21.4,1.6,32c-14.6,9.9-29.5,19.4-45.3,27.3c-2-9.6-8.7-19.5-15.5-25c-2.6-2.1-7.6-1.9-8.9,1.8c-5,13.8-9.1,27.9-13.5,42c0-2.1,0-4.1,0-6.2c-0.1-11.5-1.5-23-2.5-34.5c-0.8-9.2-1.6-18.4-2.4-27.6C314,215.1,334.5,213.3,354.7,209z M444.5,161.1V161c2.3,4,4.5,8.2,6.6,12.3c-0.1,0-0.1,0-0.2,0c-0.8,0.2-1.5,0.7-2.2,1.1c-0.4,1.9-2.3,4-4.7,6c0.1,0.6,0.3,1.3,0.6,1.9c-10.9,19.4-30.8,33.3-48.7,45.5c-1,0.7-2,1.4-3.1,2.1c-0.1-8.4-0.5-16.8-1.5-25.1c-0.2-2.1-0.6-4.1-1-6.2c5-1.8,10-3.8,14.9-5.9c13.6-5.8,26-13.7,34.9-25.6C442.9,166.6,444.5,163.8,444.5,161.1z M358.5,94.7c1.8-2.9,3.7-7.2,4.2-11.1c0.6,0.3,1.2,0.6,1.8,0.9c21.7,10.4,41.4,24.8,56.9,43.3c7.1,8.5,13.6,17.5,19.4,27c-1.5-0.4-3.2-0.2-4.6,0.4c-0.9,4-4.2,6.6-8,8.7c-0.4,0.5-0.8,1-1.3,1.5c-4.4,4.9-10,8.6-15.7,11.9c-7.3,4.1-15.2,7.4-23.3,10.3c-1.2-4.4-2.5-8.7-3.8-12.9c-5.9-19.4-14.9-37.9-26.8-54.3c-3.2-4.5-6.7-8.8-10.3-12.9C351.5,103.9,355.4,99.7,358.5,94.7z M349.5,78c-1,2.3-0.6,5.3,1.1,6.9c0,0.1-0.1,0.2-0.1,0.3c-0.8,1.8-1.8,3.6-2.8,5.3c-2,3.1-4.8,5.9-7.7,8.1c-0.2,0.2-0.5,0.4-0.7,0.6c-9-9-18.8-17-29.4-24c-7.1-4.7-14.3-8.8-22-12.3C309,65.2,329.8,70.2,349.5,78z M259.2,62.6c1.4,0.2,3.8,2.1,5.2,2.8c2.6,1.3,5.3,2.4,8,3.5c9.7,3.9,18.8,8.1,27.8,13.6c10.6,6.5,20.3,14.2,29.2,22.9c-4.1,2-8.4,3.7-12.8,5.2c-11.3,3.8-23.1,5.9-35,7c-0.9-4.9-1.9-9.8-3-14.7c-2.1-9.5-6.6-18.5-11.8-26.6c-2.4-3.8-5.2-7.8-8.4-11c-1.1-1.1-2.1-2.1-3.1-3.2C256.6,62.3,258,62.4,259.2,62.6z M252.2,62.6c0.4-0.4,0.7-0.8,0.9-1.2c0,0,0.1,0,0.1,0c-0.1,0.6-0.4,1.2-1.1,1.8C252.1,63,252.1,62.8,252.2,62.6z M249,72.2c4.8,5.6,9.2,11.4,12.7,18.1c4.6,8.8,6.7,18.4,8.3,28c-2.6,0.1-5.2,0.2-7.8,0.3c-12.6,0.3-25.4-0.3-38.1-1.7c1.2-4,2.4-8,3.9-11.9c3.4-8.9,8.3-15.5,14.2-22.8C244.8,79,247.2,75.7,249,72.2z M237.7,69.6c-2.6,4-6.2,7.7-8.8,10.9c-6,7.4-9.8,15.6-12.9,24.5c-1.2,3.4-2.3,6.9-3.3,10.4c-5.9-0.9-11.7-2-17.5-3.3c-4.9-1.1-10.1-2.4-15.2-4.1C197.6,92.9,217.3,80.3,237.7,69.6z M157,89.9c0.6-2.4,1.3-4.7,2-7.1c18.7-9.5,39.5-15.1,60.2-18.3c1.9-0.3,3.8-0.6,5.7-0.8c-20.3,11.3-39.4,24.3-56.4,39.6c-3.2-1.6-6.3-3.4-9.1-5.5C156.3,95.4,156.1,93.5,157,89.9z M82,150.7c3.2-4.4,6.5-8.7,9.9-12.9c15.2-18.4,33.2-34.4,53.4-47.2c-0.4,3.3-0.2,6.5,1.5,9.7c2.4,4.7,7.1,7.6,11.6,10.1c0.5,0.3,1,0.5,1.5,0.8c-12.3,12.2-23.3,25.8-32.5,41.1c-5.6,9.4-10.5,19.1-14.9,29.1c-2.6-1-5.2-2.2-7.8-3.4c-10.6-5-22-12.5-24.8-24.2C81.1,153.3,81.8,152.1,82,150.7z M72,165.9c6.9,12.6,21.1,20.8,36.1,26.5c-4.1,10.6-7.6,21.4-10.8,32.2c-4.7,16.2-8.5,32.7-10.2,49.5c-2.3-0.8-4.6-1.6-6.9-2.5c-10-3.8-18-7.6-27.3-12.8c-2.2-1.2-5.8-3.6-9.4-5.1C45.2,222.7,55.9,192.6,72,165.9z M43.3,266.6c0.2,0.1,0.3,0.2,0.5,0.3c3.7,2,7.3,4.1,11,6c9.7,5.2,20.2,9.2,30.7,12.6c0.3,0.1,0.6,0.2,0.9,0.3c-0.2,4.4-0.2,8.9,0,13.3c-9.4-1.8-18.6-4.6-27.4-8.4c-2.4-1-4.7-2.3-7-3.6c-1.3-0.7-2.6-1.5-3.9-2.4c0,0,0,0,0,0c0.6-2.7-1.3-5.7-4-6.7C43.6,274.3,43.4,270.4,43.3,266.6z M63.9,372c-0.1-0.2-0.2-0.4-0.3-0.6C56.9,359,52,345.6,48.6,331.9c-1.8-7.1-3-14.4-3.8-21.7c-0.6-4.8-0.7-9.6-0.7-14.5c0.6,0.4,1.2,0.8,1.8,1.1c10.2,5.9,21.7,9.7,33.2,12.4c15.3,3.6,31.5,5.4,47.2,6.9c16,1.5,32.1,1.9,48.1,1.2c1.3,0,2.5-0.1,3.8-0.2c-0.2-0.5-0.3-0.9-0.5-1.4c0.6-0.3,1.3-0.7,2-1.2c3.3-2.6,2.6-6.8,0.4-9.1c-0.1-0.5-0.2-1-0.2-1.3c-0.3-2.3-0.4-4.7-0.5-7c0-0.1,0-0.2,0-0.3c22,17.4,45.2,33.7,70.7,45.4c-5.2,9.2-13.9,16.8-19.3,25.8c-3.5,5.9-5.6,13.1-8,19.5c-1.8,4.7-3.7,9.3-6,13.7c-2.5-2.2-5-4.8-7-7.1c-2-2.2-3.8-4.6-5.3-7.1c-0.3-0.5-0.5-0.9-0.7-1.4c4-3.8,0.4-12.1-5.7-9.6c-0.6,0.3-1.2,0.5-1.7,0.8c-15.6,2.8-31.4,4.9-47.3,5.3C120.6,383,91.9,377,63.9,372z M222.6,416.6c-22.4,1.4-44.9,1.4-67.2-1.3c-6.6-6.8-12.8-14-18.2-21.7c6.9,0.3,13.8,0.3,20.7,0c11.7-0.6,23.3-2.2,34.9-4.3c3.8,10.3,17.7,22.6,23.4,25.7c2.1,1.1,4.3,0.6,5.9-0.6C222.2,415.1,222.4,415.9,222.6,416.6z M75.4,390.2c-1.2-1.7-2.4-3.4-3.6-5.2c16.9,3,33.9,6,50.9,7.5c4.4,7,9.4,13.7,14.8,20.1c-9.7-1.7-19.3-3.8-28.7-6.4C98,403.3,83.2,399.3,75.4,390.2z M118,433.1c-7.9-5.7-15.4-12.1-22.3-18.9c7.4,2.5,15,4.5,22.6,6.2c10.5,2.4,21,4.2,31.7,5.6c9.9,9.7,20.7,18.4,32.1,26.2c10.5,7.2,21.6,13.7,33.2,19C180.4,465.9,147.1,454.1,118,433.1z M265.4,475.1c-0.6-0.3-1.2-0.5-1.9-0.7c-27.1-4.3-52.7-16.3-75.3-31.7c-6.7-4.6-13.1-9.5-19.3-14.8c9,0.7,17.9,1,27,1c10.2,0,20.5-0.3,30.7-1c8.4,18.5,24.6,33.3,40.5,47.1C266.5,475.1,266,475.1,265.4,475.1z M281.9,468.3c-0.8,0.1-1.6,0.3-2.4,0.7c-0.6-0.3-1.3-0.6-2-0.8c-0.4-0.1-0.8-0.2-1.2-0.2c-13.9-11.8-29.3-24.8-37.8-40.9c16.7-1.4,33.4-3.4,50-5.6C287.4,437.2,285.9,453.1,281.9,468.3z M289.3,408.9c0,0.3,0,0.6-0.1,0.9c-13,1.7-26.1,3.2-39.2,4.6c-5.4,0.5-10.8,1-16.2,1.5c-1.6-5.5-2.3-11.3-1.8-17.4c0.1-1-0.1-1.8-0.4-2.6c3-7.5,5.7-15.2,9.2-22.5c5.6-11.5,17.3-19,21.9-31.2c1-2.8,0.5-6.4-2.6-7.7c-17.5-7.5-33.8-17.2-49.4-28.1c25.2,0.2,50.4,1.2,75.5,1.4c0,1.9-0.1,3.8-0.1,5.7c0,1.2,0.3,2.1,0.8,2.9c-2,4.9-4.1,9.7-6.4,14.4c-1.7,3.5,0.5,7.2,4,8.2c1,0.3,2.1,0.5,3.1,0.8C284.9,362.7,290.8,385.8,289.3,408.9z M307.3,468c-2.7,1.4-5.4,2.9-8.1,4.2c-1.2,0.6-2.3,1.1-3.5,1.6c-0.2,0.1-0.4,0.2-0.6,0.2c-0.6,0-1.1,0.1-1.7,0.1c-0.2,0-0.4,0-0.6,0c-0.3,0-0.5,0-0.8,0c5-17.7,6.7-36.1,8-54.4c21.5-3.1,42.9-6.8,64.1-11.4c-1.7,3.2-3.3,6.4-5,9.6c-8.5,15.9-20.1,30.2-35,40.5C318.7,462.1,312.9,464.9,307.3,468z M440.2,405.8c-14.5,18.3-33,32.7-53.5,43.6c-18.3,9.6-38,16.1-58.3,20.1c15.2-9.3,27-23.8,36.6-38.5c5.3-8.1,9.5-17.1,13.8-25.8c4.9-1.1,9.8-2.3,14.7-3.6c6-1.5,12.2-2.2,18.2-3.6c8.3-1.8,16.5-3.9,24.7-6.2c5.8-1.7,11.5-3.5,17.1-5.8C449.5,393,445.1,399.6,440.2,405.8z M471.8,339.7c-2.3,9.3-5.3,18.4-8.9,27.2c-2.1,0.3-4.1,1.7-4.7,4.4c0.3-1.3,0.1-0.5,0.1-0.5c-1,0.8-2.2,1.5-3.3,2.2c-3.3,1.9-7,3.1-10.5,4.4c-9.1,3.3-18.5,5.7-27.9,8c-7.2,1.8-14.6,3.4-21.9,4.5c-3.2,0.5-6.3,1.2-9.5,2c2.5-5.6,4.9-11.2,7.1-17c7.3-19.3,11.3-39.3,11.7-59.8c2.4-1.6,4.7-3.2,7-4.8c15.4-10.9,29.9-23.4,42.8-37.2c6.6-7.1,16.6-17.7,20.9-28.8C480.1,275.9,479.5,308.5,471.8,339.7z"/></svg>