<svg xmlns="http://www.w3.org/2000/svg"  viewBox="0 0 48 48" width="64px" height="64px"><polygon fill="#9fdadf" points="7.657,9.934 16.771,9.001 39.183,9.468 39.655,11.139 39.965,18.864 39.608,27.59 39.703,34.913 40.505,43.41 25.094,43.938 7.415,43.504 7.029,31.703 7.657,22.059 7.657,13.466"/><polygon fill="#d9e4e4" points="10.665,16.59 10.665,20.493 15.033,20.493 15.398,19.164 15.033,16.382"/><polygon fill="#d9e4e4" points="18.33,16.756 22.208,16.756 22.498,18.438 22.005,20.228 17.972,20.493"/><polygon fill="#d9e4e4" points="25.897,16.756 29.675,16.382 29.675,19.983 28.934,20.493 25.364,20.493"/><polygon fill="#d9e4e4" points="33.045,16.756 37.296,16.548 37.073,20.094 32.879,20.036"/><polygon fill="#d9e4e4" points="10.415,24.904 15.398,24.904 15.398,28.548 10.415,28.382"/><polygon fill="#d9e4e4" points="17.972,24.904 22.332,24.904 22.005,28.144 17.972,28.548"/><polygon fill="#d9e4e4" points="25.654,24.904 30.18,24.904 30.014,27.973 25.654,28.341"/><polygon fill="#d9e4e4" points="32.879,24.904 35.021,24.421 36.696,24.904 36.696,27.928 32.545,28.154"/><polygon fill="#d9e4e4" points="10.665,32.634 15.033,32.634 15.398,35.109 15.398,36.305 10.415,36.604"/><polygon fill="#d9e4e4" points="32.238,32.634 36.696,32.784 36.696,36.305 31.924,36.305"/><polygon fill="#16b7b8" points="18.948,43.646 19.458,32.634 28.149,32.634 28.149,33.989 28.669,43.646"/><polygon fill="#bbb" points="6.223,5.884 31.537,4.847 41.768,5.555 41.521,9.001 40.273,9.459 23.788,8.699 14.399,9.242 6.223,10.081 5.658,8.797"/><polygon fill="#bbb" points="41.768,45.936 40.867,46.49 6.516,46.49 6.516,43.534 41.688,43.534"/><path d="M41.917,43.199c-0.286-0.185-0.623-0.226-0.958-0.228c-0.411-3.214-0.704-6.445-0.843-9.683	c-0.141-3.284-0.006-6.529,0.163-9.807c0.133-2.575,0.146-5.144,0.056-7.72c-0.052-1.472-0.117-2.944-0.174-4.416	c-0.02-0.513-0.013-1.08-0.247-1.546c0.483-0.013,1.064,0.056,1.504-0.077c0.682-0.205,0.724-0.849,0.769-1.462	c0.066-0.904,0.132-1.807,0.198-2.711c0.021-0.29-0.248-0.473-0.5-0.5c-4.644-0.496-9.317-0.525-13.983-0.46	c-4.716,0.065-9.422,0.228-14.132,0.47c-2.654,0.136-5.309,0.272-7.963,0.408C5.472,5.484,5.254,5.772,5.326,6.1	C5.484,6.826,5.28,7.48,5.239,8.2C5.207,8.751,5.173,9.362,5.276,9.908c0.155,0.828,1.063,0.814,1.91,0.664	c-0.025,0.642,0.112,1.344,0.142,1.959c0.045,0.935,0.071,1.871,0.082,2.807c0.02,1.726-0.015,3.452-0.084,5.177	c-0.298,7.51-1.077,14.977-0.365,22.487C6.807,43.002,6.654,43,6.5,43c-0.096,0-0.172,0.027-0.24,0.065	C6.104,43.132,5.987,43.274,6,43.5c0.056,0.943,0.16,1.928,0.018,2.867C5.973,46.665,6.143,47.022,6.5,47	c5.072-0.312,10.155-0.261,15.232-0.157c2.503,0.051,5.005,0.114,7.508,0.149c2.51,0.035,5.02-0.021,7.53,0.012	c1.202,0.016,2.407,0.043,3.603-0.11c0.94-0.12,1.773-0.228,2.028-1.257C42.583,44.905,42.635,43.665,41.917,43.199z M39.965,43.01	c-0.391,0.02-0.782,0.04-1.173,0.056c-3.221,0.135-6.444,0.174-9.667,0.17c0.116-2.063-0.21-4.101-0.385-6.154	c-0.093-1.086-0.132-2.18-0.021-3.266c0.089-0.875,0.092-1.794-1.04-1.806c-1.159-0.012-2.331,0.098-3.491,0.115	c-1.173,0.018-2.345,0.028-3.517,0.077c-0.404,0.017-1.039-0.062-1.398,0.156c-0.373,0.225-0.359,0.654-0.351,1.035	c0.022,1.016,0.02,2.033-0.002,3.049c-0.048,2.23-0.196,4.46-0.461,6.675c-3.5-0.057-6.999-0.111-10.499-0.114	C7.356,36.669,7.783,30.35,8.15,24.014c0.185-3.197,0.316-6.399,0.243-9.602c-0.02-0.866-0.054-1.732-0.104-2.597	c-0.023-0.396-0.098-0.813-0.08-1.207c0.007-0.156,0.059-0.231,0.128-0.28c0.018-0.003,0.042-0.01,0.06-0.012	c0.052-0.009,0.088-0.031,0.128-0.05c0.108-0.007,0.231,0.001,0.374,0.006c0.723,0.024,1.457-0.152,2.179-0.241	c0.926-0.114,1.855-0.208,2.785-0.284c6.984-0.573,13.993-0.14,20.983,0.045c0.819,0.022,1.638,0.04,2.458,0.053	c0.396,0.006,0.826-0.024,1.213,0.08c0.506,0.136,0.592,0.444,0.625,0.934c0.101,1.456,0.12,2.924,0.174,4.382	c0.089,2.389,0.115,4.775,0.014,7.164c-0.144,3.417-0.364,6.798-0.24,10.222C39.216,36.097,39.522,39.564,39.965,43.01z M19.932,34.039c-0.002-0.185-0.005-0.37-0.009-0.555c0,0.012-0.012-0.171-0.013-0.281c0.065,0.026,0.2,0.024,0.212,0.026	c0.489,0.05,1.042-0.046,1.536-0.059c0.513-0.014,1.026-0.022,1.539-0.029c0.052-0.001,0.103-0.002,0.155-0.003	c-0.182,1.648-0.038,3.303,0.083,4.956c0.125,1.704-0.015,3.399,0.037,5.102c-1.338-0.018-2.677-0.041-4.015-0.062	c0.2-1.664,0.333-3.335,0.406-5.009c0.04-0.918,0.064-1.836,0.071-2.754C19.938,34.926,19.938,34.483,19.932,34.039z M24.473,43.206	c-0.05-1.643,0.092-3.28-0.024-4.924c-0.12-1.71-0.324-3.455-0.1-5.165c0.642-0.01,1.284-0.016,1.926-0.039	c0.256-0.009,0.512-0.02,0.768-0.033c0.111-0.006,0.656-0.104,0.724-0.037c0.166,0.16-0.068,0.995-0.084,1.222	c-0.066,0.95-0.025,1.905,0.056,2.853c0.175,2.053,0.501,4.09,0.385,6.153C26.908,43.231,25.69,43.221,24.473,43.206z M6.395,9.629	C6.412,9.626,6.327,9.624,6.248,9.63C6.247,9.615,6.244,9.608,6.244,9.588c0.005-0.222-0.02-0.449-0.021-0.672	C6.219,8.072,6.399,7.265,6.356,6.438c9.181-0.474,18.369-1.017,27.566-0.854c2.481,0.044,4.96,0.176,7.429,0.422	c-0.038,0.516-0.075,1.031-0.113,1.547c-0.022,0.296,0.008,0.657-0.069,0.943c-0.086,0.32-0.216,0.263-0.507,0.263	c-0.827-0.002-1.653,0.15-2.48,0.113c-0.007,0-0.011,0.003-0.017,0.003c-0.067-0.005-0.134-0.014-0.2-0.018	c-1.851-0.094-3.714-0.079-5.567-0.138c-1.865-0.06-3.731-0.127-5.597-0.178C23.093,8.44,19.38,8.403,15.675,8.62	c-1.803,0.106-3.602,0.273-5.392,0.514c-0.362,0.049-0.76,0.161-1.122,0.169c-0.267,0.004-0.526-0.05-0.797-0.025	C8.191,9.295,8.033,9.336,7.885,9.39C7.388,9.471,6.889,9.545,6.395,9.629z M41.374,45.583c-0.289,0.405-1.367,0.36-1.804,0.391	c-1.125,0.078-2.253,0.03-3.379,0.024c-4.657-0.025-9.308-0.047-13.965-0.145c-5.059-0.106-10.123-0.163-15.177,0.123	c0.044-0.657,0.02-1.317-0.019-1.975c9.194-0.021,18.387,0.376,27.581,0.193c1.148-0.023,2.297-0.055,3.444-0.098	c0.573-0.022,1.147-0.046,1.72-0.073c0.39-0.019,1.383-0.241,1.612,0.125C41.562,44.427,41.575,45.301,41.374,45.583z"/><path d="M22.158,16.175c-0.29-0.107-0.634-0.078-0.939-0.081c-0.306-0.003-0.612,0-0.918,0.009	c-0.668,0.019-1.335,0.065-1.999,0.136c-0.269,0.029-0.5,0.209-0.5,0.5c0,0.032,0.013,0.064,0.021,0.097	c-0.115,0.093-0.197,0.224-0.177,0.372c0.071,0.549,0.154,1.119,0.085,1.673c-0.068,0.541-0.302,1.075-0.137,1.624	c0.101,0.337,0.358,0.445,0.677,0.485c0.282,0.036,0.566,0.062,0.85,0.08c0.568,0.035,1.138,0.034,1.706-0.002	c0.271-0.018,0.541-0.043,0.81-0.077c0.325-0.041,0.626-0.071,0.844-0.348c0.151-0.192,0.23-0.455,0.301-0.686	c0.086-0.279,0.14-0.564,0.177-0.853c0.07-0.538,0.05-1.075-0.044-1.609C22.825,16.997,22.688,16.37,22.158,16.175z M21.694,20.036	c-0.008-0.011-0.003-0.019,0.008-0.025C21.7,20.017,21.693,20.034,21.694,20.036z M21.902,19.37	c-0.035,0.155-0.079,0.309-0.131,0.46c-0.006,0.018-0.04,0.095-0.059,0.15c-0.361,0.009-0.726,0.08-1.088,0.098	c-0.406,0.02-0.813,0.022-1.219,0.005c-0.203-0.008-0.406-0.021-0.608-0.038c-0.086-0.007-0.173-0.016-0.259-0.025	c0.001-0.018,0-0.037,0.001-0.054c0.008-0.112,0.034-0.221,0.058-0.33c0.061-0.277,0.118-0.551,0.142-0.834	c0.045-0.529-0.023-1.06-0.091-1.584c0.634-0.059,1.268-0.109,1.905-0.12c0.375-0.007,0.751-0.006,1.127,0.005	c0.03,0.001,0.075,0.007,0.104,0.007c0.005,0.01-0.004,0,0.01,0.021c0.017,0.119,0.082,0.279,0.112,0.412	C22.041,18.138,22.038,18.773,21.902,19.37z"/><path d="M25.478,21.183c0.852-0.272,1.743-0.231,2.626-0.251c0.431-0.01,0.923,0,1.339-0.125c0.428-0.129,0.709-0.487,0.791-0.919	c0.08-0.417,0.06-0.851,0.071-1.273c0.01-0.395,0.021-0.79,0.031-1.185c0.011-0.426,0.152-1.07-0.228-1.371	c-0.207-0.164-0.468-0.123-0.713-0.115c-0.238,0.008-0.475,0.013-0.713,0.017c-1.036,0.019-2.089,0.054-3.077,0.397	c-0.255,0.089-0.424,0.342-0.349,0.615c0.002,0.009,0.009,0.015,0.012,0.024c-0.026,0.041-0.052,0.082-0.059,0.132	c-0.163,1.186-0.287,2.377-0.364,3.572C24.824,21.019,25.182,21.278,25.478,21.183z M28.765,16.96	c0.154-0.003,0.307-0.006,0.461-0.01c0.032-0.001,0.077-0.004,0.125-0.008c-0.003,0.051-0.007,0.099-0.008,0.137	c-0.003,0.155-0.007,0.31-0.011,0.464c-0.008,0.307-0.016,0.613-0.024,0.92c-0.008,0.318-0.011,0.636-0.023,0.953	c-0.005,0.123-0.008,0.188-0.036,0.295c-0.017,0.065-0.028,0.109-0.064,0.127c-0.104,0.052-0.271,0.049-0.383,0.058	c-0.178,0.015-0.356,0.024-0.534,0.03c-0.33,0.011-0.66,0.011-0.99,0.017c-0.461,0.009-0.926,0.038-1.382,0.116	c0.069-0.891,0.155-1.78,0.276-2.665c0.007-0.05,0.004-0.099,0.001-0.148c0.52-0.147,1.05-0.231,1.593-0.259	C28.099,16.971,28.432,16.966,28.765,16.96z"/><path d="M21.173,24.265c-0.986,0.047-1.973,0.095-2.959,0.142c-0.24,0.012-0.44,0.182-0.483,0.416	c-0.157,0.12-0.214,0.324-0.183,0.531c0.088,0.587,0.071,1.202-0.047,1.783c-0.127,0.625-0.268,1.194,0.003,1.803	c0.064,0.143,0.276,0.265,0.432,0.248c0.85-0.093,1.699-0.187,2.549-0.28c0.432-0.047,0.864-0.095,1.296-0.142	c0.216-0.024,0.42-0.034,0.596-0.175c0.185-0.149,0.239-0.359,0.284-0.581c0.173-0.853,0.25-1.729,0.216-2.598	c-0.015-0.38-0.056-0.788-0.388-1.029C22.131,24.122,21.587,24.246,21.173,24.265z M21.643,27.945	c0.005-0.005,0.011-0.011,0.016-0.016C21.653,27.968,21.648,27.979,21.643,27.945z M21.872,26.35	c-0.014,0.268-0.036,0.537-0.073,0.803c-0.021,0.155-0.048,0.31-0.077,0.464c-0.01,0.053-0.021,0.105-0.031,0.158	c-0.071,0.008-0.141,0.016-0.211,0.023c-0.173,0.019-0.346,0.038-0.518,0.057c-0.331,0.036-0.662,0.073-0.994,0.109	c-0.546,0.06-1.091,0.12-1.637,0.18c0.006-0.115,0.027-0.231,0.048-0.332c0.057-0.283,0.122-0.562,0.161-0.849	c0.071-0.528,0.057-1.048,0-1.572c1.108-0.054,2.215-0.112,3.323-0.16c0.004,0.066,0.016,0.161,0.018,0.221	C21.89,25.752,21.887,26.051,21.872,26.35z"/><path d="M29.75,24.287c-1.346,0.012-2.693,0.031-4.039,0.047c-0.358,0.004-0.51,0.314-0.469,0.588	c-0.06,0.085-0.102,0.185-0.116,0.296c-0.073,0.572-0.002,1.14,0.04,1.712c0.021,0.285,0.035,0.571,0.014,0.857	c-0.019,0.274-0.061,0.542,0.095,0.791c0.32,0.509,0.96,0.398,1.467,0.361c0.52-0.038,1.039-0.079,1.559-0.12	c0.523-0.041,1.05-0.064,1.571-0.118c0.353-0.037,0.564-0.242,0.617-0.59c0.047-0.305,0.083-0.613,0.112-0.92	c0.056-0.584,0.08-1.172,0.073-1.759c-0.003-0.278,0.02-0.584-0.137-0.826C30.358,24.332,30.052,24.284,29.75,24.287z M28.147,27.83	c-0.582,0.046-1.164,0.092-1.746,0.132c-0.08,0.006-0.162,0.007-0.243,0.01c0.02-0.292,0.036-0.578,0.019-0.872	c-0.035-0.592-0.116-1.18-0.059-1.772c1.106-0.013,2.212-0.026,3.318-0.038c0.071-0.001,0.153,0.006,0.235,0.009V25.3	c0.006,0.308,0.003,0.616-0.008,0.924c-0.01,0.293-0.029,0.586-0.055,0.879c-0.014,0.161-0.031,0.321-0.05,0.482	c-0.006,0.048-0.012,0.096-0.018,0.144C29.077,27.771,28.609,27.794,28.147,27.83z"/><path d="M37.506,16.377c-0.043-0.235-0.275-0.34-0.482-0.367c-0.892-0.117-1.791-0.086-2.685-0.011	c-0.217,0.018-0.434,0.039-0.651,0.061c-0.215,0.021-0.451,0.023-0.659,0.085c-0.342,0.104-0.597,0.47-0.546,0.805	c-0.047,0.071-0.082,0.153-0.084,0.259c-0.017,0.963-0.035,1.925-0.052,2.888c-0.004,0.204,0.157,0.443,0.367,0.482	c0.732,0.138,1.477,0.222,2.222,0.239c0.351,0.008,0.702,0.001,1.053-0.02s0.778-0.013,1.107-0.139	c0.422-0.161,0.467-0.582,0.517-0.973c0.044-0.352,0.072-0.705,0.081-1.059C37.711,17.872,37.641,17.119,37.506,16.377z M33.354,19.67c0.014-0.792,0.029-1.584,0.043-2.376c0.055-0.058,0.089-0.134,0.112-0.216c0.033-0.005,0.067-0.007,0.098-0.01	c0.163-0.016,0.325-0.032,0.488-0.047c0.326-0.03,0.652-0.056,0.979-0.072c0.505-0.025,1.01-0.013,1.512,0.028	c0.071,0.492,0.114,0.988,0.11,1.486c-0.002,0.3-0.018,0.599-0.047,0.898c-0.012,0.128-0.026,0.257-0.047,0.384	c-0.003,0-0.005,0.001-0.009,0.002C35.516,19.864,34.425,19.836,33.354,19.67z"/><path d="M36.954,24.236c-0.204-0.127-0.471-0.152-0.703-0.191c-1.122-0.191-2.314-0.236-3.384,0.215	c-0.195,0.082-0.342,0.24-0.361,0.441c-0.098,0.08-0.165,0.201-0.171,0.363c-0.019,0.557-0.038,1.113-0.055,1.67	c-0.008,0.265-0.017,0.53-0.024,0.795c-0.008,0.266-0.054,0.56,0.042,0.815c0.119,0.316,0.399,0.413,0.71,0.437	c0.271,0.021,0.543,0.028,0.814,0.028c0.543,0,1.085-0.039,1.624-0.111c0.275-0.036,0.549-0.079,0.821-0.133	c0.264-0.052,0.539-0.103,0.738-0.301c0.203-0.202,0.237-0.464,0.267-0.735c0.032-0.289,0.052-0.578,0.064-0.868	c0.022-0.554,0.01-1.109-0.039-1.661C37.271,24.696,37.236,24.411,36.954,24.236z M36.262,27.594	c0.002-0.001,0.003-0.003,0.004-0.004C36.265,27.611,36.263,27.618,36.262,27.594z M36.302,27.213	c-0.009,0.105-0.017,0.211-0.03,0.315c0,0.007,0,0.008-0.001,0.014c-0.044,0.01-0.095,0.022-0.118,0.027	c-0.101,0.022-0.202,0.041-0.304,0.06c-0.363,0.067-0.729,0.114-1.097,0.143c-0.387,0.03-0.775,0.042-1.163,0.034	c-0.103-0.002-0.207-0.005-0.31-0.01c-0.008,0-0.022-0.003-0.031-0.004c0.002-0.088,0.005-0.176,0.008-0.264	c0.023-0.788,0.049-1.576,0.076-2.364c0.488-0.175,0.991-0.266,1.513-0.261c0.287,0.003,0.574,0.023,0.858,0.061	c0.141,0.019,0.281,0.043,0.421,0.069c0.061,0.011,0.122,0.023,0.183,0.035c0.01,0.11,0.012,0.222,0.018,0.325	c0.012,0.211,0.019,0.422,0.021,0.633C36.349,26.422,36.334,26.818,36.302,27.213z"/><path d="M10.103,19.753c0.011,0.279-0.013,0.582,0.115,0.838c0.182,0.363,0.521,0.44,0.895,0.468	c0.657,0.049,1.316,0.05,1.975,0.042c0.311-0.004,0.622-0.009,0.933-0.011c0.352-0.003,0.741,0.053,1.086-0.021	c0.727-0.156,0.787-1.174,0.766-1.77c-0.011-0.337-0.056-0.678-0.124-1.008c-0.063-0.308-0.188-0.626-0.166-0.945	c0.022-0.314,0.186-0.58-0.003-0.89c-0.193-0.317-0.542-0.359-0.877-0.394c-1.341-0.141-2.717-0.124-4.056,0.031	c-0.011,0.001-0.02,0.006-0.031,0.008c-0.119,0.009-0.231,0.061-0.318,0.143c-0.001,0.001-0.001,0.001-0.002,0.002	c-0.036,0.034-0.062,0.073-0.084,0.117c-0.011,0.021-0.022,0.041-0.031,0.064c-0.004,0.012-0.014,0.021-0.016,0.034	c-0.009,0.044-0.01,0.088-0.018,0.132v0.001l0,0C9.961,17.632,10.062,18.707,10.103,19.753z M14.795,17.07	C14.833,17.068,14.823,17.077,14.795,17.07L14.795,17.07z M12.869,16.975c0.375,0,0.749,0.01,1.123,0.031	c0.177,0.01,0.354,0.023,0.531,0.039c0.032,0.003,0.071,0.01,0.108,0.017c-0.017,0.069-0.036,0.14-0.042,0.202	c-0.018,0.21,0.01,0.42,0.046,0.627c0.067,0.385,0.184,0.755,0.22,1.145c0.019,0.204,0.026,0.408,0.013,0.613	c-0.004,0.072-0.011,0.143-0.024,0.214c-0.005,0.026-0.043,0.14-0.069,0.231h-0.001c-0.105-0.001-0.211-0.003-0.316-0.003	c-0.204-0.001-0.407,0-0.611,0.002c-0.793,0.008-1.585,0.028-2.378-0.011c-0.104-0.005-0.208-0.011-0.313-0.018	c-0.004,0-0.026-0.003-0.043-0.005c-0.001-0.074-0.007-0.175-0.009-0.21c-0.011-0.32-0.029-0.64-0.042-0.96	c-0.025-0.6-0.053-1.238,0.02-1.831C11.678,17.004,12.273,16.974,12.869,16.975z"/><path d="M15.632,24.601c-0.394-0.264-1.022-0.161-1.472-0.157c-1.208,0.009-2.415,0.068-3.619,0.172	c-0.259,0.022-0.515,0.211-0.5,0.5c0.058,1.13,0.118,2.263,0.119,3.394c0.023,0.288,0.155,0.538,0.451,0.62	c0.251,0.069,0.564,0.02,0.822,0.019c0.518-0.002,1.036-0.004,1.553-0.006c0.534-0.002,1.068-0.004,1.602-0.006	c0.465-0.002,1.045,0.069,1.296-0.422c0.119-0.232,0.101-0.523,0.115-0.778c0.012-0.23,0.023-0.46,0.029-0.691	c0.011-0.405,0.007-0.81-0.008-1.215C16.003,25.561,16.078,24.9,15.632,24.601z M14.987,25.359	C14.9,25.304,14.999,25.336,14.987,25.359L14.987,25.359z M14.831,28.135c-0.421,0.002-0.842,0.003-1.262,0.005	c-0.469,0.002-0.939,0.004-1.408,0.006c-0.334,0.001-0.672,0.01-1.009,0.008c-0.01-0.857-0.045-1.713-0.088-2.569	c0.672-0.051,1.345-0.099,2.019-0.12c0.424-0.013,0.849-0.021,1.273-0.022c0.21-0.001,0.421-0.001,0.631,0.002	c0.004,0.045,0.011,0.092,0.012,0.107c0.035,0.682,0.047,1.363,0.017,2.046c-0.008,0.177-0.017,0.354-0.028,0.531	C14.916,28.131,14.842,28.135,14.831,28.135z"/><path d="M36.951,32.366c-0.336-0.332-0.961-0.246-1.392-0.264c-0.585-0.025-1.17-0.049-1.755-0.074	c-0.582-0.024-1.157-0.037-1.73,0.083c-0.208,0.044-0.374,0.273-0.367,0.482c0.034,1.083,0.015,2.195-0.151,3.267	c-0.003,0.021,0,0.042-0.001,0.063c-0.004,0.024-0.016,0.043-0.017,0.07c-0.01,0.234,0.081,0.472,0.254,0.632	c0.212,0.197,0.486,0.209,0.758,0.246c0.481,0.064,0.962,0.125,1.446,0.161c0.48,0.036,0.964,0.049,1.445,0.015	c0.247-0.018,0.494-0.047,0.739-0.087c0.257-0.042,0.542-0.079,0.743-0.26c0.187-0.169,0.229-0.384,0.262-0.622	c0.036-0.265,0.066-0.53,0.085-0.796c0.034-0.488,0.036-0.978,0.006-1.466c-0.015-0.237-0.038-0.473-0.067-0.708	C37.174,32.839,37.156,32.568,36.951,32.366z M35.807,36.013c-0.367,0.049-0.74,0.06-1.109,0.054	c-0.426-0.007-0.85-0.041-1.273-0.087c-0.205-0.022-0.409-0.047-0.613-0.074c-0.082-0.011-0.177-0.031-0.266-0.039	c0.129-0.938,0.171-1.89,0.158-2.837c0.636-0.066,1.303,0.007,1.932,0.034c0.4,0.017,0.801,0.034,1.201,0.05	c0.038,0.002,0.23,0.024,0.371,0.031c0.007,0.078,0.025,0.163,0.031,0.229c0.078,0.752,0.078,1.511,0,2.263	c-0.009,0.088-0.019,0.177-0.031,0.264c-0.001,0.007-0.005,0.023-0.009,0.037C36.058,35.965,35.837,36.009,35.807,36.013z"/><path d="M14.818,32.081c-0.272-0.006-0.541,0.062-0.812,0.076c-0.378,0.02-0.756-0.01-1.132-0.04	c-0.701-0.056-1.491-0.145-2.165,0.112c-0.376,0.144-0.576,0.478-0.534,0.876c0.004,0.039,0.013,0.087,0.021,0.134	c0,0.002,0,0.006,0,0.008c-0.004,0.066,0.002,0.133,0.001,0.199c-0.014,1.002-0.107,2.003-0.155,3.004	c-0.02,0.977,1.225,0.808,1.884,0.778c0.786-0.036,1.572-0.081,2.357-0.122c0.349-0.018,0.832,0.04,1.146-0.134	c0.381-0.21,0.374-0.647,0.382-1.024c0.018-0.789,0.036-1.577,0.054-2.366c0.008-0.349,0.056-0.733-0.135-1.047	C15.536,32.214,15.175,32.089,14.818,32.081z M14.001,36.12c-0.361,0.019-0.721,0.038-1.082,0.057	c-0.363,0.019-0.725,0.04-1.088,0.055c-0.191,0.008-0.383,0.013-0.574,0.011c-0.067-0.001-0.134-0.003-0.202-0.006	c0.026-0.512,0.058-1.023,0.087-1.534c0.027-0.48,0.083-0.976,0.055-1.457c0-0.006-0.006-0.056-0.012-0.111	c0.02-0.007,0.041-0.015,0.056-0.018c0.112-0.023,0.221-0.037,0.334-0.045c0.448-0.031,0.897,0.012,1.344,0.048	c0.463,0.037,0.927,0.066,1.39,0.009c0.168-0.02,0.341-0.057,0.51-0.049c0.017,0.001,0.038,0.002,0.057,0.004	c0.001,0.021,0.001,0.042,0,0.045c-0.048,0.554-0.025,1.125-0.038,1.681c-0.006,0.268-0.012,0.536-0.018,0.804	c-0.003,0.142-0.007,0.284-0.01,0.426c0,0.009-0.002,0.024-0.003,0.036c-0.08,0.004-0.161,0.008-0.241,0.013	C14.377,36.1,14.189,36.11,14.001,36.12z"/><path fill="#d9e4e4" d="M16.773,12.668c-0.005,0.114-0.006,0.239,0.065,0.328c0.08,0.101,0.222,0.121,0.35,0.133	c4.182,0.404,8.399,0.444,12.588,0.121c0.14-3.746,1.694-7.507,0.8-11.148c-0.041-0.165-0.094-0.341-0.23-0.443	c-0.123-0.092-0.286-0.104-0.44-0.111c-4.28-0.209-8.577-0.082-12.838,0.378C16.567,4.337,16.899,9.598,16.773,12.668z"/><path d="M31.321,3.67c-0.054-0.725-0.062-2.067-0.79-2.476C30.17,0.99,29.687,1.037,29.289,1.02	c-0.576-0.024-1.153-0.041-1.73-0.053c-1.154-0.023-2.307-0.022-3.461,0.003c-2.349,0.052-4.693,0.207-7.029,0.456	c-0.208,0.022-0.437,0.138-0.482,0.367c-0.336,1.688-0.309,3.45-0.307,5.163c0.003,1.903,0.066,3.809-0.007,5.711	c-0.003,0.082,0.011,0.153,0.037,0.215c0.182,0.904,1.318,0.793,2.109,0.855c1.232,0.098,2.466,0.164,3.701,0.199	c2.553,0.072,5.109,0.006,7.656-0.186c0.279-0.021,0.487-0.212,0.5-0.5c0.097-2.164,0.625-4.27,0.905-6.411	C31.318,5.789,31.4,4.728,31.321,3.67z M30.082,7.504c-0.277,1.755-0.639,3.498-0.766,5.272c-1.984,0.138-3.971,0.208-5.96,0.185	c-1.071-0.012-2.141-0.048-3.211-0.107c-0.494-0.027-0.987-0.06-1.48-0.097c-0.247-0.019-0.493-0.039-0.739-0.06	c-0.164-0.014-0.328-0.029-0.492-0.044c-0.067-0.013-0.121-0.023-0.161-0.029c0.068-1.826,0.012-3.654,0.007-5.48	c-0.005-1.57-0.04-3.197,0.223-4.756c3.997-0.405,8.019-0.534,12.032-0.357c0.317,0.014,0.451,0.001,0.584,0.316	c0.106,0.25,0.125,0.609,0.158,0.874c0.056,0.447,0.076,0.9,0.074,1.35C30.349,5.555,30.234,6.534,30.082,7.504z"/><path fill="#cf4954" d="M22.428,6.364c0.015-0.701,0.029-1.403,0.044-2.104c0.003-0.163,0.023-0.355,0.163-0.438	c0.078-0.046,0.175-0.045,0.265-0.043c0.763,0.021,1.526,0.042,2.289,0.063c0.003,0.85-0.061,1.7-0.191,2.539	c0.75-0.018,1.566-0.036,2.317-0.054c-0.108,0.832-0.135,1.675-0.081,2.513c-0.746,0.069-1.564,0.072-2.311,0.011	c0.076,0.704,0.044,1.42-0.094,2.115c-0.012,0.058-0.028,0.123-0.079,0.153c-0.04,0.024-0.09,0.021-0.136,0.016	c-0.782-0.073-1.565-0.145-2.347-0.218c0.019-0.674,0.053-1.348,0.102-2.021c-0.906-0.234-1.836-0.135-2.771-0.18	c0.229-0.632,0.316-1.315,0.251-1.985c-0.017-0.176-0.027-0.391,0.121-0.487c0.092-0.06,0.212-0.047,0.32-0.032	C20.984,6.309,22.428,6.364,22.428,6.364z"/><path d="M27.814,6.327c0.033-0.265-0.256-0.506-0.5-0.5c-0.586,0.014-1.173,0.027-1.76,0.041c0.079-0.673,0.134-1.347,0.134-2.026	c0-0.276-0.229-0.493-0.5-0.5c-0.56-0.015-1.119-0.031-1.678-0.046c-0.412-0.011-0.936-0.113-1.264,0.203	c-0.324,0.313-0.275,0.8-0.284,1.212c-0.008,0.373-0.016,0.746-0.023,1.119c-0.55-0.031-1.099-0.068-1.649-0.117	c-0.594-0.053-0.959,0.348-0.949,0.928c0.013,0.69,0.003,1.278-0.226,1.942c-0.111,0.321,0.177,0.62,0.482,0.633	c0.75,0.031,1.508-0.012,2.25,0.099c-0.033,0.534-0.065,1.068-0.081,1.603c-0.009,0.288,0.237,0.476,0.5,0.5	c0.489,0.045,0.978,0.091,1.467,0.136c0.39,0.036,0.975,0.211,1.319-0.042c0.335-0.246,0.332-0.803,0.371-1.176	c0.034-0.322,0.036-0.644,0.026-0.966c0.595,0.023,1.19,0.021,1.784-0.03c0.257-0.022,0.517-0.211,0.5-0.5	C27.684,7.999,27.711,7.162,27.814,6.327z M24.923,8.351c-0.251-0.019-0.525,0.245-0.5,0.5c0.037,0.377,0.05,0.754,0.03,1.132	c-0.01,0.191-0.028,0.382-0.057,0.571c-0.002,0.017-0.006,0.033-0.009,0.05c-0.124-0.014-0.261-0.014-0.361-0.023	c-0.196-0.018-0.391-0.036-0.587-0.055c-0.217-0.02-0.434-0.04-0.651-0.06c0.021-0.523,0.042-1.047,0.079-1.57	c0.015-0.211-0.165-0.434-0.367-0.482C21.756,8.236,21,8.239,20.243,8.23c0.069-0.317,0.118-0.637,0.125-0.961	c0.001-0.053,0.015-0.349,0.004-0.545c0.096,0.011,0.192,0.022,0.288,0.031c0.587,0.057,1.178,0.087,1.768,0.109	c0.219,0.008,0.358-0.106,0.428-0.257c0.041-0.068,0.07-0.146,0.072-0.243c0.008-0.401,0.017-0.802,0.025-1.202	c0.004-0.2,0.009-0.401,0.013-0.601c0.002-0.096,0.004-0.193,0.006-0.29c0.337,0,1.15,0.03,1.701,0.051	c-0.018,0.645-0.061,1.288-0.156,1.926c-0.046,0.308,0.126,0.641,0.482,0.633c0.592-0.014,1.184-0.028,1.776-0.041	c-0.044,0.507-0.06,1.015-0.047,1.523C26.126,8.393,25.524,8.397,24.923,8.351z"/></svg>