<svg xmlns="http://www.w3.org/2000/svg"  viewBox="0 0 100 100" width="64px" height="64px"><path fill="#c8ede6" d="M86.876,56.546c0.3-0.616,0.566-1.264,0.796-1.943c2.633-7.77-1.349-17.078-9.733-19.325c-0.906-11.384-8.906-19.193-17.941-20.526c-10.341-1.525-19.814,5.044-22.966,15.485c-3.799-1.346-7.501-1.182-10.99,0.857c-1.583,0.732-3.031,1.812-4.33,3.233c-1.907,2.086-3.147,4.719-3.652,7.495c-0.748,0.118-1.483,0.236-2.176,0.484c-4.04,1.449-6.589,4.431-7.288,8.923c-0.435,2.797,0.443,5.587,0.933,6.714c1.935,4.455,6.422,6.98,10.981,6.312c0.227-0.033,0.557,0.069,0.752,0.233c0.241,7.12,3.698,13.417,8.884,17.014c8.321,5.772,19.027,3.994,25.781-3.921c2.894,2.96,6.338,4.398,10.384,3.876c4.023-0.519,7.147-2.739,9.426-6.349c1.053,0.283,2.051,0.691,3.083,0.804c4.042,0.442,7.118-1.311,9.732-4.8c1.488-1.986,1.779-5.145,1.793-6.354C90.384,61.503,89.053,58.536,86.876,56.546z"/><path fill="#fdfcef" d="M36.979,67.919c0,0,11.691,0,11.762,0c2.7,0,4.888-2.189,4.888-4.889c0-2.355-1.666-4.321-3.884-4.784c0.026-0.206,0.043-0.415,0.043-0.628c0-2.796-2.267-5.063-5.063-5.063c-1.651,0-3.113,0.794-4.037,2.017c-0.236-3.113-3.017-5.514-6.27-5.116c-2.379,0.291-4.346,2.13-4.784,4.486c-0.14,0.756-0.126,1.489,0.014,2.177c-0.638-0.687-1.546-1.119-2.557-1.119c-1.85,0-3.361,1.441-3.48,3.261c-0.84-0.186-1.754-0.174-2.717,0.188c-1.84,0.691-3.15,2.423-3.227,4.387c-0.109,2.789,2.12,5.085,4.885,5.085c0.21,0,0.948,0,1.118,0h10.151"/><path fill="#472b29" d="M48.741,68.418H36.979c-0.276,0-0.5-0.224-0.5-0.5s0.224-0.5,0.5-0.5h11.762c2.419,0,4.388-1.969,4.388-4.389c0-2.066-1.466-3.872-3.486-4.295c-0.255-0.053-0.426-0.293-0.394-0.552c0.023-0.186,0.039-0.374,0.039-0.565c0-2.517-2.047-4.563-4.563-4.563c-1.439,0-2.765,0.663-3.638,1.819c-0.125,0.165-0.34,0.237-0.54,0.178c-0.2-0.059-0.342-0.234-0.358-0.441c-0.105-1.378-0.779-2.672-1.851-3.55c-1.082-0.888-2.455-1.281-3.859-1.108c-2.167,0.265-3.956,1.942-4.353,4.08c-0.124,0.669-0.12,1.337,0.012,1.986c0.045,0.22-0.062,0.441-0.261,0.544c-0.199,0.105-0.443,0.06-0.595-0.104c-0.575-0.618-1.353-0.959-2.19-0.959c-1.569,0-2.878,1.228-2.981,2.794c-0.01,0.146-0.083,0.28-0.199,0.368c-0.117,0.087-0.265,0.117-0.408,0.088c-0.84-0.188-1.636-0.133-2.433,0.167c-1.669,0.627-2.836,2.209-2.903,3.938c-0.047,1.207,0.387,2.35,1.222,3.218c0.835,0.868,1.959,1.347,3.164,1.347h11.269c0.276,0,0.5,0.224,0.5,0.5s-0.224,0.5-0.5,0.5H22.554c-1.479,0-2.859-0.587-3.884-1.654c-1.025-1.065-1.558-2.468-1.5-3.949c0.083-2.126,1.51-4.069,3.551-4.835c0.801-0.302,1.628-0.399,2.468-0.3c0.377-1.822,1.997-3.182,3.905-3.182c0.684,0,1.354,0.18,1.944,0.51c0-0.385,0.035-0.771,0.107-1.158c0.476-2.563,2.62-4.574,5.215-4.891c1.684-0.208,3.32,0.265,4.615,1.327c1.004,0.822,1.717,1.95,2.039,3.193c1.012-0.916,2.319-1.426,3.713-1.426c3.067,0,5.563,2.496,5.563,5.563c0,0.083-0.002,0.166-0.007,0.248c2.254,0.674,3.848,2.777,3.848,5.164C54.129,66.001,51.712,68.418,48.741,68.418z"/><path fill="#fdfcef" d="M34.146,57.15c-1.808-0.119-3.365,1.13-3.476,2.789c-0.014,0.206-0.005,0.409,0.025,0.606c-0.349-0.394-0.865-0.661-1.458-0.7c-1.085-0.071-2.022,0.645-2.158,1.62c-0.197-0.054-0.403-0.09-0.616-0.104c-1.582-0.104-2.944,0.989-3.042,2.441"/><path fill="#472b29" d="M23.422,64.051c-0.006,0-0.012,0-0.017-0.001c-0.138-0.009-0.242-0.128-0.233-0.266c0.106-1.587,1.577-2.814,3.308-2.673c0.134,0.008,0.271,0.025,0.408,0.053c0.274-0.968,1.255-1.654,2.366-1.568c0.425,0.027,0.823,0.16,1.163,0.382c0.001-0.019,0.002-0.037,0.003-0.057c0.12-1.792,1.783-3.17,3.742-3.021c0.138,0.009,0.242,0.128,0.233,0.266c-0.009,0.137-0.13,0.247-0.266,0.232c-1.685-0.094-3.109,1.039-3.21,2.557c-0.013,0.185-0.005,0.37,0.023,0.552c0.017,0.109-0.041,0.217-0.141,0.265c-0.1,0.046-0.219,0.023-0.293-0.061c-0.318-0.359-0.788-0.584-1.288-0.617c-0.934-0.042-1.775,0.555-1.894,1.405c-0.01,0.071-0.05,0.135-0.11,0.175c-0.061,0.04-0.133,0.052-0.204,0.032c-0.191-0.052-0.381-0.084-0.566-0.097c-1.442-0.103-2.688,0.896-2.776,2.208C23.662,63.95,23.552,64.051,23.422,64.051z"/><path fill="#fdfcef" d="M50.72,58.819c-1.699-0.801-3.664-0.234-4.389,1.267c-0.09,0.186-0.157,0.379-0.201,0.574"/><path fill="#472b29" d="M46.131,60.909c-0.018,0-0.037-0.002-0.056-0.006c-0.135-0.031-0.219-0.165-0.188-0.3c0.049-0.216,0.123-0.427,0.219-0.626c0.783-1.622,2.902-2.243,4.721-1.385c0.125,0.06,0.179,0.208,0.12,0.333s-0.208,0.177-0.333,0.12c-1.572-0.743-3.393-0.227-4.058,1.148c-0.08,0.166-0.141,0.341-0.182,0.521C46.348,60.83,46.245,60.909,46.131,60.909z"/><path fill="#fff" d="M16.542 48.582H6.511c-.276 0-.5-.224-.5-.5s.224-.5.5-.5h10.031c.276 0 .5.224.5.5S16.818 48.582 16.542 48.582zM19.422 48.582h-1.446c-.276 0-.5-.224-.5-.5s.224-.5.5-.5h1.446c.276 0 .5.224.5.5S19.699 48.582 19.422 48.582zM23.477 48.582h-2.546c-.276 0-.5-.224-.5-.5s.224-.5.5-.5h2.546c.276 0 .5.224.5.5S23.753 48.582 23.477 48.582zM23.477 50.447h-9.616c-.276 0-.5-.224-.5-.5s.224-.5.5-.5h9.616c.276 0 .5.224.5.5S23.753 50.447 23.477 50.447zM12.129 50.447h-.58c-.276 0-.5-.224-.5-.5s.224-.5.5-.5h.58c.276 0 .5.224.5.5S12.406 50.447 12.129 50.447zM9.752 50.447H8.296c-.276 0-.5-.224-.5-.5s.224-.5.5-.5h1.457c.276 0 .5.224.5.5S10.029 50.447 9.752 50.447zM18.888 46.717h-5.027c-.276 0-.5-.224-.5-.5s.224-.5.5-.5h5.027c.276 0 .5.224.5.5S19.165 46.717 18.888 46.717zM18.888 44.852h-1.257c-.276 0-.5-.224-.5-.5s.224-.5.5-.5h1.257c.276 0 .5.224.5.5S19.165 44.852 18.888 44.852zM15.62 52.312h-1.759c-.276 0-.5-.224-.5-.5s.224-.5.5-.5h1.759c.276 0 .5.224.5.5S15.896 52.312 15.62 52.312zM69.719 22.305h-10.03c-.276 0-.5-.224-.5-.5s.224-.5.5-.5h10.03c.276 0 .5.224.5.5S69.996 22.305 69.719 22.305zM72.601 22.305h-1.446c-.276 0-.5-.224-.5-.5s.224-.5.5-.5h1.446c.276 0 .5.224.5.5S72.877 22.305 72.601 22.305zM76.655 22.305h-2.546c-.276 0-.5-.224-.5-.5s.224-.5.5-.5h2.546c.276 0 .5.224.5.5S76.931 22.305 76.655 22.305zM74.629 18.576h-9.616c-.276 0-.5-.224-.5-.5s.224-.5.5-.5h9.616c.276 0 .5.224.5.5S74.905 18.576 74.629 18.576zM63.281 18.576h-.58c-.276 0-.5-.224-.5-.5s.224-.5.5-.5h.58c.276 0 .5.224.5.5S63.558 18.576 63.281 18.576zM60.904 18.576h-1.456c-.276 0-.5-.224-.5-.5s.224-.5.5-.5h1.456c.276 0 .5.224.5.5S61.181 18.576 60.904 18.576zM72.066 20.44h-5.027c-.276 0-.5-.224-.5-.5s.224-.5.5-.5h5.027c.276 0 .5.224.5.5S72.342 20.44 72.066 20.44z"/><path fill="#fff" d="M72.066 18.576h-1.257c-.276 0-.5-.224-.5-.5s.224-.5.5-.5h1.257c.276 0 .5.224.5.5S72.342 18.576 72.066 18.576zM65.583 20.44h-1.759c-.276 0-.5-.224-.5-.5s.224-.5.5-.5h1.759c.276 0 .5.224.5.5S65.86 20.44 65.583 20.44z"/><path fill="#fdfcef" d="M78.294,44.359c1.883,0,3.517,0,3.54,0c2.11,0,3.821-1.674,3.821-3.739c0-1.802-1.302-3.305-3.035-3.66c0.02-0.158,0.034-0.317,0.034-0.48c0-2.139-1.772-3.873-3.957-3.873c-1.29,0-2.433,0.607-3.155,1.543c-0.185-2.381-2.358-4.218-4.9-3.913c-1.859,0.223-3.397,1.629-3.739,3.431c-0.11,0.578-0.098,1.139,0.011,1.665c-0.498-0.525-1.208-0.856-1.998-0.856c-1.446,0-2.627,1.102-2.72,2.494c-0.657-0.142-1.371-0.133-2.123,0.143c-1.438,0.528-2.462,1.853-2.522,3.356c-0.085,2.133,1.657,3.889,3.818,3.889c0.164,0,0.741,0,0.874,0h7.934 M71.816,44.359h0.36"/><path fill="#472b29" d="M81.834,44.859h-3.541c-0.276,0-0.5-0.224-0.5-0.5s0.224-0.5,0.5-0.5h3.541c1.831,0,3.32-1.453,3.32-3.239c0-1.524-1.108-2.857-2.635-3.169c-0.256-0.053-0.429-0.294-0.396-0.553c0.018-0.138,0.03-0.276,0.03-0.418c0-1.86-1.551-3.373-3.457-3.373c-1.092,0-2.098,0.491-2.759,1.349c-0.127,0.164-0.341,0.23-0.539,0.174c-0.198-0.06-0.339-0.234-0.355-0.44c-0.079-1.02-0.565-1.943-1.369-2.604c-0.829-0.68-1.882-0.981-2.974-0.854c-1.646,0.197-3.005,1.442-3.307,3.029c-0.094,0.494-0.09,0.988,0.01,1.47c0.045,0.219-0.06,0.441-0.258,0.545c-0.197,0.103-0.44,0.063-0.595-0.1c-0.428-0.451-1.009-0.699-1.635-0.699c-1.169,0-2.145,0.891-2.221,2.027c-0.01,0.146-0.082,0.279-0.198,0.366s-0.265,0.121-0.407,0.089c-0.638-0.138-1.24-0.099-1.845,0.125c-1.262,0.463-2.144,1.631-2.195,2.905c-0.035,0.875,0.283,1.708,0.895,2.345c0.635,0.66,1.496,1.024,2.423,1.024h8.808c0.276,0,0.5,0.224,0.5,0.5s-0.224,0.5-0.5,0.5h-8.808c-1.185,0-2.331-0.485-3.145-1.332c-0.802-0.835-1.218-1.928-1.172-3.076c0.066-1.675,1.211-3.203,2.849-3.806c0.611-0.225,1.24-0.309,1.88-0.244c0.344-1.396,1.629-2.424,3.136-2.424c0.493,0,0.977,0.113,1.414,0.322c0.009-0.241,0.036-0.483,0.082-0.725c0.381-2.01,2.097-3.587,4.17-3.835c1.36-0.167,2.686,0.218,3.727,1.072c0.747,0.614,1.277,1.409,1.546,2.302c0.791-0.648,1.785-1.007,2.842-1.007c2.458,0,4.457,1.962,4.457,4.373c0,0.034,0,0.068-0.001,0.103c1.764,0.555,3.003,2.188,3.003,4.037C86.154,42.957,84.216,44.859,81.834,44.859z M72.176,44.859h-0.359c-0.276,0-0.5-0.224-0.5-0.5s0.224-0.5,0.5-0.5h0.359c0.276,0,0.5,0.224,0.5,0.5S72.452,44.859,72.176,44.859z"/><path fill="#472b29" d="M80.126 39.056c-.018 0-.036-.002-.054-.006-.135-.03-.22-.164-.19-.299.037-.166.094-.327.169-.479.604-1.224 2.274-1.674 3.722-1.006.125.058.18.206.122.331-.058.126-.207.18-.332.122-1.201-.556-2.578-.208-3.063.774-.058.116-.101.239-.129.367C80.345 38.977 80.241 39.056 80.126 39.056zM74.967 44.859H73.86c-.276 0-.5-.224-.5-.5s.224-.5.5-.5h1.107c.276 0 .5.224.5.5S75.244 44.859 74.967 44.859z"/><path fill="#18c9c4" d="M35.56 38.992L30.167 49.53 49.379 70.128 70.109 50.009 64.044 38.902z"/><path fill="#472b29" d="M49.379,70.828c-0.006,0-0.012,0-0.018,0c-0.188-0.005-0.366-0.085-0.494-0.223L29.655,50.008c-0.201-0.216-0.246-0.534-0.111-0.797l5.393-10.539c0.119-0.232,0.359-0.38,0.621-0.381l28.485-0.09c0.001,0,0.002,0,0.002,0c0.256,0,0.492,0.14,0.615,0.365l6.064,11.106c0.151,0.276,0.099,0.619-0.127,0.838L49.867,70.63C49.736,70.757,49.561,70.828,49.379,70.828z M31.013,49.412l18.391,19.716l19.835-19.251L63.63,39.603L35.988,39.69L31.013,49.412z"/><path fill="#abf4f0" d="M49.686,39.457c-2.265,3.363-7.554,10.127-7.554,10.127s-5.561-9.11-6.229-10.063L49.686,39.457z"/><path fill="#00a5a5" d="M63.296 39.465c-2.265 3.363-6.165 9.829-6.165 9.829s-6.063-8.819-6.732-9.773L63.296 39.465zM49.452 69.857c.132-.12 7.567-19.804 7.567-19.804L42.132 49.84 49.452 69.857z"/><path fill="#6ee7ea" d="M49.686 39.572L42.458 49.434 56.616 49.434z"/><path fill="#472b29" d="M69.884 50.114L69.884 50.114l-2.642-.008c-.193 0-.35-.157-.349-.351.001-.193.157-.349.35-.349 0 0 .001 0 .001 0l2.641.008c.193 0 .35.157.349.351C70.233 49.958 70.077 50.114 69.884 50.114zM66.225 50.094L66.225 50.094l-.628-.001c-.193 0-.35-.157-.35-.351 0-.192.157-.349.35-.349h0l.627.001c.193 0 .35.157.35.351C66.574 49.938 66.417 50.094 66.225 50.094zM63.296 50.053L63.296 50.053l-8.984-.004c-8.714-.003-20.43-.008-24.146-.016-.193 0-.35-.157-.35-.351 0-.192.157-.349.35-.349h0c3.716.007 15.432.012 24.145.015l8.985.005c.193 0 .35.156.35.35S63.49 50.053 63.296 50.053z"/><path fill="#472b29" d="M49.379,70.442c-0.028,0.001-0.059-0.004-0.088-0.011c0,0,0,0-0.001,0c0,0,0,0,0-0.001c-0.052-0.014-0.1-0.039-0.139-0.072c0,0,0.002,0.001-0.001-0.001c-0.025-0.022-0.047-0.048-0.065-0.076c-0.014-0.021-0.025-0.045-0.034-0.069c-2.091-5.511-7.173-20.169-7.224-20.316c-0.063-0.183,0.033-0.382,0.216-0.445c0.183-0.061,0.383,0.033,0.445,0.217c0.049,0.14,4.649,13.407,6.894,19.434c0.956-2.519,2.252-5.89,3.548-9.261c1.451-3.774,2.902-7.549,3.875-10.126c0.069-0.181,0.271-0.273,0.451-0.203c0.181,0.068,0.272,0.27,0.204,0.451c-0.974,2.578-2.425,6.354-3.877,10.129c-1.449,3.771-2.899,7.541-3.873,10.118c0,0.003-0.002,0.005-0.002,0.008c-0.025,0.066-0.07,0.122-0.125,0.161l0,0c0,0,0,0.001-0.001,0.001h0l0,0.001c0,0,0,0-0.001,0l0,0.001c0,0,0,0,0,0s0.005,0.002-0.002,0.001l0,0c-0.022,0.016-0.046,0.028-0.072,0.038h0c-0.001,0-0.001,0.001-0.001,0.001h-0.001c0,0,0,0-0.001,0h0c0,0.001-0.001,0.001-0.001,0.001h0C49.461,70.435,49.421,70.442,49.379,70.442z"/><path fill="#472b29" d="M57.131 50.187c-.114 0-.221-.055-.287-.148-.707-1.007-1.456-2.1-2.204-3.192-.748-1.091-1.495-2.182-2.2-3.187l-2.617-3.729c-1.152 1.583-2.359 3.219-3.567 4.855-1.295 1.756-2.591 3.512-3.817 5.2-.068.093-.195.128-.292.144-.115-.003-.222-.062-.285-.158-.525-.803-1.945-3.162-3.318-5.444l-.958-1.592c-.1-.166-.046-.381.119-.48.165-.101.38-.047.48.119l.958 1.592c1.174 1.952 2.383 3.961 3.03 4.993 1.137-1.562 2.327-3.175 3.518-4.789 1.307-1.771 2.615-3.544 3.852-5.248.066-.091.163-.148.286-.144.113.001.219.056.284.148l2.898 4.13c.707 1.007 1.456 2.1 2.204 3.192.645.941 1.29 1.882 1.907 2.768 1.03-1.551 2.041-3.188 3.021-4.776 1.075-1.741 2.187-3.542 3.324-5.23.109-.16.326-.205.486-.095.161.107.203.325.095.485-1.129 1.677-2.237 3.472-3.309 5.208-1.074 1.739-2.184 3.537-3.319 5.224-.064.096-.172.153-.287.154C57.134 50.187 57.132 50.187 57.131 50.187zM37.014 41.66c-.119 0-.234-.06-.3-.169l-.095-.156.005-.004c-.036-.047-.065-.096-.088-.133-.1-.165-.047-.381.118-.48.167-.104.38-.048.481.117l.08.132-.006.004c.002.003.004.006.007.009l.005-.003c.007.012.013.022.018.034.028.041.053.082.075.119.1.165.046.381-.119.48C37.138 41.644 37.076 41.66 37.014 41.66zM36.351 40.577c-.117 0-.231-.058-.297-.165l-.792-1.271c-.102-.164-.052-.38.112-.481.166-.104.381-.053.482.112l.792 1.271c.102.164.052.38-.112.481C36.478 40.56 36.414 40.577 36.351 40.577z"/><path fill="#fbcd59" d="M61.771 58.727000000000004A6.791 6.791 0 1 0 61.771 72.309A6.791 6.791 0 1 0 61.771 58.727000000000004Z"/><path fill="#472b29" d="M61.771,72.809c-4.021,0-7.292-3.271-7.292-7.291s3.271-7.292,7.292-7.292s7.292,3.271,7.292,7.292S65.791,72.809,61.771,72.809z M61.771,59.226c-3.469,0-6.292,2.822-6.292,6.292c0,3.469,2.822,6.291,6.292,6.291s6.292-2.822,6.292-6.291C68.062,62.048,65.24,59.226,61.771,59.226z"/><path fill="#f1bc19" d="M61.771 61.077A4.441 4.441 0 1 0 61.771 69.959A4.441 4.441 0 1 0 61.771 61.077Z"/><path fill="#472b29" d="M61.771,70.208c-2.586,0-4.69-2.104-4.69-4.69c0-2.586,2.104-4.69,4.69-4.69s4.691,2.104,4.691,4.69C66.461,68.104,64.357,70.208,61.771,70.208z M61.771,61.328c-2.311,0-4.19,1.88-4.19,4.19c0,2.311,1.88,4.19,4.19,4.19c2.311,0,4.191-1.88,4.191-4.19C65.961,63.207,64.082,61.328,61.771,61.328z"/><path fill="#fbcd59" d="M73.104 53.022000000000006A6.791 6.791 0 1 0 73.104 66.604A6.791 6.791 0 1 0 73.104 53.022000000000006Z"/><path fill="#472b29" d="M73.104,67.105c-4.021,0-7.292-3.271-7.292-7.292s3.271-7.291,7.292-7.291s7.291,3.271,7.291,7.291S77.125,67.105,73.104,67.105z M73.104,53.522c-3.469,0-6.292,2.822-6.292,6.291c0,3.47,2.822,6.292,6.292,6.292c3.469,0,6.291-2.822,6.291-6.292C79.395,56.344,76.573,53.522,73.104,53.522z"/><path fill="#f1bc19" d="M73.104 55.372A4.441 4.441 0 1 0 73.104 64.254A4.441 4.441 0 1 0 73.104 55.372Z"/><path fill="#472b29" d="M73.104,64.504c-2.586,0-4.69-2.104-4.69-4.691c0-2.586,2.104-4.69,4.69-4.69s4.691,2.104,4.691,4.69C77.794,62.4,75.69,64.504,73.104,64.504z M73.104,55.622c-2.311,0-4.19,1.88-4.19,4.19c0,2.312,1.88,4.191,4.19,4.191c2.311,0,4.191-1.88,4.191-4.191C77.294,57.502,75.415,55.622,73.104,55.622z"/><path fill="#472b29" d="M72.424 61c.006 0 .018.006.037.018l-.009-.005c.089.061.169.11.239.145.071.035.146.06.225.076v-1.43l-.083-.046c-.101-.055-.198-.113-.29-.175s-.175-.129-.248-.202c-.074-.073-.136-.152-.186-.234-.051-.083-.085-.173-.104-.271-.012-.049-.019-.095-.021-.138s-.002-.089-.002-.138c0-.144.024-.27.071-.377.048-.107.113-.199.196-.274.083-.075.181-.135.294-.18.113-.044.238-.074.372-.089v-.129c0-.061.014-.113.042-.156.028-.043.078-.064.152-.064h.019c.159 0 .247.078.262.234l-.004.124c.086.015.174.039.264.071.091.032.192.073.306.122l-.013-.009c.052.018.092.041.122.069.029.028.047.072.053.133v.028c0 .022-.006.049-.016.083-.011.034-.027.066-.048.097-.022.031-.046.058-.074.08-.028.023-.058.035-.092.035-.028 0-.053-.003-.076-.007-.023-.004-.05-.018-.08-.039v.004l-.051-.028c-.089-.046-.187-.083-.294-.11v1.255l.018.009c.248.126.44.265.575.418.135.153.224.312.267.478.018.07.031.135.039.193.007.058.012.118.012.179 0 .141-.023.268-.069.382-.046.113-.109.212-.188.297-.08.084-.176.153-.287.207-.112.054-.234.09-.366.108v.331c0 .061-.012.113-.037.156-.024.043-.075.064-.152.064h-.028c-.077 0-.138-.021-.184-.062-.046-.042-.069-.102-.069-.181v-.308c-.165-.018-.308-.055-.427-.11-.12-.055-.242-.124-.368-.207-.034-.027-.057-.054-.069-.078-.012-.024-.026-.058-.041-.101V61.22c0-.027.008-.059.025-.094.017-.036.037-.069.062-.101.025-.032.051-.06.078-.083s.054-.034.078-.034c.034 0 .064.01.09.03.026.02.051.04.076.062H72.424c.006.003.01.004.013.004L72.424 61zM72.66 59.045c.072.067.157.127.255.179v-1.007c-.116.025-.214.072-.292.143-.078.071-.117.166-.117.285 0 .018.001.039.002.06.001.021.005.048.012.078C72.542 58.891 72.588 58.978 72.66 59.045zM73.605 60.257c-.061-.075-.135-.14-.221-.195v1.145c.107-.043.197-.109.269-.198.072-.089.108-.193.108-.312 0-.034-.003-.064-.009-.092-.006-.028-.012-.057-.018-.088C73.709 60.419 73.666 60.332 73.605 60.257zM61.056 66.704c.006 0 .018.006.037.018l-.009-.005c.089.061.169.11.239.145.071.035.146.06.225.076v-1.43l-.083-.046c-.101-.055-.198-.113-.29-.175-.092-.061-.175-.129-.248-.202-.074-.073-.136-.152-.186-.234-.051-.083-.085-.173-.104-.271-.012-.049-.019-.095-.021-.138-.001-.043-.002-.089-.002-.138 0-.144.024-.27.071-.377.048-.107.113-.199.196-.274.083-.075.181-.135.294-.18.113-.044.238-.074.372-.089v-.129c0-.061.014-.113.042-.156s.078-.064.152-.064h.019c.159 0 .247.078.262.234l-.004.124c.086.015.174.039.264.071.091.032.192.073.306.122l-.013-.009c.052.018.092.041.122.069.029.028.047.072.053.133v.028c0 .022-.006.049-.016.083-.011.034-.027.066-.048.097-.022.031-.046.058-.074.08-.028.023-.058.035-.092.035-.028 0-.053-.003-.076-.007-.023-.004-.05-.018-.08-.039v.004l-.051-.028c-.089-.046-.187-.083-.294-.11v1.255l.018.009c.248.126.44.265.575.418.135.153.224.312.267.478.018.07.031.135.039.193s.012.118.012.179c0 .141-.023.268-.069.382-.046.113-.109.212-.188.297-.08.084-.176.153-.287.207-.112.054-.234.09-.366.108v.331c0 .061-.012.113-.037.156-.024.043-.075.064-.152.064H61.8c-.077 0-.138-.021-.184-.062-.046-.042-.069-.102-.069-.181v-.308c-.165-.018-.308-.055-.427-.11-.12-.055-.242-.124-.368-.207-.034-.027-.057-.054-.069-.078-.012-.024-.026-.058-.041-.101v-.028c0-.027.008-.059.025-.094.017-.036.037-.069.062-.101.025-.032.051-.06.078-.083s.054-.034.078-.034c.034 0 .064.01.09.03.026.02.051.04.076.062H61.056c.006.003.01.004.013.004L61.056 66.704zM61.292 64.75c.072.067.157.127.255.179v-1.007c-.116.025-.214.072-.292.143-.078.071-.117.166-.117.285 0 .018.001.039.002.06.001.021.005.048.012.078C61.174 64.595 61.22 64.682 61.292 64.75zM62.237 65.961c-.061-.075-.135-.14-.221-.195v1.145c.107-.043.197-.109.269-.198.072-.089.108-.193.108-.312 0-.034-.003-.064-.009-.092-.006-.028-.012-.057-.018-.088C62.341 66.123 62.298 66.037 62.237 65.961z"/></svg>