<svg xmlns="http://www.w3.org/2000/svg"  viewBox="0 0 48 48" width="64px" height="64px"><path fill="#d6e5e5" d="M40.418,10.79c-0.036-0.997-0.133-2.068-0.801-2.832c-0.832-0.953-2.267-1.125-3.559-1.204 c-5.303-0.326-7.623-0.24-12.936-0.154c-1.512,0.024-3.149,0.09-4.325,1.003c-0.716,0.555-1.166,1.358-1.756,2.037 s-1.567,0.895-2.479,0.924v1.965c1.398-0.059,2.813,0.629,3.81,1.574c0.46,0.436,0.841,0.961,1.384,1.299 c0.442,0.275,0.963,0.405,1.479,0.507c1.959,0.385,2.448,0.564,4.448,0.588c1.377,0.017,2.753,0.033,4.13,0.05 c2.994,0.036,2.977,0.26,5.926-0.237c1.505-0.253,3.113-0.728,3.972-1.942C40.433,13.345,40.463,12.024,40.418,10.79z"/><path fill="#d03827" d="M15.953,10.557c-3.948-0.004-4.603,0.188-8.422,0.131c-1.047-0.016-1.125,1.239-0.709,1.536 c0.417,0.297,0.966,0.306,1.478,0.304c0.882-0.004,1.765-0.009,2.647-0.013c7.973-0.04,9.946-0.08,17.919-0.119 c0.988-0.005,1.975-0.01,2.963-0.015c1.27-0.006,2.539-0.013,3.809-0.019c0.165-0.001,0.348-0.009,0.466-0.124 c0.174-0.17,0.103-0.467-0.029-0.671c-0.395-0.61-0.891-1.022-1.617-1.024c-0.727-0.002-1.749,0.021-2.47,0.115 c-1.176,0.154-2.364-0.07-3.55-0.082C22.979,10.521,21.416,10.562,15.953,10.557z"/><path fill="#74cccf" d="M13.594,27.578c1.204-0.734,3.036-0.755,4.416-0.825c4.951-0.25,9.911-0.014,14.863,0.222 c1.613,0.077,3.227,0.154,4.84,0.231c1.016,0.048,2.043,0.099,3.02,0.404c0.977,0.305,1.914,0.895,2.469,1.816v2.349 c0,0-7.306-0.964-16.643-0.556s-14.766,0.591-14.766,0.591S13.896,29.99,13.594,27.578z"/><path fill="#16b7b8" d="M12.396,31.606c-0.224-0.713-0.474-1.466-1.029-1.941c-0.362-0.309-0.819-0.468-1.21-0.736 c-0.985-0.675-1.426-1.937-2.213-2.853c-0.783-0.912-1.934-1.465-3.105-1.493l-0.052,6.862L12.396,31.606z"/><path fill="#fcbf95" d="M13.182,26.817c-0.283-0.461-0.755-0.762-1.246-0.958c-0.754-0.301-1.585-0.387-2.381-0.246 c-0.496,0.088-0.999,0.278-1.34,0.664l1.368,2.138l1.784,1.251l0.999,1.617c0.774-0.737,1.131-1.86,1.149-2.951 C13.523,27.806,13.453,27.26,13.182,26.817z"/><path fill="#d6e5e5" d="M43.434,31.809c-12.599-1.948-25.738,0.754-38.438-0.363c0,0-1.076,3.95,1.395,4.006 s34.861,0.341,34.861,0.341S44.367,37.285,43.434,31.809z"/><path fill="#c56528" d="M45.439,21.518c-0.055-0.939-1.721-1.482-1.83,0.013c-0.161,2.218-0.145,4.258-0.407,6.61 c-0.14,1.254,0.1,1.795,0.211,3.049c0.048,0.541-0.004,2.316,0.094,2.85s-0.002,1.155-0.434,1.484 c-0.356,0.271-0.841,0.279-1.289,0.275c-10.927-0.094-22.492-0.029-32.922-0.289c-1.263-0.031-2.919,0.29-3.645-0.744 c-0.392-0.559-0.41-1.288-0.414-1.97C4.78,28.84,4.544,24.998,4.521,21.043c-0.004-0.724-0.031-1.514-0.498-2.067 c-0.467-0.554-1.224-0.55-1.478,0.128c-0.061,0.164-0.066,0.342-0.069,0.517c-0.018,0.818,0.036,2.224,0.13,3.037 C3.092,26.829,2.48,30.9,2.528,35.099c0.013,1.179,0.222,2.581,1.283,3.095c0.443,0.215,0.953,0.223,1.445,0.228 c0.061,0,0.127-0.001,0.188-0.001v5.861l2.425,0.077l0.662-5.983c0.486-0.004,0.966-0.004,1.422,0.015 c2.927,0.118,5.649,0.105,8.578,0.111c5.861,0.013,10.823-0.385,16.677-0.11c1.168,0.055,2.816,0.071,4.286,0.071l0.275,5.877 l2.481-0.131l0.217-5.82c0.824-0.076,1.629-0.182,2.392-0.137c0.182,0.011,0.396,0.008,0.505-0.138 c0.072-0.096,0.074-0.226,0.074-0.346c-0.026-4.819-0.051-9.639-0.077-14.458C45.359,22.855,45.465,21.972,45.439,21.518z"/><path fill="#010101" d="M18.806,39.002c-0.092,0-0.184,0-0.275,0L17.37,39c-2.515-0.004-4.891-0.007-7.438-0.109 c-0.852-0.036-1.803-0.014-2.722,0.007c-0.671,0.016-1.337,0.029-1.959,0.024c-0.521-0.005-1.109-0.011-1.659-0.277 c-1.031-0.501-1.544-1.658-1.565-3.54c-0.018-1.595,0.06-3.187,0.134-4.727c0.127-2.623,0.247-5.101-0.052-7.662 c-0.101-0.87-0.15-2.309-0.134-3.105c0.005-0.193,0.01-0.434,0.101-0.679c0.17-0.456,0.52-0.761,0.959-0.837 c0.49-0.088,1.003,0.123,1.369,0.559c0.607,0.72,0.612,1.723,0.616,2.387c0.012,1.966,0.077,3.94,0.141,5.85 c0.064,1.924,0.13,3.913,0.142,5.902c0.004,0.676,0.031,1.269,0.323,1.686c0.423,0.603,1.434,0.577,2.407,0.542 c0.288-0.009,0.571-0.019,0.841-0.01c6.999,0.175,14.627,0.203,22.003,0.23c3.664,0.014,7.321,0.027,10.91,0.059 c0.421-0.005,0.764-0.007,0.981-0.174c0.261-0.197,0.312-0.643,0.246-0.996c-0.066-0.359-0.071-1.11-0.077-1.836 c-0.003-0.442-0.005-0.849-0.023-1.06c-0.035-0.398-0.084-0.723-0.129-1.021c-0.098-0.653-0.182-1.218-0.081-2.127 c0.158-1.417,0.215-2.746,0.271-4.032c0.036-0.845,0.072-1.688,0.135-2.559c0.075-1.029,0.744-1.394,1.298-1.394 c0.003,0,0.006,0,0.009,0c0.696,0.005,1.474,0.564,1.521,1.388c0.017,0.29-0.012,0.699-0.039,1.095 c-0.019,0.274-0.038,0.537-0.037,0.725l0.077,14.457c0.001,0.144,0.003,0.411-0.172,0.647c-0.284,0.377-0.759,0.346-0.937,0.339 c-0.587-0.035-1.2,0.027-1.854,0.092c-0.536,0.054-1.091,0.109-1.657,0.113l0,0c-1.536,0.012-4.371,0.019-6.135-0.065 c-3.587-0.168-6.79-0.084-10.184,0.005C23.015,38.948,20.963,39.002,18.806,39.002z M8.918,37.872c0.359,0,0.713,0.005,1.055,0.019 c2.527,0.103,4.894,0.105,7.398,0.109l1.161,0.002c2.264,0.001,4.378-0.052,6.442-0.105c3.411-0.09,6.631-0.177,10.257-0.004 c1.739,0.082,4.557,0.075,6.08,0.063l0,0c0.521-0.004,1.052-0.057,1.565-0.108c0.665-0.066,1.353-0.133,2.013-0.095 c0.019,0.001,0.034,0.002,0.049,0.002l-0.077-14.442c-0.001-0.207,0.019-0.497,0.04-0.799c0.024-0.354,0.052-0.726,0.038-0.967 c-0.014-0.238-0.304-0.444-0.53-0.446c-0.073-0.001-0.268-0.005-0.302,0.466c-0.063,0.86-0.099,1.693-0.134,2.529 c-0.056,1.303-0.113,2.649-0.275,4.101c-0.087,0.778-0.015,1.259,0.076,1.867c0.048,0.316,0.099,0.66,0.136,1.082 c0.021,0.227,0.024,0.664,0.027,1.141c0.005,0.618,0.011,1.388,0.061,1.662c0.117,0.637,0.014,1.488-0.623,1.973 c-0.508,0.388-1.168,0.381-1.596,0.378c-3.588-0.031-7.244-0.045-10.906-0.059c-7.381-0.027-15.014-0.056-22.024-0.23 c-0.248-0.008-0.516,0.002-0.786,0.01c-1.184,0.034-2.523,0.074-3.255-0.968c-0.496-0.706-0.501-1.601-0.505-2.254 c-0.011-1.976-0.077-3.958-0.141-5.875c-0.064-1.916-0.13-3.897-0.142-5.877c-0.004-0.688-0.035-1.339-0.38-1.748 c-0.159-0.188-0.332-0.235-0.435-0.218c-0.031,0.006-0.127,0.022-0.192,0.199c-0.032,0.087-0.035,0.222-0.038,0.353 c-0.017,0.748,0.032,2.151,0.128,2.969c0.307,2.643,0.18,5.277,0.057,7.825c-0.074,1.525-0.15,3.103-0.133,4.667 c0.017,1.466,0.345,2.333,1.002,2.651c0.348,0.169,0.798,0.174,1.232,0.178c0.611,0.008,1.266-0.01,1.927-0.023 C7.762,37.885,8.347,37.872,8.918,37.872z"/><path fill="#010101" d="M7.362,44.975c-0.017,0-0.033,0-0.049,0l-0.998-0.008c-0.177-0.001-0.447-0.003-0.702-0.14 c-0.563-0.302-0.616-0.984-0.639-1.275c-0.054-0.701-0.024-1.668,0.005-2.604c0.027-0.905,0.056-1.842,0.007-2.487 c-0.021-0.275,0.185-0.516,0.46-0.536c0.253-0.04,0.516,0.183,0.536,0.46c0.055,0.699,0.024,1.662-0.004,2.595 c-0.027,0.909-0.057,1.849-0.007,2.496c0.032,0.416,0.106,0.467,0.115,0.472c0.036,0.02,0.172,0.021,0.236,0.021l0.998,0.008 c0.054,0.002,0.212,0.001,0.254-0.021c-0.008-0.011-0.001-0.146,0.003-0.236c0.005-0.087,0.009-0.174,0.02-0.257l0.055-0.444 c0.21-1.69,0.408-3.286,0.317-4.559c-0.02-0.276,0.188-0.516,0.463-0.535c0.271-0.026,0.515,0.188,0.535,0.463 c0.098,1.37-0.106,3.014-0.322,4.754L8.59,43.584c-0.007,0.059-0.01,0.121-0.013,0.183c-0.014,0.285-0.034,0.718-0.412,0.995 C7.895,44.962,7.574,44.975,7.362,44.975z"/><path fill="#010101" d="M40.611,44.99c-0.231,0-0.453-0.016-0.65-0.041c-0.112-0.016-0.407-0.055-0.598-0.315 c-0.132-0.188-0.141-0.388-0.145-0.482c-0.038-0.859-0.089-1.834-0.14-2.809c-0.052-0.978-0.103-1.954-0.141-2.818 c-0.013-0.276,0.201-0.51,0.477-0.521c0.3-0.034,0.51,0.201,0.521,0.477c0.039,0.861,0.09,1.836,0.141,2.811 c0.049,0.925,0.097,1.85,0.135,2.679c0.501,0.048,1.104,0.012,1.452-0.165c0.072-0.042,0.079-0.117,0.081-0.143l0.029-0.342 c0.133-1.531,0.283-3.268,0.22-4.797c-0.011-0.275,0.203-0.509,0.479-0.521c0.269,0.006,0.508,0.203,0.521,0.479 c0.065,1.593-0.088,3.362-0.224,4.925l-0.029,0.34c-0.015,0.172-0.04,0.374-0.166,0.568c-0.127,0.196-0.312,0.307-0.458,0.381 C41.69,44.912,41.128,44.99,40.611,44.99z"/><path fill="#010101" d="M43.435,32.309c-0.025,0-0.052-0.002-0.077-0.006c-6.868-1.063-14.04-0.726-20.977-0.399 c-5.735,0.27-11.664,0.549-17.429,0.041c-0.275-0.024-0.479-0.267-0.454-0.542c0.023-0.274,0.271-0.473,0.542-0.454 c5.694,0.501,11.591,0.223,17.294-0.044c6.985-0.326,14.21-0.666,21.176,0.41c0.273,0.042,0.46,0.298,0.418,0.57 C43.89,32.132,43.677,32.309,43.435,32.309z"/><path fill="#010101" d="M12.396,32.106c-0.213,0-0.41-0.137-0.478-0.351c-0.183-0.585-0.411-1.313-0.876-1.71 c-0.169-0.145-0.382-0.258-0.607-0.378c-0.191-0.102-0.382-0.203-0.56-0.326C9.18,28.866,8.743,28.167,8.32,27.49 c-0.247-0.394-0.479-0.767-0.755-1.087c-0.688-0.802-1.712-1.296-2.737-1.32c-0.276-0.007-0.495-0.236-0.488-0.512 c0.007-0.276,0.26-0.507,0.512-0.488c1.305,0.031,2.603,0.655,3.472,1.668c0.325,0.379,0.59,0.801,0.845,1.209 c0.386,0.617,0.749,1.199,1.271,1.558c0.147,0.101,0.307,0.184,0.464,0.268c0.264,0.14,0.536,0.285,0.789,0.501 c0.683,0.584,0.958,1.464,1.181,2.171c0.082,0.264-0.064,0.544-0.328,0.627C12.495,32.1,12.445,32.106,12.396,32.106z"/><rect width="4.96" height="1.625" x="6.587" y="10.813" fill="#d6e5e5"/><path fill="#010101" d="M12.366,31.782c-0.132,0-0.264-0.052-0.362-0.155c-0.19-0.2-0.183-0.517,0.018-0.707 c0.615-0.585,0.977-1.532,0.993-2.597c0.009-0.538-0.076-0.945-0.259-1.244c-0.191-0.312-0.529-0.566-1.006-0.757 c-0.67-0.267-1.401-0.344-2.107-0.217c-0.48,0.086-0.835,0.255-1.053,0.503c-0.182,0.205-0.497,0.228-0.706,0.044 c-0.207-0.183-0.227-0.498-0.044-0.706c0.371-0.421,0.918-0.698,1.627-0.825c0.893-0.157,1.81-0.065,2.654,0.273 c0.682,0.271,1.182,0.663,1.487,1.162c0.285,0.465,0.419,1.049,0.406,1.783c-0.021,1.33-0.495,2.535-1.304,3.305 C12.614,31.736,12.49,31.782,12.366,31.782z"/><path fill="#010101" d="M43.201,29.925c-0.169,0-0.334-0.086-0.428-0.241c-0.438-0.726-1.216-1.293-2.189-1.597 c-0.921-0.287-1.925-0.336-2.896-0.383l-4.84-0.23c-4.854-0.231-9.874-0.472-14.813-0.222l-0.358,0.018 c-1.261,0.058-2.83,0.13-3.823,0.735c-0.235,0.143-0.544,0.069-0.687-0.167c-0.144-0.235-0.069-0.543,0.167-0.687 c1.211-0.738,2.922-0.817,4.297-0.881l0.354-0.017c4.989-0.253,10.034-0.012,14.911,0.222l4.841,0.23 c1.034,0.049,2.103,0.101,3.145,0.426c1.208,0.377,2.185,1.1,2.748,2.034c0.143,0.237,0.067,0.544-0.169,0.687 C43.379,29.901,43.29,29.925,43.201,29.925z"/><path fill="#010101" d="M8.166,13.028c-0.492,0-1.118-0.029-1.635-0.397c-0.401-0.287-0.555-0.914-0.365-1.491 c0.199-0.605,0.675-0.964,1.373-0.952c2.03,0.029,3.172-0.011,4.38-0.054c1.077-0.039,2.174-0.067,4.035-0.077l0,0 c1.916,0.001,3.364-0.003,4.663-0.005c2.388-0.008,4.292-0.013,7.827,0.023c0.438,0.004,0.876,0.036,1.313,0.069 c0.754,0.055,1.466,0.108,2.167,0.017c0.862-0.114,2.066-0.115,2.535-0.119c0.825,0.002,1.491,0.412,2.035,1.252 c0.299,0.459,0.283,0.982-0.04,1.3c-0.271,0.265-0.624,0.267-0.813,0.268l-6.772,0.033c-3.985,0.02-6.472,0.04-8.957,0.06 c-2.487,0.021-4.975,0.04-8.962,0.061l-2.647,0.013C8.259,13.027,8.213,13.028,8.166,13.028z M7.511,11.188 c-0.186,0-0.299,0.062-0.367,0.198c-0.092,0.184-0.051,0.398-0.015,0.445c0.263,0.185,0.683,0.19,1.169,0.196l2.647-0.013 c3.986-0.02,6.472-0.04,8.958-0.06c2.487-0.021,4.974-0.04,8.96-0.061l6.773-0.033c0.008,0,0.02,0,0.033,0 c-0.004-0.008-0.009-0.016-0.014-0.023c-0.356-0.55-0.726-0.795-1.199-0.796c-0.46,0.005-1.6,0.006-2.402,0.111 c-0.803,0.104-1.6,0.045-2.371-0.012c-0.416-0.031-0.833-0.063-1.249-0.066c-3.532-0.036-5.436-0.03-7.814-0.023 c-1.299,0.002-2.734,0.006-4.668,0.005c-1.835,0.011-2.929,0.039-3.997,0.076c-1.22,0.044-2.37,0.082-4.432,0.055 C7.52,11.188,7.516,11.188,7.511,11.188z"/><path fill="#010101" d="M32.763,17.126c-0.343,0-0.686-0.014-1.098-0.029c-0.481-0.02-1.063-0.042-1.858-0.052l-4.13-0.05 c-1.71-0.021-2.362-0.153-3.661-0.42l-0.877-0.178c-0.551-0.108-1.131-0.253-1.646-0.572c-0.424-0.263-0.745-0.606-1.056-0.939 c-0.133-0.144-0.267-0.287-0.408-0.422c-1.001-0.947-2.273-1.491-3.445-1.437c-0.278-0.02-0.509-0.203-0.521-0.479 c-0.011-0.275,0.203-0.509,0.479-0.521c1.427-0.039,2.981,0.581,4.174,1.711c0.157,0.149,0.305,0.307,0.452,0.465 c0.278,0.298,0.541,0.58,0.852,0.772c0.379,0.235,0.854,0.351,1.313,0.441l0.885,0.179c1.275,0.261,1.857,0.381,3.472,0.399 l4.13,0.05c0.808,0.01,1.397,0.033,1.886,0.053c1.304,0.049,1.844,0.072,3.951-0.283c1.178-0.198,2.838-0.594,3.647-1.737 c0.645-0.912,0.655-2.166,0.615-3.269c-0.03-0.881-0.111-1.874-0.677-2.521c-0.713-0.816-2.032-0.962-3.213-1.034 c-4.755-0.292-7.109-0.252-11.392-0.179L23.131,7.1c-1.604,0.025-3.014,0.111-4.027,0.898c-0.419,0.325-0.746,0.76-1.093,1.221 c-0.191,0.255-0.384,0.509-0.593,0.749c-0.597,0.687-1.553,1.055-2.84,1.095c-0.006,0-0.011,0-0.016,0 c-0.27,0-0.491-0.214-0.5-0.484c-0.009-0.276,0.208-0.507,0.484-0.516c0.687-0.021,1.61-0.169,2.117-0.751 c0.192-0.222,0.37-0.458,0.548-0.694c0.37-0.492,0.754-1.002,1.278-1.409c1.36-1.056,3.247-1.086,4.625-1.108l1.505-0.025 C28.923,6,31.295,5.96,36.089,6.255c1.484,0.091,2.984,0.32,3.905,1.374c0.781,0.894,0.887,2.092,0.924,3.144 c0.046,1.266,0.026,2.715-0.799,3.882c-1.025,1.449-2.944,1.919-4.298,2.146C34.293,17.059,33.529,17.126,32.763,17.126z"/><path fill="#010101" d="M11.439,13.012c-0.276,0-0.5-0.224-0.5-0.5v-1.849c0-0.276,0.224-0.5,0.5-0.5s0.5,0.224,0.5,0.5 v1.849C11.939,12.788,11.716,13.012,11.439,13.012z"/><path fill="#010101" d="M22.952,10.471c0.106-0.644,0.167-1.288,0.17-1.94c0.003-0.644-0.997-0.644-1,0 c-0.003,0.562-0.043,1.119-0.134,1.675C21.884,10.835,22.848,11.106,22.952,10.471L22.952,10.471z"/><path fill="#010101" d="M22.066,12.532c-0.035,0.51-0.046,1.019-0.033,1.531c0.017,0.642,1.017,0.645,1,0 c-0.013-0.511-0.003-1.02,0.033-1.531C23.111,11.889,22.111,11.892,22.066,12.532L22.066,12.532z"/><path fill="#010101" d="M27.001,10.438c-0.002-0.585-0.001-1.17,0.003-1.755c-0.167,0.167-0.333,0.333-0.5,0.5 c0.012,0,0.024-0.001,0.035-0.001c-0.144-0.083-0.288-0.165-0.432-0.248c0.006,0.01,0.013,0.02,0.019,0.03 c0.34,0.545,1.205,0.043,0.863-0.505c-0.006-0.01-0.013-0.02-0.019-0.03c-0.091-0.146-0.254-0.254-0.432-0.248 c-0.012,0-0.024,0.001-0.035,0.001c-0.272,0.01-0.498,0.221-0.5,0.5c-0.004,0.585-0.006,1.17-0.003,1.755 C26.003,11.081,27.003,11.082,27.001,10.438L27.001,10.438z"/><path fill="#010101" d="M26.009,12.563c-0.006,0.313-0.013,0.627-0.019,0.94c-0.005,0.239-0.057,0.52,0.024,0.747 c0.086,0.238,0.346,0.448,0.615,0.349c0.008-0.003,0.015-0.006,0.023-0.008c0.274-0.101,0.397-0.328,0.349-0.615 c-0.001-0.006-0.002-0.013-0.003-0.019c-0.105-0.633-1.069-0.365-0.964,0.266c0.001,0.006,0.002,0.013,0.003,0.019 c0.116-0.205,0.233-0.41,0.349-0.615c-0.008,0.003-0.015,0.006-0.023,0.008c0.205,0.116,0.41,0.233,0.615,0.349 c-0.06-0.167,0.012-0.491,0.015-0.669c0.005-0.251,0.01-0.501,0.015-0.752C27.022,11.919,26.022,11.919,26.009,12.563 L26.009,12.563z"/><path fill="#010101" d="M31.076,10.376c-0.027-0.523-0.054-1.045-0.081-1.568c-0.211,0.161-0.422,0.321-0.633,0.482 c0.01,0.001,0.021,0.003,0.031,0.004c-0.116-0.116-0.233-0.233-0.349-0.349c0.002,0.01,0.004,0.02,0.006,0.031 c0.117,0.632,1.081,0.364,0.964-0.266C31.011,8.7,31.01,8.69,31.008,8.68c-0.028-0.151-0.194-0.327-0.349-0.349 c-0.01-0.001-0.021-0.003-0.031-0.004c-0.3-0.043-0.651,0.123-0.633,0.482c0.027,0.523,0.054,1.045,0.081,1.568 C30.109,11.016,31.109,11.02,31.076,10.376L31.076,10.376z"/><path fill="#010101" d="M29.938,12.563c-0.008,0.584,0.005,1.167,0.039,1.75c0.037,0.64,1.037,0.644,1,0 c-0.033-0.583-0.046-1.166-0.039-1.75C30.946,11.919,29.946,11.918,29.938,12.563L29.938,12.563z"/><path fill="#010101" d="M35,10.438c0-0.563,0-1.125,0-1.688c0-0.643-1-0.645-1,0c0,0.563,0,1.125,0,1.688 C34,11.081,35,11.082,35,10.438L35,10.438z"/><path fill="#010101" d="M34.008,12.655c-0.018,0.561-0.009,1.12,0.027,1.68c0.034,0.529,0.868,0.719,0.982,0.133 c0.008-0.039,0.015-0.078,0.023-0.118c0.123-0.629-0.841-0.898-0.964-0.266c-0.008,0.039-0.015,0.078-0.023,0.118 c0.327,0.044,0.655,0.089,0.982,0.133c-0.036-0.56-0.045-1.119-0.027-1.68C35.028,12.011,34.028,12.012,34.008,12.655 L34.008,12.655z"/></svg>