<svg xmlns="http://www.w3.org/2000/svg"  viewBox="0 0 48 48" width="64px" height="64px"><path fill="#73a1b2" d="M3.95,17.09c1.874-3.831,4.764-7.354,8.033-10.093c0.669-0.561,1.366-1.095,2.135-1.51 c1.629-0.88,3.498-1.184,5.332-1.432c2.44-0.33,4.924-0.583,7.356-0.201c3.201,0.502,6.161,2.093,8.659,4.156 c2.498,2.063,4.572,4.591,6.504,7.192c0.367,0.494,0.595,1.12,0.67,1.731c-0.801,0.126-1.793,0.423-2.531,0.759 c-2.572-5.534-7.894-9.778-13.859-11.069c-0.824-0.178-1.665-0.304-2.507-0.269c-0.718,0.03-1.426,0.177-2.128,0.332 c-3.113,0.685-6.251,1.559-8.905,3.324s-4.397,4.302-5.194,7.599c0.42-0.044,0.855,0.309,1.272,0.373 c0.147,0.023,0.301,0.056,0.412,0.155c0.191,0.171,0.182,0.488,0.051,0.708c-0.132,0.22-0.355,0.367-0.571,0.506 c-1.617,1.044-3.234,2.087-4.851,3.131c-0.038-0.37-0.218-0.708-0.39-1.037c-0.772-1.473-1.474-3.202-1.852-4.821 C2.309,16.727,3.233,16.956,3.95,17.09z"/><path fill="#010101" d="M3.829,22.983c-0.074,0-0.147-0.017-0.217-0.049c-0.156-0.075-0.263-0.227-0.28-0.4 c-0.028-0.269-0.174-0.547-0.329-0.842c-0.87-1.658-1.544-3.413-1.904-4.953c-0.037-0.161,0.007-0.33,0.118-0.452 c0.111-0.121,0.275-0.177,0.439-0.157c0.459,0.065,0.997,0.18,1.515,0.29c0.171,0.036,0.34,0.072,0.502,0.105 c1.835-3.616,4.66-7.123,7.989-9.912c0.576-0.482,1.349-1.097,2.219-1.566c1.693-0.915,3.646-1.236,5.502-1.487 c2.279-0.309,4.928-0.603,7.501-0.2c3.017,0.474,6.095,1.948,8.9,4.265c2.688,2.221,4.838,4.926,6.587,7.279 c0.404,0.543,0.676,1.242,0.765,1.968c0.033,0.269-0.152,0.514-0.419,0.556c-0.76,0.119-1.703,0.402-2.401,0.72 c-0.252,0.111-0.546,0.004-0.66-0.244c-2.508-5.395-7.686-9.529-13.512-10.791c-0.944-0.205-1.701-0.289-2.381-0.258 c-0.665,0.027-1.318,0.161-2.041,0.32c-2.987,0.658-6.112,1.508-8.735,3.252c-2.405,1.601-4.035,3.882-4.851,6.785 c0.112,0.04,0.219,0.087,0.32,0.131c0.153,0.066,0.297,0.129,0.408,0.146c0.215,0.033,0.462,0.092,0.669,0.276 c0.403,0.363,0.379,0.947,0.147,1.337c-0.196,0.328-0.505,0.526-0.73,0.672l-4.85,3.13C4.019,22.956,3.924,22.983,3.829,22.983z M2.267,17.252c0.365,1.271,0.927,2.65,1.614,3.962c0.082,0.155,0.166,0.316,0.24,0.486l4.287-2.768 c0.159-0.103,0.339-0.218,0.414-0.343c0.019-0.032,0.025-0.072,0.024-0.096c-0.011,0.013-0.053-0.005-0.135-0.018 c-0.239-0.037-0.46-0.133-0.654-0.218c-0.186-0.081-0.364-0.161-0.49-0.152c-0.159,0.02-0.321-0.045-0.428-0.168 c-0.107-0.122-0.148-0.289-0.11-0.446c0.823-3.403,2.641-6.061,5.402-7.898c2.761-1.836,5.993-2.718,9.075-3.396 c0.741-0.163,1.469-0.312,2.214-0.344c0.774-0.026,1.605,0.058,2.635,0.281c5.969,1.292,11.29,5.452,13.998,10.912 c0.534-0.208,1.139-0.39,1.701-0.513c-0.102-0.385-0.269-0.742-0.486-1.035c-1.713-2.305-3.815-4.952-6.421-7.104 c-2.668-2.203-5.579-3.603-8.418-4.048c-2.443-0.384-5.003-0.097-7.212,0.202c-1.837,0.249-3.614,0.541-5.162,1.377 c-0.79,0.428-1.512,1.001-2.051,1.453c-3.33,2.789-6.138,6.315-7.905,9.93c-0.099,0.201-0.316,0.313-0.541,0.271 c-0.276-0.051-0.582-0.116-0.896-0.184C2.731,17.349,2.496,17.298,2.267,17.252z"/><path fill="#73a1b2" d="M6.542,27.688c0.116,1.681,1.248,3.592,2.205,4.979c1.734,2.514,3.789,4.892,6.441,6.406 c1.836,1.048,3.89,1.644,5.931,2.194c1.654,0.445,3.343,0.87,5.055,0.798c3.588-0.15,6.692-2.417,9.55-4.591 c0.842-0.641,1.694-1.29,2.357-2.115c1.011-1.258,1.705-3.09,2.191-4.629c-0.573-0.21-1.974-0.959-2.521-1.229 c1.562-1.406,3.734-2.562,5.386-3.862c0.07-0.055,0.146-0.112,0.235-0.117c0.2-0.011,0.307,0.226,0.358,0.419 c0.634,2.408,1.075,4.215,1.709,6.622c-0.64-0.342-1.714-0.408-2.354-0.75c-1.159,2.847-3.105,5.082-5.197,7.335 c-1.931,2.079-4.147,4.001-6.82,4.951c-3.645,1.296-7.669,0.64-11.444-0.202c-1.431-0.319-2.863-0.665-4.214-1.235 c-1.768-0.746-3.353-1.856-4.923-2.958c-1.158-0.813-2.334-1.642-3.207-2.756C6.762,36.288,6.365,35.545,6,34.793 c-0.902-1.856-1.593-4.022-2.129-6.014C4.636,28.467,5.739,27.884,6.542,27.688z"/><path fill="#010101" d="M26.457,45.333c-2.39,0-4.768-0.464-6.944-0.949c-1.399-0.312-2.885-0.666-4.299-1.262 c-1.826-0.771-3.447-1.909-5.016-3.011c-1.118-0.784-2.386-1.673-3.313-2.856c-0.568-0.726-0.993-1.541-1.335-2.243 c-0.784-1.614-1.492-3.611-2.162-6.104c-0.066-0.243,0.061-0.498,0.294-0.593c0.239-0.098,0.513-0.223,0.799-0.353 c0.633-0.289,1.351-0.615,1.942-0.761c0.14-0.037,0.293-0.006,0.414,0.082c0.119,0.087,0.193,0.222,0.204,0.369 c0.084,1.224,0.796,2.814,2.116,4.729c2.077,3.009,4.071,4.996,6.278,6.255c1.774,1.013,3.762,1.593,5.813,2.146 c1.735,0.466,3.298,0.86,4.904,0.781c3.294-0.138,6.146-2.114,9.269-4.489c0.808-0.613,1.642-1.249,2.27-2.03 c0.714-0.889,1.358-2.211,1.964-4.034c-0.456-0.208-1.043-0.51-1.542-0.766c-0.233-0.12-0.438-0.226-0.583-0.297 c-0.149-0.073-0.252-0.216-0.274-0.38s0.037-0.329,0.16-0.44c0.922-0.829,2.042-1.569,3.126-2.285 c0.82-0.542,1.595-1.054,2.285-1.598c0.093-0.073,0.267-0.21,0.517-0.224c0.153-0.007,0.664,0.024,0.869,0.79 c0.317,1.207,0.587,2.262,0.855,3.316c0.269,1.053,0.537,2.105,0.854,3.308c0.051,0.192-0.018,0.396-0.174,0.52 s-0.369,0.142-0.545,0.049c-0.264-0.141-0.667-0.237-1.058-0.33c-0.267-0.063-0.539-0.128-0.795-0.212 c-1.209,2.717-3.101,4.876-5.098,7.025c-1.54,1.659-3.944,3.989-7.018,5.082C29.676,45.123,28.063,45.333,26.457,45.333z M4.467,29.066c0.62,2.236,1.27,4.041,1.982,5.508c0.318,0.655,0.713,1.413,1.223,2.063c0.836,1.066,1.987,1.874,3.101,2.655 c1.525,1.071,3.103,2.179,4.83,2.907c1.337,0.563,2.772,0.905,4.128,1.207c3.504,0.782,7.541,1.508,11.169,0.221 c2.182-0.776,4.285-2.308,6.62-4.82c2.043-2.199,3.97-4.403,5.101-7.184c0.053-0.131,0.159-0.233,0.293-0.281 c0.131-0.05,0.28-0.038,0.405,0.028c0.264,0.141,0.667,0.237,1.058,0.33c0.113,0.026,0.228,0.054,0.341,0.083 c-0.219-0.844-0.419-1.627-0.618-2.409c-0.264-1.033-0.527-2.066-0.836-3.241c-0.649,0.538-1.422,1.049-2.17,1.543 c-0.836,0.552-1.693,1.119-2.445,1.719c0.617,0.317,1.421,0.728,1.795,0.864c0.251,0.093,0.386,0.365,0.305,0.62 c-0.693,2.198-1.417,3.721-2.277,4.792c-0.704,0.876-1.588,1.549-2.443,2.199c-2.654,2.019-5.956,4.53-9.833,4.693 c-1.732,0.072-3.455-0.344-5.205-0.816c-2.116-0.569-4.172-1.17-6.049-2.241c-2.342-1.337-4.44-3.42-6.604-6.556 c-1.24-1.798-1.968-3.313-2.211-4.606c-0.395,0.147-0.829,0.346-1.229,0.528C4.748,28.939,4.604,29.005,4.467,29.066z"/><path fill="#38b47b" d="M13.553,32.482c0-3.982,3.463-7.963,4.913-8.453c1.451-0.49,1.576-0.374,3.107-0.408 c1.35-0.03,2.701-0.06,4.051-0.09c1.247-0.028,2.67,0.174,3.829,0.633c1.07,0.424,1.95,1.23,2.672,2.127 c1.456,1.809,2.188,4.002,2.386,6.316c-3.255,0.35-6.704-0.15-9.973-0.337C20.782,32.054,17.314,32.358,13.553,32.482z"/><path fill="#fcbf95" d="M24.748,12.439c-1.471-0.037-2.891-0.197-4.109,0.631c-1.209,0.822-1.741,2.362-1.812,3.823 c-0.116,2.395-0.241,4.434,1.485,6.099c0.787,0.759,1.929,1.445,3.2,1.445c1.459,0,3.449-1.716,3.821-3.188 c0.324-1.282,0.158-2.484,0.221-3.805c0.051-1.073,0.005-2.187-0.461-3.154C26.627,13.324,25.821,12.466,24.748,12.439z"/><path fill="#010101" d="M32.52,25.98c-0.91-1.13-1.85-1.87-2.88-2.28c-0.815-0.321-1.79-0.533-2.79-0.622 c0.461-0.532,0.82-1.122,0.967-1.705c0.237-0.936,0.229-1.832,0.223-2.699c-0.003-0.395-0.007-0.794,0.013-1.205 c0.047-0.991,0.032-2.272-0.51-3.394c-0.64-1.329-1.654-2.107-2.782-2.136l-0.491-0.016c-1.327-0.047-2.697-0.094-3.911,0.733 c-1.2,0.815-1.94,2.351-2.034,4.305c-0.112,2.284-0.202,4.44,1.482,6.209c-0.391,0.044-0.811,0.148-1.496,0.389 c-1.76,0.59-5.26,4.86-5.26,8.92c0,0.14,0.06,0.27,0.16,0.36c0.09,0.1,0.21,0.13,0.36,0.14c1-0.03,1.98-0.08,2.95-0.12 c2.7-0.13,5.26-0.25,7.99-0.09c0.86,0.05,1.73,0.12,2.6,0.19c1.63,0.13,3.3,0.27,4.95,0.27c0.84,0,1.68-0.04,2.51-0.13 c0.26-0.02,0.46-0.26,0.44-0.53C34.79,29.98,33.95,27.76,32.52,25.98z M19.327,16.917c0.075-1.544,0.655-2.796,1.594-3.434 c0.711-0.483,1.509-0.581,2.402-0.581c0.293,0,0.597,0.01,0.911,0.021l0.501,0.016c1.052,0.025,1.684,1.106,1.907,1.57 c0.441,0.913,0.456,1.984,0.412,2.912c-0.021,0.43-0.018,0.848-0.015,1.26c0.007,0.841,0.014,1.635-0.191,2.445 c-0.326,1.287-2.134,2.811-3.336,2.811c-1.354,0-2.446-0.913-2.853-1.305C19.12,21.146,19.21,19.321,19.327,16.917z M27.19,31.96 c-0.88-0.07-1.76-0.14-2.62-0.19c-0.96-0.05-1.88-0.08-2.8-0.08c-1.77,0-3.5,0.08-5.3,0.17c-0.79,0.04-1.59,0.07-2.4,0.1 c0.29-3.65,3.47-7.09,4.56-7.46c1.09-0.37,1.35-0.37,2.2-0.37c0.036,0,0.079,0,0.117,0c0.667,0.429,1.543,0.808,2.566,0.808 c0.725,0,1.551-0.363,2.294-0.904c1.227-0.016,2.478,0.204,3.463,0.597c0.87,0.34,1.67,0.99,2.47,1.97 c1.21,1.52,1.96,3.38,2.22,5.56C31.75,32.33,29.44,32.14,27.19,31.96z"/></svg>