<svg xmlns="http://www.w3.org/2000/svg"  viewBox="0 0 512 512" width="64px" height="64px"><path fill="#D6E7E7" d="M304.1 290.5c-1.3-5.1-2.5-10.5-1.6-15.7-2.7-.2-7.3.4-9.3.6-4.9.5-9.8 1.1-14.7 1.4-10.4.5-20.9.9-31.3 1.1-.1.9-.5 1.7-1 2.4 0 .1 0 .1 0 .2.1.6.1 1.2.3 1.8.2 1.2.6 2.5.9 3.7.7 2.5 1.5 5.1 2.3 7.6 2.3 7.8 3.3 16 5.1 24 15.9-.9 31.8-2.2 47.6-4.2 1.3-1.4 3.2-2.2 5.1-1.6C306.8 304.6 305.9 297.7 304.1 290.5zM166.6 278.2c-17.1-.2-34.3-.4-51.4-.4 0 1.5.1 3 .2 4.4.4 3.8 1.1 7.5 1.8 11.3 1.4 7.1 2.5 14.1 3.4 21.3 17.4-.4 34.7.9 52.1 2.1C170.2 304 166.9 291.3 166.6 278.2zM310.8 356.5c-.6-4.4-.7-9-.8-13.4-.1-6.5-.9-12.9-1.6-19.3-16.9 2.2-34 3.8-51.1 4.8 1.6 7.1 2.9 14.2 3.8 21.5.3 2.7.5 5.3 1.1 7.9.2 1 .5 2 .7 3 .3.2.5.5.8.8 11.7-2.4 24.2-1.7 35.8 1.5 3.4.9 6.6 2.2 9.7 3.7.6-1.4 1.7-2.5 3.2-2.9C312 361.5 311.1 359 310.8 356.5zM242.9 315.1c-1.2-5.6-1.8-11.6-3.4-17.1-.9-3.1-2-6.2-2.8-9.3-.8-3.1-1.7-7.1-1.3-10.4-3.9.1-7.7.1-11.6.1-15.4.1-30.8 0-46.3-.1.5 13.3 3.9 26.3 6.4 39.4 10.5.7 21 1.2 31.5 1.2 9.4 0 18.8-.3 28.2-.6C243.4 317.1 243.2 316.1 242.9 315.1zM166.6 94.8c-10.2.3-20.3 1.5-30.4 1.8 1.9 5.4 2.7 11.1 4.6 16.6 8.9-.2 17.8-.3 26.8-.5C167.5 106.8 166.8 100.8 166.6 94.8z"/><path fill="#3AB37C" d="M369.9,424.1c-8.8-11.4-27.7-10.2-40.5-9.3c-2.3,0.2-5-1.3-5.6-3.7c-2.1-8.2-4-17.2-8.7-24.4c-4.6-7-11-11.1-19.2-13c-18.5-4.5-39.9-3.1-53.8,11.2c-3.6,3.7-8.7,1.4-9.6-3.2c-5.3-25.3-31.7-29.7-53.7-29c-12.1,0.3-24.2,3.4-32.7,12.7c-7.9,8.7-11.6,19.9-11.7,31.5c0,3.9-4,7.6-7.9,5.4c-10.2-5.8-23.7-10.4-35.3-6.3c-9.8,3.5-13.9,16.4-6.6,24.2c3,3.2,2,9.5-3.2,9.6c-6.3,0.1-19.5,2.3-15.2,11.7c1.7,3.7,6,3.8,9.5,4.6c1.5,0.4,2.9,0.8,4.3,1.4c1.4,0,2.7,0.2,3.8,0.3c14.5,0.8,29.5,0.2,44-0.8c16.1-1.1,32.6-0.1,48.8-0.4c32.6-0.6,65.2-2.3,97.8-2.9c14.6-0.3,29.4-1.5,43.9-0.8c11.5,0.5,23.2,2.3,34.6,0.9C361.8,442.6,378.9,435.7,369.9,424.1z"/><path fill="#D6E7E7" d="M175.5 340.7c-.1-4.3-.4-8.6-1-12.8-17.5-1.2-35.1-2.6-52.6-2.2.8 7.9 1.4 15.7 1.5 23.7 0 5.1.1 10.2 1.9 15 .8 2.3 4.1 1.8 6.6 1.5 1.9-3.1 4.2-6.1 6.9-8.7 10.1-9.9 23-14.7 36.9-15.4C175.6 341.5 175.5 341.1 175.5 340.7zM250.3 352.8c-.9-8.1-2.5-15.9-4.3-23.7-10.5.4-21.1.7-31.6.6-9.6 0-19.2-.5-28.7-1.1.5 3.7.8 7.4.8 11.2 0 .7-.1 1.3-.3 1.8 11.4.2 23.1 1.7 33.3 6.8 10.3 5.1 17.2 13.1 21.2 23.2 3.6-2.6 7.6-4.8 11.7-6.5C251 361.2 250.7 356.4 250.3 352.8z"/><path fill="#EF4823" d="M479.7,227.5c-0.8-2.2-1.6-4.4-2.5-6.5c-1.9-4.6-4-9.2-5.6-13.8c-5.5-15.5-8.1-31.8-13.1-47.4c-1.8-5.6-3.7-10.8-6.7-15.8c-2.5-4.1-4.9-8.3-7.2-12.6c-1.5-2.9-4.1-7.2-5.2-11.5c-4.5-0.6-9.1-0.3-13.7-0.8c-7-0.7-14.2-0.2-21.3-0.2c-15.2,0-30.4,0-45.6,0.2c-30.4,0.4-60.8,1.1-91.2,2c-58.9,1.7-117.7,3.6-176.6,3.8c-1.5,8.1-6.2,14.6-10.4,21.8c-5.5,9.4-11.3,18.3-15.7,28.3c-7.9,17.7-14.1,36.2-22.4,53.8c15.6-0.2,31.2,0.6,46.8,1.3c32.5,1.4,64.8,0.3,97.3-0.6c32.8-0.9,65.6-0.5,98.4,0c32.9,0.5,65.9,1.1,98.8,1.4c32.1,0.2,64.2-0.8,96.3-0.9c0-0.3,0-0.5,0.1-0.8C480,228.5,479.8,228,479.7,227.5z"/><path fill="#D6E7E7" d="M480.2,229c0.1,0.3,0.2,0.5,0.2,0.8h0c1-1.8,3-3.2,5.6-2.9C481.9,226.4,480.5,227.7,480.2,229z"/><path fill="#127274" d="M441.9,420.6c-0.6-4.6-1.4-9.1-1.4-13.7c0-9.4,0.1-18.8,0-28.2c-0.1-16.9-3.3-33.6-6.2-50.2c-9.3-0.4-18.5,0.3-27.8,0.3h-17c0.8,32.5,8.8,64.5,8.9,97.1c0,1.1-0.3,2-0.7,2.8c13.6-0.2,27.3-0.6,40.9-1.8c1.3-0.1,2.7-0.2,4-0.4C442.3,424.6,442.2,422.5,441.9,420.6z M409.1,386.9c-0.9,1-2.3,1.9-3.7,1.9h-2c-1.5,0-2.9-0.3-4.1-1.4c-1.1-0.9-1.7-2.3-1.9-3.7c-0.1-1.5,0.4-3,1.4-4.1c0.9-1,2.3-1.9,3.7-1.9h2c1.5,0,2.9,0.3,4.1,1.4c1.1,0.9,1.7,2.3,1.9,3.7C410.6,384.3,410.1,385.8,409.1,386.9z"/><path fill="#F6851F" d="M464.5,390.7c-0.1-18.5-0.6-36.9-1.4-55.4c-1.3-31.4-2.9-62.9-3.4-94.3c-10.6,0.2-21.2,0.4-31.7,0.6c-65.8,1-131.7-1.7-197.6-1.8c-32.4-0.1-64.8,1.6-97.2,1.9c-25.5,0.3-51-1.7-76.5-2.1c0,0.2,0,0.5,0.1,0.7c0.6,6.4,1.5,12.8,2.4,19.2c3.2,21.4,3.1,43.3,4.2,64.9c1.1,21.3,3.3,43,1.9,64.3c-0.4,6.4-1.1,12.9-0.9,19.3c0.1,2.8,0.1,5.8,1,8.6c0.1,0.4,0.3,0.9,0.4,1.3c1.8-0.1,3.6,0.6,4.8,2.2c0.5-0.1,0.9-0.2,1.4-0.4c-4.3-10.9-1-23.7,9.6-31.1c12.3-8.5,29.1-5.9,42.6-0.1c0.5-4,1.4-7.9,2.7-11.8c-2.3-0.1-4.5-0.5-6.7-1.7c-4.8-2.7-6.4-9.2-7.1-14.3c-0.9-5.9-0.7-11.9-0.6-17.8c0.1-7.1-1.2-14.3-2.1-21.3c-1.3-10.1-2.8-19.9-4.7-29.9c-1.1-6.1-4.2-17.4,1.1-22.4c0.6-0.6,1.3-1,2-1.2c0.8-1,2-1.6,3.8-1.6c38.8,0,77.5,1,116.3,0.5c17.8-0.2,36,0,53.7-1.7c5.5-0.6,11.1-1.5,16.7-1.6c4.1,0,9.3-0.1,12.4,3.1c0.3,0.3,0.6,0.7,0.8,1c1.8,1.4,2.8,3.8,1.5,6.5c-2.9,5.8,1.4,14.4,2.6,20.2c1.8,8.1,1.7,16.4,2.4,24.7c0.4,4.7,1.4,9.4,1.7,14.2c0.3,4.5,0.2,9.1,0.5,13.6c0.4,7.6,3.3,15.4,2.3,22.9c-0.2,1.8-1.8,3.6-3.6,4.1c-0.1,0-0.2,0-0.2,0.1c1.5,1.5,2.8,3.2,4,5.1c4.7,7.3,7.4,15.6,9.6,23.9c15.7-0.8,34.9,0.2,45,13.3c2.8,3.6,4.4,7.8,4.7,12c1.7,0,3.3,0,5,0c-0.2-0.6-0.4-1.3-0.4-2.1c-0.2-33.9-8.9-67.1-9-101c0-1.5,0.5-2.7,1.3-3.7c0.3-2.3,1.8-4.3,4.9-4.3c18.4,0,37.1-1.4,55.4,0.1c2.6,0.2,4.1,2.7,4.4,5c3,17.6,6.9,35.3,7,53.2c0.1,9.4,0,18.7,0,28.1c0,4.2,0.5,8.1,1,12.2c0.2,2.1,1,4.4,1,6.5c0,0.5,0.2,1.5,0.3,2c0.1,0.3,0.2,0.5,0.3,0.8c2.3-0.1,4.6-0.2,6.9-0.1c1.2,0,2.5,0,3.8,0C462.8,414.3,464.6,402.1,464.5,390.7z"/><path d="M487.6,217.3c-5.1-12.5-9.1-24.8-12.4-37.9c-3.5-14.2-6.7-29.1-14.4-41.8c-2.5-4.1-4.9-8.3-7.2-12.6c-1-1.9-1.9-3.9-2.8-5.9c-0.3-0.7-0.5-1.4-0.8-2.2c0.3-0.7,0.4-1.4,0.3-2.2c0-0.4-0.1-0.7-0.1-1.1c-0.2-1.2-0.7-2.3-1.4-3.1c-0.4-0.5-0.8-1-1.3-1.5c-2.2-2.3-4.9-1.9-6.7-0.3c-3.8-0.5-7.8-0.5-11.6-0.6c-7.2-0.2-14.5-0.5-21.7-0.5c-15.2,0-30.4,0-45.6,0.2c-30.4,0.3-60.8,1.1-91.2,1.9c-30.8,0.9-61.5,1.8-92.3,2.6c0-0.1,0-0.2,0-0.4v-2.2c0-0.3,0-0.6-0.1-0.9c-0.2-5.7-0.9-11.4-0.9-17.1c0-2.8-1.7-4.3-3.7-4.8c-0.8-1.9-2.6-3.3-5.2-3.3c-12.4,0.1-24.6,1.9-37,2c-2.7,0-4.2,1.6-4.7,3.6c-2.6,1.4-4.4,4.7-2.4,8c2.9,4.8,3.6,10.6,4.9,16.1c-14.6,0.2-29.2,0.3-43.8,0.3c-3.9,0-5.4,3.3-4.8,6.3c-0.2,0.5-0.3,1-0.3,1.6c-0.4,7.8-7.3,16.3-11.4,22.6c-5.8,8.7-10.6,17.9-14.8,27.4C46.1,189.9,39.9,209.1,31,227c-1.5,0.9-2.5,2.5-2.5,4.7v2c0,2.1,1.1,3.6,2.7,4.3c1,1.1,2.4,1.8,4.2,1.7c3.4-0.1,6.8-0.2,10.2-0.2c0.4,5.9,1.2,11.8,2.1,17.6c3.4,23.2,3.6,46.7,4.8,70c1.1,22.2,3,44.7,1.4,67c-0.5,7.6-1.1,15.4,0.3,22.9c0.6,3.1,2,7,4.3,9.9c-2.4,2.7-4,6.1-4.1,10.4c-0.1,6.3,2.7,12.8,8.3,16c2.5,1.4,5.2,2.2,8,2.8c0.4,0.1,1.1,0.1,1.8,0.3c0.7,1,1.6,2,2.9,2.7c1.6,0.9,3,0.9,4.3,0.4c1.2,0,2.3-0.4,3.3-1c1.8,0.1,3.5,0.2,5.3,0.2c8.4,0,16.8,0,25.2-0.2c16.1-0.4,32.1-0.7,48.1-0.9c32.6-0.2,65.2-2.3,97.8-2.8c16.3-0.3,32.6-0.5,48.9-1c11.5-0.4,22.8,1.1,34.3,1.3c10.9,0.2,22.4-1.1,31.5-7.7c2.9-2.1,5.1-4.8,6.6-7.7c18.5,0,37.3,0,55.7-1.6c6.7-0.6,13.4-1.2,20.1-1.5c2.9-0.1,5.7-0.2,8.6,0c1.3,0.1,2.5,0.3,3.8,0.5c0.3,0.1,0.4,0.1,0.5,0.1c0,0-0.1,0,0,0.2c4.5,4.8,11.1-2,8.1-7.1v-2.4c0-1.8-0.7-3.1-1.8-3.9c-2.3-11.5-0.1-24.6-0.2-36c-0.1-18.5-0.7-36.9-1.5-55.4c-1.2-30.5-2.8-61.1-3.3-91.7c3.9,0,7.8-0.1,11.8-0.1c2.5,0,4-1.4,4.6-3.2C495.2,236.1,489.7,222.5,487.6,217.3z M166.6,94.8c0.2,6,0.9,11.9,0.9,17.9c-8.9,0.2-17.8,0.4-26.8,0.5c-2-5.4-2.7-11.2-4.6-16.6C146.3,96.3,156.4,95.1,166.6,94.8z M352.9,443.7c-11.5,1.4-23.2-0.3-34.6-0.9c-14.6-0.7-29.3,0.5-43.9,0.8c-32.6,0.6-65.2,2.3-97.8,2.9c-16.2,0.3-32.6-0.7-48.8,0.4c-14.5,1-29.5,1.6-44,0.8c-1.1-0.1-2.4-0.2-3.8-0.3c-1.3-0.6-2.7-1.1-4.3-1.4c-3.5-0.8-7.8-0.9-9.5-4.6c-4.3-9.4,8.9-11.6,15.2-11.7c5.2-0.1,6.2-6.4,3.2-9.6c-7.3-7.8-3.2-20.7,6.6-24.2c11.6-4.1,25.1,0.5,35.3,6.3c3.9,2.2,7.9-1.5,7.9-5.4c0.1-11.6,3.7-22.8,11.7-31.5c8.4-9.2,20.6-12.3,32.7-12.7c22-0.6,48.4,3.7,53.7,29c1,4.6,6,6.9,9.6,3.2c13.9-14.4,35.3-15.7,53.8-11.2c8.1,2,14.6,6,19.2,13c4.7,7.2,6.6,16.2,8.7,24.4c0.6,2.4,3.3,3.8,5.6,3.7c12.8-0.9,31.7-2.1,40.5,9.3C378.9,435.7,361.8,442.6,352.9,443.7z M174.5,327.9c0.6,4.2,1,8.5,1,12.8c0,0.4,0,0.8,0.1,1.1c-13.9,0.8-26.8,5.5-36.9,15.4c-2.7,2.6-5,5.6-6.9,8.7c-2.6,0.3-5.8,0.8-6.6-1.5c-1.7-4.8-1.8-10-1.9-15c0-8-0.6-15.8-1.5-23.7C139.4,325.3,157,326.7,174.5,327.9z M120.6,314.8c-0.9-7.2-2-14.2-3.4-21.3c-0.7-3.7-1.4-7.5-1.8-11.3c-0.2-1.5-0.2-2.9-0.2-4.4c17.1,0,34.3,0.2,51.4,0.4c0.4,13.1,3.6,25.9,6.1,38.7C155.3,315.6,138,314.4,120.6,314.8z M236.7,288.7c0.8,3.1,1.9,6.2,2.8,9.3c1.7,5.5,2.2,11.5,3.4,17.1c0.2,1,0.4,2,0.7,3.1c-9.4,0.4-18.8,0.6-28.2,0.6c-10.5,0-21-0.5-31.5-1.2c-2.5-13.1-5.9-26.1-6.4-39.4c15.4,0.1,30.8,0.2,46.3,0.1c3.9,0,7.7-0.1,11.6-0.1C235,281.6,235.9,285.6,236.7,288.7z M304.1,290.5c1.8,7.2,2.8,14,3.3,21.3c-1.9-0.5-3.8,0.2-5.1,1.6c-15.8,2-31.7,3.3-47.6,4.2c-1.8-8-2.7-16.2-5.1-24c-0.8-2.5-1.6-5-2.3-7.6c-0.3-1.2-0.7-2.5-0.9-3.7c-0.1-0.6-0.2-1.2-0.3-1.8c0-0.1,0-0.1,0-0.2c0.5-0.7,0.8-1.6,1-2.4c10.4-0.2,20.9-0.6,31.3-1.1c4.9-0.3,9.8-0.9,14.7-1.4c2-0.2,6.6-0.9,9.3-0.6C301.6,280,302.8,285.4,304.1,290.5z M308.4,323.8c0.7,6.4,1.5,12.8,1.6,19.3c0.1,4.5,0.2,9,0.8,13.4c0.3,2.5,1.2,5,1.6,7.5c-1.5,0.5-2.6,1.6-3.2,2.9c-3.1-1.6-6.3-2.8-9.7-3.7c-11.6-3.2-24.1-3.9-35.8-1.5c-0.2-0.3-0.5-0.6-0.8-0.8c-0.3-1-0.5-2-0.7-3c-0.6-2.6-0.8-5.3-1.1-7.9c-0.8-7.3-2.2-14.4-3.8-21.5C274.4,327.6,291.4,326,308.4,323.8z M250.3,352.8c0.4,3.7,0.7,8.4,2.1,12.4c-4.1,1.7-8,3.8-11.7,6.5c-4-10-10.9-18-21.2-23.2c-10.2-5.1-21.9-6.6-33.3-6.8c0.2-0.6,0.3-1.2,0.3-1.8c0-3.8-0.4-7.5-0.8-11.2c9.6,0.6,19.2,1.1,28.7,1.1c10.5,0,21.1-0.2,31.6-0.6C247.8,336.9,249.4,344.7,250.3,352.8z M438.6,426.9c-13.5,1.2-27.2,1.6-40.9,1.8c0.4-0.8,0.7-1.7,0.7-2.8c-0.2-32.6-8.2-64.5-8.9-97.1h17c9.3,0,18.5-0.7,27.8-0.3c2.9,16.6,6.1,33.3,6.2,50.2c0.1,9.4,0,18.8,0,28.2c0,4.6,0.8,9.1,1.4,13.7c0.3,2,0.4,4,0.7,6C441.3,426.7,440,426.8,438.6,426.9z M461,425.6c-2.3,0-4.6,0-6.9,0.1c-0.1-0.3-0.2-0.5-0.3-0.8c0-0.5-0.3-1.6-0.3-2c0-2.1-0.8-4.4-1-6.5c-0.5-4.2-1-8-1-12.2c0-9.4,0.1-18.7,0-28.1c-0.1-17.9-4-35.6-7-53.2c-0.4-2.2-1.9-4.8-4.4-5c-18.3-1.5-37-0.1-55.4-0.1c-3,0-4.6,2-4.9,4.3c-0.8,0.9-1.3,2.1-1.3,3.7c0.1,33.9,8.8,67.1,9,101c0,0.8,0.1,1.5,0.4,2.1c-1.7,0-3.3,0-5,0c-0.3-4.2-1.9-8.4-4.7-12c-10.1-13.1-29.3-14.1-45-13.3c-2.2-8.3-4.8-16.6-9.6-23.9c-1.2-1.9-2.6-3.5-4-5.1c0.1,0,0.2,0,0.2-0.1c1.7-0.6,3.3-2.3,3.6-4.1c1-7.6-1.9-15.3-2.3-22.9c-0.2-4.5-0.2-9.1-0.5-13.6c-0.3-4.8-1.3-9.4-1.7-14.2c-0.7-8.2-0.7-16.5-2.4-24.7c-1.3-5.9-5.5-14.4-2.6-20.2c1.3-2.7,0.3-5.1-1.5-6.5c-0.2-0.4-0.5-0.7-0.8-1c-3-3.2-8.3-3.2-12.4-3.1c-5.6,0.1-11.1,1-16.7,1.6c-17.7,1.8-35.9,1.5-53.7,1.7c-38.8,0.4-77.5-0.5-116.3-0.5c-1.7,0-3,0.6-3.8,1.6c-0.7,0.3-1.3,0.7-2,1.2c-5.3,5-2.2,16.3-1.1,22.4c1.8,10,3.4,19.8,4.7,29.9c0.9,7,2.2,14.2,2.1,21.3c-0.1,6-0.3,11.9,0.6,17.8c0.7,5.1,2.3,11.5,7.1,14.3c2.1,1.2,4.4,1.6,6.7,1.7c-1.3,3.8-2.1,7.8-2.7,11.8c-13.5-5.8-30.4-8.4-42.6,0.1c-10.7,7.4-14,20.2-9.6,31.1c-0.5,0.1-0.9,0.2-1.4,0.4c-1.1-1.7-3-2.4-4.8-2.2c-0.2-0.4-0.3-0.9-0.4-1.3c-0.8-2.7-0.9-5.7-1-8.6c-0.2-6.5,0.5-12.9,0.9-19.3c1.4-21.3-0.9-43.1-1.9-64.3c-1.1-21.6-1-43.5-4.2-64.9c-1-6.4-1.8-12.8-2.4-19.2c0-0.2,0-0.5-0.1-0.7c25.5,0.4,51,2.3,76.5,2.1c32.4-0.4,64.8-2,97.2-1.9c65.8,0.1,131.7,2.8,197.6,1.8c10.6-0.2,21.2-0.4,31.7-0.6c0.5,31.5,2.2,62.9,3.4,94.3c0.7,18.5,1.3,36.9,1.4,55.4c0.1,11.4-1.7,23.5,0.3,34.9C463.5,425.6,462.2,425.6,461,425.6z M480.4,229.8L480.4,229.8c-0.1-0.3-0.2-0.5-0.3-0.8c-0.1,0.3-0.1,0.5-0.1,0.8c-32.1,0.1-64.2,1.1-96.3,0.9c-32.9-0.2-65.9-0.9-98.8-1.4c-32.8-0.5-65.6-0.8-98.4,0c-32.5,0.9-64.8,2-97.3,0.6c-15.6-0.7-31.2-1.4-46.8-1.3c8.3-17.5,14.5-36,22.4-53.8c4.5-10,10.2-18.9,15.7-28.3c4.2-7.2,8.9-13.7,10.4-21.8c58.9-0.1,117.7-2.1,176.6-3.8c30.4-0.9,60.8-1.6,91.2-2c15.2-0.2,30.4-0.2,45.6-0.2c7,0,14.3-0.4,21.3,0.2c4.6,0.4,9.2,0.2,13.7,0.8c1.1,4.2,3.7,8.6,5.2,11.5c2.2,4.3,4.7,8.5,7.2,12.6c3,5,4.9,10.3,6.7,15.8c5.1,15.6,7.6,32,13.1,47.4c1.7,4.7,3.7,9.2,5.6,13.8c0.9,2.1,1.7,4.3,2.5,6.5c0.2,0.5,0.3,1,0.5,1.5c0.3-1.3,1.8-2.6,5.9-2.1C483.4,226.6,481.5,228,480.4,229.8z"/><path d="M408.6,379.2c-1.2-1-2.5-1.4-4.1-1.4h-2c-1.4,0-2.8,0.9-3.7,1.9c-1,1.1-1.5,2.6-1.4,4.1c0.1,1.4,0.8,2.8,1.9,3.7c1.2,1,2.5,1.4,4.1,1.4h2c1.4,0,2.8-0.9,3.7-1.9c1-1.1,1.5-2.6,1.4-4.1C410.4,381.4,409.7,380.1,408.6,379.2z"/></svg>