<svg xmlns="http://www.w3.org/2000/svg"  viewBox="0 0 100 100" width="500px" height="500px"><g><path fill="#c7ede6" d="M88.544,56.005c0.3-0.616,0.566-1.264,0.796-1.943c2.633-7.77-1.349-17.078-9.733-19.325C78.7,23.354,70.7,15.545,61.666,14.212C51.325,12.687,41.851,19.257,38.7,29.698c-3.799-1.346-7.501-1.182-10.99,0.857c-1.583,0.732-3.031,1.812-4.33,3.233c-1.907,2.086-3.147,4.719-3.652,7.495c-0.748,0.118-1.483,0.236-2.176,0.484c-4.04,1.449-6.589,4.431-7.288,8.923c-0.435,2.797,0.443,5.587,0.933,6.714c1.935,4.455,6.422,6.98,10.981,6.312c0.227-0.033,0.557,0.069,0.752,0.233c0.241,7.12,3.698,13.417,8.884,17.014c8.321,5.772,19.027,3.994,25.781-3.921c2.894,2.96,6.338,4.398,10.384,3.876c4.023-0.519,7.147-2.739,9.426-6.349c1.053,0.283,2.051,0.691,3.083,0.804c4.042,0.442,7.324-1.165,9.732-4.8c0.922-1.391,1.794-3.194,1.794-6.354C92.014,60.962,90.721,57.995,88.544,56.005z"/><path fill="#fdfcef" d="M73.808,49.175c0,0,11.691,0,11.762,0c2.7,0,4.888-2.189,4.888-4.889c0-2.355-1.666-4.321-3.884-4.784c0.026-0.206,0.043-0.415,0.043-0.628c0-2.796-2.267-5.063-5.063-5.063c-1.651,0-3.113,0.794-4.037,2.017c-0.236-3.113-3.017-5.514-6.27-5.116c-2.379,0.291-4.346,2.13-4.784,4.486c-0.14,0.756-0.126,1.489,0.014,2.177c-0.638-0.687-1.546-1.119-2.557-1.119c-1.85,0-3.361,1.441-3.48,3.261c-0.84-0.186-1.754-0.174-2.717,0.188c-1.84,0.691-3.15,2.423-3.227,4.387c-0.109,2.789,2.12,5.085,4.885,5.085c0.21,0,0.948,0,1.118,0h10.151"/><path fill="#472b29" d="M85.57,49.675H73.808c-0.276,0-0.5-0.224-0.5-0.5s0.224-0.5,0.5-0.5H85.57c2.42,0,4.389-1.969,4.389-4.389c0-2.067-1.466-3.873-3.486-4.295c-0.254-0.053-0.426-0.292-0.394-0.55c0.022-0.186,0.039-0.375,0.039-0.567c0-2.516-2.047-4.563-4.563-4.563c-1.438,0-2.765,0.663-3.639,1.818c-0.125,0.166-0.342,0.237-0.539,0.178c-0.2-0.059-0.342-0.234-0.358-0.441c-0.104-1.377-0.778-2.671-1.85-3.549c-1.083-0.887-2.452-1.279-3.86-1.109c-2.165,0.265-3.955,1.943-4.353,4.081c-0.124,0.667-0.12,1.335,0.013,1.986c0.044,0.22-0.062,0.442-0.262,0.544c-0.197,0.103-0.442,0.061-0.595-0.104c-0.574-0.619-1.353-0.959-2.19-0.959c-1.568,0-2.878,1.227-2.981,2.793c-0.01,0.146-0.082,0.28-0.199,0.367c-0.116,0.087-0.27,0.119-0.407,0.088c-0.847-0.188-1.64-0.131-2.433,0.167c-1.669,0.626-2.836,2.209-2.903,3.938c-0.047,1.207,0.387,2.35,1.222,3.218c0.835,0.869,1.959,1.347,3.163,1.347h11.269c0.276,0,0.5,0.224,0.5,0.5s-0.224,0.5-0.5,0.5H59.382c-1.479,0-2.858-0.587-3.884-1.653s-1.559-2.469-1.501-3.951c0.084-2.126,1.511-4.069,3.552-4.836c0.8-0.301,1.627-0.401,2.467-0.298c0.378-1.823,1.998-3.182,3.905-3.182c0.685,0,1.354,0.179,1.944,0.51c-0.001-0.386,0.035-0.773,0.107-1.159c0.476-2.562,2.619-4.573,5.214-4.891c1.687-0.207,3.32,0.266,4.615,1.328c1.004,0.823,1.717,1.951,2.038,3.193c1.013-0.916,2.319-1.425,3.714-1.425c3.067,0,5.563,2.496,5.563,5.563c0,0.083-0.002,0.166-0.007,0.249c2.254,0.672,3.848,2.777,3.848,5.164C90.959,47.257,88.542,49.675,85.57,49.675z"/><path fill="#fdfcef" d="M70.975,38.406c-1.808-0.119-3.365,1.13-3.476,2.789c-0.014,0.206-0.005,0.409,0.025,0.606c-0.349-0.394-0.865-0.661-1.458-0.7c-1.085-0.071-2.022,0.645-2.158,1.62c-0.197-0.054-0.403-0.09-0.616-0.104c-1.582-0.104-2.944,0.989-3.042,2.441"/><path fill="#472b29" d="M60.25,45.307c-0.006,0-0.011,0-0.017,0c-0.138-0.009-0.242-0.128-0.232-0.266c0.106-1.586,1.569-2.778,3.308-2.674c0.135,0.009,0.271,0.027,0.409,0.053c0.273-0.968,1.252-1.642,2.365-1.568c0.426,0.028,0.824,0.161,1.163,0.382c0.001-0.019,0.002-0.037,0.004-0.055c0.119-1.794,1.798-3.141,3.742-3.022c0.138,0.009,0.242,0.128,0.232,0.266c-0.008,0.137-0.096,0.253-0.266,0.233c-1.659-0.102-3.108,1.038-3.211,2.557c-0.012,0.186-0.004,0.372,0.023,0.551c0.017,0.11-0.041,0.217-0.141,0.265c-0.102,0.046-0.221,0.022-0.294-0.061c-0.317-0.358-0.786-0.583-1.287-0.616c-0.956-0.058-1.775,0.555-1.893,1.405c-0.011,0.071-0.051,0.134-0.11,0.174s-0.132,0.053-0.203,0.033c-0.193-0.052-0.379-0.083-0.568-0.096c-1.445-0.097-2.688,0.896-2.776,2.208C60.49,45.206,60.381,45.307,60.25,45.307z"/><path fill="#fdfcef" d="M87.549,40.075c-1.699-0.801-3.664-0.234-4.389,1.267c-0.09,0.186-0.157,0.379-0.201,0.574"/><path fill="#472b29" d="M82.96,42.165c-0.018,0-0.036-0.002-0.055-0.006c-0.135-0.03-0.22-0.164-0.189-0.299c0.049-0.216,0.123-0.428,0.221-0.627c0.782-1.621,2.898-2.243,4.72-1.383c0.125,0.059,0.179,0.208,0.12,0.333c-0.06,0.126-0.211,0.178-0.333,0.12c-1.575-0.743-3.394-0.226-4.057,1.149c-0.081,0.166-0.143,0.34-0.183,0.52C83.177,42.086,83.074,42.165,82.96,42.165z"/><path fill="#fff" d="M18.209 48.041H8.178c-.276 0-.5-.224-.5-.5s.224-.5.5-.5h10.03c.276 0 .5.224.5.5S18.485 48.041 18.209 48.041zM21.09 48.041h-1.445c-.276 0-.5-.224-.5-.5s.224-.5.5-.5h1.445c.276 0 .5.224.5.5S21.366 48.041 21.09 48.041zM25.144 48.041h-2.546c-.276 0-.5-.224-.5-.5s.224-.5.5-.5h2.546c.276 0 .5.224.5.5S25.421 48.041 25.144 48.041zM25.144 49.906h-9.616c-.276 0-.5-.224-.5-.5s.224-.5.5-.5h9.616c.276 0 .5.224.5.5S25.421 49.906 25.144 49.906zM13.797 49.906h-.58c-.276 0-.5-.224-.5-.5s.224-.5.5-.5h.58c.276 0 .5.224.5.5S14.073 49.906 13.797 49.906zM11.42 49.906H9.964c-.276 0-.5-.224-.5-.5s.224-.5.5-.5h1.456c.276 0 .5.224.5.5S11.696 49.906 11.42 49.906zM20.555 46.176h-5.027c-.276 0-.5-.224-.5-.5s.224-.5.5-.5h5.027c.276 0 .5.224.5.5S20.832 46.176 20.555 46.176zM20.555 44.312h-1.257c-.276 0-.5-.224-.5-.5s.224-.5.5-.5h1.257c.276 0 .5.224.5.5S20.832 44.312 20.555 44.312zM17.287 51.771h-1.759c-.276 0-.5-.224-.5-.5s.224-.5.5-.5h1.759c.276 0 .5.224.5.5S17.563 51.771 17.287 51.771z"/><g><path fill="#fff" d="M71.386 21.764h-10.03c-.276 0-.5-.224-.5-.5s.224-.5.5-.5h10.03c.276 0 .5.224.5.5S71.663 21.764 71.386 21.764zM74.267 21.764h-1.445c-.276 0-.5-.224-.5-.5s.224-.5.5-.5h1.445c.276 0 .5.224.5.5S74.544 21.764 74.267 21.764zM78.322 21.764h-2.546c-.276 0-.5-.224-.5-.5s.224-.5.5-.5h2.546c.276 0 .5.224.5.5S78.598 21.764 78.322 21.764zM76.297 18.035H66.68c-.276 0-.5-.224-.5-.5s.224-.5.5-.5h9.616c.276 0 .5.224.5.5S76.573 18.035 76.297 18.035zM64.949 18.035h-.58c-.276 0-.5-.224-.5-.5s.224-.5.5-.5h.58c.276 0 .5.224.5.5S65.225 18.035 64.949 18.035zM62.572 18.035h-1.456c-.276 0-.5-.224-.5-.5s.224-.5.5-.5h1.456c.276 0 .5.224.5.5S62.848 18.035 62.572 18.035zM73.733 19.899h-5.027c-.276 0-.5-.224-.5-.5s.224-.5.5-.5h5.027c.276 0 .5.224.5.5S74.009 19.899 73.733 19.899z"/><path fill="#fff" d="M73.733 18.035h-1.257c-.276 0-.5-.224-.5-.5s.224-.5.5-.5h1.257c.276 0 .5.224.5.5S74.009 18.035 73.733 18.035zM67.251 19.899h-1.759c-.276 0-.5-.224-.5-.5s.224-.5.5-.5h1.759c.276 0 .5.224.5.5S67.527 19.899 67.251 19.899z"/></g><g><path fill="#78a0cf" d="M71.734,38.878l-2.656-11.187l-11.449,2.718c0.191,1.094-0.492,2.162-1.588,2.422c-1.095,0.26-2.186-0.387-2.507-1.45l-35.59,8.496l2.652,11.169c2.18-0.5,4.358,0.849,4.876,3.028c0.517,2.18-0.823,4.363-2.994,4.897l2.652,11.168l35.592-8.496c-0.014-0.045-0.035-0.086-0.046-0.132c-0.27-1.138,0.433-2.279,1.571-2.549c1.138-0.27,2.279,0.433,2.549,1.571c0.011,0.046,0.011,0.092,0.018,0.138l11.45-2.718l-2.656-11.187c-2.115,0.381-4.183-0.938-4.686-3.054C68.419,41.596,69.674,39.488,71.734,38.878z"/><path fill="#472b29" d="M25.13,70.839c-0.129,0-0.256-0.036-0.367-0.104c-0.158-0.098-0.271-0.254-0.313-0.435l-2.651-11.168c-0.089-0.374,0.141-0.75,0.514-0.841c1.793-0.44,2.905-2.26,2.48-4.055c-0.427-1.796-2.242-2.917-4.039-2.508c-0.374,0.088-0.748-0.146-0.837-0.521l-2.651-11.168c-0.09-0.376,0.143-0.753,0.519-0.842l35.59-8.496c0.356-0.085,0.726,0.124,0.832,0.478c0.217,0.716,0.952,1.146,1.675,0.971c0.724-0.171,1.188-0.883,1.061-1.621c-0.063-0.365,0.168-0.716,0.527-0.801l11.448-2.718c0.376-0.087,0.754,0.143,0.843,0.52l2.656,11.187c0.086,0.361-0.125,0.727-0.481,0.833c-1.72,0.509-2.743,2.267-2.331,4c0.412,1.736,2.122,2.848,3.881,2.527c0.369-0.065,0.72,0.166,0.805,0.527l2.656,11.187c0.09,0.376-0.143,0.753-0.519,0.843l-11.45,2.719c-0.191,0.045-0.389,0.008-0.549-0.098c-0.161-0.107-0.271-0.276-0.304-0.467c-0.003-0.016-0.012-0.09-0.014-0.106c-0.083-0.355-0.309-0.667-0.631-0.865c-0.321-0.199-0.705-0.259-1.07-0.172c-0.368,0.087-0.681,0.313-0.879,0.635c-0.199,0.322-0.26,0.702-0.173,1.07l0.035,0.091c0.056,0.185,0.033,0.384-0.062,0.552s-0.257,0.288-0.445,0.333L25.292,70.82C25.238,70.833,25.184,70.839,25.13,70.839z M23.308,59.436l2.341,9.86l34.27-8.18c-0.02-0.548,0.123-1.092,0.418-1.571c0.396-0.64,1.016-1.089,1.747-1.263c0.732-0.175,1.488-0.052,2.129,0.343c0.479,0.294,0.85,0.715,1.08,1.214l10.128-2.405l-2.353-9.906c-2.245,0.089-4.297-1.415-4.827-3.654c-0.532-2.239,0.621-4.504,2.67-5.434l-2.353-9.906l-10.203,2.423c-0.078,1.207-0.932,2.266-2.152,2.556c-1.217,0.29-2.458-0.272-3.07-1.315l-34.345,8.199l2.341,9.862c2.305-0.183,4.476,1.343,5.024,3.655C26.701,56.224,25.448,58.563,23.308,59.436z"/><path fill="#ffd576" d="M28.577 39.605H54.337V60.907H28.577z" transform="rotate(-13.102 41.454 50.253)"/><path fill="#fff" d="M56.447 35.081L61.658 57.03"/><path fill="#472b29" d="M56.562 35.867c-.136 0-.259-.093-.292-.231l-.115-.486c-.038-.162.062-.323.223-.361.163-.04.322.062.361.223l.115.486c.038.162-.062.323-.223.361C56.608 35.864 56.585 35.867 56.562 35.867zM61.305 55.845c-.136 0-.259-.093-.292-.231l-.237-.999c-.038-.161.062-.323.223-.361.164-.039.322.062.361.223l.237.999c.038.161-.062.323-.223.361C61.351 55.842 61.328 55.845 61.305 55.845zM60.831 53.847c-.136 0-.259-.093-.292-.231l-.237-.999c-.038-.161.062-.323.223-.361.164-.039.322.062.361.223l.237.999c.038.161-.062.323-.223.361C60.877 53.844 60.853 53.847 60.831 53.847zM60.356 51.849c-.136 0-.259-.093-.292-.231l-.237-.999c-.038-.161.062-.323.223-.361.164-.04.322.062.361.223l.237.999c.038.161-.062.323-.223.361C60.402 51.846 60.379 51.849 60.356 51.849zM59.882 49.852c-.136 0-.259-.093-.292-.231l-.237-.999c-.038-.161.062-.323.223-.361.163-.04.322.062.361.223l.237.999c.038.161-.062.323-.223.361C59.928 49.849 59.905 49.852 59.882 49.852zM59.408 47.854c-.136 0-.259-.093-.292-.231l-.237-.999c-.038-.161.062-.323.223-.361.163-.041.322.062.361.223l.237.999c.038.161-.062.323-.223.361C59.454 47.851 59.43 47.854 59.408 47.854zM58.933 45.856c-.136 0-.259-.093-.292-.231l-.236-.998c-.038-.162.062-.323.223-.361.162-.041.322.062.361.223l.236.999c.038.162-.062.323-.223.361C58.979 45.853 58.956 45.856 58.933 45.856zM58.46 43.858c-.136 0-.259-.093-.292-.231l-.237-.999c-.038-.161.062-.323.223-.361.162-.038.322.062.361.223l.237.999c.038.161-.062.323-.223.361C58.506 43.855 58.482 43.858 58.46 43.858zM57.985 41.86c-.136 0-.259-.093-.292-.231l-.237-.999c-.038-.161.062-.323.223-.361.162-.039.322.062.361.223l.237.999c.038.161-.062.323-.223.361C58.031 41.857 58.007 41.86 57.985 41.86zM57.51 39.863c-.136 0-.26-.093-.292-.231l-.236-.999c-.038-.161.062-.323.223-.361.165-.039.323.062.361.223l.236.999c.038.161-.062.323-.223.361C57.556 39.86 57.533 39.863 57.51 39.863zM57.037 37.865c-.136 0-.259-.093-.292-.231l-.237-.999c-.038-.161.062-.323.223-.361.165-.039.322.062.361.223l.237.999c.038.161-.062.323-.223.361C57.083 37.862 57.059 37.865 57.037 37.865zM61.658 57.33c-.136 0-.259-.093-.292-.231l-.115-.486c-.038-.162.062-.323.223-.361.164-.039.322.062.361.223l.115.486c.038.162-.062.323-.223.361C61.704 57.327 61.68 57.33 61.658 57.33z"/><path fill="#fff" d="M48.127 37.62L49.138 37.38"/><path fill="#472b29" d="M48.128,38.121c-0.227,0-0.432-0.155-0.486-0.384c-0.064-0.269,0.103-0.538,0.371-0.602l1.011-0.24c0.265-0.064,0.538,0.103,0.602,0.371c0.064,0.269-0.102,0.538-0.371,0.602l-1.011,0.24C48.205,38.116,48.166,38.121,48.128,38.121z"/><g><path fill="#472b29" d="M46.89,38.41c-0.07,0-0.13-0.01-0.189-0.03c-0.061-0.03-0.12-0.07-0.16-0.11c-0.101-0.1-0.15-0.23-0.15-0.36c0-0.13,0.05-0.26,0.15-0.35c0.04-0.05,0.1-0.08,0.16-0.11c0.18-0.07,0.399-0.03,0.54,0.11c0.1,0.09,0.149,0.22,0.149,0.35c0,0.13-0.05,0.26-0.149,0.36C47.15,38.36,47.02,38.41,46.89,38.41z"/></g><path fill="#472b29" d="M29.805,57.235c-0.227,0-0.432-0.155-0.486-0.384l-3.308-13.934c-0.063-0.269,0.102-0.538,0.37-0.602l18.701-4.486c0.27-0.066,0.539,0.102,0.603,0.37c0.064,0.269-0.102,0.539-0.37,0.603l-18.216,4.37l3.192,13.448c0.063,0.269-0.103,0.539-0.371,0.602C29.882,57.231,29.843,57.235,29.805,57.235z"/><g><path fill="#fff" d="M30.514 59.717L30.331 58.948"/><path fill="#472b29" d="M30.513,60.217c-0.227,0-0.433-0.155-0.486-0.385l-0.182-0.769c-0.063-0.269,0.103-0.538,0.371-0.602c0.271-0.063,0.539,0.103,0.602,0.372L31,59.603c0.063,0.269-0.103,0.538-0.371,0.602C30.59,60.213,30.551,60.217,30.513,60.217z"/></g><path fill="#472b29" d="M31.455,64.182c-0.092,0-0.183-0.025-0.262-0.074c-0.113-0.069-0.194-0.181-0.225-0.31l-0.54-2.275c-0.063-0.269,0.103-0.539,0.371-0.602c0.266-0.066,0.538,0.102,0.602,0.371l0.425,1.788l23.988-5.739L51.74,40.181c-0.063-0.269,0.103-0.539,0.371-0.602c0.265-0.065,0.538,0.102,0.602,0.371l4.189,17.645c0.063,0.269-0.102,0.538-0.37,0.602l-24.961,5.972C31.533,64.178,31.494,64.182,31.455,64.182z"/><g><path fill="#f1bc19" d="M39.801 42.957L42.945 46.788 47.884 46.371 45.211 50.545 47.135 55.113 42.339 53.861 38.589 57.101 38.298 52.154 34.057 49.589 38.672 47.783z"/><path fill="#472b29" d="M38.59,57.452c-0.046,0-0.092-0.009-0.136-0.028c-0.123-0.052-0.206-0.168-0.214-0.302l-0.281-4.764l-4.083-2.47c-0.113-0.069-0.179-0.196-0.167-0.329s0.097-0.248,0.221-0.296l4.444-1.739l1.087-4.646c0.03-0.13,0.132-0.231,0.262-0.261c0.129-0.031,0.265,0.016,0.35,0.119l3.027,3.689l4.755-0.402c0.136-0.009,0.261,0.054,0.329,0.168c0.068,0.114,0.066,0.257-0.005,0.369l-2.573,4.019l1.852,4.398c0.052,0.123,0.029,0.264-0.058,0.365c-0.087,0.101-0.224,0.143-0.354,0.11l-4.616-1.205l-3.611,3.12C38.754,57.422,38.673,57.452,38.59,57.452z M34.845,49.656l3.633,2.198c0.099,0.06,0.162,0.164,0.169,0.279l0.25,4.24l3.214-2.777c0.088-0.075,0.204-0.103,0.317-0.074l4.108,1.073l-1.647-3.915c-0.045-0.106-0.034-0.228,0.027-0.324l2.29-3.577l-4.232,0.358c-0.114,0.008-0.228-0.038-0.3-0.126l-2.693-3.283l-0.968,4.135c-0.026,0.112-0.106,0.205-0.213,0.247L34.845,49.656z M38.673,47.783h0.009H38.673z"/></g></g><g><path fill="#fdfcef" d="M70.221 44.95A13.382 13.382 0 1 0 70.221 71.714A13.382 13.382 0 1 0 70.221 44.95Z"/><path fill="#472b29" d="M70.221,72.414c-7.766,0-14.083-6.317-14.083-14.082c0-7.765,6.317-14.083,14.083-14.083c7.765,0,14.082,6.317,14.082,14.083C84.303,66.096,77.986,72.414,70.221,72.414z M70.221,45.649c-6.993,0-12.683,5.689-12.683,12.682c0,6.993,5.689,12.682,12.683,12.682s12.682-5.689,12.682-12.682C82.903,51.338,77.215,45.649,70.221,45.649z"/></g><g><path fill="#a1a1ca" d="M54.663,58.218c0,8.656,7.017,15.674,15.674,15.674s15.674-7.017,15.674-15.674c0-8.656-7.017-15.674-15.674-15.674S54.663,49.562,54.663,58.218z M74.536,50.381c0,2.319-1.88,4.198-4.198,4.198c-2.319,0-4.198-1.88-4.198-4.198s1.88-4.198,4.198-4.198C72.656,46.183,74.536,48.063,74.536,50.381z M73.976,58.218c0-2.319,1.88-4.198,4.198-4.198s4.198,1.88,4.198,4.198s-1.88,4.198-4.198,4.198S73.976,60.537,73.976,58.218z M66.139,66.055c0-2.319,1.88-4.198,4.198-4.198c2.319,0,4.198,1.88,4.198,4.198c0,2.319-1.88,4.198-4.198,4.198C68.019,70.253,66.139,68.374,66.139,66.055z M58.862,58.218c0-2.319,1.88-4.198,4.198-4.198s4.198,1.88,4.198,4.198s-1.88,4.198-4.198,4.198S58.862,60.537,58.862,58.218z"/><path fill="#472b29" d="M70.338,74.392c-8.918,0-16.174-7.255-16.174-16.174s7.256-16.174,16.174-16.174S86.511,49.3,86.511,58.218S79.256,74.392,70.338,74.392z M70.338,43.044c-8.367,0-15.174,6.807-15.174,15.174s6.807,15.174,15.174,15.174s15.174-6.807,15.174-15.174S78.705,43.044,70.338,43.044z M70.338,70.753c-2.591,0-4.698-2.107-4.698-4.698s2.107-4.698,4.698-4.698s4.698,2.107,4.698,4.698S72.928,70.753,70.338,70.753z M70.338,62.357c-2.039,0-3.698,1.659-3.698,3.698s1.659,3.698,3.698,3.698s3.698-1.659,3.698-3.698S72.377,62.357,70.338,62.357z M78.174,62.917c-2.591,0-4.698-2.107-4.698-4.698s2.107-4.698,4.698-4.698s4.698,2.107,4.698,4.698S80.765,62.917,78.174,62.917z M78.174,54.52c-2.039,0-3.698,1.659-3.698,3.698s1.659,3.698,3.698,3.698s3.698-1.659,3.698-3.698S80.214,54.52,78.174,54.52z M63.06,62.917c-2.591,0-4.698-2.107-4.698-4.698s2.107-4.698,4.698-4.698s4.698,2.107,4.698,4.698S65.651,62.917,63.06,62.917z M63.06,54.52c-2.039,0-3.698,1.659-3.698,3.698s1.659,3.698,3.698,3.698s3.698-1.659,3.698-3.698S65.099,54.52,63.06,54.52z M70.338,55.08c-2.591,0-4.698-2.107-4.698-4.698s2.107-4.698,4.698-4.698s4.698,2.107,4.698,4.698S72.928,55.08,70.338,55.08z M70.338,46.683c-2.039,0-3.698,1.659-3.698,3.698s1.659,3.698,3.698,3.698s3.698-1.659,3.698-3.698S72.377,46.683,70.338,46.683z"/><path fill="#472b29" d="M70.221,74.392c-8.918,0-16.174-7.255-16.174-16.174s7.256-16.174,16.174-16.174S86.395,49.3,86.395,58.218S79.139,74.392,70.221,74.392z M70.221,43.044c-8.367,0-15.174,6.807-15.174,15.174s6.807,15.174,15.174,15.174s15.174-6.807,15.174-15.174S78.589,43.044,70.221,43.044z"/><path fill="#fff" d="M59.715,49.239c-0.19,0.225-0.372,0.457-0.547,0.694"/><path fill="#472b29" d="M59.168 50.183c-.052 0-.104-.016-.149-.049-.11-.082-.134-.239-.052-.35.179-.241.365-.476.558-.706.09-.106.247-.12.353-.031s.119.247.03.352c-.187.222-.365.449-.538.682C59.319 50.147 59.244 50.183 59.168 50.183zM70.414 72.449c-7.313 0-13.396-5.478-14.147-12.742-.014-.138.086-.26.224-.274.151-.02.26.086.274.223.725 7.008 6.593 12.293 13.649 12.293 7.566 0 13.722-6.156 13.722-13.722 0-7.567-6.155-13.723-13.722-13.723-3.465 0-6.772 1.294-9.314 3.645-.101.094-.259.088-.354-.014-.094-.102-.088-.26.014-.354 2.635-2.436 6.063-3.778 9.654-3.778 7.842 0 14.222 6.38 14.222 14.223S78.256 72.449 70.414 72.449z"/><path fill="#fff" d="M56.441 58.227c0 .105-.001.105.001.209M70.501 57.378A1.12 1.12 0 1 0 70.501 59.617999999999995 1.12 1.12 0 1 0 70.501 57.378z"/><path fill="#472b29" d="M70.501,59.943c-0.796,0-1.444-0.648-1.444-1.445s0.648-1.445,1.444-1.445c0.797,0,1.445,0.648,1.445,1.445S71.298,59.943,70.501,59.943z M70.501,57.704c-0.438,0-0.794,0.356-0.794,0.794s0.356,0.794,0.794,0.794c0.438,0,0.795-0.356,0.795-0.794S70.939,57.704,70.501,57.704z"/><g><path fill="#472b29" d="M70.221 54.905c-2.494 0-4.523-2.029-4.523-4.523s2.029-4.523 4.523-4.523 4.523 2.029 4.523 4.523S72.715 54.905 70.221 54.905zM70.221 46.508c-2.136 0-3.873 1.737-3.873 3.873s1.737 3.873 3.873 3.873 3.873-1.737 3.873-3.873S72.357 46.508 70.221 46.508zM70.221 70.579c-2.494 0-4.523-2.029-4.523-4.523s2.029-4.523 4.523-4.523 4.523 2.029 4.523 4.523S72.715 70.579 70.221 70.579zM70.221 62.182c-2.136 0-3.873 1.737-3.873 3.873s1.737 3.873 3.873 3.873 3.873-1.737 3.873-3.873S72.357 62.182 70.221 62.182z"/></g><g><path fill="#472b29" d="M62.944 62.742c-2.494 0-4.523-2.029-4.523-4.523s2.029-4.523 4.523-4.523 4.523 2.029 4.523 4.523S65.438 62.742 62.944 62.742zM62.944 54.345c-2.136 0-3.873 1.737-3.873 3.873s1.737 3.873 3.873 3.873 3.873-1.737 3.873-3.873S65.08 54.345 62.944 54.345zM78.058 62.742c-2.494 0-4.523-2.029-4.523-4.523s2.029-4.523 4.523-4.523 4.523 2.029 4.523 4.523S80.552 62.742 78.058 62.742zM78.058 54.345c-2.136 0-3.873 1.737-3.873 3.873s1.737 3.873 3.873 3.873 3.873-1.737 3.873-3.873S80.194 54.345 78.058 54.345z"/></g><path fill="#472b29" d="M71.34,74.392H50.629c-0.276,0-0.5-0.224-0.5-0.5s0.224-0.5,0.5-0.5H71.34c0.276,0,0.5,0.224,0.5,0.5S71.617,74.392,71.34,74.392z"/><g><path fill="#472b29" d="M74.42 51.036c-.062 0-.124-.015-.182-.047-2.376-1.313-5.417-1.321-7.803-.02-.18.101-.409.032-.509-.149-.1-.182-.032-.41.149-.509 2.606-1.421 5.929-1.413 8.525.021.181.1.247.328.146.509C74.679 50.966 74.551 51.036 74.42 51.036zM70.24 67.875c-1.479 0-2.942-.371-4.233-1.072-.183-.099-.25-.327-.15-.508.099-.183.327-.249.508-.151 2.354 1.277 5.36 1.285 7.716.019.181-.099.409-.029.508.153.099.182.03.41-.152.508C73.154 67.511 71.704 67.875 70.24 67.875z"/></g><g><path fill="#472b29" d="M62.416 62.662c-.134 0-.263-.072-.33-.198-.694-1.292-1.062-2.756-1.062-4.232 0-1.49.374-2.967 1.082-4.271.098-.183.327-.249.508-.151.183.099.25.327.15.508-.647 1.194-.99 2.547-.99 3.913 0 1.353.336 2.693.972 3.877.099.182.03.41-.152.508C62.537 62.647 62.476 62.662 62.416 62.662zM78.249 62.671c-.061 0-.122-.015-.179-.045-.183-.099-.25-.327-.15-.508.642-1.182.98-2.522.98-3.876 0-1.34-.333-2.668-.962-3.84-.099-.182-.03-.41.152-.508.182-.097.409-.03.508.153.688 1.28 1.052 2.731 1.052 4.195 0 1.478-.371 2.942-1.072 4.233C78.51 62.6 78.382 62.671 78.249 62.671z"/></g></g><g><path fill="#fdfcef" d="M35.837,72.321c1.883,0,3.517,0,3.54,0c2.11,0,3.821-1.674,3.821-3.739c0-1.802-1.302-3.305-3.035-3.66c0.02-0.158,0.034-0.317,0.034-0.48c0-2.139-1.772-3.873-3.957-3.873c-1.29,0-2.433,0.607-3.155,1.543c-0.185-2.381-2.358-4.218-4.9-3.913c-1.859,0.223-3.397,1.629-3.739,3.431c-0.11,0.578-0.098,1.139,0.011,1.665c-0.498-0.525-1.208-0.856-1.998-0.856c-1.446,0-2.627,1.102-2.72,2.494c-0.657-0.142-1.371-0.133-2.123,0.143c-1.438,0.528-2.462,1.853-2.522,3.356c-0.085,2.133,1.657,3.889,3.818,3.889c0.164,0,0.741,0,0.874,0h7.934 M29.36,72.321h0.36"/><path fill="#472b29" d="M39.378,72.821h-3.541c-0.276,0-0.5-0.224-0.5-0.5s0.224-0.5,0.5-0.5h3.541c1.831,0,3.32-1.453,3.32-3.239c0-1.524-1.108-2.857-2.636-3.17c-0.255-0.052-0.428-0.292-0.396-0.551c0.017-0.138,0.029-0.277,0.029-0.419c0-1.86-1.551-3.373-3.457-3.373c-1.092,0-2.098,0.491-2.76,1.348c-0.126,0.164-0.339,0.233-0.539,0.173c-0.197-0.059-0.339-0.234-0.354-0.44c-0.079-1.019-0.565-1.943-1.37-2.603c-0.827-0.68-1.885-0.981-2.973-0.852c-1.646,0.197-3.006,1.442-3.307,3.028c-0.095,0.494-0.091,0.988,0.009,1.471c0.046,0.219-0.06,0.441-0.258,0.544c-0.197,0.104-0.439,0.064-0.595-0.099c-0.428-0.452-1.009-0.7-1.635-0.7c-1.17,0-2.146,0.891-2.221,2.028c-0.01,0.145-0.082,0.279-0.198,0.366c-0.115,0.087-0.263,0.119-0.406,0.089c-0.64-0.139-1.243-0.098-1.845,0.124c-1.263,0.464-2.146,1.632-2.195,2.906c-0.035,0.875,0.282,1.708,0.895,2.345c0.635,0.661,1.495,1.024,2.423,1.024h8.808c0.276,0,0.5,0.224,0.5,0.5s-0.224,0.5-0.5,0.5H18.91c-1.185,0-2.331-0.485-3.144-1.332c-0.803-0.835-1.219-1.928-1.174-3.078c0.066-1.674,1.212-3.203,2.85-3.805c0.61-0.224,1.241-0.306,1.88-0.245c0.344-1.396,1.629-2.424,3.136-2.424c0.493,0,0.977,0.113,1.413,0.323c0.009-0.242,0.037-0.484,0.083-0.726c0.381-2.009,2.096-3.585,4.17-3.834c1.365-0.161,2.686,0.218,3.727,1.072c0.747,0.614,1.278,1.41,1.546,2.302c0.792-0.648,1.786-1.007,2.843-1.007c2.458,0,4.457,1.962,4.457,4.373c0,0.034-0.001,0.068-0.002,0.102c1.765,0.555,3.004,2.188,3.004,4.038C43.698,70.919,41.759,72.821,39.378,72.821z M29.719,72.821H29.36c-0.276,0-0.5-0.224-0.5-0.5s0.224-0.5,0.5-0.5h0.359c0.276,0,0.5,0.224,0.5,0.5S29.996,72.821,29.719,72.821z"/><path fill="#472b29" d="M37.67,67.018c-0.018,0-0.036-0.002-0.055-0.006c-0.135-0.03-0.22-0.164-0.189-0.299c0.037-0.164,0.094-0.325,0.169-0.479c0.604-1.224,2.273-1.676,3.722-1.007c0.126,0.058,0.181,0.207,0.122,0.332c-0.058,0.125-0.209,0.179-0.331,0.122c-1.207-0.558-2.579-0.209-3.063,0.774c-0.059,0.117-0.102,0.241-0.13,0.367C37.887,66.939,37.784,67.018,37.67,67.018z"/><g><path fill="#472b29" d="M32.51,72.821h-1.106c-0.276,0-0.5-0.224-0.5-0.5s0.224-0.5,0.5-0.5h1.106c0.276,0,0.5,0.224,0.5,0.5S32.787,72.821,32.51,72.821z"/></g></g></g></svg>