<svg xmlns="http://www.w3.org/2000/svg"  viewBox="0 0 512 512" width="64px" height="64px"><path fill="#BCBCBC" d="M218.7,267c-7.9,1.4-16.2,2.6-24.2,2.8c-14.6,0.4-29.2-1.8-43.8-2c18.7,25,62.9,17.6,91.9,14.5 c0.4-7.1,0.6-14.2,0.7-21.2C235.3,263.8,227,265.6,218.7,267z"/><path fill="#BCBCBC" d="M201.8,168.4c-0.3-0.3-0.6-0.6-0.8-1c-8.3,5.7-16.3,11.8-23.7,18.5c0.9,0.5,1.8,1.4,2.3,2.5 c2.4,5,7.9,8.9,12.3,12c5.1,3.7,10.6,7,16.2,10c5.6,3,11.4,6.1,17.4,8.1c7.4,2.5,15.3,3.9,23,5.3c0.9,0.2,1.7,0.5,2.3,1 c1.4-1.5,3-2.9,4.5-4.3C235.4,205.5,219.4,186.1,201.8,168.4z"/><path fill="#BCBCBC" d="M219,227.9c-6.6-2.6-13-5.9-19.2-9.4c-11-6.3-23.8-13.8-30-25.4c-1.5,1.5-2.9,3-4.4,4.5 c-7.2,7.9-14.4,17.3-18.7,27.6c0.1,0,0.1,0,0.2,0.1c28.2,12.5,61.7,15.1,91.8,7.9C232,231.9,225.3,230.4,219,227.9z"/><path fill="#BCBCBC" d="M243.3,243.4c-32.7,8.3-68.9,5.7-99.8-7.6c-1.2,6.1-1.1,12.4,0.8,18.8c0.3,1,0.6,2,1,2.9 c0.7-0.5,1.7-0.7,2.8-0.7c14,0.1,27.8,2.3,41.8,2.1c7.8-0.1,15.8-0.8,23.5-2.1c7.2-1.1,14.3-2.5,21.3-4.6c3-0.9,6.1-1.8,9-3.2 c0.1-1.5,0.1-3.1,0.2-4.6C243.6,244.1,243.4,243.8,243.3,243.4z"/><path fill="#BCBCBC" d="M411.2,148.8c-16.6-21-41.5-29-67.1-29.8c0.5,0.9,0.8,2.1,0.6,3.4c-1.3,12.5-8.4,23.2-10.7,35.4 c-1.2,6.7-3.6,13.1-4.9,19.8c-1.3,6.7-2.2,13.4-2.3,20.3c0,1.2-0.3,2.2-0.9,3c4.6,1.4,8.9,3.4,12.8,6.3c1.2,0.9,2.3,2,3.4,3.1 c0.1-0.9,0.4-1.8,1-2.7c10-14.3,29.7-21.2,45.3-27.2c6.9-2.6,13.1-6.2,20.4-8.1c4.5-1.2,9.7-2.4,14.6-2 C420.5,162.6,416.3,155.2,411.2,148.8z"/><path fill="#D6E5E5" d="M368.1,320c-3.7-27.2-10.4-53.9-19.9-79.6c-3.6-1-6.3-5.3-2.9-8.7l0.2-0.2c-1-0.6-1.9-1.5-2.4-2.5 c-0.3-0.4-0.8-1.4-1.2-1.9c-1-1.4-2.1-2.7-3.2-4c-1.8-2.2-3.6-5-5.9-6.7c-8.6-6.5-20.1-7.6-30.5-6.8c-6,0.5-11.5,0.9-17,3.5 c-4.9,2.2-9.5,5.3-13.8,8.6c-3.9,3-7.7,6.3-11.2,9.7c-2.1,2-5.3,4.7-6.2,7.8c0.5,0.9,0.8,2,0.7,3.2c-0.1,1.3-0.1,2.5-0.2,3.8 c0.6,0.7,1.1,1.6,1.3,2.7c0.4,2.3-0.3,4.2-1.6,5.8c-0.2,6.7-0.3,13.3-0.6,20c-1.2,28.4-5.1,55.8-22.2,79.3 c-8.2,11.3-18.1,21-28.2,30.5c-8.8,8.2-18.9,17.3-23.3,28.8c-7.4,19.3,7.6,39.2,23.6,48.5c2.6,1.5,5.2,2.8,7.9,4.1 c0.5-1.5,1.2-3.2,1.7-4.8c-0.3,0.1-0.6,0.2-0.9,0.4c-2.7,0.9-6.2-0.5-7-3.4c-1.1-4.2-0.2-7.5,1.6-11.2c-0.2,0.2-0.3,0.5-0.5,0.9 c-2.5,6.6-12.3,1.7-9.9-4.9c2.2-5.9,12-10.6,17.8-6.8c3.2,2.1,5.6,5.1,4.9,9.2c-0.2,0.9-0.4,1.7-0.7,2.5c2.2,0,4.1,1.6,5.1,3.7 c1.7,3.7,1.4,6.9,0.5,10.2c1.3-0.4,2.6-0.8,3.9-0.9c3.2-0.3,5.5,2.1,5.9,5.1c0.1,0.4,0.3,0.8,0.6,1.1c1.8,1.4,2.9,3.9,2,6.3 c7.4,1.1,14.9,1.4,22.2,0.7c43.2-4.1,90.4-31.5,106.1-73.5c4.4-11.8,5.7-24.3,5.9-36.9C370.9,349,370,334.5,368.1,320z"/><path fill="#BCBCBC" d="M316.6,120.7c-7.5,1.1-15,2.6-22.4,4.4c2,0.4,3.7,2,3.7,4.8c0.1,23,1.8,46,5.3,68.7 c4.2-0.2,8.5-0.1,12.7,0.3c0-0.1,0-0.1,0-0.2c0.1-7.2,0.7-14.4,2.1-21.5c1.3-6.7,3.7-13.3,5-20c2.4-12.7,9.6-24.1,11-37 c0-0.4,0.1-0.8,0.3-1.2C328.3,119.2,322.4,119.8,316.6,120.7z"/><path fill="#BCBCBC" d="M250.6,147.5c3.5,12,10.6,23.2,16.5,34.1c4.1,7.4,9.9,14.2,13.4,22c3.8-1.6,7.7-2.9,11.8-3.7 c-3.6-22.9-5.4-46-5.4-69.2c0-1.8,0.8-3.3,1.9-4.2c-26.2,7.1-51.6,18.4-74.5,32.4c-1.3,0.8-2.7,1.7-4,2.5 c17.6,17.8,33.7,37.2,53.9,52.1c2.2-1.7,4.4-3.2,6.6-4.7c-3.5-8.7-10.3-16.6-14.6-24.8c-5.6-10.8-12.5-21.1-15.9-32.9 C238.2,144.3,248.6,140.6,250.6,147.5z"/><path fill="#BCBCBC" d="M373.1,251.5c-3.4-1.4-6.9-2.4-10.4-3.1c1.3,3.8,2.5,7.7,3.7,11.5c4.5-1.3,8.9-3,13.2-5.1 C377.6,253.4,375.1,252.3,373.1,251.5z"/><path fill="#D6E5E5" d="M431.8,125.8c-10.4-18.9-25.6-35.3-44.2-46.2c-35.7-21-79.1-23.8-119.1-16.5 C223,71.3,178,92.4,149.9,130.2c-14.5,19.6-24.3,43.8-25.2,68.4c-0.6,14.5,1.9,28.5,7.3,41.4c0.9-12,5.8-23.5,12.5-33.7 c12.4-18.7,30.1-33.6,48.3-46.4c14.4-10.2,29.7-18.9,45.7-26.3C272,118,310.2,105.9,347.6,108c17.3,1,35,4.7,49.9,14 c15.9,10,27.8,24.5,35.2,41.7c2.9,6.8,4.5,13.6,5,20.4c1.9-5.8,3.2-11.7,3.7-17.9C442.3,152.3,438.5,138.1,431.8,125.8z"/><path fill="#BCBCBC" d="M406.1,230.2c-4.8-0.3-9.6-0.1-14.4,0.2c-11.5,0.5-22.8,2.6-34.3,3.2c0.4,1.1,0.8,2.2,1.2,3.3 c0.6-0.1,1.2-0.1,1.8,0c8.5,1,22.4,4.6,29.3,12.2c7.7-5.1,14.8-11.3,20.6-18.5C408.7,230.4,407.1,230.3,406.1,230.2z"/><path fill="#BCBCBC" d="M426.9,182.6c-0.3-0.1-0.6-0.2-0.9-0.4c-5.1-2.8-13.3,0.3-18.3,2c-5.7,2-10.9,4.9-16.5,7 c-13.6,5.3-30.8,11.2-39.6,23.6c-1.1,1.5-2.4,2.1-3.7,2.1c1.3,1.6,3.4,3.6,4.7,5.8c14.3-0.2,28.4-3.1,42.7-3.5 c6.1-0.2,15.2-0.9,22.1,1.5c1.7-2.9,3.3-5.8,4.6-8.9C425.9,202.8,428.2,192.5,426.9,182.6z"/><path d="M445.6,129.4c-9-21.7-25.3-40.7-44.5-54.1c-35.9-25.1-81.8-30.5-124.4-24.7c-45.7,6.2-90.6,24.8-123.1,58.3 c-34.1,35.1-51.6,90.2-31.4,136.7c5.2,11.9,12.7,22.4,21.6,31.8c0.6,0.6,1.2,1,1.8,1.3c3.6,3.7,7.7,6.9,12.4,9.4 c13.4,7.2,29.6,8.4,44.5,8.3c13.1-0.1,26.1-1.7,39.2-3c-1.1,10.4-3,20.8-6.5,30.7c-9.5,26.9-32.2,43.8-51,63.9 c-8.3,8.9-15.7,19.4-17.1,31.8c-1.1,10.2,2.4,20.6,7.5,29.3c10,17,28.8,27,47.1,32.3c41.2,11.9,88.1-4.3,120-31.2 c17.7-14.9,30.9-34.2,36.7-56.7c3.3-12.7,3.4-26.2,3.2-39.2c-0.2-14.7-1.6-29.3-3.9-43.8c-2.1-13.4-4.9-26.8-8.5-39.9 c5.2-1.4,10.3-3.4,15.3-5.8c3,2.3,9.1,0.4,9.3-4.8c0-0.1,0-0.2,0-0.4c10.4-6.5,19.8-15,27.2-24.8c3-0.6,5.6-3.5,4.7-6.8 c2.9-4.6,5.3-9.4,7.2-14.4c1.7-0.1,3.3-1,4.3-2.8c7.4-12.5,13-26.1,14.6-40.7C453.6,156.1,450.9,142.2,445.6,129.4z M145.2,257.5c-0.3-1-0.7-1.9-1-2.9c-1.9-6.3-1.9-12.6-0.8-18.8c30.9,13.3,67.1,15.8,99.8,7.6c0.1,0.4,0.3,0.7,0.5,1 c-0.1,1.5-0.1,3.1-0.2,4.6c-2.9,1.4-6,2.3-9,3.2c-7,2-14.1,3.4-21.3,4.6c-7.8,1.2-15.7,2-23.5,2.1c-14,0.1-27.8-2-41.8-2.1 C146.9,256.8,145.9,257.1,145.2,257.5z M292.3,199.9c-4.2,0.8-8.1,2.1-11.8,3.7c-3.5-7.8-9.3-14.6-13.4-22 c-6-10.9-13-22.1-16.5-34.1c-2-6.8-12.4-3.2-10.4,3.6c3.4,11.8,10.3,22.1,15.9,32.9c4.3,8.2,11.1,16.1,14.6,24.8 c-2.2,1.4-4.4,3-6.6,4.7c-20.3-14.9-36.4-34.3-53.9-52.1c1.3-0.8,2.7-1.7,4-2.5c22.9-14,48.3-25.3,74.5-32.4 c-1.1,1-1.9,2.4-1.9,4.2C287,153.9,288.8,177,292.3,199.9z M255.3,220.6c-1.6,1.4-3.1,2.8-4.5,4.3c-0.6-0.5-1.4-0.8-2.3-1 c-7.7-1.4-15.5-2.7-23-5.3c-6-2.1-11.8-5.2-17.4-8.1c-5.6-3-11-6.3-16.2-10c-4.4-3.1-9.8-7.1-12.3-12c-0.6-1.2-1.4-2-2.3-2.5 c7.4-6.7,15.5-12.8,23.7-18.5c0.2,0.3,0.5,0.7,0.8,1C219.4,186.1,235.4,205.5,255.3,220.6z M199.8,218.5 c6.1,3.5,12.6,6.8,19.2,9.4c6.4,2.5,13,4.1,19.7,5.4c-30.1,7.2-63.6,4.6-91.8-7.9c-0.1,0-0.1-0.1-0.2-0.1 c4.3-10.3,11.5-19.8,18.7-27.6c1.4-1.5,2.9-3.1,4.4-4.5C176,204.7,188.8,212.2,199.8,218.5z M150.7,267.8 c14.6,0.3,29.1,2.4,43.8,2c8-0.2,16.3-1.4,24.2-2.8c8.3-1.5,16.6-3.2,24.6-6c-0.2,7.1-0.3,14.2-0.7,21.2 C213.6,285.4,169.4,292.8,150.7,267.8z M370.7,363.6c-0.2,12.6-1.5,25-5.9,36.9c-15.7,42-62.8,69.4-106.1,73.5 c-7.3,0.7-14.8,0.4-22.2-0.7c1-2.4-0.1-4.9-2-6.3c-0.3-0.3-0.6-0.7-0.6-1.1c-0.5-2.9-2.7-5.3-5.9-5.1c-1.2,0.1-2.6,0.5-3.9,0.9 c0.9-3.3,1.2-6.6-0.5-10.2c-1-2.1-2.9-3.7-5.1-3.7c0.3-0.8,0.5-1.7,0.7-2.5c0.8-4.1-1.6-7.1-4.9-9.2c-5.8-3.8-15.6,0.8-17.8,6.8 c-2.5,6.6,7.4,11.5,9.9,4.9c0.1-0.4,0.3-0.7,0.5-0.9c-1.8,3.7-2.7,7-1.6,11.2c0.8,2.9,4.3,4.3,7,3.4c0.3-0.1,0.6-0.2,0.9-0.4 c-0.5,1.6-1.2,3.2-1.7,4.8c-2.7-1.2-5.4-2.6-7.9-4.1c-16.1-9.3-31.1-29.2-23.6-48.5c4.4-11.5,14.6-20.6,23.3-28.8 c10.1-9.5,20-19.3,28.2-30.5c17.1-23.5,21.1-50.9,22.2-79.3c0.3-6.7,0.4-13.3,0.6-20c1.3-1.6,2-3.5,1.6-5.8 c-0.2-1.1-0.7-2-1.3-2.7c0.1-1.3,0.1-2.5,0.2-3.8c0.1-1.2-0.2-2.3-0.7-3.2c0.8-3.1,4.1-5.8,6.2-7.8c3.5-3.4,7.3-6.7,11.2-9.7 c4.3-3.3,8.8-6.3,13.8-8.6c5.6-2.5,11.1-3,17-3.5c10.4-0.8,21.9,0.2,30.5,6.8c2.2,1.7,4.1,4.6,5.9,6.7c1.1,1.3,2.2,2.7,3.2,4 c0.4,0.5,0.9,1.5,1.2,1.9c0.5,1,1.3,1.8,2.4,2.5l-0.2,0.2c-3.4,3.4-0.7,7.8,2.9,8.7c9.5,25.7,16.2,52.4,19.9,79.6 C370,334.5,370.9,349,370.7,363.6z M344.2,119c25.5,0.8,50.5,8.7,67.1,29.8c5.1,6.5,9.3,13.8,12.3,21.6 c-4.9-0.3-10.1,0.9-14.6,2c-7.2,1.9-13.5,5.5-20.4,8.1c-15.6,6-35.3,12.9-45.3,27.2c-0.6,0.9-0.9,1.8-1,2.7 c-1.1-1.1-2.2-2.2-3.4-3.1c-3.9-2.9-8.2-5-12.8-6.3c0.5-0.8,0.9-1.8,0.9-3c0.1-6.9,0.9-13.6,2.3-20.3c1.3-6.7,3.7-13.1,4.9-19.8 c2.3-12.2,9.4-23,10.7-35.4C345,121,344.7,119.9,344.2,119z M334,120.2c-1.4,12.9-8.6,24.3-11,37c-1.3,6.7-3.7,13.3-5,20 c-1.4,7.1-2,14.3-2.1,21.5c0,0.1,0,0.1,0,0.2c-4.2-0.5-8.5-0.5-12.7-0.3c-3.5-22.7-5.3-45.7-5.3-68.7c0-2.8-1.7-4.3-3.7-4.8 c7.4-1.8,14.9-3.3,22.4-4.4c5.8-0.9,11.7-1.4,17.7-1.6C334.2,119.4,334.1,119.8,334,120.2z M366.3,259.9 c-1.2-3.9-2.4-7.7-3.7-11.5c3.6,0.7,7.1,1.8,10.4,3.1c2,0.8,4.5,1.8,6.5,3.3C375.3,256.9,370.8,258.6,366.3,259.9z M389.8,249.1 c-6.9-7.6-20.8-11.1-29.3-12.2c-0.7-0.1-1.3-0.1-1.8,0c-0.4-1.1-0.8-2.2-1.2-3.3c11.5-0.6,22.8-2.7,34.3-3.2 c4.8-0.2,9.6-0.4,14.4-0.2c1,0.1,2.7,0.2,4.3,0.4C404.5,237.7,397.5,244,389.8,249.1z M421.9,211.9c-1.3,3-2.9,6-4.6,8.9 c-6.9-2.4-16-1.7-22.1-1.5c-14.3,0.4-28.4,3.3-42.7,3.5c-1.3-2.1-3.4-4.1-4.7-5.8c1.3,0,2.7-0.6,3.7-2.1 c8.8-12.5,26-18.3,39.6-23.6c5.6-2.2,10.8-5.1,16.5-7c5-1.7,13.2-4.8,18.3-2c0.3,0.2,0.6,0.3,0.9,0.4 C428.2,192.5,425.9,202.8,421.9,211.9z M441.3,166.4c-0.4,6.1-1.7,12.1-3.7,17.9c-0.5-6.8-2.1-13.7-5-20.4 c-7.4-17.2-19.3-31.8-35.2-41.7c-14.9-9.3-32.5-13.1-49.9-14c-37.4-2.1-75.6,10-109.1,25.6c-16,7.4-31.3,16.1-45.7,26.3 c-18.2,12.8-35.9,27.7-48.3,46.4c-6.7,10.2-11.6,21.7-12.5,33.7c-5.4-12.9-7.9-26.9-7.3-41.4c0.9-24.6,10.7-48.8,25.2-68.4 C178,92.4,223,71.3,268.4,63.1c40.1-7.3,83.4-4.5,119.1,16.5c18.6,10.9,33.9,27.3,44.2,46.2 C438.5,138.1,442.3,152.3,441.3,166.4z"/></svg>