<svg xmlns="http://www.w3.org/2000/svg"  viewBox="0 0 48 48" width="64px" height="64px"><path fill="#38b47b" d="M12.262,4.206C10.439,4.082,8.63,4.337,7.019,5.16C5.436,5.968,4.504,7.653,4.379,9.1 c-0.297,3.439-0.609,7.872-0.134,11.291c0.844,6.08,0.565,10.007-0.093,16.109c-0.114,1.055-0.056,3.745,1.707,5.357 c1.713,1.568,2.715,1.538,4.324,1.588c5.47,0.167,9.939,0.334,15.409,0.501c3.689,0.113,7.382,0.225,11.07,0.073 c2.01-0.083,4.144-0.289,5.739-1.487c1.474-1.107,2.252-2.915,2.494-4.715c0.243-1.8,0.013-3.624-0.177-5.43 c-0.648-6.135-0.849-12.314-0.602-18.477c0.075-1.878,0.185-3.808-0.438-5.586c-2.003-5.718-9.695-3.177-14.258-2.947 C23.022,5.7,18.653,4.643,12.262,4.206z"/><path fill="#010101" d="M32.823,44.593c-2.424,0-4.844-0.073-7.212-0.146c-2.772-0.085-5.258-0.168-7.745-0.252 c-2.483-0.083-4.966-0.167-7.699-0.25L9.99,43.939c-1.557-0.046-2.683-0.079-4.469-1.713c-2.203-2.015-1.907-5.4-1.866-5.78 c0.629-5.839,0.949-9.829,0.094-15.986c-0.463-3.338-0.193-7.638,0.132-11.403c0.128-1.487,1.079-3.407,2.911-4.343 c1.586-0.811,3.435-1.147,5.504-1.007l0,0c2.222,0.152,4.191,0.377,6.097,0.596c3.527,0.402,6.862,0.781,11.003,0.576 c0.899-0.046,1.933-0.184,3.027-0.33c4.45-0.596,9.993-1.339,11.728,3.611c0.628,1.791,0.551,3.69,0.476,5.527l-0.01,0.243 c-0.246,6.114-0.045,12.307,0.599,18.405l0.042,0.396c0.181,1.684,0.366,3.425,0.134,5.152c-0.293,2.174-1.249,3.967-2.69,5.049 c-1.739,1.306-4.018,1.503-6.018,1.586C35.4,44.572,34.111,44.593,32.823,44.593z M11.396,4.676c-1.547,0-2.939,0.312-4.149,0.929 c-1.492,0.762-2.265,2.326-2.37,3.538c-0.32,3.711-0.587,7.94-0.138,11.181c0.871,6.271,0.547,10.314-0.09,16.23 c-0.128,1.189,0.053,3.568,1.547,4.935c1.512,1.384,2.333,1.408,3.824,1.452l0.179,0.005c2.733,0.084,5.218,0.167,7.702,0.251 c2.486,0.083,4.971,0.167,7.708,0.25c3.644,0.111,7.374,0.227,11.034,0.073c1.849-0.076,3.948-0.252,5.459-1.386 c1.653-1.241,2.15-3.278,2.3-4.383c0.216-1.607,0.036-3.287-0.138-4.912l-0.042-0.397c-0.648-6.147-0.853-12.389-0.604-18.551 l0.011-0.244c0.07-1.743,0.145-3.545-0.42-5.156c-1.466-4.181-6.349-3.527-10.651-2.95c-1.116,0.148-2.169,0.29-3.109,0.337 c-4.23,0.214-7.599-0.173-11.167-0.581c-1.894-0.217-3.852-0.44-6.051-0.591l0,0C11.946,4.686,11.668,4.676,11.396,4.676z"/><g><path fill="#d6e5e5" d="M28.948,13.774c0.389-0.961,1.185-2.137,0.55-2.956c-0.365-0.471-0.977-0.681-1.567-0.758 c-0.891-0.117-1.582-0.377-2.297,0.167c-0.715,0.544-0.733,1.599-1.101,2.789c-1.902-0.133-3.874,0.365-5.377,1.538 c-1.503,1.174-2.483,3.049-2.408,4.954c0.079,2.017,1.295,3.856,2.856,5.136c1.561,1.28,3.45,2.083,5.322,2.84 c0.73,0.295,1.479,0.597,2.062,1.127s0.973,1.347,0.778,2.11c-0.293,1.141-1.664,1.609-2.841,1.665 c-2.227,0.106-4.484-0.616-6.237-1.994c-0.399-0.314-1.2-0.911-1.75-1.285c-0.5,0.5-0.978,0.938-1.43,1.531 s-0.844,1.143-1.349,1.774c1.575,1.748,3.606,3.082,5.835,3.834c-0.475,1.264-0.973,2.193-0.358,2.863 c0.615,0.671,2.054,0.517,2.957,0.408c0.493-0.06,1.02-0.246,1.267-0.677c0.273-0.476,0.323-1.296,0.456-2.246 c0.833,0,1.496-0.063,2.398-0.233c2.487-0.468,4.642-2.387,5.605-4.727c0.963-2.34,0.304-5.351-1.771-6.799 c-1.162-0.811-2.604-1.086-3.914-1.626c-1.209-0.498-2.32-1.234-3.251-2.153c-0.607-0.599-1.172-1.409-0.982-2.24 c0.239-1.047,1.505-1.477,2.578-1.505c2.147-0.055,4.302,0.798,5.83,2.306c0.307,0.304,0.657,0.659,1.087,0.621 c0.289-0.026,0.527-0.228,0.741-0.424c0.88-0.808,1.15-1.116,1.906-2.041c0.56-0.686,0.649-1.067,0.2-1.516 c-0.516-0.516-1.824-1.096-2.365-1.399C32.064,14.68,29.931,13.974,28.948,13.774z"/><path fill="#010101" d="M21.324,40.112c-0.761,0-1.567-0.136-2.055-0.667c-0.744-0.812-0.347-1.825,0.073-2.897l0.002-0.006 c-2.123-0.804-4.035-2.109-5.556-3.797c-0.164-0.183-0.172-0.456-0.019-0.647c0.325-0.406,0.603-0.778,0.88-1.149l0.463-0.616 c0.389-0.51,0.801-0.916,1.2-1.31l0.273-0.271c0.17-0.17,0.438-0.195,0.635-0.06c0.539,0.368,1.342,0.964,1.777,1.305 c1.652,1.299,3.801,1.981,5.905,1.889c0.957-0.047,2.154-0.412,2.379-1.291c0.16-0.624-0.238-1.26-0.63-1.615 c-0.515-0.468-1.223-0.754-1.908-1.03c-1.973-0.799-3.872-1.621-5.456-2.919c-1.854-1.52-2.961-3.525-3.039-5.503 c-0.079-1.998,0.917-4.056,2.6-5.368c1.426-1.114,3.341-1.712,5.313-1.662c0.05-0.192,0.094-0.379,0.136-0.559 c0.194-0.828,0.377-1.61,1.034-2.11c0.757-0.577,1.501-0.454,2.22-0.334c0.143,0.023,0.291,0.049,0.444,0.068 c0.849,0.112,1.505,0.44,1.898,0.949c0.697,0.9,0.183,2.003-0.231,2.89c-0.004,0.009-0.009,0.018-0.013,0.026 c1.085,0.288,2.648,0.81,2.975,0.992c0.13,0.073,0.306,0.162,0.505,0.263c0.68,0.346,1.525,0.775,1.97,1.22 c0.892,0.892,0.177,1.766-0.167,2.186c-0.792,0.968-1.067,1.277-1.955,2.093c-0.27,0.248-0.594,0.515-1.035,0.554 c-0.664,0.066-1.119-0.404-1.461-0.742c-1.445-1.427-3.479-2.242-5.487-2.183c-0.926,0.023-1.936,0.377-2.104,1.115 c-0.144,0.634,0.381,1.313,0.846,1.772c0.881,0.869,1.949,1.577,3.091,2.048c0.421,0.173,0.855,0.318,1.29,0.463 c0.925,0.31,1.881,0.629,2.72,1.215c2.175,1.518,3.03,4.769,1.947,7.399c-1.057,2.569-3.402,4.544-5.974,5.028 c-0.766,0.144-1.375,0.215-2.052,0.234l-0.017,0.129c-0.096,0.755-0.178,1.406-0.445,1.873c-0.293,0.511-0.861,0.83-1.641,0.924 C22.299,40.054,21.821,40.112,21.324,40.112z M14.818,32.383c1.477,1.538,3.314,2.705,5.337,3.388 c0.128,0.043,0.234,0.137,0.292,0.259c0.058,0.123,0.064,0.264,0.017,0.391l-0.19,0.493c-0.388,0.988-0.576,1.521-0.268,1.856 c0.458,0.501,1.91,0.324,2.529,0.249c0.209-0.025,0.714-0.118,0.894-0.43c0.167-0.292,0.238-0.853,0.32-1.501l0.074-0.565 c0.035-0.247,0.246-0.431,0.495-0.431c0.81,0,1.435-0.061,2.307-0.224c2.247-0.424,4.302-2.161,5.234-4.427 c0.911-2.215,0.211-4.938-1.596-6.198c-0.721-0.503-1.567-0.786-2.465-1.086c-0.455-0.153-0.912-0.306-1.354-0.488 c-1.261-0.519-2.44-1.3-3.412-2.26c-0.927-0.914-1.314-1.85-1.119-2.707c0.307-1.348,1.837-1.861,3.053-1.893 c2.235-0.069,4.58,0.856,6.194,2.45c0.236,0.233,0.535,0.516,0.69,0.479c0.13-0.012,0.3-0.158,0.448-0.294 c0.846-0.777,1.09-1.052,1.857-1.989c0.485-0.594,0.406-0.673,0.233-0.846c-0.332-0.332-1.165-0.755-1.716-1.035 c-0.213-0.107-0.4-0.203-0.54-0.281c-0.238-0.132-2.285-0.825-3.287-1.029c-0.146-0.03-0.271-0.123-0.341-0.254 s-0.079-0.286-0.023-0.424c0.079-0.195,0.175-0.399,0.271-0.607c0.393-0.842,0.647-1.467,0.347-1.854 c-0.289-0.374-0.832-0.517-1.237-0.569c-0.165-0.021-0.324-0.048-0.479-0.074c-0.7-0.116-1.056-0.158-1.45,0.144 c-0.371,0.281-0.501,0.838-0.666,1.542c-0.074,0.315-0.152,0.65-0.26,0.996c-0.069,0.223-0.283,0.369-0.512,0.352 c-1.867-0.137-3.702,0.393-5.035,1.434c-1.433,1.119-2.282,2.858-2.216,4.541c0.067,1.692,1.042,3.43,2.674,4.769 c1.476,1.209,3.298,1.997,5.192,2.763c0.771,0.312,1.563,0.632,2.211,1.22c0.625,0.568,1.196,1.551,0.926,2.604 c-0.359,1.404-1.94,1.975-3.3,2.04c-2.333,0.119-4.732-0.654-6.571-2.101c-0.297-0.233-0.881-0.671-1.385-1.029 c-0.384,0.378-0.747,0.738-1.087,1.185l-0.457,0.607C15.247,31.82,15.042,32.095,14.818,32.383z"/></g></svg>