<svg xmlns="http://www.w3.org/2000/svg"  viewBox="0 0 512 512" width="64px" height="64px"><path fill="#71C598" d="M117.3,224.9c-6.6-0.8-12.7,0.9-15.6,7.3c-2.7,5.7-3.3,12.1-3.3,18.4c0,3.4-2.6,5.3-5.2,5.7c0.4,2.1,1,4,1.5,5.5c1.9,5.7,4.6,12.7,9.6,16.5c14.6,11.1,30.3-2.6,32.4-18C138.5,246.8,133.4,226.9,117.3,224.9z"/><path fill="#71C598" d="M465.8,156.3c-21.3-43.4-61.6-77.5-104.2-99c-42.8-21.7-92.3-33.1-140.1-25.5C130.2,46.2,42.2,121.4,37.1,217.6c-0.1,2.2-1.4,3.7-2.9,4.5c-1.3,8.6-2.1,17.2-2.9,25.8c-0.8,9.2-1.2,18.4-1.1,27.6c0.3,18.1,2.4,36.2,6.9,53.7c8.7,33.3,25.5,64.8,52,87.3c18.2,15.5,39.5,25.7,62.4,32.3c25,7.3,51,11.4,77.1,11.5c51.5,0.1,103.2-13.9,145.6-43.7C452.7,361.4,511.8,249.7,465.8,156.3z M113,154c1.5-9.8,9.8-17.4,17.2-23.2c8.1-6.4,17-11.4,25.8-16.8c11.9-7.2,24.2-14.3,37.4-19c12.3-4.5,25.3-7.4,38.2-9.1c26.5-3.6,54.6-2.5,80.2,5.7c23,7.4,47.2,21.4,60.2,42.4c3.7,6-5.4,12.2-9.1,6.2c-11.9-19.3-34.9-32.6-56.3-38.7c-24-6.8-49.5-8.1-74.1-4.6c-12.5,1.8-25.2,4.5-37,9.1c-11.7,4.6-22.6,10.7-33.3,17.2c-7.6,4.6-15.4,9-22.6,14.3c-6,4.5-14.5,10.6-15.7,18.6C122.7,163.1,111.9,160.9,113,154z M233.6,201.2c0.8,8.8,2.2,17.6,3.6,26.4c2.2,12.8,1.8,25.8,4.1,38.6c0.7,3.8,0.9,9,5.5,9.5c4.5,0.5,9.1-0.2,13.6-0.2c7.1-0.1,7.9,10.9,0.8,11c-10.7,0.1-24.6,2.7-28.9-10.3c-5-15-3.3-31.6-6-47c-1.8-10.4-3.5-21-4.1-31.6c-0.4-7.5-1.7-19.7,5.5-24.7c5.7-4,11.8,4.8,6.4,8.9c0,0.1-0.1,0.2-0.2,0.3c-0.1,0.2-0.2,0.4-0.2,0.4c0,0.1,0,0.3-0.1,0.6c-0.3,1.4-0.5,2.8-0.6,4.3C233,192.1,233.2,196.7,233.6,201.2z M265.9,189.9v-1.5c0-1.5,0.3-2.9,1.4-4.1c0.9-1.1,2.3-1.7,3.7-1.9c1.5-0.1,2.9,0.4,4.1,1.4c1,0.9,1.9,2.3,1.9,3.7v1.5c0,1.5-0.3,2.9-1.4,4.1c-0.9,1.1-2.3,1.7-3.7,1.9c-1.5,0.1-2.9-0.4-4.1-1.4C266.7,192.8,265.9,191.3,265.9,189.9z M270.4,221.4c0-7.1,11-7.9,11-0.8c0,13-0.5,27.3,4.5,39.6c1.6,4,3.8,8,7.9,9.9c2.1,1,4.3,1.8,6.6,1.5c0.7-0.1,1.4-0.1,2.1-0.2c2-3.9,8.6-5,10.1,0.4c2,7.2-5.2,10.7-11.3,10.9c-7.3,0.2-14.5-2.6-19.5-8C269.4,261,270.4,238.4,270.4,221.4z M173.4,238.6c0.2,3-1.7,4.9-4,5.5c0,1.2,0,2.4,0,3.6c0.1,9.5-0.4,22.5,6,30.3c4.5,5.5-4.6,11.6-9.1,6.2c-7.4-9-7.7-23.2-7.9-34.2c-0.2-12.5,0.9-24.9,0.9-37.4c0-7.1,11-7.9,11-0.8c0,3.4-0.1,6.7-0.2,10.1c1.1-0.8,2.3-1.6,3.6-2.2c6.4-3.1,15.2-3.1,21.3,0.8c18.9,12.1,10.7,37.8,17,55.9c2.3,6.7-8.1,10.3-10.4,3.6c-2.7-7.7-2.9-16-3.5-24.1c-0.5-7.4-0.6-17.4-5.6-23.4C186.3,224.9,172.8,228.2,173.4,238.6z M97.7,287c-7.2-5.5-11.9-15.3-14.1-23.9c-2.1-8.2-3.3-17.5,2.1-24.7c0.9-1.2,1.9-1.8,3-2c1-4.6,2.6-9.1,5.4-13c5.9-8.3,16.8-11.5,26.6-9.1c21.4,5.2,31.4,30.4,26.2,50.7c-2.8,10.8-9.3,21.2-19.8,25.9C117.5,295.2,106.1,293.3,97.7,287z M365.5,353.6c-13.2,19.2-37.9,30.9-59.2,38.6c-24.5,8.9-50.8,12.8-76.8,11.5c-24.5-1.3-49-5.7-70.6-17.9c-9.7-5.5-17.6-12.7-26.4-19.4c-6.6-5-15.2-10.9-11.6-20.4c2.5-6.4,11.8-2,10.1,4.3c0,0.1,0.1,0.5,0.6,1c0.4,0.5,0.9,1,1.4,1.4c1.6,1.4,3.2,2.7,4.8,3.9c3.6,2.7,6.8,5.8,10.2,8.6c7.7,6.2,16.1,11.4,25.2,15.4c20.2,8.8,42.3,12.3,64.3,12.3c23.4,0,46.7-3.8,68.5-12.4c18.6-7.4,39.4-17.2,51.2-34.2C361.3,340.5,369.5,347.8,365.5,353.6z M370,277.1c-6.6,6-14.2,3.8-17.4-4.4c-3.2-8.4-2.5-17.2-2.9-26c-0.3-6.4-0.7-13.1-2.9-19.2c-0.8-2.2-1.7-4.4-2.9-6.4c-0.3-0.6-0.7-1.5-1.2-2c-0.1-0.1-0.2-0.2-0.3-0.2c-2.8-0.1-8.2,3.3-10.2,4.9c-3.1,2.6-5.8,6.1-6,10.2c-0.1,1.5-0.7,2.6-1.6,3.4c0,2.1,0.1,4.3,0.1,6.4c0.3,8.7,0.4,18.3,4.2,26.4c3,6.4-7.4,10-10.4,3.6c-4.1-8.8-4.5-19.6-4.8-29.1c-0.3-10.8,0-21.5,0-32.2c0-7.1,11-7.9,11-0.8c0,1.5,0,3.1,0,4.6c2.9-2.3,6.1-4.1,9.2-5.7c8-4.1,15.2-2.8,19.6,5.5c5.8,11,7.1,22.9,7.2,35.2c0,4.4-0.1,8.9,0.8,13.3c0.3,1.4,0.6,3.2,1.3,4.6C368.1,266.2,374.9,272.7,370,277.1z M415.1,214.3c-5.5-4.2-13.3-6-20.1-4.8c-6.6,1.1-11.8,6.7-14.7,12.5c-5.9,11.8-4.1,26.7,4.2,36.9c9.5,11.7,23.7,10.5,35.3,2.5c5.9-4,12,5.1,6.1,9.1c-7.9,5.4-16.9,9-26.6,8.2c-16.2-1.3-28.9-15.5-32.2-30.9c-3.5-16.1,0.9-37.4,16.8-45.9c7.9-4.2,17.5-4.9,26.1-2.1c7.6,2.5,16.3,7,19.1,15.2c3.1,8.9-2.3,18.5-10.2,23c-11.8,6.6-23.5,2.3-36.1,2c-7-0.1-7.9-11.1-0.8-11c9.6,0.2,23.7,5.6,32.1-1.1C419.4,223.7,420.9,218.7,415.1,214.3z"/><path d="M465.5,135.4C440.3,95,399.5,63.7,356.8,43.8c-43.3-20.2-92.9-29.5-140.3-21.3C125.7,38.2,39.4,111,28.2,205.5c-0.2,1.3-0.3,2.5-0.4,3.8c-1,0.6-1.7,1.7-2,3.1c-2.7,13.3-3.9,26.9-4.8,40.4c-0.8,11.4-0.9,22.9-0.3,34.3c1.3,22.3,5.6,44.5,13.3,65.5c15.3,41.8,45.5,76.5,86.1,95.3c23.1,10.6,48.8,16.7,73.9,20c25.5,3.3,51.5,3.1,77-0.6c50.9-7.4,98.5-29.7,136.1-64.8c36.4-33.9,65-77.6,78.1-125.8C498.3,228.8,492,177.8,465.5,135.4z M374.2,416.6c-42.4,29.8-94.1,43.8-145.6,43.7c-26.1-0.1-52.1-4.2-77.1-11.5c-22.9-6.7-44.2-16.8-62.4-32.3c-26.5-22.5-43.3-54-52-87.3c-4.5-17.5-6.6-35.6-6.9-53.7c-0.2-9.2,0.2-18.4,1.1-27.6c0.8-8.7,1.6-17.3,2.9-25.8c1.6-0.8,2.8-2.3,2.9-4.5c5.1-96.2,93.1-171.4,184.4-185.8c47.9-7.6,97.3,3.8,140.1,25.5c42.6,21.5,82.8,55.7,104.2,99C511.8,249.7,452.7,361.4,374.2,416.6z"/><path d="M120.8 214.4c-9.8-2.4-20.7.8-26.6 9.1-2.8 3.9-4.4 8.3-5.4 13-1.1.2-2.1.8-3 2-5.4 7.2-4.2 16.5-2.1 24.7 2.2 8.6 6.8 18.4 14.1 23.9 8.4 6.4 19.8 8.3 29.4 4 10.5-4.7 17-15.1 19.8-25.9C152.1 244.8 142.2 219.6 120.8 214.4zM136.7 260.2c-2.1 15.4-17.8 29-32.4 18-5-3.8-7.7-10.7-9.6-16.5-.5-1.5-1.1-3.4-1.5-5.5 2.6-.3 5.2-2.3 5.2-5.7 0-6.2.6-12.7 3.3-18.4 3-6.4 9-8.1 15.6-7.3C133.4 226.9 138.5 246.8 136.7 260.2zM212.1 276.2c-6.3-18.1 1.8-43.7-17-55.9-6.1-3.9-14.9-4-21.3-.8-1.3.6-2.5 1.4-3.6 2.2.1-3.4.2-6.7.2-10.1 0-7.1-10.9-6.2-11 .8 0 12.5-1.1 24.9-.9 37.4.2 11 .5 25.3 7.9 34.2 4.5 5.4 13.6-.7 9.1-6.2-6.4-7.8-5.9-20.8-6-30.3 0-1.2 0-2.4 0-3.6 2.2-.6 4.1-2.5 4-5.5-.5-10.4 12.9-13.7 19.2-6.3 5 6 5.1 16 5.6 23.4.6 8.1.8 16.4 3.5 24.1C204 286.5 214.4 282.9 212.1 276.2zM260.5 275.5c-4.5 0-9.1.7-13.6.2-4.7-.5-4.9-5.7-5.5-9.5-2.2-12.8-1.9-25.8-4.1-38.6-1.5-8.8-2.8-17.5-3.6-26.4-.4-4.6-.7-9.2-.5-13.7 0-1.4.3-2.9.6-4.3.1-.3.1-.5.1-.6 0-.1.1-.2.2-.4.1-.2.1-.3.2-.3 5.4-4.1-.7-12.9-6.4-8.9-7.2 5-5.9 17.1-5.5 24.7.6 10.6 2.3 21.1 4.1 31.6 2.6 15.4 1 32 6 47 4.3 13 18.2 10.4 28.9 10.3C268.4 286.4 267.5 275.5 260.5 275.5zM312.6 271.7c-1.5-5.3-8.1-4.3-10.1-.4-.7.2-1.4.2-2.1.2-2.4.2-4.5-.6-6.6-1.5-4.1-1.9-6.3-5.9-7.9-9.9-5-12.3-4.5-26.5-4.5-39.6 0-7.1-11-6.2-11 .8 0 17-1 39.6 11.4 53.1 5 5.4 12.1 8.2 19.5 8C307.4 282.4 314.6 278.9 312.6 271.7zM275 183.9c-1.1-1-2.6-1.5-4.1-1.4-1.4.1-2.8.8-3.7 1.9-1 1.2-1.4 2.5-1.4 4.1v1.5c0 1.4.9 2.8 1.9 3.7 1.1 1 2.6 1.5 4.1 1.4 1.4-.1 2.8-.8 3.7-1.9 1-1.2 1.4-2.5 1.4-4.1v-1.5C276.9 186.2 276 184.7 275 183.9zM362.9 269c-.7-1.4-1-3.2-1.3-4.6-.9-4.4-.8-8.8-.8-13.3-.1-12.3-1.4-24.2-7.2-35.2-4.4-8.3-11.5-9.6-19.6-5.5-3.1 1.6-6.4 3.5-9.2 5.7 0-1.5 0-3.1 0-4.6 0-7.1-11-6.2-11 .8 0 10.8-.3 21.5 0 32.2.3 9.5.6 20.3 4.8 29.1 3 6.3 13.4 2.8 10.4-3.6-3.8-8-3.9-17.7-4.2-26.4-.1-2.1-.1-4.3-.1-6.4.9-.7 1.5-1.8 1.6-3.4.3-4.1 3-7.7 6-10.2 1.9-1.6 7.4-5 10.2-4.9.1.1.2.1.3.2.5.4.9 1.4 1.2 2 1.2 2 2.1 4.2 2.9 6.4 2.2 6.1 2.6 12.7 2.9 19.2.4 8.8-.4 17.6 2.9 26 3.2 8.3 10.8 10.4 17.4 4.4C374.9 272.7 368.1 266.2 362.9 269zM419.8 261.4c-11.6 8-25.8 9.1-35.3-2.5-8.3-10.2-10.1-25.2-4.2-36.9 2.9-5.8 8.1-11.4 14.7-12.5 6.8-1.2 14.6.7 20.1 4.8 5.8 4.4 4.3 9.5-1 13.7-8.4 6.6-22.4 1.2-32.1 1.1-7.1-.1-6.2 10.8.8 11 12.6.2 24.2 4.6 36.1-2 8-4.5 13.3-14.1 10.2-23-2.8-8.2-11.4-12.7-19.1-15.2-8.6-2.8-18.2-2.2-26.1 2.1-15.9 8.5-20.3 29.8-16.8 45.9 3.4 15.4 16 29.5 32.2 30.9 9.6.8 18.7-2.8 26.6-8.2C431.8 266.5 425.7 257.4 419.8 261.4zM371.9 133.9c-13-21-37.2-35-60.2-42.4-25.6-8.2-53.7-9.2-80.2-5.7-12.9 1.7-26 4.7-38.2 9.1-13.2 4.8-25.4 11.8-37.4 19-8.8 5.3-17.7 10.4-25.8 16.8-7.4 5.8-15.7 13.4-17.2 23.2-1 7 9.7 9.1 10.8 2.1 1.2-8 9.7-14.1 15.7-18.6 7.2-5.4 15-9.7 22.6-14.3 10.7-6.5 21.6-12.6 33.3-17.2 11.8-4.6 24.4-7.3 37-9.1 24.7-3.6 50.1-2.3 74.1 4.6 21.4 6.1 44.4 19.5 56.3 38.7C366.6 146.1 375.7 139.9 371.9 133.9zM357.2 346.4c-11.7 17-32.5 26.8-51.2 34.2-21.8 8.6-45.1 12.4-68.5 12.4-22 0-44-3.5-64.3-12.3-9.1-4-17.5-9.2-25.2-15.4-3.5-2.8-6.7-5.9-10.2-8.6-1.7-1.2-3.3-2.5-4.8-3.9-.5-.4-1-.9-1.4-1.4-.5-.5-.6-.9-.6-1 1.7-6.3-7.6-10.7-10.1-4.3-3.6 9.4 5 15.3 11.6 20.4 8.8 6.7 16.6 13.9 26.4 19.4 21.6 12.2 46.1 16.6 70.6 17.9 26 1.3 52.3-2.6 76.8-11.5 21.3-7.7 45.9-19.4 59.2-38.6C369.5 347.8 361.3 340.5 357.2 346.4z"/></svg>