<svg xmlns="http://www.w3.org/2000/svg"  viewBox="0 0 512 512" width="64px" height="64px"><path fill="#74CCCF" d="M333.8 415.8c-14.5-9.7-28.8-19.8-42.2-31-7.4-6.2-15.1-12.7-20.9-20.5-1.6-2.1-3.1-4.4-4-6.8-11.1 11.5-23 22.3-35.8 31.9 1 1.3 1.5 3.1 1.2 4.7.2.2.5.5.9.9 1.9 1.9 4 3.7 6.1 5.4 1.7 1.3 3.4 2.7 5.1 3.9 10.4-21.4 47.8-12.8 59.1 4.9.5.8.7 1.5.9 2.2.5.1.9.3 1.3.5 2.8.6 5.6 1.2 8.5 1.6 5.5.7 11 1.3 16.5 1.9 1.2.1 2.3.3 3.5.4C333.9 415.9 333.9 415.8 333.8 415.8zM179.6 65.9c-9.3 4.3-18.4 9.1-27 14.4 1 3-1.3 7-4.9 7.4-.5.7-1.2 1.9-2 3.5-1.9 4-3.5 8.2-4.8 12.5-3.6 11.1-6.5 22.4-9.3 33.8-1.9 7.8-4.9 16-5.9 23.9-.6 4.8-.8 9.6-.8 14.4 2.7-4 5.8-7.7 8.9-11.1 7.1-7.8 14.9-14.9 22.3-22.5 6.5-6.7 13.1-13.4 20.1-19.7C175.7 103.5 174.3 84.2 179.6 65.9zM312.1 61.6c-1.4-.7-2.4-2.1-2.4-4.3v-4.9c-5.5-1.5-11.1-2.8-16.8-3.8-34.1-5.9-69.5-.4-101.9 12.4.6 1.3.7 2.7.1 4.3-4.2 11.3-4.7 23.6-4.5 35.5.1 4.2.1 8.5.2 12.7 5.1-3.9 10.6-7.6 16.6-9.6.6-2.6 3.1-4.3 5.6-4.4-.9-9 .5-18.1 6.3-25.6 6.4-8.3 16.8-12.8 27.1-13.5 12.7-.9 26.4 3 35.2 12.6 2.5 2.7 4.5 5.9 6 9.3 6.2-4.5 15-5.4 22.2-6.8 7-1.4 7.7 9.6.8 11-3.7.7-7.4 1.3-11 2.4-2.2.7-5.8 1.4-7 3.6-.6 1-1.4 1.7-2.2 2.2.4 6.8-1.2 13.7-4.7 19.5-15.9 25.8-60.6 27-75.1.3-7.1 2.4-13.8 8.3-19.2 12.8-.1.1-.2.2-.3.3 0 2.5.1 4.9.1 7.4.2 12.2.8 24.4 2.3 36.5 1.6 12.2 4.4 23.9 7.6 35.7 8.3 31.4 19 62 34.9 89.9 14.3-8.8 27.6-19.3 38.5-32.2.8-1 1.8-1.6 2.8-1.8-2.2-3.2-4.1-6.5-5.8-10.1-4.8-10.3-8-23.1-5.3-34.4 4.5-18.8 22.9-26 40.5-27.3 1.2-9.5 3.8-18.6 6.3-27.9 3.3-11.8 5.1-23.2 5.7-35.4C315.8 105.9 316.5 83.2 312.1 61.6zM279.9 270.4c-.2.6-.5 1.1-1 1.6-11.5 13.6-25.7 25.1-41 34.4 3 4.7 6.1 9.3 9.4 13.8 2.4-.4 5 .6 5.8 3.2 3.7-4.2 7.2-8.5 10.4-13 5.6-7.8 8.8-15.1 11.5-24.2 1.5-5 2.9-10.5 5.6-15.2C280.4 270.7 280.1 270.5 279.9 270.4zM207.3 272c-9.2-21.6-15.3-43.9-21.7-66.4-6.4-22.3-8.7-45.3-9.2-68.4-4.1 4-8.1 8.1-12 12.1-6.4 6.6-13.2 12.8-19.5 19.4-6.2 6.5-15.8 15.9-16.1 25.6-.1 2.1-1.1 3.6-2.4 4.6.8 7.3 1.7 14.6 2.3 21.9h.3c.2 0 .4 0 .6 0 18.3.7 36.2 12.3 42.4 29.6 5.3 14.7 6.6 34.2-4 47-.5.7-1.2 1.1-1.8 1.5-.4 7.1 1.2 13.5 4.1 19.5.2 0 .4-.1.6-.1 18.1-.9 35.8-7.3 51.7-15.9C216.8 292.7 211.8 282.5 207.3 272z"/><path fill="#BCBCBC" d="M264.4 76.1c-9.8-5.7-22.6-6.8-32.9-1.7-12.2 6-13.5 19.8-10.1 31.7.8 2.9-.6 5.3-2.7 6.4 3.8 4.8 9.3 8.1 15.7 9.5 13.5 2.9 31.6-.9 38.2-14.4C278.1 96.5 275.4 82.5 264.4 76.1zM420.6 128.4c-3-3.7-6.1-7.3-9.4-10.8-.3.1-.7.2-1.1.3-14.4 2.1-6.1 25.5 0 31.8 8.2 8.5 21.2 7.4 32 9.8C435.8 148.6 428.5 138.2 420.6 128.4zM446.7 213.4c-4.4-3.2-10-3.3-14.4-.1-3.5 2.6-8.5 8.2-6.1 13 2.2 4.5-1.7 8.9-5.4 8.8.6 3.4 2.4 6.5 5.6 9 6.7 5.3 15.6 4.8 21.1-2C453.9 234.2 456 220.1 446.7 213.4z"/><path fill="#74CCCF" d="M363.7,85.9c-1.2-0.5-2.2-1.6-2.6-3.2c-0.9-3.4-8.5-2-12.9-0.6c1.1,26.7,3.5,54.6-0.2,81C357.2,138.4,363,112.2,363.7,85.9z"/><path fill="#74CCCF" d="M436.2 172c-.3-.6-.5-1.4-.5-2.3v-.4c-6.5-1-13.3-1.5-19.5-3.5-8.1-2.7-14.4-7.7-18.7-15.1-7.6-13-9.4-34.9 5.3-42-8.8-8.7-18.2-16.9-28.2-24.2-.8 35.3-10 70.1-24.5 102.2-1.7 3.7-5.6 3.7-8.1 1.8-1.5 4.4-3.2 8.7-5.3 12.9.5.4 1 .8 1.6 1.2 2 1.6 3.4 4.7 4.7 6.9 2.4 3.9 4.6 7.9 6.2 12.2 3.6 9.9 6.6 22.1 4.5 32.6-2 10.2-8.4 17.6-17.8 21.9-6.1 2.7-14.1 5.6-19.9 1.8 0 .1 0 .2 0 .3 0 0 0 0 0 0-2.6 23.6-19.5 44.7-34.3 62.2-1.8 2.2-3.7 4.3-5.6 6.5.7 1.5.9 3.4 0 5.1 0 .1.1.2.1.5-.2-.9.7 1.6.7 1.7 1.6 2.8 3.6 5.3 5.8 7.6 6.1 6.5 13 12.4 20 17.9 7.4 5.9 15 11.5 22.7 17 2.9 2.1 5.9 4.1 8.8 6.2 1.1.7 2.1 1.5 3.2 2.2.2.1.4.2.4.3.1 0 .2.1.6.4.2.1.3.2.5.4 0 0 0 0 0 0 2.3-1.5 6.2-1.2 7.6 1.5.2.4.4.8.7 1.1 0 .1.1.1.1.1.4.4.8.7 1.2 1 .2.1 1.2.7 1.4.8.2.1.5.3.7.4 1-.9 2.3-1.4 3.8-1.4 0 0 0 0 0 0 .9-.5 1.7-1.1 2.5-1.7 1.9-1.5 3.7-3.3 5.3-5.2 3.9-4.3 7.6-8.9 11.1-13.5 7.9-10.3 15.8-20.7 23.2-31.4 10.1-14.4 18.3-30.4 25.1-46.6 6.4-15.3 11.5-32 10.6-48.7-.1-1.8.6-3.3 1.6-4.2-4.7-.3-9.5-2-13.8-5.1-12.8-9.4-14-26-4.5-38.2.4-.5.8-.9 1.3-1.2 3.4-6.6 10.2-11.8 17.7-13.4-2.1-8.2.6-19 .7-26.4C435.8 173.4 435.9 172.7 436.2 172zM339 415.8c-.3.2-.5.4-.8.5.5 0 .9.1 1.4.1C339.3 416.2 339.2 416 339 415.8zM347.8 67.7c0 1 0 2 .1 3 1.3-.3 2.8-.6 4.2-.7C350.6 69.2 349.2 68.4 347.8 67.7zM243.2 332.9c-5.4-6.8-10.4-13.8-15-21.1-16.1 8.5-33.5 15.3-51.6 17.1 9.2 12.7 22.2 24 29.3 36.8 0 .1.1.1.1.2 2.5-1.9 4.9-3.8 7.3-5.8 10.3-8.5 20.7-17.3 30.3-26.8C243.4 333.2 243.3 333.1 243.2 332.9z"/><path fill="#127274" d="M375.4,428.1c-12.9,1.5-26.4,0.5-39.3-0.9c-7.5-0.8-14.9-1.7-22.4-2.6c-4.5-0.5-8.7-1.6-13.1-2.3c-2.3-0.4-4.1-2.6-4.5-5c-0.7-0.4-1.4-1-2-1.9c-6.6-10.5-37-21.4-41-3.5c-0.4,1.7-1.3,2.9-2.5,3.5c-1.4,2.1-3.9,3.4-6.8,1.8c-5.9-3.1-11.7-8-16.5-12.5c-2-1.9-4.8-5.1-6.2-8.2c-4,2.8-8.1,5.5-12.2,8.1c0.2,0.4,0.4,0.9,0.6,1.5c3.2,12.5,18.3,18.8,28.9,24.6c3.9-0.1,7.7,5.1,4.6,9.3c0.2-0.2,0.1-0.1,0.1,0c0.1,0.2,0.5,1.6,0.2,1.2c1.5,2.6,2.8,3.9,5.3,5.9c5.4,4.3,11.9,7.5,18.6,9.2c6.4,1.7,13.8,2.8,20.1,0c6.4-2.8,8.8-9.8,9.1-16.6c0.2-4.7,5.2-6.6,8.4-5.3c1-0.8,2.5-1.1,4.2-0.5c13.6,4.4,27.5,6,41.8,5.9c4.9,0,9.8-0.1,14.7-0.5c3-0.2,7.6-0.2,9.9-1.6c2.9-1.7,5.8-0.5,7.4,1.5c7.1-5,13.8-10.5,20.1-16.5C393.6,424.5,384.6,427,375.4,428.1z"/><path fill="#74CCCF" d="M351.4 450.8c-15.2 0-30.2-1.4-44.7-6.1 0 0 0 0-.1 0-1.5 9.1-5.7 17.2-14.6 21.4-8.8 4.2-19.6 3.3-28.7.5-9.8-3-32.9-13.8-31.6-27.1-12.6-6.9-28.2-14.7-32.5-29.1-9.3 5.6-18.8 10.8-28.3 15.8.2.5.3 1.1.3 1.7.2 9.9 3.5 21.4 8.8 29.9 1.6 2.7 3.1 5.4 4.8 8 1 1.6 2.1 3.2 3.3 4.7 1 1.2 1.7 1-.1 1 3.8-.1 5.8 3 5.8 5.9 28.4 3.1 57.8 2 86-2 28.7-4.1 57.8-11.2 83.7-24.7C359.3 451 355.1 450.8 351.4 450.8zM458.7 193.3c-3.4-8.9-7.4-17.5-12-25.9v1.5c0 .8-.2 1.6-.4 2.2.3.6.4 1.4.4 2.3-.1 5.1-.7 10.2-.9 15.3-.1 3.5-1 9.1 1.5 12 .2.3.4.6.6.9 0 0 0 0 .1 0 17.3 7 19.6 29.3 10.7 43.7-4.1 6.7-10.3 11-17.1 12.6 1.2.8 2 2.1 2.1 4 1 18.7-4.4 37.4-11.7 54.5-7.6 17.7-16.5 34.8-27.8 50.4-8.4 11.7-16.8 23.3-25.8 34.6-3.7 4.7-8.9 12.1-15.1 16.3 4.8 0 9.9 0 14.5-1.2 5-1.3 10.3-1.4 15.4-2.8 3.8-1 7.5-2.1 11.4-2.5.6-.1 1.2-.1 1.9-.2.9-2 2.9-3.4 5.7-2.6.9.3 1.9.7 2.8 1.2 2.5-2.9 4.9-5.9 7.3-8.9 29.6-38.8 47.4-87.9 48.1-136.8C470.8 239.9 467.4 215.8 458.7 193.3z"/><path fill="#127274" d="M171.8,465.4c-6-10-10.5-22.1-11.4-33.9c-6.3,3.1-12.9,5.9-19.5,8.1c0.8,1.6,0.9,3.6,0.1,5.3c0,0.1,0,0.5,0.1,1.2c0.1,0.7,0.2,1.4,0.4,2.1c0.7,2.4,1.4,4.7,2.3,7c1.3,3.4,2.8,7,4.5,10c0.3,0.6,0.6,1.2,0.7,1.8c9.2,3.6,18.8,6.2,28.5,8C175.3,471.9,173.4,468.2,171.8,465.4z"/><path fill="#74CCCF" d="M123.9 311.2c-8.5-.3-17.1-1.3-24.8-4.8-10.2-4.6-17.5-12.9-22.3-22.9-7.3-15.1-6.6-41 9-50.5-1.4-9.5-3.7-18.8-5.3-28.3-1.6-9.8-2-19.5-1.3-29.4.7-9.7 2-19.7 4.3-29.4-1.3 2.1-2.6 4.1-3.8 6.3-8 13.9-14.2 28.5-19.2 43.6-5.5 10-9.4 21-12.4 31.9-2.9 10.5-4.9 21.4-5.9 32.3-.2.9-.5 1.9-.8 2.8-.2.6-.4 1.1-.7 1.5-.6 5.3-1 10.6-1 16.1 0 11.3.8 22.6 2.4 33.7 3-.7 6.6.8 7.2 4.7 1 7.5 7 14.3 12 19.5 5.8 6 12 11.4 18.3 16.8 12.7 10.8 28.7 15.9 43.2 23.8.1-4.9.2-9.9.6-14.8.8-10.7 1.7-22.5 6.4-32.5C126.6 325.1 124.4 318.2 123.9 311.2zM168.1 381.5c-.2 1.7-.5 3.3-.7 5-.1 1.2-.2 2.6-.3 3.9 3.1-1.5 6.1-3.1 9.1-4.8C173.3 384.7 170.6 383.2 168.1 381.5zM132 454.9c-1.3-3.9-2.6-8.3-1.6-12.2-6.2 1.5-12.6 2.3-19 2.3 1.8 1.5 3.7 3 5.6 4.5 5.4 4 11 7.6 16.9 10.7C133.1 458.4 132.5 456.7 132 454.9z"/><path fill="#127274" d="M197,372.5c-0.1-0.2-0.2-0.4-0.3-0.6c-6.9-12.5-18-22.3-26.5-33.7c-9.4-12.6-16.1-26.4-14.8-42.5c0.2-2.5,1.6-3.8,3.4-4.2c0.2-0.5,0.5-0.9,0.9-1.4c7.8-9.4,6-25.5,1.9-36.1c-2.5-6.5-6.3-12.1-12.5-15.7c-5.8-3.4-13.5-6.6-20.4-6.6c-2.5,0-4.2-1.4-5.1-3.2c-2.7,0.2-5.5-1.4-5.8-4.9c-0.9-11.8-2.7-23.5-3.6-35.4c-0.7-9.6-1.6-20.7,0.9-30.1c2.5-9.6,4.6-19.3,7.1-28.9c3-11.9,6.1-23.9,10.5-35.5c-11.4,8.7-22.2,18.4-31.7,29.1c0.9,1.4,1.2,3.2,0.3,5.2c-7.3,15-10.1,32.7-11.2,49.2c-1.3,20.2,5.1,39.1,7.2,58.9c0.4,3.7-2.5,5.7-5.4,5.7c-6.3,3-8.1,11.5-8.2,17.8c-0.1,7.1,0.6,15,4.2,21.3c4.3,7.4,10,13.3,18.2,16.2c7.7,2.7,16.2,2.9,24.3,2.9c5.4,0,7.2,6.5,4.5,9.5c0.3,5,1.7,10,3.8,14.9c3.2,0.8,5.7,3.9,3.4,7.4c-1.6,2.6-2.9,5.3-3.9,8.2c-0.3,1.6-0.7,3.2-1,4.8c-0.1-0.2-0.2-0.3-0.3-0.5c-1.9,7.5-2.4,15.6-2.8,23c-0.8,12-0.2,24-0.1,36.1c7.2-2.2,14.2-4.7,21.1-7.7c0-0.2,0-0.4-0.1-0.6c-0.1-1.3,0.3-2.4,0.9-3.3c1.3-6.1,0.6-13.1,2.1-19.3c-0.2-0.2-0.3-0.3-0.5-0.5c0.4-1.2,0.8-2.3,1.2-3.5v1.7c0.6-1.6,1.3-3.1,2.4-4.5c3.3-4.4,9-1,9.4,3.4c3.3,2.8,6.9,5.1,10.8,6.5c2.6,0.9,3.4,2.9,3.1,4.9C188.6,378.2,192.9,375.4,197,372.5z"/><path fill="#D6E5E5" d="M343.3,245.6c-0.6-7.7-2.2-15.5-5.3-22.6c-1.3-2.9-2.9-5.7-4.7-8.4c-0.8-1.2-2-4-3.4-4.5c-0.6-0.2-1.3-0.3-1.8-0.6c-2-1.3-3-3.2-3-5.1c-0.6-1.3-0.7-2.8,0.2-4.5c10.7-20.3,13.2-43.7,13.3-66.4c0.1-22.9-1.9-45.8-1.9-68.8c0-0.9,0.2-1.6,0.5-2.3c-4.9-2.3-9.9-4.3-15-6.1c4.9,22.6,4.7,45.9,3.7,68.9c-0.6,12.6-1.6,24.5-5,36.7c-2.8,10.3-6.3,20.7-7.3,31.4c1.5,2.3,1.3,5.6-0.6,7.3c-1.5,4.6-8.3,5.4-10.2,1.4c-10.9,0.9-23.5,4.1-28.1,14.2c-6.4,13.9,1,32.6,10.5,43.9c3.9-1,8.1,2.6,7.2,6.3c1.5,2.3,1.6,5.6-1,7.9c-2.1,1.8-3.2,6.3-4,8.8c-1.4,4.4-2.6,8.9-4.1,13.2c-3.1,9.3-8.5,17.4-14.6,25.1c-14.8,18.8-33.2,34.9-51.8,49.7c-36.5,29.1-80.5,49.4-127.7,51c-0.1,0-0.3,0-0.4,0c4.1,5,8.5,9.8,13.2,14.3c0.8-1.6,2.2-2.8,4.3-2.8h3c0.6,0,1.2,0.1,1.8,0.3c20,0.5,40.2-9.6,57.2-18.9c18.8-10.3,37.9-21,55-33.9c18.6-14,35.4-30.2,50.2-48c12.2-14.6,26.3-31.6,30.6-50.7c-1-1.8-1-4,0.8-5.9c0.1-0.1,0.1-0.2,0.2-0.2c0-0.1,0-0.1,0-0.2c0.4-3.6,4.1-4.9,7.1-4.1c0.6-3.9,6.8-6.5,10.3-2.4c-1.4-1.6-0.9-0.6,1.1-1c1.4-0.2,2.8-0.7,4.1-1.2c2.6-0.9,5.2-2,7.5-3.5C341.9,260.2,343.8,252.7,343.3,245.6z"/><path fill="#74CCCF" d="M122.9,404.8c0-4.4-0.1-8.8-0.1-13.2c-9-5.9-19.3-9.7-28.9-14.4c-8.8-4.3-16.7-9.5-24.2-15.9c-7.2-6.2-15.8-13.2-22.2-21.5c7.3,26.9,19.2,53.2,36,75.7c0.4-2.2,1.9-4.1,4.8-4.2c11.9-0.4,23.5-2.1,34.9-4.8C123.1,406.1,122.9,405.5,122.9,404.8z"/><path fill="#010101" d="M471.3,198c-7.6-23.5-20.1-45.7-34.6-65.6c-30-41.1-72.3-74.1-121.2-89c-52.3-16-107.8-4.2-155.2,20.8c-31.2,16.4-60,40-80.4,68.8c-12.2,17.2-21.1,36.3-27.9,56.1c-0.3,0.3-0.7,0.7-1,1.1c-1.1,1.7-2.1,3.5-3.1,5.4c-2.9,5.3-4.8,11.4-6.7,17c-0.6,1.8-1.7,4.4-2.4,7.2c-0.4,0.6-0.7,1.2-0.9,2.1c-2.6,12.7-5.8,25.3-7.3,38.2c-1.3,11.1-1.5,22.2-1,33.4c1.1,23.1,6.1,46.2,13.8,68c15.1,42.7,42.6,82.7,82,106.1c24.2,14.4,53.2,19.8,81,21.4c29.4,1.7,59.1-0.2,88-5.3c28.3-5,56-13.6,81.2-27.7c22.4-12.5,40.8-30.3,56.2-50.7c29.4-39.1,46.4-87.4,48.7-136.2C481.7,245,478.6,220.8,471.3,198z M410.2,117.8c0.4-0.1,0.7-0.1,1.1-0.3c3.2,3.5,6.4,7.1,9.4,10.8c7.9,9.8,15.2,20.1,21.6,31c-10.8-2.4-23.8-1.3-32-9.8C404.1,143.4,395.8,120,410.2,117.8z M426.3,226.3c-2.4-4.8,2.6-10.3,6.1-13c4.3-3.3,10-3.1,14.4,0.1c9.3,6.7,7.1,20.9,0.8,28.7c-5.4,6.8-14.4,7.3-21.1,2c-3.1-2.5-5-5.7-5.6-9C424.6,235.2,428.6,230.7,426.3,226.3z M361.1,82.7c0.5,1.7,1.4,2.7,2.6,3.2c-0.7,26.3-6.5,52.5-15.7,77.2c3.7-26.5,1.3-54.3,0.2-81C352.6,80.7,360.1,79.2,361.1,82.7z M352,70c-1.4,0.2-2.8,0.4-4.2,0.7c0-1,0-2-0.1-3C349.2,68.4,350.6,69.2,352,70z M350.2,186.8c14.4-32.1,23.7-67,24.5-102.2c10,7.3,19.4,15.5,28.2,24.2c-14.7,7.1-12.9,29-5.3,42c4.3,7.4,10.7,12.4,18.7,15.1c6.2,2.1,13,2.5,19.5,3.5v0.4c0,0.9,0.2,1.6,0.5,2.3c-0.3,0.7-0.4,1.4-0.5,2.2c-0.1,7.4-2.7,18.2-0.7,26.4c-7.5,1.6-14.3,6.7-17.7,13.4c-0.4,0.3-0.9,0.7-1.3,1.2c-9.5,12.2-8.3,28.8,4.5,38.2c4.3,3.2,9.1,4.8,13.8,5.1c-1.1,1-1.7,2.4-1.6,4.2c0.9,16.8-4.2,33.4-10.6,48.7c-6.8,16.3-15,32.2-25.1,46.6c-7.5,10.6-15.3,21-23.2,31.4c-3.5,4.6-7.2,9.2-11.1,13.5c-1.7,1.8-3.4,3.6-5.3,5.2c-0.8,0.6-1.6,1.2-2.5,1.7c0,0,0,0,0,0c-1.6-0.1-2.9,0.5-3.8,1.4c-0.2-0.1-0.5-0.3-0.7-0.4c-0.2-0.1-1.2-0.7-1.4-0.8c-0.4-0.3-0.8-0.6-1.2-1c0,0,0-0.1-0.1-0.1c-0.3-0.4-0.5-0.8-0.7-1.1c-1.4-2.6-5.3-3-7.6-1.5c0,0,0,0,0,0c-0.2-0.1-0.3-0.3-0.5-0.4c-0.4-0.2-0.5-0.3-0.6-0.4c-0.1-0.1-0.2-0.1-0.4-0.3c-1.1-0.7-2.1-1.5-3.2-2.2c-3-2-5.9-4.1-8.8-6.2c-7.7-5.5-15.3-11.1-22.7-17c-7-5.6-13.8-11.4-20-17.9c-2.2-2.3-4.2-4.9-5.8-7.6c0-0.1-0.9-2.6-0.7-1.7c0-0.3-0.1-0.4-0.1-0.5c0.9-1.8,0.7-3.6,0-5.1c1.9-2.1,3.8-4.3,5.6-6.5c14.8-17.5,31.7-38.6,34.3-62.2c0,0,0,0,0,0c0-0.1,0-0.2,0-0.3c5.8,3.8,13.8,0.9,19.9-1.8c9.4-4.2,15.8-11.6,17.8-21.9c2-10.5-1-22.7-4.5-32.6c-1.5-4.3-3.8-8.3-6.2-12.2c-1.3-2.2-2.8-5.3-4.7-6.9c-0.5-0.4-1-0.8-1.6-1.2c2.1-4.2,3.8-8.5,5.3-12.9C344.6,190.5,348.5,190.5,350.2,186.8z M339.5,416.5c-0.5,0-0.9-0.1-1.4-0.1c0.3-0.1,0.6-0.3,0.8-0.5C339.2,416,339.3,416.2,339.5,416.5z M230.9,389.4c12.8-9.6,24.7-20.4,35.8-31.9c0.9,2.4,2.4,4.7,4,6.8c5.8,7.8,13.5,14.3,20.9,20.5c13.4,11.2,27.7,21.3,42.2,31c0.1,0,0.1,0.1,0.2,0.1c-1.2-0.1-2.3-0.2-3.5-0.4c-5.5-0.6-11-1.3-16.5-1.9c-2.9-0.4-5.7-1-8.5-1.6c-0.4-0.2-0.9-0.4-1.3-0.5c-0.1-0.7-0.4-1.5-0.9-2.2c-11.2-17.7-48.7-26.3-59.1-4.9c-1.7-1.3-3.4-2.6-5.1-3.9c-2.1-1.7-4.2-3.5-6.1-5.4c-0.4-0.4-0.7-0.7-0.9-0.9C232.4,392.5,231.9,390.7,230.9,389.4z M191.1,61c32.5-12.8,67.8-18.3,101.9-12.4c5.7,1,11.2,2.3,16.8,3.8v4.9c0,2.1,1,3.5,2.4,4.3c4.3,21.7,3.7,44.3,2.7,66.3c-0.5,12.3-2.4,23.6-5.7,35.4c-2.6,9.2-5.2,18.4-6.3,27.9c-17.6,1.4-36,8.6-40.5,27.3c-2.7,11.3,0.5,24.1,5.3,34.4c1.6,3.5,3.6,6.9,5.8,10.1c-1,0.2-2,0.8-2.8,1.8c-10.8,12.9-24.1,23.4-38.5,32.2c-16-27.9-26.6-58.5-34.9-89.9c-3.1-11.8-6-23.5-7.6-35.7c-1.6-12.1-2.1-24.3-2.3-36.5c0-2.5-0.1-4.9-0.1-7.4c0.1-0.1,0.2-0.2,0.3-0.3c5.3-4.6,12-10.5,19.2-12.8c14.5,26.7,59.2,25.6,75.1-0.3c3.6-5.8,5.1-12.7,4.7-19.5c0.9-0.5,1.6-1.2,2.2-2.2c1.3-2.2,4.8-2.9,7-3.6c3.6-1.1,7.3-1.6,11-2.4c6.9-1.3,6.1-12.3-0.8-11c-7.2,1.4-16.1,2.3-22.2,6.8c-1.5-3.4-3.5-6.6-6-9.3c-8.8-9.5-22.5-13.4-35.2-12.6c-10.3,0.7-20.7,5.2-27.1,13.5c-5.8,7.5-7.2,16.6-6.3,25.6c-2.4,0.1-5,1.8-5.6,4.4c-6,2-11.5,5.7-16.6,9.6c-0.1-4.2-0.2-8.5-0.2-12.7c-0.2-11.9,0.4-24.2,4.5-35.5C191.8,63.7,191.6,62.2,191.1,61z M237.9,306.4c15.3-9.2,29.6-20.8,41-34.4c0.4-0.5,0.8-1.1,1-1.6c0.2,0.2,0.5,0.4,0.7,0.5c-2.7,4.6-4.1,10.1-5.6,15.2c-2.7,9.1-5.9,16.4-11.5,24.2c-3.2,4.5-6.7,8.8-10.4,13c-0.8-2.5-3.3-3.5-5.8-3.2C243.9,315.6,240.8,311,237.9,306.4z M243.5,333.3c-9.6,9.5-20,18.3-30.3,26.8c-2.4,2-4.8,3.9-7.3,5.8c0-0.1-0.1-0.1-0.1-0.2c-7.1-12.8-20.1-24.1-29.3-36.8c18.2-1.8,35.6-8.6,51.6-17.1c4.6,7.3,9.6,14.3,15,21.1C243.3,333.1,243.4,333.2,243.5,333.3z M221.5,106c-3.4-11.9-2.1-25.7,10.1-31.7c10.3-5.1,23.1-4,32.9,1.7c10.9,6.4,13.7,20.4,8.3,31.4c-6.6,13.6-24.7,17.4-38.2,14.4c-6.4-1.4-11.9-4.7-15.7-9.5C220.8,111.3,222.3,109,221.5,106z M207.3,272c4.4,10.4,9.5,20.6,15.2,30.4c-15.9,8.6-33.6,15-51.7,15.9c-0.2,0-0.4,0-0.6,0.1c-2.8-6-4.5-12.4-4.1-19.5c0.6-0.3,1.2-0.8,1.8-1.5c10.6-12.8,9.3-32.2,4-47c-6.2-17.3-24.1-28.9-42.4-29.6c-0.2,0-0.4,0-0.6,0h-0.3c-0.6-7.3-1.5-14.6-2.3-21.9c1.4-1,2.4-2.5,2.4-4.6c0.3-9.7,9.9-19,16.1-25.6c6.3-6.7,13.1-12.9,19.5-19.4c4-4.1,8-8.2,12-12.1c0.5,23.1,2.8,46.1,9.2,68.4C192.1,228.1,198.1,250.5,207.3,272z M145.7,91.2c0.8-1.6,1.5-2.8,2-3.5c3.5-0.4,5.9-4.4,4.9-7.4c8.6-5.3,17.7-10.2,27-14.4c-5.2,18.3-3.8,37.6-3.4,56.6c-7,6.3-13.6,13-20.1,19.7c-7.4,7.6-15.2,14.7-22.3,22.5c-3.1,3.4-6.3,7.2-8.9,11.1c0-4.8,0.2-9.6,0.8-14.4c1-7.9,3.9-16.2,5.9-23.9c2.8-11.3,5.7-22.7,9.3-33.8C142.2,99.4,143.8,95.2,145.7,91.2z M97.3,236.4c-2.2-19.9-8.6-38.7-7.2-58.9c1.1-16.5,3.9-34.2,11.2-49.2c1-2,0.7-3.8-0.3-5.2c9.6-10.7,20.3-20.4,31.7-29.1c-4.3,11.5-7.4,23.6-10.5,35.5c-2.4,9.6-4.5,19.3-7.1,28.9c-2.5,9.4-1.6,20.5-0.9,30.1c0.8,11.8,2.7,23.6,3.6,35.4c0.3,3.5,3.1,5.1,5.8,4.9c0.9,1.8,2.6,3.2,5.1,3.2c6.9,0,14.5,3.3,20.4,6.6c6.2,3.5,9.9,9.2,12.5,15.7c4.1,10.6,5.9,26.6-1.9,36.1c-0.4,0.5-0.6,0.9-0.9,1.4c-1.8,0.4-3.2,1.7-3.4,4.2c-1.3,16,5.4,29.9,14.8,42.5c8.5,11.4,19.6,21.1,26.5,33.7c0.1,0.2,0.2,0.4,0.3,0.6c-4.2,2.9-8.4,5.7-12.7,8.4c0.3-2-0.5-4-3.1-4.9c-3.9-1.4-7.5-3.7-10.8-6.5c-0.4-4.4-6.1-7.8-9.4-3.4c-1.1,1.4-1.8,2.9-2.4,4.5v-1.7c-0.4,1.2-0.8,2.3-1.2,3.5c0.2,0.2,0.3,0.3,0.5,0.5c-1.5,6.1-0.8,13.2-2.1,19.3c-0.6,0.9-0.9,2-0.9,3.3c0,0.2,0,0.4,0.1,0.6c-6.9,2.9-13.9,5.5-21.1,7.7c0-12-0.6-24.1,0.1-36.1c0.5-7.4,0.9-15.4,2.8-23c0.1,0.2,0.2,0.3,0.3,0.5c0.3-1.6,0.7-3.2,1-4.8c1-2.9,2.2-5.6,3.9-8.2c2.2-3.5-0.3-6.6-3.4-7.4c-2-4.9-3.4-9.9-3.8-14.9c2.7-3,0.9-9.5-4.5-9.5c-8.1,0-16.6-0.2-24.3-2.9c-8.2-2.9-13.9-8.8-18.2-16.2c-3.6-6.3-4.3-14.2-4.2-21.3c0.1-6.3,1.9-14.9,8.2-17.8C94.8,242.2,97.7,240.2,97.3,236.4z M176.1,385.7c-3,1.7-6,3.3-9.1,4.8c0.1-1.3,0.2-2.7,0.3-3.9c0.2-1.7,0.5-3.4,0.7-5C170.6,383.2,173.3,384.7,176.1,385.7z M42.1,314.2c-1.7-11.2-2.5-22.5-2.4-33.7c0-5.4,0.4-10.8,1-16.1c0.3-0.4,0.5-0.9,0.7-1.5c0.3-0.9,0.5-1.9,0.8-2.8c1-10.9,3-21.8,5.9-32.3c3-10.9,6.8-21.9,12.4-31.9c5-15.1,11.2-29.7,19.2-43.6c1.2-2.1,2.5-4.2,3.8-6.3c-2.3,9.7-3.6,19.7-4.3,29.4c-0.7,9.9-0.3,19.6,1.3,29.4c1.5,9.5,3.9,18.8,5.3,28.3c-15.6,9.5-16.3,35.4-9,50.5c4.8,10,12.1,18.3,22.3,22.9c7.7,3.5,16.3,4.5,24.8,4.8c0.5,6.9,2.7,13.9,5.8,20.5c-4.6,9.9-5.6,21.8-6.4,32.5c-0.4,4.9-0.5,9.9-0.6,14.8c-14.5-7.9-30.5-13-43.2-23.8c-6.3-5.4-12.6-10.8-18.3-16.8c-5-5.2-11-12-12-19.5C48.7,315,45.1,313.5,42.1,314.2z M83.5,415.6c-16.8-22.5-28.7-48.9-36-75.7c6.4,8.2,15,15.3,22.2,21.5c7.5,6.4,15.3,11.6,24.2,15.9c9.6,4.7,19.9,8.5,28.9,14.4c0,4.4,0.1,8.8,0.1,13.2c0,0.7,0.1,1.3,0.3,1.8c-11.4,2.7-23,4.4-34.9,4.8C85.4,411.5,83.9,413.4,83.5,415.6z M109.3,433.9h-3c-2.1,0-3.6,1.2-4.3,2.8c-4.7-4.5-9.1-9.3-13.2-14.3c0.1,0,0.2,0,0.4,0c47.2-1.6,91.2-21.9,127.7-51c18.6-14.9,37-31,51.8-49.7c6.1-7.7,11.4-15.7,14.6-25.1c1.5-4.4,2.7-8.8,4.1-13.2c0.8-2.5,1.9-7,4-8.8c2.6-2.2,2.5-5.6,1-7.9c0.9-3.6-3.3-7.3-7.2-6.3c-9.5-11.3-16.9-30.1-10.5-43.9c4.6-10.1,17.2-13.3,28.1-14.2c1.9,3.9,8.7,3.2,10.2-1.4c2-1.7,2.1-5,0.6-7.3c1.1-10.7,4.5-21.1,7.3-31.4c3.3-12.2,4.4-24.1,5-36.7c1-23,1.2-46.3-3.7-68.9c5.1,1.8,10.1,3.9,15,6.1c-0.3,0.7-0.5,1.5-0.5,2.3c0.1,22.9,2,45.8,1.9,68.8c-0.1,22.7-2.6,46-13.3,66.4c-0.9,1.7-0.8,3.2-0.2,4.5c0,1.9,1,3.8,3,5.1c0.5,0.4,1.2,0.4,1.8,0.6c1.5,0.5,2.7,3.3,3.4,4.5c1.7,2.7,3.3,5.5,4.7,8.4c3.1,7.1,4.8,14.9,5.3,22.6c0.5,7.1-1.4,14.5-7.8,18.6c-2.3,1.5-4.9,2.5-7.5,3.5c-1.3,0.5-2.7,0.9-4.1,1.2c-2,0.3-2.5-0.7-1.1,1c-3.5-4.1-9.7-1.5-10.3,2.4c-3-0.8-6.7,0.5-7.1,4.1c0,0.1,0,0.1,0,0.2c-0.1,0.1-0.1,0.2-0.2,0.2c-1.9,1.9-1.9,4.2-0.8,5.9c-4.4,19.1-18.4,36.1-30.6,50.7c-14.9,17.8-31.7,34-50.2,48c-17.1,12.9-36.2,23.6-55,33.9c-17,9.3-37.2,19.4-57.2,18.9C110.6,433.9,110,433.9,109.3,433.9z M117,449.5c-1.9-1.4-3.8-2.9-5.6-4.5c6.4,0,12.8-0.8,19-2.3c-0.9,3.8,0.4,8.2,1.6,12.2c0.6,1.7,1.2,3.5,1.9,5.2C128,457,122.4,453.5,117,449.5z M149,467.1c-0.1-0.6-0.3-1.2-0.7-1.8c-1.7-3-3.2-6.6-4.5-10c-0.9-2.3-1.7-4.6-2.3-7c-0.2-0.7-0.3-1.4-0.4-2.1c-0.1-0.7-0.1-1.1-0.1-1.2c0.8-1.7,0.7-3.7-0.1-5.3c6.7-2.3,13.2-5.1,19.5-8.1c0.8,11.8,5.3,23.9,11.4,33.9c1.7,2.8,3.5,6.4,5.8,9.7C167.8,473.3,158.2,470.6,149,467.1z M279.8,475.5c-28.3,4-57.6,5.1-86,2c0-2.9-2-6-5.8-5.9c1.9,0,1.1,0.2,0.1-1c-1.2-1.5-2.2-3.1-3.3-4.7c-1.7-2.6-3.2-5.4-4.8-8c-5.3-8.5-8.6-20-8.8-29.9c0-0.6-0.1-1.2-0.3-1.7c9.5-5,19-10.2,28.3-15.8c4.2,14.5,19.9,22.2,32.5,29.1c-1.3,13.3,21.8,24,31.6,27.1c9.1,2.8,19.9,3.7,28.7-0.5c8.9-4.2,13.1-12.3,14.6-21.4c0,0,0,0,0.1,0c14.5,4.7,29.5,6.1,44.7,6.1c3.7,0,7.9,0.1,12.1,0C337.6,464.3,308.6,471.4,279.8,475.5z M382.5,439.3c-1.6-2-4.5-3.2-7.4-1.5c-2.4,1.4-7,1.4-9.9,1.6c-4.9,0.4-9.8,0.4-14.7,0.5c-14.2,0.1-28.2-1.5-41.8-5.9c-1.7-0.6-3.1-0.3-4.2,0.5c-3.2-1.3-8.2,0.6-8.4,5.3c-0.3,6.7-2.7,13.8-9.1,16.6c-6.3,2.7-13.7,1.7-20.1,0c-6.6-1.7-13.2-5-18.6-9.2c-2.4-2-3.8-3.2-5.3-5.9c0.2,0.4-0.1-1-0.2-1.2c0-0.1,0.1-0.2-0.1,0c3.2-4.2-0.6-9.4-4.6-9.3c-10.6-5.8-25.7-12.2-28.9-24.6c-0.1-0.6-0.3-1-0.6-1.5c4.1-2.6,8.2-5.3,12.2-8.1c1.4,3.2,4.2,6.4,6.2,8.2c4.9,4.6,10.6,9.4,16.5,12.5c2.9,1.5,5.5,0.3,6.8-1.8c1.2-0.7,2.2-1.8,2.5-3.5c4.1-17.9,34.4-7,41,3.5c0.6,0.9,1.2,1.5,2,1.9c0.3,2.3,2.1,4.6,4.5,5c4.4,0.7,8.6,1.8,13.1,2.3c7.5,0.9,14.9,1.7,22.4,2.6c12.9,1.4,26.4,2.4,39.3,0.9c9.2-1.1,18.2-3.6,27.3-5.3C396.4,428.8,389.7,434.3,382.5,439.3z M470.5,264c-0.7,48.9-18.6,98-48.1,136.8c-2.3,3.1-4.8,6-7.3,8.9c-0.9-0.6-1.9-1-2.8-1.2c-2.8-0.8-4.8,0.5-5.7,2.6c-0.6,0.1-1.2,0.2-1.9,0.2c-3.9,0.4-7.7,1.5-11.4,2.5c-5.1,1.4-10.3,1.4-15.4,2.8c-4.6,1.2-9.7,1.2-14.5,1.2c6.1-4.2,11.3-11.7,15.1-16.3c9-11.2,17.5-22.9,25.8-34.6c11.2-15.7,20.2-32.7,27.8-50.4c7.3-17.1,12.7-35.8,11.7-54.5c-0.1-1.9-0.9-3.2-2.1-4c6.8-1.6,13-5.9,17.1-12.6c8.9-14.4,6.6-36.7-10.7-43.7c0,0,0,0-0.1,0c-0.2-0.3-0.4-0.6-0.6-0.9c-2.5-2.9-1.6-8.5-1.5-12c0.2-5.1,0.8-10.2,0.9-15.3c0-0.9-0.1-1.6-0.4-2.3c0.3-0.7,0.4-1.4,0.4-2.2v-1.5c4.5,8.4,8.5,17,12,25.9C467.4,215.8,470.8,239.9,470.5,264z"/></svg>