<?xml version="1.0" encoding="UTF-8"?>
<svg xmlns="http://www.w3.org/2000/svg" xmlns:xlink="http://www.w3.org/1999/xlink" viewBox="0 0 64 64" width="64px" height="64px">
<g id="surface12521892">
<path style=" stroke:none;fill-rule:nonzero;fill:rgb(93.333334%,24.313726%,32.941177%);fill-opacity:1;" d="M 8.320312 17.28125 C 7.613281 17.28125 7.039062 17.851562 7.039062 18.558594 C 7.039062 19.265625 7.613281 19.839844 8.320312 19.839844 C 9.027344 19.839844 9.601562 19.265625 9.601562 18.558594 C 9.601562 17.851562 9.027344 17.28125 8.320312 17.28125 Z M 8.320312 17.28125 "/>
<path style=" stroke:none;fill-rule:nonzero;fill:rgb(94.509804%,73.725492%,9.803922%);fill-opacity:1;" d="M 49.28125 7.679688 C 48.925781 7.679688 48.640625 7.96875 48.640625 8.320312 C 48.640625 8.671875 48.925781 8.960938 49.28125 8.960938 C 49.632812 8.960938 49.921875 8.671875 49.921875 8.320312 C 49.921875 7.96875 49.632812 7.679688 49.28125 7.679688 Z M 49.28125 7.679688 "/>
<path style=" stroke:none;fill-rule:nonzero;fill:rgb(98.823529%,87.843138%,63.529414%);fill-opacity:1;" d="M 32 8.320312 C 18.921875 8.320312 8.320312 18.921875 8.320312 32 C 8.320312 45.078125 18.921875 55.679688 32 55.679688 C 45.078125 55.679688 55.679688 45.078125 55.679688 32 C 55.679688 18.921875 45.078125 8.320312 32 8.320312 Z M 32 8.320312 "/>
<path style=" stroke:none;fill-rule:nonzero;fill:rgb(94.509804%,73.725492%,9.803922%);fill-opacity:1;" d="M 53.121094 7.039062 C 51.703125 7.039062 50.558594 8.183594 50.558594 9.601562 C 50.558594 11.015625 51.703125 12.160156 53.121094 12.160156 C 54.535156 12.160156 55.679688 11.015625 55.679688 9.601562 C 55.679688 8.183594 54.535156 7.039062 53.121094 7.039062 Z M 53.121094 7.039062 "/>
<path style=" stroke:none;fill-rule:nonzero;fill:rgb(93.333334%,24.313726%,32.941177%);fill-opacity:1;" d="M 55.679688 14.078125 C 54.972656 14.078125 54.398438 14.652344 54.398438 15.359375 C 54.398438 16.066406 54.972656 16.640625 55.679688 16.640625 C 56.386719 16.640625 56.960938 16.066406 56.960938 15.359375 C 56.960938 14.652344 56.386719 14.078125 55.679688 14.078125 Z M 55.679688 14.078125 "/>
<path style=" stroke:none;fill-rule:nonzero;fill:rgb(98.431373%,80.392158%,34.901962%);fill-opacity:1;" d="M 51.839844 47.359375 C 51.132812 47.359375 50.558594 47.933594 50.558594 48.640625 C 50.558594 49.347656 51.132812 49.921875 51.839844 49.921875 C 52.546875 49.921875 53.121094 49.347656 53.121094 48.640625 C 53.121094 47.933594 52.546875 47.359375 51.839844 47.359375 Z M 9.601562 37.761719 C 8.183594 37.761719 7.039062 38.90625 7.039062 40.320312 C 7.039062 41.734375 8.183594 42.878906 9.601562 42.878906 C 11.015625 42.878906 12.160156 41.734375 12.160156 40.320312 C 12.160156 38.90625 11.015625 37.761719 9.601562 37.761719 Z M 9.601562 37.761719 "/>
<path style=" stroke:none;fill-rule:nonzero;fill:rgb(93.333334%,24.313726%,32.941177%);fill-opacity:1;" d="M 16 54.398438 C 15.292969 54.398438 14.71875 54.972656 14.71875 55.679688 C 14.71875 56.386719 15.292969 56.960938 16 56.960938 C 16.707031 56.960938 17.28125 56.386719 17.28125 55.679688 C 17.28125 54.972656 16.707031 54.398438 16 54.398438 Z M 16 54.398438 "/>
<path style=" stroke:none;fill-rule:nonzero;fill:rgb(100%,100%,100%);fill-opacity:1;" d="M 13.761719 21.761719 C 12.878906 21.761719 12.160156 22.476562 12.160156 23.359375 C 12.160156 24.242188 12.878906 24.960938 13.761719 24.960938 C 14.640625 24.960938 15.359375 24.242188 15.359375 23.359375 C 15.359375 22.476562 14.640625 21.761719 13.761719 21.761719 Z M 13.761719 21.761719 "/>
<path style=" stroke:none;fill-rule:nonzero;fill:rgb(94.509804%,73.725492%,9.803922%);fill-opacity:1;" d="M 13.441406 42.238281 C 13.085938 42.238281 12.800781 42.527344 12.800781 42.878906 C 12.800781 43.234375 13.085938 43.519531 13.441406 43.519531 C 13.792969 43.519531 14.078125 43.234375 14.078125 42.878906 C 14.078125 42.527344 13.792969 42.238281 13.441406 42.238281 Z M 13.441406 42.238281 "/>
<path style=" stroke:none;fill-rule:nonzero;fill:rgb(100%,100%,100%);fill-opacity:1;" d="M 51.199219 21.121094 C 50.847656 21.121094 50.558594 21.40625 50.558594 21.761719 C 50.558594 22.113281 50.847656 22.398438 51.199219 22.398438 C 51.550781 22.398438 51.839844 22.113281 51.839844 21.761719 C 51.839844 21.40625 51.550781 21.121094 51.199219 21.121094 Z M 51.199219 21.121094 "/>
<path style=" stroke:none;fill-rule:nonzero;fill:rgb(79.607844%,78.823531%,73.725492%);fill-opacity:1;" d="M 29.761719 40.640625 L 34.238281 40.640625 L 34.238281 50.878906 L 29.761719 50.878906 Z M 29.761719 40.640625 "/>
<path style=" stroke:none;fill-rule:nonzero;fill:rgb(79.607844%,78.823531%,73.725492%);fill-opacity:1;" d="M 26.328125 41.152344 C 25.882812 41.152344 25.492188 40.851562 25.402344 40.441406 L 21.59375 23.335938 L 21.601562 23.292969 C 21.941406 18.019531 26.507812 13.886719 32 13.886719 C 37.492188 13.886719 42.058594 18.019531 42.398438 23.292969 L 42.402344 23.347656 L 38.601562 40.441406 C 38.507812 40.851562 38.117188 41.152344 37.671875 41.152344 Z M 26.328125 41.152344 "/>
<path style=" stroke:none;fill-rule:nonzero;fill:rgb(27.843139%,16.862746%,16.078432%);fill-opacity:1;" d="M 32 14.335938 C 37.253906 14.335938 41.621094 18.277344 41.949219 23.3125 L 38.160156 40.34375 C 38.113281 40.550781 37.910156 40.703125 37.671875 40.703125 L 26.328125 40.703125 C 26.089844 40.703125 25.886719 40.550781 25.839844 40.34375 L 22.046875 23.3125 C 22.378906 18.277344 26.746094 14.335938 32 14.335938 M 32 13.441406 C 26.222656 13.441406 21.507812 17.78125 21.15625 23.261719 L 21.121094 23.261719 L 24.964844 40.539062 C 25.101562 41.15625 25.671875 41.601562 26.328125 41.601562 L 37.671875 41.601562 C 38.332031 41.601562 38.898438 41.15625 39.035156 40.535156 L 42.878906 23.261719 L 42.84375 23.261719 C 42.492188 17.78125 37.777344 13.441406 32 13.441406 Z M 32 13.441406 "/>
<path style=" stroke:none;fill-rule:nonzero;fill:rgb(100%,100%,100%);fill-opacity:1;" d="M 37.5625 23.679688 C 39.082031 23.679688 40.144531 22.082031 39.476562 20.707031 C 38.125 17.917969 35.285156 16 32 16 C 28.714844 16 25.875 17.917969 24.523438 20.707031 C 23.855469 22.082031 24.917969 23.679688 26.4375 23.679688 Z M 37.5625 23.679688 "/>
<path style=" stroke:none;fill-rule:nonzero;fill:rgb(93.333334%,24.313726%,32.941177%);fill-opacity:1;" d="M 35.839844 23.679688 C 35.675781 21.636719 34.019531 20.027344 32 20.027344 C 29.980469 20.027344 28.324219 21.636719 28.160156 23.679688 Z M 35.839844 23.679688 "/>
<path style=" stroke:none;fill-rule:nonzero;fill:rgb(88.235295%,87.843138%,84.705883%);fill-opacity:1;" d="M 35.230469 35.839844 L 28.769531 35.839844 C 28.078125 35.839844 27.519531 35.28125 27.519531 34.589844 L 27.519531 29.089844 C 27.519531 28.402344 28.078125 27.839844 28.769531 27.839844 L 35.230469 27.839844 C 35.917969 27.839844 36.480469 28.402344 36.480469 29.089844 L 36.480469 34.589844 C 36.480469 35.28125 35.921875 35.839844 35.230469 35.839844 Z M 35.230469 35.839844 "/>
<path style=" stroke:none;fill-rule:nonzero;fill:rgb(27.843139%,16.862746%,16.078432%);fill-opacity:1;" d="M 35.230469 36.160156 L 28.769531 36.160156 C 27.90625 36.160156 27.199219 35.457031 27.199219 34.589844 L 27.199219 29.089844 C 27.199219 28.226562 27.90625 27.519531 28.769531 27.519531 L 35.230469 27.519531 C 36.09375 27.519531 36.800781 28.226562 36.800781 29.089844 L 36.800781 34.589844 C 36.800781 35.457031 36.09375 36.160156 35.230469 36.160156 Z M 28.769531 28.160156 C 28.257812 28.160156 27.839844 28.578125 27.839844 29.089844 L 27.839844 34.589844 C 27.839844 35.101562 28.257812 35.519531 28.769531 35.519531 L 35.230469 35.519531 C 35.742188 35.519531 36.160156 35.101562 36.160156 34.589844 L 36.160156 29.089844 C 36.160156 28.578125 35.742188 28.160156 35.230469 28.160156 Z M 28.769531 28.160156 "/>
<path style=" stroke:none;fill-rule:nonzero;fill:rgb(27.843139%,16.862746%,16.078432%);fill-opacity:1;" d="M 29.441406 30.078125 L 30.078125 30.078125 L 30.078125 33.28125 L 29.441406 33.28125 Z M 29.441406 30.078125 "/>
<path style=" stroke:none;fill-rule:nonzero;fill:rgb(79.607844%,78.823531%,73.725492%);fill-opacity:1;" d="M 34.238281 31.855469 L 34.238281 29.761719 L 32.960938 29.761719 L 32.960938 31.855469 C 32.578125 32.078125 32.320312 32.488281 32.320312 32.960938 C 32.320312 33.667969 32.894531 34.238281 33.601562 34.238281 C 34.308594 34.238281 34.878906 33.667969 34.878906 32.960938 C 34.878906 32.488281 34.621094 32.078125 34.238281 31.855469 Z M 34.238281 31.855469 "/>
<path style=" stroke:none;fill-rule:nonzero;fill:rgb(27.843139%,16.862746%,16.078432%);fill-opacity:1;" d="M 33.601562 34.558594 C 32.71875 34.558594 32 33.84375 32 32.960938 C 32 32.460938 32.242188 31.988281 32.640625 31.6875 L 32.640625 29.761719 C 32.640625 29.582031 32.785156 29.441406 32.960938 29.441406 L 34.238281 29.441406 C 34.417969 29.441406 34.558594 29.582031 34.558594 29.761719 L 34.558594 31.6875 C 34.957031 31.988281 35.199219 32.460938 35.199219 32.960938 C 35.199219 33.84375 34.480469 34.558594 33.601562 34.558594 Z M 33.28125 30.078125 L 33.28125 31.855469 C 33.28125 31.972656 33.21875 32.074219 33.121094 32.132812 C 32.820312 32.308594 32.640625 32.617188 32.640625 32.960938 C 32.640625 33.488281 33.070312 33.921875 33.601562 33.921875 C 34.128906 33.921875 34.558594 33.488281 34.558594 32.960938 C 34.558594 32.617188 34.378906 32.308594 34.078125 32.132812 C 33.980469 32.078125 33.921875 31.972656 33.921875 31.855469 L 33.921875 30.078125 Z M 33.28125 30.078125 "/>
<path style=" stroke:none;fill-rule:nonzero;fill:rgb(27.843139%,16.862746%,16.078432%);fill-opacity:1;" d="M 32.640625 18.558594 C 32.640625 18.914062 32.351562 19.199219 32 19.199219 C 31.648438 19.199219 31.359375 18.914062 31.359375 18.558594 C 31.359375 18.207031 31.648438 17.921875 32 17.921875 C 32.351562 17.921875 32.640625 18.207031 32.640625 18.558594 Z M 32.640625 18.558594 "/>
<path style=" stroke:none;fill-rule:nonzero;fill:rgb(27.843139%,16.862746%,16.078432%);fill-opacity:1;" d="M 30.078125 19.199219 C 30.078125 19.554688 29.792969 19.839844 29.441406 19.839844 C 29.085938 19.839844 28.800781 19.554688 28.800781 19.199219 C 28.800781 18.847656 29.085938 18.558594 29.441406 18.558594 C 29.792969 18.558594 30.078125 18.847656 30.078125 19.199219 Z M 30.078125 19.199219 "/>
<path style=" stroke:none;fill-rule:nonzero;fill:rgb(27.843139%,16.862746%,16.078432%);fill-opacity:1;" d="M 35.199219 19.199219 C 35.199219 19.554688 34.914062 19.839844 34.558594 19.839844 C 34.207031 19.839844 33.921875 19.554688 33.921875 19.199219 C 33.921875 18.847656 34.207031 18.558594 34.558594 18.558594 C 34.914062 18.558594 35.199219 18.847656 35.199219 19.199219 Z M 35.199219 19.199219 "/>
<path style=" stroke:none;fill-rule:nonzero;fill:rgb(27.843139%,16.862746%,16.078432%);fill-opacity:1;" d="M 28.160156 21.121094 C 28.160156 21.472656 27.875 21.761719 27.519531 21.761719 C 27.167969 21.761719 26.878906 21.472656 26.878906 21.121094 C 26.878906 20.765625 27.167969 20.480469 27.519531 20.480469 C 27.875 20.480469 28.160156 20.765625 28.160156 21.121094 Z M 28.160156 21.121094 "/>
<path style=" stroke:none;fill-rule:nonzero;fill:rgb(27.843139%,16.862746%,16.078432%);fill-opacity:1;" d="M 37.121094 21.121094 C 37.121094 21.472656 36.832031 21.761719 36.480469 21.761719 C 36.125 21.761719 35.839844 21.472656 35.839844 21.121094 C 35.839844 20.765625 36.125 20.480469 36.480469 20.480469 C 36.832031 20.480469 37.121094 20.765625 37.121094 21.121094 Z M 37.121094 21.121094 "/>
<path style=" stroke:none;fill-rule:nonzero;fill:rgb(27.843139%,16.862746%,16.078432%);fill-opacity:1;" d="M 32 23.359375 C 31.894531 23.359375 31.796875 23.308594 31.734375 23.21875 L 30.453125 21.296875 C 30.355469 21.148438 30.394531 20.953125 30.542969 20.855469 C 30.6875 20.753906 30.886719 20.796875 30.984375 20.941406 L 32.265625 22.863281 C 32.363281 23.011719 32.324219 23.207031 32.175781 23.304688 C 32.121094 23.34375 32.0625 23.359375 32 23.359375 Z M 32 23.359375 "/>
<path style=" stroke:none;fill-rule:nonzero;fill:rgb(27.843139%,16.862746%,16.078432%);fill-opacity:1;" d="M 32 16.894531 C 34.859375 16.894531 37.414062 18.503906 38.671875 21.097656 C 38.84375 21.453125 38.816406 21.855469 38.601562 22.203125 C 38.371094 22.566406 37.984375 22.785156 37.5625 22.785156 L 26.4375 22.785156 C 26.015625 22.785156 25.628906 22.566406 25.398438 22.203125 C 25.183594 21.855469 25.15625 21.453125 25.328125 21.097656 C 26.585938 18.503906 29.140625 16.894531 32 16.894531 M 32 16 C 28.714844 16 25.875 17.917969 24.523438 20.707031 C 23.855469 22.078125 24.917969 23.679688 26.4375 23.679688 L 37.5625 23.679688 C 39.082031 23.679688 40.144531 22.078125 39.476562 20.707031 C 38.125 17.917969 35.285156 16 32 16 Z M 32 16 "/>
<path style=" stroke:none;fill-rule:nonzero;fill:rgb(27.843139%,16.862746%,16.078432%);fill-opacity:1;" d="M 34.238281 51.199219 C 34.0625 51.199219 33.921875 51.054688 33.921875 50.878906 L 33.921875 41.601562 L 30.078125 41.601562 L 30.078125 50.878906 C 30.078125 51.054688 29.9375 51.199219 29.761719 51.199219 C 29.582031 51.199219 29.441406 51.054688 29.441406 50.878906 L 29.441406 41.28125 C 29.441406 41.101562 29.582031 40.960938 29.761719 40.960938 L 34.238281 40.960938 C 34.417969 40.960938 34.558594 41.101562 34.558594 41.28125 L 34.558594 50.878906 C 34.558594 51.054688 34.417969 51.199219 34.238281 51.199219 Z M 34.238281 51.199219 "/>
<path style=" stroke:none;fill-rule:nonzero;fill:rgb(27.843139%,16.862746%,16.078432%);fill-opacity:1;" d="M 31.039062 45.28125 C 30.953125 45.28125 30.878906 45.207031 30.878906 45.121094 L 30.878906 42.558594 C 30.878906 42.472656 30.953125 42.398438 31.039062 42.398438 C 31.128906 42.398438 31.199219 42.472656 31.199219 42.558594 L 31.199219 45.121094 C 31.199219 45.207031 31.128906 45.28125 31.039062 45.28125 Z M 31.039062 45.28125 "/>
<path style=" stroke:none;fill-rule:nonzero;fill:rgb(27.843139%,16.862746%,16.078432%);fill-opacity:1;" d="M 31.039062 50.398438 C 30.953125 50.398438 30.878906 50.328125 30.878906 50.238281 L 30.878906 46.398438 C 30.878906 46.3125 30.953125 46.238281 31.039062 46.238281 C 31.128906 46.238281 31.199219 46.3125 31.199219 46.398438 L 31.199219 50.238281 C 31.199219 50.328125 31.128906 50.398438 31.039062 50.398438 Z M 31.039062 50.398438 "/>
<path style=" stroke:none;fill-rule:nonzero;fill:rgb(27.843139%,16.862746%,16.078432%);fill-opacity:1;" d="M 27.839844 25.441406 L 24 25.441406 C 23.910156 25.441406 23.839844 25.367188 23.839844 25.28125 C 23.839844 25.191406 23.910156 25.121094 24 25.121094 L 27.839844 25.121094 C 27.929688 25.121094 28 25.191406 28 25.28125 C 28 25.367188 27.929688 25.441406 27.839844 25.441406 Z M 27.839844 25.441406 "/>
<path style=" stroke:none;fill-rule:nonzero;fill:rgb(27.843139%,16.862746%,16.078432%);fill-opacity:1;" d="M 30.398438 38.878906 L 26.558594 38.878906 C 26.472656 38.878906 26.398438 38.808594 26.398438 38.71875 C 26.398438 38.632812 26.472656 38.558594 26.558594 38.558594 L 30.398438 38.558594 C 30.488281 38.558594 30.558594 38.632812 30.558594 38.71875 C 30.558594 38.808594 30.488281 38.878906 30.398438 38.878906 Z M 30.398438 38.878906 "/>
<path style=" stroke:none;fill-rule:nonzero;fill:rgb(27.843139%,16.862746%,16.078432%);fill-opacity:1;" d="M 37.441406 38.878906 L 31.679688 38.878906 C 31.589844 38.878906 31.519531 38.808594 31.519531 38.71875 C 31.519531 38.632812 31.589844 38.558594 31.679688 38.558594 L 37.441406 38.558594 C 37.527344 38.558594 37.601562 38.632812 37.601562 38.71875 C 37.601562 38.808594 37.527344 38.878906 37.441406 38.878906 Z M 37.441406 38.878906 "/>
<path style=" stroke:none;fill-rule:nonzero;fill:rgb(27.843139%,16.862746%,16.078432%);fill-opacity:1;" d="M 40 25.441406 L 32.320312 25.441406 C 32.230469 25.441406 32.160156 25.367188 32.160156 25.28125 C 32.160156 25.191406 32.230469 25.121094 32.320312 25.121094 L 40 25.121094 C 40.089844 25.121094 40.160156 25.191406 40.160156 25.28125 C 40.160156 25.367188 40.089844 25.441406 40 25.441406 Z M 40 25.441406 "/>
<path style=" stroke:none;fill-rule:nonzero;fill:rgb(27.843139%,16.862746%,16.078432%);fill-opacity:1;" d="M 31.039062 25.441406 L 29.121094 25.441406 C 29.03125 25.441406 28.960938 25.367188 28.960938 25.28125 C 28.960938 25.191406 29.03125 25.121094 29.121094 25.121094 L 31.039062 25.121094 C 31.128906 25.121094 31.199219 25.191406 31.199219 25.28125 C 31.199219 25.367188 31.128906 25.441406 31.039062 25.441406 Z M 31.039062 25.441406 "/>
<path style=" stroke:none;fill-rule:nonzero;fill:rgb(99.215686%,98.823529%,93.725491%);fill-opacity:1;" d="M 59.960938 50.359375 C 59.960938 55.660156 55.660156 59.960938 50.359375 59.960938 C 45.058594 59.960938 40.757812 55.660156 40.757812 50.359375 C 40.757812 45.058594 45.058594 40.757812 50.359375 40.757812 C 55.660156 40.757812 59.960938 45.058594 59.960938 50.359375 Z M 59.960938 50.359375 "/>
<path style=" stroke:none;fill-rule:nonzero;fill:rgb(27.843139%,16.862746%,16.078432%);fill-opacity:1;" d="M 50.359375 41.335938 C 55.335938 41.335938 59.382812 45.382812 59.382812 50.359375 C 59.382812 55.335938 55.335938 59.382812 50.359375 59.382812 C 45.382812 59.382812 41.335938 55.335938 41.335938 50.359375 C 41.335938 45.382812 45.382812 41.335938 50.359375 41.335938 M 50.359375 40.4375 C 44.878906 40.4375 40.4375 44.878906 40.4375 50.359375 C 40.4375 55.835938 44.878906 60.277344 50.359375 60.277344 C 55.835938 60.277344 60.277344 55.835938 60.277344 50.359375 C 60.277344 44.878906 55.835938 40.4375 50.359375 40.4375 Z M 50.359375 40.4375 "/>
<path style=" stroke:none;fill-rule:nonzero;fill:rgb(94.509804%,73.725492%,9.803922%);fill-opacity:1;" d="M 58.199219 50.359375 C 58.199219 54.6875 54.6875 58.199219 50.359375 58.199219 C 46.027344 58.199219 42.519531 54.6875 42.519531 50.359375 C 42.519531 46.027344 46.027344 42.519531 50.359375 42.519531 C 54.6875 42.519531 58.199219 46.027344 58.199219 50.359375 Z M 58.199219 50.359375 "/>
<path style=" stroke:none;fill-rule:nonzero;fill:rgb(93.333334%,82.352942%,37.64706%);fill-opacity:1;" d="M 50.359375 42.519531 C 46.035156 42.519531 42.519531 46.035156 42.519531 50.359375 C 42.519531 50.457031 42.53125 50.550781 42.535156 50.648438 C 43.285156 47.015625 46.5 44.277344 50.359375 44.277344 C 54.21875 44.277344 57.433594 47.015625 58.183594 50.652344 C 58.1875 50.554688 58.199219 50.457031 58.199219 50.359375 C 58.199219 46.035156 54.679688 42.519531 50.359375 42.519531 Z M 50.359375 42.519531 "/>
<path style=" stroke:none;fill-rule:nonzero;fill:rgb(27.843139%,16.862746%,16.078432%);fill-opacity:1;" d="M 50.359375 42.679688 C 54.59375 42.679688 58.039062 46.125 58.039062 50.359375 C 58.039062 54.59375 54.59375 58.039062 50.359375 58.039062 C 46.125 58.039062 42.679688 54.59375 42.679688 50.359375 C 42.679688 46.125 46.125 42.679688 50.359375 42.679688 M 50.359375 42.359375 C 45.949219 42.359375 42.359375 45.949219 42.359375 50.359375 C 42.359375 54.769531 45.949219 58.359375 50.359375 58.359375 C 54.769531 58.359375 58.359375 54.769531 58.359375 50.359375 C 58.359375 45.949219 54.769531 42.359375 50.359375 42.359375 Z M 50.359375 42.359375 "/>
<path style=" stroke:none;fill-rule:nonzero;fill:rgb(27.843139%,16.862746%,16.078432%);fill-opacity:1;" d="M 52.359375 51.898438 C 52.359375 51.574219 52.3125 51.292969 52.21875 51.054688 C 52.128906 50.8125 51.992188 50.617188 51.808594 50.460938 C 51.625 50.304688 51.453125 50.183594 51.292969 50.097656 C 51.128906 50.007812 50.925781 49.917969 50.679688 49.828125 L 50.679688 47.574219 C 50.953125 47.589844 51.207031 47.652344 51.441406 47.765625 C 51.679688 47.882812 51.8125 47.9375 51.847656 47.9375 C 51.949219 47.9375 52.035156 47.886719 52.097656 47.78125 C 52.164062 47.675781 52.195312 47.578125 52.195312 47.488281 C 52.195312 47.304688 52.039062 47.15625 51.722656 47.039062 C 51.410156 46.925781 51.0625 46.859375 50.679688 46.839844 L 50.679688 46.4375 C 50.679688 46.304688 50.570312 46.199219 50.4375 46.199219 C 50.304688 46.199219 50.199219 46.304688 50.199219 46.4375 L 50.199219 46.859375 L 50.175781 46.859375 C 49.941406 46.878906 49.726562 46.921875 49.527344 46.992188 C 49.328125 47.058594 49.140625 47.160156 48.964844 47.289062 C 48.789062 47.421875 48.648438 47.601562 48.546875 47.828125 C 48.445312 48.054688 48.394531 48.3125 48.394531 48.609375 C 48.394531 48.855469 48.429688 49.074219 48.507812 49.265625 C 48.585938 49.460938 48.671875 49.617188 48.761719 49.730469 C 48.855469 49.847656 48.996094 49.960938 49.1875 50.074219 C 49.375 50.183594 49.53125 50.265625 49.652344 50.308594 L 50.175781 50.507812 L 50.199219 50.515625 L 50.199219 53.132812 L 50.175781 53.132812 C 49.921875 53.121094 49.695312 53.074219 49.492188 52.992188 C 49.292969 52.90625 49.144531 52.820312 49.054688 52.722656 C 48.960938 52.628906 48.871094 52.542969 48.78125 52.460938 C 48.695312 52.382812 48.625 52.34375 48.574219 52.34375 C 48.484375 52.34375 48.402344 52.394531 48.328125 52.492188 C 48.257812 52.589844 48.21875 52.691406 48.21875 52.796875 C 48.21875 53.027344 48.40625 53.261719 48.785156 53.507812 C 49.160156 53.75 49.621094 53.871094 50.175781 53.878906 L 50.199219 53.878906 L 50.199219 54.277344 C 50.199219 54.410156 50.304688 54.519531 50.4375 54.519531 C 50.570312 54.519531 50.679688 54.410156 50.679688 54.277344 L 50.679688 53.847656 C 51.195312 53.777344 51.601562 53.578125 51.902344 53.246094 C 52.207031 52.917969 52.359375 52.46875 52.359375 51.898438 Z M 49.414062 49.226562 C 49.242188 49.074219 49.152344 48.839844 49.152344 48.53125 C 49.152344 47.980469 49.503906 47.667969 50.199219 47.589844 L 50.199219 49.652344 C 49.851562 49.519531 49.585938 49.378906 49.414062 49.226562 Z M 50.679688 53.101562 L 50.679688 50.71875 C 50.964844 50.84375 51.191406 50.996094 51.347656 51.179688 C 51.515625 51.367188 51.597656 51.636719 51.597656 51.976562 C 51.597656 52.613281 51.289062 52.984375 50.679688 53.101562 Z M 50.679688 53.101562 "/>
</g>
</svg>
