<svg xmlns="http://www.w3.org/2000/svg"  viewBox="0 0 512 512" width="64px" height="64px"><path fill="#BCBCBC" d="M301.6,323.3c-1.3-4.2-2.7-8.9-6.4-11.7c-3.5-2.5-7.3-1.8-10.9-0.3c0.5,8,2.4,16,4.8,23.7c0.7,0,1.5,0.3,2.3,0.8c2.9,1.8,8.1,1,10.9-0.8C304.7,333.2,302.5,326.2,301.6,323.3z"/><path fill="#74CCCF" d="M183.5,381.1c-6.4-6.1-14.3-9-20-15.3c-2.2-0.3-4.1-1.9-4.1-4.8c0-0.5,0-1,0-1.5c-0.4-1.2-0.3-2.2,0-3.1c0.1-28.5,1-56.9,1.9-85.4c0.5-14.8,0.6-29.5,1.3-44.3c0.7-13.8,1.4-27.6,0.1-41.4c-0.1-0.8,0-1.5,0.2-2.1c-0.7-1.6-0.5-3.5,1.2-5.2c13.6-14,20.5-34.4,15.5-53.6c-1.7-6.5-4.4-14.3-10.6-18c-7.5-4.4-18.1-5.1-26.6-4.9c-18.9,0.3-41,9.5-46.8,29.3c-5,17.3,0.5,35.5,3.9,52.6c0.3,1.3,0.1,2.5-0.4,3.3c0.3,0.7,0.4,1.6,0.3,2.5c-0.5,7.2,0.5,14.4,1.3,21.5c0.8,7.3,0.9,14.5,1,21.9c0,14.9,0.9,29.6,1.6,44.4c1.5,30.9,0.6,61.9,0.6,92.8c0,0.6-0.1,1.2-0.2,1.7c0.2,0.6,0.2,1.2,0.2,1.9c-1.4,18.2-6,45,10.7,57.9c3.8,2.9,8.1,5.1,12.6,6.7c0.4,0.1,0.7,0.2,1.1,0.4c10.3,3.3,21.9,3.6,32.2,2.1c14.5-2.1,34.2-9.3,36.7-26.1C198.9,402,192.4,389.6,183.5,381.1z"/><path fill="#BCBCBC" d="M295.3 270.6c-.5-5.2-2.8-9.1-7.7-11.4-3.4-1.6-9.4-3.6-12.7-.7-.1 0-.1.1-.2.1 2.7 6.2 1.9 13.1 3.1 19.9C284.4 280.4 296.2 280.1 295.3 270.6zM354.4 208.5c-.4-4.8.5-10.4-5.2-11.7-5.7-1.3-12 .3-17.7 1.4-.1 0-.3 0-.4.1-.1 7.7-.7 17.5 3.1 24 .2 0 .4 0 .6 0 3.5.1 7 .4 10.5.7 2.5.2 6.1.9 8.5-.1C356.5 221.7 354.6 210.7 354.4 208.5zM297.2 213.4c-.1-4.3 1.3-13.1-5.3-12.7-5.8.4-11.3 2.3-16.7 4.1.2 6.4.9 12.8 2.3 19.1 5.2 1.6 10.8 4.5 16.1 3.5C299.5 226.4 297.4 217.7 297.2 213.4zM238.6 217c-.4-3.2-.9-6.4-1.2-9.6-5.7-1-11.5-1.5-17.2-2.6.2 1.5-.4 2.8-1.3 3.7 0 5.9.9 11.8 2.5 17.5.8.4 1.4.9 1.9 1.6 1.6-.9 3.5-.8 5.2.9.4.4.7.7 1 1.1 3.6.3 8.6.6 9.2-.9C240 225.2 239.1 220.6 238.6 217zM239.2 281.6c-.2-6.3-2.5-12.6-5.2-18.4-3.7 0-7.5.1-10.9 1.3 0 3.8-.1 7.5.1 11.3.1 2.6-.1 7.8 1.4 10.6 1.4 0 2.8.5 3.8 1.4.1 0 .2 0 .4-.1.7-.1 1.3-.2 2-.4 1.3-.3 2.6-.8 4-1C238.2 285.7 239.3 285.3 239.2 281.6zM337.2 385.2c-1.3-.2-2.3-.8-3-1.6-19.4 1.6-38.1 8.8-57.7 8.7-.9.6-2 1-3.3.9-3.9-.3-3.1 9.7-2.5 11.7 1.1 3.7 3.1 6.5 6.8 7.9 4.9 1.9 10.5 1.6 15.7 1.5 6.5-.1 13-.2 19.4-1.4 5.4-1 10.6-2.8 15.8-4.5 4.2-1.4 8.8-2.7 12.3-5.6C345.8 398.5 344.3 386.2 337.2 385.2zM247.4 331.3c-.6-5-1.1-9-6.3-11.4-3.8-1.8-7.9-2.4-12-2.6 0 1.1-.3 2.2-1.2 3.3-1.3 1.6-.2 8.5.2 11.2.5 2.7 1.4 8 2.8 10.2 2-3.3 7.6-4 8.9.7 0 0 0 .1 0 .1 0 0 .1 0 .1 0 .8.1 1.7 0 2.5-.1 1.6-.3 3.4-.7 4.8-1.6 0 0 0 0 0 0 0 0 0 0 0-.1.2-1 .4-2.1.4-3.2C247.7 335.5 247.6 333.4 247.4 331.3zM354.9 266.7c-.3-2.8-1-5.5-1.4-8.3-.2-1.4-.2-5.4-1.3-6.1-3.3-2.4-11.1 1.4-14.4 2.7-.2.1-.4.1-.6.2.2 3.5.5 7 1.1 10.4.4 2.2 1.3 9.3 3 10.2 1.1.6 1.9 1.4 2.3 2.3 3.5-.2 7.4-.6 9.9-2.5C355.8 273.8 355.1 269.2 354.9 266.7z"/><path fill="#14B6B9" d="M407.2,279.3c-1.4-16.1-2.4-32.3-2.1-48.4c0.2-16.4,1.2-32.7,1.7-49c0.5-16.1,0.7-32.4-1-48.5c-1.2-11.7-3.1-23.3-8.5-34c-4.7-9.4-12-17.9-21.5-22.5c-12.1-5.9-26.2-6.3-39.4-4.6c-15.2,1.9-30,6.2-45,8.7c-12.4,2.1-24.9,2.5-37.5,2c-41.1-1.6-90.1-12.8-126.9,9.6c6.8-1.5,14-2,21.1-1.6c10.2,0.7,21.9,1.6,29.9,8.8c6.9,6.3,10.5,14.8,12.4,23.8c4.8,21.6-2,44.2-17,60.4c0,0.2,0.1,0.4,0.1,0.6c1.3,14.4,0.6,28.9-0.2,43.4c-0.7,14.1-0.7,28.2-1.2,42.3c-1,29-1.8,57.9-1.9,86.9c0.7,1.2,1.5,2.3,2.6,3.2c5.1,4.4,11.7,6.7,16.6,11.4c4.7,4.6,9.2,9.7,12.4,15.5c6.2,11.6,9.6,26.8,2.8,39c-9,16.2-28.2,23.7-45.8,25.5c-3.3,0.4-6.8,0.5-10.3,0.5c12.2,5.3,26,7.2,39.5,7.3c22.7,0.1,45.4-2.5,68-4.6c23.1-2.1,46.4-3.2,69.5-5.8c20-2.2,41.3-5.9,58.6-16.9c10.5-6.7,18.7-15.5,23.3-27.2c4.3-11,5.8-23,6-34.7C413.9,340,409.9,309.7,407.2,279.3z M209.2,202.3c0.2-2.5,2.1-3.7,4.2-3.9c0.4-2.6,2.5-4.8,5.7-4c7.9,1.8,16.1,2.2,24,4c2.1,0.5,4,2.3,4,4.5c0.2,7,2.2,14,2,21c-0.1,3.9-0.3,8.6-3.1,11.7c-5.1,5.5-12.8,3.7-19.5,3.7c-2.2,0-4.3-1.2-5.1-3.2c-0.2,0.1-0.3,0.2-0.5,0.4c-2.7,1.7-6.4,0.6-7.5-2.5C209.8,223.8,208.3,212.9,209.2,202.3z M213.2,261.6c0-2.6,1.6-4.3,3.6-4.9c0.5-0.5,1-0.9,1.7-1.2c5.6-2.4,12.3-2.3,18.3-2.3c2.5,0,4,1.2,5.1,3.3c4.4,9.1,12.2,26.4,3.9,35.5c-3.4,3.7-10.3,4.6-15.1,5.4c-2.9,0.5-6,0.2-8.1-1.2c-1.2,0.2-2.5-0.2-3.7-1.3C210.8,287.4,213.1,271.6,213.2,261.6z M257.7,336.9c-0.3,7.8-3.1,13.2-11.2,15c-4.9,1.1-11.3,1.2-14.5-2.8c-1.6,2.1-4.6,3.1-7.2,0.9c-4.6-4-5.8-11.8-6.7-17.5c-0.9-5.8-1.9-13.7,2.2-18.6c0.6-0.7,1.3-1.2,2-1.5c-0.3-2.6,1.1-5.3,4.4-5.2c8.1,0.1,17.9,1.1,24,7.1C256.7,320.2,258,328.8,257.7,336.9z M350,407.2c-4.2,5.8-11.8,8.4-18.3,10.5c-7.8,2.5-15.5,5-23.7,5.8c-9.1,0.9-19.3,1.8-28.4,0c-6-1.1-12.2-3.8-15.5-9.2c-5.8-9.4-5.7-27.5,6.1-30.6c0.7-0.9,1.9-1.5,3.5-1.5c22.4,0.7,43.6-8.7,66-9c2.9,0,4.7,2,5.1,4.2C354.1,383.2,356.5,398.4,350,407.2z M267.2,252.1c0.1-0.1,0.1-0.1,0.2-0.2c13.1-11.6,34.9-0.6,37.5,15.4c2.8,17-14,25.2-28.5,21.2c-2.5,1.3-5.9,0.8-7-2.6c-1.4-4.1-1.7-8.4-2-12.8c-0.2-3.7,0-9.1-2.6-12.1C261.9,257.7,264.1,253.1,267.2,252.1z M265.2,203.6c0-2.5,1.4-4.1,3.2-4.8c0.3-1.4,1.3-2.7,3.1-3.3c7.1-2.4,19.6-7.9,26.9-3.8c9,5.1,8.5,13.1,8.9,22.2c0.4,7.7,1.1,18.3-7.5,22c-9.3,4-17.5-1-26.6-2.8c-1.1-0.2-1.9-0.7-2.5-1.3c-1-0.5-1.9-1.4-2.3-3C266.4,220.6,265.2,212.2,265.2,203.6z M312.1,323.9c1.7,7.3,2.2,15.7-5.2,19.8c-5.6,3.1-14.3,4.5-20,1c-0.3-0.2-0.6-0.4-0.9-0.7c-2.2,0.5-4.7-0.3-5.6-3.1c-3.4-10.3-6.1-21.4-6.3-32.3c0-2.7,1.7-4.4,3.8-5c0.4-0.4,0.9-0.8,1.6-1.1c7.2-3.4,15.9-3.9,22.3,1.6C307.8,309.3,310.3,316.5,312.1,323.9z M359.7,230.8c-6.2,4.9-17,1.6-24.2,1.4c-1.9,0-3.3-0.9-4.2-2.2c-1.9,0.7-4,0.2-5.3-2c-5.5-9.1-4.8-21.2-4.8-31.4c0-3.5,3-5.4,5.7-5.2c0.6-1.5,1.9-2.8,3.9-3.2c8.1-1.6,18.5-3.9,26,0.9c6.8,4.3,6.9,11.3,7.6,18.6C365,215.2,366.4,225.5,359.7,230.8z M360.6,282.6c-5.3,4.9-13.3,5.2-20,5.6c-3.2,0.2-4.9-2.1-5.2-4.5c-3.7-2.9-5.1-8.2-6.1-12.6c-1.3-5.7-2.1-11.6-2.1-17.4c0-3,2.1-4.8,4.4-5.1c0.4-1.2,1.3-2.3,2.9-3c6.9-2.7,16.7-6.2,23.5-1.3c3.4,2.4,4.4,6.2,5,10.1c0.5,3.5,1.4,6.9,1.8,10.5C365.4,270.9,365.5,278.1,360.6,282.6z M365,341.2c-5.5,5.5-13.5,3.8-20.1,1.6c-2.2-0.7-3-2.4-2.9-4c-0.7-0.3-1.5-0.9-2-1.7c-6.8-9.1-4.7-22.8-5.8-33.4c-0.5-4.1,3.5-5.9,6.6-5c0.6-0.3,1.3-0.4,2-0.4c6.6,0,15.5-1,20.8,3.8c5.6,5,6,13.5,6.3,20.6C370.2,329,369.8,336.4,365,341.2z M380.1,141.2c-1.2,9.5-18.7,7.5-25.1,7.3c-15.6-0.6-31.4,1.3-47,1.8c-20.4,0.8-40.7,0.6-61,1c-8.1,0.1-16.2,0.8-24.4,1.1c-5.2,0.2-11.3,0.8-15.7-2.4c-1-0.7-1.6-1.6-1.8-2.5c-1.1-0.5-2-1.3-2.6-2.6c-5.4-11.6-6.2-26.7-6.3-39.3c0-2,0.9-3.4,2.3-4.3c0.4-1.2,1.4-2.3,3.1-2.8c23.3-6.8,47.8-3.2,71.6-2.4c22.8,0.7,46.2-0.2,68.7-3.8c8.3-1.3,18.2-3.3,26.4-0.8c6.9,2.1,9.1,6.2,10.7,13c1.7,7.3,2.9,14.8,3.2,22.3c0.2,3.3,0.7,9.5-2.2,12.1C380.1,139.6,380.2,140.4,380.1,141.2z"/><path fill="#BCBCBC" d="M359.7,320.1c-0.4-3.3,0.1-9.6-3.8-11.1c-3.4-1.3-7.7-0.9-11.4-0.8c0.2,3.4,0.2,6.8,0.5,10.2c0.4,4.3,0.5,9.4,3.2,13c0.6,0.8,0.9,1.5,1,2.3c0,0,0.1,0,0.1,0c3.1,1.1,8.1,2.6,9.7-1.4C360.5,328.6,360.1,324,359.7,320.1z"/><path fill="#FEBF10" d="M372.2,128.4c-0.1-2.9-0.4-5.8-0.7-8.7c-0.7-5.7-1.4-11.8-3.6-17.2c-0.1-0.3-0.3-0.5-0.4-0.7c-1.3-0.6-2.7-0.9-4.1-1c-3.5-0.4-7.1-0.2-10.6,0.2c-6.9,0.7-13.7,2.1-20.6,3.1c-10.9,1.5-22.2,1.5-33.2,1.9c-11.1,0.4-22.1,0.4-33.1-0.2c-19.6-1-40.4-3.3-59.6,1.9c0.2,11.2,1,23.9,5.7,34c0,0,0,0.1,0,0.1c0.5,0.2,1,0.4,1.5,0.8c-1.2-0.9,1.6,0,2.2,0c1.2,0,2.5,0,3.7,0c2.4-0.1,4.9,0,7.4-0.2c8.4-0.7,16.8-1,25.2-1c17.1-0.1,34.2-0.2,51.3-0.8c9.2-0.3,18.5-0.7,27.7-1.3c6.2-0.4,12.6-1.2,18.8-0.9c4.3,0.2,8.6,0.4,12.9,0.3c2.3-0.1,4.6-0.1,6.9-0.5c0.6-0.1,0.9-0.2,1.1-0.3c0.2-0.5,0.6-1,0.9-1.4c-0.7-1.7-0.5-3.5,0.6-4.8C372.2,130.6,372.2,129.5,372.2,128.4z"/><path d="M421.7,327.3c-2.5-32.4-7-64.6-6.7-97.2c0.4-32.5,3.9-65,0.7-97.5c-2.2-22.2-8.5-44.9-26.8-59.3c-20.8-16.3-49-12.6-73.1-7.6c-13.6,2.9-27.1,6.2-41.1,7.1c-11.7,0.7-23.4,0.2-35-0.6c-46-3.2-96.6-10.8-133.4,23.7c-1.9,1.8-1.8,3.9-0.7,5.5c-7.1,4.7-13.2,11-17.6,19c-10.8,19.6-3.7,43.4,0.4,63.8c0.1,0.5,0.2,0.9,0.4,1.3c-0.2,0.5-0.3,1-0.3,1.6c-1,14.2,2.1,28.2,2.1,42.4c0,14.7,0.5,29.4,1.4,44c1.9,32.3,0.9,64.7,0.8,97.1c0,0.3,0,0.6,0.1,0.9c-1.7,22.2-5.6,50.1,12.7,66.7c5.5,5,12.1,8.4,19.3,10.6c19,17.4,45.3,21,70.2,20.5c30.3-0.5,60.6-4.6,90.7-7.1c46.7-3.9,114.6-3.7,132.3-58C426.2,380,423.6,352.5,421.7,327.3z M128.1,438.5c-0.4-0.2-0.7-0.3-1.1-0.4c-4.6-1.6-8.9-3.8-12.6-6.7c-16.7-12.8-12.1-39.6-10.7-57.9c0.1-0.7,0-1.3-0.2-1.9c0.2-0.5,0.2-1.1,0.2-1.7c0-30.9,0.9-61.9-0.6-92.8c-0.7-14.8-1.5-29.6-1.6-44.4c0-7.4-0.2-14.6-1-21.9c-0.8-7.1-1.8-14.3-1.3-21.5c0.1-0.9-0.1-1.8-0.3-2.5c0.5-0.9,0.7-2,0.4-3.3c-3.5-17.1-9-35.3-3.9-52.6c5.8-19.8,28-29,46.8-29.3c8.6-0.1,19.1,0.5,26.6,4.9c6.2,3.6,8.9,11.5,10.6,18c5,19.2-1.9,39.6-15.5,53.6c-1.6,1.7-1.8,3.6-1.2,5.2c-0.2,0.6-0.3,1.3-0.2,2.1c1.3,13.8,0.6,27.6-0.1,41.4c-0.8,14.8-0.9,29.5-1.3,44.3c-0.9,28.5-1.8,56.9-1.9,85.4c-0.4,0.9-0.4,1.9,0,3.1c0,0.5,0,1,0,1.5c0,2.9,1.9,4.5,4.1,4.8c5.6,6.3,13.6,9.2,20,15.3c8.9,8.5,15.5,20.9,13.6,33.5c-2.5,16.7-22.2,23.9-36.7,26.1C150,442.1,138.4,441.8,128.1,438.5z M413.4,370.5c-0.2,11.7-1.7,23.7-6,34.7c-4.6,11.7-12.7,20.5-23.3,27.2c-17.3,11-38.6,14.6-58.6,16.9c-23.1,2.6-46.4,3.7-69.5,5.8c-22.6,2-45.3,4.7-68,4.6c-13.5-0.1-27.3-1.9-39.5-7.3c3.5,0,7-0.2,10.3-0.5c17.6-1.8,36.8-9.3,45.8-25.5c6.8-12.2,3.4-27.4-2.8-39c-3.1-5.8-7.6-10.9-12.4-15.5c-4.9-4.7-11.5-7-16.6-11.4c-1-0.9-1.9-2-2.6-3.2c0.1-29,0.9-57.9,1.9-86.9c0.5-14.1,0.5-28.2,1.2-42.3c0.8-14.5,1.5-28.9,0.2-43.4c0-0.2,0-0.4-0.1-0.6c14.9-16.2,21.7-38.8,17-60.4c-2-9-5.5-17.5-12.4-23.8c-7.9-7.2-19.7-8.2-29.9-8.8c-7.1-0.5-14.3,0-21.1,1.6c36.8-22.4,85.8-11.3,126.9-9.6c12.6,0.5,25.1,0.1,37.5-2c15.1-2.5,29.8-6.8,45-8.7c13.2-1.7,27.3-1.3,39.4,4.6c9.5,4.7,16.8,13.2,21.5,22.5c5.3,10.7,7.2,22.3,8.5,34c1.7,16.1,1.5,32.3,1,48.5c-0.5,16.3-1.5,32.7-1.7,49c-0.2,16.2,0.7,32.3,2.1,48.4C409.9,309.7,413.9,340,413.4,370.5z"/><path d="M382.1 126.8c-.3-7.5-1.5-15-3.2-22.3-1.5-6.7-3.8-10.9-10.7-13-8.2-2.5-18.1-.5-26.4.8-22.6 3.6-45.9 4.5-68.7 3.8-23.8-.7-48.3-4.4-71.6 2.4-1.7.5-2.7 1.6-3.1 2.8-1.3.9-2.3 2.3-2.3 4.3.1 12.6.8 27.7 6.3 39.3.6 1.3 1.6 2.1 2.6 2.6.2.9.8 1.8 1.8 2.5 4.4 3.2 10.6 2.6 15.7 2.4 8.1-.3 16.2-.9 24.4-1.1 20.4-.4 40.7-.2 61-1 15.6-.6 31.4-2.4 47-1.8 6.4.2 23.8 2.2 25.1-7.3.1-.8 0-1.6-.2-2.3C382.8 136.3 382.2 130 382.1 126.8zM372.2 131.8c-1.2 1.2-1.3 3.1-.6 4.8-.4.4-.7.8-.9 1.4-.2.1-.6.2-1.1.3-2.3.4-4.6.4-6.9.5-4.3.1-8.6-.1-12.9-.3-6.3-.3-12.6.5-18.8.9-9.2.5-18.5.9-27.7 1.3-17.1.6-34.2.7-51.3.8-8.4 0-16.8.3-25.2 1-2.4.2-4.9.2-7.4.2-1.2 0-2.5 0-3.7 0-.7 0-3.4-.8-2.2 0-.5-.4-1-.6-1.5-.8 0 0 0-.1 0-.1-4.7-10-5.5-22.8-5.7-34 19.2-5.2 40-2.9 59.6-1.9 11 .6 22.1.5 33.1.2 11-.4 22.3-.4 33.2-1.9 6.9-.9 13.7-2.4 20.6-3.1 3.5-.4 7.1-.6 10.6-.2 1.4.2 2.8.5 4.1 1 .1.1.3.3.4.7 2.2 5.4 2.8 11.5 3.6 17.2.4 2.9.6 5.8.7 8.7C372.2 129.5 372.2 130.6 372.2 131.8zM247.1 202.9c-.1-2.3-1.9-4-4-4.5-7.9-1.8-16.1-2.2-24-4-3.2-.8-5.3 1.5-5.7 4-2.1.2-3.9 1.4-4.2 3.9-1 10.6.6 21.5 4.2 31.6 1.1 3.1 4.8 4.2 7.5 2.5.2-.1.4-.2.5-.4.8 2 2.9 3.2 5.1 3.2 6.7.1 14.4 1.8 19.5-3.7 2.8-3.1 3-7.8 3.1-11.7C249.3 216.8 247.3 209.9 247.1 202.9zM238.6 228.7c-.6 1.5-5.5 1.2-9.2.9-.3-.4-.6-.7-1-1.1-1.7-1.7-3.6-1.8-5.2-.9-.5-.7-1.2-1.2-1.9-1.6-1.6-5.7-2.6-11.6-2.5-17.5.9-.9 1.5-2.2 1.3-3.7 5.7 1.1 11.5 1.6 17.2 2.6.3 3.2.7 6.4 1.2 9.6C239.1 220.6 240 225.2 238.6 228.7zM307.3 214c-.4-9.1.1-17.1-8.9-22.2-7.3-4.2-19.8 1.4-26.9 3.8-1.8.6-2.8 1.9-3.1 3.3-1.8.7-3.2 2.3-3.2 4.8.1 8.6 1.3 16.9 3.3 25.3.4 1.5 1.2 2.5 2.3 3 .6.6 1.4 1.1 2.5 1.3 9.1 1.8 17.3 6.8 26.6 2.8C308.3 232.3 307.6 221.6 307.3 214zM293.6 227.5c-5.4 1-10.9-2-16.1-3.5-1.4-6.3-2.1-12.7-2.3-19.1 5.5-1.8 10.9-3.8 16.7-4.1 6.6-.4 5.2 8.4 5.3 12.7C297.4 217.7 299.5 226.4 293.6 227.5zM364.4 207.7c-.6-7.3-.8-14.3-7.6-18.6-7.5-4.7-18-2.5-26-.9-2 .4-3.2 1.7-3.9 3.2-2.7-.1-5.7 1.7-5.7 5.2 0 10.2-.6 22.4 4.8 31.4 1.3 2.2 3.5 2.6 5.3 2 .9 1.3 2.3 2.2 4.2 2.2 7.2.1 18 3.4 24.2-1.4C366.4 225.5 365 215.2 364.4 207.7zM353.7 222.8c-2.4 1-6 .3-8.5.1-3.5-.3-7-.6-10.5-.7-.2 0-.4 0-.6 0-3.8-6.5-3.2-16.3-3.1-24 .1 0 .3 0 .4-.1 5.7-1.1 11.9-2.7 17.7-1.4 5.7 1.3 4.8 6.9 5.2 11.7C354.6 210.7 356.5 221.7 353.7 222.8zM241.9 256.6c-1.1-2.2-2.6-3.3-5.1-3.3-6 0-12.6-.1-18.3 2.3-.7.3-1.3.7-1.7 1.2-1.9.7-3.6 2.3-3.6 4.9 0 9.9-2.4 25.8 5.7 33.4 1.2 1.1 2.5 1.5 3.7 1.3 2.1 1.4 5.2 1.7 8.1 1.2 4.7-.8 11.7-1.7 15.1-5.4C254.1 283 246.3 265.7 241.9 256.6zM234.8 286.3c-1.3.2-2.7.7-4 1-.7.2-1.3.3-2 .4-.1 0-.3 0-.4.1-1.1-.9-2.5-1.4-3.8-1.4-1.5-2.8-1.3-8-1.4-10.6-.2-3.8-.1-7.5-.1-11.3 3.4-1.1 7.2-1.3 10.9-1.3 2.6 5.8 5 12.2 5.2 18.4C239.3 285.3 238.2 285.7 234.8 286.3zM304.9 267.3c-2.6-16-24.5-27-37.5-15.4-.1.1-.1.1-.2.2-3.1 1-5.3 5.6-2.4 8.9 2.7 3 2.4 8.4 2.6 12.1.3 4.3.6 8.6 2 12.8 1.1 3.4 4.5 3.9 7 2.6C290.9 292.6 307.7 284.4 304.9 267.3zM277.9 278.6c-1.2-6.8-.5-13.7-3.1-19.9.1 0 .1-.1.2-.1 3.3-3 9.3-.9 12.7.7 4.8 2.3 7.2 6.1 7.7 11.4C296.2 280.1 284.4 280.4 277.9 278.6zM364.7 264.8c-.4-3.5-1.2-7-1.8-10.5-.6-3.9-1.6-7.6-5-10.1-6.7-4.9-16.6-1.4-23.5 1.3-1.6.6-2.5 1.7-2.9 3-2.3.4-4.5 2.2-4.4 5.1.1 5.8.9 11.7 2.1 17.4 1 4.4 2.3 9.7 6.1 12.6.3 2.4 2 4.7 5.2 4.5 6.8-.4 14.8-.8 20-5.6C365.5 278.1 365.4 270.9 364.7 264.8zM353.5 275.6c-2.5 2-6.3 2.4-9.9 2.5-.4-.9-1.1-1.7-2.3-2.3-1.7-.9-2.7-8-3-10.2-.6-3.4-1-6.9-1.1-10.4.2-.1.4-.1.6-.2 3.2-1.3 11.1-5.1 14.4-2.7 1.1.8 1.1 4.7 1.3 6.1.4 2.8 1.1 5.5 1.4 8.3C355.1 269.2 355.8 273.8 353.5 275.6zM250.7 314.4c-6.1-6-15.9-7-24-7.1-3.3 0-4.7 2.6-4.4 5.2-.7.3-1.4.7-2 1.5-4.1 4.9-3.1 12.7-2.2 18.6.8 5.7 2.1 13.5 6.7 17.5 2.6 2.3 5.6 1.2 7.2-.9 3.2 4 9.6 3.8 14.5 2.8 8.1-1.8 10.9-7.2 11.2-15C258 328.8 256.7 320.2 250.7 314.4zM247.3 340.9C247.3 340.9 247.3 340.9 247.3 340.9 247.3 340.9 247.3 340.9 247.3 340.9c-1.4 1-3.2 1.5-4.8 1.7-.8.1-1.7.2-2.5.1-.1 0-.1 0-.1 0 0 0 0 0 0-.1-1.3-4.7-6.9-4-8.9-.7-1.4-2.1-2.4-7.4-2.8-10.2-.4-2.6-1.6-9.6-.2-11.2.9-1.1 1.2-2.2 1.2-3.3 4.1.2 8.2.8 12 2.6 5.1 2.4 5.6 6.4 6.3 11.4.3 2.1.4 4.3.4 6.4C247.7 338.8 247.5 339.8 247.3 340.9zM312.1 323.9c-1.8-7.5-4.3-14.7-10.3-19.8-6.4-5.5-15.1-4.9-22.3-1.6-.6.3-1.1.7-1.6 1.1-2 .6-3.8 2.3-3.8 5 .2 10.9 2.9 21.9 6.3 32.3.9 2.8 3.4 3.6 5.6 3.1.3.3.6.5.9.7 5.7 3.5 14.4 2.1 20-1C314.3 339.6 313.8 331.2 312.1 323.9zM302.3 334.9c-2.7 1.9-8 2.6-10.9.8-.8-.5-1.6-.7-2.3-.8-2.4-7.7-4.2-15.7-4.8-23.7 3.6-1.5 7.5-2.2 10.9.3 3.8 2.8 5.1 7.4 6.4 11.7C302.5 326.2 304.7 333.2 302.3 334.9zM369.9 322.6c-.3-7.1-.7-15.6-6.3-20.6-5.4-4.8-14.2-3.8-20.8-3.8-.8 0-1.5.2-2 .4-3.1-.9-7 .8-6.6 5 1.2 10.6-.9 24.3 5.8 33.4.6.8 1.3 1.3 2 1.7-.1 1.7.7 3.3 2.9 4 6.6 2.3 14.6 3.9 20.1-1.6C369.8 336.4 370.2 329 369.9 322.6zM359 332.4c-1.6 4-6.5 2.5-9.7 1.4 0 0-.1 0-.1 0-.1-.7-.4-1.5-1-2.3-2.7-3.6-2.9-8.7-3.2-13-.3-3.4-.4-6.8-.5-10.2 3.7-.1 8-.5 11.4.8 3.9 1.5 3.4 7.7 3.8 11.1C360.1 324 360.5 328.6 359 332.4zM344.9 377.5c-.5-2.2-2.2-4.2-5.1-4.2-22.4.3-43.6 9.7-66 9-1.6-.1-2.8.6-3.5 1.5-11.8 3.1-11.9 21.2-6.1 30.6 3.3 5.4 9.6 8.1 15.5 9.2 9 1.7 19.3.8 28.4 0 8.2-.8 15.9-3.3 23.7-5.8 6.6-2.1 14.1-4.8 18.3-10.5C356.5 398.4 354.1 383.2 344.9 377.5zM340.7 402.8c-3.4 2.9-8.1 4.2-12.3 5.6-5.2 1.7-10.4 3.5-15.8 4.5-6.4 1.2-12.9 1.3-19.4 1.4-5.2.1-10.7.4-15.7-1.5-3.7-1.4-5.7-4.2-6.8-7.9-.6-2-1.4-11.9 2.5-11.7 1.3.1 2.4-.3 3.3-.9 19.6.1 38.3-7.1 57.7-8.7.6.8 1.6 1.4 3 1.6C344.3 386.2 345.8 398.5 340.7 402.8z"/></svg>