<svg xmlns="http://www.w3.org/2000/svg"  viewBox="0 0 48 48" width="64px" height="64px"><path fill="#a37b57" d="M44.375,11.542c-0.019-0.601-0.068-1.273-0.516-1.674c-0.41-0.367-1.017-0.382-1.567-0.376 C30.121,9.622,17.067,9.501,4.896,9.631c-0.429,0.005-0.929,0.047-1.162,0.407c-0.156,0.241-0.136,0.552-0.111,0.839 c0.069,0.779,0.012,2.037-0.017,2.922C3.566,15,3.489,15.969,3.593,17.063c0.563,0.115,1.256,0.199,1.975,0.259 c0.183,5.796,0.066,15.975,0.334,20.528c0.072,1.218,0.256,2.632,1.303,3.259c0.477,0.285,1.05,0.345,1.604,0.395 c9.215,0.832,20.287,1.002,29.539,0.864c1.38-0.021,2.984-0.157,3.748-1.306c0.488-0.734,0.489-1.535,0.458-2.416 c-0.184-5.317,0.281-15.708,0.031-21.298c0.63,0.041,1.252,0.068,1.796,0.027C44.321,15.403,44.436,13.514,44.375,11.542z"/><polygon fill="#c56528" points="26.503,17.414 26.503,9.659 22.5,9.659 22.343,17.414 22.343,17.414 22.343,17.415 22.343,42.167 26.647,42.167 26.647,17.414"/><path fill="#010101" d="M44.878,14.457c0.014-0.97,0.027-1.939-0.003-2.931c-0.017-0.546-0.045-1.46-0.683-2.03 c-0.533-0.478-1.251-0.506-1.905-0.504c-4.131,0.044-8.412,0.058-12.675,0.064c0.543-0.58,1.13-1.228,1.297-1.925 c0.269-1.121-0.131-2.534-1.264-2.959c-1.018-0.381-2.605-0.037-3.398,0.737c-0.725,0.711-1.082,1.247-1.414,2.127l-0.074,0.197 c-0.261-1.005-0.668-2.09-1.293-2.828c-0.58-0.687-1.522-1.577-3.009-1.382c-0.259,0.034-0.63,0.17-0.925,0.623 c-0.578,0.887-0.55,2.565-0.31,3.388c0.226,0.771,0.759,1.488,1.433,2.028C15.38,9.066,10.023,9.077,4.89,9.131 C4.509,9.135,3.716,9.145,3.314,9.766c-0.257,0.397-0.216,0.854-0.189,1.154c0.058,0.658,0.021,1.7-0.008,2.538l-0.038,1.021 c-0.038,0.925-0.07,1.725,0.017,2.632c0.021,0.219,0.182,0.397,0.397,0.442c0.437,0.089,0.958,0.159,1.511,0.216 c0.133,2.547,0.163,6.254,0.19,9.858c0.029,3.776,0.058,7.682,0.209,10.252c0.054,0.92,0.167,2.833,1.545,3.658 c0.59,0.354,1.27,0.415,1.815,0.464c8.142,0.736,17.17,0.909,23.871,0.909c2.194,0,4.14-0.019,5.722-0.042 c1.646-0.024,3.29-0.227,4.155-1.53c0.56-0.841,0.576-1.725,0.542-2.71c-0.087-2.5-0.024-5.981,0.041-9.668 c0.073-4.009,0.144-8.13,0.017-11.078c0.457,0.019,0.9,0.022,1.307-0.008c0.268-0.021,0.471-0.247,0.463-0.515 C44.851,16.378,44.864,15.418,44.878,14.457z M26.946,5.625c0.521-0.51,1.681-0.764,2.347-0.517 c0.58,0.218,0.804,1.118,0.643,1.791c-0.113,0.474-0.658,1.053-1.138,1.564c-0.196,0.209-0.377,0.407-0.533,0.595 c-1.047,0.001-2.087,0.001-3.127,0.002l0.631-1.67C26.049,6.647,26.324,6.234,26.946,5.625z M25.995,13.566 c0.004,1.128,0.007,2.235,0.008,3.276c-0.405,0.008-0.814,0.015-1.216,0.023c-0.643,0.013-1.302,0.024-1.952,0.037 c-0.002-0.916,0.061-1.859,0.122-2.778c0.089-1.341,0.17-2.721,0.072-4.062c0.188,0,0.379,0,0.566,0 c0.792,0,1.595-0.001,2.393-0.001C25.987,11.153,25.991,12.357,25.995,13.566z M26.155,29.582c0.027,4.309,0.056,8.764,0.151,12.1 c0.002,0.062,0.018,0.12,0.04,0.174c-1.06-0.018-2.141-0.04-3.245-0.07c-0.119-3.168-0.119-7.607-0.118-11.904 c0.001-4.319,0.002-8.779-0.12-11.98c0.647-0.012,1.303-0.024,1.943-0.036c0.399-0.008,0.805-0.015,1.206-0.023 C26.1,21.131,26.128,25.42,26.155,29.582z M22.851,8.995c-1.15-0.137-2.348-1.142-2.67-2.241c-0.207-0.706-0.161-2.026,0.188-2.561 c0.106-0.162,0.19-0.174,0.218-0.177c0.991-0.136,1.622,0.451,2.116,1.036c0.629,0.743,1.138,2.203,1.402,4.009 c-0.169,0-0.341,0-0.511,0c-0.182,0-0.367,0-0.549,0C22.987,9.028,22.922,9.003,22.851,8.995z M4.078,14.52l0.038-1.026 c0.03-0.865,0.068-1.941,0.004-2.661c-0.015-0.165-0.037-0.415,0.033-0.523c0.11-0.171,0.573-0.176,0.748-0.178 c5.574-0.059,11.416-0.066,17.125-0.068c0.103,1.296,0.021,2.664-0.068,3.995c-0.063,0.944-0.127,1.912-0.125,2.863 c-2.567,0.048-5.155,0.093-7.712,0.111c-0.942,0.008-1.867-0.017-2.792-0.038c-0.828-0.021-1.657-0.04-2.502-0.04 c-1.382,0-3.385-0.083-4.766-0.313C4.021,15.942,4.047,15.274,4.078,14.52z M7.462,40.68c-0.813-0.487-0.99-1.662-1.061-2.859 c-0.15-2.545-0.179-6.438-0.208-10.201c-0.027-3.551-0.055-7.199-0.184-9.764c0.993,0.068,2.01,0.098,2.819,0.098 c0.836,0,1.658,0.02,2.478,0.039c0.827,0.021,1.652,0.04,2.492,0.04c0.11,0,0.22,0,0.331-0.001 c2.566-0.018,5.161-0.062,7.735-0.111c0.121,3.174,0.121,7.64,0.12,11.961c-0.001,4.277-0.001,8.691,0.116,11.874 c-4.345-0.131-8.92-0.36-13.245-0.751C8.289,40.954,7.827,40.897,7.462,40.68z M42.096,28.942c-0.066,3.7-0.129,7.194-0.042,9.721 c0.031,0.866,0.022,1.525-0.374,2.122c-0.61,0.917-1.965,1.063-3.339,1.083c-2.778,0.04-6.679,0.066-11.083,0.003 c0.031-0.067,0.05-0.14,0.048-0.219c-0.095-3.324-0.124-7.773-0.151-12.077c-0.027-4.169-0.055-8.465-0.142-11.753 c4.297-0.083,8.679-0.151,12.984-0.126c0.525,0.003,1.119,0.049,1.727,0.096c0.128,0.01,0.257,0.016,0.386,0.025 C42.24,20.739,42.168,24.898,42.096,28.942z M43.878,14.443c-0.011,0.813-0.022,1.627-0.008,2.452 c-0.636,0.018-1.365-0.047-2.071-0.101c-0.632-0.049-1.25-0.096-1.797-0.099c-4.304-0.021-8.696,0.046-12.999,0.127 c-0.001-1.026-0.004-2.14-0.008-3.26c-0.004-1.21-0.008-2.412-0.008-3.504c5.127-0.003,10.325-0.015,15.31-0.067 c0.498-0.016,0.961,0.01,1.228,0.248c0.294,0.264,0.335,0.795,0.351,1.317C43.905,12.533,43.892,13.488,43.878,14.443z"/></svg>