<?xml version="1.0" encoding="UTF-8"?>
<svg xmlns="http://www.w3.org/2000/svg" xmlns:xlink="http://www.w3.org/1999/xlink" viewBox="0 0 64 64" width="64px" height="64px">
<g id="surface12399532">
<path style=" stroke:none;fill-rule:nonzero;fill:rgb(93.333334%,24.313726%,32.941177%);fill-opacity:1;" d="M 8.320312 17.28125 C 7.613281 17.28125 7.039062 17.851562 7.039062 18.558594 C 7.039062 19.265625 7.613281 19.839844 8.320312 19.839844 C 9.027344 19.839844 9.601562 19.265625 9.601562 18.558594 C 9.601562 17.851562 9.027344 17.28125 8.320312 17.28125 Z M 8.320312 17.28125 "/>
<path style=" stroke:none;fill-rule:nonzero;fill:rgb(94.509804%,73.725492%,9.803922%);fill-opacity:1;" d="M 49.28125 7.679688 C 48.925781 7.679688 48.640625 7.964844 48.640625 8.320312 C 48.640625 8.671875 48.925781 8.960938 49.28125 8.960938 C 49.632812 8.960938 49.921875 8.671875 49.921875 8.320312 C 49.921875 7.964844 49.632812 7.679688 49.28125 7.679688 Z M 49.28125 7.679688 "/>
<path style=" stroke:none;fill-rule:nonzero;fill:rgb(98.823529%,87.843138%,63.529414%);fill-opacity:1;" d="M 32.160156 8.375 C 19.082031 8.375 8.480469 18.976562 8.480469 32.054688 C 8.480469 45.132812 19.082031 55.734375 32.160156 55.734375 C 45.238281 55.734375 55.839844 45.132812 55.839844 32.054688 C 55.839844 18.976562 45.238281 8.375 32.160156 8.375 Z M 32.160156 8.375 "/>
<path style=" stroke:none;fill-rule:nonzero;fill:rgb(94.509804%,73.725492%,9.803922%);fill-opacity:1;" d="M 53.121094 7.039062 C 51.707031 7.039062 50.558594 8.1875 50.558594 9.601562 C 50.558594 11.015625 51.707031 12.160156 53.121094 12.160156 C 54.535156 12.160156 55.679688 11.015625 55.679688 9.601562 C 55.679688 8.1875 54.535156 7.039062 53.121094 7.039062 Z M 53.121094 7.039062 "/>
<path style=" stroke:none;fill-rule:nonzero;fill:rgb(93.333334%,24.313726%,32.941177%);fill-opacity:1;" d="M 55.679688 14.078125 C 54.972656 14.078125 54.398438 14.652344 54.398438 15.359375 C 54.398438 16.066406 54.972656 16.640625 55.679688 16.640625 C 56.386719 16.640625 56.960938 16.066406 56.960938 15.359375 C 56.960938 14.652344 56.386719 14.078125 55.679688 14.078125 Z M 55.679688 14.078125 "/>
<path style=" stroke:none;fill-rule:nonzero;fill:rgb(98.431373%,80.392158%,34.901962%);fill-opacity:1;" d="M 51.839844 47.359375 C 51.132812 47.359375 50.558594 47.933594 50.558594 48.640625 C 50.558594 49.347656 51.132812 49.921875 51.839844 49.921875 C 52.546875 49.921875 53.121094 49.347656 53.121094 48.640625 C 53.121094 47.933594 52.546875 47.359375 51.839844 47.359375 Z M 9.601562 37.761719 C 8.1875 37.761719 7.039062 38.90625 7.039062 40.320312 C 7.039062 41.734375 8.1875 42.878906 9.601562 42.878906 C 11.015625 42.878906 12.160156 41.734375 12.160156 40.320312 C 12.160156 38.90625 11.015625 37.761719 9.601562 37.761719 Z M 9.601562 37.761719 "/>
<path style=" stroke:none;fill-rule:nonzero;fill:rgb(93.333334%,24.313726%,32.941177%);fill-opacity:1;" d="M 16 54.398438 C 15.292969 54.398438 14.71875 54.972656 14.71875 55.679688 C 14.71875 56.386719 15.292969 56.960938 16 56.960938 C 16.707031 56.960938 17.28125 56.386719 17.28125 55.679688 C 17.28125 54.972656 16.707031 54.398438 16 54.398438 Z M 16 54.398438 "/>
<path style=" stroke:none;fill-rule:nonzero;fill:rgb(100%,100%,100%);fill-opacity:1;" d="M 11.839844 32.640625 C 10.957031 32.640625 10.238281 33.355469 10.238281 34.238281 C 10.238281 35.125 10.957031 35.839844 11.839844 35.839844 C 12.722656 35.839844 13.441406 35.125 13.441406 34.238281 C 13.441406 33.355469 12.722656 32.640625 11.839844 32.640625 Z M 11.839844 32.640625 "/>
<path style=" stroke:none;fill-rule:nonzero;fill:rgb(94.509804%,73.725492%,9.803922%);fill-opacity:1;" d="M 13.441406 42.238281 C 13.085938 42.238281 12.800781 42.527344 12.800781 42.878906 C 12.800781 43.234375 13.085938 43.519531 13.441406 43.519531 C 13.792969 43.519531 14.078125 43.234375 14.078125 42.878906 C 14.078125 42.527344 13.792969 42.238281 13.441406 42.238281 Z M 13.441406 42.238281 "/>
<path style=" stroke:none;fill-rule:nonzero;fill:rgb(100%,100%,100%);fill-opacity:1;" d="M 51.199219 21.121094 C 50.847656 21.121094 50.558594 21.40625 50.558594 21.761719 C 50.558594 22.113281 50.847656 22.398438 51.199219 22.398438 C 51.554688 22.398438 51.839844 22.113281 51.839844 21.761719 C 51.839844 21.40625 51.554688 21.121094 51.199219 21.121094 Z M 51.199219 21.121094 "/>
<path style=" stroke:none;fill-rule:nonzero;fill:rgb(28.235295%,74.509805%,84.705883%);fill-opacity:1;" d="M 34.238281 50.753906 C 29.371094 50.753906 25.40625 46.789062 25.40625 41.921875 C 25.40625 36.328125 32.59375 27.667969 34.238281 25.757812 C 35.886719 27.667969 43.070312 36.328125 43.070312 41.921875 C 43.070312 46.789062 39.109375 50.753906 34.238281 50.753906 Z M 34.238281 50.753906 "/>
<path style=" stroke:none;fill-rule:nonzero;fill:rgb(27.843139%,16.862746%,16.078432%);fill-opacity:1;" d="M 34.238281 26.449219 C 36.332031 28.925781 42.625 36.800781 42.625 41.921875 C 42.625 46.542969 38.863281 50.304688 34.238281 50.304688 C 29.617188 50.304688 25.855469 46.542969 25.855469 41.921875 C 25.855469 36.800781 32.148438 28.925781 34.238281 26.449219 M 34.238281 25.078125 C 34.238281 25.078125 24.960938 35.390625 24.960938 41.921875 C 24.960938 47.046875 29.113281 51.199219 34.238281 51.199219 C 39.363281 51.199219 43.519531 47.046875 43.519531 41.921875 C 43.519531 35.390625 34.238281 25.078125 34.238281 25.078125 Z M 34.238281 25.078125 "/>
<path style=" stroke:none;fill-rule:nonzero;fill:rgb(100%,100%,100%);fill-opacity:1;" d="M 31.101562 33.921875 C 28.585938 37.171875 24.375 46.027344 33.601562 48.640625 C 31.390625 46.210938 28.851562 42.347656 31.101562 33.921875 Z M 31.101562 33.921875 "/>
<path style=" stroke:none;fill-rule:nonzero;fill:rgb(27.843139%,16.862746%,16.078432%);fill-opacity:1;" d="M 33.601562 48.800781 C 33.585938 48.800781 33.570312 48.796875 33.554688 48.792969 C 31.066406 48.089844 29.355469 46.875 28.46875 45.183594 C 27.554688 43.445312 27.535156 41.171875 28.40625 38.613281 C 28.4375 38.53125 28.527344 38.484375 28.609375 38.515625 C 28.695312 38.542969 28.738281 38.632812 28.710938 38.71875 C 28.121094 40.441406 27.652344 42.9375 28.75 45.035156 C 29.53125 46.519531 30.992188 47.625 33.101562 48.320312 C 32.617188 47.75 32.023438 46.988281 31.515625 46.046875 C 31.472656 45.96875 31.5 45.875 31.578125 45.832031 C 31.65625 45.789062 31.753906 45.816406 31.796875 45.894531 C 32.429688 47.0625 33.199219 47.960938 33.71875 48.53125 C 33.765625 48.585938 33.773438 48.664062 33.734375 48.722656 C 33.707031 48.773438 33.65625 48.800781 33.601562 48.800781 Z M 33.601562 48.800781 "/>
<path style=" stroke:none;fill-rule:nonzero;fill:rgb(27.843139%,16.862746%,16.078432%);fill-opacity:1;" d="M 30.871094 44.324219 C 30.804688 44.324219 30.742188 44.28125 30.71875 44.214844 C 29.835938 41.566406 29.84375 38.441406 30.742188 34.6875 C 30.324219 35.300781 29.792969 36.167969 29.300781 37.242188 C 29.261719 37.324219 29.167969 37.359375 29.089844 37.320312 C 29.007812 37.285156 28.972656 37.191406 29.007812 37.109375 C 29.742188 35.511719 30.554688 34.363281 30.972656 33.820312 C 31.019531 33.761719 31.101562 33.742188 31.171875 33.777344 C 31.238281 33.8125 31.273438 33.886719 31.253906 33.960938 C 30.175781 38.015625 30.097656 41.335938 31.023438 44.113281 C 31.050781 44.195312 31.003906 44.285156 30.921875 44.3125 C 30.902344 44.320312 30.886719 44.324219 30.871094 44.324219 Z M 37.542969 47.9375 C 37.484375 47.9375 37.429688 47.90625 37.398438 47.851562 C 37.359375 47.773438 37.386719 47.675781 37.464844 47.636719 C 37.886719 47.414062 38.273438 47.164062 38.617188 46.894531 C 38.6875 46.839844 38.789062 46.851562 38.839844 46.921875 C 38.898438 46.988281 38.882812 47.089844 38.816406 47.144531 C 38.457031 47.425781 38.054688 47.6875 37.617188 47.917969 C 37.59375 47.929688 37.566406 47.9375 37.542969 47.9375 Z M 39.675781 46.246094 C 39.640625 46.246094 39.605469 46.234375 39.574219 46.210938 C 39.507812 46.152344 39.5 46.054688 39.554688 45.984375 C 41.542969 43.582031 40.890625 40.351562 39.992188 38.070312 C 39.957031 37.988281 40 37.894531 40.082031 37.863281 C 40.164062 37.832031 40.257812 37.871094 40.289062 37.953125 C 41.21875 40.316406 41.890625 43.664062 39.800781 46.1875 C 39.769531 46.226562 39.722656 46.246094 39.675781 46.246094 Z M 39.675781 46.246094 "/>
<path style=" stroke:none;fill-rule:nonzero;fill:rgb(27.843139%,16.862746%,16.078432%);fill-opacity:1;" d="M 39.511719 36.777344 C 39.453125 36.777344 39.398438 36.742188 39.371094 36.6875 C 38.886719 35.722656 38.296875 34.777344 37.710938 34.019531 C 37.65625 33.949219 37.667969 33.847656 37.738281 33.792969 C 37.808594 33.738281 37.910156 33.75 37.964844 33.820312 C 38.5625 34.597656 39.164062 35.5625 39.65625 36.542969 C 39.695312 36.621094 39.664062 36.71875 39.585938 36.757812 C 39.5625 36.769531 39.539062 36.777344 39.511719 36.777344 Z M 39.511719 36.777344 "/>
<path style=" stroke:none;fill-rule:nonzero;fill:rgb(28.235295%,74.509805%,84.705883%);fill-opacity:1;" d="M 45.019531 30.273438 C 43.292969 30.273438 41.886719 28.867188 41.886719 27.136719 C 41.886719 25.40625 43.910156 22.644531 45.019531 21.324219 C 45.886719 22.363281 48.152344 25.253906 48.152344 27.136719 C 48.152344 28.867188 46.75 30.273438 45.019531 30.273438 Z M 45.019531 30.273438 "/>
<path style=" stroke:none;fill-rule:nonzero;fill:rgb(27.843139%,16.862746%,16.078432%);fill-opacity:1;" d="M 45.023438 22.027344 C 46.253906 23.5625 47.707031 25.808594 47.707031 27.136719 C 47.707031 28.617188 46.5 29.824219 45.019531 29.824219 C 43.542969 29.824219 42.335938 28.617188 42.335938 27.136719 C 42.335938 25.695312 43.925781 23.398438 45.023438 22.027344 M 45.019531 20.640625 C 45.019531 20.640625 41.441406 24.617188 41.441406 27.140625 C 41.441406 29.117188 43.042969 30.71875 45.019531 30.71875 C 47 30.71875 48.601562 29.117188 48.601562 27.140625 C 48.601562 24.617188 45.019531 20.640625 45.019531 20.640625 Z M 45.019531 20.640625 "/>
<path style=" stroke:none;fill-rule:nonzero;fill:rgb(28.235295%,74.509805%,84.705883%);fill-opacity:1;" d="M 22.542969 31.871094 C 19.621094 31.871094 17.246094 29.496094 17.246094 26.578125 C 17.246094 23.308594 21.332031 18.265625 22.542969 16.84375 C 23.75 18.265625 27.835938 23.308594 27.835938 26.578125 C 27.832031 29.496094 25.460938 31.871094 22.542969 31.871094 Z M 22.542969 31.871094 "/>
<path style=" stroke:none;fill-rule:nonzero;fill:rgb(27.843139%,16.862746%,16.078432%);fill-opacity:1;" d="M 22.542969 17.535156 C 24.328125 19.683594 27.386719 23.921875 27.386719 26.578125 C 27.386719 29.25 25.210938 31.425781 22.542969 31.425781 C 19.871094 31.425781 17.695312 29.25 17.695312 26.578125 C 17.695312 23.925781 20.753906 19.6875 22.542969 17.535156 M 22.539062 16.160156 C 22.539062 16.160156 16.800781 22.539062 16.800781 26.578125 C 16.800781 29.75 19.371094 32.320312 22.539062 32.320312 C 25.710938 32.320312 28.28125 29.75 28.28125 26.578125 C 28.28125 22.539062 22.539062 16.160156 22.539062 16.160156 Z M 22.539062 16.160156 "/>
<path style=" stroke:none;fill-rule:nonzero;fill:rgb(100%,100%,100%);fill-opacity:1;" d="M 21.15625 21.628906 C 19.667969 23.558594 17.167969 28.808594 22.640625 30.359375 C 21.328125 28.917969 19.824219 26.628906 21.15625 21.628906 Z M 21.15625 21.628906 "/>
<path style=" stroke:none;fill-rule:nonzero;fill:rgb(27.843139%,16.862746%,16.078432%);fill-opacity:1;" d="M 22.640625 30.519531 C 22.625 30.519531 22.609375 30.519531 22.597656 30.515625 C 21.101562 30.089844 20.074219 29.359375 19.539062 28.339844 C 18.988281 27.292969 18.976562 25.925781 19.5 24.390625 C 19.527344 24.308594 19.617188 24.261719 19.703125 24.292969 C 19.785156 24.320312 19.828125 24.414062 19.800781 24.496094 C 19.457031 25.507812 19.179688 26.96875 19.820312 28.191406 C 20.246094 29.003906 21.027344 29.621094 22.144531 30.03125 C 21.886719 29.714844 21.597656 29.320312 21.347656 28.851562 C 21.304688 28.777344 21.332031 28.679688 21.410156 28.636719 C 21.488281 28.59375 21.585938 28.621094 21.628906 28.699219 C 22 29.386719 22.453125 29.914062 22.757812 30.253906 C 22.804688 30.304688 22.8125 30.382812 22.777344 30.445312 C 22.746094 30.492188 22.695312 30.519531 22.640625 30.519531 Z M 22.640625 30.519531 "/>
<path style=" stroke:none;fill-rule:nonzero;fill:rgb(27.843139%,16.862746%,16.078432%);fill-opacity:1;" d="M 21.019531 27.863281 C 20.953125 27.863281 20.890625 27.824219 20.871094 27.753906 C 20.371094 26.257812 20.347656 24.507812 20.800781 22.425781 C 20.597656 22.75 20.367188 23.15625 20.148438 23.628906 C 20.113281 23.707031 20.015625 23.742188 19.9375 23.707031 C 19.855469 23.667969 19.820312 23.574219 19.859375 23.496094 C 20.296875 22.542969 20.78125 21.855469 21.03125 21.53125 C 21.078125 21.472656 21.160156 21.453125 21.230469 21.488281 C 21.296875 21.519531 21.332031 21.597656 21.3125 21.671875 C 20.675781 24.0625 20.628906 26.019531 21.171875 27.65625 C 21.203125 27.738281 21.15625 27.828125 21.074219 27.855469 C 21.054688 27.863281 21.039062 27.863281 21.019531 27.863281 Z M 24.128906 30.269531 C 24.078125 30.269531 24.027344 30.242188 23.996094 30.195312 C 23.949219 30.121094 23.96875 30.023438 24.042969 29.976562 C 24.257812 29.835938 24.457031 29.683594 24.632812 29.519531 C 24.695312 29.457031 24.796875 29.460938 24.859375 29.527344 C 24.917969 29.589844 24.914062 29.691406 24.851562 29.75 C 24.664062 29.929688 24.449219 30.09375 24.214844 30.246094 C 24.191406 30.261719 24.160156 30.269531 24.128906 30.269531 Z M 25.234375 29.21875 C 25.203125 29.21875 25.171875 29.210938 25.144531 29.191406 C 25.070312 29.140625 25.054688 29.042969 25.105469 28.96875 C 26.101562 27.515625 25.6875 25.621094 25.164062 24.289062 C 25.132812 24.203125 25.171875 24.113281 25.253906 24.078125 C 25.335938 24.046875 25.429688 24.089844 25.460938 24.171875 C 26.011719 25.578125 26.445312 27.582031 25.367188 29.152344 C 25.335938 29.195312 25.285156 29.21875 25.234375 29.21875 Z M 25.234375 29.21875 "/>
<path style=" stroke:none;fill-rule:nonzero;fill:rgb(27.843139%,16.862746%,16.078432%);fill-opacity:1;" d="M 24.949219 23.566406 C 24.890625 23.566406 24.832031 23.535156 24.804688 23.476562 C 24.527344 22.914062 24.195312 22.363281 23.867188 21.925781 C 23.8125 21.855469 23.828125 21.753906 23.898438 21.699219 C 23.972656 21.648438 24.070312 21.664062 24.125 21.734375 C 24.460938 22.1875 24.804688 22.757812 25.09375 23.335938 C 25.132812 23.417969 25.097656 23.511719 25.019531 23.550781 C 24.996094 23.5625 24.972656 23.566406 24.949219 23.566406 Z M 24.949219 23.566406 "/>
<path style=" stroke:none;fill-rule:nonzero;fill:rgb(99.215686%,98.823529%,93.725491%);fill-opacity:1;" d="M 59.960938 50.359375 C 59.960938 55.660156 55.660156 59.960938 50.359375 59.960938 C 45.058594 59.960938 40.757812 55.660156 40.757812 50.359375 C 40.757812 45.058594 45.058594 40.757812 50.359375 40.757812 C 55.660156 40.757812 59.960938 45.058594 59.960938 50.359375 Z M 59.960938 50.359375 "/>
<path style=" stroke:none;fill-rule:nonzero;fill:rgb(27.843139%,16.862746%,16.078432%);fill-opacity:1;" d="M 50.359375 41.335938 C 55.335938 41.335938 59.382812 45.382812 59.382812 50.359375 C 59.382812 55.335938 55.335938 59.382812 50.359375 59.382812 C 45.382812 59.382812 41.335938 55.335938 41.335938 50.359375 C 41.335938 45.382812 45.382812 41.335938 50.359375 41.335938 M 50.359375 40.4375 C 44.878906 40.4375 40.4375 44.878906 40.4375 50.359375 C 40.4375 55.835938 44.878906 60.277344 50.359375 60.277344 C 55.835938 60.277344 60.277344 55.835938 60.277344 50.359375 C 60.277344 44.878906 55.835938 40.4375 50.359375 40.4375 Z M 50.359375 40.4375 "/>
<path style=" stroke:none;fill-rule:nonzero;fill:rgb(94.509804%,73.725492%,9.803922%);fill-opacity:1;" d="M 58.199219 50.359375 C 58.199219 54.6875 54.6875 58.199219 50.359375 58.199219 C 46.027344 58.199219 42.519531 54.6875 42.519531 50.359375 C 42.519531 46.027344 46.027344 42.519531 50.359375 42.519531 C 54.6875 42.519531 58.199219 46.027344 58.199219 50.359375 Z M 58.199219 50.359375 "/>
<path style=" stroke:none;fill-rule:nonzero;fill:rgb(93.333334%,82.352942%,37.64706%);fill-opacity:1;" d="M 50.359375 42.519531 C 46.035156 42.519531 42.519531 46.035156 42.519531 50.359375 C 42.519531 50.457031 42.53125 50.550781 42.535156 50.648438 C 43.285156 47.015625 46.5 44.277344 50.359375 44.277344 C 54.21875 44.277344 57.433594 47.015625 58.183594 50.652344 C 58.1875 50.554688 58.199219 50.457031 58.199219 50.359375 C 58.199219 46.035156 54.679688 42.519531 50.359375 42.519531 Z M 50.359375 42.519531 "/>
<path style=" stroke:none;fill-rule:nonzero;fill:rgb(27.843139%,16.862746%,16.078432%);fill-opacity:1;" d="M 50.359375 42.679688 C 54.59375 42.679688 58.039062 46.125 58.039062 50.359375 C 58.039062 54.59375 54.59375 58.039062 50.359375 58.039062 C 46.125 58.039062 42.679688 54.59375 42.679688 50.359375 C 42.679688 46.125 46.125 42.679688 50.359375 42.679688 M 50.359375 42.359375 C 45.949219 42.359375 42.359375 45.949219 42.359375 50.359375 C 42.359375 54.769531 45.949219 58.359375 50.359375 58.359375 C 54.769531 58.359375 58.359375 54.769531 58.359375 50.359375 C 58.359375 45.949219 54.769531 42.359375 50.359375 42.359375 Z M 50.359375 42.359375 "/>
<path style=" stroke:none;fill-rule:nonzero;fill:rgb(27.843139%,16.862746%,16.078432%);fill-opacity:1;" d="M 52.359375 51.898438 C 52.359375 51.574219 52.3125 51.292969 52.21875 51.054688 C 52.128906 50.8125 51.992188 50.617188 51.808594 50.460938 C 51.625 50.304688 51.453125 50.183594 51.292969 50.097656 C 51.128906 50.007812 50.925781 49.917969 50.679688 49.828125 L 50.679688 47.574219 C 50.953125 47.589844 51.207031 47.652344 51.441406 47.765625 C 51.679688 47.882812 51.8125 47.9375 51.847656 47.9375 C 51.949219 47.9375 52.035156 47.886719 52.097656 47.78125 C 52.164062 47.675781 52.195312 47.578125 52.195312 47.488281 C 52.195312 47.304688 52.039062 47.15625 51.722656 47.039062 C 51.410156 46.925781 51.0625 46.859375 50.679688 46.839844 L 50.679688 46.4375 C 50.679688 46.304688 50.570312 46.199219 50.4375 46.199219 C 50.304688 46.199219 50.199219 46.304688 50.199219 46.4375 L 50.199219 46.859375 L 50.175781 46.859375 C 49.941406 46.878906 49.726562 46.921875 49.527344 46.992188 C 49.328125 47.058594 49.140625 47.160156 48.964844 47.289062 C 48.789062 47.421875 48.648438 47.601562 48.546875 47.828125 C 48.445312 48.054688 48.394531 48.3125 48.394531 48.609375 C 48.394531 48.855469 48.429688 49.074219 48.507812 49.265625 C 48.585938 49.460938 48.671875 49.617188 48.761719 49.730469 C 48.855469 49.847656 48.996094 49.960938 49.1875 50.074219 C 49.375 50.183594 49.53125 50.265625 49.652344 50.308594 L 50.175781 50.507812 L 50.199219 50.515625 L 50.199219 53.132812 L 50.175781 53.132812 C 49.921875 53.121094 49.695312 53.074219 49.492188 52.992188 C 49.292969 52.90625 49.144531 52.820312 49.054688 52.722656 C 48.960938 52.628906 48.871094 52.542969 48.78125 52.460938 C 48.695312 52.382812 48.625 52.34375 48.574219 52.34375 C 48.484375 52.34375 48.402344 52.394531 48.328125 52.492188 C 48.257812 52.589844 48.21875 52.691406 48.21875 52.796875 C 48.21875 53.027344 48.40625 53.261719 48.785156 53.507812 C 49.160156 53.75 49.621094 53.871094 50.175781 53.878906 L 50.199219 53.878906 L 50.199219 54.277344 C 50.199219 54.410156 50.304688 54.519531 50.4375 54.519531 C 50.570312 54.519531 50.679688 54.410156 50.679688 54.277344 L 50.679688 53.847656 C 51.195312 53.777344 51.601562 53.578125 51.902344 53.246094 C 52.207031 52.917969 52.359375 52.46875 52.359375 51.898438 Z M 49.414062 49.226562 C 49.242188 49.074219 49.152344 48.839844 49.152344 48.53125 C 49.152344 47.980469 49.503906 47.667969 50.199219 47.589844 L 50.199219 49.652344 C 49.851562 49.519531 49.585938 49.378906 49.414062 49.226562 Z M 50.679688 53.101562 L 50.679688 50.71875 C 50.964844 50.84375 51.191406 50.996094 51.347656 51.179688 C 51.515625 51.367188 51.597656 51.636719 51.597656 51.976562 C 51.597656 52.613281 51.289062 52.984375 50.679688 53.101562 Z M 50.679688 53.101562 "/>
</g>
</svg>
