<svg xmlns="http://www.w3.org/2000/svg"  viewBox="0 0 100 100" width="64px" height="64px"><path fill="#c7ede6" d="M87.215,56.71C88.35,54.555,89,52.105,89,49.5c0-6.621-4.159-12.257-10.001-14.478 C78.999,35.015,79,35.008,79,35c0-11.598-9.402-21-21-21c-9.784,0-17.981,6.701-20.313,15.757C36.211,29.272,34.638,29,33,29 c-7.692,0-14.023,5.793-14.89,13.252C12.906,43.353,9,47.969,9,53.5C9,59.851,14.149,65,20.5,65c0.177,0,0.352-0.012,0.526-0.022 C21.022,65.153,21,65.324,21,65.5C21,76.822,30.178,86,41.5,86c6.437,0,12.175-2.972,15.934-7.614C59.612,80.611,62.64,82,66,82 c4.65,0,8.674-2.65,10.666-6.518C77.718,75.817,78.837,76,80,76c6.075,0,11-4.925,11-11C91,61.689,89.53,58.727,87.215,56.71z"/><path fill="#fff" d="M69.405,24H59.5c-0.276,0-0.5-0.224-0.5-0.5s0.224-0.5,0.5-0.5h9.905c0.276,0,0.5,0.224,0.5,0.5 S69.682,24,69.405,24z"/><path fill="#fff" d="M72.5,24h-1c-0.276,0-0.5-0.224-0.5-0.5s0.224-0.5,0.5-0.5h1c0.276,0,0.5,0.224,0.5,0.5 S72.777,24,72.5,24z"/><path fill="#fff" d="M77.491,26H68.5c-0.276,0-0.5-0.224-0.5-0.5s0.224-0.5,0.5-0.5h8.991c0.276,0,0.5,0.224,0.5,0.5 S77.767,26,77.491,26z"/><path fill="#fff" d="M66.5,26h-1c-0.276,0-0.5-0.224-0.5-0.5s0.224-0.5,0.5-0.5h1c0.276,0,0.5,0.224,0.5,0.5 S66.777,26,66.5,26z"/><path fill="#fff" d="M63.5,26h-2c-0.276,0-0.5-0.224-0.5-0.5s0.224-0.5,0.5-0.5h2c0.276,0,0.5,0.224,0.5,0.5 S63.777,26,63.5,26z"/><path fill="#fff" d="M69.5,28h-2c-0.276,0-0.5-0.224-0.5-0.5s0.224-0.5,0.5-0.5h2c0.276,0,0.5,0.224,0.5,0.5 S69.776,28,69.5,28z"/><path fill="#fff" d="M72.5,19c-0.177,0-0.823,0-1,0c-0.276,0-0.5,0.224-0.5,0.5c0,0.276,0.224,0.5,0.5,0.5 c0.177,0,0.823,0,1,0c0.276,0,0.5-0.224,0.5-0.5C73,19.224,72.776,19,72.5,19z"/><path fill="#fff" d="M72.5,21c-0.177,0-4.823,0-5,0c-0.276,0-0.5,0.224-0.5,0.5c0,0.276,0.224,0.5,0.5,0.5 c0.177,0,4.823,0,5,0c0.276,0,0.5-0.224,0.5-0.5C73,21.224,72.776,21,72.5,21z"/><path fill="#fff" d="M77.5,23c-0.177,0-2.823,0-3,0c-0.276,0-0.5,0.224-0.5,0.5c0,0.276,0.224,0.5,0.5,0.5 c0.177,0,2.823,0,3,0c0.276,0,0.5-0.224,0.5-0.5C78,23.224,77.776,23,77.5,23z"/><g><path fill="#fff" d="M16.5,54h-10C6.224,54,6,53.776,6,53.5S6.224,53,6.5,53h10c0.276,0,0.5,0.224,0.5,0.5 S16.776,54,16.5,54z"/><path fill="#fff" d="M20.5,54h-2c-0.276,0-0.5-0.224-0.5-0.5s0.224-0.5,0.5-0.5h2c0.276,0,0.5,0.224,0.5,0.5 S20.776,54,20.5,54z"/><path fill="#fff" d="M25.5,56h-10c-0.276,0-0.5-0.224-0.5-0.5s0.224-0.5,0.5-0.5h10c0.276,0,0.5,0.224,0.5,0.5 S25.777,56,25.5,56z"/><path fill="#fff" d="M13.5,56h-1c-0.276,0-0.5-0.224-0.5-0.5s0.224-0.5,0.5-0.5h1c0.276,0,0.5,0.224,0.5,0.5 S13.776,56,13.5,56z"/><path fill="#fff" d="M10.47,56H8.5C8.224,56,8,55.776,8,55.5S8.224,55,8.5,55h1.97c0.276,0,0.5,0.224,0.5,0.5 S10.746,56,10.47,56z"/><path fill="#fff" d="M19.5,52h-5c-0.276,0-0.5-0.224-0.5-0.5s0.224-0.5,0.5-0.5h5c0.276,0,0.5,0.224,0.5,0.5 S19.777,52,19.5,52z"/><path fill="#fff" d="M16.5,58h-2c-0.276,0-0.5-0.224-0.5-0.5s0.224-0.5,0.5-0.5h2c0.276,0,0.5,0.224,0.5,0.5 S16.776,58,16.5,58z"/></g><g><path fill="#fdfcef" d="M31.625,39.5c0,0,3.64,0,6.125,0s4.5-2.015,4.5-4.5c0-2.333-1.782-4.229-4.055-4.455 c0.022-0.181,0.055-0.358,0.055-0.545c0-2.485-2.015-4.5-4.5-4.5c-1.438,0-2.703,0.686-3.527,1.736 C30.083,24.6,27.921,22.5,25.25,22.5c-2.761,0-5,2.239-5,5c0,0.446,0.077,0.87,0.187,1.282c-0.642-0.777-1.6-1.282-2.687-1.282 c-1.781,0-3.234,1.335-3.455,3.055c-0.181-0.022-0.358-0.055-0.545-0.055c-2.485,0-4.5,2.015-4.5,4.5s2.015,4.5,4.5,4.5 s9.5,0,9.5,0h5.375V40h3V39.5z"/><path fill="#472b29" d="M25.25,22c-3.033,0-5.5,2.467-5.5,5.5c0,0.016,0,0.031,0,0.047c-0.602-0.354-1.29-0.547-2-0.547 c-1.831,0-3.411,1.261-3.858,3.005C13.845,30.002,13.798,30,13.75,30c-2.757,0-5,2.243-5,5s2.243,5,5,5h14.875 c0.276,0,0.5-0.224,0.5-0.5s-0.224-0.5-0.5-0.5H13.75c-2.206,0-4-1.794-4-4s1.794-4,4-4c0.117,0,0.23,0.017,0.343,0.032 l0.141,0.019c0.021,0.003,0.041,0.004,0.062,0.004c0.246,0,0.462-0.185,0.495-0.437C14.982,29.125,16.254,28,17.75,28 c0.885,0,1.723,0.401,2.301,1.1c0.098,0.118,0.241,0.182,0.386,0.182c0.078,0,0.156-0.018,0.228-0.056 c0.209-0.107,0.314-0.346,0.254-0.573c-0.116-0.436-0.17-0.802-0.17-1.153c0-2.481,2.019-4.5,4.5-4.5 c2.381,0,4.347,1.872,4.474,4.263c0.011,0.208,0.15,0.387,0.349,0.45c0.05,0.016,0.101,0.024,0.152,0.024 c0.15,0,0.296-0.069,0.392-0.192C31.388,26.563,32.529,26,33.75,26c2.206,0,4,1.794,4,4c0,0.117-0.017,0.23-0.032,0.343 l-0.019,0.141c-0.016,0.134,0.022,0.268,0.106,0.373c0.084,0.105,0.207,0.172,0.34,0.185c2.055,0.205,3.604,1.906,3.604,3.958 c0,2.206-1.794,4-4,4h-6.125c-0.276,0-0.5,0.224-0.5,0.5s0.224,0.5,0.5,0.5h6.125c2.757,0,5-2.243,5-5 c0-2.397-1.689-4.413-4.003-4.877c0.002-0.041,0.003-0.082,0.003-0.123c0-2.757-2.243-5-5-5c-1.176,0-2.293,0.416-3.183,1.164 C29.969,23.76,27.805,22,25.25,22L25.25,22z"/><path fill="#472b29" d="M23.75,29c-1.403,0-2.609,0.999-2.913,2.341C20.47,31.119,20.051,31,19.625,31 c-1.202,0-2.198,0.897-2.353,2.068C17.069,33.022,16.876,33,16.687,33c-1.529,0-2.811,1.2-2.918,2.732 C13.76,35.87,13.864,35.99,14.001,36c0.006,0,0.012,0,0.018,0c0.13,0,0.24-0.101,0.249-0.232c0.089-1.271,1.151-2.268,2.419-2.268 c0.229,0,0.47,0.042,0.738,0.127c0.022,0.007,0.045,0.01,0.067,0.01c0.055,0,0.11-0.02,0.156-0.054 c0.064-0.047,0.102-0.129,0.102-0.209c0-1.034,0.841-1.875,1.875-1.875c0.447,0,0.885,0.168,1.231,0.473 c0.047,0.041,0.106,0.063,0.165,0.063c0.032,0,0.063-0.006,0.093-0.019c0.088-0.035,0.148-0.117,0.155-0.212 c0.102-1.292,1.191-2.305,2.479-2.305c0.208,0,0.425,0.034,0.682,0.107c0.023,0.007,0.047,0.01,0.07,0.01 c0.109,0,0.207-0.073,0.239-0.182c0.038-0.133-0.039-0.271-0.172-0.309C24.267,29.04,24.006,29,23.75,29L23.75,29z"/></g><g><path fill="#fdfcef" d="M82.375,46.5c0,0,1.567,0,3.5,0s3.5-1.567,3.5-3.5c0-1.781-1.335-3.234-3.055-3.455 c0.028-0.179,0.055-0.358,0.055-0.545c0-1.933-1.567-3.5-3.5-3.5c-1.032,0-1.95,0.455-2.59,1.165 c-0.384-1.808-1.987-3.165-3.91-3.165c-2.209,0-4,1.791-4,4c0,0.191,0.03,0.374,0.056,0.558c-0.428-0.344-0.965-0.558-1.556-0.558 c-1.228,0-2.245,0.887-2.455,2.055c-0.179-0.028-0.358-0.055-0.545-0.055c-1.933,0-3.5,1.567-3.5,3.5s1.567,3.5,3.5,3.5 s7.5,0,7.5,0V47h7V46.5z"/><path fill="#472b29" d="M84.125,42c-0.138,0-0.25-0.112-0.25-0.25c0-1.223,0.995-2.218,2.218-2.218 c0.034,0.009,0.737-0.001,1.244,0.136c0.133,0.036,0.212,0.173,0.176,0.306c-0.036,0.134-0.173,0.213-0.306,0.176 c-0.444-0.12-1.1-0.12-1.113-0.118c-0.948,0-1.719,0.771-1.719,1.718C84.375,41.888,84.263,42,84.125,42z"/><circle cx="77.375" cy="46.5" r=".5" fill="#472b29"/><path fill="#472b29" d="M85.875,47h-3.5c-0.276,0-0.5-0.224-0.5-0.5s0.224-0.5,0.5-0.5h3.5c1.654,0,3-1.346,3-3 c0-1.496-1.125-2.768-2.618-2.959c-0.134-0.018-0.255-0.088-0.336-0.196s-0.115-0.244-0.094-0.377 c0.024-0.153,0.049-0.308,0.049-0.468c0-1.654-1.346-3-3-3c-0.85,0-1.638,0.355-2.219,1c-0.125,0.139-0.321,0.198-0.5,0.148 c-0.182-0.049-0.321-0.195-0.36-0.379C79.455,35.165,78.016,34,76.375,34c-1.93,0-3.5,1.57-3.5,3.5 c0,0.143,0.021,0.28,0.041,0.418c0.029,0.203-0.063,0.438-0.242,0.54c-0.179,0.102-0.396,0.118-0.556-0.01 C71.753,38.155,71.324,38,70.875,38c-0.966,0-1.792,0.691-1.963,1.644c-0.048,0.267-0.296,0.446-0.569,0.405 C68.189,40.025,68.035,40,67.875,40c-1.654,0-3,1.346-3,3s1.346,3,3,3h7.5c0.276,0,0.5,0.224,0.5,0.5s-0.224,0.5-0.5,0.5h-7.5 c-2.206,0-4-1.794-4-4s1.794-4,4-4c0.059,0,0.116,0.002,0.174,0.006C68.463,37.82,69.586,37,70.875,37 c0.349,0,0.689,0.061,1.011,0.18c0.165-2.333,2.115-4.18,4.489-4.18c1.831,0,3.466,1.127,4.153,2.774 C81.208,35.276,82.03,35,82.875,35c2.206,0,4,1.794,4,4c0,0.048-0.001,0.095-0.004,0.142c1.743,0.448,3.004,2.027,3.004,3.858 C89.875,45.206,88.081,47,85.875,47z"/><path fill="#472b29" d="M80.375,46c-0.159,0-0.841,0-1,0c-0.276,0-0.5,0.224-0.5,0.5c0,0.276,0.224,0.5,0.5,0.5 c0.159,0,0.841,0,1,0c0.276,0,0.5-0.224,0.5-0.5C80.875,46.224,80.651,46,80.375,46z"/></g><g><path fill="#472b29" d="M53,34h-2v-3.5c0-3.033-2.468-5.5-5.5-5.5S40,27.467,40,30.5V34h-2v-3.5c0-4.135,3.364-7.5,7.5-7.5 s7.5,3.365,7.5,7.5V34z"/><path fill="#836f61" d="M69,52h-4c-3,0-7-4-7-9V30H33l2,22c-1.336,4.455-2,7-2,14h21h4h21C79,59,76,52,69,52z"/><rect width="23" height="5" x="34" y="30" fill="#f1bc19"/><path fill="#f1bc19" d="M78.826,63.164C78.105,57.228,75.048,52,69,52h-4c-3,0-7-4-7-9v-1c0,0-0.121,0-0.315,0.031 C56.762,42.181,53.781,43.124,55,48c1,4,3.941,7.2,7,8c3.01,0.787,4.799,3.05,5.562,5H34v5h44v-2.849L78.826,63.164z"/><path fill="#472b29" d="M56.6,31.4V43c0,5.761,4.595,10.4,8.4,10.4h4c5.843,0,8.216,5.752,8.556,11.2H58h-4H34.41 c0.084-5.776,0.714-8.139,1.931-12.198l0.078-0.259l-0.025-0.27L34.533,31.4H56.6 M58,30H33l2,22c-1.336,4.455-2,7-2,14h21h4h21 c0-7-3-14-10-14h-4c-3,0-7-4-7-9V30L58,30z"/><polygon fill="#836f61" points="47.5,65.5 45.5,65.5 32.5,65.5 32.5,68.5 32.5,70.5 32.5,71.5 35.5,71.5 35.5,70.5 38.5,70.5 38.5,71.5 41.5,71.5 41.5,70.5 44.5,70.5 44.5,71.5 47.5,71.5 47.5,70.5 47.5,68.5 47.5,67.833 55.5,70.5 55.5,71.5 59.5,71.5 59.5,70.5 62.5,70.5 62.5,71.5 66.5,71.5 66.5,70.5 69.5,70.5 69.5,71.5 73.5,71.5 73.5,70.5 76.5,70.5 76.5,71.5 79.5,71.5 79.5,70.5 79.5,68.5 79.5,67.5 79.5,66.5 79.5,65.5"/><path fill="#472b29" d="M79.5,72h-3c-0.276,0-0.5-0.224-0.5-0.5V71h-2v0.5c0,0.276-0.224,0.5-0.5,0.5h-4 c-0.276,0-0.5-0.224-0.5-0.5V71h-2v0.5c0,0.276-0.224,0.5-0.5,0.5h-4c-0.276,0-0.5-0.224-0.5-0.5V71h-2v0.5 c0,0.276-0.224,0.5-0.5,0.5h-4c-0.276,0-0.5-0.224-0.5-0.5v-0.64l-7-2.333V71.5c0,0.276-0.224,0.5-0.5,0.5h-3 c-0.276,0-0.5-0.224-0.5-0.5V71h-2v0.5c0,0.276-0.224,0.5-0.5,0.5h-3c-0.276,0-0.5-0.224-0.5-0.5V71h-2v0.5 c0,0.276-0.224,0.5-0.5,0.5h-3c-0.276,0-0.5-0.224-0.5-0.5v-6c0-0.276,0.224-0.5,0.5-0.5h47c0.276,0,0.5,0.224,0.5,0.5v6 C80,71.776,79.776,72,79.5,72z M77,71h2v-5H33v5h2v-0.5c0-0.276,0.224-0.5,0.5-0.5h3c0.276,0,0.5,0.224,0.5,0.5V71h2v-0.5 c0-0.276,0.224-0.5,0.5-0.5h3c0.276,0,0.5,0.224,0.5,0.5V71h2v-3.167c0-0.161,0.077-0.312,0.208-0.406 c0.129-0.094,0.296-0.12,0.45-0.069l8,2.667C55.862,70.094,56,70.285,56,70.5V71h3v-0.5c0-0.276,0.224-0.5,0.5-0.5h3 c0.276,0,0.5,0.224,0.5,0.5V71h3v-0.5c0-0.276,0.224-0.5,0.5-0.5h3c0.276,0,0.5,0.224,0.5,0.5V71h3v-0.5 c0-0.276,0.224-0.5,0.5-0.5h3c0.276,0,0.5,0.224,0.5,0.5V71z"/><circle cx="45.5" cy="42.5" r="5" fill="#ee3e54"/><path fill="#472b29" d="M67.336,60.927c-0.193,0-0.378-0.113-0.459-0.302c-1.137-2.634-3.033-3.432-4.557-4.073 c-0.254-0.107-0.374-0.4-0.267-0.655c0.105-0.254,0.398-0.375,0.655-0.267c1.6,0.673,3.79,1.595,5.086,4.599 c0.109,0.253-0.008,0.548-0.261,0.657C67.47,60.914,67.402,60.927,67.336,60.927z"/><path fill="#472b29" d="M60.409,55.547c-0.089,0-0.179-0.023-0.26-0.073c-2.128-1.295-3.729-3.098-4.897-5.514 c-0.12-0.249-0.016-0.548,0.232-0.668c0.25-0.119,0.549-0.016,0.668,0.233c1.096,2.268,2.531,3.886,4.517,5.094 c0.236,0.144,0.311,0.451,0.167,0.687C60.742,55.461,60.577,55.547,60.409,55.547z"/><path fill="#472b29" d="M54.917,48.333c-0.207,0-0.4-0.129-0.472-0.336c-1.654-4.743,2.371-6.405,2.412-6.421 c0.261-0.103,0.546,0.024,0.647,0.279c0.103,0.256-0.021,0.546-0.276,0.65c-0.13,0.053-3.173,1.339-1.84,5.163 c0.092,0.26-0.046,0.546-0.307,0.637C55.027,48.324,54.972,48.333,54.917,48.333z"/><path fill="#472b29" d="M39.5,36h-5c-0.276,0-0.5-0.224-0.5-0.5s0.224-0.5,0.5-0.5h5c0.276,0,0.5,0.224,0.5,0.5 S39.776,36,39.5,36z"/><path fill="#472b29" d="M39.5,61h-5c-0.276,0-0.5-0.224-0.5-0.5s0.224-0.5,0.5-0.5h5c0.276,0,0.5,0.224,0.5,0.5 S39.776,61,39.5,61z"/><path fill="#472b29" d="M52.5,61h-10c-0.276,0-0.5-0.224-0.5-0.5s0.224-0.5,0.5-0.5h10c0.276,0,0.5,0.224,0.5,0.5 S52.776,61,52.5,61z"/><path fill="#472b29" d="M67.297,61H55.5c-0.276,0-0.5-0.224-0.5-0.5s0.224-0.5,0.5-0.5h11.797c0.276,0,0.5,0.224,0.5,0.5 S67.573,61,67.297,61z"/><path fill="#472b29" d="M49.5,36h-8c-0.276,0-0.5-0.224-0.5-0.5s0.224-0.5,0.5-0.5h8c0.276,0,0.5,0.224,0.5,0.5 S49.776,36,49.5,36z"/><path fill="#472b29" d="M57.5,36h-6c-0.276,0-0.5-0.224-0.5-0.5s0.224-0.5,0.5-0.5h6c0.276,0,0.5,0.224,0.5,0.5 S57.776,36,57.5,36z"/><path fill="#472b29" d="M41.079,45.087c-0.089,0-0.176-0.048-0.221-0.133c-0.398-0.75-0.608-1.599-0.608-2.454 c0-0.939,0.25-1.859,0.724-2.663c0.069-0.12,0.224-0.159,0.343-0.088c0.119,0.07,0.158,0.223,0.089,0.342 c-0.429,0.726-0.655,1.559-0.655,2.409c0,0.774,0.19,1.542,0.55,2.22c0.064,0.122,0.019,0.273-0.104,0.338 C41.159,45.078,41.119,45.087,41.079,45.087z"/><g><path fill="#472b29" d="M45.5,47.75c-1.175,0-2.287-0.38-3.215-1.098c-0.109-0.085-0.129-0.242-0.044-0.351 c0.083-0.11,0.241-0.129,0.351-0.045c0.839,0.65,1.845,0.994,2.908,0.994c1.851,0,3.546-1.088,4.319-2.771 c0.059-0.125,0.207-0.18,0.332-0.123s0.181,0.206,0.123,0.332C49.419,46.548,47.545,47.75,45.5,47.75z"/></g><g><path fill="#472b29" d="M50.5,42.75c-0.138,0-0.25-0.112-0.25-0.25c0-2.619-2.131-4.75-4.75-4.75 c-1.063,0-2.069,0.344-2.908,0.994c-0.109,0.083-0.268,0.065-0.351-0.045c-0.085-0.109-0.065-0.266,0.044-0.351 c0.928-0.719,2.04-1.098,3.215-1.098c2.895,0,5.25,2.355,5.25,5.25C50.75,42.638,50.638,42.75,50.5,42.75z"/></g></g></svg>