<svg xmlns="http://www.w3.org/2000/svg"  viewBox="0 0 512 512" width="64px" height="64px"><path fill="#14B6B9" d="M125.3,296.1c-0.2-0.6-0.3-1.3-0.3-1.8c-8.3-6.9-17.9-14.4-28.4-17c-5.3-1.3-10.4-0.7-15.2,2.1c-3.1,1.8-8.8,5.3-8.2,9.7c0.4,2.6,3.6,4.5,5.5,5.8c3,2.1,6.1,4,9.3,5.6c5.4,2.7,12.8,6.4,19,6.1c4.2-0.1,8.8-1.6,12.4-3.7C121.8,301.6,126.4,299.3,125.3,296.1z"/><path fill="#BCBCBC" d="M125.1,436.2c-6.6-2.8-12.9-6.7-17.8-11.9c0.4,3.7,0.4,7.4,0.7,11.1c0.2,2.9,0.3,5.8,1,8.6c0.2,0.9,0.4,2,0.9,2.9c0.4,0.8,1.2,1.3,0.6,1.2c4.8,1.3,10.1,1,15.1,1c6.2,0.1,12.4,0.4,18.6,0.7l0.4-9.1c0-0.3,0.1-0.7,0.1-1C138.1,439.3,131.5,438.9,125.1,436.2z"/><path fill="#BCBCBC" d="M161.7,443.9c-0.6-0.1-1.3-0.2-1.9-0.2c-1.4-0.2-2.9-0.3-4.3-0.2c0.1,0-0.6,0.1-1,0.1c-0.3,0.4-0.7,0.6-1.1,0.8l-0.4,10.2c-0.1,2.3-1.8,4.8-4.4,4.7c-8.5-0.4-17.1-0.8-25.6-0.9c-0.5,0-1,0-1.6,0c0,0.3,0,0.7-0.1,1.1c-0.8,4.8-1,9.8-0.8,14.6c0.2,4.2,0.3,8.9,3.9,11.7c3.5,2.7,8.4,3.3,12.6,3.6c3.9,0.2,7.7,0.8,11.6,1.2c2.8,0.3,8.7,1.3,10.3-1.9c2-3.7,2.3-8.2,2.4-12.4C161.8,465.4,161.4,454.7,161.7,443.9z"/><path fill="#C56528" d="M468.1,122c-10.5-4.1-21.2-8.2-32-11.6c-10.4-3.3-21.1-6.4-31-11.2c-10.5-5-20.8-10.3-31.5-15C363,79.6,351.7,76.6,341,72c-10.4-4.5-20.4-9.8-31-13.8c-10.5-3.9-20.7-8.6-31-13c-3.8-1.6-9.5-3.2-13.6-6c-18,8-36.7,14.5-55,22c-20.9,8.7-41.8,17.5-62.7,26.1c-21.1,8.7-42.4,17.2-64,24.5c-12.2,4.1-25.3,7-37.6,11.4c16.7-0.2,33.4-0.7,50.1-1.1c33.1-0.8,66.3-1.6,99.4,0c33,1.6,66,2.7,99,2.8c33,0.1,66-0.1,99,0.3c27.2,0.4,55,3.3,82.1-0.1C473.3,124.1,470.7,123,468.1,122z"/><path fill="#14B6B9" d="M125.3,296.1c-0.2-0.6-0.3-1.3-0.3-1.8c-8.3-6.9-17.9-14.4-28.4-17c-5.3-1.3-10.4-0.7-15.2,2.1c-3.1,1.8-8.8,5.3-8.2,9.7c0.4,2.6,3.6,4.5,5.5,5.8c3,2.1,6.1,4,9.3,5.6c5.4,2.7,12.8,6.4,19,6.1c4.2-0.1,8.8-1.6,12.4-3.7C121.8,301.6,126.4,299.3,125.3,296.1z"/><path fill="#BCBCBC" d="M161.7,443.9c-0.6-0.1-1.3-0.2-1.9-0.2c-1.4-0.2-2.9-0.3-4.3-0.2c0.1,0-0.6,0.1-1,0.1c-0.3,0.4-0.7,0.6-1.1,0.8l-0.4,10.2c-0.1,2.3-1.8,4.8-4.4,4.7c-8.5-0.4-17.1-0.8-25.6-0.9c-0.5,0-1,0-1.6,0c0,0.3,0,0.7-0.1,1.1c-0.8,4.8-1,9.8-0.8,14.6c0.2,4.2,0.3,8.9,3.9,11.7c3.5,2.7,8.4,3.3,12.6,3.6c3.9,0.2,7.7,0.8,11.6,1.2c2.8,0.3,8.7,1.3,10.3-1.9c2-3.7,2.3-8.2,2.4-12.4C161.8,465.4,161.4,454.7,161.7,443.9z"/><path fill="#C56528" d="M61.6 453.6c-.8-31 0-62.1 0-93.2 0-32.3-4-64.2-4-96.5v-48.8c0-15.3.6-30.8 0-46.1-.3-7.7-1.7-15.4-2.3-23.2-.2-3.3-.8-7.7-.1-11.6-5.6.1-11.2.2-16.9.2-.3 3.4-.4 6.8-.2 10.3.6 8 2 16 2.3 24.1.3 7.8.6 15.6.6 23.4 0 16 .7 31.9.9 47.9.3 32-.5 63.9-.3 95.9.1 15.9.5 31.7 1 47.6.5 15.8-.2 31.7 1.2 47.5.7 7.3 2.7 14.5 3.2 21.7.4 4.9-.1 9.8.6 14.6.7 5.3 2.7 7.4 8.1 8 3.3.4 7 .5 10.4-.4C62.2 469 61.7 459.7 61.6 453.6zM484.6 454c-.8-31 0-62.1 0-93.2 0-32.3-4-64.2-4-96.5v-48.8c0-15.3.6-30.8 0-46.1-.3-7.7-1.7-15.4-2.3-23.2-.2-2.8-.6-6.6-.3-10.1-5.6.7-11.2 1.2-16.9 1.4-.1 2.5-.1 5.1 0 7.6.6 8 2 16 2.3 24.1.3 7.8.6 15.6.6 23.4 0 16 .7 31.9.9 47.9.3 32-.5 63.9-.3 95.9.1 15.9.5 31.7 1 47.6.5 15.8-.2 31.7 1.2 47.5.7 7.3 2.7 14.5 3.2 21.7.4 4.9-.1 9.8.6 14.6.7 5.3 2.7 7.4 8.1 8 3.3.4 7 .5 10.4-.4C485.2 469.5 484.8 460.2 484.6 454z"/><path fill="#BCBCBC" d="M125.1 436.2c-6.6-2.8-12.9-6.7-17.8-11.9.4 3.7.4 7.4.7 11.1.2 2.9.3 5.8 1 8.6.2.9.4 2 .9 2.9.4.8 1.2 1.3.6 1.2 4.8 1.3 10.1 1 15.1 1 6.2.1 12.4.4 18.6.7l.4-9.1c0-.3.1-.7.1-1C138.1 439.3 131.5 438.9 125.1 436.2zM333.9 292.6c1.8-6.7 1-13.6-4.4-18.4-4.8-4.3-11.4-6.4-17.8-6.3-7 .1-14.3 2.6-20.1 6.6-2.7 1.8-5.4 4.1-6.7 7.2-.5 1.2-1.6 6.4-.5 7.2 2 1.4 2.4 3.7 1.8 5.6 13.4.8 26.8 1.3 40.1.8 2.5-.1 5-.2 7.5-.2C333.7 294.4 333.6 293.6 333.9 292.6z"/><path fill="#BCBCBC" d="M364,287.9c-5.3-19.9-11.7-41.7-26.1-56.8c-13.5-14.2-35.9-10.5-53.6-10.4c-24.4,0.2-48.9-0.9-73,3.6c-16.7,3.1-33.7,6.5-43.5,21.9c-4.5,7.1-8.1,15-11.9,22.4c-3.2,6.3-8.3,15.2-7.3,22.7c5.7-1.4,11.9-0.1,17.7,0.4c9.6,0.8,19.1-0.4,28.7-0.8c21.6-0.9,43.4,0.4,65,1.8c5.7,0.4,11.4,0.8,17.1,1.2c-4.4-6.5-1.5-16.9,3.9-22.3c6.8-6.9,17.3-11.9,27.1-12.6c9.7-0.8,20.5,1.7,27.7,8.7c7.5,7.2,9.7,17.1,6.9,27c0,0,0,0,0,0.1c1.3-0.1,2.7-0.1,4-0.2c5.1-0.4,11.1-0.5,16-2.5C362.2,290.5,362.9,289,364,287.9z"/><path fill="#14B6B9" d="M369.4,250.4c-3.4-6.2-6.8-12.5-10-18.8c-2.8-5.4-5.2-11-8.4-16.2c-5.7-9.3-13.2-19.6-24.4-22.2c-11.3-2.6-23.5-1.8-35-1.5c-26.5,0.8-53,3.1-79.3,6.4c-10.5,1.3-21.7,2-31.7,5.9c-10.5,4.1-16.6,12.1-21.4,22c-8.4,17.3-16.4,35.3-26.7,51.7c2.9,1.8,3.3,7-0.9,8.3c-0.6,0.2-1.1,0.4-1.7,0.6c1,0.8,2,1.7,3,2.5c1.1,0.9,1.5,2,1.5,3.1c1.6-0.7,3.4-0.9,5.2-0.9c-0.7-11.9,6.9-24.4,12.2-34.3c6.2-11.5,11.4-23,22.9-30.3c7-4.5,14.9-7.2,23-8.9c11.4-2.4,23.1-4.3,34.7-5.2c22.4-1.7,45-1,67.4-1.2c9.5-0.1,19.6,0.1,28.6,3.3c9.4,3.4,16.1,9.3,21.9,17.4c11.7,16.5,17.8,36.3,23,55.7c4-1.4,8.2,2.2,10.6,5.5c1.3-1.7,2.8-3.2,4.5-4.5C383,275.5,376.2,262.9,369.4,250.4z"/><path fill="#BCBCBC" d="M385.9 466.3c-2.5-1.5-3.2-5.5-.8-7.5 0-.3 0-.6 0-.9-4.1.8-8.1 1.4-12.3 1.6-2.3.1-4.8-1.9-4.7-4.4.1-2.4 0-4.8 0-7.2 0-1.3-.1-2.6-.1-4-1.9 0-3.7 0-5 0-3.1.1-6.1.2-9.2.3.3 1.2 0 2.6-1.3 3.7-.1.5-.3 1-.3 1.5-.2 1.3-.2 2.6-.2 4 0 4.2.3 8.4.8 12.6.5 3.9 1.1 7.9 2.1 11.7.3 1.3.7 2.6 1.2 3.8 0-.1.1.1.2.4 0 0 0 0 .1 0 3.5 1.7 8.1 1.9 11.9 2.1 3.9.2 8.2.5 12.1-.3C386.9 482.5 386.7 472.8 385.9 466.3zM266.7 407.3c-16.8-.8-33.6-2.1-50.4-2.9 6 2.5 12.4 4.2 18.8 4.9 7.9.8 16-.5 23.9-.6 6.7-.1 12.9.5 19.4 2 5.9 1.3 12.1 3 18.2 2.5 6.5-.6 11.7-3.7 16.6-8 .2-.2.4-.4.6-.5C298.6 408.9 282.3 408.1 266.7 407.3zM327.5 379.3c-3.2-2-7.3-2.1-11-2.2-6-.2-12 .4-18 .6-12.8.6-25.5-1.7-38.3-2.4-13.2-.7-26.3.2-39.5 1.1-6.6.4-13.5 1.3-20.1.9-3.6-.2-8-1-11.6.3.8 2.1 1.8 4.1 2.9 6.1.5-1.4 1.8-2.5 3.9-2.4 23.7 1 47.4 2.8 71.2 2.5 11.5-.2 23-.7 34.5-1.1 2.8-.1 5.6 0 8.4-.2 2.6-.2 5.5-1.1 8-1 1.2.1 2.5.1 3.7.1.1 0 .3 0 .5 0 .9-.7 2.2-1 3.7-.5 1.1.4 2.3.9 3.1 1.7C328.7 381.2 328.6 380.1 327.5 379.3zM276.7 392.5c-2.1.1-4.3.2-6.4.2-24.6.4-49.2-1.3-73.7-2.4 2.5 2.9 5.4 5.5 8.5 7.8.4-1.8 1.7-3.2 4.1-3.1 18.7.8 37.3 2.3 55.9 3.2 4 .2 8.1.4 12.2.6C276 396.9 275.8 394.4 276.7 392.5zM319.6 390.6c-4.5-.2-8.9 1.2-13.5 1.1-6.9-.2-13.7.2-20.6.5 1.5 2 1.8 4.9.5 6.8 7.8 0 15.5-.6 23-2.4.7-.8 1.8-1.3 3.2-1.3l1.6.1c2.9.1 4.6 2.5 4.6 4.8 2.8-3 5.4-6.2 7.4-9.8C323.8 390.8 321.6 390.6 319.6 390.6z"/><path fill="#14B6B9" d="M380.9,309c0-2.4-1.5-5.8-3-8.3c-0.7-1.3-1.5-2.6-2.6-3.6c0,0,0,0,0,0c-1.2,0.5-2.8,0.2-3.9-0.5c-0.3,0.9-0.9,1.6-2,2.2c-5.7,3.2-12.7,4-19.2,4.6c-6.8,0.6-13.6,0.7-20.5,1c-21.6,0.8-43-0.7-64.6-2.2c-21.7-1.5-43.5-2.9-65.3-2.3c-10.2,0.3-20.5,1.7-30.7,1.1c-3.4-0.2-6.8-0.7-10.2-0.9c-2.6-0.2-6.6-1-9,0.2c-1.1,0.5-2.1,0.6-3.1,0.3c-1.2,1-3,1.4-4.8,0.4c-0.9-0.5-2.1-0.8-3.1-0.7c-0.9,0-0.9,0-1.6,0.2c0,0,0,0,0,0c0.1,0,0.1,0-0.1,0.1c-1,1.4-2.6,2.3-4.3,2.1c-2.9,5.3-9.9,9.1-16.3,11.1c-0.3,7.3-1,15.4,4,21.5c5.4,6.8,14.7,11.9,22.7,15c4.6,1.8,9.6,2.9,14.3,4.3c4.8,1.4,9.6,2.9,14.5,4.3c7.6,2.1,15.8,3.4,23.1,6.3c1.5,0.6,2.3,1.7,2.4,2.9c0,0,0.1,0,0.1,0c6.9,0.5,13.9-0.1,20.7-0.6c14.2-0.9,28.4-2,42.6-1.1c13.9,0.9,27.3,2.9,41.3,2c6.8-0.4,13.5-0.6,20.3,0.1c0.3,0,0.6,0.1,0.9,0.1c0.2-1,0.9-2,2.2-2.6c7-3.3,14.7-4.3,21.8-7.3c6.3-2.7,11.9-8,16.6-12.9c9.2-9.7,15.4-21.5,17-34.7C381.1,310.6,380.9,309.8,380.9,309z"/><path fill="#14B6B9" d="M409.2 326.3c-7.4.7-14.8-.5-20.4-5.5-2.8 10.8-8.1 20.9-15.8 29.2-5.2 5.6-11.6 12.3-18.7 15.7-6.7 3.2-14 4.3-20.8 6.9 9.8 8.5.6 23.3-6 31-4.4 5.2-9.5 10-15.3 13.6-7.2 4.5-15.3 5.7-23.7 4.6-6.6-.9-13.2-3.4-19.8-3.8-6.1-.4-12.3-.2-18.4.2-10.4.6-20.5.4-30.5-2.9-18.1-5.9-34-18.3-40.1-36.9-.6-1.7-.1-3.2.8-4.2.1-1.2.6-2.5 1.9-3.3-1.6-.3-3.3-.6-4.9-1-4.8-1.1-9.5-2.7-14.2-4.2-9.7-2.9-20-5-29-9.7-8.2-4.2-18.5-10.3-22.9-18.8-2.8-5.6-3.5-11.3-3.5-17.3-1.6 2.1-3.2 4.2-4.7 6.4-3.3 5-4.1 10.4-4.9 16.3-1.5 12.1-2.3 24.9-2.2 37.1 0 4.7.3 10.1 1.7 13.8 1.2 3.1 2.7 6 4.1 8.9 1 2 3.3 5.6 4.5 9.1 1.5-.1 3 .5 4 2.1 4.7 7.7 13 12.9 21.4 15.7 9.4 3.1 19.7 1.3 29.2 4.3.9.3 1.7.8 2.2 1.4 1.5.3 3 .5 4.3.7 9 1.4 17 2.1 26.2 2.2 26.1.3 52.3-.7 78.4.3 12.9.5 25.6-1 38.5-1.9 9-.6 18-.4 27-.5 7-.1 14-.3 21-.5 3.3-.1 6.5-.3 9.8-.5 1-.1 2-.1 3-.2 1.1-.1.8-.1.1.3.4-.2.8-.3 1.2-.3.1 0 .1-.1.2-.1 12-4.8 22.3-11.9 31.1-21.3 1.2-1.3 2.7-1.6 4-1.3 7.4-9.8 11.7-21.2 12-34.2C420.6 359.6 410 343.9 409.2 326.3zM179.2 425.9c-6.6 2-13.6 2.1-20.5 2.3-8.3.2-17.1 1.4-25.2-1.2-14.3-4.6-23-19.5-27.8-33-2.1-5.9-3.6-13.2.6-18.6 5.1-6.7 16.2-5.5 22.9-2.3 5.5 2.6 9.9 6.8 15.4 9.4 5.4 2.5 10.9 4.8 16.2 7.4 8.3 4 15.5 11.8 24.6 14 2.6-1.1 6.4.1 6.7 3.8C192.8 416.5 187.6 423.3 179.2 425.9zM406.7 400.6c-4.8 7.3-12.5 13.1-19.9 17.5-7.7 4.7-16.7 9.5-26 9.2-10.4-.3-20.6-3.3-29.9-7.9-2.5-1.2-2.8-3.6-1.9-5.6-.2-.9-.2-2 .2-3 1.1-2.7 2.6-5.1 4.4-7.3 6.1-7.5 14.6-12.8 22.7-17.9 6.6-4.2 12.5-9.2 18.9-13.8 6.3-4.5 13.9-9.6 22.1-9.3 8.3.3 12.8 7.5 13.8 15.1C412.1 385 410.8 394.2 406.7 400.6zM441.5 294.8c-4.4-10.6-16.1-9.7-25.6-7.6-5.8 1.2-11.6 2.9-16.9 5.7-1.7.9-3.9 2-5.7 3.5 1.6 1.6 2 4-.1 6-1.5 1.4-2.2 2.8-2.4 4.2 0 .2 0 .4 0 .6 0 3.6 3.4 7.1 7.1 8.9 5.5 2.7 12.5 1.3 18.2-.2 7.1-1.8 14.2-4.2 20.5-7.9C441.8 305 443.8 300.5 441.5 294.8z"/><path fill="#BCBCBC" d="M399.1,429.7c-6,4.6-12.4,8.4-19.4,11.5c-0.5,1-1.3,1.7-2.5,2c0,1.3,0,2.6,0,3.7c0,1.1,0,2.2,0.1,3.2c7.6-0.9,15.1-2.9,22.5-4.7C399.7,440.1,399.2,434.9,399.1,429.7z"/><path fill="#FEBF10" d="M159.5 399.2c-4.9-2.7-10-4.9-15.1-7.1-2.8-1.2-5.6-2.5-8.3-3.9-2.3-1.2-4.2-3.3-6.5-4.7-2.8-1.7-16.7-8-16.9-.6-.1 6 2.8 11.9 5.6 17.1 3.1 5.9 6.6 12.5 12.5 16 6.9 4.1 14.9 3.8 22.6 3.4 7.7-.4 25.3 1.5 28.9-7.1C173.9 410 167.1 403.4 159.5 399.2zM401.7 376.4c-.7-2.4-1.8-4.6-4.5-4.9-2.8-.3-6 1.1-8.4 2.4-6.3 3.4-11.8 7.8-17.3 12.2-10.6 8.4-26.5 14.2-33.1 26.7 7.2 3.2 15.5 5.7 23.3 5.4 7.7-.3 15.1-4.5 21.5-8.5 5.8-3.8 13.3-8.5 16.4-15C402.1 389.5 403.5 382.2 401.7 376.4z"/><path fill="#010101" d="M411.1 377.6c-1-7.5-5.5-14.8-13.8-15.1-8.1-.3-15.7 4.8-22.1 9.3-6.4 4.6-12.2 9.6-18.9 13.8-8.1 5.1-16.6 10.3-22.7 17.9-1.8 2.2-3.3 4.6-4.4 7.3-.4 1.1-.5 2.1-.2 3-.9 1.9-.6 4.4 1.9 5.6 9.3 4.6 19.5 7.6 29.9 7.9 9.2.3 18.3-4.6 26-9.2 7.4-4.5 15.1-10.2 19.9-17.5C410.8 394.2 412.1 385 411.1 377.6zM399.5 394.8c-3.2 6.4-10.6 11.2-16.4 15-6.3 4.1-13.8 8.3-21.5 8.5-7.8.3-16.1-2.2-23.3-5.4 6.6-12.5 22.5-18.3 33.1-26.7 5.5-4.4 11.1-8.8 17.3-12.2 2.4-1.3 5.6-2.7 8.4-2.4 2.7.3 3.8 2.6 4.5 4.9C403.5 382.2 402.1 389.5 399.5 394.8zM192.1 407.5c-.3-3.7-4.1-4.9-6.7-3.8-9.1-2.2-16.3-10-24.6-14-5.4-2.6-10.8-4.9-16.2-7.4-5.5-2.5-9.9-6.8-15.4-9.4-6.6-3.1-17.8-4.3-22.9 2.3-4.1 5.4-2.6 12.7-.6 18.6 4.7 13.6 13.4 28.4 27.8 33 8.1 2.6 16.9 1.5 25.2 1.2 6.9-.2 13.8-.3 20.5-2.3C187.6 423.3 192.8 416.5 192.1 407.5zM153.5 419.4c-7.7.4-15.7.6-22.6-3.4-5.9-3.5-9.4-10.2-12.5-16-2.8-5.2-5.7-11.1-5.6-17.1.1-7.3 14.1-1.1 16.9.6 2.2 1.4 4.2 3.4 6.5 4.7 2.7 1.5 5.5 2.7 8.3 3.9 5.1 2.2 10.3 4.4 15.1 7.1 7.6 4.2 14.4 10.7 22.9 13.1C178.8 420.9 161.2 419 153.5 419.4z"/><path fill="#010101" d="M451.5,297.9c-0.6-8.4-6.3-15.6-13.7-19.2c-5.9-2.8-13.4-2.1-19.6-1.1c-7.6,1.1-14.9,3.3-21.8,6.5c-9.5-22.3-22.2-43.2-33-64.9c-5.1-10.3-11.8-20.2-20.5-27.7c-8.1-7.1-18.8-8.5-29.2-8.9c-25.9-1.2-52.4,1.2-78.2,3.7c-12.4,1.2-24.7,2.8-37,4.4c-10.3,1.3-20.5,3.3-29.5,8.8c-13.1,8-18.5,23.5-25,36.6c-7.3,14.6-14.3,29.6-23.4,43.2c-8.8-6.3-18.6-11.4-29.1-11.8c-7.3-0.3-17.4,4-23.1,10.6c0.2,6.6,0.5,13.2,1,19.7c0,0.5,0.1,1,0.1,1.5c4.4,4.2,10.8,7.4,15.6,9.7c4.5,2.2,9.9,4.6,15.3,5.8c-1.5,2.1-3.1,4-4.6,6.1c-3.3,4.5-4.7,9.4-5.7,14.8c-2.3,12.2-2.3,24.8-2.9,37.1c-0.5,9-0.4,18.2,3.3,26.6c1.5,3.4,3.2,6.6,4.8,10c0.6,1.3,1.3,2.6,1.9,3.9c0.2,0.4,0.4,0.9,0.5,1.3c-0.2,1.2,0.1,2.3,0.9,3.2c-0.8,1-1.2,2.3-0.8,3.9c2.7,10.5-1.7,25.3,7.3,33.5c1.8,1.6,4.5,2.3,7.4,2.7c-1.6,10.5-2.8,24.2,4.3,32.7c7,8.4,21.1,7.5,30.9,8.6c5.1,0.6,10,0.6,14.7-1.7c4.9-2.4,6.6-8.8,7.4-13.7c2.1-12.6,0.7-25.9,0.9-38.7c0.3,0.1,0.6,0.1,1,0.2c10,1.6,20.1,1.4,30.2,1.4c13.2,0,26.4-0.2,39.6-0.2c12.8,0,25.6,0.8,38.4,0.6c12.9-0.2,25.7-1.9,38.6-2.5c7.7-0.4,15.3,0,23-0.1c0.9,0,1.7,0,2.6-0.1c-0.9,2.2-1,5-1.1,7.1c-0.3,5.2,0.2,10.5,0.8,15.6c0.8,6.9,1.3,19.5,8.7,22.9c4.9,2.3,10.7,2.7,16,3c5.2,0.3,11,0.5,16-1.1c11.1-3.6,11.3-18,10-28.2c0.3-0.9,0.4-2,0.1-3c-0.2-0.7-0.4-1.4-0.6-2c0.4-0.9,0.5-1.9,0.3-2.9c3.7-0.9,7.5-1.8,11.2-2.7c2.1-0.5,3.2-2.6,3.2-4.5c0.2-7.8-0.8-15.6-0.6-23.5c12.3-12.2,19.2-26.8,20.7-44.3c0.9-9.7-1-18.9-3.9-28.2c-2.9-9.2-6.6-18.3-6.8-28.1c7.1-1.7,14-4.3,20.6-7.6C446.6,313.2,452.1,307.2,451.5,297.9z M131.5,285.9c4.2-1.3,3.7-6.6,0.9-8.3c10.2-16.4,18.2-34.4,26.7-51.7c4.8-9.9,10.8-17.9,21.4-22c10-3.9,21.2-4.5,31.7-5.9c26.3-3.4,52.8-5.6,79.3-6.4c11.5-0.4,23.7-1.2,35,1.5c11.2,2.6,18.7,13,24.4,22.2c3.2,5.2,5.7,10.8,8.4,16.2c3.2,6.3,6.7,12.5,10,18.8c6.8,12.6,13.7,25.1,19.1,38.4c-1.7,1.3-3.2,2.8-4.5,4.5c-2.4-3.3-6.6-6.9-10.6-5.5c-5.2-19.4-11.3-39.2-23-55.7c-5.8-8.1-12.5-14-21.9-17.4c-9-3.3-19.1-3.4-28.6-3.3c-22.4,0.2-45-0.5-67.4,1.2c-11.7,0.9-23.3,2.7-34.7,5.2c-8.1,1.7-16,4.4-23,8.9c-11.4,7.3-16.7,18.8-22.9,30.3c-5.4,10-13,22.4-12.2,34.3c-1.8-0.1-3.6,0.2-5.2,0.9c0-1.1-0.4-2.2-1.5-3.1c-1-0.8-2-1.7-3-2.5C130.4,286.3,131,286.1,131.5,285.9z M312.2,395.2c-1.5-0.1-2.5,0.5-3.2,1.3c-7.5,1.8-15.2,2.4-23,2.4c-0.8,1.2-2.1,2.1-4.1,2.1c-2,0-3.6-0.9-4.5-2.2c-4.1-0.1-8.2-0.4-12.2-0.6c-18.7-0.9-37.3-2.4-55.9-3.2c-2.4-0.1-3.7,1.3-4.1,3.1c-3.1-2.3-6-4.9-8.5-7.8c24.6,1.1,49.1,2.8,73.7,2.4c2.1,0,4.3-0.1,6.4-0.2c0.7-1.4,2.1-2.5,4.3-2.5c2,0,3.5,0.9,4.4,2.1c6.9-0.3,13.8-0.6,20.6-0.5c4.5,0.1,9-1.2,13.5-1.1c2,0.1,4.3,0.3,6.3-0.2c-2,3.6-4.6,6.8-7.4,9.8c0-2.3-1.7-4.7-4.6-4.8L312.2,395.2z M313.8,404.6c-0.2,0.2-0.4,0.3-0.6,0.5c-4.8,4.3-10.1,7.4-16.6,8c-6.1,0.5-12.3-1.2-18.2-2.5c-6.5-1.5-12.8-2.1-19.4-2c-8,0.1-16,1.4-23.9,0.6c-6.5-0.7-12.8-2.3-18.8-4.9c16.8,0.9,33.6,2.1,50.4,2.9C282.3,408.1,298.6,408.9,313.8,404.6z M325.6,381c-1.5-0.5-2.8-0.2-3.7,0.5c-0.2,0-0.3,0-0.5,0c-1.2,0-2.5-0.1-3.7-0.1c-2.5-0.1-5.4,0.8-8,1c-2.8,0.2-5.6,0.1-8.4,0.2c-11.5,0.3-23,0.9-34.5,1.1c-23.7,0.3-47.5-1.4-71.2-2.5c-2.1-0.1-3.4,1-3.9,2.4c-1.1-1.9-2.1-4-2.9-6.1c3.6-1.3,8-0.6,11.6-0.3c6.6,0.4,13.5-0.4,20.1-0.9c13.2-0.9,26.3-1.7,39.5-1.1c12.8,0.6,25.5,3,38.3,2.4c6-0.3,12-0.8,18-0.6c3.7,0.1,7.8,0.2,11,2.2c1.1,0.7,1.2,1.9,1.2,3.4C327.9,381.9,326.7,381.4,325.6,381z M326.1,366.1c-1.3,0.6-2,1.6-2.2,2.6c-0.3,0-0.6-0.1-0.9-0.1c-6.8-0.8-13.5-0.6-20.3-0.1c-13.9,0.8-27.4-1.2-41.3-2c-14.2-0.9-28.4,0.1-42.6,1.1c-6.9,0.5-13.8,1.1-20.7,0.6c0,0-0.1,0-0.1,0c-0.1-1.2-0.9-2.3-2.4-2.9c-7.4-2.9-15.5-4.2-23.1-6.3c-4.9-1.3-9.7-2.8-14.5-4.3c-4.8-1.4-9.7-2.4-14.3-4.3c-8-3.2-17.2-8.3-22.7-15c-4.9-6.1-4.3-14.1-4-21.5c6.4-2,13.4-5.8,16.3-11.1c1.7,0.1,3.3-0.7,4.3-2.1c0.1-0.1,0.1-0.1,0.1-0.1c0,0,0,0,0,0c0.7-0.3,0.7-0.2,1.6-0.2c1,0,2.2,0.3,3.1,0.7c1.8,1,3.6,0.6,4.8-0.4c0.9,0.2,2,0.1,3.1-0.3c2.4-1.1,6.5-0.3,9-0.2c3.4,0.2,6.8,0.7,10.2,0.9c10.2,0.5,20.5-0.9,30.7-1.1c21.7-0.6,43.6,0.8,65.3,2.3c21.5,1.5,43,2.9,64.6,2.2c6.8-0.2,13.7-0.4,20.5-1c6.4-0.6,13.5-1.3,19.2-4.6c1-0.6,1.7-1.4,2-2.2c1.2,0.7,2.7,1,3.9,0.5c0,0,0,0,0,0c1.1,1,1.8,2.4,2.6,3.6c1.5,2.5,3,5.9,3,8.3c0,0.8,0.2,1.6,0.5,2.2c-1.6,13.1-7.8,25-17,34.7c-4.7,4.9-10.3,10.2-16.6,12.9C340.8,361.7,333.1,362.7,326.1,366.1z M362.7,292c-4.9,2-10.9,2.1-16,2.5c-1.3,0.1-2.7,0.2-4,0.2c0,0,0,0,0-0.1c2.7-9.9,0.5-19.8-6.9-27c-7.2-6.9-18-9.4-27.7-8.7c-9.7,0.8-20.2,5.8-27.1,12.6c-5.4,5.4-8.3,15.8-3.9,22.3c-5.7-0.4-11.4-0.8-17.1-1.2c-21.6-1.5-43.4-2.7-65-1.8c-9.6,0.4-19.1,1.6-28.7,0.8c-5.8-0.5-12-1.7-17.7-0.4c-1-7.5,4.1-16.4,7.3-22.7c3.8-7.5,7.4-15.4,11.9-22.4c9.8-15.4,26.8-18.8,43.5-21.9c24.1-4.5,48.6-3.4,73-3.6c17.6-0.1,40.1-3.8,53.6,10.4c14.3,15.1,20.8,36.9,26.1,56.8C362.9,289,362.2,290.5,362.7,292z M333.9,295.1c-2.5,0.1-5,0.1-7.5,0.2c-13.4,0.5-26.8,0-40.1-0.8c0.6-1.9,0.2-4.1-1.8-5.6c-1.1-0.8-0.1-6,0.5-7.2c1.3-3.1,4-5.4,6.7-7.2c5.8-4,13.1-6.5,20.1-6.6c6.4-0.1,13,2.1,17.8,6.3c5.4,4.8,6.2,11.7,4.4,18.4C333.6,293.6,333.7,294.4,333.9,295.1z M88.1,300.4c-3.3-1.6-6.4-3.5-9.3-5.6c-1.9-1.3-5.1-3.3-5.5-5.8c-0.7-4.4,5-7.9,8.2-9.7c4.8-2.7,9.9-3.3,15.2-2.1c10.6,2.5,20.1,10,28.4,17c0,0.6,0,1.2,0.3,1.8c1.1,3.2-3.5,5.5-5.7,6.8c-3.7,2.1-8.2,3.6-12.4,3.7C100.9,306.8,93.6,303.1,88.1,300.4z M110.5,448.2c0.6,0.1-0.2-0.5-0.6-1.2c-0.5-0.8-0.7-1.9-0.9-2.9c-0.7-2.8-0.9-5.7-1-8.6c-0.2-3.7-0.2-7.4-0.7-11.1c4.9,5.2,11.2,9.1,17.8,11.9c6.3,2.7,12.9,3.1,19.5,3.6c-0.1,0.3-0.1,0.6-0.1,1l-0.4,9.1c-6.2-0.3-12.4-0.6-18.6-0.7C120.7,449.2,115.3,449.5,110.5,448.2z M161.5,476.2c-0.1,4.2-0.4,8.6-2.4,12.4c-1.7,3.1-7.5,2.2-10.3,1.9c-3.9-0.4-7.7-1-11.6-1.2c-4.2-0.2-9.2-0.9-12.6-3.6c-3.6-2.8-3.7-7.5-3.9-11.7c-0.2-4.9,0-9.8,0.8-14.6c0.1-0.4,0.1-0.7,0.1-1.1c0.6,0,1.1,0,1.6,0c8.5,0.2,17.1,0.6,25.6,0.9c2.6,0.1,4.3-2.4,4.4-4.7l0.4-10.2c0.4-0.2,0.7-0.5,1.1-0.8c0.4,0,1.1-0.1,1-0.1c1.4,0,2.9,0.1,4.3,0.2c0.6,0.1,1.3,0.2,1.9,0.2C161.4,454.7,161.8,465.4,161.5,476.2z M380.3,483.9c-3.8,0.8-8.2,0.5-12.1,0.3c-3.8-0.2-8.4-0.5-11.9-2.1c0,0,0,0-0.1,0c-0.1-0.2-0.2-0.4-0.2-0.4c-0.5-1.2-0.9-2.5-1.2-3.8c-1-3.8-1.6-7.8-2.1-11.7c-0.5-4.2-0.8-8.4-0.8-12.6c0-1.3,0-2.7,0.2-4c0.1-0.5,0.2-1,0.3-1.5c1.3-1.1,1.6-2.5,1.3-3.7c3.1-0.1,6.1-0.2,9.2-0.3c1.3-0.1,3.1,0,5,0c0,1.3,0.1,2.6,0.1,4c0,2.4,0.1,4.8,0,7.2c-0.1,2.4,2.3,4.5,4.7,4.4c4.1-0.2,8.2-0.8,12.3-1.6c0,0.3,0,0.6,0,0.9c-2.4,2-1.7,6,0.8,7.5C386.7,472.8,386.9,482.5,380.3,483.9z M377.3,450.1c0-1.1,0-2.2-0.1-3.2c0-1.1,0.1-2.4,0-3.7c1.2-0.3,2.1-1,2.5-2c7-3.1,13.4-6.9,19.4-11.5c0.1,5.2,0.6,10.5,0.7,15.7C392.3,447.2,384.9,449.1,377.3,450.1z M420.1,377.4c-0.3,13-4.6,24.4-12,34.2c-1.3-0.3-2.8,0-4,1.3c-8.8,9.4-19.1,16.6-31.1,21.3c-0.1,0-0.1,0.1-0.2,0.1c-0.4,0.1-0.8,0.1-1.2,0.3c0.7-0.4,0.9-0.4-0.1-0.3c-1,0.1-2,0.2-3,0.2c-3.2,0.2-6.5,0.3-9.8,0.5c-7,0.3-14,0.5-21,0.5c-9,0.1-18-0.1-27,0.5c-12.8,0.9-25.6,2.4-38.5,1.9c-26.1-0.9-52.3,0-78.4-0.3c-9.2-0.1-17.2-0.8-26.2-2.2c-1.3-0.2-2.8-0.5-4.3-0.7c-0.5-0.6-1.2-1.1-2.2-1.4c-9.5-3-19.8-1.2-29.2-4.3c-8.4-2.8-16.8-8-21.4-15.7c-1-1.6-2.5-2.2-4-2.1c-1.2-3.5-3.6-7.1-4.5-9.1c-1.5-2.9-3-5.8-4.1-8.9c-1.4-3.7-1.7-9.1-1.7-13.8c-0.1-12.2,0.7-25,2.2-37.1c0.7-5.8,1.6-11.3,4.9-16.3c1.5-2.2,3.1-4.3,4.7-6.4c0,6,0.7,11.8,3.5,17.3c4.4,8.5,14.6,14.6,22.9,18.8c9.1,4.7,19.3,6.8,29,9.7c4.7,1.4,9.4,3.1,14.2,4.2c1.6,0.4,3.3,0.7,4.9,1c-1.3,0.9-1.9,2.1-1.9,3.3c-0.9,1-1.4,2.4-0.8,4.2c6,18.6,22,31,40.1,36.9c10,3.3,20.1,3.5,30.5,2.9c6.1-0.4,12.3-0.6,18.4-0.2c6.7,0.5,13.2,2.9,19.8,3.8c8.4,1.2,16.5,0,23.7-4.6c5.8-3.6,10.9-8.4,15.3-13.6c6.6-7.7,15.8-22.5,6-31c6.8-2.7,14.1-3.8,20.8-6.9c7-3.3,13.5-10,18.7-15.7c7.7-8.3,13.1-18.4,15.8-29.2c5.6,5,13,6.2,20.4,5.5C410,343.9,420.6,359.6,420.1,377.4z M436.7,308c-6.3,3.7-13.4,6.1-20.5,7.9c-5.7,1.4-12.7,2.9-18.2,0.2c-3.8-1.8-7.1-5.3-7.1-8.9c0-0.2,0-0.4,0-0.6c0.2-1.4,0.9-2.9,2.4-4.2c2.1-1.9,1.6-4.4,0.1-6c1.8-1.4,4-2.6,5.7-3.5c5.2-2.8,11.1-4.4,16.9-5.7c9.5-2.1,21.2-3,25.6,7.6C443.8,300.5,441.8,305,436.7,308z"/><path d="M499.5,470.5c-2.8-1.2-3.1-7.5-3.4-10.1c-0.8-5.8-0.6-11.8-0.6-17.6v-47.2c0-16.5,0.1-33,0-49.6c-0.1-16-2-31.9-3.1-47.9c-2.3-32.1-0.9-64.8-0.9-97c0-12.3,0.9-25-0.4-37.2c-0.9-8.4-2.1-16.9-2.2-25.4c0-0.8,0-1.5,0.1-2.3c0-0.2,0-0.3,0.1-0.5c0.5-0.6,0.8-1.3,0.9-2c1.5-0.8,2.4-2.2,2.8-3.6c3.4-2.6,1-8.9-3.8-9.5c-0.1-0.1-0.4-0.3-0.9-0.5c-0.6-0.4-1.3-0.8-1.9-1.2c-1.4-0.9-2.7-1.8-4.1-2.6c-4.6-2.5-9.5-4.5-14.4-6.2c-9.9-3.6-19.7-7.4-29.7-10.6c-10.1-3.2-20.2-6.4-29.8-11c-10-4.8-19.8-9.7-29.9-14.2c-10.1-4.5-20.7-7.4-31-11.6c-9.9-4-19.4-9-29.2-13.1c-10.4-4.3-21.1-8.1-31.3-12.8c-3.1-1.5-6.3-2.8-9.5-4.2c-1.9-0.8-6.1-2-7-3.8c-2-4-6.3-3-8.5-0.2c-18.1,8.1-36.9,14.6-55.2,22.2c-20.9,8.7-41.8,17.5-62.7,26.1c-21.1,8.7-42.4,17.1-64,24.5c-18.7,6.4-38.9,10.1-56.2,19.9c-3.9,2.2-2.9,6.7,0,8.8c0.5,1.7,1.6,3.2,3.4,3.9c-1.2,14.4,1.8,28.9,2.4,43.2c0.7,16,0.3,32,0.9,48c1.1,32-0.1,64.1-0.1,96.2c0,31.8,0.9,63.5,1.5,95.3c0.1,7.5,0.6,15.1,1.5,22.5c0.8,6.4,2.5,12.5,2.6,19c0.2,9.5,0.1,21.4,10.3,26c8.8,4,21.4,3.2,29.6-1.8c2-1.2,2.7-3.1,2.4-4.8c1.6-2.5,1.5-6.1-2.1-7.6c-2.8-1.2-3.1-7.5-3.4-10.1c-0.8-5.8-0.6-11.8-0.6-17.6v-47.2c0-16.5,0.1-33,0-49.6c-0.1-15.5-1.9-30.9-3-46.4c-1.9-1.9-3.5-3.9-4.4-6.3c-2.1-5.5-0.3-10.7,3.3-14.9c-0.8-25.7,0.1-51.6,0.1-77.3c0-12.3,0.9-25-0.4-37.2c-0.9-8.4-2.1-16.9-2.2-25.4c0-0.8,0-1.5,0.1-2.3c0-0.2,0-0.3,0.1-0.5c0.3-0.4,0.6-0.9,0.8-1.4c20.7-0.4,41.3-1.1,62-1.4c33.2-0.6,66.1,1,99.3,2.2c65.5,2.5,131.2-0.1,196.7,2.3c8.4,0.3,16.9,0.6,25.3,0.6c-0.5,13.3,2,26.8,2.6,40c0.7,16,0.3,32,0.9,48c1.1,32-0.1,64.1-0.1,96.2c0,31.8,0.9,63.5,1.5,95.3c0.1,7.5,0.6,15.1,1.5,22.5c0.8,6.4,2.5,12.5,2.6,19c0.2,9.5,0.1,21.4,10.3,26c8.8,4,21.4,3.2,29.6-1.8c2-1.2,2.7-3.1,2.4-4.8C503.2,475.6,503,472,499.5,470.5z M66,475c-3.4,0.9-7.2,0.8-10.4,0.4c-5.3-0.6-7.4-2.7-8.1-8c-0.6-4.8-0.2-9.8-0.6-14.6c-0.5-7.3-2.6-14.4-3.2-21.7c-1.4-15.8-0.6-31.7-1.2-47.5c-0.5-15.9-0.9-31.7-1-47.6c-0.2-32,0.6-63.9,0.3-95.9c-0.2-16-0.9-31.9-0.9-47.9c0-7.8-0.3-15.6-0.6-23.4c-0.3-8.1-1.8-16-2.3-24.1c-0.2-3.4-0.2-6.8,0.2-10.3c5.6,0,11.2-0.1,16.9-0.2c-0.6,3.9-0.1,8.3,0.1,11.6c0.5,7.7,1.9,15.4,2.3,23.2c0.6,15.3,0,30.8,0,46.1v48.8c0,32.3,4,64.2,4,96.5c0,31-0.8,62.1,0,93.2C61.7,459.7,62.2,469,66,475z M393.6,125.5c-33-0.5-66-0.2-99-0.3c-33.1-0.1-66-1.2-99-2.8c-33.1-1.6-66.3-0.8-99.4,0c-16.7,0.4-33.4,0.9-50.1,1.1c12.3-4.4,25.5-7.3,37.6-11.4c21.7-7.4,42.9-15.8,64-24.5c20.9-8.6,41.8-17.4,62.7-26.1c18.2-7.6,36.9-14,55-22c4.1,2.8,9.9,4.4,13.6,6c10.3,4.4,20.5,9,31,13c10.6,4,20.6,9.4,31,13.8c10.7,4.6,22,7.6,32.6,12.2c10.6,4.7,21,10,31.5,15c9.9,4.7,20.6,7.8,31,11.2c10.8,3.4,21.4,7.5,32,11.6c2.6,1,5.2,2.1,7.6,3.4C448.6,128.8,420.8,125.8,393.6,125.5z M478.6,475.9c-5.3-0.6-7.4-2.7-8.1-8c-0.6-4.8-0.2-9.8-0.6-14.6c-0.5-7.3-2.6-14.4-3.2-21.7c-1.4-15.8-0.6-31.7-1.2-47.5c-0.5-15.9-0.9-31.7-1-47.6c-0.2-32,0.6-63.9,0.3-95.9c-0.2-16-0.9-31.9-0.9-47.9c0-7.8-0.3-15.6-0.6-23.4c-0.3-8.1-1.8-16-2.3-24.1c-0.2-2.5-0.2-5.1,0-7.6c5.6-0.2,11.3-0.7,16.9-1.4c-0.3,3.5,0.1,7.2,0.3,10.1c0.5,7.7,1.9,15.4,2.3,23.2c0.6,15.3,0,30.8,0,46.1v48.8c0,32.3,4,64.2,4,96.5c0,31-0.8,62.1,0,93.2c0.2,6.2,0.6,15.4,4.4,21.5C485.7,476.3,481.9,476.2,478.6,475.9z"/><path d="M69.3 297.8c-.5-6.5-.8-13.1-1-19.7-3.6 4.2-5.4 9.4-3.3 14.9.9 2.3 2.5 4.4 4.4 6.3C69.4 298.8 69.4 298.3 69.3 297.8zM285.5 392.1c-2.9.1-5.8.3-8.7.4-.9 1.9-.7 4.4.6 6.3 2.9.1 5.8.2 8.6.2C287.2 397 287 394.1 285.5 392.1z"/><path d="M281 390c-2.2 0-3.6 1-4.3 2.5 2.9-.1 5.8-.3 8.7-.4C284.5 390.9 283 390 281 390zM277.4 398.8c1 1.3 2.5 2.2 4.5 2.2 2 0 3.3-.9 4.1-2.1C283.1 398.9 280.2 398.9 277.4 398.8z"/></svg>