<svg xmlns="http://www.w3.org/2000/svg"  viewBox="0 0 48 48" width="64px" height="64px"><path fill="#bcbcbc" d="M39.408,16.679c0.195-0.911-0.14-1.682-0.131-2.614c0.009-0.932,0.382-1.993,1.265-2.292 c0.405-0.137,0.852-0.088,1.266-0.196c0.166-0.043,0.341-0.111,0.502-0.053c0.343,0.124,0.259,0.661-0.008,0.909 s-0.646,0.382-0.835,0.694c-0.133,0.219-0.146,0.488-0.152,0.745c-0.02,0.947,0.018,1.895,0.115,2.838"/><path fill="#ef4823" d="M26.193,11.023l9.171-0.471c0,0-0.88-2.261-2.617-1.988c-1.736,0.273-4.961,0.459-4.961,0.459 S26.315,9.223,26.193,11.023z"/><path fill="#ef4823" d="M25.043,22.323c-0.246-1.195-0.462-3.049-0.456-4.269c0.001-0.296,0.015-0.611,0.179-0.857 c0.274-0.412,0.839-0.472,1.329-0.492c5.533-0.223,11.12-0.442,16.569,0.559c0.435,0.08,0.89,0.178,1.226,0.469 c0.576,0.501,0.606,1.38,0.564,2.147c-0.098,1.815-0.168,2.772-0.549,4.548"/><path fill="#d6e5e5" d="M24.481,17.274l1.877-6.251l8.614-0.471l1.15,6.013C36.122,16.565,26.291,16.394,24.481,17.274z"/><path fill="#f58420" d="M31.55,20.042c2.626-0.051,3.967-0.188,6.582,0.052c0.359,0.033,0.725,0.071,1.053,0.216 c0.614,0.272,1,0.89,1.145,1.525c0.145,0.635,0.151,1.017,0.089,1.665l-0.589,0.451l-6.226-0.54L31.55,20.042z"/><path fill="#127272" d="M28.749,19.588c-0.965,0.143-1.794,0.317-2.461,1.058c-0.667,0.74-1.094,1.685-1.368,2.659 c-0.202,0.721-0.318,1.525-0.006,2.202c0.147,0.319,0.381,0.587,0.626,0.832c0.951,0.952,2.164,1.656,3.473,1.828 c1.309,0.172,2.71-0.229,3.647-1.197c1.335-1.378,1.47-3.782,0.401-5.392C31.992,19.97,30.609,19.312,28.749,19.588z"/><path fill="#127272" d="M39.201,24.238c-0.703,0.782-0.867,2.017-0.357,2.949c0.571,1.043,1.814,1.628,2.936,1.381 c0.677-0.149,1.278-0.563,1.779-1.063c0.51-0.51,0.954-1.192,0.888-1.927c-0.061-0.673-0.552-1.24-1.132-1.535 C42.735,23.748,40.416,22.886,39.201,24.238z"/><path fill="#38b47b" d="M4.424,29.403c0.153,3.451-0.199,9.381-0.211,13.521c-0.001,0.264,0.001,0.537,0.111,0.777 c0.329,0.714,1.331,0.704,2.108,0.582c1.504-0.236,3.007-0.473,4.511-0.709c1.167-0.183,2.34-0.367,3.522-0.365 c3.356,0.006,6.634,1.508,9.97,1.144c1.261-0.137,2.478-0.538,3.73-0.74c5.12-0.825,10.294,1.719,15.446,1.13 c-0.759-4.749-0.51-10.656,0.726-15.304c-0.072,0.274-0.145,0.548-0.217,0.822l0.217-0.822c-2.955,0.46-6.35-0.556-9.321-0.899 c-1.189-0.137-2.386-0.185-3.582-0.233c-5.011-0.2-10.022-0.401-15.032-0.601C12.319,27.543,8.003,27.432,4.424,29.403z"/><path fill="#2b8c5e" d="M25.652,44.124c0.689-2.83,2.496-6.256,4.481-8.387c1.985-2.131,4.487-4.534,6.259-6.845 l-2.935-0.203c-2.801,2.701-5.602,5.402-8.403,8.102c-1.006,0.97-2.015,1.944-2.904,3.023c-0.758,0.922-1.426,2.918-1.99,3.97 C20.159,43.783,23.138,44.634,25.652,44.124z"/><path fill="#2b8c5e" d="M13.563,43c1.262-2.903,3.937-5.524,6.473-7.418c2.819-2.105,5.785-4.742,8.261-7.241l-3.819-0.225 c-2.887,2.182-5.932,4.489-8.819,6.671c-3.602,2.722-6.923,6.165-10.137,9.337C7.702,44.083,13.563,43,13.563,43z"/><path fill="#2b8c5e" d="M4.449,38.596c4.86-3.887,9.614-7.33,14.824-10.733l-3.901-0.195 c-3.795,2.123-7.423,4.595-10.787,7.351L4.449,38.596z"/><path fill="#2b8c5e" d="M39.196,44.328c0.643-3.118,2.342-7.472,4.108-10.121l0.98-4.569h-2.236 c-2.934,3.863-5.34,9.7-6.672,14.364L39.196,44.328z"/><path fill="#bcbcbc" d="M19.972,12.5c-0.177-1.123-0.415-2.305-1.18-3.147C18.028,8.511,16,8.323,15.408,8.886 l-0.002,0.088c-0.117-0.687-0.281-1.362-0.546-2.006c-0.568-1.382-2.084-2.759-3.529-3.141C8.633,3.114,7.054,4.413,5.576,6.196 c-0.681,0.822-1.078,2.142-1.282,3.19c-0.162,0.832-0.061,1.69,0.027,2.533c0.603,5.765,0.739,11.722,0.103,17.484l5.172-1.578 l6.675-0.2c0.002-0.079-0.001-0.164,0-0.243h4.22C20.921,22.425,20.746,17.416,19.972,12.5z"/><path fill="#010101" d="M3.924,29.403c0.133,3.178-0.044,6.37-0.135,9.547c-0.024,0.844-0.046,1.689-0.061,2.533 c-0.012,0.714-0.141,1.571,0.082,2.258c0.5,1.546,2.53,1.059,3.704,0.874c2.027-0.318,4.075-0.751,6.125-0.88 c1.97-0.124,3.877,0.308,5.796,0.688c1.853,0.367,3.72,0.644,5.604,0.349c0.98-0.154,1.934-0.432,2.908-0.615 c0.978-0.183,1.972-0.233,2.966-0.201c4.268,0.141,8.397,1.741,12.699,1.286c0.349-0.037,0.536-0.288,0.482-0.633 c-0.773-4.941-0.543-10.198,0.726-15.038c0.163-0.623-0.8-0.889-0.964-0.266c-0.072,0.274-0.145,0.548-0.217,0.822 c-0.164,0.623,0.8,0.889,0.964,0.266c0.072-0.274,0.145-0.548,0.217-0.822c0.106-0.403-0.249-0.668-0.615-0.615 c-2.567,0.369-5.161-0.298-7.682-0.705c-2.66-0.428-5.359-0.456-8.046-0.563c-2.834-0.113-5.668-0.227-8.502-0.34 c-2.633-0.105-5.279-0.286-7.915-0.208c-2.73,0.081-5.46,0.522-7.888,1.83c-0.567,0.305-0.062,1.169,0.505,0.863 c4.501-2.425,10.024-1.696,14.928-1.5c2.793,0.112,5.586,0.223,8.379,0.335c2.756,0.11,5.544,0.107,8.273,0.547 c2.717,0.438,5.449,1.102,8.213,0.705c-0.205-0.205-0.41-0.41-0.615-0.615c-0.072,0.274-0.145,0.548-0.217,0.822 c0.321,0.089,0.643,0.177,0.964,0.266c0.072-0.274,0.145-0.548,0.217-0.822c-0.321-0.089-0.643-0.177-0.964-0.266 c-1.317,5.024-1.528,10.445-0.726,15.57c0.161-0.211,0.321-0.422,0.482-0.633c-3.661,0.387-7.221-0.711-10.826-1.138 c-1.743-0.206-3.493-0.225-5.221,0.11c-0.933,0.181-1.85,0.45-2.791,0.593c-0.992,0.15-2.003,0.12-2.997,0.002 c-1.815-0.216-3.583-0.715-5.395-0.957c-1.805-0.24-3.549-0.075-5.338,0.203c-0.949,0.147-1.897,0.298-2.845,0.447 c-0.874,0.137-1.86,0.436-2.749,0.334c-0.895-0.103-0.739-0.924-0.731-1.618c0.009-0.823,0.027-1.647,0.049-2.47 c0.091-3.443,0.301-6.901,0.157-10.345C4.897,28.762,3.897,28.759,3.924,29.403z"/><path fill="#010101" d="M42.873,33.954c-1.016,1.539-1.805,3.22-2.494,4.927c-0.695,1.721-1.283,3.496-1.664,5.314 c-0.132,0.628,0.832,0.896,0.964,0.266c0.73-3.479,2.095-7.029,4.058-10.002C44.092,33.92,43.226,33.419,42.873,33.954 L42.873,33.954z"/><path fill="#010101" d="M41.616,29.385c-3.192,4.239-5.264,9.415-6.723,14.483c-0.178,0.62,0.786,0.884,0.964,0.266 c1.437-4.994,3.476-10.067,6.622-14.244C42.867,29.375,41.999,28.876,41.616,29.385L41.616,29.385z"/><path fill="#010101" d="M26.134,44.257c0.714-2.851,2.16-5.684,4.105-7.894c2.126-2.416,4.531-4.565,6.506-7.118 c0.389-0.503-0.314-1.216-0.707-0.707c-2.052,2.653-4.606,4.839-6.751,7.404c-1.925,2.301-3.388,5.138-4.117,8.049 C25.013,44.615,25.977,44.881,26.134,44.257L26.134,44.257z"/><path fill="#010101" d="M20.591,44.036c0.605-1.158,0.988-2.434,1.689-3.543c0.885-1.4,2.301-2.552,3.484-3.693 c2.682-2.586,5.364-5.172,8.045-7.758c0.464-0.448-0.243-1.154-0.707-0.707c-2.741,2.643-5.483,5.287-8.224,7.93 c-1.177,1.135-2.522,2.275-3.42,3.655c-0.73,1.121-1.114,2.43-1.732,3.611C19.429,44.101,20.292,44.607,20.591,44.036 L20.591,44.036z"/><path fill="#010101" d="M13.994,43.252c1.372-3.079,3.914-5.438,6.558-7.437c2.869-2.169,5.563-4.57,8.097-7.12 c0.454-0.457-0.253-1.164-0.707-0.707c-2.628,2.645-5.432,5.085-8.398,7.343c-2.593,1.975-5.069,4.399-6.414,7.417 C12.871,43.33,13.733,43.84,13.994,43.252L13.994,43.252z"/><path fill="#010101" d="M5.875,44.477c2.865-2.83,5.676-5.733,8.799-8.284c3.256-2.659,6.702-5.111,10.056-7.645 c0.507-0.383,0.009-1.252-0.505-0.863c-3.362,2.541-6.804,5.007-10.081,7.658c-3.194,2.584-6.057,5.545-8.976,8.428 C4.71,44.223,5.417,44.93,5.875,44.477L5.875,44.477z"/><path fill="#010101" d="M4.802,38.949c4.736-3.784,9.649-7.336,14.723-10.654c0.537-0.351,0.036-1.217-0.505-0.863 c-5.146,3.365-10.122,6.973-14.925,10.811C3.593,38.644,4.304,39.347,4.802,38.949L4.802,38.949z"/><path fill="#010101" d="M4.939,35.372c3.343-2.731,6.922-5.161,10.686-7.273c0.561-0.315,0.058-1.179-0.505-0.863 C11.28,29.39,7.641,31.88,4.232,34.665C3.733,35.073,4.444,35.776,4.939,35.372L4.939,35.372z"/><path fill="#010101" d="M4.924,29.403c0.421-3.874,0.505-7.777,0.333-11.669c-0.082-1.862-0.222-3.721-0.411-5.574 c-0.181-1.777-0.149-3.495,0.749-5.098c0.626-1.119,1.823-2.286,3.043-2.719c1.428-0.507,3.043-0.091,4.201,0.836 c1.458,1.168,1.975,2.816,2.189,4.612c0.216,1.81,0.289,3.646,0.4,5.465c0.252,4.118,0.422,8.245,0.343,12.371 c-0.012,0.644,0.988,0.644,1,0c0.077-4.048-0.086-8.097-0.329-12.137c-0.119-1.97-0.192-3.962-0.442-5.921 c-0.224-1.756-0.71-3.418-2.001-4.689c-1.161-1.143-2.723-1.841-4.37-1.741C8.212,3.222,7.016,3.949,6.034,4.938 C4.865,6.115,4.184,7.45,3.848,9.076c-0.197,0.953-0.126,1.884-0.027,2.844c0.108,1.045,0.203,2.091,0.279,3.139 c0.349,4.776,0.341,9.581-0.176,14.344C3.855,30.042,4.855,30.037,4.924,29.403L4.924,29.403z"/><path fill="#010101" d="M15.761,9.239c0.361-0.299,1.107-0.189,1.518-0.101c0.701,0.151,1.188,0.477,1.54,1.113 c0.402,0.726,0.542,1.573,0.671,2.382c0.16,1.003,0.289,2.011,0.395,3.021c0.409,3.896,0.437,7.825,0.106,11.728 c-0.054,0.641,0.946,0.638,1,0c0.39-4.601,0.271-9.229-0.359-13.804c-0.224-1.629-0.377-3.893-1.886-4.913 c-0.975-0.66-2.726-0.935-3.693-0.133C14.558,8.944,15.269,9.648,15.761,9.239L15.761,9.239z"/><path fill="#010101" d="M4.353,11c3.678,0.167,7.376,0.148,11.054,0c0.641-0.026,0.645-1.026,0-1 c-3.678,0.148-7.376,0.167-11.054,0C3.71,9.971,3.711,10.971,4.353,11L4.353,11z"/><path fill="#010101" d="M15.946,14c1.369-0.016,2.738,0.016,4.107,0c0.643-0.008,0.645-1.008,0-1 c-1.369,0.016-2.738-0.016-4.107,0C15.303,13.008,15.302,14.008,15.946,14L15.946,14z"/><path fill="#bcbcbc" d="M28.003,22.531c-0.655,0.439-0.507,1.798,0.058,2.335c0.652,0.62,1.763,0.776,2.558,0.327 c0.795-0.449,1.163-1.48,0.777-2.272C31.01,22.131,29.162,21.752,28.003,22.531z"/><path fill="#010101" d="M31.646,19.541c-0.945-0.509-1.983-0.579-3.03-0.435c-1.004,0.152-1.972,0.413-2.681,1.186 c-0.767,0.836-1.252,1.927-1.533,3.016c-0.27,1.045-0.266,2.121,0.436,2.996c0.674,0.841,1.623,1.519,2.611,1.939 c1.906,0.811,4.325,0.553,5.724-1.093c1.258-1.48,1.426-3.701,0.559-5.415C33.281,20.846,32.528,20.016,31.646,19.541z M32.787,25.969c-0.846,1.497-2.713,2.016-4.308,1.581c-0.848-0.232-1.628-0.693-2.281-1.278c-0.292-0.261-0.609-0.549-0.792-0.901 c-0.221-0.424-0.215-0.92-0.133-1.381c0.173-0.977,0.571-1.99,1.185-2.775c0.621-0.794,1.47-1.001,2.424-1.146 c1.516-0.209,2.81,0.4,3.675,1.653C33.406,22.954,33.53,24.654,32.787,25.969z"/><path fill="#010101" d="M30.917,21.889c-0.994-0.43-2.248-0.392-3.167,0.21c-0.81,0.571-0.806,1.705-0.441,2.536 c0.397,0.907,1.489,1.373,2.438,1.311c1.054-0.069,2-0.765,2.241-1.822c0.113-0.497,0.071-1.044-0.181-1.494 C31.614,22.287,31.271,22.042,30.917,21.889z M31.045,23.748c-0.015,0.089-0.036,0.176-0.063,0.262 c-0.011,0.033-0.023,0.065-0.035,0.098c-0.007,0.012-0.033,0.069-0.036,0.076c-0.021,0.04-0.043,0.08-0.067,0.119 c-0.007,0.011-0.059,0.087-0.069,0.104c-0.043,0.054-0.089,0.106-0.138,0.154c-0.033,0.033-0.068,0.063-0.103,0.093 c-0.015,0.014-0.015,0.015-0.02,0.02c-0.007,0.003-0.008,0.003-0.027,0.014c-0.076,0.045-0.15,0.09-0.228,0.129 c-0.019,0.008-0.073,0.031-0.078,0.033c-0.06,0.021-0.122,0.04-0.184,0.055c-0.039,0.01-0.078,0.018-0.118,0.026 c-0.01,0.002-0.036,0.005-0.054,0.008c-0.09,0.009-0.181,0.014-0.271,0.012c-0.049-0.001-0.097-0.003-0.146-0.007 c-0.005,0-0.059-0.008-0.082-0.011c-0.104-0.019-0.208-0.042-0.309-0.073c-0.143-0.045-0.227-0.079-0.403-0.192 c-0.032-0.021-0.064-0.043-0.095-0.065c-0.009-0.009-0.065-0.055-0.068-0.057c-0.029-0.026-0.057-0.054-0.084-0.082 c-0.011-0.012-0.021-0.024-0.031-0.036c-0.002-0.003-0.001-0.002-0.004-0.006c-0.04-0.066-0.082-0.13-0.116-0.2 c-0.006-0.012-0.022-0.054-0.028-0.067c-0.014-0.038-0.028-0.076-0.039-0.114c-0.025-0.084-0.042-0.169-0.059-0.255 c-0.003-0.021-0.008-0.051-0.009-0.06c-0.005-0.055-0.007-0.11-0.008-0.165c0-0.027,0-0.055,0.001-0.082 c0.001-0.015,0.007-0.076,0.008-0.102c0.014-0.077,0.034-0.151,0.054-0.228c0.002-0.009,0.001-0.006,0.002-0.011 c0.002-0.004,0.001-0.001,0.004-0.006c0.023-0.042,0.047-0.083,0.072-0.124c0.001-0.002,0-0.001,0.001-0.003 c0.004-0.003,0.002,0,0.008-0.005c0.012-0.01,0.05-0.04,0.068-0.056c0.068-0.043,0.136-0.085,0.208-0.121 c0.005-0.002,0.064-0.03,0.078-0.037c0.035-0.014,0.07-0.027,0.105-0.04c0.089-0.031,0.179-0.057,0.27-0.078 c0.046-0.011,0.092-0.02,0.138-0.029c0.026-0.005,0.052-0.009,0.078-0.013c0.176-0.019,0.353-0.025,0.53-0.015 c0.045,0.003,0.091,0.006,0.136,0.01c0.008,0.001,0.051,0.007,0.074,0.01c0.084,0.014,0.167,0.03,0.25,0.05 c0.075,0.019,0.149,0.041,0.222,0.066c0.024,0.008,0.047,0.017,0.071,0.026c0.003,0.002,0.057,0.023,0.069,0.029 c0.068,0.033,0.134,0.069,0.198,0.109c0.03,0.019,0.059,0.04,0.089,0.061c-0.113-0.077,0.008,0.01,0.03,0.031 c0.022,0.021,0.069,0.083,0.075,0.088c0.021,0.033,0.041,0.067,0.059,0.103c0.007,0.021,0.024,0.065,0.026,0.072 c0.013,0.043,0.025,0.086,0.034,0.13c0.002,0.011,0.009,0.064,0.012,0.079c0.004,0.047,0.007,0.094,0.007,0.141 C31.05,23.65,31.027,23.856,31.045,23.748z"/><path fill="#010101" d="M42.567,23.227c-1.257-0.362-2.764-0.369-3.719,0.657c-0.937,1.079-1.089,2.725-0.216,3.892 c0.846,1.131,2.371,1.661,3.712,1.14c1.302-0.505,2.768-1.909,2.593-3.423C44.791,24.229,43.684,23.549,42.567,23.227z M42.522,27.712c-0.874,0.556-1.96,0.549-2.753-0.162c-0.848-0.76-0.975-2.082-0.214-2.959c0.592-0.637,1.494-0.674,2.297-0.511 c0.354,0.072,0.701,0.178,1.036,0.313c0.006,0.002,0.004,0.001,0.008,0.003c0.003,0.001-0.001,0,0.004,0.002 c0.027,0.012,0.055,0.023,0.081,0.037c0.076,0.038,0.151,0.075,0.224,0.119c0.21,0.126,0.4,0.296,0.534,0.502 C44.398,26.067,43.341,27.191,42.522,27.712z"/><path fill="#010101" d="M25.526,22.19c-0.164-0.823-0.279-1.655-0.355-2.49c-0.053-0.579-0.383-2.163,0.312-2.412 c0.37-0.133,0.828-0.091,1.214-0.107c0.562-0.022,1.124-0.044,1.686-0.065c1.045-0.037,2.09-0.069,3.135-0.086 c2.126-0.035,4.255-0.012,6.377,0.141c1.074,0.077,2.146,0.186,3.211,0.341c0.775,0.113,2.239,0.096,2.669,0.875 c0.436,0.791,0.154,2.104,0.087,2.96c-0.078,0.995-0.234,1.973-0.44,2.949c-0.133,0.628,0.831,0.896,0.964,0.266 c0.212-1.001,0.374-2.008,0.461-3.028c0.083-0.982,0.251-2.074,0.02-3.046c-0.229-0.962-0.952-1.472-1.883-1.67 c-1.16-0.246-2.354-0.388-3.533-0.51c-2.514-0.261-5.045-0.316-7.571-0.283c-1.287,0.017-2.573,0.057-3.859,0.105 c-0.642,0.024-1.285,0.041-1.927,0.076c-0.413,0.022-0.853,0.054-1.224,0.254c-0.964,0.519-0.807,1.732-0.746,2.657 c0.074,1.119,0.217,2.241,0.437,3.341C24.687,23.087,25.651,22.82,25.526,22.19L25.526,22.19z"/><path fill="#010101" d="M33.774,24c1.881-0.249,3.673,0.186,5.515,0.508c0.266,0.046,0.539-0.071,0.615-0.349 c0.066-0.241-0.082-0.568-0.349-0.615c-1.922-0.336-3.817-0.804-5.781-0.544c-0.268,0.035-0.5,0.204-0.5,0.5 C33.274,23.743,33.504,24.036,33.774,24L33.774,24z"/><path fill="#010101" d="M42.978,11.563c-0.201-0.559-0.758-0.61-1.262-0.479c-0.475,0.123-0.975,0.069-1.436,0.258 c-0.801,0.327-1.266,1.131-1.422,1.952c-0.105,0.552-0.086,1.091-0.011,1.645c0.072,0.532,0.183,1.072,0.078,1.607 c-0.052,0.265,0.075,0.54,0.349,0.615c0.245,0.067,0.563-0.083,0.615-0.349c0.177-0.906-0.099-1.749-0.113-2.651 c-0.009-0.594,0.124-1.319,0.598-1.727c0.265-0.228,0.599-0.251,0.934-0.282c0.221-0.02,0.443-0.047,0.658-0.102 c-0.007,0.01-0.01,0.021-0.019,0.03c-0.114,0.117-0.274,0.192-0.406,0.287c-0.361,0.261-0.616,0.578-0.688,1.028 c-0.083,0.52-0.051,1.069-0.036,1.593c0.016,0.575,0.054,1.149,0.111,1.721c0.027,0.269,0.211,0.5,0.5,0.5 c0.25,0,0.527-0.23,0.5-0.5c-0.057-0.572-0.096-1.146-0.111-1.721c-0.007-0.271-0.01-0.541-0.008-0.812 c0.002-0.226-0.032-0.508,0.054-0.723c0.129-0.325,0.602-0.457,0.832-0.708C42.978,12.439,43.123,11.965,42.978,11.563z M42.033,11.878c0,0-0.001-0.001-0.001-0.001C42.017,11.865,42.028,11.865,42.033,11.878z M42.122,12.001 C42.147,11.979,42.136,12.003,42.122,12.001L42.122,12.001z"/><path fill="#010101" d="M25.085,17.823c0.338-1.754,0.854-3.465,1.343-5.18c0.225-0.788,0.362-1.663,0.684-2.417 c0.41-0.959,1.681-0.869,2.57-0.946c0.96-0.083,1.925-0.118,2.889-0.103c0.391,0.006,0.991-0.064,1.341,0.165 c0.369,0.242,0.438,0.802,0.539,1.191c0.491,1.899,0.801,3.835,0.939,5.791c0.045,0.638,1.046,0.643,1,0 c-0.157-2.221-0.428-4.598-1.159-6.713c-0.322-0.932-0.959-1.341-1.925-1.413c-1.125-0.083-2.279-0.026-3.402,0.063 c-0.923,0.073-2.162,0.042-2.958,0.582c-0.768,0.521-0.929,1.528-1.154,2.358c-0.572,2.114-1.256,4.201-1.671,6.355 C24,18.186,24.964,18.455,25.085,17.823L25.085,17.823z"/><path fill="#010101" d="M26.533,11.667c2.718-0.553,5.528-0.614,8.293-0.602c0.644,0.003,0.644-0.997,0-1 c-2.856-0.012-5.752,0.066-8.559,0.637C25.637,10.831,25.904,11.795,26.533,11.667L26.533,11.667z"/><path fill="#010101" d="M29,11.023c-0.071,1.826-0.125,3.668,0,5.493c0.044,0.639,1.044,0.643,1,0 c-0.125-1.825-0.071-3.667,0-5.493C30.025,10.38,29.025,10.381,29,11.023L29,11.023z"/><path fill="#010101" d="M31.55,20.542c1.74-0.035,3.48-0.136,5.219-0.046c0.817,0.042,2.045-0.071,2.643,0.591 c0.577,0.639,0.578,1.608,0.506,2.413c-0.057,0.641,0.943,0.637,1,0c0.083-0.928,0.018-1.963-0.517-2.762 c-0.641-0.958-1.624-1.094-2.694-1.18c-2.054-0.165-4.101-0.057-6.158-0.016C30.907,19.555,30.905,20.555,31.55,20.542 L31.55,20.542z"/></svg>