<svg xmlns="http://www.w3.org/2000/svg"  viewBox="0 0 512 512" width="64px" height="64px"><path fill="#C56528" d="M323.6,324.1c-0.1-0.4-0.2-0.9-0.2-1.4c-1.5-7.8-3.4-15.5-5.4-23c-3.8-14.5-7.7-28.6-8.7-43.7c-0.9-13.2-0.3-26.3,1.3-39.4c-3.4-5.6-10.6-4.5-15.8-7c-2.9-1.4-3.4-4.7-4.6-7.3c-0.8,0-1.5,0-2.3,0c-1.3,0.1-2.7,0.3-4,0.3c-6.7-0.4-10.8-3.5-10.5-10.4c0.1-2.2,0.3-4.3,0.7-6.5c-0.2,0.1-0.3,0.1-0.5,0.2c-4.5,2-7.5-2.3-6.9-6.1c-27.2-1.5-54.4-3.9-81.4-7.5c-21-2.8-41.8-3.7-62.9-0.2c-39.4,6.6-78.5,28.7-91.1,68.8c-4.1,13.1-5.6,26.6-2.9,40.1c2.7,13.5,8.6,26.3,15.7,38c7.6,12.7,16.6,24.5,25.5,36.3c9.2,12.3,18.7,24.4,28.8,35.9c15.6,17.8,32.2,32.8,54.4,41.8c19.1,7.7,40,11.2,60.6,10.2c20.6-1,41.4-5.9,59.6-15.7c19-10.3,37.5-25.8,46.5-45.8C327.8,363.2,327.1,343.5,323.6,324.1z M143.8,376.3c-0.9,1-2.3,1.9-3.7,1.9h-3c-1.5,0-2.9-0.3-4.1-1.4c-1.1-0.9-1.7-2.3-1.9-3.7c-0.1-1.5,0.4-2.9,1.4-4.1c0.9-1,2.3-1.9,3.7-1.9h3c1.5,0,2.9,0.3,4.1,1.4c1.1,0.9,1.7,2.3,1.9,3.7C145.3,373.7,144.8,375.2,143.8,376.3z M170.8,346.3c-0.9,1.1-2.3,1.7-3.7,1.9c-1.5,0.1-2.9-0.4-4.1-1.4c-0.3-0.3-0.7-0.7-0.9-1.1c-0.2-0.1-0.4-0.3-0.6-0.4c-1.1-0.9-1.7-2.3-1.9-3.7c-0.1-1.5,0.4-3,1.4-4.1c0.9-1,2.3-1.9,3.7-1.9c0.8,0,1.6,0,2.4,0.1c0.9,0.2,2.3,0.7,3,1.4c0.9,1.1,1.1,1.1,1.6,2.4c0.2,0.5,0.3,1.1,0.4,1.6c0,0.3,0,0.6,0,0.9C172.2,343.8,171.9,345.2,170.8,346.3z M179.1,421.7c-7.1,0-7.9-11-0.8-11C185.3,410.7,186.2,421.7,179.1,421.7z M269.1,274.6l1.5-1.5c1-1,2.2-1.7,3.7-1.9c1.5-0.1,2.9,0.4,4.1,1.4c2.1,1.9,2.6,5.6,0.5,7.8l-1.5,1.5c-1,1-2.2,1.7-3.7,1.9c-1.5,0.1-2.9-0.4-4.1-1.4C267.4,280.4,266.9,276.7,269.1,274.6z M214.3,398.8c-0.9,1-2.3,1.9-3.7,1.9h-1.5c-1.5,0-2.9-0.3-4.1-1.4c-1.1-0.9-1.7-2.3-1.9-3.7c-0.1-1.5,0.4-3,1.4-4.1c0.9-1,2.3-1.9,3.7-1.9h1.5c1.5,0,2.9,0.3,4.1,1.4c1.1,0.9,1.7,2.3,1.9,3.7C215.8,396.2,215.3,397.7,214.3,398.8z M219.6,364.7c-7.1,0-7.9-11-0.8-11C225.8,353.7,226.7,364.7,219.6,364.7z M238.2,348.3c0,1.5-0.3,2.9-1.4,4.1c-0.9,1.1-2.3,1.7-3.7,1.9c-1.5,0.1-2.9-0.4-4.1-1.4c-1-0.9-1.9-2.3-1.9-3.7v-1.5c0-1.5,0.3-2.9,1.4-4.1c0.9-1.1,2.3-1.7,3.7-1.9c1.5-0.1,2.9,0.4,4.1,1.4c1,0.9,1.9,2.3,1.9,3.7V348.3z M239.1,324.2c-7.1,0-7.9-11-0.8-11C245.3,313.2,246.2,324.2,239.1,324.2z M267.6,397.7c-7.1,0-7.9-11-0.8-11C273.8,386.7,274.7,397.7,267.6,397.7z M275.1,349.7c-7.1,0-7.9-11-0.8-11C281.3,338.7,282.2,349.7,275.1,349.7z M284.8,313.3c-0.9,1.1-2.3,1.7-3.7,1.9c-0.6,0-1.3,0-1.9-0.2c-0.4,0.1-0.7,0.2-1.1,0.2c-1.5,0.1-2.9-0.4-4.1-1.4c-2.1-1.9-2.6-5.6-0.5-7.8c1.7-1.7,3.4-3.4,5.9-3.6c1.1-0.1,2.2,0.1,3.2,0.6c0.8,0.4,1.9,1.3,2.3,2.1c0.7,1.5,0.8,1.5,1.1,3.1c0.1,0.3,0.1,0.7,0.1,1C286.2,310.8,285.9,312.2,284.8,313.3z"/><path fill="#3AB37C" d="M471.8,301.2c-5.4-9.1-15.7-12.6-23.2-19.5c-8.9-8.2-9-18.3-2.4-28.2c3.4-5.2,7.4-9.8,10.5-15.2c2.5-4.4,4.8-9.2,1.9-14c-3.3-5.5-7.7-10.1-10.7-15.8c-2.1-4-3.4-8.3-4.5-12.7c-2.3-9.5-3.8-18-14.7-19.8c-7.7-1.3-15.6-0.7-23.4-1.4c-0.6,0.8-1.2,1.5-2,2.2c-2.1,2.2-4.9,2.1-7,0.8c-1.4,1.1-2.8,2.3-4.3,3.3c-10,7.6-20.7,14.5-31.9,20.3c-10.1,5.2-21.5,7-31.4,12.4c-2.5,1.4-5,0.7-6.6-0.8c0,0.1,0,0.2,0,0.3c-0.7,4.8-1.3,9.6-1.7,14.5c28.4,0.1,56.8,0.8,84.9-4.1c0.8-0.2,1.6-0.3,2.4-0.4c7.2-0.6,7.6,9.7,0.8,11c-0.3,0.1-0.6,0.1-0.9,0.2c-0.5,0.2-0.8,0.4-1.4,1c-2.3,2.3-5.4,2-7.5,0.4c-26.2,3.7-52.6,3-79,2.9c-0.3,9.6,0.2,19.2,1.7,28.7c0.4,2.8,0.9,5.6,1.5,8.4c17.6,0.6,34.4,6,51.7,9c5.7,1,11.5,0.7,17.2,0.9c4.6,0.2,10,0.1,14.2,2.5c6.1,3.5,1.3,13.4-4.9,9.9c-3.5-2-9.5-1.5-13.6-1.6c-5.7-0.1-11.3-0.2-16.9-1.3c-15-2.8-29.9-7.6-45.2-8.4c2.5,10,5.3,19.8,7.6,29.8c19.1,2.3,37,10,55.1,16.1c3.5,1.2,5.4,4.2,3.9,7.8l-0.3,0.6c-1,2.4-3.7,3.2-6,3c-0.9-0.1-1.8-0.5-2.7-0.6c-1.6-0.3-2.8-1.2-3.5-2.2c-14.5-5.1-29-10.8-44.2-13.3c1.3,7.9,2,15.8,1.7,24c0,0.2,0,0.4,0,0.6c1.3-0.6,2.9-0.7,4.5,0.1c12,5.8,25,8.9,37.5,13.5c6.6,2.4,1.7,12.3-4.9,9.9c-12.5-4.6-25.5-7.7-37.5-13.5c-0.2-0.1-0.4-0.2-0.6-0.3c-3.3,21.7-14,40.5-30.6,55.6c-16.5,15-36.3,25.3-57.5,31.1c6.2,11.2,8.4,27.4,23.1,29.5c13.1,1.9,23.4-10.2,32.1-18.1c6.9-6.3,14.6-13.2,24.1-14.8c10.8-1.8,20,3.8,30.3,5.8c11.5,2.3,19.7-5.3,23.8-15.6c3.1-7.8,4.2-17.1,10.2-23.4c13.2-13.8,36.1-7.8,49.7-20.9c7.1-6.8,9.2-15.5,12.8-24.3c1.9-4.6,1.1-7.5-0.8-11.9c-1.9-4.4-3-8.9-2.8-13.7c0.2-9.6,6.4-17.2,12.8-23.8C467,314.1,475.5,307.4,471.8,301.2z"/><path fill="#D6E5E5" d="M448.1,94.4c-9.3-1.5-18.7-0.2-27.5,3c-3.2,1.2-7.2-1.2-7.3-4.8c-0.2-10.7-6.3-22.1-16.4-26.6c-4.9-2.2-10.3-2.7-15.4-0.7c-2.3,0.9-9.7,2.9-10.2,5.8c-0.6,4.3,9,11.1,12,14c5.7,5.5,10.1,11.2,7.8,19.5c-2.6,9.2-10.4,16.7-17.3,22.8c-7.9,7-16.1,13.9-24.8,19.9c-19.7,13.6-41.4,23.4-63.2,33.1c-0.2,2.1-0.5,4.2-0.8,6.3c-0.2,1.6-0.5,3.2-0.6,4.8c0,0,0,0,0,0c3.9-0.3,9.9-1.2,12.9,2.1c1.7,1.9,2.4,4.2,3.5,6.2c5.7,1.4,11.8,3,16,7c1.2,0.1,2.4,0.5,3.3,1.3c0.2-1.3,0.9-2.6,2.5-3.5c8.9-4.9,18.8-7,28-11c9.8-4.2,19.2-10.3,27.9-16.4c9-6.4,17.7-13.3,25.5-21.2c6.6-6.6,12.2-14.1,18.8-20.7c6.3-6.3,13.7-12,22.4-14.6c6.1-1.8,15.7-4.5,17.4-11.9C464.7,100.3,455.2,95.5,448.1,94.4z"/><path fill="#010101" d="M481.1,313.8c5-8.1,2-17.1-3.9-23.7c-6.7-7.6-17.2-11.1-23.5-18.9c-3.3-4.1-0.2-9.2,2.4-12.8c3.6-5.1,7.2-9.9,10.5-15.2c6.7-11.1,4.7-21.4-3.2-31.1c-3.2-4-6.1-8.4-7.8-13.3c-1.9-5.3-2.6-10.9-4.2-16.3c-5.5-18.5-23.9-17.5-39.9-18.3c2.6-2.6,5.1-5.3,7.6-8c6.8-7.6,13-15.8,21.8-21.3c4.3-2.7,9.1-3.6,13.7-5.2c4.6-1.6,8.6-4.3,12.2-7.5c6.3-5.6,8.8-14.5,5.9-22.4c-6.9-18.8-32-19-49.4-14.7c-4-20-23.2-36.4-44.3-30.5c-8.5,2.3-19.6,7.8-18.9,18.1c0.5,7.8,8.3,14,13.6,18.9c2.4,2.2,4.9,4.4,6.7,7.2c1.4,2.2-1.7,6.9-3,8.8c-5.7,8.1-13.8,14.4-21.4,20.6c-22.1,18-47.2,30.1-73.1,41.6c-2-0.6-4.5-0.1-6.2,1.5c-1-1.1-2.3-1.9-4.1-2c-30.4-1.5-60.8-4.3-90.9-8.4c-20.9-2.9-42.1-2.8-62.9,0.8c-41,7.2-79.8,29.7-95.9,69.6c-10.3,25.5-8.6,51.8,2.6,76.6c12,26.5,31.3,50,49.3,72.6c16.1,20.1,32.9,40.3,55.2,53.7c17.7,10.7,38.2,16.9,58.6,19.2c16,1.8,32.2,1.2,47.9-1.8c0.1,0.2,0.2,0.4,0.4,0.6c5.8,8.4,7.6,18.9,14,27c6.2,7.9,17.2,11.5,27,10.2c19.8-2.8,29.2-23,46-31.2c9.6-4.7,19.6,0.9,29,3.5c11.5,3.2,21.9,0.2,30.2-8.3c6.9-7.2,9.2-16.4,12.4-25.6c1.2-3.4,2.7-6.9,5.5-9.3c4.3-3.7,10.2-4.5,15.6-5.7c8.8-1.9,17.5-4,25.4-8.4c7.3-4,12.6-10.6,16.4-17.8c2.4-4.6,4-9.5,5.6-14.4c1.7-5.4,2.9-9.6,1.6-15.3c-0.9-3.7-3.2-6.9-3.9-10.7c-0.9-4.8,0.2-9.2,2.9-13.1C469.6,326.1,476.6,321,481.1,313.8z M284.9,186.7c0.3-2.1,0.6-4.2,0.8-6.3c21.8-9.7,43.5-19.5,63.2-33.1c8.7-6,16.9-12.9,24.8-19.9c6.9-6.1,14.7-13.6,17.3-22.8c2.3-8.3-2.1-14-7.8-19.5c-3-2.9-12.6-9.6-12-14c0.4-3,7.8-4.9,10.2-5.8c5-2,10.5-1.5,15.4,0.7c10.1,4.5,16.2,15.9,16.4,26.6c0.1,3.6,4.1,5.9,7.3,4.8c8.8-3.2,18.2-4.5,27.5-3c7.1,1.1,16.7,5.9,14.7,14.6c-1.7,7.4-11.3,10.1-17.4,11.9c-8.8,2.5-16.1,8.2-22.4,14.6c-6.6,6.6-12.3,14-18.8,20.7c-7.8,7.9-16.5,14.8-25.5,21.2c-8.7,6.1-18.1,12.2-27.9,16.4c-9.3,4-19.1,6.1-28,11c-1.6,0.9-2.4,2.1-2.5,3.5c-1-0.7-2.2-1.2-3.3-1.3c-4.3-4-10.3-5.6-16-7c-1.1-2.1-1.7-4.3-3.5-6.2c-3-3.3-9-2.4-12.9-2.1c0,0,0,0,0,0C284.4,190,284.7,188.3,284.9,186.7z M213.3,443.4c-20.6,1-41.5-2.5-60.6-10.2c-22.2-9-38.8-24-54.4-41.8c-10.1-11.5-19.6-23.6-28.8-35.9c-8.9-11.8-17.9-23.6-25.5-36.3c-7.1-11.7-13-24.5-15.7-38c-2.7-13.6-1.3-27,2.9-40.1c12.7-40.2,51.7-62.2,91.1-68.8c21-3.5,41.8-2.6,62.9,0.2c27,3.6,54.2,5.9,81.4,7.5c-0.6,3.8,2.5,8.1,6.9,6.1c0.2-0.1,0.3-0.1,0.5-0.2c-0.3,2.1-0.6,4.3-0.7,6.5c-0.2,6.9,3.9,10,10.5,10.4c1.3,0.1,2.7-0.1,4-0.3c0.8-0.1,1.5-0.1,2.3,0c1.2,2.6,1.7,5.9,4.6,7.3c5.2,2.6,12.4,1.4,15.8,7c-1.6,13.1-2.2,26.2-1.3,39.4c1,15,5,29.2,8.7,43.7c2,7.6,3.9,15.3,5.4,23c0,0.5,0.1,0.9,0.2,1.4c3.6,19.4,4.3,39.2-4.1,57.8c-9,20-27.6,35.5-46.5,45.8C254.7,437.5,233.9,442.4,213.3,443.4z M463.3,317.9c-6.4,6.6-12.5,14.1-12.8,23.8c-0.1,4.8,0.9,9.3,2.8,13.7c1.9,4.4,2.7,7.3,0.8,11.9c-3.7,8.8-5.7,17.4-12.8,24.3c-13.6,13.1-36.6,7-49.7,20.9c-6,6.3-7.1,15.6-10.2,23.4c-4.1,10.3-12.3,17.9-23.8,15.6c-10.2-2-19.5-7.7-30.3-5.8c-9.5,1.6-17.2,8.5-24.1,14.8c-8.7,7.9-19,20-32.1,18.1c-14.7-2.1-16.9-18.2-23.1-29.5c21.2-5.8,41-16.2,57.5-31.1c16.6-15,27.4-33.9,30.6-55.6c0.2,0.1,0.4,0.2,0.6,0.3c12,5.8,25,8.9,37.5,13.5c6.6,2.4,11.5-7.4,4.9-9.9c-12.5-4.6-25.5-7.7-37.5-13.5c-1.7-0.8-3.2-0.7-4.5-0.1c0-0.2,0-0.4,0-0.6c0.3-8.1-0.4-16.1-1.7-24c15.2,2.5,29.7,8.1,44.2,13.3c0.7,1.1,1.8,1.9,3.5,2.2c0.9,0.2,1.8,0.5,2.7,0.6c2.3,0.2,5-0.6,6-3l0.3-0.6c1.5-3.6-0.4-6.7-3.9-7.8c-18.1-6.1-36-13.8-55.1-16.1c-2.3-10-5.1-19.9-7.6-29.8c15.3,0.9,30.2,5.7,45.2,8.4c5.6,1,11.2,1.1,16.9,1.3c4.1,0.1,10.1-0.4,13.6,1.6c6.2,3.5,11-6.4,4.9-9.9c-4.2-2.4-9.6-2.3-14.2-2.5c-5.7-0.3-11.5,0.1-17.2-0.9c-17.3-3.1-34.1-8.4-51.7-9c-0.6-2.8-1.1-5.6-1.5-8.4c-1.5-9.5-2-19.1-1.7-28.7c26.4,0.1,52.8,0.8,79-2.9c2.1,1.5,5.1,1.9,7.5-0.4c0.6-0.5,0.8-0.8,1.4-1c0.3-0.1,0.6-0.1,0.9-0.2c6.8-1.3,6.4-11.6-0.8-11c-0.9,0.1-1.7,0.2-2.4,0.4c-28.1,4.9-56.5,4.2-84.9,4.1c0.4-4.8,1-9.7,1.7-14.5c0-0.1,0-0.2,0-0.3c1.7,1.5,4.2,2.2,6.6,0.8c9.9-5.4,21.4-7.2,31.4-12.4c11.2-5.8,21.8-12.7,31.9-20.3c1.4-1.1,2.9-2.2,4.3-3.3c2.1,1.3,4.8,1.4,7-0.8c0.7-0.7,1.4-1.5,2-2.2c7.8,0.7,15.7,0.1,23.4,1.4c10.9,1.8,12.4,10.3,14.7,19.8c1.1,4.4,2.4,8.7,4.5,12.7c3,5.7,7.4,10.3,10.7,15.8c2.8,4.8,0.5,9.6-1.9,14c-3,5.4-7.1,10-10.5,15.2c-6.5,9.9-6.5,20,2.4,28.2c7.5,7,17.8,10.4,23.2,19.5C475.5,307.4,467,314.1,463.3,317.9z"/><path fill="#010101" d="M213.8 391.1c-1.2-1-2.5-1.4-4.1-1.4h-1.5c-1.4 0-2.8.9-3.7 1.9-1 1.1-1.5 2.6-1.4 4.1.1 1.4.8 2.8 1.9 3.7 1.2 1 2.5 1.4 4.1 1.4h1.5c1.4 0 2.8-.9 3.7-1.9 1-1.1 1.5-2.6 1.4-4.1C215.6 393.3 214.9 392 213.8 391.1zM266.8 386.7c-7.1 0-6.2 11 .8 11C274.7 397.7 273.8 386.7 266.8 386.7zM143.3 368.6c-1.2-1-2.5-1.4-4.1-1.4h-3c-1.4 0-2.8.9-3.7 1.9-1 1.1-1.5 2.6-1.4 4.1.1 1.4.8 2.8 1.9 3.7 1.2 1 2.5 1.4 4.1 1.4h3c1.4 0 2.8-.9 3.7-1.9 1-1.1 1.5-2.6 1.4-4.1C145.1 370.8 144.4 369.5 143.3 368.6zM172.2 341.3c-.1-.5-.1-1.1-.4-1.6-.5-1.3-.7-1.4-1.6-2.4-.6-.7-2-1.3-3-1.4-.8-.1-1.6-.1-2.4-.1-1.4 0-2.8.9-3.7 1.9-1 1.1-1.5 2.6-1.4 4.1.1 1.4.8 2.8 1.9 3.7.2.2.4.3.6.4.3.4.6.8.9 1.1 1.1 1 2.6 1.5 4.1 1.4 1.4-.1 2.8-.8 3.7-1.9 1-1.2 1.4-2.5 1.4-4.1C172.2 342 172.2 341.6 172.2 341.3zM236.3 343.1c-1.1-1-2.6-1.5-4.1-1.4-1.4.1-2.8.8-3.7 1.9-1 1.2-1.4 2.5-1.4 4.1v1.5c0 1.4.9 2.8 1.9 3.7 1.1 1 2.6 1.5 4.1 1.4 1.4-.1 2.8-.8 3.7-1.9 1-1.2 1.4-2.5 1.4-4.1v-1.5C238.2 345.4 237.3 343.9 236.3 343.1zM274.3 338.7c-7.1 0-6.2 11 .8 11C282.2 349.7 281.3 338.7 274.3 338.7zM286.1 308.2c-.3-1.6-.3-1.6-1.1-3.1-.4-.8-1.5-1.7-2.3-2.1-1-.5-2.1-.7-3.2-.6-2.5.2-4.2 1.9-5.9 3.6-2.1 2.1-1.6 5.9.5 7.8 1.1 1 2.6 1.5 4.1 1.4.4 0 .8-.1 1.1-.2.6.2 1.3.3 1.9.2 1.4-.1 2.8-.8 3.7-1.9 1-1.2 1.4-2.5 1.4-4.1C286.2 308.9 286.2 308.6 286.1 308.2zM238.3 313.2c-7.1 0-6.2 11 .8 11C246.2 324.2 245.3 313.2 238.3 313.2zM278.3 272.6c-1.1-1-2.6-1.5-4.1-1.4-1.5.1-2.7.8-3.7 1.9l-1.5 1.5c-2.1 2.1-1.6 5.9.5 7.8 1.1 1 2.6 1.5 4.1 1.4 1.5-.1 2.7-.8 3.7-1.9l1.5-1.5C281 278.2 280.5 274.4 278.3 272.6zM218.8 353.7c-7.1 0-6.2 11 .8 11C226.7 364.7 225.8 353.7 218.8 353.7zM178.3 410.7c-7.1 0-6.2 11 .8 11C186.2 421.7 185.3 410.7 178.3 410.7zM236.8 293.7c-7.1 0-6.2 11 .8 11C244.7 304.7 243.8 293.7 236.8 293.7zM186.8 374.6c-1.1-1-2.6-1.5-4.1-1.4-1.4.1-2.8.8-3.7 1.9-1 1.2-1.4 2.5-1.4 4.1v1.5c0 1.4.9 2.8 1.9 3.7 1.1 1 2.6 1.5 4.1 1.4 1.4-.1 2.8-.8 3.7-1.9 1-1.2 1.4-2.5 1.4-4.1v-1.5C188.7 376.9 187.8 375.4 186.8 374.6zM170.3 389.6c-1.2-1-2.5-1.4-4.1-1.4h-1.5c-1.4 0-2.8.9-3.7 1.9-1 1.1-1.5 2.6-1.4 4.1.1 1.4.8 2.8 1.9 3.7 1.2 1 2.5 1.4 4.1 1.4h1.5c1.4 0 2.8-.9 3.7-1.9 1-1.1 1.5-2.6 1.4-4.1C172.1 391.8 171.4 390.5 170.3 389.6zM154.3 373.2c-7.1 0-6.2 11 .8 11C162.2 384.2 161.3 373.2 154.3 373.2zM128.3 388.1c-1.1-1-2.6-1.5-4.1-1.4-1.4.1-2.8.8-3.7 1.9-1 1.2-1.4 2.5-1.4 4.1v1.5c0 1.4.9 2.8 1.9 3.7 1.1 1 2.6 1.5 4.1 1.4 1.4-.1 2.8-.8 3.7-1.9 1-1.2 1.4-2.5 1.4-4.1v-1.5C130.2 390.4 129.3 388.9 128.3 388.1zM101.8 361.2c-7.1 0-6.2 11 .8 11C109.7 372.2 108.8 361.2 101.8 361.2zM71.3 332.6c-1.2-1-2.5-1.4-4.1-1.4h-1.5c-1.4 0-2.8.9-3.7 1.9-1 1.1-1.5 2.6-1.4 4.1.1 1.4.8 2.8 1.9 3.7 1.2 1 2.5 1.4 4.1 1.4h1.5c1.4 0 2.8-.9 3.7-1.9 1-1.1 1.5-2.6 1.4-4.1C73.1 334.8 72.4 333.5 71.3 332.6zM75.8 305.6c-1.2-1-2.5-1.4-4.1-1.4h-1.5c-1.4 0-2.8.9-3.7 1.9-1 1.1-1.5 2.6-1.4 4.1.1 1.4.8 2.8 1.9 3.7 1.2 1 2.5 1.4 4.1 1.4h1.5c1.4 0 2.8-.9 3.7-1.9 1-1.1 1.5-2.6 1.4-4.1C77.6 307.8 76.9 306.5 75.8 305.6zM104.8 337.2c-7.1 0-6.2 11 .8 11C112.7 348.2 111.8 337.2 104.8 337.2zM292.3 359.7c-7.1 0-6.2 11 .8 11C300.2 370.7 299.3 359.7 292.3 359.7zM248.8 356.7c-7.1 0-6.2 11 .8 11C256.7 367.7 255.8 356.7 248.8 356.7zM244.3 389.7c-7.1 0-6.2 11 .8 11C252.2 400.7 251.3 389.7 244.3 389.7zM308.8 311.7c-7.1 0-6.2 11 .8 11C316.7 322.7 315.8 311.7 308.8 311.7zM66.8 218.6c-1.2-1-2.5-1.4-4.1-1.4h-1.5c-1.4 0-2.8.9-3.7 1.9-1 1.1-1.5 2.6-1.4 4.1.1 1.4.8 2.8 1.9 3.7 1.2 1 2.5 1.4 4.1 1.4h1.5c1.4 0 2.8-.9 3.7-1.9 1-1.1 1.5-2.6 1.4-4.1C68.6 220.9 67.9 219.5 66.8 218.6zM107.3 194.6c-1.1-1-2.6-1.5-4.1-1.4-1.4.1-2.8.8-3.7 1.9-1 1.2-1.4 2.5-1.4 4.1v1.5c0 1.4.9 2.8 1.9 3.7 1.1 1 2.6 1.5 4.1 1.4 1.4-.1 2.8-.8 3.7-1.9 1-1.2 1.4-2.5 1.4-4.1v-1.5C109.2 196.9 108.3 195.4 107.3 194.6zM74.8 241.2c-7.1 0-6.2 11 .8 11C82.7 252.2 81.8 241.2 74.8 241.2zM46.3 241.2c-7.1 0-6.2 11 .8 11C54.2 252.2 53.3 241.2 46.3 241.2zM50.3 284.6c-1.1-1-2.6-1.5-4.1-1.4-1.4.1-2.8.8-3.7 1.9-1 1.2-1.4 2.5-1.4 4.1v1.5c0 1.4.9 2.8 1.9 3.7 1.1 1 2.6 1.5 4.1 1.4 1.4-.1 2.8-.8 3.7-1.9 1-1.2 1.4-2.5 1.4-4.1v-1.5C52.2 286.9 51.3 285.4 50.3 284.6zM178.3 184.1c-1.2-1-2.5-1.4-4.1-1.4h-1.9c-1.4 0-2.8.9-3.7 1.9-1 1.1-1.5 2.6-1.4 4.1.1 1.4.8 2.8 1.9 3.7 1.2 1 2.5 1.4 4.1 1.4h1.9c1.4 0 2.8-.9 3.7-1.9 1-1.1 1.5-2.6 1.4-4.1C180 186.4 179.3 185 178.3 184.1z"/></svg>