<svg xmlns="http://www.w3.org/2000/svg"  viewBox="0 0 512 512" width="64px" height="64px"><path fill="#D6E5E5" d="M323.8 179.9c-3.1-6.7-7.8-8-14.8-8.4-8.6-.6-17.1.4-25.7.5-10.4.1-20.8 0-31.2 0-8.6 0-17-.2-25.6-.8-6.6-.5-14.1-1.2-20.5 1-4.7 1.6-7.2 4.8-9.9 8.8-1.5 2.2-2.9 4.4-4.1 6.7-.6 1.1-1.2 2.1-1.7 3.3-.1.3-.2.6-.3.7.1.5.1 1 0 1.5 3.2.3 6.3.6 9.5.9-.3-2.3-.4-4.7-.4-7.1 0-3 1.9-5.7 5.1-5.9 2.8-.2 5.9 2.1 5.9 5.1 0 2.9 0 5.9.5 8.8 1.6.1 3.1.2 4.7.3-.6-2.4-1.1-4.8-1.2-7.2-.1-3 1.9-5.7 5.1-5.9 2.9-.2 5.8 2.1 5.9 5.1.1 3.2.9 5.3 1.7 8.6 0 0 0 .1 0 .1 1.7.1 3.5.2 5.2.2-.7-3-.9-6-.9-9.1 0-3 1.9-5.7 5.1-5.9 2.8-.2 5.9 2.1 5.9 5.1 0 2.6 0 5.4.7 7.6.3.9.3 1.8.2 2.7 1.1 0 2.3.1 3.4.1-.2-.5-.3-1-.3-1.5v-9c0-3 1.9-5.7 5.1-5.9 2.8-.2 5.9 2.1 5.9 5.1v9c0 .9-.2 1.8-.5 2.6 2.9.1 5.8.1 8.7.1-1.1-3.5-2.1-7.2-2.1-10.9-.1-3 1.9-5.7 5.1-5.9 2.9-.2 5.8 2.1 5.9 5.1.1 3.1.7 5.6 1.7 8.6.4 1.2.4 2.3.1 3.2 2.2 0 4.4 0 6.7.1.2 0 .4 0 .5 0-.8-2.9-1-5.9-1-9.1 0-3 1.9-5.7 5.1-5.9 2.8-.2 5.9 2.1 5.9 5.1 0 2.7-.3 6.2 1.1 8.3.3.6.6 1.1.7 1.7 2 0 4.1 0 6.1.1-.9-2.7-1.8-5.4-1.9-8.3-.1-3 2-5.7 5.1-5.9 2.9-.2 5.8 2.1 5.9 5.1 0 .6.1 1.3.2 1.9.1.2.2.9.3 1 .4 1.3.9 2.5 1.3 3.8.3.8.4 1.7.2 2.6 2.1 0 4.2 0 6.3 0-.1-.4-.2-.8-.2-1.3 0-1 0-2-.1-3 0-.1 0-.1 0-.2 0 0 0-.1 0-.1-.1-.4-.3-.9-.5-1.3-1.3-2.7.8-6.1 3.4-7 1.8-.6 3.5-.3 4.8.7C325.1 183.3 324.5 181.6 323.8 179.9zM451.1 262.9c-.3-3.1-.7-6.3-1.5-9.4-.3 1.3-.9 2.5-1.9 3.6-1.6 1.8-4.3 2.3-6.5 1.3-.2.2-.3.5-.5.7-1.8 2.1-5.7 2.7-7.8.5-3.1-3.4-3.9-7.2-3.9-11.7 0-3 1.9-5.7 5.1-5.9 2.4-.2 5 1.4 5.7 3.8.8-1.5 2.3-2.6 4.3-2.8.2 0 .3 0 .5 0-2-2.5-4.5-4.5-7.8-5.8-10.3-4.1-21.8-1.4-32.5-2.1-6.8-.4-14.9-1.4-22.2-3.9-9.3.7-18.5 2.5-27.7 4.3-12.8 2.5-25.3 4.4-38.3 4.4-13 0-26.9.9-39.7-1.2-8.3-1.4-18.9-5.7-27.1-2.1-6.5 2.9-10.1-7.6-3.6-10.4 3.7-1.6 7.6-2 11.7-1.9-.2-1.5-.3-3-.3-4.5 0-3 1.9-5.7 5.1-5.9 2.8-.2 5.9 2.1 5.9 5.1 0 1.3 0 2.6.2 3.9 0 .2.1.3.1.4.1.3.2.7.3 1 .1.3.2.4.2.5.1.1.2.2.3.5.2.2.3.5.4.8 1.9.4 3.8.8 5.6 1.2.3.1.6.1.9.2-.5-2.5-.9-5-.9-7.6-.1-3 1.9-5.7 5.1-5.9 2.9-.2 5.9 2.1 5.9 5.1.1 3.3.7 6.5 1.5 9.8 2.6.2 5.2.2 7.8.3-2-4.3-1.9-9.8 1.1-13.2 4.5-5.1 12.3 1.4 8.7 6.7.1.5.1 1.5-.2.6.1.5.2.9.4 1.4 0 0 0 0 0 .1.1.2.4.5.5.6.1.1.2.1.3.2 1.2.9 1.8 2.3 1.8 3.7 2.4 0 4.8-.1 7.1 0-1.7-3.5-2.1-7.2-2.1-11.1 0-3 1.9-5.7 5.1-5.9 2.8-.2 5.9 2.1 5.9 5.1 0 2.8 0 5.6 1.1 7.3.8 1.3 1.1 2.8.8 4.2 3.4-.2 6.8-.6 10.1-1.1-2.4-3.1-3-6.6-3-10.6 0-3 1.9-5.7 5.1-5.9 2.8-.2 5.9 2.1 5.9 5.1 0 1.2 0 2.4.1 3.6 0 .1 0 .2 0 .3 0 .1.1.2.1.3.1 0 .4.6.1.4 0 0 0 0 0 .1 1.3 1.6 1.9 3.5 1.4 5.4 1.6-.3 3.2-.6 4.8-.9-.5-.5-.9-1.2-1.3-1.9-1.1-2.3-1.3-4.9-1.3-7.4 0-3 1.9-5.7 5.1-5.9 2.2-.2 4.6 1.2 5.5 3.2.2-.4.4-.7.6-1-.4-.4-.7-.7-1.1-1-4.7-4.1-10.2-4.3-16.2-4-14.5.8-29 .8-43.6.8-31.6 0-63.6 0-95.1-2.6-15.7-1.3-31.3-4-47.1-3.9-2.7 0-8.2-.6-9.8.6-1.8 1.4-3.7 2.8-5.4 4.3-2.4 2-8 6.1-7.7 9.6 0 .7 0 1.4-.2 2 1.2.3 2.3.6 3.5.9 11.7 3.3 22.9 7.9 33.1 14.5 10.5 6.7 20.4 14.7 28.7 24 8 9 16.5 17.6 26.2 24.8 21.2 15.6 46.1 21 72.1 21.9 30.1 1.1 59.9-2.7 88.7-11.6 14.5-4.5 29.6-8.2 43.4-14.7 8.3-3.9 16.6-7.7 25.1-10.8C452.3 266.3 451.3 264.9 451.1 262.9zM187.1 226.1c0 3-1.9 5.7-5.1 5.9-2.8.2-5.9-2.1-5.9-5.1v-5c0-3 1.9-5.7 5.1-5.9 2.8-.2 5.9 2.1 5.9 5.1V226.1zM208.7 236c-2.4 1.6-6 1-7.6-1.5-2.1-3.3-2.9-6.7-2.9-10.7 0-3 1.9-5.7 5.1-5.9 2.8-.2 5.9 2.1 5.9 5.1 0 1.1 0 2.2.1 3.3 0 0 .2.6.4 1 .1.2.6 1 .6 1C211.8 230.9 211.2 234.3 208.7 236zM236.1 230.1c0 3-1.9 5.7-5.1 5.9-2.8.2-5.9-2.1-5.9-5.1v-8c0-3 1.9-5.7 5.1-5.9 2.8-.2 5.9 2.1 5.9 5.1V230.1zM271.4 262.7c-2.8 1-6.1-.5-7-3.4-1.1-3.4-1.3-6.8-1.3-10.4 0-3 1.9-5.7 5.1-5.9 2.8-.2 5.9 2.1 5.9 5.1 0 2.6 0 5.4.7 7.6C275.7 258.5 274.3 261.7 271.4 262.7zM287 268c-2.8.2-5.9-2.1-5.9-5.1 0-1.4 0-2.7-.1-4.1 0-.2-.3-1.8-.2-1.5-.1-.4-.2-.7-.4-1.1-1.2-2.7.7-6.1 3.4-7 3-1.1 5.8.6 7 3.4 1.3 2.9 1.3 6.3 1.3 9.4C292.1 265.1 290.2 267.7 287 268zM309.1 256.3c.2 1.2.4 2.2.7 3.4.7 2.9-.4 5.9-3.4 7-2.6.9-6.3-.5-7-3.4-1.3-5.1-2.8-11 1.1-15.4 4.6-5.3 12.6 1.6 8.5 7C309 255.3 309 255.8 309.1 256.3zM324.4 264.7c-2.8 1-6.1-.5-7-3.4-1.1-3.4-1.3-6.8-1.3-10.4 0-3 1.9-5.7 5.1-5.9 2.8-.2 5.9 2.1 5.9 5.1 0 2.6 0 5.4.7 7.6C328.7 260.5 327.3 263.7 324.4 264.7zM345.7 262.1c-1.8 2.1-5.7 2.7-7.8.5-3.1-3.4-3.9-7.2-3.9-11.7 0-3 1.9-5.7 5.1-5.9 2.8-.2 5.9 2.1 5.9 5.1 0 1.2 0 2.4.1 3.6 0 .1 0 .2 0 .3 0 .1.1.2.1.3.1 0 .4.6.1.4 0 0 0 0 0 .1C347.3 256.8 347.8 259.8 345.7 262.1zM363.4 261.7c-2.8 1-6.1-.5-7-3.4-1-3.1-1.3-6.2-1.3-9.4 0-3 1.9-5.7 5.1-5.9 2.8-.2 5.9 2.1 5.9 5.1 0 1.2 0 2.5.1 3.8 0 .2.3 1.6.2 1.4.1.5.3 1 .4 1.5C367.7 257.5 366.3 260.7 363.4 261.7zM385.7 260c-2.4 1.6-6 1.1-7.6-1.5-2.3-3.6-2.9-7.5-2.9-11.7 0-3 1.9-5.7 5.1-5.9 2.8-.2 5.9 2.1 5.9 5.1 0 1.3 0 2.6.2 3.9 0 .2.1.3.1.4.1.3.2.7.3 1 .1.3.2.4.2.5.1.1.2.2.3.5C388.7 254.9 388.2 258.3 385.7 260zM405.4 259.7c-3 1.1-5.8-.6-7-3.4-1.4-3.2-1.3-7-1.3-10.4 0-3 1.9-5.7 5.1-5.9 2.8-.2 5.9 2.1 5.9 5.1 0 1.6 0 3.3.1 4.9 0 .5.1 1.1.2 1.6 0 0 .3.9.4 1.1C410 255.4 408.1 258.7 405.4 259.7zM424.4 259.7c-2.8 1-6.1-.5-7-3.4-1.1-3.4-1.3-6.8-1.3-10.4 0-3 1.9-5.7 5.1-5.9 2.8-.2 5.9 2.1 5.9 5.1 0 2.6 0 5.4.7 7.6C428.7 255.5 427.3 258.7 424.4 259.7z"/><path fill="#74CCCF" d="M369.2,103c-7-2.6-15.6-2.3-23-2c-6.9,0.2-15.7-0.4-21.5,4.2c-3.5,2.8-5.8,6.6-7.7,10.7c19.1-0.3,38-2.8,57.1-3.1C374.1,108.6,373,104.4,369.2,103z"/><path fill="#D6E5E5" d="M352.7,188c7.5-20.9,16.9-42.1,20.4-64.1c-19,0.4-38,3-57,3.1c-1.1,0-2.1-0.3-2.9-0.7c-2.3,6.4-5.1,12.3-8,18.4c-1.7,3.4-3.4,6.9-4.8,10.4c-0.4,1.1-1,2.2-1.3,3.3c-0.1,0.3-0.2,0.5-0.2,0.8c0.1,0.4,0.1,0.7,0.1,1.1c6.1-0.2,12.2-0.1,18,1.2c16.2,3.4,20.3,20.4,22,34.8c4.5-0.3,9.1-0.4,13.5,0.3c0.3-1.1,0.5-2.3,0.9-3.3C352.4,191.9,352,190,352.7,188z"/><path fill="#74CCCF" d="M469.8,273.6c-13.1,3.4-25.2,9.1-37.6,14.7c-14,6.3-28.8,10.1-43.4,14.7c-28.3,9-58.2,13.2-87.9,12.3c-25.9-0.7-52.2-4.3-74.6-18.5c-10-6.3-19-13.8-27.2-22.2c-8.9-9.1-17.1-18.6-27.3-26.2c-21.2-15.8-45.9-22.8-72.1-22.8c-14,0-28,0.4-42,0.7c-7.6,0.2-17.8-0.9-25.5,2.2c-0.6,1-1.6,1.8-2.8,2.2c-0.8,0.3-1.5,0.5-2.3,0.8c-0.7,0.5-1.5,0.7-2.2,0.8c-1.1,0.4-2.3,0.9-3.3,1.4l0,0c1.6,3,3.3,5.9,5.1,8.8c3.4,5.7,7.1,11.2,10.4,17c4.3,7.5,7.7,15.6,11.5,23.4c5.3,10.6,10.6,21.3,15.4,32.1c8.8,19.7,15.9,40.5,28.2,58.3c1,1.5,2.2,3.1,3.5,4.8c0.4-0.8,0.9-1.6,1.8-2.2c2.6-2,6-2.2,9.2-1.9c5.1,0.4,10,1.9,15,3.1c6.9,1.7,13.9,3,20.9,4c15.4,2.2,30.9,3.4,46.4,3.9c31.6,1.1,62.8-0.8,94.2-4.4c31.9-3.7,63.7-8.3,95.4-13.8c15.5-2.7,31.3-4.9,46.6-8.8c13.2-3.4,26.2-7.8,39.5-11C470.4,323,471.4,298.2,469.8,273.6z M104.9,283.6c-10.3,10-22.8-9.8-21.7-19.2c0.2-1.4,1-2.5,2.1-3.3c0.3-0.4,0.7-0.8,1.3-1.2c6.1-4.3,13.2,0.3,16.8,5.5C106.7,270.1,109.9,278.8,104.9,283.6z"/><path fill="#EF4823" d="M460,359.6c-14.2,4-28.3,8.7-42.9,11.5c-15.7,3-31.4,5.7-47.2,8.3c-31.7,5.3-63.5,9.8-95.5,13.2c-31.2,3.3-62.5,4.7-94,2.9c-15.1-0.9-30.4-1.9-45.4-4.5c-6.5-1.1-13-2.5-19.5-4.1c-2.4-0.6-9.9-3.5-11.9-1.9c-0.8,0.6-1.6,0.9-2.4,1.1c3.3,5.2,6.1,10.8,6.3,16.2c34.8,10.4,71.2,14.5,107.4,14.8c30.2,0.3,60.9-0.9,90.9-4.8c31.8-4.1,63.1-10.7,94.7-15.9c7.6-1.3,15.3-1.9,22.9-3.1c6.4-1,14.2-1.8,19.9-5.2c10.2-6.2,14.5-17.8,17.8-28.8C460.8,359.3,460.4,359.4,460,359.6z"/><path fill="#010101" d="M103.3 265.4c-3.7-5.2-10.7-9.8-16.8-5.5-.5.4-.9.8-1.3 1.2-1.1.8-1.9 1.9-2.1 3.3-1.2 9.4 11.3 29.1 21.7 19.2C109.9 278.8 106.7 270.1 103.3 265.4zM274.8 255.7c-.7-2.2-.7-5-.7-7.6 0-3-3.1-5.3-5.9-5.1-3.2.2-5.1 2.9-5.1 5.9 0 3.6.2 7 1.3 10.4.9 2.9 4.3 4.3 7 3.4C274.3 261.7 275.7 258.5 274.8 255.7zM290.8 252.7c-1.2-2.7-4-4.4-7-3.4-2.6.9-4.6 4.3-3.4 7 .2.3.3.7.4 1.1-.1-.3.2 1.2.2 1.5.1 1.4.1 2.7.1 4.1 0 3 3.1 5.3 5.9 5.1 3.2-.2 5.1-2.9 5.1-5.9C292.1 258.9 292.1 255.6 290.8 252.7zM309.1 256.3c-.1-.5-.1-.9-.1-1.4 4.1-5.3-3.9-12.3-8.5-7-3.9 4.5-2.3 10.3-1.1 15.4.7 2.9 4.4 4.3 7 3.4 3-1.1 4.1-4.1 3.4-7C309.5 258.5 309.2 257.4 309.1 256.3zM327.8 257.7c-.7-2.2-.7-5-.7-7.6 0-3-3.1-5.3-5.9-5.1-3.2.2-5.1 2.9-5.1 5.9 0 3.6.2 7 1.3 10.4.9 2.9 4.3 4.3 7 3.4C327.3 263.7 328.7 260.5 327.8 257.7zM345.5 254.7C345.5 254.6 345.5 254.6 345.5 254.7c.2.1-.1-.4-.1-.4 0-.1-.1-.2-.1-.3 0-.1 0-.2 0-.3-.2-1.2-.1-2.4-.1-3.6 0-3-3.1-5.3-5.9-5.1-3.2.2-5.1 2.9-5.1 5.9 0 4.5.7 8.3 3.9 11.7 2 2.2 5.9 1.6 7.8-.5C347.8 259.8 347.3 256.8 345.5 254.7zM366.8 254.7c-.2-.5-.3-1-.4-1.5.1.2-.2-1.2-.2-1.4-.1-1.2-.1-2.5-.1-3.8 0-3-3.1-5.3-5.9-5.1-3.2.2-5.1 2.9-5.1 5.9 0 3.2.3 6.3 1.3 9.4.9 2.9 4.2 4.3 7 3.4C366.3 260.7 367.7 257.5 366.8 254.7zM387.2 252.4c-.2-.3-.3-.4-.3-.5 0-.1-.1-.2-.2-.5-.1-.3-.2-.7-.3-1 0-.1 0-.2-.1-.4-.2-1.3-.2-2.6-.2-3.9 0-3-3.1-5.3-5.9-5.1-3.2.2-5.1 2.9-5.1 5.9 0 4.2.7 8 2.9 11.7 1.6 2.5 5.2 3.1 7.6 1.5C388.2 258.3 388.7 254.9 387.2 252.4zM408.8 252.7c-.1-.2-.4-1.2-.4-1.1-.1-.5-.1-1.1-.2-1.6-.1-1.6-.1-3.3-.1-4.9 0-3-3.1-5.3-5.9-5.1-3.2.2-5.1 2.9-5.1 5.9 0 3.4-.1 7.2 1.3 10.4 1.2 2.7 4 4.4 7 3.4C408.1 258.7 410 255.4 408.8 252.7zM427.8 252.7c-.7-2.2-.7-5-.7-7.6 0-3-3.1-5.3-5.9-5.1-3.2.2-5.1 2.9-5.1 5.9 0 3.6.2 7 1.3 10.4.9 2.9 4.3 4.3 7 3.4C427.3 258.7 428.7 255.5 427.8 252.7z"/><path fill="#010101" d="M480.1,264.1c-0.5-5.9-8.3-6.3-10.5-2.1h-0.4c-1.5,0-2.7,0.5-3.5,1.3c-1.3,0.3-2.6,0.7-3.9,1.1c0.2-0.7,0.3-1.5,0.3-2.3c-0.9-9.8-3.2-19.8-9.9-27.3c-6-6.7-14.7-9.7-23.5-10.5c-5.7-0.6-11.3,0-17,0.1c-4.9,0.1-9.7-0.3-14.5-1.1c-0.9-1.8-2.6-3.2-5.1-3.3c-2.6-0.1-5.2,0-7.7,0.1c-3.4-1.3-6.5-3-9.3-5.9c-3.8-3.9-6.7-8.5-10.8-12.1c-0.6-0.5-1.1-0.9-1.7-1.4c0.1-0.6,0.2-1.3,0.4-1.9c0-0.2,0.4-1.3,0.5-1.6c2.1-1.4,3.2-3.9,2.3-6.4c-0.3-0.9-0.9-1.7-1.6-2.3c4.9-13.1,10.3-26.2,14-39.6c2.3-8.2,4.7-16.4,5.9-24.8c0.3,0,0.6,0,0.9,0c6.8,0.3,6.2-9.9-0.1-10.9c-0.2-7.3-2.1-14.6-8.6-18.8c-7.4-4.8-18.9-4.3-27.3-4.3c-8.5,0-18.5-0.2-26.2,3.7c-9.2,4.6-14.2,13.7-17.7,23c-2.9,7.6-5.7,15-9.3,22.3c-3.2,6.4-7.9,14-8.1,21.3c0,0.2,0,0.4,0,0.6c-0.4,0-0.8,0-1.3,0.1c-12.4,0.5-24.8,0.1-37.2,0.1c-9.7,0-19.1-0.7-28.8-1.1c-8.4-0.3-17.2,0.4-24.5,5c-5.1,3.2-8.5,9.3-11.6,14.2c-2.2,3.4-5.5,8.4-5.3,12.8c-5.4-0.5-10.8-1-16.2-1.2c-3.7-0.2-7.4-0.2-11.2-0.1c-3.4,0.1-7.9-0.4-10.7,1.9c-7.3,5.8-18.8,13.1-18.8,23.6c-9.5-1.3-19-1.5-28.8-1.4c-13.4,0.1-26.8,0.6-40.2,0.8c-10.1,0.2-22.6-0.2-31.1,6.2c-1.4,0.5-2.9,1.1-4.2,1.7c-0.6,0.3-1.2,0.7-1.7,1.1c-2.3-0.8-5.1-0.3-6.5,2.7c-2.1,4.6,1.1,9.6,3.2,13.5c3.2,6,7,11.8,10.5,17.6c9.7,15.6,17.2,33,25.4,50.1c10.3,21.6,18.3,43.9,30.2,64.7c3.1,5.4,6.8,10.3,10.2,15.4c2.1,3.1,8.9,12.3,7.4,15.7c-1.8,4.3,1.8,7.9,5.3,8c57.8,18.1,119.5,18.1,179.4,13.6c31.5-2.4,62.6-7.8,93.6-13.5c15.3-2.8,30.5-5.5,45.9-7.5c13.2-1.7,26.6-3.9,36.4-13.6c6.4-6.4,10.1-15.3,12.8-23.8c1.3-3.9,2.5-7.8,3.6-11.7c1.3-1.2,1.7-2.9,1.3-4.6c1.5-5.6,2.7-11.3,3.7-17.1C482.4,310.8,482.1,287.2,480.1,264.1z M324.8,105.2c5.7-4.6,14.5-4,21.5-4.2c7.4-0.2,15.9-0.6,23,2c3.8,1.4,4.9,5.5,5,9.9c-19.1,0.2-38,2.8-57.1,3.1C319,111.9,321.3,108,324.8,105.2z M299,158.4c0.3-1.1,0.8-2.2,1.3-3.3c1.5-3.5,3.1-7,4.8-10.4c3-6.1,5.7-12,8-18.4c0.8,0.4,1.7,0.7,2.9,0.7c19.1-0.1,38-2.7,57-3.1c-3.5,22.1-12.9,43.3-20.4,64.1c-0.7,2-0.3,3.8,0.7,5.2c-0.4,1.1-0.7,2.2-0.9,3.3c-4.4-0.7-9-0.6-13.5-0.3c-1.7-14.5-5.8-31.4-22-34.8c-5.9-1.2-11.9-1.4-18-1.2c0-0.4,0-0.8-0.1-1.1C298.9,158.9,298.9,158.6,299,158.4z M190.3,190.9c0.5-1.1,1.1-2.2,1.7-3.3c1.3-2.3,2.7-4.5,4.1-6.7c2.7-3.9,5.2-7.1,9.9-8.8c6.4-2.2,13.9-1.4,20.5-1c8.5,0.6,17,0.8,25.6,0.8c10.4,0,20.8,0.1,31.2,0c8.6-0.1,17.1-1.1,25.7-0.5c7.1,0.5,11.8,1.7,14.8,8.4c0.8,1.6,1.4,3.3,1.9,5.1c-1.3-1-3-1.3-4.8-0.7c-2.6,0.9-4.6,4.3-3.4,7c0.2,0.4,0.4,0.8,0.5,1.3c0,0,0,0.1,0,0.1c0,0.1,0,0.1,0,0.2c0.1,1,0.1,2,0.1,3c0,0.4,0.1,0.9,0.2,1.3c-2.1,0-4.2,0-6.3,0c0.1-0.8,0.1-1.7-0.2-2.6c-0.4-1.3-0.9-2.5-1.3-3.8c0-0.1-0.2-0.8-0.3-1c-0.1-0.6-0.1-1.3-0.2-1.9c-0.1-3-3-5.3-5.9-5.1c-3.1,0.2-5.1,2.9-5.1,5.9c0.1,2.9,1,5.6,1.9,8.3c-2,0-4.1,0-6.1-0.1c-0.1-0.6-0.4-1.1-0.7-1.7c-1.3-2.2-1.1-5.6-1.1-8.3c0-3-3.1-5.3-5.9-5.1c-3.2,0.2-5.1,2.9-5.1,5.9c0,3.1,0.2,6.2,1,9.1c-0.2,0-0.4,0-0.5,0c-2.2,0-4.4,0-6.7-0.1c0.3-1,0.3-2.1-0.1-3.2c-1-3-1.6-5.5-1.7-8.6c-0.1-3-3-5.3-5.9-5.1c-3.1,0.2-5.1,2.9-5.1,5.9c0.1,3.7,1,7.4,2.1,10.9c-2.9,0-5.8-0.1-8.7-0.1c0.3-0.8,0.5-1.7,0.5-2.6v-9c0-3-3.1-5.3-5.9-5.1c-3.2,0.2-5.1,2.9-5.1,5.9v9c0,0.5,0.1,1,0.3,1.5c-1.1,0-2.3-0.1-3.4-0.1c0.1-0.9,0.1-1.8-0.2-2.7c-0.7-2.2-0.7-5-0.7-7.6c0-3-3.1-5.3-5.9-5.1c-3.2,0.2-5.1,2.9-5.1,5.9c0,3.1,0.2,6.1,0.9,9.1c-1.7-0.1-3.5-0.1-5.2-0.2c0,0,0-0.1,0-0.1c-0.8-3.3-1.6-5.4-1.7-8.6c-0.1-3-3-5.3-5.9-5.1c-3.1,0.2-5.1,2.9-5.1,5.9c0,2.4,0.6,4.8,1.2,7.2c-1.6-0.1-3.1-0.2-4.7-0.3c-0.6-2.9-0.5-5.9-0.5-8.8c0-3-3.1-5.3-5.9-5.1c-3.2,0.2-5.1,2.9-5.1,5.9c0,2.4,0.1,4.7,0.4,7.1c-3.2-0.3-6.3-0.6-9.5-0.9c0.1-0.5,0.1-1,0-1.5C190.1,191.4,190.1,191.2,190.3,190.9z M133.1,216.1c-0.2-3.5,5.4-7.6,7.7-9.6c1.8-1.5,3.6-2.9,5.4-4.3c1.6-1.2,7.1-0.6,9.8-0.6c15.8-0.1,31.4,2.6,47.1,3.9c31.5,2.6,63.5,2.6,95.1,2.6c14.6,0,29,0,43.6-0.8c6-0.3,11.6-0.1,16.2,4c0.4,0.3,0.7,0.7,1.1,1c-0.2,0.3-0.4,0.6-0.6,1c-0.9-2-3.3-3.4-5.5-3.2c-3.2,0.2-5.1,2.9-5.1,5.9c0,2.5,0.2,5.1,1.3,7.4c0.3,0.7,0.8,1.3,1.3,1.9c-1.6,0.3-3.2,0.6-4.8,0.9c0.5-1.8-0.1-3.8-1.4-5.4c0,0,0,0,0-0.1c0.3,0.2-0.1-0.4-0.1-0.4c0-0.1-0.1-0.2-0.1-0.3c0-0.1,0-0.2,0-0.3c-0.2-1.2-0.1-2.4-0.1-3.6c0-3-3.1-5.3-5.9-5.1c-3.2,0.2-5.1,2.9-5.1,5.9c0,4,0.6,7.5,3,10.6c-3.4,0.4-6.7,0.8-10.1,1.1c0.3-1.4,0-2.9-0.8-4.2c-1.1-1.8-1.1-4.6-1.1-7.3c0-3-3.1-5.3-5.9-5.1c-3.2,0.2-5.1,2.9-5.1,5.9c0,3.9,0.4,7.6,2.1,11.1c-2.3,0-4.7,0-7.1,0c-0.1-1.4-0.7-2.8-1.8-3.7c-0.1-0.1-0.2-0.1-0.3-0.2c-0.1-0.1-0.3-0.4-0.5-0.6c0,0,0,0,0-0.1c-0.2-0.4-0.3-0.9-0.4-1.4c0.2,0.9,0.2-0.1,0.2-0.6c3.6-5.3-4.2-11.8-8.7-6.7c-3,3.4-3.1,9-1.1,13.2c-2.6,0-5.2-0.1-7.8-0.3c-0.8-3.2-1.4-6.4-1.5-9.8c-0.1-3-3.1-5.3-5.9-5.1c-3.1,0.2-5.1,2.9-5.1,5.9c0,2.6,0.4,5.1,0.9,7.6c-0.3-0.1-0.6-0.1-0.9-0.2c-1.8-0.4-3.7-0.8-5.6-1.2c-0.1-0.3-0.2-0.5-0.4-0.8c-0.2-0.3-0.3-0.4-0.3-0.5c0-0.1-0.1-0.2-0.2-0.5c-0.1-0.3-0.2-0.7-0.3-1c0-0.1,0-0.2-0.1-0.4c-0.2-1.3-0.2-2.6-0.2-3.9c0-3-3.1-5.3-5.9-5.1c-3.2,0.2-5.1,2.9-5.1,5.9c0,1.5,0.1,3,0.3,4.5c-4-0.2-8,0.3-11.7,1.9c-6.4,2.8-2.9,13.2,3.6,10.4c8.2-3.6,18.8,0.7,27.1,2.1c12.8,2.1,26.7,1.2,39.7,1.2c13.1,0,25.5-1.8,38.3-4.4c9.2-1.8,18.4-3.6,27.7-4.3c7.2,2.5,15.3,3.4,22.2,3.9c10.8,0.7,22.2-2,32.5,2.1c3.3,1.3,5.9,3.3,7.8,5.8c-0.2,0-0.3,0-0.5,0c-2,0.2-3.5,1.2-4.3,2.8c-0.7-2.3-3.3-4-5.7-3.8c-3.2,0.2-5.1,2.9-5.1,5.9c0,4.5,0.7,8.3,3.9,11.7c2,2.2,5.9,1.6,7.8-0.5c0.2-0.2,0.4-0.5,0.5-0.7c2.2,1,4.8,0.5,6.5-1.3c1-1.1,1.5-2.3,1.9-3.6c0.8,3.1,1.2,6.3,1.5,9.4c0.2,2,1.2,3.4,2.6,4.2c-8.6,3.1-16.9,6.9-25.1,10.8c-13.8,6.5-28.8,10.2-43.4,14.7c-28.7,9-58.6,12.7-88.7,11.6c-25.9-0.9-50.9-6.3-72.1-21.9c-9.7-7.1-18.2-15.8-26.2-24.8c-8.3-9.3-18.2-17.3-28.7-24c-10.2-6.6-21.5-11.2-33.1-14.5c-1.2-0.3-2.3-0.6-3.5-0.9C133,217.5,133.1,216.8,133.1,216.1z M443.5,388c-5.7,3.4-13.5,4.2-19.9,5.2c-7.6,1.1-15.3,1.8-22.9,3.1c-31.6,5.2-62.9,11.8-94.7,15.9c-30,3.9-60.7,5.1-90.9,4.8c-36.2-0.3-72.6-4.4-107.4-14.8c-0.3-5.4-3-11-6.3-16.2c0.8-0.1,1.6-0.5,2.4-1.1c2-1.6,9.5,1.3,11.9,1.9c6.4,1.6,12.9,3,19.5,4.1c15,2.5,30.2,3.6,45.4,4.5c31.4,1.8,62.7,0.4,94-2.9c32-3.4,63.8-8,95.5-13.2c15.7-2.6,31.5-5.3,47.2-8.3c14.5-2.8,28.6-7.5,42.9-11.5c0.4-0.1,0.9-0.2,1.3-0.4C457.9,370.2,453.7,381.8,443.5,388z M464.7,347c-13.3,3.2-26.2,7.6-39.5,11c-15.3,3.9-31.1,6.1-46.6,8.8c-31.7,5.4-63.4,10.1-95.4,13.8c-31.4,3.6-62.6,5.5-94.2,4.4c-15.5-0.6-31.1-1.8-46.4-3.9c-7-1-14-2.3-20.9-4c-4.9-1.2-9.9-2.6-15-3.1c-3.2-0.3-6.5-0.1-9.2,1.9c-0.8,0.6-1.4,1.4-1.8,2.2c-1.3-1.7-2.5-3.4-3.5-4.8c-12.4-17.9-19.4-38.7-28.2-58.3c-4.8-10.8-10.2-21.5-15.4-32.1c-3.8-7.8-7.2-15.9-11.5-23.4c-3.3-5.8-6.9-11.3-10.4-17c-1.8-2.9-3.5-5.8-5.1-8.8l0,0c1.1-0.5,2.2-1,3.3-1.4c0.7-0.1,1.4-0.3,2.2-0.8c0.8-0.3,1.5-0.5,2.3-0.8c1.2-0.4,2.1-1.2,2.8-2.2c7.7-3.1,17.9-2,25.5-2.2c14-0.4,28-0.7,42-0.7c26.2,0,50.9,7,72.1,22.8c10.2,7.6,18.5,17.1,27.3,26.2c8.2,8.4,17.3,15.9,27.2,22.2c22.3,14.2,48.6,17.7,74.6,18.5c29.7,0.9,59.6-3.4,87.9-12.3c14.6-4.6,29.4-8.4,43.4-14.7c12.4-5.6,24.5-11.3,37.6-14.7C471.4,298.2,470.4,323,464.7,347z"/><path fill="#010101" d="M181.2 216c-3.2.2-5.1 2.9-5.1 5.9v5c0 3 3.1 5.3 5.9 5.1 3.2-.2 5.1-2.9 5.1-5.9v-5C187.1 218.1 184 215.8 181.2 216zM210.2 228.4c0 0-.5-.8-.6-1-.1-.4-.3-1-.4-1-.2-1.1-.1-2.2-.1-3.3 0-3-3.1-5.3-5.9-5.1-3.2.2-5.1 2.9-5.1 5.9 0 3.9.8 7.3 2.9 10.7 1.6 2.5 5.2 3.1 7.6 1.5C211.2 234.3 211.8 230.9 210.2 228.4zM230.2 217c-3.2.2-5.1 2.9-5.1 5.9v8c0 3 3.1 5.3 5.9 5.1 3.2-.2 5.1-2.9 5.1-5.9v-8C236.1 219.1 233 216.8 230.2 217zM136.5 73.8c-8.2 8.5-11.1 19-13 30-11.2-5.1-29.2-9.8-28.3 2.1.4 5.1 6.3 6.1 9.3 3.5.4.1.7.1 1.1.2 2.6.4 5.2 1.2 7.7 2 3.5 1.1 8.3 2.7 10.8 5 3 2.7 8.4 1 9-3.1 1.8-11.8 3.1-23.4 11.7-32.4C149.7 76 141.4 68.7 136.5 73.8z"/></svg>