<svg xmlns="http://www.w3.org/2000/svg"  viewBox="0 0 48 48" width="64px" height="64px"><path fill="#ed2224" d="M24.739,37.015c-6.851-0.28-13.394-0.667-17.228-2.781c-2.855-1.574-3.946-4.476-3.946-7.029	l-0.032-6.248c2-4,3.542-4.067,5.873-4.093c1.822-0.021,2.524-0.027,5.595,0.412c16.149-3.213,12.903-4.52,18.755-4.52	c4,0,8.989-0.267,11.245,7.279l-0.294,5.901C44.706,30.954,44.176,37.809,24.739,37.015z"/><path fill="#fcbf95" d="M44.299,17.851c-0.971-2.536-3.546-4.179-6.198-4.763c-2.252-0.496-4.58-0.352-6.883-0.111	c-0.771,0.081-1.524,0.25-2.255,0.508c-3.024,1.068-11.982,4.033-17.089,3.588c-1.303-0.113-2.612-0.308-3.913-0.178	c-2.149,0.215-4.371,1.45-4.189,4.392c0.05,0.81,0.311,1.605,0.744,2.292c1.328,2.109,3.667,3.118,5.944,3.935	c7.679,2.755,16.084,4.142,24.029,2.289c2.852-0.665,5.697-1.798,7.74-3.897C44.271,23.808,45.346,20.586,44.299,17.851z M34.984,14.873c1.036-0.021,2.03,0.058,2.697,0.339c1.704,0.719,2.982,1.636,3.673,3.132l-9.321,2.383l2.405-5.827	C34.62,14.892,34.802,14.877,34.984,14.873z M39.964,25.133c-1.287,1.137-3.031,1.647-4.731,2.032	c-7.083,1.604-13.894,1.068-20.978-0.527c-0.522-0.118-1.075-0.235-1.634-0.358c1.582-1.097,5.892-1.966,9.262-1.483l-2.809-2.595	c-3.725-0.143-7.967,1.02-10.131,2.979c-1.159-0.505-2.164-1.184-2.781-2.197c-0.824-1.353-0.883-2.754,0.337-3.794	c1.146-0.977,2.886-0.748,4.405-0.562c6.544,0.804,12.787,0.14,18.583-2.696c0.777-0.38,1.596-0.662,2.452-0.786	c0.239-0.035,0.5-0.07,0.776-0.103l-6.269,8.052l0.93,0.766l3.12-1.378c3.143,1.014,7.292-0.224,11.378-1.541	C41.824,22.515,41.167,24.071,39.964,25.133z"/><path fill="#010101" d="M45.251,22.6c-0.024-0.739-0.047-1.455-0.045-2.12c0-0.052-0.015-0.1-0.029-0.148	c0.028-0.92-0.091-1.826-0.41-2.66c-0.95-2.481-3.401-4.377-6.558-5.072c-2.191-0.483-4.4-0.397-7.042-0.12	c-0.81,0.085-1.607,0.265-2.369,0.534c-2.681,0.947-11.822,3.997-16.879,3.562l-0.769-0.073c-1.054-0.105-2.144-0.213-3.237-0.104	c-2.182,0.218-4.434,1.437-4.63,4.166c-0.003,0.013-0.011,0.023-0.013,0.036c-0.262,1.618-0.539,3.916-0.371,5.678	c0.166,1.749,1.508,5.421,2.654,6.78c2.573,3.052,11.957,4.461,20.546,4.461c5.482,0,10.642-0.575,13.499-1.663	c2.349-0.895,4.246-3.241,5.205-6.438C45.406,27.401,45.324,24.85,45.251,22.6z M8.011,17.394c0.291-0.029,0.582-0.042,0.874-0.042	c0.707,0,1.421,0.071,2.165,0.146l0.781,0.074c5.117,0.446,13.802-2.38,17.299-3.615c0.688-0.243,1.408-0.405,2.141-0.482	c2.545-0.267,4.662-0.352,6.723,0.102c2.785,0.613,5.022,2.319,5.839,4.453c0.906,2.367,0.118,5.393-1.962,7.529	c-1.703,1.75-4.154,2.979-7.495,3.759c-7.001,1.632-14.991,0.868-23.746-2.273c-2.088-0.749-4.422-1.716-5.69-3.73	c-0.392-0.622-0.623-1.333-0.667-2.056C4.072,18.04,7.083,17.487,8.011,17.394z M43.843,29.132c-0.869,2.896-2.546,5.007-4.603,5.79	c-7.624,2.905-29.251,1.847-32.924-2.508c-0.998-1.183-2.276-4.668-2.424-6.23c-0.076-0.805-0.047-1.748,0.025-2.658	c0.058,0.107,0.11,0.218,0.175,0.321c1.438,2.284,3.954,3.334,6.199,4.139c5.878,2.109,11.428,3.167,16.585,3.167	c2.685,0,5.264-0.287,7.727-0.861c3.532-0.824,6.144-2.144,7.984-4.035c0.712-0.731,1.27-1.563,1.698-2.437	C44.329,25.667,44.302,27.602,43.843,29.132z"/><path fill="#010101" d="M31.602,20.981c0.12,0.206,0.359,0.423,0.829,0.423c0.111,0,0.236-0.012,0.375-0.04 c2.969-0.591,5.9-1.458,8.711-2.577c0.009-0.004,0.015-0.011,0.024-0.016c0.007-0.003,0.015-0.002,0.023-0.005 c0.043-0.02,0.076-0.052,0.111-0.082c0.003-0.003,0.007-0.005,0.01-0.008c0.157-0.144,0.215-0.373,0.12-0.576 c-0.682-1.459-1.894-2.492-3.929-3.35c-0.653-0.276-1.486-0.22-2.364-0.16c-0.264,0.018-0.534,0.036-0.805,0.046 c-0.257,0.009-0.506,0.516-0.515,0.547c-0.454,1.651-1.265,3.228-2.345,4.559C31.473,20.205,31.391,20.621,31.602,20.981z M32.623,20.375c1.13-1.392,1.979-3.035,2.477-4.758c0.16-0.009,0.322-0.016,0.479-0.027c0.759-0.05,1.475-0.099,1.908,0.083 c1.547,0.652,2.541,1.398,3.15,2.375c-2.597,1-5.29,1.79-8.02,2.334C32.619,20.38,32.621,20.378,32.623,20.375z"/><path fill="#010101" d="M41.901,20.615c-0.023-0.001-0.043,0.008-0.065,0.011c-0.07-0.013-0.142-0.015-0.215,0.003 c-3.199,0.804-6.509,1.634-9.823,1.336l-0.109-0.01c-0.406-0.038-0.868-0.081-1.327,0.047c-0.312,0.087-0.582,0.243-0.82,0.38 l-2.414,1.393c-0.239,0.138-0.322,0.443-0.184,0.683c0.092,0.161,0.261,0.25,0.434,0.25c0.084,0,0.17-0.021,0.249-0.067 l2.415-1.393c0.205-0.118,0.399-0.229,0.59-0.283c0.28-0.08,0.613-0.048,0.964-0.015l0.112,0.011 c3.269,0.299,6.583-0.468,9.561-1.214c-0.214,1.176-0.777,2.253-1.635,3.012c-1.201,1.061-2.877,1.549-4.51,1.919 c-6.266,1.419-12.862,1.251-20.758-0.527l-0.246-0.053c0.826-0.342,1.709-0.534,2.749-0.571c1.082-0.038,1.803-0.077,2.524-0.115 c0.716-0.038,1.433-0.076,2.507-0.115c0.276-0.01,0.492-0.241,0.482-0.517c-0.009-0.276-0.262-0.51-0.517-0.482 c-1.082,0.038-1.804,0.077-2.525,0.115c-0.716,0.038-1.433,0.076-2.506,0.115c-1.744,0.062-3.115,0.476-4.448,1.345 c-0.165,0.108-0.257,0.329-0.216,0.521c0.038,0.181,0.199,0.347,0.382,0.387l1.594,0.347c4.452,1.003,8.502,1.502,12.319,1.502 c3.083,0,6.013-0.326,8.879-0.975c1.763-0.399,3.582-0.936,4.951-2.146c1.217-1.075,1.973-2.666,2.075-4.364 C42.387,20.868,42.177,20.631,41.901,20.615z"/><path fill="#010101" d="M19.074,22.349c0.271,0.035,0.5-0.223,0.501-0.499c0-0.285-0.271-0.508-0.521-0.501 c-3.241,0-6.952,1.178-10.234,3.228c-1.034-0.5-1.774-1.105-2.229-1.853c-0.541-0.887-0.938-2.154,0.234-3.154 c0.963-0.823,2.555-0.627,4.02-0.446c7.127,0.875,13.299-0.021,18.864-2.742c0.442-0.216,1.244-0.341,1.955-0.432 c-1.582,2.311-4.111,5.194-5.952,6.438c-0.229,0.154-0.289,0.465-0.134,0.694c0.097,0.143,0.254,0.22,0.415,0.22 c0.096,0,0.194-0.028,0.28-0.086c2.393-1.618,5.502-5.475,6.826-7.637c0.012-0.02,0.023-0.041,0.031-0.063 c0.062-0.152,0.042-0.344-0.048-0.477c-0.099-0.147-0.303-0.247-0.482-0.217c-0.178,0.025-0.385,0.051-0.61,0.078 c-0.905,0.109-2.032,0.246-2.721,0.583c-5.384,2.634-11.37,3.499-18.361,2.641c-1.529-0.188-3.433-0.422-4.731,0.685 c-1.314,1.12-1.474,2.736-0.44,4.435c0.593,0.974,1.532,1.739,2.871,2.346c0.047,0.024,0.097,0.042,0.149,0.051 c0.102,0.017,0.266-0.016,0.353-0.072C12.247,23.552,15.963,22.349,19.074,22.349z"/><path fill="#373837" d="M7.258,3.859c12.168,12.694,24.749,25.207,36.918,37.901c-0.06,0.69-2.062,2.467-2.639,2.639	C28.761,32.967,17.6,19.572,5.957,6.988C5.659,6.666,5.346,6.311,5.303,5.874S7.258,3.859,7.258,3.859z"/><path fill="#010101" d="M41.537,44.9c-0.122,0-0.241-0.044-0.333-0.127C31.78,36.34,23.12,26.716,14.745,17.409	c-2.991-3.324-6.083-6.761-9.155-10.081C5.302,7.016,4.866,6.545,4.805,5.923c-0.021-0.212-0.07-0.709,2.143-2.456	c0.203-0.158,0.493-0.139,0.671,0.046c6.082,6.345,12.372,12.751,18.455,18.947c6.084,6.197,12.376,12.605,18.463,18.955	c0.1,0.104,0.15,0.246,0.137,0.39c-0.087,0.995-2.349,2.881-2.994,3.074C41.633,44.893,41.584,44.9,41.537,44.9z M5.813,5.899	c0.056,0.241,0.266,0.483,0.511,0.75c3.076,3.325,6.171,6.764,9.165,10.091c8.283,9.205,16.846,18.721,26.133,27.064	c0.571-0.361,1.679-1.403,1.982-1.918C37.587,35.613,31.372,29.284,25.36,23.16C19.381,17.071,13.203,10.778,7.215,4.538	C6.585,5.062,5.963,5.648,5.813,5.899z M5.789,5.945C5.789,5.946,5.789,5.946,5.789,5.945C5.789,5.946,5.789,5.946,5.789,5.945z"/></svg>