<svg xmlns="http://www.w3.org/2000/svg"  viewBox="0 0 512 512" width="64px" height="64px"><path fill="#FCBF95" d="M304.1,192c-6.1-6.3-14.5-9.8-23-11.8c-22.6-5.1-43.7,2.7-62.9,14.8c-10.2,6.5-21.3,14-27.4,24.8c-6,10.7-6.1,21.3,3.4,29.8c0.4-0.5,0.9-0.9,1.5-1.2c4.2-2.4,5.8-7.4,8.2-11.4c3-5,8.1-8.9,12.9-12.1c10-6.7,21.1-11.1,32.6-14.5c17.7-5.3,41.1-11,56.6,2.2C309.2,205.7,309.9,197.9,304.1,192z"/><path fill="#74CCCF" d="M347.2 203.5c-3.3-3-8.7-3-13-3-1 0-1.9-.2-2.6-.6-2 .4-4.2 1.2-4 2.6.2 1 1.3 2 1.9 2.7-.5-.5-.4-.5.1 0 2.3 2.1 4.8 4 7.3 5.9 2 1.5 4.1 3.2 6.3 4.5 0 0 0 0 0 0 .8-.2 1.6-.6 2.3-1.1 1.4-.9 2.7-1.9 3.9-3C349.5 208.4 349.1 205.2 347.2 203.5zM355.6 247.5c.9 7.4 1.5 14.4.1 21.5 1.9.2 3.9.1 5.8-.2.2-7 .7-13.9.8-20.9C360.1 247.6 357.8 247.6 355.6 247.5zM124.3 302.2c-1-2.1-2.8-4.7-4.9-5.8-1.8-1-3.6-1.4-5.2-1.3-.3.5-.6 1.1-1.2 1.5-2.2 2-4.5 3.8-6.8 5.7-.6.5-1.3 1.1-1.8 1.7.1.1.4.2.9.3 5.6 1.2 12.3 1.5 17.7-.6.2-.1 1.1-.3 1.6-.6C124.5 302.9 124.5 302.5 124.3 302.2zM354.8 134.6c-2.1-1.5-7.2-.1-8.9 2.3.1.1.3.1.4.2 2.1 1.4 5.7 2.8 8.2 1.3C355.9 137.5 356.5 135.8 354.8 134.6zM213.8 126.7c0 .4 0 0 0-.4-1.1-.2-2.2-.2-3.3.2-1.9.7-4.3 1.8-4.2 4.2 0 .3 0 .6 0 .8 1.8 1 3.7 1.7 4.9 1.3C213.1 132 214 128.8 213.8 126.7zM381.4 167.9c-2 0-4.1-.1-6.1.2-.7 6.1.1 12.4-.8 18.5.6.1 1.2.3 1.8.6 5.3 2.6 7.1-1.1 8.3-6.2 1-4.2 1.5-8.5 1.7-12.8C384.6 168 383 167.9 381.4 167.9zM382.4 89.9c-3.6-5.4-9.2-6-15.1-3.6-2 .8-7.2 3.4-7.3 6.2 2.7-1.2 6.4-.7 8 2.7C371.1 101.6 387.3 97.3 382.4 89.9zM370.5 88.8c-1.1-.3-2.1-.7-3.2-1 .6-.7 1.2-1.4 1.8-2 .3.3.5.6.8 1 .4.6.7 1.2.9 1.8C370.8 88.7 370.7 88.7 370.5 88.8z"/><path fill="#FCBF95" d="M406.3,107.5c-4.1-3.3-8.5-6.3-13-8.9c-5.3,11.1-25.9,14.6-34.2,2.6c-2.3,1.7-5.7,1.9-7.8-1.2c-3.7-5.7-2.5-11.3,0.9-15.9c-4.8-0.9-9.6-1.6-14.4-2.1c-26.9-3-54.5-1-81,4.2C203.1,97,151.3,123,110.9,160c-19.8,18.1-36.7,39.2-49.6,62.8c-11.9,21.7-21,46.2-17.9,71.2c1.2,0.5,2.1,1.6,2.6,3.2c4,13.8,14.6,24.6,25.7,33.2c11.5,8.9,24.4,16.3,37.8,21.9c31.3,13.2,70,14,102.4,4.5c6.8-2,10.4,8.4,3.6,10.4c-28.7,8.4-61.8,9.5-91.4,1.7c3.6,3.3,6.8,6.9,9.1,11.4c4.7,9.2,7.7,21.1,19.6,23.1c13.8,2.3,20.7-10.1,31.3-15.9c10.3-5.7,21.1-4.9,32-1.3c21.7,7.1,43.4,27.4,67.1,16c11.2-5.3,17.2-16.7,25.2-25.6c8.5-9.4,17.9-14.7,30.8-14.5c6.9,0.1,13.8,1.1,20.8,0.1c6.9-1,13.7-3,20-6.1c4.3-2.1,11.6-5.2,11.5-11c0-1.8-0.1-3.6-0.2-5.3c-5.4,3.8-11,7.4-16.6,10.8c-6.1,3.7-12.2-5.4-6.1-9.1c40.3-24.3,78.9-60.7,84.8-109.8C459,187.3,441.6,136.1,406.3,107.5z M130.8,312.2c-4.8,2.8-10.5,3.9-16,4c-5.1,0-12.2,0.2-16.5-3c-4.6-3.4-6.7-8.4-4-13.7c0.8-1.6,2-2.9,3.3-4.1c0.1-0.2,0.2-0.5,0.4-0.8c6.4-9.9,18.5-14.5,28.6-6.6C133.1,293.1,141,306.2,130.8,312.2z M138,238.7c-4,4.4-5.4,10.3-9,15c-3.1,4.1-6.6,5.1-11.3,6.6c-4.3,1.4-7.3-2.3-7.2-5.7c-0.8-0.6-1.4-1.4-1.8-2.6c-3.3-10.6,0-20.7,5.5-29.7c-7.7,10-19.5,17.8-31.7,9.8c-3.2-2.1-3.2-6.1-1.5-8.6c-0.9-0.5-1.7-1.4-2.2-2.5c-4.1-8.9,6.8-16.1,13.5-19.2c9.7-4.5,15.9,1.4,21,9c2.6,1.1,4.6,4.4,3.5,7.6c0.7-1,1.3-1.9,2-2.8c3.1-4.3,8.8-0.9,9.6,3.2c1,5.3,5.1,9,9.1,12.3C139.8,232.8,139.9,236.5,138,238.7z M364,128.3c4.3,5.7,3.6,14.9-2.8,18.8c-6,3.7-14,3.7-19.8-0.2c-1.1-0.7-1.9-1.6-2.5-2.6c-2.3-0.3-4.4-1.8-4.6-4.9C333.7,125.3,355.2,116.7,364,128.3z M293.7,106.4c3.1-3.1,7.5-2,9.3,1.8c3.5,7.4,19.3,20.8,7.5,28.7c-6.6,4.4-23.1,7.2-26.9-2.1c-0.3-0.7-0.4-1.3-0.4-2c-2.2-0.9-4-3-3.8-5.9C280,118.1,287.9,112.1,293.7,106.4z M195.4,129.1c0.7-6.4,5.8-11.9,12.2-13.3c7.2-1.6,15.5-0.1,17,8.3c1.1,6.8-2,16-8.9,18.6c-7.2,2.7-14.8-1.5-20.5-5.6C191.9,134.8,192.9,131.1,195.4,129.1z M245.7,342.2c-5.7,2.3-11.3,4.2-17.4,5.3c-2.2,0.4-5.1-1.5-5.6-3.7c-2-8.5-7.6-13.7-14.4-18.7c-5.1-3.7,0.1-10.6,5.4-9.2c0.5-0.2,1.2-0.4,1.8-0.4c13.4-1,29.3,6.1,33.6,19.7C250,338.2,248.5,341.1,245.7,342.2z M339.2,225.9c-4.6-2.1-8.9-5.9-12.9-9.1c-2.6-2.1-5.5-4.5-7.4-7.4c-4.2,20.5-26.4,34.6-44.1,42.4c-11.2,5-22.6,8.3-34.9,9.3c-15.6,1.3-31.2,0.4-46.8,0.3c-2.1,0-3.7-1-4.7-2.4c-0.5-0.2-0.9-0.5-1.4-0.9c-14.2-12.4-14.5-30.2-4.7-45.6c9.8-15.2,26.5-25.8,42.3-33.9c19.4-9.9,40.3-14.6,61.6-8.5c13.5,3.9,28.3,12.2,32.2,25.8c3-4.7,9.2-7.2,14.8-7.5c1.5-0.1,2.7,0.4,3.6,1.1c6.5,0.3,13.3,1.4,17.9,6.1c4.5,4.7,5.5,11.1,5.5,17.3c0.2,0.8,0.2,1.5,0,2.3c0,0.4,0,0.8-0.1,1.2c-0.1,2.7-1.2,4.5-3.7,5.6c-0.2,0.1-0.4,0.2-0.6,0.3c-0.9,0.4-1.9,0.4-2.9,0.2C348.9,225.8,343.9,228.1,339.2,225.9z M372.3,272.6c0,2.5-1.2,4.7-3.7,5.6c-7.2,2.6-15.1,2.3-22.3-0.3c-3-1.1-3.5-4.9-2.5-7.4c3.1-7.8,1.4-16.1,0.4-24.1c-0.4-3.2,1.7-5.2,4.2-5.6c0.3-2.3,1.8-4.3,4.9-4.3c5.2,0,10.3,0.2,15.5,1.1c2.3,0.4,4.4,2.6,4.4,5C373.3,252.6,372.4,262.6,372.3,272.6z M393.5,188.8c-4.1,9.5-12.8,12.8-22.1,8.2c-2.1-1-3-2.8-3-4.6c-3-0.3-5.8-2.6-5-6.3c1.6-7.7-1.9-18.5,3-25.3c4.9-6.7,18.1-3.3,24.9-3.1c2.8,0.1,5.9,1.9,5.9,5.1C397.3,171.3,397,180.7,393.5,188.8z"/><path fill="#C56528" d="M464.8,230.6c-0.3,3.1-0.8,6.1-1.4,9.1c-7.1,38.1-31.5,68.6-61.3,92.1c0.1,0.4,0.1,0.8,0,1.3c-0.4,6.3,1.6,12.8-1,18.8c-3.1,7.4-10.6,11.4-17.5,14.6c-8.7,4-18.2,6.8-27.8,7.1c-8,0.2-16.1-1.5-24.1,0.1c-12,2.5-18.7,15.1-26,23.7c-7.9,9.4-17.9,16.7-30.3,18.7c-25.1,4.1-43.8-15.4-66.8-20.8c-5.5-1.3-11.2-2.1-16.5,0.3c-4.6,2.1-8.6,5.6-12.3,9c-9.2,8.3-22.9,13.3-34.8,7.7c-5.4-2.5-10.3-5.8-13.6-10.9c-2.8-4.4-4.6-9.2-6.8-13.9c-5.4-11.3-17.2-17.2-24.4-27.2c-13.6-6.2-26.7-13.9-38.1-23.4c-3.8-3.2-7.6-6.6-11.1-10.3c2.1,7.8,5,15.3,8.8,22.4c19.8,36.7,57.4,58.3,95.7,71.3c42.5,14.4,89.7,22.5,134.3,15.4c47.4-7.6,91-31.5,123.6-66.7c17.8-19.2,33.2-41.5,44.6-65.1C469.6,280.6,476,254.4,464.8,230.6z"/><path fill="#74CCCF" d="M227.4 328.2c1.7 2.3 3.1 4.7 4.2 7.4 1.5-.4 3-.9 4.5-1.4C233.9 331.4 230.8 329.4 227.4 328.2zM298.6 121.1c-.7-.9-1.3-1.7-1.9-2.6-2.9 2.7-5.6 5.8-6.3 9.4 1 .3 2 .8 2.7 1.7.2.1.6.1 1.2.1 1.6 0 3.2-.1 4.8-.3 1.4-.2 2.7-.5 4-1 .1 0 .2-.1.2-.1C302.6 125.7 300.1 123.1 298.6 121.1zM121.9 230.4c-3 5.5-4.8 11.5-2.9 17.6 1-.7 1.9-1.7 2.9-3.6 1.5-2.9 2.9-5.9 4.6-8.6C124.8 234.1 123.2 232.3 121.9 230.4zM95.8 212c-1.7.9-3.5 1.9-5 3.2-.6.5-1.5 1.2-1.9 1.9 0 0 .1.1.1.1 1 2.3.4 4.2-.9 5.4 6.5 3.7 11.9-.4 16.1-5.5C101.8 213.4 100.6 209.6 95.8 212z"/><path d="M370,86.8c-0.3-0.4-0.6-0.8-0.8-1c-0.7,0.6-1.3,1.3-1.8,2c1.1,0.3,2.1,0.6,3.2,1c0.1-0.1,0.2-0.1,0.3-0.2C370.7,88,370.4,87.4,370,86.8z"/><path d="M470.4,218c-1.2-2-3-2.6-4.7-2.4c0.1-38.1-15.1-77.3-40.3-105c-9.5-10.5-20.6-18.5-32.7-24.5c0,0,0-0.1-0.1-0.1c-5.5-11.1-17.1-14-28.2-10.2c-25.8-6.6-53.9-7-79.7-4.5c-54.2,5.2-106.1,25.5-150.7,56.5c-29.1,20.3-53.8,45.2-73.3,74.9c-18.5,28.2-34.4,63.5-27.4,98c0.4,1.9,1.6,3.3,3,4c1.8,21.4,8.3,41.9,20.1,60c11.1,17,26.5,30.6,43.4,41.6c35.2,23,77.8,34,118.9,40.3c48.2,7.4,97.1,0.1,140.5-22.2c44.9-23.1,78.9-61.4,103.3-104.9C480.2,287.9,490.8,250.6,470.4,218z M367.3,86.3c5.8-2.4,11.5-1.8,15.1,3.6c5,7.4-11.3,11.7-14.3,5.3c-1.6-3.4-5.4-3.9-8-2.7C360.1,89.7,365.2,87.1,367.3,86.3z M43.4,294c-3.2-25,6-49.5,17.9-71.2c12.9-23.6,29.9-44.7,49.6-62.8c40.4-37,92.2-63,145.9-73.7c26.6-5.3,54.1-7.2,81-4.2c4.8,0.5,9.6,1.2,14.4,2.1c-3.4,4.6-4.6,10.2-0.9,15.9c2,3.1,5.5,2.9,7.8,1.2c8.3,12,28.9,8.5,34.2-2.6c4.5,2.6,8.9,5.5,13,8.9c35.3,28.5,52.7,79.7,47.3,124.1c-5.9,49.1-44.6,85.5-84.8,109.8c-6.1,3.7,0.1,12.8,6.1,9.1c5.6-3.4,11.1-7,16.6-10.8c0.1,1.8,0.2,3.5,0.2,5.3c0,5.8-7.2,8.9-11.5,11c-6.3,3.1-13,5.1-20,6.1c-6.9,1-13.8,0-20.8-0.1c-12.9-0.1-22.3,5.2-30.8,14.5c-8,8.8-14,20.2-25.2,25.6c-23.8,11.3-45.4-8.9-67.1-16c-11-3.6-21.7-4.4-32,1.3c-10.6,5.8-17.5,18.2-31.3,15.9c-11.9-2-14.9-13.9-19.6-23.1c-2.3-4.5-5.6-8.1-9.1-11.4c29.6,7.8,62.7,6.7,91.4-1.7c6.8-2,3.2-12.4-3.6-10.4c-32.4,9.5-71.1,8.7-102.4-4.5c-13.4-5.7-26.3-13-37.8-21.9C60.7,321.8,50.1,311,46,297.2C45.6,295.6,44.6,294.5,43.4,294z M458.3,303.9c-11.5,23.6-26.8,45.8-44.6,65.1c-32.6,35.2-76.2,59.1-123.6,66.7c-44.6,7.1-91.8-1-134.3-15.4c-38.3-13-75.9-34.7-95.7-71.3c-3.8-7.1-6.7-14.6-8.8-22.4c3.5,3.7,7.2,7.1,11.1,10.3c11.5,9.5,24.6,17.2,38.1,23.4c7.1,10,18.9,15.9,24.4,27.2c2.2,4.7,4.1,9.5,6.8,13.9c3.2,5.2,8.2,8.4,13.6,10.9c11.9,5.6,25.6,0.6,34.8-7.7c3.7-3.4,7.6-6.9,12.3-9c5.3-2.4,11-1.5,16.5-0.3c23,5.4,41.7,24.9,66.8,20.8c12.4-2,22.4-9.3,30.3-18.7c7.3-8.7,14-21.3,26-23.7c7.9-1.6,16.1,0.1,24.1-0.1c9.6-0.3,19.1-3.1,27.8-7.1c6.9-3.2,14.4-7.3,17.5-14.6c2.6-6,0.5-12.5,1-18.8c0-0.4,0-0.9,0-1.3c29.8-23.4,54.1-54,61.3-92.1c0.6-3,1-6.1,1.4-9.1C476,254.4,469.6,280.6,458.3,303.9z"/><path d="M391.4 157.5c-6.8-.1-20-3.5-24.9 3.1-5 6.7-1.5 17.5-3 25.3-.8 3.8 2 6.1 5 6.3 0 1.8.9 3.6 3 4.6 9.3 4.6 18.1 1.3 22.1-8.2 3.5-8.1 3.8-17.5 3.8-26.2C397.3 159.4 394.2 157.6 391.4 157.5zM384.6 180.9c-1.2 5.1-3 8.8-8.3 6.2-.6-.3-1.2-.5-1.8-.6.9-6.1.1-12.4.8-18.5 2-.3 4.1-.2 6.1-.2 1.6 0 3.2.1 4.9.3C386.1 172.5 385.6 176.7 384.6 180.9zM249 335.2c-4.3-13.6-20.2-20.7-33.6-19.7-.7.1-1.3.2-1.8.4-5.2-1.5-10.5 5.5-5.4 9.2 6.8 5 12.5 10.2 14.4 18.7.5 2.2 3.4 4.1 5.6 3.7 6-1.1 11.7-3 17.4-5.3C248.5 341.1 250 338.2 249 335.2zM231.6 335.6c-1.1-2.7-2.5-5.1-4.2-7.4 3.4 1.3 6.5 3.3 8.7 5.9C234.6 334.6 233.1 335.1 231.6 335.6zM368.9 237.6c-5.1-.9-10.3-1.1-15.5-1.1-3 0-4.6 2-4.9 4.3-2.5.5-4.6 2.4-4.2 5.6.9 8.1 2.7 16.3-.4 24.1-1 2.5-.5 6.3 2.5 7.4 7.2 2.5 15 2.8 22.3.3 2.5-.9 3.7-3.1 3.7-5.6.1-10 .9-20 1-30C373.3 240.2 371.1 238 368.9 237.6zM361.4 268.8c-1.9.3-3.8.4-5.8.2 1.4-7.1.7-14.1-.1-21.5 2.3 0 4.5.1 6.7.3C362.1 254.8 361.6 261.8 361.4 268.8zM303 108.2c-1.8-3.9-6.2-4.9-9.3-1.8-5.9 5.7-13.7 11.7-14.3 20.6-.2 2.9 1.6 5 3.8 5.9 0 .6.1 1.3.4 2 3.8 9.3 20.3 6.5 26.9 2.1C322.3 129.1 306.5 115.6 303 108.2zM303.1 128.4c-1.3.5-2.6.8-4 1-1.6.3-3.2.3-4.8.3-.6 0-.9-.1-1.2-.1-.7-.9-1.7-1.5-2.7-1.7.7-3.7 3.3-6.7 6.3-9.4.6.9 1.3 1.7 1.9 2.6 1.5 2 4.1 4.6 4.8 7.2C303.3 128.4 303.2 128.4 303.1 128.4zM224.6 124.2c-1.4-8.4-9.8-9.9-17-8.3-6.4 1.4-11.6 6.9-12.2 13.3-2.5 2-3.5 5.7-.2 8.1 5.7 4.2 13.3 8.3 20.5 5.6C222.6 140.2 225.7 131 224.6 124.2zM211.3 132.7c-1.2.5-3.2-.3-4.9-1.3 0-.3 0-.5 0-.8-.2-2.3 2.2-3.5 4.2-4.2 1.1-.4 2.2-.4 3.3-.2 0 .4.1.8 0 .4C214 128.8 213.1 132 211.3 132.7zM364 128.3c-8.8-11.6-30.4-3-29.7 11.1.2 3 2.3 4.6 4.6 4.9.5 1 1.4 1.9 2.5 2.6 5.9 3.9 13.9 3.9 19.8.2C367.6 143.3 368.3 134 364 128.3zM354.4 138.4c-2.4 1.5-6.1 0-8.2-1.3-.1-.1-.3-.2-.4-.2 1.7-2.4 6.8-3.8 8.9-2.3C356.5 135.8 355.9 137.5 354.4 138.4zM137.5 230.9c-4-3.3-8.1-7-9.1-12.3-.8-4.1-6.5-7.5-9.6-3.2-.7.9-1.4 1.9-2 2.8 1.1-3.2-.9-6.5-3.5-7.6-5.1-7.6-11.3-13.5-21-9-6.8 3.1-17.6 10.3-13.5 19.2.5 1.2 1.3 2 2.2 2.5-1.7 2.5-1.7 6.4 1.5 8.6 12.2 8.1 24 .2 31.7-9.8-5.4 9-8.8 19.1-5.5 29.7.4 1.2 1 2 1.8 2.6-.1 3.4 2.9 7.1 7.2 5.7 4.7-1.5 8.2-2.5 11.3-6.6 3.6-4.7 5-10.6 9-15C139.9 236.5 139.8 232.8 137.5 230.9zM88.1 222.6c1.3-1.3 1.9-3.2.9-5.4 0-.1-.1-.1-.1-.1.4-.7 1.3-1.4 1.9-1.9 1.5-1.2 3.2-2.3 5-3.2 4.8-2.4 6 1.4 8.4 5C100 222.2 94.7 226.3 88.1 222.6zM121.9 244.4c-1 1.9-1.8 2.9-2.9 3.6-1.8-6 0-12.1 2.9-17.6 1.3 1.9 2.8 3.7 4.5 5.4C124.7 238.5 123.4 241.5 121.9 244.4zM126.5 288c-10.1-7.9-22.2-3.3-28.6 6.6-.2.3-.3.5-.4.8-1.3 1.2-2.5 2.5-3.3 4.1-2.7 5.3-.6 10.3 4 13.7 4.3 3.2 11.4 3 16.5 3 5.5 0 11.2-1.2 16-4C141 306.2 133.1 293.1 126.5 288zM123 303.8c-5.4 2.1-12.2 1.8-17.7.6-.5-.1-.7-.2-.9-.3.5-.6 1.2-1.2 1.8-1.7 2.3-1.9 4.6-3.7 6.8-5.7.5-.5.9-1 1.2-1.5 1.6-.1 3.4.3 5.2 1.3 2.1 1.2 3.9 3.7 4.9 5.8.2.4.2.7.3 1C124.1 303.5 123.2 303.7 123 303.8zM360.4 213.1c0-6.2-1-12.7-5.5-17.3-4.6-4.8-11.4-5.9-17.9-6.1-.9-.7-2.1-1.2-3.6-1.1-5.6.3-11.7 2.9-14.8 7.5-3.9-13.6-18.7-21.9-32.2-25.8-21.3-6.2-42.2-1.4-61.6 8.5-15.8 8.1-32.6 18.6-42.3 33.9-9.8 15.3-9.5 33.2 4.7 45.6.4.4.9.7 1.4.9 1 1.4 2.5 2.4 4.7 2.4 15.6 0 31.2 1 46.8-.3 12.2-1 23.7-4.3 34.9-9.3 17.6-7.8 39.8-21.9 44.1-42.4 1.9 2.9 4.8 5.3 7.4 7.4 3.9 3.1 8.3 6.9 12.9 9.1 4.7 2.2 9.7-.1 13.9-3.2 1 .2 2.1.2 2.9-.2.2-.1.4-.2.6-.3 2.5-1.1 3.5-2.9 3.7-5.6 0-.4 0-.8.1-1.2C360.6 214.7 360.6 213.9 360.4 213.1zM280.8 236.6c-9.4 5.5-20.1 10-30.7 12.1-13.6 2.7-27.6 2.5-41.4 2.1 2.9-4.3 5-9.2 9-12.7 8.9-7.7 19.9-12.4 31-15.9 15-4.7 37.9-12.6 51.3-.3C294.6 227.9 287.6 232.7 280.8 236.6zM306.1 212.6c-15.6-13.1-39-7.4-56.6-2.2-11.5 3.4-22.6 7.7-32.6 14.5-4.8 3.2-9.8 7.2-12.9 12.1-2.4 3.9-4 8.9-8.2 11.4-.6.4-1.1.8-1.5 1.2-9.5-8.5-9.4-19.1-3.4-29.8 6.1-10.8 17.1-18.3 27.4-24.8 19.1-12.2 40.3-20 62.9-14.8 8.5 1.9 16.8 5.5 23 11.8C309.9 197.9 309.2 205.7 306.1 212.6zM345.6 214.5c-.7.5-1.5.9-2.3 1.1 0 0 0 0 0 0-2.2-1.3-4.3-2.9-6.3-4.5-2.5-1.9-5-3.8-7.3-5.9-.5-.5-.6-.6-.1 0-.6-.7-1.7-1.7-1.9-2.7-.2-1.4 2-2.2 4-2.6.7.4 1.6.6 2.6.6 4.3 0 9.6 0 13 3 1.8 1.7 2.3 4.8 2.4 7.9C348.3 212.5 347 213.5 345.6 214.5z"/></svg>