<svg xmlns="http://www.w3.org/2000/svg"  viewBox="0 0 48 48" width="64px" height="64px"><path fill="#c0e6ed" d="M24.171,15.38c0.078-2.578,0.075-3.845,0.012-6.423c-0.023-0.927,0.062-2.209,0-3.134	c-0.1-1.5-1.787-2.071-2.357-2.217c-0.662-0.169-1.349-0.178-2.028-0.107c-0.699,0.073-1.359,0.224-1.985,0.542	c-0.732,0.372-1.209,0.597-2.45,0.937c-0.126,0.035-0.239,0.123-0.308,0.234c-0.074,0.116-0.076,0.263-0.076,0.401	c0.002,2.886,0.04,7.239,0.042,10.125"/><path fill="#c0e6ed" d="M33.946,15.14c-0.222-3.279,0.145-6.898-0.077-10.177c-1.578-0.159-2.062-0.516-3.251-1.014	c-0.703-0.295-1.541-0.476-2.539-0.385c-1.46,0.133-2.696,0.852-3.613,1.996l-0.062,10.042L33.946,15.14z"/><path fill="#bcbcbc" d="M7.364,21.891c-0.015,1.934,0,3.108,0.056,7.16c0.038,2.792,0.085,5.024-0.006,7.815	c-0.083,2.544,0.263,3.898,0.18,6.443c4.517,0.356,7.599-0.068,12.127-0.23c1.705-0.061,4.445,0.12,6.151,0.174	c1.57,0.05,3.115-0.086,4.683,0.02c3.167,0.214,6.888,0.073,10.056-0.136c0.176-3.237-0.189-4.542-0.013-7.779	c0.223-4.098,0.346-9.707,0.129-13.806"/><path fill="#f3ad20" d="M24.104,15.855c-5.254-0.212-10.504,0.028-15.76,0.168c-0.243,0.006-0.502,0.018-0.7,0.16	c-0.161,0.115-0.257,0.299-0.347,0.475c-0.877,1.724-1.754,3.449-2.63,5.173c3.776-0.268,7.566-0.535,11.343-0.281	c1.419,0.095,2.961,0.065,4.383,0.089c1.661,0.027,3.191,0.055,4.85-0.035c6.002-0.326,11.907-0.233,17.962-0.193	c-0.569-2.235-1.398-2.604-2.156-4.376c-0.095-0.221-0.576-1.124-0.989-1.368c-0.258-0.152-2.079-0.199-2.378-0.189	c-6.31,0.197-8.578,0.592-13.504,0.404"/><path fill="#010101" d="M4.666,22.331c-0.167,0-0.323-0.083-0.417-0.224c-0.1-0.15-0.11-0.343-0.028-0.503l2.631-5.173	c0.1-0.197,0.236-0.467,0.501-0.655c0.334-0.237,0.723-0.247,0.979-0.253l2.828-0.082c4.246-0.128,8.635-0.259,12.964-0.086	c0.05,0.002,0.098,0.012,0.144,0.027c3.059,0.114,5.131-0.002,7.749-0.147c1.562-0.087,3.331-0.187,5.649-0.259	c0.021-0.002,2.191-0.013,2.649,0.26c0.634,0.374,1.188,1.59,1.193,1.602c0.286,0.668,0.589,1.135,0.883,1.585	c0.46,0.71,0.937,1.442,1.298,2.864c0.038,0.15,0.005,0.31-0.091,0.432c-0.095,0.121-0.22,0.21-0.396,0.191l-2.062-0.015	c-5.435-0.041-10.566-0.081-15.87,0.207c-1.647,0.09-3.178,0.063-4.798,0.037c-0.514-0.008-0.949-0.01-1.389-0.013	c-1.032-0.005-2.1-0.011-3.107-0.078c-3.752-0.253-7.575,0.02-11.275,0.281C4.689,22.331,4.678,22.331,4.666,22.331z M19.636,16.272	c-2.835,0-5.671,0.085-8.445,0.169l-2.833,0.082c-0.137,0.003-0.342,0.008-0.425,0.067c-0.063,0.045-0.134,0.184-0.19,0.294	l-2.229,4.386c3.457-0.242,7.013-0.454,10.53-0.22c0.978,0.066,2.029,0.071,3.046,0.076c0.443,0.003,0.883,0.005,1.312,0.012	c1.69,0.029,3.204,0.052,4.815-0.034c5.335-0.29,10.48-0.251,15.932-0.209l1.391,0.01c-0.283-0.856-0.613-1.365-0.985-1.938	c-0.316-0.486-0.644-0.989-0.964-1.738c-0.127-0.299-0.554-0.998-0.783-1.133c-0.217-0.07-1.719-0.125-2.107-0.12	c-2.307,0.072-4.07,0.17-5.626,0.257c-2.664,0.147-4.766,0.265-7.914,0.146c-0.051-0.002-0.099-0.012-0.145-0.027	C22.561,16.295,21.098,16.272,19.636,16.272z"/><path fill="#f3ad20" d="M28.94,43.223c-0.135-3.478-0.099-6.961,0.109-10.437c0.074-1.236-0.053-2.032,0.6-3.187	c0.521-0.921,1.33-1.442,1.882-1.682c1.087-0.471,2.247-0.437,3.404-0.12c1.143,0.313,1.876,1.176,2.123,2.203	c0.247,1.027,0.401,1.642,0.332,3.321c-0.134,3.28,0.269,6.091-0.162,9.817"/><path fill="#010101" d="M11.128,43.948c-1.117,0-2.284-0.039-3.574-0.142c-0.267-0.021-0.47-0.247-0.461-0.515	c0.041-1.247-0.022-2.182-0.089-3.171c-0.065-0.971-0.133-1.975-0.091-3.271c0.082-2.505,0.053-4.581,0.019-6.984L6.92,29.058	c-0.055-4.001-0.071-5.208-0.056-7.171c0.002-0.274,0.226-0.496,0.5-0.496c0.001,0,0.003,0,0.004,0	c0.276,0.002,0.498,0.228,0.496,0.504c-0.016,1.952,0.001,3.157,0.056,7.149l0.012,0.808c0.034,2.416,0.063,4.502-0.019,7.031	c-0.041,1.247,0.022,2.182,0.089,3.171c0.057,0.848,0.116,1.72,0.102,2.791c2.964,0.205,5.306,0.068,7.994-0.086	c1.128-0.065,2.307-0.133,3.604-0.18c1.226-0.044,2.956,0.035,4.483,0.104c0.62,0.028,1.204,0.055,1.7,0.07	c0.676,0.022,1.344,0.008,2.014-0.005c0.876-0.019,1.78-0.035,2.687,0.025c2.509,0.171,5.715,0.134,9.545-0.107	c0.057-1.367,0.014-2.398-0.028-3.397c-0.047-1.129-0.096-2.296-0.006-3.938c0.21-3.852,0.354-9.487,0.129-13.752	c-0.015-0.275,0.197-0.511,0.473-0.525c0.264-0.032,0.511,0.197,0.525,0.473c0.228,4.305,0.083,9.981-0.129,13.859	c-0.087,1.595-0.039,2.737,0.007,3.842c0.047,1.129,0.096,2.295,0.006,3.938c-0.014,0.253-0.214,0.455-0.466,0.472	c-4.071,0.269-7.476,0.314-10.122,0.136c-0.865-0.059-1.75-0.043-2.601-0.023c-0.687,0.012-1.376,0.024-2.064,0.005	c-0.5-0.016-1.089-0.043-1.715-0.071c-1.508-0.068-3.213-0.146-4.402-0.103c-1.289,0.046-2.461,0.113-3.582,0.178	C14.424,43.856,12.834,43.948,11.128,43.948z"/><path fill="#010101" d="M15.02,16.238c-0.276,0-0.5-0.224-0.5-0.5c-0.001-1.441-0.011-3.251-0.021-5.06	c-0.01-1.811-0.021-3.621-0.021-5.065c0-0.158,0-0.423,0.152-0.666c0.142-0.223,0.36-0.386,0.602-0.451	c1.21-0.332,1.661-0.548,2.354-0.9c0.62-0.315,1.307-0.505,2.16-0.594c0.83-0.087,1.55-0.047,2.204,0.119	c0.61,0.156,2.609,0.811,2.732,2.669c0.037,0.561,0.023,1.231,0.01,1.882c-0.009,0.451-0.019,0.893-0.009,1.273	c0.061,2.51,0.067,3.794-0.012,6.45c-0.01,0.276-0.252,0.466-0.515,0.485c-0.276-0.009-0.493-0.239-0.485-0.515	c0.079-2.634,0.072-3.907,0.012-6.397c-0.01-0.394,0-0.851,0.01-1.317c0.013-0.629,0.025-1.278-0.009-1.795	c-0.079-1.188-1.537-1.652-1.982-1.767c-0.538-0.138-1.143-0.168-1.853-0.094c-0.728,0.076-1.303,0.232-1.811,0.49	c-0.729,0.371-1.242,0.617-2.544,0.975c-0.018,0.026-0.018,0.115-0.018,0.152c0.001,1.441,0.012,3.251,0.021,5.06	c0.01,1.811,0.021,3.621,0.021,5.065C15.52,16.014,15.296,16.238,15.02,16.238L15.02,16.238z"/><path fill="#010101" d="M33.945,15.641c-0.26,0-0.479-0.202-0.498-0.466c-0.112-1.662-0.076-3.427-0.04-5.134	c0.032-1.542,0.065-3.132-0.013-4.631c-1.057-0.147-1.627-0.404-2.329-0.719c-0.194-0.088-0.403-0.182-0.641-0.281	c-0.735-0.308-1.485-0.423-2.301-0.349c-1.282,0.116-2.412,0.743-3.267,1.811c-0.173,0.217-0.486,0.25-0.703,0.078	c-0.216-0.173-0.25-0.487-0.078-0.703c1.029-1.285,2.397-2.04,3.958-2.182c0.969-0.088,1.9,0.056,2.777,0.423	c0.246,0.103,0.462,0.2,0.664,0.291c0.763,0.342,1.267,0.568,2.442,0.688c0.243,0.024,0.433,0.22,0.449,0.463	c0.112,1.661,0.076,3.426,0.04,5.133c-0.035,1.685-0.072,3.427,0.038,5.044c0.019,0.275-0.189,0.515-0.465,0.533	C33.969,15.641,33.957,15.641,33.945,15.641z"/><path fill="#d6e5e5" d="M11.15,31.223c-0.007,0.433-0.015,0.867-0.022,1.3c-0.032,1.841-0.063,3.683-0.095,5.524	c-0.002,0.122,0.002,0.259,0.089,0.344c0.084,0.082,0.216,0.086,0.333,0.084c4.6-0.097,8.447,0.277,13.051-0.182	c0.296-4.83-0.269-8.102,0.182-12.338c-4.373,0.106-5.561,0.084-9.934,0.19c-0.065,0.002-3.591,0.031-3.637,0.078	c-0.049,0.049-0.049,0.127-0.047,0.196c0.053,1.577,0.027,3.218,0.08,4.795"/><path fill="#71c598" d="M19.589,38.293c0,0,0.053-2.285,0.053-2.895c0-0.455,2.533-0.424,2.592,0.017	c0.135,1.011,0.08,2.614,0.08,2.614"/><path fill="#16b7b8" d="M13.307,38.097c0.064-0.93,0-2.566,0-3.529s1.925-0.577,3.016-0.577s0.93,0.674,0.93,1.764	s0,2.695,0,2.695"/><path fill="#bcbcbc" d="M34.895,35.734c-0.536-0.154-1.549,0.356-1.326,1.248s1.31,0.692,1.647,0.355	C35.539,37.014,35.813,35.997,34.895,35.734z"/><path fill="#010101" d="M28.94,43.69c-0.251,0-0.458-0.197-0.468-0.449c-0.136-3.483-0.099-7.01,0.109-10.483	c0.015-0.237,0.021-0.459,0.027-0.67c0.027-0.907,0.052-1.69,0.633-2.72c0.656-1.16,1.69-1.702,2.104-1.881	c1.087-0.472,2.337-0.519,3.714-0.142c1.234,0.337,2.152,1.289,2.454,2.545c0.254,1.059,0.415,1.729,0.345,3.449	c-0.052,1.265-0.023,2.437,0.007,3.678c0.047,1.902,0.095,3.869-0.172,6.173c-0.03,0.257-0.271,0.432-0.519,0.411	c-0.257-0.029-0.441-0.262-0.411-0.519c0.259-2.239,0.211-4.173,0.166-6.043c-0.029-1.201-0.06-2.443-0.007-3.739	c0.064-1.59-0.076-2.177-0.31-3.148c-0.234-0.976-0.887-1.654-1.801-1.904c-1.185-0.325-2.196-0.292-3.095,0.099	c-0.328,0.142-1.145,0.569-1.662,1.482c-0.467,0.827-0.485,1.439-0.511,2.287c-0.007,0.22-0.014,0.45-0.028,0.698	c-0.207,3.442-0.244,6.938-0.109,10.39c0.01,0.259-0.191,0.477-0.449,0.486C28.952,43.69,28.946,43.69,28.94,43.69z"/><path fill="#010101" d="M19.233,39.028c-0.995,0-1.985-0.017-2.997-0.034c-1.528-0.026-3.109-0.054-4.771-0.019	c-0.141-0.002-0.452,0.011-0.693-0.227c-0.247-0.238-0.241-0.569-0.239-0.71l0.117-6.799c-0.001-0.003-0.001-0.006-0.001-0.009	c-0.025-0.788-0.032-1.592-0.039-2.396c-0.007-0.806-0.014-1.611-0.04-2.4c-0.003-0.085-0.015-0.357,0.193-0.565	c0.181-0.185,0.181-0.185,3.769-0.222l0.21-0.003c2.188-0.053,3.579-0.073,4.971-0.095c1.39-0.021,2.778-0.042,4.963-0.095	c0.145,0.013,0.282,0.056,0.38,0.161c0.097,0.106,0.145,0.249,0.129,0.392c-0.238,2.238-0.188,4.213-0.136,6.305	c0.047,1.843,0.095,3.748-0.044,6.01c-0.015,0.245-0.205,0.442-0.449,0.467C22.682,38.978,20.951,39.028,19.233,39.028z M13.074,37.958c1.105,0,2.154,0.019,3.18,0.036c2.591,0.046,5.047,0.088,7.777-0.158c0.105-2.036,0.061-3.794,0.018-5.498	C24,30.39,23.953,28.54,24.136,26.469c-1.871,0.044-3.14,0.062-4.407,0.082c-1.389,0.021-2.778,0.042-4.963,0.095l-0.224,0.002	c-1.7,0.019-2.547,0.035-2.963,0.048c0.02,0.714,0.025,1.423,0.031,2.133c0.007,0.789,0.013,1.578,0.038,2.353	c0.002,0.017,0.002,0.034,0.002,0.052l-0.116,6.739C12.062,37.962,12.573,37.958,13.074,37.958z"/><path fill="#010101" d="M34.422,38.091c-0.137,0-0.275-0.017-0.412-0.055c-0.457-0.126-0.774-0.461-0.895-0.941	c-0.127-0.506,0.018-1.005,0.395-1.37c0.412-0.398,1.036-0.577,1.515-0.441l0,0c0.48,0.138,0.808,0.457,0.922,0.897	c0.145,0.562-0.098,1.186-0.399,1.487C35.314,37.9,34.881,38.091,34.422,38.091z M34.688,36.174c-0.144,0-0.369,0.071-0.527,0.224	c-0.139,0.134-0.184,0.288-0.138,0.471c0.048,0.189,0.146,0.241,0.236,0.266c0.237,0.066,0.544-0.046,0.625-0.128	c0.086-0.086,0.21-0.376,0.155-0.591c-0.021-0.077-0.069-0.173-0.273-0.231l0,0C34.745,36.178,34.719,36.174,34.688,36.174z"/><path fill="#010101" d="M17.253,38.95c-0.276,0-0.5-0.224-0.5-0.5l0.005-3.077c0.005-0.311,0.013-0.736-0.066-0.817	c-0.002-0.002-0.067-0.065-0.369-0.065c-0.242,0-0.522-0.018-0.815-0.037c-0.46-0.029-1.538-0.099-1.701,0.094	c0.001,0.319,0.007,0.682,0.014,1.067c0.015,0.87,0.032,1.855-0.014,2.517c-0.02,0.275-0.252,0.495-0.533,0.465	c-0.276-0.02-0.483-0.258-0.465-0.533c0.043-0.619,0.026-1.582,0.012-2.432c-0.007-0.392-0.013-0.76-0.013-1.062	c0-0.298,0.109-0.559,0.317-0.753c0.516-0.486,1.497-0.425,2.447-0.359c0.858,0.053,1.481,0.04,1.834,0.399	c0.373,0.38,0.363,0.916,0.352,1.536l-0.004,3.059C17.753,38.727,17.529,38.95,17.253,38.95z"/><path fill="#010101" d="M31.854,7.527c-0.047,0-0.095-0.007-0.143-0.021c-0.018-0.005-1.746-0.516-2.976-0.605	c-1.17-0.094-2.431,0.352-2.442,0.356c-0.261,0.093-0.546-0.043-0.639-0.303c-0.093-0.261,0.043-0.546,0.303-0.639	c0.06-0.021,1.466-0.513,2.853-0.413c1.338,0.099,3.111,0.622,3.187,0.645c0.265,0.079,0.415,0.357,0.337,0.622	C32.27,7.387,32.07,7.527,31.854,7.527z"/><path fill="#010101" d="M26.599,10.245c-0.195,0-0.381-0.115-0.461-0.307c-0.107-0.255,0.013-0.548,0.268-0.654	c1.852-0.778,4.018-0.125,4.109-0.097c0.264,0.081,0.411,0.36,0.33,0.624c-0.08,0.264-0.363,0.409-0.624,0.332	c-0.018-0.006-1.919-0.572-3.429,0.062C26.729,10.232,26.663,10.245,26.599,10.245z"/><path fill="#010101" d="M17.096,7.84c-0.109,0-0.219-0.037-0.307-0.113c-0.19-0.167-0.225-0.445-0.067-0.644	c0.102-0.128,0.706-0.769,2.693-0.863c1.763-0.092,2.711,0.255,2.75,0.27c0.246,0.091,0.372,0.363,0.281,0.609	c-0.092,0.246-0.36,0.372-0.607,0.282l0,0c-0.008-0.004-0.828-0.285-2.379-0.214c-1.561,0.075-2.005,0.519-2.009,0.522	C17.356,7.789,17.226,7.84,17.096,7.84z"/><path fill="#010101" d="M17.047,10.967c-0.117,0-0.234-0.042-0.325-0.129c-0.189-0.179-0.201-0.474-0.024-0.665	c0.036-0.039,0.9-0.951,2.843-1.16c1.811-0.198,2.651,0.36,2.742,0.424c0.213,0.152,0.262,0.448,0.109,0.662	c-0.15,0.211-0.444,0.261-0.655,0.114c-0.024-0.016-0.666-0.413-2.095-0.257c-1.562,0.168-2.244,0.858-2.251,0.865	C17.298,10.918,17.172,10.967,17.047,10.967z"/><path fill="#010101" d="M17.453,13.688c-0.137,0-0.272-0.059-0.366-0.172c-0.166-0.201-0.14-0.499,0.061-0.666	c0.038-0.031,0.932-0.766,2.394-0.9c1.412-0.13,2.75,0.265,2.806,0.28c0.251,0.075,0.394,0.34,0.319,0.591	c-0.075,0.251-0.341,0.391-0.591,0.319c-0.012-0.004-1.231-0.36-2.446-0.245c-1.155,0.106-1.867,0.68-1.874,0.686	C17.666,13.652,17.56,13.688,17.453,13.688z"/><path fill="#010101" d="M31.545,13.508c-0.054,0-0.107-0.009-0.161-0.026c-2.936-0.999-4.961-0.308-4.98-0.301	c-0.26,0.095-0.545-0.045-0.638-0.303c-0.093-0.26,0.041-0.545,0.3-0.639c0.095-0.032,2.351-0.821,5.641,0.295	c0.261,0.089,0.401,0.373,0.312,0.635C31.947,13.377,31.753,13.508,31.545,13.508z"/><path fill="#010101" d="M22.314,38.528c-0.006,0-0.013,0-0.019,0c-0.276-0.011-0.491-0.243-0.481-0.519	c0.001-0.018,0.06-1.622-0.039-2.609c-0.355-0.108-1.235-0.124-1.619-0.031c-0.011,0.859-0.067,2.938-0.067,2.938l-1-0.027	c0,0,0.069-2.536,0.069-3.144c0-0.727,1.018-0.794,1.352-0.815c0.498-0.035,2.124-0.075,2.236,0.766	c0.139,1.042,0.071,2.884,0.068,2.961C22.804,38.316,22.582,38.528,22.314,38.528z"/></svg>