<svg xmlns="http://www.w3.org/2000/svg"  viewBox="0 0 64 64" width="64px" height="64px"><path fill="#c5e4fa" d="M61,11v42c0,1.1-0.9,2-2,2H5c-1.1,0-2-0.9-2-2V11c0-1.1,0.9-2,2-2h54C60.1,9,61,9.9,61,11z"/><path fill="#ced8ed" d="M61,19H3v-8c0-1.105,0.895-2,2-2h54c1.105,0,2,0.895,2,2V19z"/><path fill="#e3f2ff" d="M61 20L61 36.68 43.68 54 24.43 54 58.43 20zM54.52 20L20.52 54 12.82 54 46.82 20zM42.4 20L8.4 54 7.12 54 41.12 20z"/><path fill="#fff8f8" d="M12.5 25L13.738 27.262 16 28.5 13.738 29.738 12.5 32 11.262 29.738 9 28.5 11.262 27.262zM55.5 28L56.384 29.616 58 30.5 56.384 31.384 55.5 33 54.616 31.384 53 30.5 54.616 29.616z"/><path fill="#ed7899" d="M8 12A2 2 0 1 0 8 16A2 2 0 1 0 8 12Z"/><path fill="#ffeb9b" d="M14 12A2 2 0 1 0 14 16A2 2 0 1 0 14 12Z"/><path fill="#72caaf" d="M20 12A2 2 0 1 0 20 16A2 2 0 1 0 20 12Z"/><path fill="#8b8e98" d="M53,37H11c-1.105,0-2,0.895-2,2v2c0,1.105,0.895,2,2,2h42c1.105,0,2-0.895,2-2v-2 C55,37.895,54.105,37,53,37z"/><path fill="#f6d397" d="M48.11,43c1.203-2.41,1.89-5.123,1.89-8c0-9.941-8.059-18-18-18s-18,8.059-18,18 c0,2.877,0.687,5.59,1.89,8H48.11z"/><path fill="#f9e3ae" d="M41.367,44C43.613,41.664,45,38.496,45,35c0-7.18-5.82-13-13-13s-13,5.82-13,13 c0,3.496,1.387,6.664,3.633,9H41.367z"/><path fill="#f9e3ae" d="M31.243 22.038C24.68 22.417 19.435 27.652 19.04 34.21L21.25 32 31.243 22.038zM36.526 22.812c-.443-.165-.894-.303-1.351-.417L19.406 38.164c.114.459.244.915.407 1.361.148.386.319.762.502 1.133L37.68 23.317C37.303 23.131 36.92 22.959 36.526 22.812z"/><path fill="#ffefca" d="M38.419 23.706c-.241-.14-.49-.266-.739-.389L20.315 40.658c.124.251.251.501.391.744.471.843 1.04 1.627 1.687 2.345l18.361-18.353C40.042 24.746 39.26 24.176 38.419 23.706zM33.739 22.122C33.163 22.04 32.582 21.999 32 22c-.256 0-.505.024-.757.038L21.25 32l-2.21 2.21C19.024 34.473 19 34.733 19 35c.006 1.069.148 2.13.406 3.164l15.769-15.769C34.702 22.277 34.223 22.185 33.739 22.122zM38.43 44l.17-.17 1.4-1.39 1.7-1.71 3.009-3.004C44.896 36.846 45 35.936 45 35c0-.154 0-.309 0-.455-.084-2.668-1.004-5.236-2.612-7.36L41.4 28.17 25.586 44H38.43z"/><path fill="#f9e3ae" d="M44.887 38.712c.14-1.009-.129-2.079-.127-3.093 0-.088.013-.165.015-.251l-8.343 8.337L36.139 44h5.078c1.436-1.494 2.667-3.185 3.651-5.028C44.873 38.885 44.875 38.799 44.887 38.712zM22.63 44h2.957L41.4 28.17l.988-.985c-.065-.086-.124-.176-.191-.261-.406-.518-.855-1.002-1.341-1.446-.032-.03-.069-.054-.101-.083L22.394 43.747c.027.03.049.063.076.093C22.521 43.895 22.577 43.945 22.63 44z"/><path fill="#8d6c9f" d="M22 48c-.552 0-1 .447-1 1v2c0 .553.448 1 1 1s1-.447 1-1v-2C23 48.447 22.552 48 22 48zM27 48c-.552 0-1 .447-1 1v2c0 .553.448 1 1 1 .552 0 1-.447 1-1v-2C28 48.447 27.552 48 27 48zM32 48c-.552 0-1 .447-1 1v2c0 .553.448 1 1 1s1-.447 1-1v-2C33 48.447 32.552 48 32 48zM37 48c-.552 0-1 .447-1 1v2c0 .553.448 1 1 1s1-.447 1-1v-2C38 48.447 37.552 48 37 48zM42 48c-.552 0-1 .447-1 1v2c0 .553.448 1 1 1s1-.447 1-1v-2C43 48.447 42.552 48 42 48zM47 48c-.552 0-1 .447-1 1v2c0 .553.448 1 1 1s1-.447 1-1v-2C48 48.447 47.552 48 47 48zM52 48c-.552 0-1 .447-1 1v2c0 .553.448 1 1 1s1-.447 1-1v-2C53 48.447 52.552 48 52 48zM57 48c-.552 0-1 .447-1 1v2c0 .553.448 1 1 1s1-.447 1-1v-2C58 48.447 57.552 48 57 48zM17 48c-.552 0-1 .447-1 1v2c0 .553.448 1 1 1s1-.447 1-1v-2C18 48.447 17.552 48 17 48zM12 48c-.552 0-1 .447-1 1v2c0 .553.448 1 1 1s1-.447 1-1v-2C13 48.447 12.552 48 12 48zM7 48c-.552 0-1 .447-1 1v2c0 .553.448 1 1 1s1-.447 1-1v-2C8 48.447 7.552 48 7 48zM52 36h-2v2h2c1.105 0 2 .895 2 2s-.895 2-2 2H12c-1.105 0-2-.895-2-2s.895-2 2-2h2v-2h-2c-2.209 0-4 1.791-4 4s1.791 4 4 4h40c2.209 0 4-1.791 4-4S54.209 36 52 36z"/><path fill="#8d6c9f" d="M31 29h2c1.105 0 2 .895 2 2 0 .552.448 1 1 1s1-.448 1-1c0-2.209-1.791-4-4-4v-1c0-.552-.448-1-1-1s-1 .448-1 1v1c-2.209 0-4 1.791-4 4v1c0 2.209 1.791 4 4 4h2c1.105 0 2 .895 2 2v1c0 1.105-.895 2-2 2v-3c0-.552-.448-1-1-1s-1 .448-1 1v3c-1.105 0-2-.895-2-2 0-.552-.448-1-1-1s-1 .448-1 1c0 2.209 1.791 4 4 4h2c2.209 0 4-1.791 4-4v-1c0-2.209-1.791-4-4-4v-3c0-.552-.448-1-1-1s-1 .448-1 1v3c-1.105 0-2-.895-2-2v-1C29 29.895 29.895 29 31 29zM38.999 25.06c-.185 0-.371-.051-.538-.158-.515-.33-1.12-.64-1.85-.948-.509-.215-.747-.801-.532-1.31.215-.509.802-.748 1.31-.533.836.353 1.539.715 2.15 1.106.466.298.601.917.303 1.382C39.651 24.897 39.328 25.06 38.999 25.06z"/><path fill="#8d6c9f" d="M23.088 43C21.176 40.876 20 38.077 20 35c0-6.617 5.383-12 12-12 .309 0 .613.017.915.042.546.054 1.035-.361 1.082-.91.047-.551-.36-1.035-.911-1.082C32.728 21.019 32.366 21 32 21c-7.72 0-14 6.28-14 14 0 2.974.938 5.731 2.526 8H23.088zM44 35c0 3.077-1.176 5.876-3.088 8h2.562C45.062 40.731 46 37.974 46 35c0-3.244-1.147-6.412-3.231-8.919-.353-.425-.982-.481-1.408-.131-.425.354-.483.984-.13 1.408C43.017 29.508 44 32.222 44 35z"/><path fill="#8d6c9f" d="M17.022,43C15.739,40.614,15,37.894,15,35c0-9.374,7.626-17,17-17s17,7.626,17,17 c0,2.894-0.739,5.614-2.022,8h2.251C50.364,40.567,51,37.857,51,35c0-10.477-8.523-19-19-19s-19,8.523-19,19 c0,2.857,0.636,5.567,1.771,8H17.022z"/><path fill="#8d6c9f" d="M59,8H5c-1.654,0-3,1.346-3,3v42c0,1.654,1.346,3,3,3h54c1.654,0,3-1.346,3-3V11 C62,9.346,60.654,8,59,8z M60,18H37.874c1.447,0.5,2.815,1.168,4.068,2H60v33c0,0.551-0.449,1-1,1H5c-0.551,0-1-0.449-1-1V20h18.058 c1.253-0.832,2.621-1.5,4.068-2H4v-7c0-0.551,0.449-1,1-1h54c0.551,0,1,0.449,1,1V18z"/></svg>