<svg xmlns="http://www.w3.org/2000/svg"  viewBox="0 0 512 512" width="64px" height="64px"><path fill="#EF4823" d="M463.7,167c-7.1-25.7-22.9-46.9-45-61.8c-20.7-13.9-45.9-22.2-70.9-22.6c-23.9-0.4-47.4,5.8-66.8,20.2c-3.7,2.7-7.1,5.7-10.4,8.8c-0.8-1.1-1.6-2.1-2.4-3.1c-1.3-2-2.9-3.8-4.6-5.3c0,0,0,0,0,0c-1.5-1.2-3-2.4-4.6-3.6c-19.4-14.3-42.8-20.6-66.8-20.2c-25,0.4-50.2,8.7-70.9,22.6c-22.1,14.9-37.9,36-45,61.8c-9.2,33.4-1.1,66,14.9,95.1c1.6-0.2,3.1-0.3,4.4-0.4c7.9-0.3,15.9,0,23.9,0.4c12.8,0.5,25.7,1.8,38.5,2c3.8-10.5,10.3-20.3,11.6-31.5c0.6-5.5,9-5.8,10.6-0.8c4.6,14.3,6.8,29.2,8.6,44c0.4,3.3,0.9,6.5,1.4,9.8c0-0.2,0.1-0.4,0.1-0.6c2.3-13.5,5.1-26.9,8.4-40.2c6.7-26.9,14.1-53.6,21.8-80.2c1.6-5.6,10.6-6,10.9,0.6c1.1,29.9,4.5,59.5,5,89.4c0.4,19.5,2.2,39,5.4,58.2c1.3-8.2,2.4-16.5,4.3-24.6c3.6-16,6.9-31.9,11.4-47.7c1.4-5.1,8.6-6.2,10.6-0.8c1.7,4.6,2.9,9.3,4.5,13.9c1.4,3.8,2.8,9.1,6,11.9c3.3,2.9,9.5,3,13.7,3c5.9,0.1,11.8-0.3,17.7-0.4c6.6-0.1,13.1,0.7,19.7,1.2c5.3,0.5,12.4,1.5,17.6-0.7c8.3-3.5,12.9-15.2,15.3-23.1c2.1-6.8,11.3-5,10.8,2.1c-0.7,10.6,4.7,20.3,6.1,30.5c0.5,3.4,0.7,7.1,1.2,10.7c10.1-22.6,22.3-44.2,32.4-66.7c1.8-4.1,9-4.1,10.1,0.6c4.6,19.4,8.5,39.1,16.4,57.5C461.3,244.6,474.5,206.3,463.7,167z"/><path fill="#EF4823" d="M430.8,284.4c-0.1-0.2-0.1-0.3-0.2-0.5c-0.1-0.1-0.1-0.1-0.2-0.2c-1.6-1.3-2.1-3-1.9-4.6c-5.5-13.2-9-27-12.2-40.9c-10.6,21.9-22.4,43.2-31.3,65.8c-1.5,3.8-7.4,4-9.5,0.6c-5-8.2-5.5-18.3-6.8-27.6c-0.7-4.9-2-9.5-3.2-14.1c-3.2,5.1-7.1,9.4-12.3,12.1c-12.7,6.5-28.8,0.7-42.3,1.1c-7.4,0.2-14.8,0.7-22.1,0.2c-5.7-0.4-13.1-1.2-17.3-5.5c-3.6-3.7-6-8.2-7.9-13c-2.5,10.4-4.8,20.8-7,31.2c-3.4,16.5-4.6,33.4-9.2,49.6c-1.3,4.7-9.2,6.6-10.6,0.8c-6.7-27.9-10.7-56.5-11.2-85.2c-0.4-19.8-1.9-39.4-3.2-59.1c-4.9,17.4-9.5,34.8-13.7,52.3c-3.1,13-6.2,26.2-7.9,39.5c-1.4,10.8-1.6,22-5.8,32.1c-2.2,5.2-9.9,3.1-10.4-2c-1.3-14-4.7-27.6-6.4-41.6c-1-8.4-2.1-16.7-3.7-25c-2.6,5.6-5.3,11.2-6.9,17.2c-0.6,2.2-2.4,4.4-5,4.4c-11.9,0-23.9-1.3-35.8-1.8c-7.8-0.4-15.6-0.7-23.4-0.7c-1.9,0-3.8,0-5.7,0.1c9.4,14.9,20.7,28.7,32.4,41c19.6,20.6,42,37.9,64.4,55.3c23.6,18.3,46.4,37.6,67.2,59.1c3.4,3.5,6.7,7.1,10,10.7c0,0,0,0.1,0.1,0.1c2.3-2.5,4.7-5.1,7.1-7.5c20.8-21.4,43.6-40.8,67.2-59.1c22.4-17.4,44.7-34.7,64.4-55.3c8-8.4,15.7-17.4,22.8-27C432,286.2,431.3,285.4,430.8,284.4z"/><path d="M478.1,188.1c-1.4-26.4-11.9-51.9-29.6-71.5c-16.8-18.6-39.2-31.5-63-38.8c-23.8-7.3-50.1-8.3-74.1-1.7C297,80,283.7,86.9,272,96c-12.7-10.7-27.3-18.8-43.4-23.2c-24.1-6.6-50.3-5.6-74.1,1.7c-23.8,7.3-46.2,20.2-63,38.8c-17.6,19.6-28.2,45.1-29.6,71.5c-2.9,56.1,30.4,105.1,69.1,142.5c20.5,19.8,43.3,36.7,65.6,54.4c23.6,18.8,46.3,38.8,66.6,61.2c1.4,1.5,3,2,4.6,1.8c1.6,3.1,6.1,4.8,9.1,1.5c20.3-22.4,42.9-42.4,66.6-61.2c22.3-17.7,45-34.6,65.6-54.4C447.7,293.1,481,244.1,478.1,188.1z M410.1,313.8c-19.6,20.6-42,37.9-64.4,55.3c-23.6,18.3-46.4,37.6-67.2,59.1c-2.4,2.5-4.8,5-7.1,7.5c0,0,0-0.1-0.1-0.1c-3.3-3.6-6.6-7.2-10-10.7c-20.8-21.4-43.6-40.8-67.2-59.1c-22.4-17.4-44.7-34.7-64.4-55.3c-11.7-12.3-23-26.1-32.4-41c1.9-0.1,3.8-0.1,5.7-0.1c7.8,0,15.6,0.4,23.4,0.7c11.9,0.6,23.9,1.8,35.8,1.8c2.5,0,4.4-2.2,5-4.4c1.6-6,4.4-11.6,6.9-17.2c1.6,8.3,2.7,16.6,3.7,25c1.7,13.9,5.2,27.6,6.4,41.6c0.5,5.2,8.2,7.2,10.4,2c4.2-10.2,4.4-21.3,5.8-32.1c1.7-13.2,4.9-26.5,7.9-39.5c4.1-17.5,8.8-34.9,13.7-52.3c1.4,19.7,2.9,39.3,3.2,59.1c0.5,28.7,4.6,57.3,11.2,85.2c1.4,5.8,9.3,3.9,10.6-0.8c4.6-16.2,5.9-33.1,9.2-49.6c2.1-10.4,4.4-20.9,7-31.2c1.9,4.8,4.2,9.3,7.9,13c4.2,4.3,11.6,5.1,17.3,5.5c7.4,0.5,14.8,0,22.1-0.2c13.4-0.4,29.6,5.4,42.3-1.1c5.1-2.6,9.1-7,12.3-12.1c1.2,4.6,2.5,9.3,3.2,14.1c1.3,9.3,1.8,19.4,6.8,27.6c2.1,3.4,8,3.2,9.5-0.6c9-22.6,20.7-43.9,31.3-65.8c3.2,13.9,6.8,27.7,12.2,40.9c-0.2,1.6,0.2,3.3,1.9,4.6c0.1,0.1,0.2,0.2,0.2,0.2c0.1,0.2,0.1,0.3,0.2,0.5c0.5,1.1,1.2,1.9,2.1,2.4C425.8,296.4,418.1,305.4,410.1,313.8z M439.6,277.2c-7.9-18.4-11.8-38.1-16.4-57.5c-1.1-4.7-8.3-4.7-10.1-0.6c-10.1,22.6-22.3,44.2-32.4,66.7c-0.5-3.6-0.8-7.3-1.2-10.7c-1.4-10.2-6.8-20-6.1-30.5c0.5-7.1-8.7-8.9-10.8-2.1c-2.5,7.9-7.1,19.7-15.3,23.1c-5.1,2.1-12.2,1.2-17.6,0.7c-6.6-0.6-13.1-1.4-19.7-1.2c-5.9,0.1-11.8,0.5-17.7,0.4c-4.2-0.1-10.3-0.1-13.7-3c-3.2-2.8-4.7-8.1-6-11.9c-1.6-4.6-2.9-9.3-4.5-13.9c-2-5.4-9.1-4.3-10.6,0.8c-4.5,15.8-7.7,31.7-11.4,47.7c-1.9,8.1-3,16.4-4.3,24.6c-3.2-19.2-5-38.7-5.4-58.2c-0.5-29.9-3.9-59.6-5-89.4c-0.3-6.6-9.2-6.3-10.9-0.6c-7.8,26.6-15.2,53.3-21.8,80.2c-3.3,13.3-6.1,26.7-8.4,40.2c0,0.2-0.1,0.4-0.1,0.6c-0.5-3.2-1-6.5-1.4-9.8c-1.9-14.8-4-29.8-8.6-44c-1.6-5-10-4.8-10.6,0.8c-1.3,11.2-7.7,21-11.6,31.5c-12.8-0.2-25.7-1.5-38.5-2c-7.9-0.3-15.9-0.7-23.9-0.4c-1.3,0-2.9,0.1-4.4,0.4c-16-29.1-24.1-61.7-14.9-95.1c7.1-25.7,22.9-46.9,45-61.8c20.7-13.9,45.9-22.2,70.9-22.6c23.9-0.4,47.4,5.8,66.8,20.2c1.6,1.2,3.1,2.4,4.6,3.6c0,0,0,0,0,0c1.8,1.5,3.3,3.3,4.6,5.3c0.9,1,1.7,2,2.4,3.1c3.3-3.1,6.7-6,10.4-8.8c19.4-14.3,42.8-20.6,66.8-20.2c25,0.4,50.2,8.7,70.9,22.6c22.1,14.9,37.9,36,45,61.8C474.5,206.3,461.3,244.6,439.6,277.2z"/></svg>