<svg xmlns="http://www.w3.org/2000/svg"  viewBox="0 0 512 512" width="64px" height="64px"><path fill="#3AB37C" d="M241.5,145.9c-10.6-8.4-27.1-8.7-39.7-5.5c-24.7,6.3-40.3,28.7-46.9,52.6c12.5-12.7,27.7-22.2,45.5-26c11-2.4,22.6-2.6,33.7-1.5c6.9,0.7,14.3,2.1,19.6,6.4C252.7,162,249.5,152.2,241.5,145.9z"/><path fill="#C56528" d="M277.1,193c-3.9,2.5-8.9-1-8.7-4.8c-2-0.2-4-0.2-5.9-0.2c-0.4,0-0.9,0-1.3-0.1c-0.4,0.1-0.9,0.1-1.3,0.1c-19.9,13.9-45.3,16.9-64,32.9c-18.4,15.7-32.8,35.8-43.7,57.3c-5.7,11.2-10.7,22.7-14.8,34.6c-4.2,12.1-8.3,24.7-10.6,37.3c-4.7,26.2-1.5,52.7-1.2,79.1c1.1-0.9,2.1-1.7,3.2-2.6c15.4-12.1,32.9-23.3,51.2-30.5c11.8-4.6,23.9-7.9,36.2-10.2c-3.6-20-11.1-39.6-10.4-60.2c0.6-18,5.6-35.7,12.4-52.3c7-17,16.1-33.4,27.9-47.6c5.8-7,12.2-13.6,19.4-19.1c3.4-2.7,7-5.2,10.8-7.3c0.2-0.1,0.4-0.2,0.6-0.4c0.3-2.1,1.8-3.9,4.5-4C279.9,194.3,278.5,193.6,277.1,193z"/><path fill="#FEBF10" d="M422.8,462.3c-10.6-28.9-35.9-47.6-64-58c-19.6-7.3-40.8-11.2-61.8-12.1c-27.8-1.2-56.9-0.3-84.2,5.4c-24.6,5.1-46.6,15.8-67.1,30c-16.2,11.2-36.6,26.7-38.3,47.9c0,0.1,0,0.2,0,0.3c1.3,0.8,2.2,2.1,2.1,4.2c-0.1,3-0.2,2.9,1.1,5.6c-0.6-1.3,0.7,1.1,1,1.5c0.5,0.7,0.5,0.8,0.5,0.8c0,0,0.1,0.1,0.5,0.4c0.6,0.6,1.3,1.2,2,1.8c0.3,0.2,1.9,1.4,1.7,1.3c3.6,2.3,8.4,4.4,11.8,5.5c12.2,4,25.1,5.8,37.8,7c33.1,3.1,66.6,2.1,99.8,0.2c29.6-1.7,59.2-4.3,88.7-8c8.1-1,16.1-2.5,24.2-3.4c15.7-1.8,42.1-4.4,46-23.5c0.4-1.8,1.4-3,2.6-3.6C425.4,465.6,423.6,464.5,422.8,462.3z"/><path fill="#3AB37C" d="M282.6 56.9c-8.6-7.2-26.3-19.2-38.5-13.7 6 15.6 13.1 32.1 13.3 48.9 0 .8-.1 1.5-.3 2.1 6.3 8.2 11 17.5 13.6 27.7 1.5 5.9 2.3 11.9 2.6 17.8 7-9.6 16-17.7 25.8-24.6-5.6-3.4-.8-12.7 5.4-9.6.1.1.3.1.4.2C304.8 87.3 296.9 68.8 282.6 56.9zM250.4 103.6c-12.8-18.3-32.4-28.2-53.5-33.7-43.6-11.4-84.2 11.2-108.8 46 38.7-15.9 87.1-22.1 116 13 15.6-2.3 33.9-1.5 46.1 10 5.3 5 8.9 11.2 11.3 17.8C264.2 138.3 261.3 119.1 250.4 103.6zM363.5 101.4c-18.8 2.6-35.7 8.3-51.8 18.6-16.6 10.6-36.6 26.3-38.3 47.5-.2 2.7-2 4.1-4 4.3-.5 1.8-1 3.6-1.6 5.3.3 0 .6 0 .9.1.1-.4.3-.8.5-1.2 4.6-8.9 12.3-15.8 21.2-20.4 17.7-9.1 37.8-13.2 57.7-12.6 14.3-12.3 32-19.4 51.2-20.5 18-1 35.8 1.9 53.3 6C435.6 99.3 394.5 97.1 363.5 101.4zM356.1 240c-2.1-18.2-9.6-36.6-26.5-45.7-12-6.5-25.7-8-39.1-6.7 18.4 10.6 33.5 26.8 38.2 48.2 5.4 24.8-6.2 45.9-16.4 67.4 11.9-4.7 23.2-11.2 31.5-20.9C353.9 270.4 357.8 255.4 356.1 240z"/><path fill="#3AB37C" d="M437.1,215.7c-7.4-21.6-23.3-39.3-43.5-49.8c-13.3-6.9-27.3-10.7-41.7-11.5c-0.6,0.6-1.1,1.1-1.7,1.7c-3.2,3.3-7.8,1.4-9.3-1.8c-3.3,0.1-6.7,0.4-10.1,0.8c-17.3,2.2-39.7,7.2-50,22.8c18.4-3.3,38.5-2.8,54.9,7.1c8.2,4.9,14.7,11.4,19.6,18.9c2.7-1.3,6.5-0.8,8.1,2.7c-0.6-1.5,0.8,0.2,1.9,0.7c1.7,0.9,3.5,1.6,5.3,2.4c4.4,1.8,8.9,3.3,13.4,4.9c9.3,3.4,17.7,6.9,24.6,14.1c14.1,14.7,23.8,32.8,28.5,52.4c3-8.4,4.4-17.5,4.6-26.5C441.7,241.7,441.3,228.2,437.1,215.7z"/><path d="M467.2,134.7c-13.2-39.9-57.4-48.2-94.5-45.3c-18.4,1.5-36.4,5.3-53,13.6c-1.3,0.7-2.7,1.4-4,2.1c-0.4-21.5-9.3-42-25.8-56.4c-13-11.3-38.7-25.7-54.9-12.7c-1.6,1.3-2.2,3-2.2,4.6c-0.4,1.1-0.5,2.4,0,3.8c4.5,11.9,10.1,24.5,12.5,37.3c-3-2.6-6.1-4.9-9.3-7.1c-19.5-12.9-44.2-19.6-67.5-18.7c-23.6,0.9-46.1,11.2-64.1,26.1C89.7,94,77.9,109.3,69.1,126c-2.8,5.3,3.5,9.4,8,7c33.2-17.4,85.6-32.1,115.1-1.1c-31.3,11.4-49.4,47.7-51.6,79.5c-0.3,4.7,6,9.7,9.5,4.7c12.1-17.3,27.8-31.4,48.5-37.3c9.4-2.7,19.3-3,29-2.7c5.4,0.2,17.9,0.2,21,5.9c-8.7,5-18.2,8.3-27.5,12c-12,4.7-22.8,10.3-32.7,18.7c-19.5,16.6-34.5,37.9-46.3,60.5c-11.8,22.7-20.9,47.9-26.1,72.9c-5.9,28.6-1.7,57.9-1.7,86.8c0,2,0.9,3.3,2.1,4.1c-10.2,10-18.8,22.2-20,36.4c-0.2,2.3,0.9,4.1,2.4,5.2c-0.3,0.7-0.5,1.4-0.5,2.3c-0.5,20.9,27.3,27.8,43.1,30.9c30.9,6,63.3,5.6,94.6,4.8c32.6-0.9,65.1-3.4,97.5-6.8c11.2-1.2,22.4-2.5,33.6-4.1c11.9-1.7,24.1-2.9,35.7-5.9c14.7-3.8,29-12.3,32.3-28.2c0.8-3.7-2-6-4.9-6.3c2.2-1.1,3.8-3.5,2.7-6.5c-15.3-41.9-56.8-63.7-98.2-72.6c-22.3-4.8-44.9-5.4-67.6-4.9c-13.5,0.3-27.2,1.1-40.6,3c-3.3-18.1-9.5-35.7-10.2-54.2c-0.7-16.7,4.3-33.7,10.3-49.1c6.1-15.8,14.4-31,24.7-44.5c5-6.5,10.6-12.7,16.8-18c3-2.6,6.2-4.9,9.5-7.1c2-1.3,6.7-5.3,9.1-5.3c3.1,0,4.7-2.1,4.9-4.5c12.6,8.8,22.4,20.9,26.2,36.6c6.3,25.9-11.4,49.4-20.9,72c-1.9,4.5,2,9.1,6.7,7.6c18.4-5.4,36.4-14.2,49-29c12.1-14.1,16.2-32.6,14.1-50.8c-0.8-6.7-2.3-13.2-4.5-19.4c2.8,1.2,5.8,2.2,8.3,3.1c8.2,3,17.7,5.4,25,10.5c9.9,6.9,17.6,19.5,22.9,30.2c5.6,11.5,8.9,23.9,10,36.6c0.4,4.3,6.8,7.3,9.6,3.2c15.3-22.5,17.4-52.9,12.2-79.1c-4.5-22.6-17.7-42.4-35.8-56.6c-14.6-11.4-32.1-18.6-50.3-21.7c11.5-7.1,24.6-10.7,38.7-11.3c19.6-0.9,39.2,3.8,58.1,8.5C465.1,142.9,468.4,138.4,467.2,134.7z M244.1,43.2c12.1-5.5,29.9,6.5,38.5,13.7c14.3,12,22.2,30.4,22.3,48.9c-0.1-0.1-0.3-0.1-0.4-0.2c-6.2-3.1-11,6.2-5.4,9.6c-9.8,6.9-18.8,15-25.8,24.6c-0.3-5.9-1.1-11.9-2.6-17.8c-2.5-10.1-7.3-19.5-13.6-27.7c0.2-0.6,0.4-1.3,0.3-2.1C257.2,75.2,250.1,58.7,244.1,43.2z M88.2,115.9c24.6-34.8,65.2-57.4,108.8-46c21.1,5.5,40.7,15.3,53.5,33.7c10.8,15.6,13.7,34.7,11.1,53.1c-2.4-6.6-6-12.7-11.3-17.8c-12.1-11.5-30.4-12.3-46.1-10C175.3,93.8,126.8,99.9,88.2,115.9z M234.2,165.5c-11.2-1.1-22.8-0.8-33.7,1.5c-17.8,3.8-33.1,13.4-45.5,26c6.7-23.9,22.2-46.3,46.9-52.6c12.6-3.2,29.1-2.9,39.7,5.5c7.9,6.3,11.1,16.1,12.3,26C248.5,167.7,241.1,166.2,234.2,165.5z M297,392.2c20.9,0.9,42.1,4.8,61.8,12.1c28.1,10.4,53.4,29.1,64,58c0.8,2.2,2.6,3.3,4.4,3.5c-1.2,0.7-2.2,1.8-2.6,3.6c-3.9,19.1-30.4,21.7-46,23.5c-8.1,0.9-16.1,2.4-24.2,3.4c-29.5,3.7-59.1,6.3-88.7,8c-33.1,1.9-66.7,2.9-99.8-0.2c-12.7-1.2-25.6-3-37.8-7c-3.4-1.1-8.2-3.2-11.8-5.5c0.2,0.1-1.4-1-1.7-1.3c-0.7-0.6-1.4-1.2-2-1.8c-0.4-0.4-0.5-0.4-0.5-0.4c0,0,0-0.1-0.5-0.8c-0.3-0.4-1.6-2.8-1-1.5c-1.3-2.7-1.2-2.6-1.1-5.6c0.1-2.1-0.8-3.4-2.1-4.2c0-0.1,0-0.2,0-0.3c1.8-21.2,22.2-36.8,38.3-47.9c20.5-14.2,42.5-24.8,67.1-30C240.2,391.9,269.2,391,297,392.2z M276.8,199c-0.2,0.1-0.4,0.2-0.6,0.4c-3.8,2.1-7.3,4.7-10.8,7.3c-7.2,5.6-13.6,12.2-19.4,19.1C234.2,240,225,256.4,218,273.4c-6.8,16.6-11.8,34.3-12.4,52.3c-0.7,20.6,6.8,40.2,10.4,60.2c-12.3,2.3-24.5,5.5-36.2,10.2c-18.3,7.2-35.8,18.4-51.2,30.5c-1,0.8-2.1,1.7-3.2,2.6c-0.3-26.4-3.6-52.9,1.2-79.1c2.3-12.6,6.4-25.2,10.6-37.3c4.1-11.9,9.1-23.4,14.8-34.6c11-21.4,25.3-41.6,43.7-57.3c18.8-16,44.1-19,64-32.9c0.4,0,0.9,0,1.3-0.1c0.4,0.1,0.8,0.1,1.3,0.1c1.9,0,3.9,0,5.9,0.2c-0.2,3.9,4.9,7.3,8.7,4.8c1.4,0.7,2.8,1.3,4.2,2C278.5,195.2,277.1,196.9,276.8,199z M343.8,282.2c-8.3,9.7-19.6,16.3-31.5,20.9c10.2-21.5,21.8-42.5,16.4-67.4c-4.6-21.4-19.7-37.6-38.2-48.2c13.4-1.4,27,0.2,39.1,6.7c16.8,9.1,24.4,27.5,26.5,45.7C357.8,255.4,353.9,270.4,343.8,282.2z M393.6,165.9c20.2,10.5,36.1,28.2,43.5,49.8c4.2,12.4,4.6,26,4.3,39c-0.2,9-1.6,18-4.6,26.5c-4.7-19.6-14.4-37.7-28.5-52.4c-6.9-7.2-15.3-10.7-24.6-14.1c-4.5-1.6-8.9-3.2-13.4-4.9c-1.8-0.7-3.5-1.5-5.3-2.4c-1-0.5-2.5-2.2-1.9-0.7c-1.5-3.6-5.4-4.1-8.1-2.7c-4.9-7.5-11.4-14-19.6-18.9c-16.3-9.9-36.4-10.3-54.9-7.1c10.4-15.6,32.7-20.5,50-22.8c3.4-0.4,6.7-0.7,10.1-0.8c1.5,3.2,6.1,5.1,9.3,1.8c0.6-0.6,1.1-1.1,1.7-1.7C366.3,155.3,380.3,159,393.6,165.9z M399.2,122.6c-19.2,1.1-36.9,8.2-51.2,20.5c-19.9-0.7-40,3.5-57.7,12.6c-8.9,4.6-16.5,11.5-21.2,20.4c-0.2,0.4-0.4,0.8-0.5,1.2c-0.3,0-0.6,0-0.9-0.1c0.6-1.8,1.1-3.5,1.6-5.3c2-0.2,3.8-1.6,4-4.3c1.8-21.2,21.8-36.9,38.3-47.5c16.1-10.3,33-16,51.8-18.6c30.9-4.3,72.1-2.1,88.9,27.1C435,124.5,417.1,121.6,399.2,122.6z"/></svg>