<svg xmlns="http://www.w3.org/2000/svg"  viewBox="0 0 48 48" width="64px" height="64px"><path fill="#bcbcbc" d="M10.875,41.094c-0.733,0.678-1.217,1.305-1.851,2.076c-0.39,0.474-0.778,1.017-0.765,1.631 c0.361,0.248,0.849,0.25,1.262,0.105c0.414-0.145,0.768-0.418,1.106-0.697c0.577-0.476,1.129-0.982,1.654-1.516L10.875,41.094z"/><path fill="#bcbcbc" d="M37.625,40.875c-0.324-0.26-0.697-0.544-0.745-0.957l-1.859,1.957 c0.337,0.341,0.598,0.433,1.004,0.688c0.693,0.438,1.387,0.875,2.08,1.313c0.206,0.13,0.455,0.265,0.682,0.174 c0.231-0.094,0.315-0.378,0.324-0.627C39.146,42.403,38.421,41.513,37.625,40.875z"/><polygon fill="#bcbcbc" points="30.229,10.021 28.896,11.667 34.396,14.146 35.354,12.396"/><path fill="#bcbcbc" d="M11.646,12.646l5.146-2.688l1.25,1.958l-4.479,2.521C13.563,14.438,12.833,13.354,11.646,12.646z"/><path fill="#bcbcbc" d="M23.26,6.364c-0.148-0.636-0.401-1.247-0.745-1.802c-1.091,0.309-2.928,1.209-3.974,1.646 l1.528,1.74c0.856-0.421,2.086-1.098,3.015-1.316c0.065-0.015,0.138-0.035,0.172-0.093C23.286,6.487,23.274,6.422,23.26,6.364z"/><path fill="#d6e5e5" d="M17.001,16.207c-1.282,0.671-2.232,1.295-3.105,2.472c-3.003,4.051-4.337,9.556-2.843,14.415 c0.197,0.642,0.44,1.267,0.683,1.892c0.498,1.281,1.007,2.581,1.834,3.667c1.144,1.501,2.833,2.488,4.607,3.039 c1.774,0.55,3.642,0.694,5.493,0.751c1.25,0.038,2.515,0.036,3.729-0.271c1.297-0.328,2.489-0.994,3.622-1.72 c2.26-1.448,4.443-3.283,5.459-5.817c0.607-1.514,0.755-3.174,0.885-4.806c0.089-1.127,0.172-2.257,0.116-3.386 c-0.171-3.448-1.698-6.804-4.161-9.145c-0.99-0.941-2.136-1.729-3.414-2.166c-1.478-0.506-3.065-0.528-4.622-0.544 C22.33,14.555,19.635,14.828,17.001,16.207z"/><path fill="#ef4823" d="M25.552,10.678c1.878,0.483,3.725,1.093,5.523,1.825c1.523,0.62,3.046,1.351,4.196,2.534 c1.05,1.081,1.723,2.47,2.361,3.84c1.432,3.073,2.806,6.293,2.856,9.689c0.024,1.632-0.261,3.255-0.673,4.833 c-0.714,2.734-1.858,5.434-3.836,7.437c-2.519,2.55-6.113,3.7-9.633,4.28c-2.618,0.431-5.308,0.595-7.916,0.109 c-2.608-0.485-5.141-1.658-6.963-3.604c-1.069-1.141-1.866-2.51-2.604-3.892c-0.881-1.65-1.7-3.364-2.043-5.206 c-0.485-2.604,0.013-5.288,0.658-7.855c0.64-2.542,1.451-5.099,2.988-7.214c1.449-1.993,3.474-3.494,5.625-4.676 c1.854-1.019,3.907-1.817,5.99-2.165C23.069,10.446,24.581,10.429,25.552,10.678z M17.001,16.207 c-1.282,0.671-2.232,1.295-3.105,2.472c-3.003,4.051-4.337,9.556-2.843,14.415c0.197,0.642,0.44,1.267,0.683,1.892 c0.498,1.281,1.007,2.581,1.834,3.667c1.144,1.501,2.833,2.488,4.607,3.039c1.774,0.55,3.642,0.694,5.493,0.751 c1.25,0.038,2.515,0.036,3.729-0.271c1.297-0.328,2.489-0.994,3.622-1.72c2.26-1.448,4.443-3.283,5.459-5.817 c0.607-1.514,0.755-3.174,0.885-4.806c0.089-1.127,0.172-2.257,0.116-3.386c-0.171-3.448-1.698-6.804-4.161-9.145 c-0.99-0.941-2.136-1.729-3.414-2.166c-1.478-0.506-3.065-0.528-4.622-0.544C22.33,14.555,19.635,14.828,17.001,16.207z"/><path fill="#010101" d="M24.633,42.959c-0.336,0-0.663-0.008-0.978-0.018c-1.72-0.053-3.733-0.186-5.626-0.773 c-2.063-0.639-3.742-1.75-4.856-3.214c-0.877-1.15-1.398-2.491-1.902-3.787c-0.242-0.623-0.493-1.268-0.695-1.927 c-1.465-4.761-0.347-10.455,2.919-14.859c0.915-1.235,1.894-1.895,3.275-2.617l0,0c2.905-1.521,5.804-1.723,8.521-1.678 c1.504,0.015,3.208,0.032,4.779,0.57c1.247,0.428,2.457,1.194,3.597,2.277c2.564,2.438,4.137,5.894,4.314,9.482 c0.057,1.124-0.02,2.228-0.117,3.451c-0.116,1.477-0.262,3.314-0.918,4.952c-0.895,2.23-2.69,4.153-5.653,6.052 c-1.058,0.678-2.333,1.42-3.77,1.783C26.557,42.899,25.562,42.959,24.633,42.959z M24.831,15.084c-2.448,0-5.044,0.229-7.599,1.566 l0,0c-1.252,0.654-2.134,1.245-2.936,2.326c-3.079,4.153-4.139,9.507-2.767,13.971c0.192,0.624,0.437,1.251,0.672,1.856 c0.479,1.232,0.975,2.506,1.766,3.545c1.248,1.638,3.059,2.462,4.358,2.864c1.772,0.551,3.624,0.676,5.36,0.729 c1.113,0.036,2.401,0.045,3.59-0.256c1.299-0.329,2.486-1.021,3.477-1.656c2.778-1.781,4.451-3.555,5.265-5.582 c0.555-1.386,0.708-2.867,0.85-4.659c0.095-1.188,0.168-2.258,0.115-3.322c-0.166-3.335-1.626-6.546-4.006-8.808 c-1.034-0.983-2.122-1.676-3.231-2.057c-1.419-0.485-2.968-0.501-4.465-0.516C25.131,15.084,24.981,15.084,24.831,15.084z M17.001,16.207h0.01H17.001z"/><path fill="#73a1b2" d="M28.361,34.418c-0.04-0.11-0.107-0.209-0.174-0.306c-0.805-1.159-2.063-3.484-3.187-4.734 c0.08-0.251,0.121-0.515,0.069-0.775c-0.093-0.469-0.289-0.733-0.618-0.899c-0.076-2.082-0.305-4.497-0.077-6.47 c0.04-0.347,0.083-0.705-0.008-1.042c-0.091-0.338-0.353-0.655-0.7-0.698c-0.364-0.046-0.709,0.223-0.869,0.553 c-0.161,0.33-0.178,0.708-0.193,1.075c-0.076,1.904,0.27,4.422,0.307,6.489c-0.039,0.015-0.07,0.025-0.113,0.043 c-0.461,0.193-0.832,0.607-0.938,1.095c-0.128,0.587,0.153,1.234,0.655,1.565c0.356,0.235,0.805,0.301,1.224,0.219 c0.941,1.351,2.198,3.58,3.159,4.415c0.218,0.19,0.46,0.385,0.748,0.408C28.111,35.392,28.519,34.857,28.361,34.418z"/><path fill="#010101" d="M28.831,34.247c-0.061-0.168-0.153-0.306-0.232-0.419c-0.3-0.431-0.596-0.955-0.908-1.511 c-0.63-1.116-1.283-2.267-2.142-3.01c0.054-0.264,0.065-0.536,0.012-0.802c-0.094-0.472-0.287-0.807-0.582-1.051 c-0.013-0.749-0.058-1.46-0.102-2.156c-0.085-1.339-0.166-2.604-0.003-4.021c0.043-0.371,0.092-0.791-0.024-1.215 c-0.116-0.434-0.403-0.782-0.76-0.955c0-0.272,0-0.701-0.001-1.139c-0.001-0.617-0.003-1.235,0-1.375 c0.005-0.276-0.215-0.504-0.491-0.509c-0.259,0.019-0.504,0.215-0.509,0.491c-0.002,0.143-0.001,0.769,0,1.395 c0.001,0.441,0.002,0.876,0.001,1.143c-0.329,0.15-0.597,0.418-0.743,0.715c-0.208,0.43-0.227,0.897-0.242,1.274 c-0.044,1.124,0.029,2.22,0.101,3.279c0.065,0.972,0.126,1.976,0.098,2.982c-0.469,0.295-0.819,0.755-0.932,1.279 c-0.17,0.78,0.187,1.639,0.868,2.088c0.346,0.229,0.755,0.344,1.167,0.344c0.052,0,0.103-0.016,0.155-0.019 c0.018,0.04,0.034,0.081,0.063,0.117c0.367,0.442,0.719,1.026,1.09,1.644c0.558,0.925,1.133,1.881,1.856,2.51 c0.212,0.184,0.566,0.49,1.035,0.528c0.029,0.003,0.058,0.004,0.086,0.004c0.359,0,0.706-0.179,0.943-0.488 C28.89,35.034,28.964,34.615,28.831,34.247z M23.301,26.986c0.004-0.91-0.04-1.806-0.098-2.672 c-0.069-1.034-0.142-2.104-0.099-3.174c0.012-0.312,0.025-0.635,0.142-0.875c0.08-0.163,0.24-0.296,0.358-0.276 c0.109,0.014,0.232,0.16,0.279,0.335c0.065,0.239,0.031,0.53-0.006,0.853c-0.172,1.492-0.088,2.801,0.001,4.186 c0.034,0.541,0.064,1.097,0.084,1.668C23.703,26.983,23.498,26.964,23.301,26.986z M22.79,29.896 c-0.339-0.224-0.524-0.661-0.442-1.042c0.068-0.314,0.32-0.604,0.643-0.74c0.233-0.097,0.351-0.138,0.496-0.138 c0.091,0,0.193,0.017,0.344,0.044c0,0,0,0,0.001,0c0.512,0.096,0.659,0.229,0.749,0.682c0.092,0.46-0.163,0.986-0.594,1.224 C23.615,30.131,23.124,30.117,22.79,29.896z M27.84,34.761c-0.045,0.061-0.125,0.091-0.153,0.096 c-0.132-0.011-0.301-0.148-0.461-0.287c-0.604-0.525-1.138-1.412-1.654-2.271c-0.342-0.567-0.671-1.091-1.022-1.552 c0.209-0.129,0.392-0.292,0.544-0.48c0.639,0.642,1.193,1.598,1.726,2.542c0.325,0.575,0.632,1.119,0.959,1.592 c0.047,0.066,0.094,0.135,0.112,0.186C27.906,34.63,27.886,34.701,27.84,34.761z"/><path fill="#010101" d="M28.887,20.237c-0.064,0-0.131-0.013-0.194-0.039c-0.254-0.107-0.374-0.4-0.267-0.655 c0.232-0.553,0.444-1.121,0.629-1.688c0.086-0.263,0.368-0.406,0.63-0.321c0.263,0.086,0.406,0.368,0.321,0.63 c-0.193,0.594-0.415,1.188-0.658,1.768C29.268,20.122,29.082,20.237,28.887,20.237z"/><path fill="#010101" d="M31.592,23.341c-0.172,0-0.34-0.089-0.433-0.249c-0.139-0.239-0.057-0.545,0.182-0.684l1.229-0.713 c0.021-0.059,0.053-0.112,0.093-0.157c0.132-0.147,0.391-0.212,0.578-0.153c0.188,0.06,0.353,0.255,0.375,0.45 c0.011,0.1,0.012,0.406-0.337,0.604l-1.436,0.834C31.764,23.319,31.678,23.341,31.592,23.341z M32.779,21.573 c-0.001,0-0.001,0.001-0.002,0.001L32.779,21.573z"/><path fill="#010101" d="M32.54,27.97c-0.225,0-0.445-0.01-0.662-0.036c-0.274-0.032-0.47-0.281-0.437-0.556 s0.292-0.478,0.556-0.437c0.547,0.064,1.191,0.006,1.817-0.05c0.283-0.025,0.562-0.051,0.825-0.064 c0.278-0.018,0.512,0.197,0.525,0.473c0.015,0.276-0.197,0.512-0.473,0.525c-0.252,0.014-0.518,0.038-0.788,0.063 C33.453,27.929,32.991,27.97,32.54,27.97z"/><path fill="#010101" d="M33.792,33.292c-0.127,0-0.254-0.048-0.352-0.145c-0.417-0.412-0.919-0.757-1.453-0.996 c-0.252-0.112-0.365-0.408-0.252-0.66c0.112-0.252,0.409-0.366,0.66-0.252c0.652,0.292,1.24,0.694,1.748,1.197 c0.196,0.194,0.198,0.511,0.004,0.707C34.05,33.242,33.921,33.292,33.792,33.292z"/><path fill="#010101" d="M30.912,37.922c-0.129,0-0.258-0.05-0.355-0.148c-0.365-0.369-0.706-0.77-1.014-1.19 c-0.162-0.224-0.113-0.536,0.109-0.699c0.223-0.162,0.535-0.113,0.699,0.109c0.277,0.381,0.586,0.743,0.916,1.077 c0.194,0.196,0.192,0.513-0.004,0.707C31.166,37.874,31.039,37.922,30.912,37.922z"/><path fill="#010101" d="M23.45,40.252c-0.266,0-0.486-0.208-0.499-0.476c-0.052-1.063-0.061-2.144-0.027-3.208 c0.009-0.275,0.237-0.487,0.516-0.484c0.276,0.009,0.493,0.239,0.484,0.516c-0.033,1.039-0.024,2.091,0.025,3.128 c0.014,0.276-0.199,0.511-0.475,0.523C23.466,40.252,23.458,40.252,23.45,40.252z"/><path fill="#010101" d="M17.982,39.064c-0.132,0-0.264-0.052-0.361-0.154c-0.191-0.2-0.184-0.517,0.016-0.707l1.365-1.302 c0.199-0.189,0.516-0.184,0.707,0.018c0.19,0.2,0.183,0.517-0.018,0.707l-1.363,1.3C18.23,39.019,18.106,39.064,17.982,39.064z"/><path fill="#010101" d="M14.471,35.206c-0.147,0-0.293-0.065-0.392-0.189c-0.172-0.217-0.136-0.531,0.081-0.702 c0.385-0.305,0.837-0.533,1.309-0.661c0.379-0.107,0.639,0.083,0.745,0.279c0.104,0.196,0.058,0.485-0.104,0.641 c-0.146,0.141-0.413,0.19-0.605,0.118c-0.262,0.098-0.508,0.235-0.724,0.406C14.689,35.171,14.58,35.206,14.471,35.206z M15.737,34.616c-0.002,0.001-0.003,0.001-0.004,0.001C15.734,34.617,15.735,34.617,15.737,34.616z"/><path fill="#010101" d="M12.8,30.123c-0.264,0-0.484-0.206-0.499-0.472c-0.016-0.276,0.195-0.512,0.471-0.527 c0.566-0.031,1.193-0.023,1.824-0.016c0.57,0.008,1.143,0.016,1.658-0.008c0.093-0.078,0.202-0.138,0.347-0.117 c0.275,0.013,0.488,0.248,0.475,0.523c-0.013,0.268-0.226,0.565-0.662,0.586c-0.564,0.032-1.2,0.024-1.831,0.016 c-0.605-0.009-1.211-0.016-1.754,0.014C12.818,30.123,12.809,30.123,12.8,30.123z M16.077,29.457L16.077,29.457L16.077,29.457z M16.36,29.095c-0.001,0-0.001,0-0.002,0C16.359,29.095,16.359,29.095,16.36,29.095z"/><path fill="#010101" d="M16.736,24.734c-0.024,0-0.05-0.002-0.074-0.006c-0.157-0.024-0.305-0.136-0.388-0.277l-1.447-0.847 c-0.238-0.14-0.318-0.446-0.179-0.685c0.139-0.238,0.445-0.316,0.685-0.179l1.618,0.947c0.264,0.149,0.381,0.432,0.285,0.7 C17.164,24.592,16.95,24.734,16.736,24.734z M16.445,24.552c0.002,0.001,0.005,0.003,0.007,0.004L16.445,24.552z"/><path fill="#010101" d="M19.371,21.281c-0.159,0-0.316-0.076-0.413-0.219c-0.397-0.584-0.833-1.153-1.293-1.693 c-0.18-0.21-0.154-0.525,0.056-0.704c0.209-0.179,0.525-0.155,0.704,0.056c0.484,0.566,0.942,1.166,1.359,1.779 c0.155,0.229,0.097,0.539-0.132,0.694C19.566,21.253,19.469,21.281,19.371,21.281z"/><path fill="#f58420" d="M25.771,8.375c4.554,1.117,8.583,3.721,12.812,6.002c0.21,0.113,0.464,0.216,0.677,0.108 c0.133-0.068,0.218-0.207,0.291-0.341c0.858-1.579,1.12-3.498,0.718-5.262c-0.402-1.765-1.463-3.358-2.912-4.37 c-0.714-0.499-1.509-0.857-2.298-1.211c-0.511-0.23-1.026-0.46-1.568-0.596c-1.513-0.379-3.147,0.026-4.467,0.882 s-2.472,2.275-3.27,3.663C25.552,7.602,25.407,8.218,25.771,8.375z"/><path fill="#f58420" d="M9.5,14.453c3.114-2.62,6.633-4.314,10.441-5.747c-0.049-1.554-1.603-2.565-2.975-3.298 c-1.187-0.634-2.389-1.275-3.696-1.593c-1.307-0.319-2.752-0.286-3.922,0.379C7.72,5.118,6.749,7.01,6.583,8.875 C6.385,11.112,7.461,13.512,9.5,14.453z"/><path fill="#010101" d="M40.988,28.559c-0.051-3.488-1.462-6.8-2.903-9.893c-0.709-1.522-1.383-2.873-2.456-3.978 c-0.213-0.219-0.448-0.404-0.68-0.594l0.515-0.872c0.135,0.076,0.269,0.15,0.405,0.226c0.821,0.46,1.646,0.921,2.479,1.37 c0.115,0.062,0.396,0.212,0.717,0.212c0.137,0,0.281-0.026,0.424-0.1c0.283-0.145,0.426-0.407,0.503-0.548 c0.916-1.686,1.194-3.73,0.766-5.612c-0.429-1.885-1.563-3.587-3.112-4.669c-0.755-0.527-1.581-0.898-2.38-1.257 c-0.522-0.234-1.063-0.478-1.651-0.625c-1.56-0.393-3.331-0.044-4.86,0.949c-1.704,1.106-2.881,2.876-3.43,3.832 c-0.192,0.332-0.365,0.875-0.221,1.312c0.079,0.239,0.246,0.425,0.471,0.521c0.025,0.011,0.052,0.02,0.079,0.026 c1.25,0.307,2.453,0.73,3.636,1.224l-0.663,0.984c-0.975-0.325-1.959-0.62-2.947-0.874c-0.754-0.193-1.764-0.23-2.655-0.179 c0,0,0,0-0.001,0c-0.026-0.021-0.066-0.094-0.121-0.215l-0.957-2.115c-0.013-0.029-0.036-0.05-0.054-0.075 c0.462-0.212,0.922-0.4,1.31-0.49c0.095-0.022,0.346-0.083,0.491-0.334c0.128-0.228,0.075-0.452,0.056-0.534 c-0.16-0.69-0.432-1.347-0.807-1.952c-0.117-0.188-0.342-0.278-0.562-0.218c-0.801,0.228-1.936,0.736-2.938,1.186 c-0.373,0.167-0.715,0.32-1.007,0.443c-0.402-0.277-0.824-0.525-1.232-0.743c-1.198-0.64-2.438-1.302-3.813-1.637 c-1.595-0.388-3.116-0.236-4.287,0.43C7.436,4.705,6.279,6.647,6.085,8.831c-0.23,2.6,1.088,5.099,3.205,6.076 c0.067,0.031,0.139,0.046,0.21,0.046c0.115,0,0.23-0.04,0.322-0.117c0.648-0.545,1.328-1.061,2.048-1.554 c0.013,0.008,0.022,0.02,0.036,0.027c0.271,0.131,0.749,0.596,1.003,0.953c-1.141,0.893-2.088,1.852-2.847,2.896 c-1.632,2.247-2.467,4.994-3.069,7.386c-0.646,2.572-1.174,5.33-0.664,8.069c0.358,1.926,1.218,3.71,2.093,5.35 c0.541,1.013,1.138,2.058,1.858,3.013c-0.525,0.516-0.936,1.012-1.393,1.573l-0.247,0.303c-0.467,0.566-0.896,1.196-0.879,1.96 c0.004,0.161,0.084,0.31,0.217,0.401c0.279,0.192,0.624,0.291,0.988,0.291c0.236,0,0.481-0.042,0.722-0.127 c0.496-0.173,0.894-0.481,1.26-0.782c0.532-0.439,1.041-0.915,1.53-1.403c1.618,1.23,3.64,2.11,5.862,2.523 c1.086,0.202,2.234,0.304,3.463,0.304c1.428,0,2.962-0.137,4.626-0.411c3.573-0.588,6.353-1.645,8.461-3.194 c0.196,0.161,0.383,0.286,0.572,0.395c0.092,0.053,0.189,0.108,0.298,0.177l2.079,1.312c0.146,0.094,0.444,0.282,0.792,0.282 c0.11,0,0.227-0.019,0.344-0.066c0.381-0.153,0.619-0.554,0.638-1.072c0.046-1.301-0.885-2.326-1.707-2.984 c-0.208-0.166-0.43-0.351-0.499-0.526c1.252-1.668,2.208-3.775,2.895-6.406C40.785,31.664,41.011,30.04,40.988,28.559z M26.188,7.5 c0.859-1.495,1.992-2.768,3.108-3.493c1.297-0.842,2.781-1.142,4.073-0.816c0.503,0.126,1.001,0.35,1.483,0.566 c0.757,0.34,1.539,0.69,2.218,1.165c1.348,0.941,2.335,2.425,2.71,4.071c0.375,1.647,0.132,3.438-0.67,4.912 c-0.044,0.081-0.069,0.118-0.062,0.126c-0.024-0.003-0.09-0.019-0.229-0.094c-0.827-0.446-1.646-0.904-2.464-1.362 c-3.267-1.828-6.643-3.718-10.309-4.646C26.055,7.825,26.102,7.651,26.188,7.5z M30.119,10.64c0.034-0.051,0.054-0.106,0.068-0.162 c1.477,0.669,2.929,1.44,4.403,2.257l-0.451,0.764c-0.913-0.598-1.9-1.063-2.875-1.459c-0.549-0.224-1.113-0.414-1.673-0.616 L30.119,10.64z M21.034,8.097l0.918,2.031c-1.293,0.221-2.612,0.626-3.938,1.181c-0.215-0.297-0.377-0.558-0.594-0.912 l-0.055-0.089c-0.002-0.003-0.006-0.005-0.008-0.008c0.866-0.381,1.777-0.755,2.76-1.125c0.2-0.075,0.331-0.27,0.324-0.483 c-0.004-0.12-0.033-0.23-0.051-0.344l0.399-0.2c0.073-0.037,0.154-0.077,0.23-0.115C21.026,8.053,21.025,8.075,21.034,8.097z M19.851,6.179c0.779-0.349,1.719-0.77,2.432-1.018c0.177,0.335,0.317,0.687,0.423,1.056c-0.765,0.228-1.645,0.673-2.367,1.038 l-0.267,0.133c-0.195-0.355-0.453-0.678-0.756-0.97C19.486,6.342,19.664,6.262,19.851,6.179z M9.434,13.858 c-1.578-0.889-2.536-2.87-2.353-4.939c0.166-1.86,1.129-3.504,2.515-4.29c0.596-0.338,1.315-0.51,2.102-0.51 c0.466,0,0.955,0.061,1.455,0.182c1.252,0.306,2.435,0.938,3.579,1.548c1.195,0.64,2.42,1.435,2.666,2.53 C15.157,10.002,12.057,11.706,9.434,13.858z M12.779,12.692c1.115-0.701,2.336-1.358,3.688-1.988 c0.012,0.043,0.022,0.087,0.047,0.127l0.055,0.089c0.182,0.297,0.334,0.542,0.513,0.8c-0.41,0.195-0.82,0.393-1.231,0.618 c-0.775,0.427-1.482,0.871-2.138,1.331C13.475,13.34,13.13,12.967,12.779,12.692z M10.31,43.824 c-0.295,0.243-0.612,0.491-0.954,0.61C9.163,44.503,8.965,44.521,8.8,44.49c0.096-0.34,0.345-0.68,0.611-1.003l0.25-0.306 c0.42-0.515,0.798-0.972,1.259-1.434c0.062,0.07,0.116,0.146,0.18,0.214c0.19,0.203,0.394,0.396,0.602,0.586 C11.254,42.99,10.794,43.425,10.31,43.824z M37.313,41.266c0.609,0.487,1.329,1.255,1.298,2.141 c-0.003,0.088-0.021,0.15-0.006,0.169c-0.033-0.01-0.102-0.038-0.233-0.122l-2.08-1.313c-0.121-0.077-0.23-0.14-0.333-0.198 c-0.103-0.059-0.187-0.11-0.27-0.164c0.221-0.193,0.443-0.385,0.647-0.591c0.14-0.142,0.271-0.295,0.405-0.445 C36.914,40.946,37.125,41.115,37.313,41.266z M39.332,33.272c-0.826,3.162-2.039,5.521-3.708,7.211 c-2.062,2.087-5.123,3.44-9.359,4.139c-2.978,0.489-5.513,0.526-7.743,0.111c-2.699-0.503-5.075-1.729-6.69-3.455 c-0.976-1.042-1.716-2.267-2.527-3.785c-0.838-1.569-1.659-3.269-1.993-5.063c-0.474-2.55,0.033-5.18,0.652-7.642 c0.578-2.299,1.376-4.933,2.907-7.042c1.247-1.715,3.033-3.197,5.461-4.532c1.943-1.067,3.96-1.797,5.833-2.11 c0.892-0.15,2.34-0.179,3.265,0.059c1.848,0.475,3.685,1.081,5.458,1.803c1.438,0.585,2.921,1.283,4.025,2.42 c0.964,0.992,1.597,2.264,2.267,3.702c1.396,2.995,2.762,6.195,2.81,9.486C40.01,29.982,39.801,31.476,39.332,33.272z"/></svg>