<svg xmlns="http://www.w3.org/2000/svg"  viewBox="0 0 48 48" width="64px" height="64px"><path fill="#38b47b" d="M18.396,14.521c-1.458-2.125-2.457-3.525-4.688-3.871c-2.231-0.346-5.317,0.064-7.153,1.378 c0.612,0.73,1.237,1.471,2.039,1.984c0.486,0.311,4.599,2.372,5.947,2.468C15.89,16.575,17.237,15.216,18.396,14.521z"/><path fill="#38b47b" d="M25.516,13.531c-0.147,0.453-6.719-3.594-2.588-9.957c0.578,0.83,1.156,1.66,1.734,2.49 c0.553,0.794,1.113,1.601,1.437,2.522C26.691,10.268,26.071,11.82,25.516,13.531z"/><path fill="#a37b57" d="M4.516,21.547c0.114,6.961,0.975,14.971,1.089,21.932c3.578,0.979,8.102,0.107,11.801-0.176 c4.149-0.317,7.477,0.483,11.626,0.165c1.752-0.134,6.252-0.149,8.168,0.002c1.997,0.157,4.22,0.766,6.212,0.976 c1.34-7.861,1.24-15.904,0.057-23.791c-4.548,0.703-8.492-0.209-13.094-0.135c-2.201,0.035-5.321,0.56-7.522,0.522 c-2.844-0.049-5.109-1.286-7.947-1.48S6.936,20.053,4.516,21.547z"/><path fill="#513620" d="M4.516,21.547c0.025,1.031,0.105,2.931,0.123,3.964c7.403-1.219,32.549-0.792,39.316-1.032 c-0.119-1.573-0.209-2.491-0.486-3.823c-4.548,0.703-8.492-0.209-13.094-0.135c-2.201,0.035-5.321,0.56-7.522,0.522 c-2.844-0.049-5.109-1.286-7.947-1.48S6.936,20.053,4.516,21.547z"/><path fill="#38b47b" d="M31.5,12.594c0-2.156,1.025-4.091,2.142-4.807c2.556-1.639,5.885-1.565,8.817-0.775 c-1.019,2.729-3.546,5.345-6.27,6.377C35.137,13.787,32.62,12.489,31.5,12.594"/><path fill="#010101" d="M43.963,20.582c-0.02-0.132-0.091-0.25-0.198-0.328c-0.107-0.08-0.241-0.111-0.373-0.092 c-2.748,0.425-5.254,0.251-7.907,0.063c-1.638-0.115-3.334-0.238-5.119-0.205c-0.7,0.011-1.499,0.073-2.314,0.148 c0.555-2.334,1.622-5.047,3.664-7.07c0.416,0.015,1.052,0.2,1.683,0.386c0.832,0.246,1.63,0.481,2.291,0.481 c0.246,0,0.473-0.033,0.675-0.109c2.836-1.075,5.473-3.755,6.561-6.67c0.049-0.132,0.041-0.278-0.023-0.403 c-0.064-0.125-0.179-0.218-0.315-0.254c-3.592-0.97-6.866-0.671-9.217,0.837c-1.143,0.733-2.291,2.678-2.359,5.016 c-1.69,1.673-2.758,3.767-3.428,5.778c-0.308-1.51-0.88-3.283-1.473-4.84l0.022-0.068c0.532-1.611,1.035-3.134,0.437-4.831 c-0.348-0.99-0.933-1.83-1.499-2.643l-1.733-2.489c-0.095-0.137-0.231-0.195-0.418-0.215c-0.167,0.003-0.321,0.088-0.412,0.228 c-2.258,3.479-1.46,6.243-0.394,7.949c0.986,1.578,2.469,2.654,3.2,2.787c0.422,1.144,0.816,2.367,1.095,3.476 c-1.366-1.395-4.677-2.423-7.574-3.21c-0.011-0.022-0.014-0.046-0.028-0.067c-1.417-2.064-2.537-3.695-5.023-4.082 c-2.168-0.335-5.445-0.02-7.521,1.466c-0.113,0.081-0.188,0.205-0.205,0.344c-0.018,0.138,0.023,0.277,0.113,0.384 c0.6,0.715,1.279,1.524,2.153,2.084c0.479,0.307,4.676,2.438,6.181,2.546c0.057,0.004,0.114,0.006,0.17,0.006 c1.105,0,2.135-0.743,3.049-1.401c0.19-0.137,0.375-0.268,0.557-0.392c2.766,0.744,6.204,1.772,7.424,3.032 c0.607,0.626,0.88,1.282,0.897,2.084c-1.32,0.13-2.665,0.252-3.742,0.236c-1.443-0.024-2.723-0.366-4.077-0.728 c-1.209-0.323-2.459-0.657-3.844-0.752c-2.707-0.186-8.069,0.44-10.688,2.058c-0.15,0.093-0.24,0.258-0.237,0.434 c0.057,3.492,0.305,7.302,0.545,10.987c0.24,3.676,0.487,7.477,0.543,10.945c0.004,0.223,0.154,0.416,0.368,0.475 c2.871,0.784,6.344,0.414,9.409,0.089c0.882-0.095,1.742-0.186,2.562-0.248c2.041-0.158,3.922-0.034,5.743,0.082 c1.854,0.121,3.774,0.243,5.883,0.083c1.688-0.131,6.157-0.151,8.091,0.001c1.042,0.082,2.177,0.297,3.276,0.504 c0.972,0.183,1.976,0.372,2.923,0.472c0.018,0.002,0.035,0.003,0.053,0.003c0.241,0,0.451-0.174,0.492-0.416 C45.193,36.971,45.213,28.913,43.963,20.582z M33.912,8.208c2.595-1.664,5.853-1.319,7.865-0.852 c-1.091,2.425-3.392,4.665-5.765,5.564c-0.433,0.164-1.484-0.146-2.328-0.396c-0.348-0.102-0.681-0.195-1.001-0.273 c0.697-0.534,1.482-0.996,2.377-1.35c0.257-0.102,0.382-0.393,0.281-0.648c-0.102-0.259-0.393-0.385-0.649-0.281 c-0.973,0.385-1.828,0.883-2.585,1.458C32.384,9.904,33.166,8.685,33.912,8.208z M14.577,15.98 c-1.187-0.084-5.204-2.064-5.713-2.39c-0.589-0.378-1.088-0.904-1.558-1.45c1.792-1.022,4.456-1.288,6.326-0.997 c1.678,0.26,2.567,1.151,3.726,2.766c-0.006-0.001-0.012-0.003-0.017-0.005c-0.919-0.242-1.736-0.456-2.347-0.648 c-0.265-0.085-0.544,0.064-0.626,0.328c-0.083,0.264,0.064,0.544,0.328,0.627c0.608,0.19,1.418,0.404,2.328,0.644 C16.195,15.451,15.338,16.035,14.577,15.98z M22.497,9.824c-0.706-1.688-0.549-3.478,0.462-5.329l1.292,1.855 c0.527,0.757,1.072,1.54,1.375,2.402c0.366,1.039,0.21,2.036-0.102,3.111c-0.309-0.722-0.6-1.342-0.836-1.771 c-0.133-0.242-0.435-0.332-0.679-0.198c-0.242,0.133-0.331,0.437-0.198,0.679c0.283,0.515,0.623,1.251,0.97,2.095 C24.079,12.16,23.065,11.184,22.497,9.824z M14.872,20.062c1.289,0.088,2.491,0.409,3.655,0.72 c1.353,0.361,2.752,0.734,4.317,0.762c1.225,0.018,2.712-0.126,4.154-0.27c1.233-0.122,2.397-0.237,3.385-0.253 c1.745-0.021,3.416,0.09,5.033,0.203c2.552,0.179,4.97,0.347,7.63-0.002c0.134,0.927,0.248,1.849,0.35,2.768 c-3.504-0.032-7.226,0.051-10.836,0.139c-3.713,0.089-7.556,0.181-11.133,0.138c-4.699-0.058-11.13-0.142-16.202,0.752 c-0.035,0.006-0.064,0.025-0.096,0.037c-0.048-1.094-0.089-2.176-0.109-3.225C7.465,20.479,12.327,19.894,14.872,20.062z M42.997,43.895c-0.772-0.103-1.585-0.256-2.375-0.405c-1.125-0.212-2.287-0.431-3.383-0.517c-0.952-0.075-2.508-0.108-4.057-0.108 c-1.654,0-3.3,0.038-4.189,0.105c-2.039,0.159-3.921,0.035-5.743-0.082c-1.855-0.121-3.774-0.243-5.883-0.083 c-0.829,0.063-1.699,0.156-2.591,0.251c-2.984,0.318-6.064,0.646-8.679,0.033C6.029,39.7,5.79,36.03,5.559,32.477 c-0.14-2.153-0.278-4.343-0.384-6.49c0.044,0.013,0.09,0.024,0.138,0.024c0.029,0,0.058-0.002,0.087-0.008 c4.979-0.877,11.356-0.795,16.015-0.736c1.798,0.022,3.658,0.01,5.535-0.019c0.021,0.3,0.003,0.645-0.033,1.024 c-0.014,0.149-0.027,0.298-0.038,0.448c-0.066,0.35-0.292,0.716-0.673,1.086c-0.517,0.504-1.143,0.913-1.812,1.186 c-0.125,0.051-0.253,0.098-0.38,0.145c-0.364,0.134-0.741,0.272-1.094,0.504c-0.258,0.17-0.458,0.398-0.637,0.645 c-0.011,0.011-0.026,0.016-0.036,0.029c-0.572,0.687-1.354,0.688-2.186,0.675c-0.381-0.002-0.743-0.005-1.082,0.063 c-0.437,0.089-1.002,0.338-1.456,0.538l-0.271,0.118c-0.668,0.288-2.042,0.5-2.531,0.326c-0.259-0.092-0.546,0.042-0.639,0.302 c-0.093,0.261,0.042,0.547,0.302,0.64c0.243,0.087,0.544,0.123,0.868,0.123c0.587,0,1.236-0.12,1.757-0.263 c-0.145,0.235-0.318,0.471-0.493,0.704c-0.173,0.23-0.339,0.452-0.471,0.665c-0.145,0.234-0.072,0.543,0.163,0.688 c0.082,0.05,0.172,0.074,0.262,0.074c0.167,0,0.332-0.084,0.426-0.237c0.117-0.188,0.266-0.385,0.419-0.59 c0.395-0.525,0.816-1.116,0.955-1.785c0.32-0.137,0.666-0.275,0.906-0.323c0.238-0.049,0.548-0.044,0.876-0.044 c0.435,0.008,0.945,0.01,1.456-0.113c-0.023,0.064-0.048,0.127-0.071,0.191c-0.308,0.854-0.598,1.66-1.159,1.961 c-0.244,0.131-0.335,0.434-0.204,0.677c0.09,0.168,0.263,0.264,0.441,0.264c0.08,0,0.161-0.02,0.236-0.06 c0.898-0.482,1.269-1.51,1.627-2.503c0.294-0.817,0.573-1.59,1.089-1.93c0.257-0.169,0.564-0.281,0.89-0.401 c0.138-0.051,0.276-0.102,0.412-0.157c0.787-0.32,1.525-0.803,2.133-1.395c0.058-0.056,0.103-0.114,0.156-0.171 c0.145,0.336,0.348,0.618,0.553,0.883c0.076,0.1,0.153,0.199,0.225,0.301c0.469,0.668,0.711,1.484,0.685,2.301l-0.003,0.062 c-0.068,0.219-0.258,0.567-0.577,1.052l-0.28,0.423c-0.253,0.372-0.54,0.794-0.644,1.309c-0.092,0.451-0.029,0.905,0.026,1.306 c0.064,0.466,0.12,0.867-0.051,1.158c-0.14,0.238-0.061,0.544,0.177,0.685c0.08,0.047,0.167,0.069,0.253,0.069 c0.171,0,0.338-0.088,0.431-0.246c0.349-0.591,0.259-1.234,0.181-1.803c-0.049-0.353-0.095-0.687-0.037-0.97 c0.064-0.317,0.271-0.623,0.491-0.946l0.287-0.434c0.01-0.015,0.019-0.029,0.028-0.044c0.135,0.195,0.29,0.364,0.43,0.495 l1.979,1.85c0.048,0.085,0.12,0.148,0.205,0.192l0.945,0.884c0.045,0.056,0.108,0.207,0.137,0.317 c-0.068,0.104-0.097,0.234-0.072,0.366c0.045,0.239,0.255,0.406,0.491,0.406c0.031,0,0.063-0.003,0.094-0.009 c0.229-0.044,0.406-0.208,0.473-0.44c0.125-0.431-0.173-1.12-0.426-1.357l-0.013-0.013c0.485,0.141,0.948,0.383,1.298,0.711 c0.097,0.09,0.219,0.135,0.342,0.135c0.133,0,0.267-0.053,0.365-0.158c0.188-0.202,0.178-0.519-0.023-0.707 c-0.824-0.77-2.066-1.187-3.175-1.097l-1.935-1.811c-0.148-0.138-0.287-0.269-0.352-0.403c-0.086-0.182-0.071-0.444-0.056-0.724 l0.004-0.085c0.042-0.209,0.044-0.411-0.016-0.604c-0.057-0.873-0.339-1.728-0.843-2.444c-0.08-0.114-0.166-0.226-0.251-0.337 c-0.189-0.245-0.368-0.477-0.458-0.721c-0.143-0.384-0.087-0.971-0.034-1.538c0.036-0.381,0.07-0.771,0.052-1.137 c1.544-0.028,3.093-0.063,4.621-0.1c3.637-0.089,7.395-0.174,10.908-0.138C44.136,31.532,43.978,37.873,42.997,43.895z"/></svg>