<svg xmlns="http://www.w3.org/2000/svg"  viewBox="0 0 512 512" width="64px" height="64px"><path fill="#71C598" d="M122 250.6c-6 4-11.5 8.7-17.4 12.9-3 2.1-8.2 4.2-10 8.3 10.6 1.6 21.2 2.9 31.4-1.2 8.9-3.6 21.1-12.6 21.8-24.7C148.3 235.3 124.8 248.8 122 250.6zM76 181.3c-6-13.3-10.2-27.5-16.6-40.6-3.2-6.5-7.1-12.3-11.8-17.3-2.1-2.2-11.6-11.6-14.5-8.8-2.6 2.5-1.4 11.1-1 14.4.8 8.6 5.5 16.5 9.9 23.2 8.4 12.9 20.1 26.9 33.8 32 .1-.8.2-1.7.4-2.5C76.1 181.6 76.1 181.4 76 181.3zM79.2 270.3c.3-7.5-3.8-15-7.1-21.1-3.9-7.4-8.1-14.9-12.6-21.8-5.1-8-11.4-14.9-18-21.2-4.8-4.6-10.6-7.5-15.9-11.3-5.5 17.2 1.4 38.3 10.4 52.2 10.3 16 26.1 24.7 42.9 26.2.1-.3.3-.6.4-.9C79.3 271.8 79.2 271.1 79.2 270.3zM159.3 287.8c-3.2-1.9-6.7 1.1-9 3.5-4.5 4.5-6.5 11.5-8.1 17.9-2.6 10.4-2.4 21.4-2.7 32.3 6-4.9 10.7-11.9 15.4-18.5 3.6-5.3 6.9-10.8 8.7-17.3C165.1 300.2 164.4 290.7 159.3 287.8zM102 77.4c.2-6.7.3-13.9-1.7-20.4-1.6-5.1-4.5-9.4-7.1-14-5.8 2.7-10 9.4-13.2 15.3-4.3 7.9-7.3 17.3-8.1 26.6-.8 9 4.5 17 9.3 23.4 4.5 5.9 10.3 12.4 17 15.1.2-.3.4-.6.6-.8-1.3-1.4-2-3.5-1.5-5.9C100.1 103.6 101.6 90.9 102 77.4zM120.5 350c-.3-.3-.5-.4-1.2-1.1-2.4-2-5-3.7-7.7-5.4-6.7-4.2-13.6-7.8-20.6-11.3-4.5-2.3-9.1-4.6-13.7-6.5-6.2-2.5-13.1-3.5-19.5-4.7-5.6-1.1-11.2-1.9-16.8-2.8.2 5.9 1.1 11.2 4.9 16.1 6.5 8.5 16.4 14.1 25.4 18.3 9.6 4.4 20.3 8.1 30.6 9.9 5.5 1 10.4.6 15.5-1.8 2.9-1.4 5.7-3.1 8.6-4.6C123.1 356.3 120.5 353.3 120.5 350zM170.1 399.5c-5.5-1.2-11.1-2-16.7-2.4-11.6-1-23.1-.1-34.5 2.7-10.4 2.6-21 6.8-30.2 13-2.4 1.7-14.6 10.2-11.5 14.5 2.5 3.6 8.8 5 12.5 5.8 4.9 1.1 10.1 1.2 15.1.8 10.1-.7 20.1-3.5 29.7-6.8 7.6-2.6 14.8-6.6 21.5-11.4 5.3-3.8 11.3-9.3 14.2-16.2C170.2 399.5 170.1 399.5 170.1 399.5zM152.3 193.5c-7.2-3.9-15.8-4.6-23.6-4.8-14.1-.3-28.3 3.4-41.8 8.3 1.8 1.5 3.6 3.1 5.5 4.6 6.3 5.1 12.6 8 20.2 9.6 14.3 2.9 30 .2 41.3-11C157.2 196.9 155.9 195.5 152.3 193.5zM381.5 188.7c-7.8.2-16.4.9-23.6 4.8-3.6 2-4.9 3.4-1.6 6.7 11.3 11.3 27 13.9 41.3 11 7.6-1.5 13.9-4.5 20.2-9.6 1.9-1.5 3.7-3 5.5-4.6C409.8 192.1 395.6 188.4 381.5 188.7zM438.4 85c-.8-9.3-3.9-18.7-8.1-26.6-3.2-6-7.4-12.6-13.2-15.3-2.6 4.5-5.5 8.9-7.1 14-2.1 6.4-1.9 13.6-1.7 20.4.4 13.5 2 26.2 4.8 39.3.5 2.4-.2 4.5-1.5 5.9.2.3.4.6.6.8 6.6-2.7 12.5-9.2 17-15.1C433.9 102 439.2 94 438.4 85zM369.6 128.9c-6.6-.6-13.1-1.8-19.7-2.1-10-.4-26.7-1.2-33.8 8.8 15.9 9.6 34.4 16.8 52.4 14.6 9.3-1.1 18.4-4.8 26.4-10.3 2-1.4 4-2.7 6-4.2C390.5 133.3 380.2 129.8 369.6 128.9zM205.1 338.5c-.7-4.5-3-11.5-7.5-12.5-4.7-1-6.9 7.4-8.1 11-2.5 7.4-3.6 15.4-4.3 23.3-.5 6.1-.4 12.2-.2 18.3 7.7-4.4 15.2-9.8 18.6-18.4C206.3 353.4 206.2 345.7 205.1 338.5zM167.7 46.7c0 0-.1 0-.1 0-7.8.7-15.3 8.6-21.2 13.8-5.1 4.5-10.2 9.2-14.2 15-2.1 3-3.6 6-3.7 9.9-.1 3.4.7 7 1.4 10.4 5 1.5 9.9 1 14.8-1.4 6.6-3.3 10.5-9.9 14-16.8 3.7-7.3 6.3-15.4 8.3-23.6C167.5 51.8 168 49.2 167.7 46.7zM160.2 126.8c-6.6.3-13.1 1.5-19.7 2.1-10.6.9-20.9 4.4-31.3 6.9 2 1.4 4 2.8 6 4.2 8 5.5 17.1 9.2 26.4 10.3 18 2.2 36.5-5 52.4-14.6C186.9 125.6 170.2 126.4 160.2 126.8zM378.1 75.6c-4-5.8-9.1-10.6-14.2-15-5.9-5.2-13.4-13.1-21.2-13.8-.1 0-.1 0-.1 0-.3 2.5.2 5 .7 7.4 2 8.1 4.6 16.2 8.3 23.6 3.5 6.9 7.4 13.4 14 16.8 4.9 2.5 9.8 2.9 14.8 1.4.7-3.4 1.5-7 1.4-10.4C381.6 81.6 380.2 78.6 378.1 75.6zM405.6 263.5c-5.9-4.2-11.5-8.9-17.4-12.9-2.7-1.8-26.3-15.3-25.8-4.8.7 12.1 12.8 21.1 21.8 24.7 10.2 4.1 20.8 2.8 31.4 1.2C413.9 267.8 408.7 265.7 405.6 263.5zM477.1 114.6c-2.9-2.8-12.4 6.5-14.4 8.8-4.7 5.1-8.7 10.9-11.8 17.3-6.4 13.1-10.6 27.3-16.6 40.6-.1.2-.1.3-.2.4.1.8.2 1.7.4 2.5 13.7-5.2 25.4-19.2 33.8-32 4.4-6.7 9.1-14.6 9.9-23.2C478.4 125.7 479.6 117.1 477.1 114.6zM452.5 321c-6.4 1.2-13.4 2.2-19.5 4.7-4.7 1.9-9.2 4.2-13.7 6.5-7 3.5-13.9 7.1-20.6 11.3-2.6 1.7-5.2 3.3-7.7 5.4-.7.6-1 .8-1.2 1.1-.1 3.3-2.7 6.3-5.4 6.1 2.9 1.5 5.7 3.2 8.6 4.6 5.1 2.5 10.1 2.8 15.5 1.8 10.3-1.8 20.9-5.5 30.6-9.9 9-4.1 18.9-9.8 25.4-18.3 3.7-4.9 4.6-10.3 4.9-16.1C463.6 319.1 458 320 452.5 321zM484.6 194.9c-5.3 3.7-11.1 6.6-15.9 11.3-6.6 6.3-12.9 13.2-18 21.2-4.4 7-8.7 14.4-12.6 21.8-3.3 6.2-7.4 13.6-7.1 21.1 0 .8 0 1.5-.2 2.1.2.3.3.6.4.9 16.8-1.5 32.6-10.2 42.9-26.2C483.1 233.2 490.1 212.1 484.6 194.9zM368 309.1c-1.6-6.4-3.6-13.4-8.1-17.9-2.3-2.3-5.8-5.3-9-3.5-5 2.9-5.8 12.4-4.3 17.8 1.8 6.4 5.1 12 8.7 17.3 4.6 6.7 9.3 13.6 15.4 18.5C370.4 330.6 370.5 319.5 368 309.1zM275.1 370.2c-5.4 1.1-10.1 8.9-10.8 14.7-.8 7.4 1.3 15 5.1 21.3 1.9-5.8 4.4-11.4 6.2-17.3C276.8 385.5 280.2 369.1 275.1 370.2zM421.5 412.8c-9.2-6.2-19.8-10.4-30.2-13-11.4-2.8-22.9-3.7-34.5-2.7-5.6.5-11.2 1.2-16.7 2.4 0 0-.1 0-.1 0 2.9 6.8 8.9 12.4 14.2 16.2 6.7 4.8 13.9 8.8 21.5 11.4 9.7 3.3 19.6 6 29.7 6.8 5 .4 10.2.2 15.1-.8 3.7-.8 10-2.2 12.5-5.8C436.1 423 424 414.4 421.5 412.8zM232.9 426.6c-1.2 1-2.7 1.5-4.6.8-7.8-2.9-16.2-1.5-24.1.2-8.4 1.9-16.6 5-24.7 8.4-6.8 2.8-12.8 6.7-18.5 11.7-3 2.6-5.8 5.5-8.4 8.7-.7.8-1.7 2-2.5 3.3 22.4 5.9 46-.1 66.4-11.9 7.9-4.6 14.9-11 16.7-21C233.1 426.7 233 426.7 232.9 426.6zM245.8 384.9c-.6-5.9-5.3-13.6-10.8-14.7-5.2-1.1-1.7 15.3-.6 18.7 1.8 5.9 4.3 11.5 6.2 17.3C244.5 400 246.7 392.4 245.8 384.9zM255.1 397.4c-1.5 6.5-4.4 12.9-8.3 18.3 2 .5 4 .9 6.1 1.3.9.2 1.6.5 2.2.9.6-.4 1.3-.8 2.2-.9 2-.4 4.1-.8 6.1-1.3C259.5 410.3 256.6 404 255.1 397.4zM357.5 456.4c-2.6-3.1-5.4-6-8.4-8.7-5.8-5-11.7-8.9-18.5-11.7-8.1-3.4-16.3-6.5-24.7-8.4-7.9-1.8-16.3-3.2-24.1-.2-1.8.7-3.4.2-4.6-.8-.1 0-.2.1-.3.1 1.7 10 8.8 16.4 16.7 21 20.4 11.8 44 17.8 66.4 11.9C359.2 458.4 358.2 457.2 357.5 456.4zM325 360.3c-.7-7.9-1.8-15.8-4.3-23.3-1.2-3.6-3.4-12-8.1-11-4.5 1-6.8 8-7.5 12.5-1.1 7.2-1.2 14.9 1.5 21.7 3.4 8.6 10.9 14 18.6 18.4C325.4 372.4 325.5 366.4 325 360.3z"/><path d="M424.3,285.3c23.2,0.9,45.5-11,59-32.8c12.1-19.5,18.8-47.8,7.5-69.6c-1.3-2.6-5-3.5-7.1-1.6c-6.9,6.3-15.2,9.7-22,16.2c-7.3,7-14,14.6-19.6,23.5c-2.2,3.5-4.4,7.1-6.5,10.8c0.8-10.2,1-20.4,0.4-30.6c1.6-1.3,3.2-2.5,4.9-3.7c1.7-1.2,2.4-2.8,2.3-4.5c14.4-7.6,26.7-23.1,35.5-37.4c5.2-8.5,9.1-17.7,9.8-28.1c0.5-7.1,0.3-15.5-4.2-21.1c-11.1-13.7-30.9,9.5-37.2,19.2c-7.4,11.4-11.9,24.6-16.9,37.6c-2.8-10.6-7-20.5-12.1-29.8c7.6-3.9,14.2-11.4,19.4-18.3c6.6-8.7,11.8-19.3,11.1-31c-0.8-11.8-5.2-23.5-10.5-33.4c-5-9.3-12.6-18.5-22.5-20.2c-2.3-0.4-4.5,0.8-5.6,3.2c-3.1,6.8-7.5,12.4-9.8,19.7c-2.2,6.9-2.4,14.3-2.4,21.6c0.1,11.6,1.2,22.8,3.1,34.1c-3.2-3.8-6.6-7.3-10-10.7c-0.2-0.2-0.3-0.3-0.5-0.5c0.7-4.4,1.4-8.7,1.6-13.1c0.2-4.9-1.7-9.1-3.9-13.2c-4.5-8.4-11.8-14.8-18.5-20.7c-7.7-6.8-20.7-19.5-31.3-14.9c-5.7,2.5-6.6,9.9-5.9,16.1c1.2,10.7,5.5,21.3,9.9,30.8c8.3,17.9,24.1,30.4,41.8,24.2c0,0,0,0.1,0.1,0.1c5.2,5,10,10.4,14.4,16.2c-9.5-2.4-18.9-5.2-28.7-6.1c-7.6-0.7-15.1-1.9-22.8-2.2c-14.8-0.5-36.7,1.5-42.6,20.3c-1,3.2-0.3,6.2,2.3,7.9c21.5,14.1,47,23.2,71.7,17c9.8-2.5,18.5-8,27-13.9c1.8-1.2,3.6-2.5,5.3-3.9c5.6,10.8,9.8,22.6,12.2,35.3c0.4,2.5,0.8,4.9,1.2,7.4c-15.7-5.5-31.8-9-48.3-8c-10.7,0.7-39.2,6.5-30.5,25.9c3,6.8,9.8,11,15.6,14c9.6,5,18.5,7.5,29.1,6.9c9.5-0.5,18.8-3,27.2-8.2c3-1.9,5.8-4,8.6-6.3c0.2,16.7-1.7,33.6-5,49.7c-0.1,0.5-0.2,0.9-0.3,1.4c-1.2-1.2-2.5-2.4-4-3.5c-7-5.2-14.2-10.2-21.2-15.3c-10.4-7.6-33.1-20.4-41.8-3.4c-2.9,5.8-1.1,13.5,1.3,19c3.7,8.2,10,14.5,16.8,19.3c7,4.8,16.4,8.5,24.6,8.4c5.9-0.1,11.8-0.8,17.7-1.5c-1.6,4.5-3.4,9-5.4,13.4c-5.8,12.7-13.8,24.2-21.5,35.5c-2.1,3-4.2,6-6.3,8.9c-0.7-15.3-0.6-30.5-5.8-45c-4.3-11.9-17.3-27.7-29.7-18.7c-6.2,4.5-9.7,13.3-9.7,21.6c-0.1,9.5,3.7,18,8.3,25.6c7.2,11.8,15.5,23.1,26.5,29.6c-3.5,4.1-7.2,8-11,11.7c-7.3,7-15.3,12.9-23.7,18.1c-0.3-0.2-0.6-0.3-0.9-0.5c-0.3-4.5,0.7-10,0.7-13.7c0-9.7-1.1-19.3-3-28.7c-3-14.6-11.4-34-26.9-25c-12.9,7.5-13.3,30.8-9.9,44.3c3.9,15.4,16.5,23.2,28.5,30.1c-15,8-30.6,14.1-46.2,20.5c2.3-8,6.4-15.8,8.3-23.2c2.4-8.9,2.9-22.3-4.8-28.1c-6.3-4.8-14.4,0-19.3,5.2c-3.8,4.1-6.2,8.7-7.5,13.6c-1.3-4.9-3.7-9.5-7.5-13.6c-4.8-5.2-12.9-10-19.3-5.2c-7.7,5.8-7.1,19.2-4.8,28.1c2,7.4,6,15.3,8.3,23.2c-15.5-6.4-31.2-12.6-46.2-20.5c12-6.9,24.7-14.7,28.5-30.1c3.4-13.6,3-36.8-9.9-44.3c-15.5-9-23.8,10.4-26.9,25c-1.9,9.4-3,19-3,28.7c0,3.7,1,9.1,0.7,13.7c-0.3,0.2-0.6,0.3-0.9,0.5c-8.4-5.2-16.4-11.1-23.7-18.1c-3.8-3.7-7.5-7.6-11-11.7c11.1-6.6,19.4-17.8,26.5-29.6c4.6-7.7,8.4-16.1,8.3-25.6c-0.1-8.3-3.5-17.1-9.7-21.6c-12.3-9-25.3,6.8-29.7,18.7c-5.3,14.5-5.1,29.7-5.9,45c-2.2-2.9-4.3-5.9-6.3-8.9c-7.7-11.3-15.7-22.8-21.5-35.5c-2-4.4-3.8-8.8-5.4-13.4c5.9,0.8,11.8,1.5,17.7,1.5c8.2,0.1,17.7-3.6,24.6-8.4c6.8-4.7,13.1-11,16.8-19.3c2.4-5.5,4.3-13.3,1.3-19c-8.7-17-31.4-4.2-41.8,3.4c-7,5.1-14.2,10.1-21.2,15.3c-1.5,1.1-2.8,2.3-4,3.5c-0.1-0.5-0.2-0.9-0.3-1.4c-3.4-16.2-5.2-33-5-49.7c2.8,2.3,5.6,4.5,8.6,6.3c8.3,5.1,17.7,7.6,27.2,8.2c10.7,0.6,19.5-1.9,29.1-6.9c5.8-3,12.5-7.2,15.6-14c8.7-19.5-19.8-25.2-30.5-25.9c-16.5-1.1-32.6,2.5-48.3,8c0.3-2.5,0.7-4.9,1.2-7.4c2.3-12.7,6.5-24.5,12.2-35.3c1.7,1.4,3.5,2.7,5.3,3.9c8.5,5.8,17.3,11.4,27,13.9c24.7,6.2,50.2-3,71.7-17c2.6-1.7,3.3-4.7,2.3-7.9c-6-18.8-27.8-20.8-42.6-20.3c-7.7,0.3-15.2,1.5-22.8,2.2c-9.7,0.9-19.2,3.7-28.7,6.1c4.4-5.8,9.2-11.2,14.4-16.2c0,0,0.1-0.1,0.1-0.1c17.7,6.2,33.5-6.4,41.8-24.2c4.4-9.5,8.7-20.1,9.9-30.8c0.7-6.1-0.2-13.5-5.9-16.1c-10.6-4.7-23.6,8.1-31.3,14.9c-6.7,5.9-14,12.3-18.5,20.7c-2.2,4-4.1,8.3-3.9,13.2c0.2,4.5,0.9,8.8,1.6,13.1c-0.2,0.1-0.3,0.3-0.5,0.5c-3.5,3.4-6.8,7-10,10.7c1.9-11.2,3.1-22.4,3.1-34.1c0-7.2-0.2-14.7-2.4-21.6c-2.3-7.3-6.7-12.9-9.8-19.7c-1.1-2.4-3.3-3.6-5.6-3.2c-9.8,1.7-17.5,10.9-22.5,20.2c-5.3,9.9-9.7,21.7-10.5,33.4c-0.8,11.8,4.5,22.4,11.1,31c5.3,6.9,11.9,14.4,19.4,18.3c-5.2,9.3-9.3,19.2-12.1,29.8c-5-13-9.5-26.2-16.9-37.6c-6.3-9.7-26.1-33-37.2-19.2c-4.5,5.6-4.6,14-4.2,21.1c0.7,10.4,4.6,19.6,9.8,28.1c8.7,14.3,21,29.8,35.5,37.4c0,1.7,0.6,3.4,2.3,4.5c1.7,1.2,3.3,2.4,4.9,3.7c-0.6,10.2-0.4,20.4,0.4,30.6c-2.1-3.7-4.2-7.3-6.5-10.8c-5.6-8.8-12.3-16.5-19.6-23.5c-6.8-6.5-15.1-10-22.1-16.2c-2.1-1.9-5.8-1-7.1,1.6c-11.3,21.9-4.6,50.1,7.5,69.6c13.5,21.8,35.8,33.6,59,32.8c4.7,13.3,10.6,25.9,17.9,37.5c1,1.5,1.9,3,2.9,4.5c-2.9-1.5-5.2-2.6-6.4-3.2c-6.2-3.3-12.6-6.6-19-9.3c-6.6-2.7-14.1-3.9-21-5.2c-8-1.5-16-2.7-24.1-4c-2.6-0.4-5.5,2.3-5.5,5.4c0,10.8,0.2,21.5,6.7,30.1c7.6,10,18.4,17.1,29.1,22c11.2,5.2,24.1,10.2,36.2,11.4c6.2,0.7,12.1,0.2,17.9-2.6c4.6-2.2,9-5,13.6-7.1c6.7,7.6,13.8,14.6,21.7,20.6c-2.3-0.2-4.6-0.4-6.9-0.4c-14.2-0.4-28.4,1.3-41.9,6.2c-11.1,4-22.4,9-31.4,17.7c-6.2,5.9-13.1,16.2-6.8,25.2c6.9,9.9,21.7,11.9,31.9,11.6c12.6-0.4,25-3.3,37.1-7.6c16.5-5.8,36.3-17.5,42.7-37.1c9.2,4.9,18.7,9.2,28.3,13.3c-12.1,1.8-24.2,7-34.9,11.5c-8.3,3.5-15.9,9.1-22.6,15.7c-5,5-13.2,13.1-13.2,21.5c0,2.6,1.1,5.2,3.4,6c23,8.1,46.1,4.4,68.3-5.2c15.1-6.5,31.9-17.4,33.8-37c1.3,0.4,2.5,0.7,3.8,1c0.7,0.6,1.6,0.9,2.8,0.9h1.9c1.2,0,2.2-0.3,3-0.9c0.8,0.6,1.8,0.9,3,0.9h1.9c1.1,0,2-0.4,2.8-0.9c1.3-0.3,2.6-0.6,3.8-1c2,19.6,18.7,30.5,33.8,37c22.2,9.6,45.3,13.3,68.3,5.2c2.3-0.8,3.4-3.4,3.4-6c0-8.4-8.2-16.5-13.2-21.5c-6.7-6.6-14.3-12.2-22.6-15.7c-10.6-4.5-22.8-9.7-34.9-11.5c9.6-4.1,19-8.4,28.3-13.3c6.4,19.6,26.2,31.3,42.7,37.1c12.1,4.2,24.4,7.2,37.1,7.6c10.2,0.3,25-1.7,31.9-11.6c6.3-9-0.6-19.3-6.8-25.2c-9-8.7-20.3-13.7-31.4-17.7c-13.6-4.9-27.8-6.7-41.9-6.2c-2.3,0.1-4.6,0.2-6.9,0.4c7.9-6.1,15-13.1,21.7-20.6c4.6,2.1,9,4.9,13.6,7.1c5.8,2.8,11.7,3.3,17.9,2.6c12.1-1.3,24.9-6.2,36.2-11.4c10.7-4.9,21.5-12,29.1-22c6.5-8.6,6.7-19.3,6.7-30.1c0-3.1-2.9-5.8-5.5-5.4c-8,1.2-16.1,2.4-24.1,4c-6.9,1.3-14.4,2.5-21,5.2c-6.5,2.7-12.8,6-19,9.3c-1.2,0.6-3.6,1.7-6.4,3.2c1-1.5,1.9-3,2.9-4.5C413.7,311.2,419.7,298.6,424.3,285.3z M434.2,181.3c6-13.3,10.2-27.5,16.6-40.6c3.2-6.5,7.1-12.3,11.8-17.3c2.1-2.2,11.6-11.6,14.4-8.8c2.6,2.5,1.4,11.1,1,14.4c-0.8,8.6-5.5,16.5-9.9,23.2c-8.4,12.9-20.1,26.9-33.8,32c-0.1-0.8-0.2-1.7-0.4-2.5C434,181.6,434.1,181.4,434.2,181.3z M438.1,249.2c3.9-7.4,8.1-14.9,12.6-21.8c5.1-8,11.4-14.9,18-21.2c4.8-4.6,10.6-7.5,15.9-11.3c5.5,17.2-1.4,38.3-10.4,52.2c-10.3,16-26.1,24.7-42.9,26.2c-0.1-0.3-0.3-0.6-0.4-0.9c0.2-0.6,0.2-1.3,0.2-2.1C430.6,262.8,434.8,255.4,438.1,249.2z M380.3,95.9c-5,1.5-9.9,1-14.8-1.4c-6.6-3.3-10.5-9.9-14-16.8c-3.7-7.3-6.3-15.4-8.3-23.6c-0.6-2.4-1.1-4.9-0.7-7.4c0,0,0.1,0,0.1,0c7.8,0.7,15.3,8.6,21.2,13.8c5.1,4.5,10.2,9.2,14.2,15c2.1,3,3.6,6,3.7,9.9C381.8,88.9,381,92.5,380.3,95.9z M394.9,140c-8,5.5-17.1,9.2-26.4,10.3c-18,2.2-36.5-5-52.4-14.6c7.2-10,23.9-9.3,33.8-8.8c6.6,0.3,13.1,1.5,19.7,2.1c10.6,0.9,20.9,4.4,31.3,6.9C398.9,137.2,396.9,138.6,394.9,140z M411.5,122.6c1.3-1.4,2-3.5,1.5-5.9c-2.8-13.1-4.3-25.9-4.8-39.3c-0.2-6.7-0.3-13.9,1.7-20.4c1.6-5.1,4.5-9.4,7.1-14c5.8,2.7,10,9.4,13.2,15.3c4.3,7.9,7.3,17.3,8.1,26.6c0.8,9-4.5,17-9.3,23.4c-4.5,5.9-10.3,12.4-17,15.1C411.9,123.2,411.7,122.9,411.5,122.6z M417.8,201.6c-6.3,5.1-12.6,8-20.2,9.6c-14.3,2.9-30,0.2-41.3-11c-3.3-3.3-2-4.8,1.6-6.7c7.2-3.9,15.8-4.6,23.6-4.8c14.1-0.3,28.3,3.4,41.8,8.3C421.5,198.6,419.6,200.1,417.8,201.6z M384.2,270.5c-8.9-3.6-21.1-12.6-21.8-24.7c-0.6-10.5,23,3,25.8,4.8c6,4,11.5,8.7,17.4,12.9c3,2.1,8.2,4.2,10,8.3C405,273.3,394.4,274.7,384.2,270.5z M128.7,188.7c7.8,0.2,16.4,0.9,23.6,4.8c3.6,2,4.9,3.4,1.6,6.7c-11.3,11.3-27,13.9-41.3,11c-7.6-1.5-13.9-4.5-20.2-9.6c-1.9-1.5-3.7-3-5.5-4.6C100.4,192.1,114.6,188.4,128.7,188.7z M132.1,75.6c4-5.8,9.1-10.6,14.2-15c5.9-5.2,13.4-13.1,21.2-13.8c0.1,0,0.1,0,0.1,0c0.3,2.5-0.2,5-0.7,7.4c-2,8.1-4.6,16.2-8.3,23.6c-3.5,6.9-7.4,13.4-14,16.8c-4.9,2.5-9.8,2.9-14.8,1.4c-0.7-3.4-1.5-7-1.4-10.4C128.6,81.6,130,78.6,132.1,75.6z M140.6,128.9c6.6-0.6,13.1-1.8,19.7-2.1c10-0.4,26.7-1.2,33.9,8.8c-15.9,9.6-34.4,16.8-52.4,14.6c-9.3-1.1-18.4-4.8-26.4-10.3c-2-1.4-4-2.7-6-4.2C119.7,133.3,130,129.8,140.6,128.9z M81.2,108.4C76.3,102,71,94,71.8,85c0.8-9.3,3.9-18.7,8.1-26.6c3.2-6,7.4-12.6,13.2-15.3c2.6,4.5,5.5,8.9,7.1,14c2.1,6.4,1.9,13.6,1.7,20.4c-0.4,13.5-2,26.2-4.8,39.3c-0.5,2.4,0.2,4.5,1.5,5.9c-0.2,0.3-0.4,0.6-0.6,0.8C91.5,120.8,85.7,114.3,81.2,108.4z M42,152.2c-4.4-6.7-9.1-14.6-9.9-23.2c-0.3-3.3-1.5-11.9,1-14.4c2.9-2.8,12.4,6.5,14.5,8.8c4.7,5.1,8.7,10.9,11.8,17.3C65.8,153.8,70,168,76,181.3c0.1,0.2,0.1,0.3,0.2,0.4c-0.1,0.8-0.2,1.7-0.4,2.5C62.1,179.1,50.5,165.1,42,152.2z M79,273.3c-16.8-1.5-32.6-10.2-42.9-26.2c-9-13.9-16-35-10.4-52.2c5.3,3.7,11.1,6.6,15.9,11.3c6.6,6.3,12.9,13.2,18,21.2c4.4,7,8.7,14.4,12.6,21.8c3.3,6.2,7.4,13.6,7.1,21.1c0,0.8,0,1.5,0.2,2.1C79.3,272.7,79.1,273,79,273.3z M104.6,263.5c5.9-4.2,11.5-8.9,17.4-12.9c2.7-1.8,26.3-15.3,25.8-4.8c-0.7,12.1-12.9,21.1-21.8,24.7c-10.2,4.1-20.8,2.8-31.4,1.2C96.3,267.8,101.5,265.7,104.6,263.5z M117.3,360.7c-5.1,2.5-10.1,2.8-15.5,1.8c-10.3-1.8-20.9-5.5-30.6-9.9c-9-4.1-18.9-9.8-25.4-18.3c-3.7-4.9-4.6-10.3-4.9-16.1c5.6,0.9,11.2,1.7,16.8,2.8c6.4,1.2,13.4,2.2,19.5,4.7c4.7,1.9,9.2,4.2,13.7,6.5c7,3.5,13.9,7.1,20.6,11.3c2.6,1.7,5.2,3.3,7.7,5.4c0.7,0.6,1,0.8,1.2,1.1c0.1,3.3,2.7,6.3,5.4,6.1C123,357.7,120.2,359.3,117.3,360.7z M142.2,309.1c1.6-6.4,3.6-13.4,8.1-17.9c2.3-2.3,5.8-5.3,9-3.5c5,2.9,5.8,12.4,4.3,17.8c-1.8,6.4-5.1,12-8.7,17.3c-4.6,6.7-9.3,13.6-15.4,18.5C139.8,330.6,139.7,319.5,142.2,309.1z M156,415.7c-6.7,4.8-13.9,8.8-21.5,11.4c-9.7,3.3-19.6,6-29.7,6.8c-5,0.4-10.1,0.2-15.1-0.8c-3.7-0.8-10-2.2-12.5-5.8c-3-4.3,9.1-12.8,11.5-14.5c9.2-6.2,19.8-10.4,30.2-13c11.4-2.8,22.9-3.7,34.5-2.7c5.6,0.5,11.2,1.2,16.7,2.4c0,0,0.1,0,0.1,0C167.3,406.4,161.3,411.9,156,415.7z M185.2,360.3c0.7-7.9,1.8-15.8,4.3-23.3c1.2-3.6,3.4-12,8.1-11c4.5,1,6.8,8,7.5,12.5c1.1,7.2,1.2,14.9-1.5,21.7c-3.4,8.6-10.9,14-18.6,18.4C184.8,372.4,184.7,366.4,185.2,360.3z M216.5,447.8c-20.4,11.8-44,17.8-66.4,11.9c0.9-1.3,1.8-2.4,2.5-3.3c2.6-3.1,5.4-6,8.4-8.7c5.8-5,11.7-8.9,18.5-11.7c8.1-3.4,16.3-6.5,24.7-8.4c7.9-1.8,16.3-3.2,24.1-0.2c1.8,0.7,3.4,0.2,4.6-0.8c0.1,0,0.2,0.1,0.3,0.1C231.5,436.8,224.4,443.2,216.5,447.8z M240.7,406.2c-1.9-5.8-4.4-11.4-6.2-17.3c-1.1-3.4-4.6-19.8,0.6-18.7c5.4,1.1,10.1,8.9,10.8,14.7C246.7,392.4,244.5,400,240.7,406.2z M257.3,417c-0.9,0.2-1.6,0.5-2.2,0.9c-0.6-0.4-1.3-0.8-2.2-0.9c-2-0.4-4.1-0.8-6.1-1.3c3.8-5.4,6.8-11.8,8.3-18.3c1.5,6.5,4.4,12.9,8.3,18.3C261.4,416.3,259.3,416.7,257.3,417z M269.5,406.2c-3.8-6.2-5.9-13.8-5.1-21.3c0.6-5.9,5.3-13.6,10.8-14.7c5.1-1.1,1.7,15.3,0.6,18.7C273.9,394.8,271.4,400.4,269.5,406.2z M305.9,427.7c8.4,1.9,16.6,5,24.7,8.4c6.8,2.8,12.8,6.7,18.5,11.7c3,2.6,5.8,5.5,8.4,8.7c0.7,0.8,1.7,2,2.5,3.3c-22.4,5.9-46-0.1-66.4-11.9c-7.9-4.6-14.9-11-16.7-21c0.1,0,0.2-0.1,0.3-0.1c1.2,1,2.7,1.5,4.6,0.8C289.6,424.5,298,425.9,305.9,427.7z M325.1,378.5c-7.7-4.4-15.2-9.8-18.6-18.4c-2.7-6.8-2.6-14.5-1.5-21.7c0.7-4.5,3-11.5,7.5-12.5c4.7-1,6.9,7.4,8.1,11c2.5,7.4,3.6,15.4,4.3,23.3C325.5,366.4,325.4,372.4,325.1,378.5z M356.8,397.1c11.6-1,23.1-0.1,34.5,2.7c10.4,2.6,21,6.8,30.2,13c2.4,1.7,14.6,10.2,11.5,14.5c-2.5,3.6-8.8,5-12.5,5.8c-4.9,1.1-10.1,1.2-15.1,0.8c-10.1-0.7-20.1-3.5-29.7-6.8c-7.6-2.6-14.8-6.6-21.5-11.4c-5.3-3.8-11.3-9.3-14.2-16.2c0,0,0.1,0,0.1,0C345.6,398.3,351.2,397.5,356.8,397.1z M355.3,322.9c-3.6-5.3-6.9-10.8-8.7-17.3c-1.5-5.4-0.8-14.9,4.3-17.8c3.2-1.9,6.7,1.1,9,3.5c4.5,4.5,6.5,11.5,8.1,17.9c2.6,10.4,2.4,21.4,2.7,32.3C364.7,336.5,360,329.6,355.3,322.9z M419.2,332.2c4.5-2.3,9.1-4.6,13.7-6.5c6.2-2.5,13.1-3.5,19.5-4.7c5.6-1.1,11.2-1.9,16.8-2.8c-0.2,5.9-1.1,11.2-4.9,16.1c-6.5,8.5-16.4,14.1-25.4,18.3c-9.6,4.4-20.3,8.1-30.6,9.9c-5.5,1-10.4,0.6-15.5-1.8c-2.9-1.4-5.7-3.1-8.6-4.6c2.8,0.2,5.3-2.8,5.4-6.1c0.3-0.3,0.5-0.4,1.2-1.1c2.4-2,5-3.7,7.7-5.4C405.3,339.3,412.3,335.7,419.2,332.2z"/></svg>