<svg xmlns="http://www.w3.org/2000/svg"  viewBox="0 0 48 48" width="64px" height="64px"><path fill="#bcbcbc" d="M33.018,11.668c0.158-1.1,0.245-2.211,0.26-3.322c0.009-0.634-0.034-1.339-0.485-1.785 c-0.376-0.373-0.94-0.467-1.466-0.525C27.905,5.654,24.3,6.287,20.901,5.728c-1.34-0.22-2.835-0.545-3.961,0.214 c-0.771,0.52-1.175,1.46-1.264,2.386c-0.089,0.926-0.086,2.477,0.096,3.389l1.907-0.215c-0.007-0.7-0.134-2.083-0.141-2.783 c-0.003-0.264,0.003-0.552,0.17-0.756c0.194-0.236,0.535-0.277,0.84-0.288c1.578-0.056,3.265-0.097,4.835,0.07 c1.776,0.189,3.567,0.239,5.351,0.15c0.644-0.032,1.392-0.04,1.802,0.457c0.266,0.323,0.305,0.771,0.332,1.188 c0.032,0.491-0.008,1.619,0.024,2.11L33.018,11.668z"/><path fill="#d6e5e5" d="M42.889,20.066L5.857,19.334C5.493,24.9,5.129,32.469,5.073,38.047 c-0.013,1.345,0.172,2.987,1.403,3.529c0.75,0.331,1.912-0.092,2.731-0.111c6.298-0.146,11.092,0.928,17.167,0.797 c4.724-0.102,8.427-0.836,13.152-0.75c0.597,0.011,1.211,0.032,1.775-0.164c0.883-0.307,1.519-1.115,1.84-1.993 c0.321-0.878,0.371-1.828,0.404-2.762C43.717,31.672,43.515,24.951,42.889,20.066z"/><path fill="#bcbcbc" d="M11.878,20.621c-0.11,0.632-0.22,1.265-0.329,1.897c-0.014,0.082-0.028,0.167-0.005,0.246 c0.025,0.088,0.091,0.157,0.155,0.223c0.248,0.253,0.511,0.516,0.851,0.616c0.21,0.062,0.433,0.055,0.652,0.049 c1.336-0.04,2.673-0.08,4.009-0.12c0.335-0.967,0.51-1.806,0.332-2.813L11.878,20.621z"/><path fill="#bcbcbc" d="M36.74,21.586c-0.049-0.395-0.078-0.635-0.127-1.03h-6.628c-0.075,0.472-0.002,1.397,0,1.875 c0.001,0.194,0.019,0.412,0.168,0.536c0.09,0.075,0.211,0.098,0.326,0.119c1.659,0.294,3.351,0.406,5.034,0.335 c0.286-0.012,0.587-0.034,0.825-0.194C36.831,22.895,36.812,22.176,36.74,21.586z"/><path fill="#ef4823" d="M12.943,11.896c-2.72,0.203-4.371-0.538-7.091-0.345c-0.707,0.05-1.501,0.174-1.91,0.752 c-0.284,0.402-0.306,0.93-0.267,1.42c0.137,1.723,0.898,3.463,0.417,5.124c-0.07,0.242-0.165,0.505-0.064,0.736 c0.12,0.275,0.457,0.37,0.753,0.422c1.377,0.244,1.781,0.289,3.18,0.333c2.793,0.089,5.586,0.178,8.379,0.266 c1.416,0.045,2.833,0.09,4.25,0.104c7.554,0.075,14.146-0.73,21.643,0.2c0.485,0.06,1.013,0.119,1.429-0.137 c0.201-0.124,0.356-0.311,0.477-0.514c0.644-1.075,0.369-2.434,0.213-3.677c-0.141-1.13-0.166-2.275-0.072-3.411 c0.022-0.268,0.044-0.562-0.11-0.783c-0.103-0.147-0.269-0.235-0.432-0.311c-2.997-1.401-4.466-0.155-7.768-0.359 c-0.918-0.057-2.894,0.044-3.813,0c-1.708-0.083-3.396-0.205-5.106-0.228c-2.097-0.029-4.357,0.484-6.446,0.303 C17.934,11.56,15.616,11.696,12.943,11.896z"/><path fill="#ef4823" d="M31.385,32.057c-0.224,1.351-0.59,2.712-1.359,3.796c-0.841,1.185-2.11,1.946-3.437,2.316 c-2.036,0.567-4.29,0.24-6.059-1.004c-1.769-1.243-2.999-3.414-3.115-5.715c-0.116-2.301,0.934-4.66,2.722-5.871 c1.552-1.051,3.513-1.198,5.288-0.739c1.775,0.459,3.376,1.3,4.869,2.448C31.632,28.322,31.678,30.291,31.385,32.057z M26.014,27.434c-0.712,0.243-2.392-0.239-3.04,0.124c-0.07,0.433-0.152,2.173-0.223,2.635c-0.732-0.007-1.464,0.008-2.194,0.047 c-0.093,0.701-0.121,2.408-0.083,3.113c0.725-0.061,1.458-0.029,2.173,0.094c0.081,0.014,0.168,0.032,0.22,0.089 c0.049,0.053,0.057,0.127,0.062,0.195c0.049,0.589,0.098,1.178,0.147,1.767c0.946,0.06,1.891,0.12,2.837,0.18 c0.033-0.59,0.066-1.18,0.099-1.77c0.004-0.076,0.01-0.157,0.058-0.22c0.093-0.122,0.289-0.118,0.451-0.102 c0.476,0.048,0.953,0.096,1.429,0.144c0.132,0.013,0.28,0.023,0.384-0.053c0.099-0.072,0.125-0.198,0.141-0.313 c0.076-0.542,0.107-2.09,0.091-2.636c-0.725-0.089-1.45-0.178-2.175-0.267c-0.082-0.01-0.171-0.023-0.229-0.077 c-0.067-0.063-0.07-0.162-0.068-0.25C26.11,29.35,25.999,28.219,26.014,27.434z"/><path fill="#010101" d="M44.898,16.91l-0.052-0.392c-0.137-1.097-0.16-2.21-0.069-3.309c0.025-0.313,0.06-0.741-0.199-1.109 c-0.167-0.238-0.4-0.37-0.629-0.478c-2.015-0.94-3.437-0.759-4.946-0.565c-0.896,0.114-1.824,0.232-3.003,0.16 c-0.501-0.03-1.282-0.016-2.041-0.004c-0.131,0.002-0.26,0.005-0.388,0.007c0.117-0.952,0.195-1.913,0.207-2.868 c0.01-0.741-0.057-1.576-0.632-2.146c-0.494-0.49-1.169-0.602-1.763-0.668c-1.607-0.179-3.265-0.139-4.867-0.1 c-1.839,0.043-3.744,0.09-5.535-0.204l-0.29-0.049c-1.321-0.223-2.82-0.475-4.032,0.342c-0.825,0.558-1.365,1.561-1.481,2.753 c-0.079,0.823-0.082,2.04,0.022,2.97c-0.754,0.04-1.513,0.088-2.294,0.146c-1.313,0.099-2.357-0.031-3.462-0.168 c-1.094-0.136-2.223-0.274-3.628-0.177c-0.834,0.06-1.758,0.22-2.282,0.962c-0.4,0.566-0.396,1.27-0.357,1.749 c0.048,0.608,0.169,1.212,0.286,1.796c0.224,1.113,0.434,2.164,0.128,3.219c-0.078,0.266-0.186,0.63-0.021,1.007 c0.246,0.56,0.885,0.671,1.125,0.713c0.243,0.043,0.449,0.078,0.644,0.11c-0.469,7.24-0.721,12.951-0.765,17.435 c-0.008,0.798-0.033,3.227,1.701,3.991c0.635,0.281,1.415,0.151,2.103,0.037c0.3-0.05,0.589-0.1,0.843-0.105 c3.159-0.07,5.984,0.167,8.715,0.4c2.358,0.201,4.789,0.408,7.414,0.408c0.342,0,0.688-0.003,1.037-0.011 c2.106-0.046,4.024-0.217,5.88-0.383c2.388-0.214,4.645-0.416,7.335-0.366c0.615,0.015,1.242,0.023,1.865-0.191 c0.951-0.33,1.733-1.167,2.146-2.294c0.34-0.931,0.399-1.911,0.435-2.917c0.177-5.089-0.05-10.604-0.616-15.216 c0.168-0.041,0.334-0.1,0.491-0.197c0.248-0.151,0.465-0.382,0.646-0.684C45.233,19.402,45.056,18.078,44.898,16.91z M16.174,8.376 c0.085-0.88,0.476-1.636,1.045-2.02c0.88-0.593,2.112-0.385,3.307-0.185l0.294,0.049c1.884,0.311,3.835,0.262,5.722,0.217 c1.57-0.039,3.191-0.078,4.731,0.095c0.427,0.047,0.904,0.12,1.17,0.384c0.309,0.306,0.344,0.864,0.336,1.423 c-0.013,0.962-0.091,1.931-0.214,2.888c-0.141-0.001-0.271-0.004-0.384-0.009c-0.249-0.012-0.496-0.026-0.744-0.04 c0.022-0.062,0.032-0.129,0.028-0.199l-0.097-1.471c-0.028-0.428-0.066-1.014-0.446-1.474c-0.595-0.723-1.607-0.674-2.212-0.639 c-1.757,0.085-3.531,0.036-5.273-0.148c-1.601-0.172-3.301-0.13-4.905-0.073c-0.253,0.009-0.847,0.03-1.209,0.472 c-0.291,0.355-0.286,0.808-0.283,1.078c0.004,0.354,0.037,0.881,0.071,1.408c0.024,0.372,0.048,0.743,0.061,1.052 c-0.323,0.005-0.649,0.012-0.97,0.023C16.096,10.352,16.099,9.151,16.174,8.376z M18.171,11.184 c-0.013-0.325-0.038-0.72-0.064-1.116c-0.032-0.508-0.065-1.014-0.069-1.355c-0.001-0.125-0.004-0.359,0.056-0.433 c0.035-0.042,0.145-0.095,0.472-0.105c1.568-0.057,3.229-0.096,4.765,0.067c1.794,0.192,3.62,0.244,5.429,0.152 c0.544-0.027,1.138-0.031,1.391,0.276c0.161,0.195,0.195,0.524,0.22,0.903l0.097,1.472c0.002,0.029,0.016,0.054,0.023,0.082 c-1.124-0.062-2.279-0.123-3.431-0.139c-0.942-0.019-1.922,0.081-2.868,0.172c-1.186,0.112-2.411,0.229-3.542,0.133 C19.794,11.221,18.977,11.194,18.171,11.184z M43.046,36.576c-0.033,0.958-0.084,1.815-0.374,2.608 c-0.304,0.832-0.877,1.465-1.533,1.692c-0.455,0.157-0.973,0.146-1.603,0.136c-2.66-0.047-5.05,0.164-7.359,0.371 c-1.839,0.164-3.74,0.334-5.813,0.379c-2.975,0.067-5.583-0.158-8.345-0.394c-2.757-0.235-5.608-0.478-8.823-0.404 c-0.311,0.008-0.652,0.064-0.982,0.119c-0.551,0.092-1.175,0.192-1.535,0.035c-0.762-0.336-1.123-1.34-1.105-3.067 c0.044-4.45,0.293-10.119,0.758-17.306c0.457,0.048,0.914,0.07,1.614,0.093l3.368,0.107l-0.257,1.485 c-0.019,0.104-0.05,0.277,0.006,0.473c0.061,0.209,0.196,0.349,0.278,0.434c0.297,0.304,0.652,0.514,1.086,0.641 c0.205,0.061,0.408,0.073,0.591,0.073c0.076,0,0.148-0.002,0.216-0.004c0.664-0.021,1.32-0.014,1.977-0.008 c0.67,0.008,1.34,0.012,2.016-0.007c0.208-0.007,0.39-0.141,0.458-0.337c0.26-0.753,0.464-1.586,0.397-2.547 c0.834,0.023,1.669,0.053,2.503,0.061c2.581,0.031,5.071-0.052,7.478-0.127c0.467-0.014,0.929-0.028,1.392-0.042 c-0.004,0.289,0.006,0.601,0.017,0.895c0.008,0.188,0.014,0.361,0.015,0.495c0,0.173,0,0.633,0.347,0.919 c0.195,0.163,0.424,0.203,0.561,0.228c1.364,0.242,2.753,0.363,4.141,0.363c0.333,0,0.668-0.007,1.001-0.021 c0.345-0.015,0.74-0.049,1.083-0.278c0.814-0.549,0.673-1.688,0.619-2.117l-0.063-0.511c1.634,0.061,3.288,0.179,4.998,0.391 c0.076,0.01,0.173,0.012,0.257,0.021C42.996,26.005,43.222,31.504,43.046,36.576z M12.042,22.604l0.282-1.625l4,0.127 c0.253,0.008,0.506,0.011,0.759,0.018c0.064,0.666-0.036,1.272-0.236,1.917c-0.546,0.007-1.087,0.004-1.628-0.001 c-0.671-0.008-1.341-0.012-2.016,0.007c-0.175,0.004-0.357,0.01-0.495-0.028C12.437,22.938,12.235,22.821,12.042,22.604z M30.454,21.014c1.91-0.05,3.799-0.075,5.708-0.03l0.082,0.664c0.08,0.646,0.02,1.026-0.185,1.164 c-0.126,0.084-0.349,0.1-0.567,0.108c-1.642,0.072-3.304-0.039-4.925-0.327c-0.022-0.003-0.062-0.012-0.071,0.001 c-0.005-0.026-0.011-0.075-0.011-0.165c-0.001-0.145-0.008-0.329-0.015-0.53C30.459,21.613,30.448,21.288,30.454,21.014z M43.709,20.001c-0.098,0.162-0.201,0.277-0.312,0.345c-0.255,0.157-0.633,0.126-1.104,0.066c-2.819-0.35-5.486-0.457-8.136-0.457 c-2.033,0-4.056,0.063-6.127,0.128c-2.397,0.074-4.878,0.154-7.438,0.126c-1.412-0.014-2.826-0.059-4.238-0.104l-8.379-0.267 c-1.358-0.043-1.736-0.083-3.109-0.326c-0.332-0.059-0.381-0.128-0.381-0.129c-0.018-0.047,0.036-0.228,0.086-0.398 c0.353-1.22,0.108-2.441-0.129-3.623c-0.116-0.581-0.227-1.13-0.271-1.68c-0.041-0.516,0.016-0.862,0.178-1.092 c0.284-0.401,0.936-0.499,1.536-0.541c1.308-0.094,2.341,0.035,3.435,0.171c1.104,0.138,2.244,0.279,3.659,0.174 c2.584-0.193,4.938-0.331,7.581-0.104c1.224,0.104,2.493-0.016,3.724-0.134c0.919-0.089,1.859-0.179,2.759-0.167 c1.2,0.017,2.417,0.083,3.594,0.148c0.497,0.027,0.995,0.055,1.494,0.078c0.448,0.023,1.141,0.011,1.845-0.002 c0.738-0.012,1.502-0.027,1.961,0.002c1.283,0.078,2.296-0.052,3.193-0.167c1.478-0.188,2.645-0.338,4.394,0.479 c0.06,0.028,0.198,0.093,0.235,0.146c0.052,0.074,0.034,0.294,0.021,0.454c-0.097,1.166-0.072,2.348,0.073,3.514l0.053,0.4 C44.049,18.098,44.195,19.188,43.709,20.001z"/><path fill="#010101" d="M24.631,38.935c-1.568,0-3.118-0.468-4.389-1.36c-1.931-1.356-3.205-3.693-3.326-6.099 c-0.129-2.536,1.025-5.014,2.94-6.311c1.549-1.051,3.626-1.345,5.694-0.81c1.775,0.459,3.426,1.289,5.048,2.536 c0,0,0.001,0,0.001,0.001c1.264,0.976,1.694,2.74,1.278,5.246c-0.182,1.101-0.53,2.715-1.444,4.003 c-0.841,1.186-2.158,2.076-3.71,2.509C26.037,38.841,25.332,38.935,24.631,38.935z M23.534,25.094 c-1.157,0-2.241,0.307-3.117,0.899c-1.605,1.088-2.611,3.271-2.503,5.432c0.106,2.104,1.219,4.147,2.902,5.331 c1.597,1.122,3.703,1.469,5.639,0.932c1.331-0.371,2.454-1.126,3.162-2.124c0.605-0.853,1.011-1.993,1.274-3.589 c0.351-2.113,0.047-3.557-0.902-4.29l0,0c-1.513-1.164-3.047-1.936-4.688-2.36C24.705,25.17,24.11,25.094,23.534,25.094z"/><path fill="#010101" d="M25.915,36.179c-0.011,0-0.021,0-0.032-0.001l-2.838-0.181c-0.247-0.016-0.445-0.211-0.466-0.458 l-0.135-1.617c-0.658-0.101-1.298-0.123-1.928-0.07c-0.143,0.008-0.269-0.031-0.37-0.121c-0.103-0.089-0.164-0.215-0.171-0.35 c-0.038-0.7-0.014-2.451,0.086-3.206c0.032-0.239,0.229-0.421,0.47-0.434c0.583-0.031,1.177-0.048,1.771-0.05 c0.021-0.245,0.041-0.549,0.063-0.852c0.04-0.568,0.081-1.137,0.116-1.361c0.024-0.15,0.116-0.282,0.249-0.357 c0.481-0.27,1.182-0.215,1.923-0.158c0.456,0.036,0.972,0.076,1.201-0.003c0.152-0.052,0.323-0.026,0.456,0.07 c0.132,0.096,0.208,0.25,0.205,0.413c-0.008,0.385,0.017,0.854,0.04,1.322c0.021,0.426,0.042,0.85,0.042,1.217l2.031,0.251 c0.245,0.03,0.433,0.234,0.439,0.481c0.016,0.565-0.014,2.139-0.096,2.72c-0.02,0.136-0.064,0.446-0.342,0.647 c-0.268,0.194-0.581,0.163-0.729,0.146l-1.396-0.14l-0.091,1.618c-0.007,0.133-0.067,0.258-0.167,0.347 C26.155,36.134,26.037,36.179,25.915,36.179z M23.54,35.026l1.904,0.121l0.07-1.267c0.005-0.099,0.016-0.31,0.164-0.499 c0.271-0.356,0.74-0.309,0.895-0.292l1.412,0.142c0.056-0.505,0.083-1.439,0.086-2.06l-1.74-0.214 c-0.105-0.013-0.331-0.039-0.511-0.211c-0.233-0.219-0.227-0.512-0.225-0.622c0.007-0.38-0.017-0.844-0.04-1.309 c-0.014-0.276-0.027-0.552-0.035-0.812c-0.295-0.003-0.614-0.019-0.945-0.045c-0.368-0.028-0.844-0.064-1.141-0.025 c-0.023,0.26-0.048,0.617-0.073,0.976c-0.039,0.56-0.079,1.122-0.115,1.357c-0.037,0.244-0.247,0.425-0.494,0.425 c-0.127-0.016-0.22-0.002-0.33-0.002c-0.471,0-0.941,0.01-1.408,0.029c-0.042,0.596-0.063,1.466-0.055,2.106 c0.602-0.014,1.19,0.028,1.774,0.128c0.098,0.018,0.329,0.057,0.501,0.241c0.168,0.182,0.186,0.393,0.194,0.493L23.54,35.026z"/></svg>