<?xml version="1.0" encoding="UTF-8"?>
<svg xmlns="http://www.w3.org/2000/svg" xmlns:xlink="http://www.w3.org/1999/xlink" viewBox="0 0 64 64" width="64px" height="64px">
<g id="surface11872111">
<path style=" stroke:none;fill-rule:nonzero;fill:rgb(78.431374%,92.941177%,90.196079%);fill-opacity:1;" d="M 55.828125 35.550781 C 56.023438 35.160156 56.191406 34.742188 56.339844 34.308594 C 58.023438 29.335938 55.476562 23.378906 50.109375 21.941406 C 49.53125 14.65625 44.410156 9.65625 38.628906 8.804688 C 32.007812 7.828125 25.945312 12.035156 23.929688 18.714844 C 21.5 17.855469 19.128906 17.960938 16.894531 19.265625 C 15.882812 19.734375 14.957031 20.421875 14.125 21.332031 C 12.90625 22.667969 12.109375 24.351562 11.789062 26.128906 C 11.308594 26.207031 10.839844 26.28125 10.394531 26.441406 C 7.808594 27.367188 6.179688 29.277344 5.730469 32.152344 C 5.453125 33.941406 6.015625 35.726562 6.328125 36.449219 C 7.566406 39.296875 10.4375 40.914062 13.355469 40.488281 C 13.5 40.464844 13.710938 40.53125 13.835938 40.636719 C 13.992188 45.191406 16.203125 49.222656 19.523438 51.523438 C 24.847656 55.21875 31.699219 54.082031 36.023438 49.015625 C 37.875 50.910156 40.078125 51.832031 42.667969 51.496094 C 45.242188 51.164062 47.242188 49.742188 48.699219 47.433594 C 49.375 47.613281 50.011719 47.875 50.675781 47.949219 C 53.261719 48.230469 55.34375 47.191406 56.902344 44.875 C 56.957031 44.796875 57.03125 44.734375 57.097656 44.664062 C 57.320312 44.15625 57.542969 43.644531 57.765625 43.132812 C 57.867188 42.359375 58.039062 41.582031 58.050781 40.808594 C 58.074219 38.726562 57.222656 36.824219 55.828125 35.550781 Z M 55.828125 35.550781 "/>
<path style=" stroke:none;fill-rule:nonzero;fill:rgb(100%,100%,100%);fill-opacity:1;" d="M 28.09375 15.359375 L 21.675781 15.359375 C 21.5 15.359375 21.355469 15.214844 21.355469 15.039062 C 21.355469 14.863281 21.5 14.71875 21.675781 14.71875 L 28.09375 14.71875 C 28.273438 14.71875 28.414062 14.863281 28.414062 15.039062 C 28.414062 15.214844 28.273438 15.359375 28.09375 15.359375 Z M 30.257812 15.039062 C 30.257812 14.863281 30.117188 14.71875 29.9375 14.71875 L 29.015625 14.71875 C 28.835938 14.71875 28.695312 14.863281 28.695312 15.039062 C 28.695312 15.214844 28.835938 15.359375 29.015625 15.359375 L 29.9375 15.359375 C 30.117188 15.359375 30.257812 15.214844 30.257812 15.039062 Z M 32.855469 15.039062 C 32.855469 14.863281 32.710938 14.71875 32.535156 14.71875 L 30.90625 14.71875 C 30.726562 14.71875 30.585938 14.863281 30.585938 15.039062 C 30.585938 15.214844 30.726562 15.359375 30.90625 15.359375 L 32.535156 15.359375 C 32.710938 15.359375 32.855469 15.214844 32.855469 15.039062 Z M 32.855469 16.320312 C 32.855469 16.144531 32.710938 16 32.535156 16 L 26.378906 16 C 26.203125 16 26.058594 16.144531 26.058594 16.320312 C 26.058594 16.496094 26.203125 16.640625 26.378906 16.640625 L 32.535156 16.640625 C 32.710938 16.640625 32.855469 16.496094 32.855469 16.320312 Z M 25.589844 16.320312 C 25.589844 16.144531 25.449219 16 25.273438 16 L 24.902344 16 C 24.722656 16 24.582031 16.144531 24.582031 16.320312 C 24.582031 16.496094 24.722656 16.640625 24.902344 16.640625 L 25.273438 16.640625 C 25.449219 16.640625 25.589844 16.496094 25.589844 16.320312 Z M 24.070312 16.320312 C 24.070312 16.144531 23.925781 16 23.75 16 L 22.820312 16 C 22.640625 16 22.5 16.144531 22.5 16.320312 C 22.5 16.496094 22.640625 16.640625 22.820312 16.640625 L 23.75 16.640625 C 23.925781 16.640625 24.070312 16.496094 24.070312 16.320312 Z M 29.917969 13.761719 C 29.917969 13.582031 29.773438 13.441406 29.597656 13.441406 L 26.378906 13.441406 C 26.203125 13.441406 26.058594 13.582031 26.058594 13.761719 C 26.058594 13.9375 26.203125 14.078125 26.378906 14.078125 L 29.597656 14.078125 C 29.773438 14.078125 29.917969 13.9375 29.917969 13.761719 Z M 29.917969 12.480469 C 29.917969 12.304688 29.773438 12.160156 29.597656 12.160156 L 28.792969 12.160156 C 28.617188 12.160156 28.472656 12.304688 28.472656 12.480469 C 28.472656 12.65625 28.617188 12.800781 28.792969 12.800781 L 29.597656 12.800781 C 29.773438 12.800781 29.917969 12.65625 29.917969 12.480469 Z M 27.824219 17.601562 C 27.824219 17.421875 27.683594 17.28125 27.503906 17.28125 L 26.378906 17.28125 C 26.203125 17.28125 26.058594 17.421875 26.058594 17.601562 C 26.058594 17.777344 26.203125 17.921875 26.378906 17.921875 L 27.503906 17.921875 C 27.683594 17.921875 27.824219 17.777344 27.824219 17.601562 Z M 55.515625 40.960938 L 49.097656 40.960938 C 48.921875 40.960938 48.777344 40.816406 48.777344 40.640625 C 48.777344 40.464844 48.921875 40.320312 49.097656 40.320312 L 55.515625 40.320312 C 55.695312 40.320312 55.835938 40.464844 55.835938 40.640625 C 55.835938 40.816406 55.695312 40.960938 55.515625 40.960938 Z M 57.679688 40.640625 C 57.679688 40.464844 57.535156 40.320312 57.359375 40.320312 L 56.433594 40.320312 C 56.257812 40.320312 56.113281 40.464844 56.113281 40.640625 C 56.113281 40.816406 56.257812 40.960938 56.433594 40.960938 L 57.359375 40.960938 C 57.539062 40.960938 57.679688 40.816406 57.679688 40.640625 Z M 60.273438 40.640625 C 60.273438 40.464844 60.132812 40.320312 59.957031 40.320312 L 58.324219 40.320312 C 58.148438 40.320312 58.003906 40.464844 58.003906 40.640625 C 58.003906 40.816406 58.148438 40.960938 58.324219 40.960938 L 59.957031 40.960938 C 60.132812 40.960938 60.273438 40.816406 60.273438 40.640625 Z M 58.980469 38.078125 C 58.980469 37.902344 58.835938 37.761719 58.660156 37.761719 L 52.503906 37.761719 C 52.328125 37.761719 52.183594 37.902344 52.183594 38.078125 C 52.183594 38.257812 52.328125 38.398438 52.503906 38.398438 L 58.660156 38.398438 C 58.835938 38.398438 58.980469 38.257812 58.980469 38.078125 Z M 51.714844 38.078125 C 51.714844 37.902344 51.574219 37.761719 51.394531 37.761719 L 51.023438 37.761719 C 50.847656 37.761719 50.703125 37.902344 50.703125 38.078125 C 50.703125 38.257812 50.847656 38.398438 51.023438 38.398438 L 51.394531 38.398438 C 51.574219 38.398438 51.714844 38.257812 51.714844 38.078125 Z M 50.195312 38.078125 C 50.195312 37.902344 50.050781 37.761719 49.875 37.761719 L 48.941406 37.761719 C 48.765625 37.761719 48.621094 37.902344 48.621094 38.078125 C 48.621094 38.257812 48.765625 38.398438 48.941406 38.398438 L 49.875 38.398438 C 50.050781 38.398438 50.195312 38.257812 50.195312 38.078125 Z M 57.339844 39.359375 C 57.339844 39.183594 57.195312 39.039062 57.019531 39.039062 L 53.800781 39.039062 C 53.625 39.039062 53.480469 39.183594 53.480469 39.359375 C 53.480469 39.535156 53.625 39.679688 53.800781 39.679688 L 57.019531 39.679688 C 57.195312 39.679688 57.339844 39.535156 57.339844 39.359375 Z M 57.339844 38.078125 C 57.339844 37.902344 57.195312 37.761719 57.019531 37.761719 L 56.214844 37.761719 C 56.039062 37.761719 55.894531 37.902344 55.894531 38.078125 C 55.894531 38.257812 56.039062 38.398438 56.214844 38.398438 L 57.019531 38.398438 C 57.195312 38.398438 57.339844 38.257812 57.339844 38.078125 Z M 53.1875 39.359375 C 53.1875 39.183594 53.046875 39.039062 52.867188 39.039062 L 51.742188 39.039062 C 51.566406 39.039062 51.425781 39.183594 51.425781 39.359375 C 51.425781 39.535156 51.566406 39.679688 51.742188 39.679688 L 52.867188 39.679688 C 53.046875 39.679688 53.1875 39.535156 53.1875 39.359375 Z M 53.1875 39.359375 "/>
<path style=" stroke:none;fill-rule:nonzero;fill:rgb(99.215686%,98.823529%,93.725491%);fill-opacity:1;" d="M 47.152344 26.511719 C 47.152344 26.511719 39.667969 26.511719 39.625 26.511719 C 37.894531 26.511719 36.496094 25.109375 36.496094 23.382812 C 36.496094 21.875 37.5625 20.617188 38.980469 20.320312 C 38.964844 20.1875 38.953125 20.054688 38.953125 19.917969 C 38.953125 18.128906 40.40625 16.679688 42.195312 16.679688 C 43.25 16.679688 44.1875 17.1875 44.777344 17.96875 C 44.929688 15.976562 46.707031 14.441406 48.789062 14.695312 C 50.3125 14.878906 51.570312 16.058594 51.851562 17.566406 C 51.941406 18.050781 51.933594 18.519531 51.84375 18.957031 C 52.25 18.519531 52.832031 18.242188 53.480469 18.242188 C 54.664062 18.242188 55.628906 19.164062 55.707031 20.328125 C 56.246094 20.210938 56.828125 20.21875 57.445312 20.449219 C 58.625 20.890625 59.460938 22 59.511719 23.257812 C 59.582031 25.042969 58.152344 26.511719 56.382812 26.511719 C 56.25 26.511719 55.777344 26.511719 55.667969 26.511719 L 49.171875 26.511719 "/>
<path style=" stroke:none;fill-rule:nonzero;fill:rgb(27.843139%,16.862746%,16.078432%);fill-opacity:1;" d="M 39.625 26.832031 L 47.152344 26.832031 C 47.328125 26.832031 47.472656 26.6875 47.472656 26.511719 C 47.472656 26.335938 47.328125 26.191406 47.152344 26.191406 L 39.625 26.191406 C 38.074219 26.191406 36.816406 24.929688 36.816406 23.382812 C 36.816406 22.058594 37.753906 20.902344 39.046875 20.632812 C 39.207031 20.597656 39.320312 20.445312 39.296875 20.28125 C 39.28125 20.160156 39.273438 20.039062 39.273438 19.917969 C 39.273438 18.308594 40.582031 16.996094 42.191406 16.996094 C 43.113281 16.996094 43.960938 17.421875 44.519531 18.160156 C 44.601562 18.265625 44.738281 18.3125 44.867188 18.273438 C 44.992188 18.238281 45.085938 18.125 45.09375 17.992188 C 45.160156 17.113281 45.59375 16.285156 46.277344 15.722656 C 46.972656 15.152344 47.851562 14.902344 48.75 15.011719 C 50.136719 15.183594 51.28125 16.253906 51.535156 17.625 C 51.613281 18.050781 51.613281 18.476562 51.527344 18.894531 C 51.5 19.035156 51.566406 19.175781 51.695312 19.242188 C 51.824219 19.308594 51.976562 19.28125 52.074219 19.175781 C 52.445312 18.78125 52.941406 18.5625 53.476562 18.5625 C 54.480469 18.5625 55.320312 19.347656 55.386719 20.351562 C 55.390625 20.445312 55.4375 20.527344 55.511719 20.585938 C 55.585938 20.640625 55.683594 20.660156 55.773438 20.640625 C 56.3125 20.523438 56.820312 20.558594 57.332031 20.75 C 58.398438 21.148438 59.144531 22.164062 59.1875 23.269531 C 59.21875 24.042969 58.941406 24.773438 58.40625 25.328125 C 57.871094 25.886719 57.152344 26.191406 56.382812 26.191406 L 49.167969 26.191406 C 48.992188 26.191406 48.851562 26.335938 48.851562 26.511719 C 48.851562 26.6875 48.992188 26.832031 49.167969 26.832031 L 56.382812 26.832031 C 57.328125 26.832031 58.210938 26.453125 58.867188 25.773438 C 59.523438 25.089844 59.867188 24.191406 59.828125 23.246094 C 59.777344 21.882812 58.863281 20.640625 57.558594 20.152344 C 57.046875 19.957031 56.515625 19.894531 55.976562 19.960938 C 55.734375 18.792969 54.699219 17.921875 53.476562 17.921875 C 53.039062 17.921875 52.613281 18.039062 52.234375 18.25 C 52.234375 18 52.210938 17.753906 52.167969 17.507812 C 51.859375 15.867188 50.488281 14.582031 48.828125 14.378906 C 47.753906 14.246094 46.703125 14.546875 45.875 15.226562 C 45.234375 15.753906 44.777344 16.476562 44.570312 17.269531 C 43.921875 16.683594 43.085938 16.359375 42.191406 16.359375 C 40.230469 16.359375 38.632812 17.957031 38.632812 19.917969 C 38.632812 19.972656 38.636719 20.023438 38.636719 20.078125 C 37.195312 20.507812 36.175781 21.851562 36.175781 23.382812 C 36.175781 25.285156 37.722656 26.832031 39.625 26.832031 Z M 39.625 26.832031 "/>
<path style=" stroke:none;fill-rule:nonzero;fill:rgb(99.215686%,98.823529%,93.725491%);fill-opacity:1;" d="M 48.964844 19.621094 C 50.121094 19.542969 51.117188 20.34375 51.1875 21.402344 C 51.199219 21.535156 51.191406 21.664062 51.171875 21.792969 C 51.394531 21.539062 51.726562 21.367188 52.105469 21.34375 C 52.800781 21.296875 53.398438 21.757812 53.488281 22.378906 C 53.613281 22.347656 53.746094 22.324219 53.882812 22.3125 C 54.894531 22.246094 55.765625 22.945312 55.828125 23.875 "/>
<path style=" stroke:none;fill-rule:nonzero;fill:rgb(27.843139%,16.862746%,16.078432%);fill-opacity:1;" d="M 55.828125 24.035156 C 55.832031 24.035156 55.835938 24.035156 55.839844 24.035156 C 55.925781 24.03125 55.992188 23.953125 55.988281 23.863281 C 55.917969 22.847656 54.972656 22.078125 53.871094 22.152344 C 53.78125 22.160156 53.695312 22.171875 53.609375 22.1875 C 53.433594 21.566406 52.804688 21.132812 52.09375 21.183594 C 51.824219 21.203125 51.566406 21.285156 51.351562 21.429688 C 51.351562 21.417969 51.347656 21.40625 51.347656 21.394531 C 51.269531 20.246094 50.203125 19.371094 48.953125 19.460938 C 48.863281 19.464844 48.796875 19.542969 48.804688 19.628906 C 48.808594 19.71875 48.882812 19.792969 48.972656 19.777344 C 50.03125 19.710938 50.964844 20.441406 51.027344 21.414062 C 51.035156 21.53125 51.03125 21.652344 51.015625 21.769531 C 51.003906 21.839844 51.039062 21.90625 51.105469 21.9375 C 51.167969 21.96875 51.246094 21.953125 51.292969 21.898438 C 51.5 21.664062 51.789062 21.523438 52.113281 21.503906 C 52.722656 21.480469 53.25 21.859375 53.328125 22.402344 C 53.332031 22.449219 53.359375 22.488281 53.398438 22.515625 C 53.4375 22.539062 53.484375 22.546875 53.527344 22.535156 C 53.648438 22.503906 53.769531 22.480469 53.890625 22.472656 C 54.8125 22.414062 55.609375 23.046875 55.667969 23.886719 C 55.675781 23.972656 55.746094 24.035156 55.828125 24.035156 Z M 55.828125 24.035156 "/>
<path style=" stroke:none;fill-rule:nonzero;fill:rgb(99.215686%,98.823529%,93.725491%);fill-opacity:1;" d="M 38.355469 20.6875 C 39.445312 20.175781 40.703125 20.535156 41.164062 21.496094 C 41.222656 21.617188 41.265625 21.738281 41.292969 21.863281 "/>
<path style=" stroke:none;fill-rule:nonzero;fill:rgb(27.843139%,16.862746%,16.078432%);fill-opacity:1;" d="M 41.292969 22.023438 C 41.304688 22.023438 41.316406 22.023438 41.328125 22.019531 C 41.414062 22 41.46875 21.914062 41.449219 21.828125 C 41.417969 21.691406 41.371094 21.554688 41.308594 21.429688 C 40.808594 20.390625 39.453125 19.996094 38.289062 20.542969 C 38.207031 20.578125 38.175781 20.675781 38.210938 20.753906 C 38.25 20.835938 38.34375 20.867188 38.425781 20.832031 C 39.433594 20.355469 40.597656 20.6875 41.023438 21.566406 C 41.074219 21.671875 41.113281 21.785156 41.136719 21.898438 C 41.15625 21.976562 41.222656 22.023438 41.292969 22.023438 Z M 41.292969 22.023438 "/>
<path style=" stroke:none;fill-rule:nonzero;fill:rgb(100%,99.607843%,95.686275%);fill-opacity:1;" d="M 20.398438 48.191406 C 19.28125 48.191406 18.367188 47.28125 18.367188 46.160156 L 18.367188 22.320312 C 18.367188 21.199219 19.28125 20.289062 20.398438 20.289062 L 43.601562 20.289062 C 44.71875 20.289062 45.632812 21.199219 45.632812 22.320312 L 45.632812 46.160156 C 45.632812 47.28125 44.71875 48.191406 43.601562 48.191406 Z M 20.398438 48.191406 "/>
<path style=" stroke:none;fill-rule:nonzero;fill:rgb(27.843139%,16.862746%,16.078432%);fill-opacity:1;" d="M 43.601562 20.734375 C 44.472656 20.734375 45.183594 21.445312 45.183594 22.320312 L 45.183594 46.160156 C 45.183594 47.035156 44.472656 47.742188 43.601562 47.742188 L 20.398438 47.742188 C 19.527344 47.742188 18.816406 47.035156 18.816406 46.160156 L 18.816406 22.320312 C 18.816406 21.445312 19.527344 20.734375 20.398438 20.734375 L 43.601562 20.734375 M 43.601562 19.839844 L 20.398438 19.839844 C 19.035156 19.839844 17.921875 20.957031 17.921875 22.320312 L 17.921875 46.160156 C 17.921875 47.523438 19.035156 48.640625 20.398438 48.640625 L 43.601562 48.640625 C 44.964844 48.640625 46.078125 47.523438 46.078125 46.160156 L 46.078125 22.320312 C 46.078125 20.957031 44.964844 19.839844 43.601562 19.839844 Z M 43.601562 19.839844 "/>
<path style=" stroke:none;fill-rule:nonzero;fill:rgb(53.333336%,80.392158%,84.313726%);fill-opacity:1;" d="M 21.441406 34.878906 L 25.921875 34.878906 L 25.921875 40 L 21.441406 40 Z M 21.441406 34.878906 "/>
<path style=" stroke:none;fill-rule:nonzero;fill:rgb(27.843139%,16.862746%,16.078432%);fill-opacity:1;" d="M 26.238281 40.320312 L 21.121094 40.320312 L 21.121094 34.558594 L 26.238281 34.558594 Z M 21.761719 39.679688 L 25.601562 39.679688 L 25.601562 35.199219 L 21.761719 35.199219 Z M 21.761719 39.679688 "/>
<path style=" stroke:none;fill-rule:nonzero;fill:rgb(53.333336%,80.392158%,84.313726%);fill-opacity:1;" d="M 38.078125 34.878906 L 42.558594 34.878906 L 42.558594 40 L 38.078125 40 Z M 38.078125 34.878906 "/>
<path style=" stroke:none;fill-rule:nonzero;fill:rgb(27.843139%,16.862746%,16.078432%);fill-opacity:1;" d="M 42.878906 40.320312 L 37.761719 40.320312 L 37.761719 34.558594 L 42.878906 34.558594 Z M 38.398438 39.679688 L 42.238281 39.679688 L 42.238281 35.199219 L 38.398438 35.199219 Z M 38.398438 39.679688 "/>
<path style=" stroke:none;fill-rule:nonzero;fill:rgb(91.764706%,31.764707%,40.392157%);fill-opacity:1;" d="M 36.820312 32.191406 L 32 25.125 L 27.179688 32.191406 L 19 32.191406 C 17.945312 32.191406 17.089844 31.335938 17.089844 30.28125 L 17.089844 22.199219 C 17.089844 21.144531 17.945312 20.289062 19 20.289062 L 45 20.289062 C 46.054688 20.289062 46.910156 21.144531 46.910156 22.199219 L 46.910156 30.28125 C 46.910156 31.335938 46.054688 32.191406 45 32.191406 Z M 36.820312 32.191406 "/>
<path style=" stroke:none;fill-rule:nonzero;fill:rgb(27.843139%,16.862746%,16.078432%);fill-opacity:1;" d="M 45 20.734375 C 45.808594 20.734375 46.464844 21.394531 46.464844 22.199219 L 46.464844 30.28125 C 46.464844 31.085938 45.808594 31.746094 45 31.746094 L 37.054688 31.746094 L 32.742188 25.414062 L 32 24.328125 L 31.257812 25.414062 L 26.945312 31.742188 L 19 31.742188 C 18.191406 31.742188 17.535156 31.085938 17.535156 30.28125 L 17.535156 22.199219 C 17.535156 21.394531 18.191406 20.734375 19 20.734375 L 45 20.734375 M 45 19.839844 L 19 19.839844 C 17.703125 19.839844 16.640625 20.902344 16.640625 22.199219 L 16.640625 30.28125 C 16.640625 31.578125 17.703125 32.640625 19 32.640625 L 27.417969 32.640625 L 32 25.921875 L 36.582031 32.640625 L 45 32.640625 C 46.296875 32.640625 47.359375 31.578125 47.359375 30.28125 L 47.359375 22.199219 C 47.359375 20.902344 46.296875 19.839844 45 19.839844 Z M 45 19.839844 "/>
<path style=" stroke:none;fill-rule:nonzero;fill:rgb(74.509805%,72.941178%,79.607844%);fill-opacity:1;" d="M 43.640625 47.71875 L 20.320312 47.71875 C 19.503906 47.71875 18.839844 47.058594 18.839844 46.238281 L 18.839844 43.199219 L 45.121094 43.199219 L 45.121094 46.238281 C 45.121094 47.058594 44.457031 47.71875 43.640625 47.71875 Z M 43.640625 47.71875 "/>
<path style=" stroke:none;fill-rule:nonzero;fill:rgb(27.843139%,16.862746%,16.078432%);fill-opacity:1;" d="M 41.921875 43.492188 L 39.625 43.492188 C 39.449219 43.492188 39.308594 43.351562 39.308594 43.171875 C 39.308594 42.996094 39.449219 42.851562 39.625 42.851562 L 41.921875 42.851562 C 42.097656 42.851562 42.238281 42.996094 42.238281 43.171875 C 42.238281 43.351562 42.097656 43.492188 41.921875 43.492188 Z M 45.761719 43.492188 L 43.46875 43.492188 C 43.289062 43.492188 43.148438 43.351562 43.148438 43.171875 C 43.148438 42.996094 43.289062 42.851562 43.46875 42.851562 L 45.761719 42.851562 C 45.9375 42.851562 46.078125 42.996094 46.078125 43.171875 C 46.078125 43.351562 45.9375 43.492188 45.761719 43.492188 Z M 22.71875 36.960938 L 21.441406 36.960938 C 21.351562 36.960938 21.28125 36.886719 21.28125 36.800781 C 21.28125 36.710938 21.351562 36.640625 21.441406 36.640625 L 22.71875 36.640625 C 22.808594 36.640625 22.878906 36.710938 22.878906 36.800781 C 22.878906 36.886719 22.808594 36.960938 22.71875 36.960938 Z M 25.921875 36.960938 L 23.359375 36.960938 C 23.273438 36.960938 23.199219 36.886719 23.199219 36.800781 C 23.199219 36.710938 23.273438 36.640625 23.359375 36.640625 L 25.921875 36.640625 C 26.007812 36.640625 26.078125 36.710938 26.078125 36.800781 C 26.078125 36.886719 26.007812 36.960938 25.921875 36.960938 Z M 40 29.921875 L 37.441406 29.921875 C 37.351562 29.921875 37.28125 29.847656 37.28125 29.761719 C 37.28125 29.671875 37.351562 29.601562 37.441406 29.601562 L 40 29.601562 C 40.089844 29.601562 40.160156 29.671875 40.160156 29.761719 C 40.160156 29.847656 40.089844 29.921875 40 29.921875 Z M 47.039062 29.921875 L 41.121094 29.921875 C 41.03125 29.921875 40.960938 29.847656 40.960938 29.761719 C 40.960938 29.671875 41.03125 29.601562 41.121094 29.601562 L 47.039062 29.601562 C 47.128906 29.601562 47.199219 29.671875 47.199219 29.761719 C 47.199219 29.847656 47.128906 29.921875 47.039062 29.921875 Z M 26.480469 29.921875 L 20.121094 29.921875 C 20.03125 29.921875 19.960938 29.847656 19.960938 29.761719 C 19.960938 29.671875 20.03125 29.601562 20.121094 29.601562 L 26.480469 29.601562 C 26.566406 29.601562 26.640625 29.671875 26.640625 29.761719 C 26.640625 29.847656 26.566406 29.921875 26.480469 29.921875 Z M 19.398438 29.921875 L 17 29.921875 C 16.910156 29.921875 16.839844 29.847656 16.839844 29.761719 C 16.839844 29.671875 16.910156 29.601562 17 29.601562 L 19.398438 29.601562 C 19.488281 29.601562 19.558594 29.671875 19.558594 29.761719 C 19.558594 29.847656 19.488281 29.921875 19.398438 29.921875 Z M 19.398438 29.921875 "/>
<path style=" stroke:none;fill-rule:nonzero;fill:rgb(27.843139%,16.862746%,16.078432%);fill-opacity:1;" d="M 28.199219 27.320312 C 28.167969 27.320312 28.136719 27.3125 28.109375 27.292969 C 28.035156 27.242188 28.019531 27.140625 28.070312 27.066406 L 31.769531 21.78125 C 31.820312 21.710938 31.917969 21.695312 31.992188 21.742188 C 32.0625 21.792969 32.082031 21.894531 32.03125 21.964844 L 28.332031 27.25 C 28.300781 27.296875 28.25 27.320312 28.199219 27.320312 Z M 28.199219 27.320312 "/>
<path style=" stroke:none;fill-rule:nonzero;fill:rgb(27.843139%,16.862746%,16.078432%);fill-opacity:1;" d="M 26.441406 29.921875 C 26.40625 29.921875 26.375 29.910156 26.347656 29.890625 C 26.277344 29.839844 26.257812 29.738281 26.308594 29.664062 L 27.609375 27.859375 C 27.660156 27.789062 27.761719 27.773438 27.832031 27.824219 C 27.90625 27.875 27.921875 27.976562 27.871094 28.046875 L 26.570312 29.851562 C 26.539062 29.898438 26.488281 29.921875 26.441406 29.921875 Z M 26.441406 29.921875 "/>
<path style=" stroke:none;fill-rule:nonzero;fill:rgb(27.843139%,16.862746%,16.078432%);fill-opacity:1;" d="M 35.660156 27.320312 C 35.609375 27.320312 35.558594 27.296875 35.527344 27.253906 L 31.828125 21.96875 C 31.777344 21.894531 31.796875 21.792969 31.867188 21.742188 C 31.941406 21.695312 32.039062 21.710938 32.09375 21.785156 L 35.792969 27.070312 C 35.84375 27.140625 35.824219 27.242188 35.75 27.292969 C 35.722656 27.3125 35.691406 27.320312 35.660156 27.320312 Z M 35.660156 27.320312 "/>
<path style=" stroke:none;fill-rule:nonzero;fill:rgb(27.843139%,16.862746%,16.078432%);fill-opacity:1;" d="M 37.417969 29.921875 C 37.371094 29.921875 37.320312 29.898438 37.289062 29.851562 L 35.992188 28.046875 C 35.9375 27.976562 35.957031 27.875 36.027344 27.824219 C 36.097656 27.773438 36.199219 27.789062 36.25 27.859375 L 37.550781 29.664062 C 37.601562 29.738281 37.585938 29.839844 37.511719 29.890625 C 37.484375 29.910156 37.453125 29.921875 37.417969 29.921875 Z M 37.417969 29.921875 "/>
<path style=" stroke:none;fill-rule:nonzero;fill:rgb(27.843139%,16.862746%,16.078432%);fill-opacity:1;" d="M 39.359375 36.960938 L 38.078125 36.960938 C 37.992188 36.960938 37.921875 36.886719 37.921875 36.800781 C 37.921875 36.710938 37.992188 36.640625 38.078125 36.640625 L 39.359375 36.640625 C 39.449219 36.640625 39.519531 36.710938 39.519531 36.800781 C 39.519531 36.886719 39.449219 36.960938 39.359375 36.960938 Z M 39.359375 36.960938 "/>
<path style=" stroke:none;fill-rule:nonzero;fill:rgb(27.843139%,16.862746%,16.078432%);fill-opacity:1;" d="M 42.558594 36.960938 L 40 36.960938 C 39.910156 36.960938 39.839844 36.886719 39.839844 36.800781 C 39.839844 36.710938 39.910156 36.640625 40 36.640625 L 42.558594 36.640625 C 42.648438 36.640625 42.71875 36.710938 42.71875 36.800781 C 42.71875 36.886719 42.648438 36.960938 42.558594 36.960938 Z M 42.558594 36.960938 "/>
<path style=" stroke:none;fill-rule:nonzero;fill:rgb(27.843139%,16.862746%,16.078432%);fill-opacity:1;" d="M 37.441406 43.519531 L 18.507812 43.496094 C 18.332031 43.496094 18.1875 43.351562 18.1875 43.175781 C 18.1875 43 18.332031 42.855469 18.507812 42.855469 L 37.441406 42.878906 C 37.617188 42.878906 37.761719 43.023438 37.761719 43.199219 C 37.761719 43.375 37.617188 43.519531 37.441406 43.519531 Z M 37.441406 43.519531 "/>
<path style=" stroke:none;fill-rule:nonzero;fill:rgb(77.64706%,49.019608%,25.098041%);fill-opacity:1;" d="M 34.878906 48 L 34.878906 41.027344 C 34.878906 39.398438 33.601562 38.078125 32.027344 38.078125 L 31.972656 38.078125 C 30.398438 38.078125 29.121094 39.398438 29.121094 41.027344 L 29.121094 48 Z M 34.878906 48 "/>
<path style=" stroke:none;fill-rule:nonzero;fill:rgb(27.843139%,16.862746%,16.078432%);fill-opacity:1;" d="M 35.199219 48.320312 L 28.800781 48.320312 L 28.800781 41.027344 C 28.800781 39.226562 30.222656 37.761719 31.972656 37.761719 C 33.777344 37.761719 35.199219 39.226562 35.199219 41.027344 Z M 29.441406 47.679688 L 34.558594 47.679688 L 34.558594 41.027344 C 34.558594 39.578125 33.425781 38.398438 32.027344 38.398438 C 30.574219 38.398438 29.441406 39.578125 29.441406 41.027344 Z M 29.441406 47.679688 "/>
<path style=" stroke:none;fill-rule:nonzero;fill:rgb(99.215686%,98.823529%,93.725491%);fill-opacity:1;" d="M 21.875 52.664062 C 23.078125 52.664062 24.125 52.664062 24.140625 52.664062 C 25.488281 52.664062 26.585938 51.59375 26.585938 50.269531 C 26.585938 49.117188 25.75 48.15625 24.640625 47.929688 C 24.65625 47.828125 24.664062 47.726562 24.664062 47.621094 C 24.664062 46.253906 23.53125 45.140625 22.132812 45.140625 C 21.304688 45.140625 20.574219 45.53125 20.113281 46.128906 C 19.996094 44.605469 18.605469 43.429688 16.976562 43.625 C 15.785156 43.769531 14.800781 44.667969 14.582031 45.820312 C 14.511719 46.191406 14.519531 46.550781 14.589844 46.886719 C 14.273438 46.550781 13.816406 46.339844 13.3125 46.339844 C 12.386719 46.339844 11.628906 47.042969 11.570312 47.933594 C 11.152344 47.84375 10.695312 47.851562 10.210938 48.027344 C 9.292969 48.363281 8.636719 49.210938 8.597656 50.175781 C 8.542969 51.539062 9.660156 52.664062 11.042969 52.664062 C 11.148438 52.664062 11.515625 52.664062 11.601562 52.664062 L 16.679688 52.664062 M 17.730469 52.664062 L 17.960938 52.664062 "/>
<path style=" stroke:none;fill-rule:nonzero;fill:rgb(27.843139%,16.862746%,16.078432%);fill-opacity:1;" d="M 24.140625 52.984375 L 21.875 52.984375 C 21.699219 52.984375 21.554688 52.839844 21.554688 52.664062 C 21.554688 52.488281 21.699219 52.34375 21.875 52.34375 L 24.140625 52.34375 C 25.3125 52.34375 26.265625 51.414062 26.265625 50.269531 C 26.265625 49.296875 25.554688 48.441406 24.578125 48.242188 C 24.414062 48.207031 24.304688 48.054688 24.324219 47.886719 C 24.335938 47.800781 24.34375 47.710938 24.34375 47.621094 C 24.34375 46.429688 23.351562 45.460938 22.132812 45.460938 C 21.433594 45.460938 20.789062 45.777344 20.363281 46.324219 C 20.285156 46.429688 20.148438 46.472656 20.019531 46.4375 C 19.894531 46.398438 19.804688 46.289062 19.792969 46.15625 C 19.742188 45.503906 19.429688 44.910156 18.917969 44.488281 C 18.386719 44.054688 17.710938 43.863281 17.015625 43.941406 C 15.960938 44.070312 15.089844 44.867188 14.898438 45.878906 C 14.835938 46.195312 14.839844 46.515625 14.902344 46.824219 C 14.933594 46.960938 14.863281 47.105469 14.738281 47.171875 C 14.613281 47.238281 14.457031 47.210938 14.359375 47.105469 C 14.082031 46.820312 13.710938 46.660156 13.3125 46.660156 C 12.5625 46.660156 11.9375 47.230469 11.890625 47.957031 C 11.882812 48.050781 11.835938 48.132812 11.761719 48.191406 C 11.6875 48.246094 11.59375 48.265625 11.503906 48.246094 C 11.09375 48.160156 10.707031 48.183594 10.320312 48.328125 C 9.515625 48.625 8.949219 49.371094 8.917969 50.1875 C 8.894531 50.746094 9.097656 51.28125 9.488281 51.6875 C 9.894531 52.109375 10.449219 52.34375 11.039062 52.34375 L 16.675781 52.34375 C 16.855469 52.34375 16.996094 52.488281 16.996094 52.664062 C 16.996094 52.839844 16.855469 52.984375 16.675781 52.984375 L 11.039062 52.984375 C 10.28125 52.984375 9.546875 52.671875 9.027344 52.132812 C 8.515625 51.597656 8.25 50.898438 8.277344 50.160156 C 8.320312 49.089844 9.054688 48.113281 10.101562 47.726562 C 10.492188 47.582031 10.894531 47.53125 11.304688 47.570312 C 11.523438 46.675781 12.347656 46.019531 13.3125 46.019531 C 13.625 46.019531 13.9375 46.089844 14.214844 46.226562 C 14.222656 46.070312 14.238281 45.914062 14.269531 45.761719 C 14.511719 44.472656 15.609375 43.464844 16.9375 43.308594 C 17.8125 43.199219 18.65625 43.445312 19.320312 43.992188 C 19.800781 44.382812 20.140625 44.894531 20.3125 45.464844 C 20.816406 45.050781 21.453125 44.820312 22.128906 44.820312 C 23.703125 44.820312 24.984375 46.078125 24.984375 47.621094 C 24.984375 47.640625 24.984375 47.664062 24.980469 47.6875 C 26.113281 48.039062 26.90625 49.085938 26.90625 50.269531 C 26.90625 51.765625 25.664062 52.984375 24.140625 52.984375 Z M 17.960938 52.984375 L 17.730469 52.984375 C 17.550781 52.984375 17.410156 52.839844 17.410156 52.664062 C 17.410156 52.488281 17.550781 52.34375 17.730469 52.34375 L 17.960938 52.34375 C 18.136719 52.34375 18.277344 52.488281 18.277344 52.664062 C 18.277344 52.839844 18.136719 52.984375 17.960938 52.984375 Z M 17.960938 52.984375 "/>
<path style=" stroke:none;fill-rule:nonzero;fill:rgb(27.843139%,16.862746%,16.078432%);fill-opacity:1;" d="M 23.046875 49.269531 C 23.035156 49.269531 23.023438 49.269531 23.011719 49.265625 C 22.925781 49.246094 22.871094 49.160156 22.890625 49.074219 C 22.914062 48.96875 22.949219 48.867188 23 48.769531 C 23.386719 47.984375 24.453125 47.695312 25.382812 48.125 C 25.460938 48.160156 25.496094 48.253906 25.460938 48.335938 C 25.421875 48.414062 25.328125 48.449219 25.246094 48.414062 C 24.480469 48.058594 23.597656 48.28125 23.285156 48.910156 C 23.25 48.984375 23.222656 49.0625 23.203125 49.144531 C 23.1875 49.21875 23.121094 49.269531 23.046875 49.269531 Z M 23.046875 49.269531 "/>
<path style=" stroke:none;fill-rule:nonzero;fill:rgb(27.843139%,16.862746%,16.078432%);fill-opacity:1;" d="M 19.746094 52.984375 L 19.035156 52.984375 C 18.859375 52.984375 18.71875 52.839844 18.71875 52.664062 C 18.71875 52.488281 18.859375 52.34375 19.035156 52.34375 L 19.746094 52.34375 C 19.921875 52.34375 20.066406 52.488281 20.066406 52.664062 C 20.066406 52.839844 19.921875 52.984375 19.746094 52.984375 Z M 19.746094 52.984375 "/>
<path style=" stroke:none;fill-rule:nonzero;fill:rgb(99.215686%,98.823529%,93.725491%);fill-opacity:1;" d="M 59.960938 50.359375 C 59.960938 55.660156 55.660156 59.960938 50.359375 59.960938 C 45.058594 59.960938 40.757812 55.660156 40.757812 50.359375 C 40.757812 45.058594 45.058594 40.757812 50.359375 40.757812 C 55.660156 40.757812 59.960938 45.058594 59.960938 50.359375 Z M 59.960938 50.359375 "/>
<path style=" stroke:none;fill-rule:nonzero;fill:rgb(27.843139%,16.862746%,16.078432%);fill-opacity:1;" d="M 50.359375 41.335938 C 55.335938 41.335938 59.382812 45.382812 59.382812 50.359375 C 59.382812 55.335938 55.335938 59.382812 50.359375 59.382812 C 45.382812 59.382812 41.335938 55.335938 41.335938 50.359375 C 41.335938 45.382812 45.382812 41.335938 50.359375 41.335938 M 50.359375 40.4375 C 44.878906 40.4375 40.4375 44.878906 40.4375 50.359375 C 40.4375 55.835938 44.878906 60.277344 50.359375 60.277344 C 55.835938 60.277344 60.277344 55.835938 60.277344 50.359375 C 60.277344 44.878906 55.835938 40.4375 50.359375 40.4375 Z M 50.359375 40.4375 "/>
<path style=" stroke:none;fill-rule:nonzero;fill:rgb(94.509804%,73.725492%,9.803922%);fill-opacity:1;" d="M 58.199219 50.359375 C 58.199219 54.6875 54.6875 58.199219 50.359375 58.199219 C 46.027344 58.199219 42.519531 54.6875 42.519531 50.359375 C 42.519531 46.027344 46.027344 42.519531 50.359375 42.519531 C 54.6875 42.519531 58.199219 46.027344 58.199219 50.359375 Z M 58.199219 50.359375 "/>
<path style=" stroke:none;fill-rule:nonzero;fill:rgb(93.333334%,82.352942%,37.64706%);fill-opacity:1;" d="M 50.359375 42.519531 C 46.035156 42.519531 42.519531 46.035156 42.519531 50.359375 C 42.519531 50.457031 42.53125 50.550781 42.535156 50.648438 C 43.285156 47.015625 46.5 44.277344 50.359375 44.277344 C 54.21875 44.277344 57.433594 47.015625 58.183594 50.652344 C 58.1875 50.554688 58.199219 50.457031 58.199219 50.359375 C 58.199219 46.035156 54.679688 42.519531 50.359375 42.519531 Z M 50.359375 42.519531 "/>
<path style=" stroke:none;fill-rule:nonzero;fill:rgb(27.843139%,16.862746%,16.078432%);fill-opacity:1;" d="M 50.359375 42.679688 C 54.59375 42.679688 58.039062 46.125 58.039062 50.359375 C 58.039062 54.59375 54.59375 58.039062 50.359375 58.039062 C 46.125 58.039062 42.679688 54.59375 42.679688 50.359375 C 42.679688 46.125 46.125 42.679688 50.359375 42.679688 M 50.359375 42.359375 C 45.949219 42.359375 42.359375 45.949219 42.359375 50.359375 C 42.359375 54.769531 45.949219 58.359375 50.359375 58.359375 C 54.769531 58.359375 58.359375 54.769531 58.359375 50.359375 C 58.359375 45.949219 54.769531 42.359375 50.359375 42.359375 Z M 50.359375 42.359375 "/>
<path style=" stroke:none;fill-rule:nonzero;fill:rgb(27.843139%,16.862746%,16.078432%);fill-opacity:1;" d="M 52.359375 51.898438 C 52.359375 51.574219 52.3125 51.292969 52.21875 51.054688 C 52.128906 50.8125 51.992188 50.617188 51.808594 50.460938 C 51.625 50.304688 51.453125 50.183594 51.292969 50.097656 C 51.128906 50.007812 50.925781 49.917969 50.679688 49.828125 L 50.679688 47.574219 C 50.953125 47.589844 51.207031 47.652344 51.441406 47.765625 C 51.679688 47.882812 51.8125 47.9375 51.847656 47.9375 C 51.949219 47.9375 52.035156 47.886719 52.097656 47.78125 C 52.164062 47.675781 52.195312 47.578125 52.195312 47.488281 C 52.195312 47.304688 52.039062 47.15625 51.722656 47.039062 C 51.410156 46.925781 51.0625 46.859375 50.679688 46.839844 L 50.679688 46.4375 C 50.679688 46.304688 50.570312 46.199219 50.4375 46.199219 C 50.304688 46.199219 50.199219 46.304688 50.199219 46.4375 L 50.199219 46.859375 L 50.175781 46.859375 C 49.941406 46.878906 49.726562 46.921875 49.527344 46.992188 C 49.328125 47.058594 49.140625 47.160156 48.964844 47.289062 C 48.789062 47.421875 48.648438 47.601562 48.546875 47.828125 C 48.445312 48.054688 48.394531 48.3125 48.394531 48.609375 C 48.394531 48.855469 48.429688 49.074219 48.507812 49.265625 C 48.585938 49.460938 48.671875 49.617188 48.761719 49.730469 C 48.855469 49.847656 48.996094 49.960938 49.1875 50.074219 C 49.375 50.183594 49.53125 50.265625 49.652344 50.308594 L 50.175781 50.507812 L 50.199219 50.515625 L 50.199219 53.132812 L 50.175781 53.132812 C 49.921875 53.121094 49.695312 53.074219 49.492188 52.992188 C 49.292969 52.90625 49.144531 52.820312 49.054688 52.722656 C 48.960938 52.628906 48.871094 52.542969 48.78125 52.460938 C 48.695312 52.382812 48.625 52.34375 48.574219 52.34375 C 48.484375 52.34375 48.402344 52.394531 48.328125 52.492188 C 48.257812 52.589844 48.21875 52.691406 48.21875 52.796875 C 48.21875 53.027344 48.40625 53.261719 48.785156 53.507812 C 49.160156 53.75 49.621094 53.871094 50.175781 53.878906 L 50.199219 53.878906 L 50.199219 54.277344 C 50.199219 54.410156 50.304688 54.519531 50.4375 54.519531 C 50.570312 54.519531 50.679688 54.410156 50.679688 54.277344 L 50.679688 53.847656 C 51.195312 53.777344 51.601562 53.578125 51.902344 53.246094 C 52.207031 52.917969 52.359375 52.46875 52.359375 51.898438 Z M 49.414062 49.226562 C 49.242188 49.074219 49.152344 48.839844 49.152344 48.53125 C 49.152344 47.980469 49.503906 47.667969 50.199219 47.589844 L 50.199219 49.652344 C 49.851562 49.519531 49.585938 49.378906 49.414062 49.226562 Z M 50.679688 53.101562 L 50.679688 50.71875 C 50.964844 50.84375 51.191406 50.996094 51.347656 51.179688 C 51.515625 51.367188 51.597656 51.636719 51.597656 51.976562 C 51.597656 52.613281 51.289062 52.984375 50.679688 53.101562 Z M 50.679688 53.101562 "/>
</g>
</svg>
