<svg xmlns="http://www.w3.org/2000/svg"  viewBox="0 0 512 512" width="64px" height="64px"><path fill="#EF4823" d="M161.2,361.5c-0.7-13.4-1.1-26.8-1.5-40.2c-0.4-13-0.7-26-0.1-39c0.4-8.7,2-18,0.2-26.6c-21.7,2.9-43.6,3.3-65.5,4c-0.7,9.7-0.2,19.7-0.3,29.4c-0.2,11,0,21.9,0.4,32.9c0.7,20.6,1.8,41.2,1.2,61.8c0.4,0.1,0.8,0.3,1.2,0.5c8.6,2.2,18.9,0.7,27.5,0.3c12.9-0.5,25.9-0.3,38.8-0.8C162.9,376.3,161.6,368.8,161.2,361.5z"/><path fill="#F6851F" d="M261.6,253.2c-1.1-9.8-2.3-19.5-2.4-29.3c0-3.6,0.1-7.5-0.9-11.1c-1.1-4.2-3.1-5.5-7.5-5.6c-18.6-0.2-37,2.7-55.4,4.2c0,0.1,0,0.2,0,0.3c3.9,45.3,3,91,3.1,136.4c0,5.7,0,11.4,0.1,17.1c0.1,3.7-0.9,9.5,1.3,12.8c3.1,4.4,10.7,4,15.5,3.9c9.4-0.1,18.7,0.1,28.1-0.9c9.2-1,18.4-2.3,27.7-3.1c0.6-0.2,1.3-0.4,2-0.3C272.7,336,266.1,294.5,261.6,253.2z"/><path fill="#FEBF10" d="M386.4,315.6c-2.3-18.7-5-37.4-7.1-56.1c-2-18.6-2.9-37.1-3.6-55.8c-0.3-9.6-0.6-19.2-1.4-28.8c-0.4-5.3-0.6-10.7-1.2-16l0.5,0c-0.2-1.2-0.4-2.3-1-3.2c-1.6-2.6-5.4-2.2-8.1-2.2c-10,0-19.9,1.3-29.8,2.6c-9.9,1.2-19.9,2.2-29.8,3.4c-3.1,0.4-6.2,0.8-9.3,1c-0.9,0.1-1.8,0.2-2.7,0.3c-1.6,7.1-1.3,14.7-0.4,21.9c1.8,15.6,4.2,31.1,5.6,46.8c1.5,16.3,2.3,32.5,3.1,48.8c1.5,31.8,3.7,63.5,7.2,95.2c4.2-0.1,8.4,0.1,12.6-0.1c8.4-0.4,16.7-1.2,25.1-1.4c8.4-0.2,16.7-0.4,25.1-0.6c4.8-0.1,10,0,14.8-1.1c0.9-1.2,2.3-2.1,3.8-2.2c-0.1-1,0.2-1.9,0.7-2.6C390.6,348.9,388.5,332.1,386.4,315.6z"/><path fill="#127274" d="M402.8,401.6c-0.2-0.2-0.5-0.4-0.7-0.6c-0.5,0.2-1,0.3-1.7,0.4c-55.1,4.6-110.2,6.7-165.4,9.5c-27.9,1.4-55.6,3.2-83.6,2.4c-13.1-0.4-26.1-1-39.1-1.6c-6.4-0.3-12.8-0.5-19.2-1c-2.7-0.2-5.4-0.4-8.1-0.3c-1.3,0.1-2.6,0.2-3.9,0.4c-0.4,0.2-0.8,0.4-1.3,0.5c0,4.1,1.6,8.1,5.9,9.9c6,2.4,14.1,0.3,20.5,1c8.1,0.8,15.9,2.9,24,3.5c7.5,0.6,15.1,0.9,22.7,1c31.6,0.3,63.4-0.4,95-1.1c32.8-0.7,65.6-2.1,98.4-4.5c13.5-1,27.7-1.2,41.1-3.7c4.8-0.9,10.6-1.7,14-5.5C404.1,408.8,406.7,404.6,402.8,401.6z"/><path fill="#EF4823" d="M281.3,72.8c-5.6-5.4-10.9-11-15.9-17c-4.9-5.8-9.8-11.9-15.6-16.9c-4.8-4.2-8.1-6.6-13.5-1.9c-4.3,3.7-8,8-12.2,11.7c-6.2,5.3-12.9,10.2-19.3,15.3c-7,5.6-13.8,11.3-20.7,17c-0.9,0.8-1.8,1.5-2.8,2.2c8.6-0.2,16.9-2.4,25.5-1.5c2.7,0.3,3.8,2.1,3.8,4.2c1.7,1,2.9,2.8,2.4,5.3c-2.4,12.3-9.8,22.9-16.1,33.5c-7.2,12.1-15.1,23.7-23.8,34.8c-13.3,17.1-28.1,32.9-43.7,47.8c25.3-11.1,49.3-26.3,71.1-42.7c12.7-9.6,24.8-20.1,35.5-31.9c5.1-5.6,9.8-11.5,14.6-17.4c4.6-5.6,9.6-11.6,12.2-18.4c0.3-0.9,0.8-1.6,1.4-2.1c0.2-0.7,0.6-1.5,1.2-2.1c4.5-4.7,12.9-4.9,19-5.1c3.9-0.2,7.9,0,11.8,0C291.7,82.2,286.4,77.6,281.3,72.8z"/><path d="M409.7 394.4c-1.7-1.3-3.6-1.4-5.2-.7-.8-1.4-2.2-2.4-4.4-2.3-55.7 4.6-111.5 6.8-167.4 9.6-27.9 1.4-55.6 3-83.5 2.2-13.6-.4-27.3-1.1-40.9-1.8-6.3-.3-12.5-.6-18.8-1-3.1-.2-8.9-.7-12.4.6-2.5-.8-5.7.1-6.5 3.4-2.5 10.1 1.1 23.8 12.8 26.5 6.6 1.5 13.3.8 20 1 7.8.2 15.6 2.6 23.4 3.4 15.8 1.6 31.7 1.4 47.5 1.2 16.1-.3 32.3-.4 48.4-.6 32.8-.4 65.6-1.4 98.3-3.3 15.4-.9 30.7-2.1 46-3.3 11.9-.9 25.3-1.1 36.2-6.5C413.3 418 419.8 402.1 409.7 394.4zM401.4 411.8c-3.4 3.8-9.2 4.6-14 5.5-13.3 2.5-27.5 2.7-41.1 3.7-32.7 2.4-65.5 3.7-98.4 4.5-31.6.7-63.4 1.4-95 1.1-7.6-.1-15.1-.4-22.7-1-8.1-.6-16-2.7-24-3.5-6.4-.7-14.5 1.4-20.5-1-4.3-1.8-5.9-5.7-5.9-9.9.4-.1.9-.3 1.3-.5 1.3-.2 2.6-.3 3.9-.4 2.7-.1 5.4.1 8.1.3 6.4.5 12.8.7 19.2 1 13 .6 26.1 1.3 39.1 1.6 28 .8 55.7-.9 83.6-2.4 55.2-2.8 110.3-5 165.4-9.5.6 0 1.2-.2 1.7-.4.2.2.4.4.7.6C406.7 404.6 404.1 408.8 401.4 411.8zM171.2 361.1c-.7-13.4-1.1-26.8-1.5-40.2-.4-13-.6-26-.1-39 .4-11.1 2.5-22.6-1.4-33.3-.7-1.9-2.7-3.9-4.9-3.6-24.4 3.6-49 3.8-73.6 4.7-2 .1-4.5 1.6-4.7 3.8-1.1 10-.3 19.9-.8 29.9-.5 11.6-.3 23.2.1 34.8.7 23.4 2.2 46.7 1.2 70.1-.2 3.8 3.3 5.3 6.2 4.4.3.2.7.3 1 .5 2.9.9 6.5 1 9.5 1.2 6.9.6 13.8.2 20.7-.1 15-.7 30.1-.3 45.1-1 2.9-.1 4.7-2.4 4.8-5.2l.1-1.4c.1-.4.2-.9.2-1.3C173.2 377.5 171.7 369.2 171.2 361.1zM124.2 384.4c-8.6.3-18.9 1.9-27.5-.3-.4-.2-.8-.4-1.2-.5.6-20.6-.5-41.2-1.2-61.8C94 310.9 93.8 299.9 94 289c.2-9.7-.3-19.7.3-29.4 21.9-.7 43.8-1.1 65.5-4 1.9 8.6.2 17.9-.2 26.6-.5 13-.3 26 .1 39 .4 13.4.8 26.8 1.5 40.2.4 7.3 1.7 14.8 1.8 22.2C150.1 384.1 137.2 383.9 124.2 384.4zM278.4 314.2c-2.6-23.7-5.3-47.4-7.8-71.1-1-9.3-.8-18.6-1.7-27.8-.8-8.4-4.1-15.2-12.8-17.4-4.1-1-8.5-.5-12.6-.5-5.5 0-11.1.5-16.6 1-11.4 1-22.8 2.5-34.3 3.4-3.4.3-4.9 3.3-4.6 5.9-1.5.7-2.7 2.2-2.5 4.5 4.2 48.5 2.7 97.3 3.1 145.9.1 8.5-1.7 19.9 4.2 27 4.5 5.4 11.8 6.5 18.4 6.8 21.5 1.2 42.4-2.7 63.8-4.2 2.5-.2 4-1.7 4.5-3.5 2.1-.5 3.9-2.1 3.8-4.8C283.1 357.5 280.7 335.9 278.4 314.2zM271.2 377.9c-9.3.8-18.5 2.1-27.7 3.1-9.4 1-18.7.9-28.1.9-4.7 0-12.4.5-15.5-3.9-2.2-3.2-1.2-9.1-1.3-12.8-.1-5.7-.1-11.4-.1-17.1-.1-45.5.9-91.1-3.1-136.4 0-.1 0-.2 0-.3 18.5-1.6 36.8-4.5 55.4-4.2 4.4 0 6.4 1.4 7.5 5.6 1 3.5.8 7.4.9 11.1.1 9.8 1.3 19.5 2.4 29.3 4.4 41.3 11 82.8 11.6 124.4C272.5 377.6 271.8 377.7 271.2 377.9zM391.2 274.7c-2-16.1-3.7-32.1-4.5-48.3-.8-16-1-32-2-47.9-.3-4.5-.5-9.1-.9-13.7 0-.3.1-.7.1-1-.3-7.6-1.6-16.1-9.8-19-4.8-1.7-10.4-1.2-15.5-1-6.8.2-13.7 1.1-20.4 2-12.9 1.6-25.9 2.9-38.8 4.6-4.2.6-15.3-.5-16.1 5.5-.1 1-.1 1.9.2 2.8-1.1 4.9-1.6 10-1.6 15.4.1 10.3 2.4 20.5 3.6 30.7 1.4 11.7 2.5 23.3 3.5 35 3.7 45.1 4.5 90.3 9.5 135.4-4.1 2.5-1.1 10.1 4.5 9 6.5-1.3 13.4-.3 20.1-.6 8.4-.4 16.8-1.1 25.2-1.3 8.3-.2 16.7-.4 25-.6 6.4-.2 13.5-.1 19.4-2.7 1.8-.8 3-2.6 3.3-4.4 2.3-.2 4.4-2 4.4-5C401.3 337.8 395.1 305.9 391.2 274.7zM389.9 368.2c-1.5.1-2.9 1-3.8 2.2-4.8 1.1-10 1-14.8 1.1-8.4.2-16.7.4-25.1.6-8.4.2-16.7.9-25.1 1.4-4.2.2-8.4 0-12.6.1-3.5-31.6-5.6-63.4-7.2-95.2-.8-16.3-1.6-32.6-3.1-48.8-1.4-15.7-3.8-31.2-5.6-46.8-.8-7.2-1.1-14.8.4-21.9.9-.1 1.8-.2 2.7-.3 3.1-.3 6.2-.6 9.3-1 9.9-1.3 19.9-2.2 29.8-3.4 9.9-1.2 19.8-2.5 29.8-2.6 2.7 0 6.5-.4 8.1 2.2.6.9.8 2 1 3.2l-.5 0c.7 5.3.8 10.8 1.2 16 .8 9.6 1.1 19.2 1.4 28.8.6 18.7 1.6 37.2 3.6 55.8 2 18.7 4.8 37.4 7.1 56.1 2 16.5 4.2 33.3 4.2 50C390.1 366.3 389.9 367.2 389.9 368.2zM307.2 85c-10.5-13.1-24-23.6-34.9-36.4-5.3-6.3-10.6-12.6-16.8-18-5.2-4.6-10.6-7.8-17.7-5.8-5.6 1.5-10.1 6.3-14.1 10.3-5.7 5.7-11.9 10.5-18.2 15.6-7.6 6-15.1 12.1-22.7 18.1-3.6 2.9-6.9 6.1-10.7 8.8-3.3 2.3-7.4 3.1-10.6 5.6-3.7 2.9-1.9 8.3 1.3 9.4 1.5 1.7 4.1 2.6 6.3 1.3 0 0 .3 0 .9-.1 1.3-.2 2.7-.2 4-.3 2.7-.1 5.5-.2 8.3-.1 6.8.1 13.6-2.2 20.4-1.9-.9 3.8-2.2 7.3-4.2 10.7-3.4 6-6.9 11.9-10.4 17.9-6.9 11.9-14.8 23.2-23.3 34.1-17.1 21.9-36.9 41.7-57.6 60.3-2.1 1.9-1.9 4.3-.6 6 .3 2.9 2.7 5.5 6.2 4.3 33.9-11.6 65.7-30.9 94.2-52.4 13.4-10.1 26-21.3 37.3-33.8 5.4-6 10.4-12.3 15.4-18.6 4.9-6.1 9.5-12.4 12.4-19.8.2-.1.3-.3.5-.5 2.4-2.5 10.8-2.1 14.4-2.2 5.4-.2 10.9.3 16.4-.1 4.2-.3 5.6-4.7 4.1-7.6C308.5 88.4 308.5 86.7 307.2 85zM284.5 87.5c-6.1.2-14.4.4-19 5.1-.7.7-1 1.4-1.2 2.1-.6.5-1.1 1.2-1.4 2.1-2.6 6.9-7.7 12.8-12.2 18.4-4.8 5.9-9.5 11.8-14.6 17.4-10.7 11.8-22.8 22.4-35.5 31.9-21.9 16.4-45.8 31.6-71.1 42.7 15.6-14.9 30.4-30.7 43.7-47.8 8.7-11.1 16.6-22.7 23.8-34.8 6.3-10.6 13.7-21.3 16.1-33.5.5-2.5-.7-4.3-2.4-5.3 0-2-1.1-3.9-3.8-4.2-8.6-.9-17 1.3-25.5 1.5.9-.7 1.9-1.5 2.8-2.2 6.9-5.7 13.7-11.4 20.7-17 6.4-5.1 13.1-10 19.3-15.3 4.3-3.7 8-8 12.2-11.7 5.4-4.6 8.7-2.3 13.5 1.9 5.8 5.1 10.7 11.1 15.6 16.9 5 5.9 10.3 11.6 15.9 17 5.1 4.8 10.4 9.5 15 14.7C292.4 87.5 288.5 87.3 284.5 87.5z"/></svg>