<svg xmlns="http://www.w3.org/2000/svg"  viewBox="0 0 48 48" width="64px" height="64px"><path fill="#373837" d="M37.931,3.247c-7.485,0.485-5.485-0.015-10.985-0.015c-0.906,0-5.076-0.143-5.977-0.045	c-2.323,0.253-4.459-0.101-6.687,0.046c-3.044,0.2-6.351-0.486-8.851,2.014C3.893,6.784,3.558,9.688,3.45,11.86	c-0.108,2.172-0.539,10.465-0.039,13.465c0.97,5.818,0.429,2.857,0.625,9.279c0.063,2.056-0.352,4.888,0.935,6.492	c1.24,1.545,2.015,2.985,6.515,2.985c4.447,0,7.873,0.114,12.32,0.137c1.699,0.009,7.827-0.18,9.198-0.202	c1.275-0.02,3.186-0.151,4.495-0.13c3.888,0.061,7.022-2.01,6.709-7.018c-0.035-0.557-0.223-4.588-0.276-5.122	c-0.5-5-0.028-15.612,0-17c0.072-3.512,0.184-5.396,0-6.5C43.431,5.247,40.931,3.247,37.931,3.247"/><path fill="#010101" d="M23.931,44.718c-0.045,0-0.087,0-0.127,0c-2.017-0.01-3.823-0.039-5.61-0.068	c-2.152-0.034-4.277-0.068-6.707-0.068c-4.416,0-5.498-1.38-6.644-2.841l-0.261-0.331c-1.123-1.398-1.084-3.521-1.05-5.393	c0.009-0.488,0.018-0.96,0.004-1.396c-0.069-2.296-0.046-3.401-0.03-4.134c0.027-1.298,0.029-1.375-0.588-5.079	c-0.497-2.983-0.104-10.833,0.024-13.412l0.009-0.16c0.107-2.174,0.444-5.26,2.126-6.941c2.102-2.102,4.687-2.107,7.188-2.114	c0.667-0.001,1.332-0.003,1.984-0.046c1.031-0.066,2.048-0.031,3.033,0.005c1.177,0.042,2.393,0.086,3.633-0.049	c0.668-0.075,2.922-0.021,4.566,0.015c0.658,0.015,1.201,0.027,1.465,0.027c2.135,0,3.137,0.074,4.021,0.139	c1.371,0.101,2.36,0.174,6.931-0.122l0.032-0.001c3.291,0,5.962,2.228,6.493,5.418c0.15,0.897,0.115,2.226,0.059,4.426	c-0.017,0.644-0.035,1.362-0.052,2.167c-0.004,0.199-0.018,0.589-0.035,1.126c-0.107,3.162-0.393,11.562,0.032,15.813	c0.037,0.363,0.128,2.181,0.201,3.642c0.036,0.718,0.066,1.309,0.078,1.498c0.147,2.362-0.42,4.232-1.687,5.561	c-1.277,1.338-3.212,2.032-5.529,1.988c-0.772-0.018-1.762,0.029-2.718,0.07c-0.636,0.026-1.25,0.052-1.762,0.061	c-0.468,0.007-1.492,0.034-2.705,0.066C27.996,44.644,25.14,44.718,23.931,44.718z M15.503,3.695c-0.395,0-0.789,0.01-1.188,0.036	c-0.674,0.044-1.36,0.047-2.048,0.048C9.863,3.785,7.594,3.791,5.784,5.601c-1.437,1.437-1.735,4.274-1.835,6.284l-0.008,0.161	c-0.343,6.848-0.355,11.288-0.037,13.197c0.633,3.796,0.631,3.906,0.602,5.265c-0.016,0.722-0.039,1.812,0.03,4.081	c0.014,0.452,0.005,0.941-0.005,1.446c-0.03,1.702-0.066,3.632,0.83,4.748l0.269,0.34c1.077,1.373,1.928,2.458,5.856,2.458	c2.436,0,4.565,0.034,6.724,0.069c1.783,0.028,3.587,0.058,5.6,0.067c1.128-0.003,4.209-0.075,6.471-0.135	c1.218-0.032,2.246-0.059,2.716-0.066c0.504-0.008,1.108-0.033,1.735-0.061c0.97-0.04,1.976-0.086,2.775-0.07	c2.034,0.038,3.71-0.548,4.79-1.679c1.066-1.118,1.542-2.735,1.412-4.808c-0.012-0.19-0.042-0.786-0.078-1.511	c-0.069-1.373-0.163-3.253-0.197-3.592c-0.433-4.317-0.146-12.767-0.038-15.947c0.019-0.53,0.031-0.915,0.035-1.112	c0.017-0.807,0.035-1.527,0.052-2.173c0.056-2.14,0.09-3.432-0.045-4.235c-0.449-2.692-2.705-4.575-5.491-4.582	c-4.622,0.299-5.643,0.224-7.052,0.12c-0.867-0.063-1.851-0.136-3.948-0.136c-0.268,0-0.819-0.013-1.487-0.027	c-1.527-0.034-3.833-0.084-4.437-0.021c-1.311,0.143-2.565,0.098-3.776,0.054C16.651,3.716,16.077,3.695,15.503,3.695z"/><path fill="#d6e5e5" d="M8.159,19.226c0.053,3.781-0.427,7.118-0.1,9.868c0.164,1.381,0.442,3.83,1.358,4.877	c1.318,1.505,3.531,1.747,5.527,1.885c4.76,0.33,10.312,0.18,15.072,0.509c2.936,0.203,6.195,0.161,7.937-2.211	c0.682-0.929,0.666-4.149,0.766-5.297c0.418-4.798,0.607-7.987,0.542-11.526c-0.042-2.298-0.029-3.979-2.015-5.137	c-1.008-0.587-2.226-0.653-3.392-0.697c-7.406-0.28-14.132-0.778-21.537-0.469c-0.42,0.018-1.532,0.198-1.882,0.43	c-1.104,0.73-1.34,1.052-1.531,1.381C7.819,14.713,8.054,17.061,8.159,19.226"/><path fill="#4b7bb2" d="M11.156,20.539c-0.055-1.527-0.159-3.19,0.255-4.661c0.135-0.48,0.382-1.037,0.761-1.361	c0.358-0.306,1.206-0.519,1.677-0.535c8.794-0.308,7.25,0.139,13.104,0.165c0.959,0.004,5.224,0.199,6.181,0.155	c0.901-0.041,1.881-0.063,2.764,0.466c0.766,0.459,1.025,1.153,1.109,2.101c0.079,0.889,0.277,2.678,0.031,4.381"/><path fill="#010101" d="M31.933,36.94c-0.644,0-1.298-0.031-1.951-0.076c-2.367-0.164-4.981-0.21-7.51-0.254	c-2.541-0.044-5.169-0.09-7.562-0.256c-2.193-0.152-4.453-0.437-5.869-2.055c-1.002-1.145-1.303-2.67-1.478-4.147	c-0.199-1.669-0.109-3.868-0.014-6.196c0.064-1.568,0.131-3.191,0.109-4.714l-0.028-0.544c-0.111-2.098-0.228-4.267,0.841-6.111	c0.221-0.381,0.5-0.762,1.687-1.547c0.514-0.339,1.83-0.499,2.139-0.513c5.727-0.237,10.993,0.002,16.569,0.255	c1.644,0.074,3.308,0.15,5.007,0.214c1.102,0.042,2.472,0.094,3.626,0.767c2.185,1.272,2.22,3.187,2.26,5.404l0.003,0.153	c0.063,3.46-0.119,7.692-0.544,12.579c-0.019,0.213-0.033,0.462-0.049,0.732c-0.076,1.312-0.171,2.944-0.812,3.817	C36.886,36.451,34.498,36.94,31.933,36.94z M17.188,11.43c-1.592,0-3.202,0.028-4.851,0.098c-0.464,0.019-1.419,0.209-1.628,0.347	c-1.087,0.72-1.245,0.994-1.373,1.214c-0.919,1.588-0.812,3.605-0.707,5.558l0.029,0.573c0.021,1.554-0.046,3.193-0.11,4.778	c-0.094,2.287-0.182,4.447,0.007,6.037c0.157,1.318,0.415,2.667,1.237,3.607c1.166,1.331,3.201,1.577,5.186,1.715	c2.367,0.164,4.981,0.21,7.511,0.254c2.541,0.044,5.169,0.09,7.561,0.256c2.979,0.208,5.947,0.104,7.5-2.009	c0.467-0.635,0.56-2.229,0.621-3.283c0.017-0.282,0.031-0.541,0.051-0.762c0.422-4.852,0.604-9.049,0.54-12.474l-0.003-0.154	c-0.039-2.148-0.065-3.568-1.764-4.559c-0.938-0.547-2.17-0.593-3.159-0.63c-1.702-0.064-3.368-0.141-5.016-0.215	C24.877,11.602,21.088,11.43,17.188,11.43z"/><path fill="#febf10" d="M11.156,22.913c-0.055-1.527-0.159-3.19,0.255-4.661c0.135-0.48,0.382-1.037,0.761-1.361	c0.358-0.306,1.206-0.519,1.677-0.535c8.794-0.308,11.494,0.25,17.348,0.276c0.959,0.004,0.98,0.088,1.937,0.045	c0.901-0.041,1.881-0.063,2.764,0.466c0.766,0.459,1.025,1.153,1.109,2.101c0.079,0.889,0.277,2.678,0.031,4.381"/><path fill="#71c598" d="M11.156,26.11c-0.055-1.527-0.159-3.19,0.255-4.661c0.135-0.48,0.382-1.037,0.761-1.361 c0.358-0.306,1.206-0.519,1.677-0.535c8.794-0.308,11.494,0.25,17.348,0.276c0.959,0.004,0.98,0.088,1.937,0.045 c0.901-0.041,1.881-0.063,2.764,0.466c0.766,0.459,1.025,1.153,1.109,2.101c0.079,0.889,0.007,1.678-0.239,3.381L11.156,26.11z"/><path fill="#010101" d="M11.156,26.609c-0.269,0-0.49-0.213-0.5-0.481l-0.013-0.354c-0.058-1.488-0.117-3.027,0.286-4.46 c0.114-0.404,0.385-1.15,0.917-1.606c0.488-0.416,1.473-0.637,1.984-0.655c5.554-0.193,8.681-0.044,11.704,0.1 c1.802,0.086,3.503,0.167,5.663,0.177c0.427,0.002,0.675,0.019,0.897,0.034c0.271,0.019,0.501,0.032,1.016,0.011 c0.847-0.041,1.997-0.092,3.044,0.537c1.052,0.629,1.273,1.609,1.351,2.485c0.086,0.974-0.001,1.828-0.242,3.496 c-0.035,0.244-0.243,0.426-0.489,0.429l-25.612,0.289C11.16,26.609,11.158,26.609,11.156,26.609z M18.769,19.959 c-1.414,0-3.018,0.026-4.902,0.093c-0.405,0.014-1.132,0.213-1.37,0.416c-0.241,0.207-0.462,0.614-0.604,1.117 c-0.35,1.241-0.308,2.649-0.255,4.019l24.696-0.278c0.203-1.462,0.24-2.112,0.176-2.842c-0.08-0.909-0.324-1.39-0.868-1.716 c-0.73-0.438-1.56-0.437-2.485-0.396c-0.572,0.027-0.828,0.009-1.13-0.012c-0.206-0.014-0.436-0.029-0.832-0.031 c-2.183-0.01-3.895-0.092-5.706-0.178C23.512,20.056,21.49,19.959,18.769,19.959z"/><path fill="#ef4754" d="M11.249,26.63c2.066-0.152,2.073-0.044,4.139-0.196c0.845-0.062,2.783,0.036,3.553,0.39	c1.017,0.467,1.438,1.419,2.297,2.137c1.362,1.138,3.089,1.232,4.58,0.268c0.644-0.417,1.132-1.443,1.79-1.838	c0.642-0.385,1.914-0.655,2.647-0.807c2.445-0.51,3.952-0.216,6.449-0.161c0.23-0.449-0.086-1.422-0.354-1.85	c-0.416-0.666-0.83-0.926-1.543-1.256c-0.42-0.195-0.889-0.268-1.352-0.281c-5.607-0.162-9.164-0.315-14.778-0.413	c-1.453-0.025-2.735,0.003-4.183,0.122c-0.764,0.063-1.732,0.324-2.381,0.733C11.18,24.063,11.002,25.904,11.249,26.63"/><path fill="#010101" d="M23.686,30.384c-0.978,0.001-1.941-0.349-2.769-1.04c-0.365-0.305-0.647-0.636-0.921-0.956	c-0.397-0.467-0.74-0.869-1.264-1.109c-0.628-0.289-2.439-0.413-3.309-0.346c-1.048,0.077-1.572,0.088-2.099,0.1	c-0.51,0.011-1.021,0.021-2.04,0.097c-0.229,0.015-0.437-0.122-0.51-0.338c-0.295-0.866-0.107-2.997,1.071-3.738	c0.661-0.415,1.684-0.732,2.606-0.808c1.391-0.114,2.659-0.152,4.233-0.124c3.856,0.067,6.697,0.158,9.986,0.265	c1.481,0.048,3.038,0.098,4.797,0.148c0.603,0.017,1.109,0.123,1.548,0.326c0.798,0.371,1.288,0.696,1.756,1.446	c0.271,0.433,0.742,1.625,0.375,2.343c-0.088,0.172-0.271,0.276-0.456,0.272c-0.641-0.014-1.216-0.044-1.759-0.072	c-1.575-0.08-2.818-0.146-4.576,0.223c-0.571,0.119-1.908,0.396-2.493,0.747c-0.259,0.155-0.527,0.492-0.786,0.818	c-0.298,0.375-0.605,0.763-0.989,1.011C25.328,30.141,24.502,30.384,23.686,30.384z M15.96,25.916c1.001,0,2.47,0.122,3.19,0.454	c0.723,0.332,1.172,0.858,1.606,1.368c0.258,0.303,0.501,0.588,0.801,0.838c1.187,0.991,2.676,1.079,3.988,0.232	c0.245-0.159,0.502-0.481,0.749-0.793c0.315-0.396,0.641-0.806,1.056-1.054c0.642-0.385,1.726-0.645,2.803-0.868	c1.887-0.394,3.251-0.324,4.831-0.242c0.408,0.021,0.835,0.043,1.295,0.059c-0.029-0.31-0.164-0.771-0.354-1.073	c-0.337-0.54-0.641-0.749-1.329-1.069c-0.312-0.145-0.69-0.221-1.155-0.233c-1.761-0.052-3.318-0.102-4.801-0.149	c-3.285-0.105-6.123-0.197-9.972-0.264c-1.542-0.028-2.779,0.009-4.134,0.12c-0.764,0.062-1.63,0.327-2.156,0.657	c-0.563,0.355-0.781,1.493-0.725,2.202c0.762-0.049,1.206-0.059,1.649-0.068c0.513-0.011,1.024-0.021,2.047-0.098	C15.519,25.923,15.727,25.916,15.96,25.916z"/><path fill="#010101" d="M11.156,26.609c-0.268,0-0.49-0.212-0.5-0.481l-0.013-0.354c-0.058-1.488-0.117-3.027,0.286-4.46	c0.114-0.404,0.385-1.15,0.917-1.606c0.488-0.416,1.473-0.637,1.984-0.655c5.554-0.193,8.681-0.044,11.704,0.1	c1.802,0.086,3.503,0.167,5.663,0.177c0.427,0.002,0.675,0.019,0.897,0.034c0.271,0.019,0.501,0.032,1.016,0.011	c0.847-0.041,1.997-0.092,3.044,0.537c1.052,0.629,1.273,1.609,1.351,2.485c0.086,0.974-0.001,1.828-0.242,3.496	c-0.04,0.273-0.298,0.451-0.566,0.424c-0.273-0.04-0.463-0.293-0.424-0.566c0.256-1.768,0.307-2.469,0.236-3.266	c-0.08-0.909-0.324-1.39-0.868-1.716c-0.73-0.438-1.56-0.437-2.485-0.396c-0.572,0.027-0.828,0.009-1.13-0.012	c-0.206-0.014-0.436-0.029-0.832-0.031c-2.183-0.01-3.895-0.092-5.706-0.178c-3.003-0.144-6.109-0.293-11.622-0.099	c-0.405,0.014-1.132,0.213-1.37,0.416c-0.241,0.207-0.462,0.614-0.604,1.117c-0.361,1.28-0.305,2.739-0.25,4.15l0.014,0.355	c0.01,0.276-0.206,0.508-0.481,0.519C11.168,26.609,11.162,26.609,11.156,26.609z"/><path fill="#010101" d="M37.039,24.124c-0.024,0-0.048-0.002-0.072-0.005c-0.273-0.04-0.463-0.293-0.424-0.566	c0.219-1.509,0.074-3.09-0.013-4.034l-0.021-0.231c-0.08-0.909-0.324-1.391-0.868-1.717c-0.73-0.437-1.556-0.437-2.485-0.396	c-0.573,0.028-0.827,0.009-1.128-0.012c-0.206-0.015-0.437-0.03-0.834-0.032c-2.184-0.01-3.896-0.091-5.71-0.178	c-3.004-0.143-6.108-0.291-11.618-0.098c-0.406,0.014-1.133,0.213-1.369,0.415c-0.242,0.207-0.463,0.614-0.604,1.117	c-0.361,1.281-0.305,2.74-0.25,4.15l0.014,0.356c0.01,0.276-0.206,0.508-0.481,0.519c-0.32-0.009-0.509-0.206-0.519-0.481	l-0.013-0.354c-0.058-1.488-0.117-3.027,0.286-4.461c0.114-0.404,0.386-1.15,0.917-1.605c0.486-0.416,1.472-0.637,1.984-0.655	c5.553-0.192,8.678-0.046,11.7,0.099c1.803,0.086,3.505,0.167,5.667,0.177c0.429,0.002,0.677,0.019,0.899,0.034	c0.269,0.019,0.498,0.034,1.014,0.012c0.84-0.044,1.995-0.093,3.044,0.536c1.052,0.631,1.273,1.61,1.351,2.486l0.021,0.229	c0.091,0.988,0.241,2.643,0.007,4.268C37.497,23.944,37.283,24.124,37.039,24.124z"/><path fill="#010101" d="M37.039,21.75c-0.024,0-0.048-0.002-0.072-0.005c-0.273-0.04-0.463-0.293-0.424-0.566	c0.218-1.509,0.074-3.09-0.013-4.034l-0.021-0.232c-0.08-0.909-0.324-1.39-0.868-1.716c-0.73-0.438-1.56-0.438-2.485-0.396	c-0.609,0.029-2.439-0.035-4.051-0.09c-0.953-0.033-1.793-0.062-2.155-0.063c-2.278-0.011-3.422-0.082-4.527-0.152	c-1.709-0.109-3.188-0.202-8.557-0.013c-0.406,0.013-1.131,0.211-1.369,0.415c-0.242,0.207-0.463,0.614-0.604,1.117	c-0.361,1.281-0.305,2.739-0.25,4.15l0.014,0.355c0.01,0.276-0.206,0.508-0.481,0.519c-0.308-0.006-0.509-0.206-0.519-0.481	l-0.013-0.354c-0.058-1.487-0.117-3.026,0.286-4.46c0.114-0.404,0.386-1.15,0.917-1.605c0.489-0.418,1.474-0.638,1.985-0.655	c5.421-0.191,6.917-0.096,8.654,0.015c1.091,0.069,2.22,0.141,4.468,0.15c0.368,0.002,1.22,0.03,2.186,0.064	c1.514,0.051,3.398,0.118,3.972,0.091c0.847-0.042,1.997-0.091,3.044,0.537c1.052,0.629,1.273,1.609,1.351,2.485l0.021,0.229	c0.091,0.988,0.241,2.643,0.007,4.268C37.497,21.57,37.283,21.75,37.039,21.75z"/></svg>