<?xml version="1.0" encoding="UTF-8"?>
<svg xmlns="http://www.w3.org/2000/svg" xmlns:xlink="http://www.w3.org/1999/xlink" viewBox="0 0 64 64" width="64px" height="64px">
<g id="surface11897046">
<path style=" stroke:none;fill-rule:nonzero;fill:rgb(97.647059%,89.019608%,68.235296%);fill-opacity:1;" d="M 53.449219 5 L 30.058594 5 C 29.394531 5 28.773438 5.328125 28.398438 5.878906 L 8.109375 35.878906 C 7.695312 36.492188 7.652344 37.285156 8 37.9375 C 8.347656 38.59375 9.03125 39 9.769531 39 L 21.058594 39 L 8 58.488281 C 7.734375 58.890625 7.789062 59.425781 8.136719 59.761719 C 8.480469 60.097656 9.015625 60.136719 9.410156 59.859375 L 50.410156 30.808594 C 50.757812 30.558594 50.90625 30.117188 50.78125 29.707031 C 50.65625 29.300781 50.285156 29.015625 49.859375 29 L 38.21875 29 C 37.820312 29.003906 37.457031 28.769531 37.296875 28.402344 C 37.136719 28.039062 37.207031 27.613281 37.480469 27.320312 L 54.921875 8.320312 C 55.433594 7.734375 55.5625 6.902344 55.246094 6.191406 C 54.929688 5.476562 54.230469 5.011719 53.449219 5 Z M 53.449219 5 "/>
<path style=" stroke:none;fill-rule:nonzero;fill:rgb(98.039216%,93.725491%,87.058824%);fill-opacity:1;" d="M 25.308594 39 L 21.058594 39 L 8 58.488281 C 7.734375 58.890625 7.789062 59.425781 8.136719 59.761719 C 8.480469 60.097656 9.015625 60.136719 9.410156 59.859375 L 20.191406 52.21875 L 27 42.109375 C 27.414062 41.492188 27.449219 40.699219 27.09375 40.042969 C 26.738281 39.390625 26.050781 38.988281 25.308594 39 Z M 9.769531 39 L 17.769531 39 C 17.03125 39 16.347656 38.59375 16 37.9375 C 15.652344 37.285156 15.695312 36.492188 16.109375 35.878906 L 36.398438 5.878906 C 36.773438 5.328125 37.394531 5 38.058594 5 L 30.058594 5 C 29.394531 5 28.773438 5.328125 28.398438 5.878906 L 8.109375 35.878906 C 7.695312 36.492188 7.652344 37.285156 8 37.9375 C 8.347656 38.59375 9.03125 39 9.769531 39 Z M 9.769531 39 "/>
<path style=" stroke:none;fill-rule:nonzero;fill:rgb(55.29412%,42.352942%,62.352943%);fill-opacity:1;" d="M 56.191406 5.789062 C 55.710938 4.703125 54.636719 4.003906 53.449219 4 L 30.058594 4 C 29.066406 4 28.136719 4.496094 27.578125 5.320312 L 7.289062 35.320312 C 6.667969 36.238281 6.605469 37.425781 7.125 38.40625 C 7.644531 39.382812 8.660156 39.996094 9.769531 40 L 19.191406 40 L 7.191406 57.941406 C 6.773438 58.554688 6.734375 59.347656 7.082031 60 C 7.429688 60.652344 8.109375 61.0625 8.851562 61.058594 C 9.261719 61.054688 9.664062 60.921875 10 60.679688 L 51 31.679688 C 51.753906 31.195312 52.09375 30.265625 51.828125 29.40625 C 51.5625 28.550781 50.757812 27.976562 49.859375 28 L 38.21875 28 L 55.648438 9 C 56.445312 8.128906 56.65625 6.875 56.191406 5.789062 Z M 54.191406 7.671875 L 53 9 C 53 8.449219 52.550781 8 52 8 C 51.449219 8 51 8.449219 51 9 L 51 11 C 50.996094 11.035156 50.996094 11.074219 51 11.109375 L 36.75 26.648438 C 36.214844 27.234375 36.074219 28.078125 36.394531 28.804688 C 36.710938 29.527344 37.429688 29.996094 38.21875 30 L 49.859375 30 L 8.859375 59 L 21.859375 39.511719 C 22.039062 39.210938 22.046875 38.839844 21.882812 38.53125 C 21.722656 38.222656 21.410156 38.019531 21.058594 38 L 9.769531 38 C 9.398438 38 9.058594 37.796875 8.886719 37.46875 C 8.710938 37.144531 8.734375 36.746094 8.941406 36.441406 L 26 11.171875 C 26.082031 11.65625 26.507812 12.007812 27 12 C 27.550781 12 28 11.550781 28 11 L 28 9 C 27.992188 8.820312 27.9375 8.640625 27.839844 8.488281 L 29.230469 6.441406 C 29.417969 6.164062 29.726562 6 30.058594 6 L 53.449219 6 C 53.847656 5.996094 54.210938 6.230469 54.371094 6.597656 C 54.53125 6.960938 54.460938 7.386719 54.191406 7.679688 Z M 54.191406 7.671875 "/>
<path style=" stroke:none;fill-rule:nonzero;fill:rgb(55.29412%,42.352942%,62.352943%);fill-opacity:1;" d="M 38.058594 35.621094 C 38.265625 35.621094 38.46875 35.558594 38.640625 35.441406 L 40.640625 34 C 41.089844 33.679688 41.195312 33.054688 40.875 32.605469 C 40.554688 32.15625 39.929688 32.050781 39.480469 32.371094 L 37.480469 33.808594 C 37.121094 34.0625 36.964844 34.515625 37.097656 34.933594 C 37.234375 35.351562 37.621094 35.632812 38.058594 35.628906 Z M 34.25 36.101562 L 25.25 42.441406 C 24.800781 42.761719 24.695312 43.386719 25.015625 43.835938 C 25.335938 44.285156 25.960938 44.390625 26.410156 44.070312 L 35.410156 37.730469 C 35.859375 37.410156 35.964844 36.785156 35.644531 36.335938 C 35.324219 35.886719 34.699219 35.78125 34.25 36.101562 Z M 32 12 C 32.550781 12 33 11.550781 33 11 L 33 9 C 33 8.449219 32.550781 8 32 8 C 31.449219 8 31 8.449219 31 9 L 31 11 C 31 11.550781 31.449219 12 32 12 Z M 37 8 C 36.449219 8 36 8.449219 36 9 L 36 11 C 36 11.550781 36.449219 12 37 12 C 37.550781 12 38 11.550781 38 11 L 38 9 C 38 8.449219 37.550781 8 37 8 Z M 42 8 C 41.449219 8 41 8.449219 41 9 L 41 11 C 41 11.550781 41.449219 12 42 12 C 42.550781 12 43 11.550781 43 11 L 43 9 C 43 8.449219 42.550781 8 42 8 Z M 47 8 C 46.449219 8 46 8.449219 46 9 L 46 11 C 46 11.550781 46.449219 12 47 12 C 47.550781 12 48 11.550781 48 11 L 48 9 C 48 8.449219 47.550781 8 47 8 Z M 47 8 "/>
<path style=" stroke:none;fill-rule:nonzero;fill:rgb(97.647059%,89.019608%,68.235296%);fill-opacity:1;" d="M 63 51 C 63 57.628906 57.628906 63 51 63 C 44.371094 63 39 57.628906 39 51 C 39 44.371094 44.371094 39 51 39 C 57.628906 39 63 44.371094 63 51 Z M 63 51 "/>
<path style=" stroke:none;fill-rule:nonzero;fill:rgb(55.29412%,42.352942%,62.352943%);fill-opacity:1;" d="M 51 38 C 43.832031 38 38 43.832031 38 51 C 38 58.167969 43.832031 64 51 64 C 58.167969 64 64 58.167969 64 51 C 64 43.832031 58.167969 38 51 38 Z M 51 62 C 44.933594 62 40 57.066406 40 51 C 40 44.933594 44.933594 40 51 40 C 57.066406 40 62 44.933594 62 51 C 62 57.066406 57.066406 62 51 62 Z M 48 48 C 48 49.101562 48.898438 50 50 50 L 50 48 C 50 47.449219 50.445312 47 51 47 C 51.554688 47 52 47.449219 52 48 L 52 50 C 54.207031 50 56 51.792969 56 54 C 56 56.207031 54.207031 58 52 58 L 52 59 C 52 59.550781 51.554688 60 51 60 C 50.445312 60 50 59.550781 50 59 L 50 58 C 47.792969 58 46 56.207031 46 54 C 46 53.449219 46.445312 53 47 53 C 47.554688 53 48 53.449219 48 54 C 48 55.101562 48.898438 56 50 56 L 50 54 C 50 53.449219 50.445312 53 51 53 C 51.554688 53 52 53.449219 52 54 L 52 56 C 53.101562 56 54 55.101562 54 54 C 54 52.898438 53.101562 52 52 52 L 50 52 C 47.792969 52 46 50.207031 46 48 C 46 45.792969 47.792969 44 50 44 L 50 43 C 50 42.449219 50.445312 42 51 42 C 51.554688 42 52 42.449219 52 43 L 52 44 C 54.207031 44 56 45.792969 56 48 C 56 48.550781 55.554688 49 55 49 C 54.445312 49 54 48.550781 54 48 C 54 46.898438 53.101562 46 52 46 L 50 46 C 48.898438 46 48 46.898438 48 48 Z M 48 48 "/>
</g>
</svg>
