<svg xmlns="http://www.w3.org/2000/svg"  viewBox="0 0 48 48" width="64px" height="64px"><path fill="#74cccf" d="M26.98,29.11c3.616,0.076,7.247,0.314,10.863,0.281c2.267-0.021,4.541-0.102,6.775-0.486 c0.421-0.073,0.859-0.164,1.194-0.429c0.601-0.476,0.688-1.34,0.725-2.106c0.238-5.045,0.347-8.097,0.327-13.148 c-0.001-0.239-0.003-0.483-0.079-0.709c-0.211-0.627-0.915-0.937-1.564-1.065c-0.771-0.153-1.563-0.155-2.35-0.156 c-6.748-0.009-13.498-0.018-20.242,0.23c-1.053,0.039-2.106,0.084-3.159,0.128c-2.208,0.094-4.645,0.351-6.845,0.141 c-2.053-0.196-6.209-0.347-8.271-0.309c-1.038,0.019-2.274,0.237-2.688,1.189c-0.122,0.28-0.152,0.591-0.18,0.895 c-0.39,4.21,0.291,6.42-0.099,10.63c-0.048,0.52-0.096,1.045-0.024,1.562c0.133,0.951,0.691,1.835,1.494,2.363 c0.944,0.621,2.124,0.732,3.252,0.81c5.368,0.374,10.758,0.428,16.132,0.161C23.583,29.026,25.055,29.069,26.98,29.11z"/><path fill="#c0e6ed" d="M1.404,14.751c0,0-0.904-3.381,3.513-3.275s10.876,0.581,14.959,0.156s23.541-0.344,23.541-0.344 s3.468-0.913,3.449,2.774s-0.107,5.906-0.107,5.906s1.081,1.964-3.136,1.866c-4.217-0.098-19.998-0.263-19.998-0.263 s-14.11,0.549-15.168,0.511c-1.058-0.038-6.939,0.526-6.948-2.567S1.404,14.751,1.404,14.751z"/><path fill="#16b7b8" d="M44.447,28.901c-0.396-0.79-0.028-0.928-0.707-1.493c-0.294-0.245-0.7-0.291-1.081-0.322 c-4.459-0.36-8.94,0.045-13.413,0.057c-7.013,0.018-14.016-0.931-21.023-0.641c-0.882,0.037-1.81,0.107-2.545,0.596 c-0.736,0.488-1.368,0.863-0.898,1.61l8.053,0.524c0,0,5.625-0.013,9.959-0.331s8.782,0.173,11.917,0.331 C37.843,29.391,43.082,29.327,44.447,28.901z"/><path fill="#010101" d="M27.815,19.175c-0.931,0-1.865-0.03-2.772-0.059c-1.097-0.036-2.231-0.071-3.34-0.054 c-0.286-0.025-0.503-0.217-0.508-0.492c-0.004-0.276,0.216-0.504,0.492-0.508c1.134-0.016,2.279,0.02,3.388,0.054 c1.096,0.036,2.23,0.072,3.339,0.054c0.26-0.013,0.503,0.216,0.508,0.492c0.004,0.276-0.216,0.504-0.492,0.508 C28.225,19.173,28.02,19.175,27.815,19.175z"/><path fill="#010101" d="M47.364,13.22c-0.001-0.249-0.002-0.559-0.106-0.867c-0.235-0.698-0.924-1.194-1.94-1.396 c-0.82-0.163-1.646-0.164-2.447-0.165c-6.638-0.011-13.507-0.018-20.261,0.229c-1.054,0.039-2.108,0.084-3.162,0.129 c-0.551,0.023-1.117,0.058-1.689,0.091c-1.707,0.101-3.471,0.206-5.087,0.052c-2.021-0.193-6.231-0.354-8.328-0.312 c-1.666,0.031-2.721,0.533-3.137,1.49c-0.155,0.356-0.189,0.724-0.22,1.048c-0.198,2.139-0.123,3.788-0.051,5.383 c0.071,1.562,0.144,3.176-0.048,5.247c-0.05,0.542-0.102,1.103-0.021,1.678c0.152,1.092,0.793,2.105,1.714,2.712 c1.016,0.668,2.231,0.803,3.492,0.892c5.367,0.374,10.816,0.428,16.192,0.161c1.174-0.059,2.452-0.032,4.072,0.004l0.632,0.014 c1.343,0.028,2.689,0.079,4.035,0.13c2.02,0.077,4.102,0.155,6.163,0.155c0.227,0,0.454-0.001,0.68-0.003 c2.184-0.02,4.525-0.093,6.856-0.494c0.486-0.084,0.996-0.194,1.419-0.529c0.764-0.604,0.873-1.595,0.914-2.476 C47.283,21.156,47.383,18.169,47.364,13.22z M1.984,13.611c0.024-0.261,0.049-0.531,0.141-0.741 c0.307-0.705,1.386-0.873,2.238-0.889c2.078-0.033,6.221,0.117,8.214,0.308c1.691,0.16,3.496,0.054,5.241-0.049 c0.567-0.034,1.126-0.067,1.672-0.09c1.052-0.045,2.104-0.09,3.156-0.129c6.735-0.247,13.593-0.24,20.223-0.229 c0.786,0.001,1.529,0.002,2.252,0.146c0.303,0.061,1.025,0.252,1.188,0.734c0.052,0.154,0.053,0.356,0.054,0.552 c0.011,2.695-0.016,4.811-0.081,7.025c-0.008,0.031-0.023,0.058-0.024,0.092c-0.01,0.363-0.415,0.865-0.803,0.996 c-0.408,0.136-0.885,0.088-1.392,0.036l-0.185-0.019c-0.838-0.079-1.684-0.088-2.501-0.097l-16.95-0.178 c-1.903-0.021-3.873-0.042-5.811,0.032c-1.265,0.048-2.534,0.135-3.804,0.222c-3.703,0.253-7.533,0.517-11.166-0.272l-0.154-0.032 c-0.928-0.19-1.431-0.403-1.5-0.63c-0.015-0.526-0.034-1.041-0.057-1.543C1.866,17.296,1.792,15.682,1.984,13.611z M37.839,28.892 c-2.256,0.021-4.565-0.067-6.796-0.151c-1.352-0.051-2.703-0.102-4.052-0.131h0l-0.631-0.014c-0.942-0.02-1.771-0.038-2.534-0.038 c-0.565,0-1.095,0.01-1.609,0.036c-5.335,0.262-10.744,0.209-16.072-0.161c-0.348-0.024-0.678-0.056-1-0.096 c-0.075-0.164,0.01-0.292,0.72-0.762l0.09-0.06c0.619-0.411,1.437-0.478,2.29-0.513c3.909-0.163,7.895,0.068,11.751,0.292 c3.029,0.176,6.148,0.324,9.253,0.349c1.526-0.004,3.075-0.055,4.573-0.103c2.891-0.095,5.882-0.191,8.797,0.044 c0.323,0.026,0.627,0.063,0.802,0.208c0.264,0.221,0.273,0.276,0.309,0.486c0.011,0.066,0.032,0.154,0.051,0.239 C41.766,28.803,39.743,28.874,37.839,28.892z M46.038,26.346c-0.031,0.66-0.101,1.395-0.536,1.738 c-0.187,0.148-0.452,0.219-0.734,0.277c-0.025-0.089-0.039-0.167-0.052-0.248c-0.063-0.37-0.146-0.664-0.655-1.088 c-0.398-0.333-0.891-0.398-1.361-0.437c-2.972-0.24-5.991-0.143-8.911-0.048c-1.491,0.049-3.032,0.099-4.544,0.103 c-3.055,0.006-6.178-0.172-9.193-0.347c-3.879-0.225-7.891-0.455-11.85-0.294c-0.96,0.041-1.968,0.127-2.801,0.68L5.312,26.74 c-0.477,0.316-1.12,0.752-1.185,1.39c-0.355-0.102-0.694-0.229-0.995-0.427c-0.684-0.45-1.16-1.203-1.273-2.015 c-0.064-0.46-0.02-0.939,0.027-1.447c0.089-0.956,0.117-1.804,0.122-2.604c0.443,0.198,0.938,0.3,1.285,0.371l0.144,0.029 c1.908,0.415,3.85,0.551,5.792,0.551c1.895,0,3.791-0.13,5.654-0.257c1.26-0.087,2.519-0.173,3.773-0.22 c1.917-0.072,3.872-0.053,5.763-0.032l16.95,0.178c0.797,0.009,1.622,0.018,2.417,0.093l0.179,0.018 c0.561,0.057,1.198,0.122,1.811-0.084c0.156-0.052,0.305-0.133,0.447-0.226C46.173,23.36,46.113,24.742,46.038,26.346z"/><path fill="#010101" d="M13.069,34.214c-0.391,1.372-1.145,2.54-2.22,3.475c-0.486,0.423,0.223,1.128,0.707,0.707 c1.199-1.044,2.041-2.388,2.477-3.916C14.21,33.86,13.245,33.595,13.069,34.214L13.069,34.214z"/><path fill="#010101" d="M19.385,34.206c-0.391,2.359-0.919,4.682-1.588,6.978c-0.18,0.619,0.784,0.883,0.964,0.266 c0.668-2.296,1.197-4.619,1.588-6.978C20.453,33.842,19.49,33.571,19.385,34.206L19.385,34.206z"/><path fill="#010101" d="M24.829,34.332c-0.032,1.761,0.126,3.512,0.165,5.272c0.022,0.974-0.25,2.025,0.62,2.652 c0.523,0.376,1.023-0.491,0.505-0.863c-0.41-0.295-0.17-2.997-0.193-3.453c-0.061-1.204-0.119-2.401-0.097-3.607 C25.84,33.688,24.84,33.688,24.829,34.332L24.829,34.332z"/><path fill="#010101" d="M30.353,34.486c-0.168,2.031,1.136,3.718,1.412,5.676c0.089,0.635,1.053,0.365,0.964-0.266 c-0.262-1.86-1.535-3.49-1.376-5.41C31.406,33.844,30.406,33.848,30.353,34.486L30.353,34.486z"/><path fill="#010101" d="M35.883,34.294c0.338,1.64,1.226,3.094,2.542,4.132c0.5,0.395,1.212-0.308,0.707-0.707 c-1.196-0.944-1.977-2.197-2.285-3.691C36.718,33.398,35.754,33.664,35.883,34.294L35.883,34.294z"/></svg>