<svg xmlns="http://www.w3.org/2000/svg"  viewBox="0 0 512 512" width="64px" height="64px"><path fill="#D6E5E5" d="M179.6 261.3c-.4-10.8-8.5-20.5-17.7-25.6-5.6-3.1-12-5.5-18.3-3.8-2.7.7-7.9 1.7-6.9 4.7 10 .9 17.7 6.9 25 14.4 4 4 8 8.6 13.3 10.9 1 .5 3.7 1.5 4.4 1.2C179.2 263.1 179.6 262 179.6 261.3zM150 289.3c-.7-1.5-1.8-3.1-3-4.4-3.5-3.7-7.6-6.8-12.1-9.2-5.5-2.9-16.1-7.8-22.8-4.6 7 2.5 13.6 8 19.2 12 4.5 3.2 9 6.6 14 8.9 1.2.5 3.4 1.4 4.1 1.4.9 0 .9.2 1.2-.7C150.8 292.3 150.6 290.6 150 289.3zM223.1 180.4c-3.7-2.5-8-4.7-12.4-5.4-1.4-.2-2.8-.2-3.7.2 0 .1-.1.3-.1.6 0 .1 0 .2 0 .2 6.3 4.3 11.1 11.8 15.9 17.3 3 3.4 6.1 7.1 9.8 9.7.4.3.9.5 1.3.6 0-.1 0-.1.1-.2C237.8 193.7 230.9 185.7 223.1 180.4zM256.3 157.7c-3.1-2-6.6-3.9-10.3-4.4-.5-.1-1.1-.1-1.5 0 0 0 0 0 0 0-.1.4-.1.7-.3 1.1 4.7 5.8 8.3 12.8 12.8 18.6 1.8 2.4 5.3 7 7.7 7.4-.6-.1.6-.3 0 .1.6-.4.7-.5 1.2-1.1 1-1.3 1.9-2.7 2.1-4.3C269 167.9 261.7 161.1 256.3 157.7zM126.9 321.7c-1.1-1.8-2.1-2.8-4-4.3-4.2-3.2-9.4-5.5-14.5-6.9-4.8-1.3-11.3-2.8-15.8-1.6-2.7.7-3.9 1.3-4.2 2.9 12.7.7 27.5 4.5 37.6 12.5.2-.6.5-1.2.9-1.7C127 322.5 127.1 322.1 126.9 321.7zM199.9 216.8c-2.3-4.6-4.9-9.5-9.1-12.7-3.3-2.5-6.9-3.7-10.9-3.7-2 0-4 0-6 .4-.1 0-.2 0-.3 0 .1 1.6-.5 3.2-1.5 4.3 6.2 4.4 11 10.6 16.5 15.8 2 1.9 13 12.8 14.1 7.6C203.7 224.3 201.8 220.5 199.9 216.8zM401 188.3c-14.4-5.7-27.8-14.3-40.2-23.5-13.3-9.9-26.8-22.6-33.9-37.8-3.5-7.5-4.1-15-2.2-22.9-5.4 1.4-10.8 2.9-16.1 4.5-.5 2.1-2 3.9-4.7 4.2-9.3 1.1-4.1 20-2.5 25.3 3.7 12.3 11.1 24.4 20.5 33.9 13.1 13.2 30.6 21.7 48 27.6 17.9 6.2 36.9 9.7 55.9 10.1.1-1.3.2-2.5.4-3.8.4-5 .9-10 1.4-15C419.5 194.2 409 191.5 401 188.3z"/><path fill="#C56528" d="M388.4 216.1c0 .1 0 .1 0 .2-7 22.4-14.1 44.6-27.2 64.3-7.9 11.8-17.4 22.6-26.8 33.1-9.7 10.8-19.7 21.2-30.3 31.1-21 19.7-43.7 38-68.3 53.1-24.6 15.1-51.6 27-79 35.6-12.8 4-25.1 7.2-38.6 7.7-7.1.3-14.6.1-21.9 1 6 1.6 12 3 18.1 4.4 55.8 12.5 115.5 16.1 169.5-5.7 46-18.5 82.1-54.6 105-98.1 19.8-37.8 30.8-79.8 35.8-122.1C412.4 220.2 400.3 218.7 388.4 216.1zM429.7 141.8c-.9-19.5-5.1-39.8-20-53.1-.3 0-.5.1-.8.1-22.1 1.1-43.9 5.2-65.3 10.5-1.1.3-2.2.6-3.3.8-.7 1.6-2.3 2.8-4.1 3.2-.1.2-.1.4-.2.7-.4 1.4-.7 2.8-1 4.2-.5 2.9-.9 5.3-.4 8.2 1.5 7.9 7.1 15.1 12.3 21 7.4 8.5 15.9 15.7 25.1 22.2 9.9 7 20.5 13.5 31.7 18.1 6 2.4 18.5 7.4 22.1.6.7-1.3 1.7-2.1 2.8-2.5C429.7 164.4 430.3 153 429.7 141.8z"/><path fill="#C56528" d="M361.8,208.3c-19.6-7.4-39-17.6-52.5-34.1c-9.7-11.9-17.3-25.4-20.2-40.6c-1.2-6-1.7-13.1-0.1-19.2c-1,0.3-1.9,0.6-2.9,0.9c-34,11.1-66.9,25.7-97.2,44.7c-22,13.8-42.8,29.5-61.3,47.6c-18.7,18.2-37,38.8-49.6,61.8c-26.7,48.8-24.1,106.3-24,160.3c7.7,2.5,15.5,4.9,23.3,7.2c0.6-0.8,1.4-1.5,2.4-1.9c14.9-6.2,31.9-3.7,47.5-5.4c13.8-1.5,27.8-6.9,40.8-11.7c13.7-5.1,27.1-10.9,40.2-17.3c25.9-12.6,49.9-30.2,71.7-48.9c22-18.9,42.3-39.8,60.6-62.2c9.2-11.3,17.4-23.1,23.4-36.5c5.6-12.6,9.6-25.8,13.7-38.9c0.1-0.2,0.2-0.5,0.3-0.7C372.4,212,367.1,210.3,361.8,208.3z M287.1,155.3c-3.5,2.2-7.9,3.7-10.9,6.6c-0.1,0.1-0.2,0.2-0.3,0.3c2.1,3.6,3.4,7.7,3.2,12c-0.2,5.9-3.4,12.8-8.8,15.8c-5.2,2.9-11,1-15.2-2.7c-3-2.6-5.5-5.7-7.9-8.9c-2,1.5-4.2,2.7-6.4,3.9c4,5.6,6.1,12.3,4.9,19.8c-0.9,5.5-3.5,12.7-10.2,13.1c-5.3,0.3-9.9-3.2-13.5-6.7c-2.5-2.4-4.9-5-7.1-7.6c-0.8,0.5-1.6,1-2.4,1.5c-0.1,0.1-1,0.9-0.6,0.5c-0.1,0.1-0.2,0.2-0.3,0.3l0,0c0.2-0.1-0.1,0.7,0,0.1c0,0.1,0,0.1,0,0c0,0,0,0,0,0c-0.2,2.3-1.4,4.3-3.4,5.1c2.4,4.1,4.5,8.4,5.5,12.9c1.5,7,0.2,14.5-6.4,18.3c-5,2.9-10.8,0.9-15.3-2c-3.7-2.4-7-5.2-10.1-8.2c-0.4,0.4-0.8,0.9-1.2,1.3c-0.1,0.2-0.4,0.5-0.6,0.8c-0.2,1.2-0.8,2.1-1.7,2.9c5.3,5.2,9.3,11.5,11.1,18.5c1.5,5.9,2.4,13.2-2.2,18.1c-5,5.3-13.6,3.1-19.1-0.2c-4.8-2.9-9-7.3-13.3-11.6c-2.6,3.7-6.2,6.7-8.8,10.3c8,5.3,16.1,13.1,15.8,22.1c-0.3,6.2-3.6,11.8-10.2,12.6c-5.6,0.7-11.3-2.2-15.9-5c-2.6-1.6-5.1-3.3-7.6-5c-2.6,3.1-5.2,6.3-6.4,10c10.8,5.4,21.9,14.5,13.5,25.8c-1.4,1.9-3.2,2.3-4.9,1.9c-0.9,3.6-5.3,6.4-8.9,3.1c-3.2-3.1-7.4-5.5-12-7.4c-1.8,4.2-4.5,8.1-6.9,12c-1.7,2.9-3.5,5.8-4.7,8.9c-0.4,1-0.7,2.1-0.7,3.1c0,0.5,0.7,1.4,0,0.6c4.6,5.2-2.6,13.6-7.3,8.3c-10.7-12.1,4.3-24.5,9.1-36.1c-4.3-0.9-8.6-1.4-12.6-1.5c-1.8,0-3.1-0.7-4.1-1.8c-2.3-0.3-4.4-1.9-4.8-4.8c-2.9-19.8,20.6-20.3,33.7-16.2c0.1,0,0.2,0.1,0.2,0.1c1.8-4.5,4.6-8.4,7.6-12.2c-0.4-0.3-0.8-0.6-1.2-0.8c-3.7-2.5-9.4-6.6-13.5-6.3c-5.7,0.4-7.3-6.6-4.1-9.6c-0.8-1.7-0.7-3.7,1-5.5c9.2-9.6,24.2-6.6,35.2-1.4c0.2-0.5,0.5-1.1,0.8-1.6c2.6-3.7,6.8-6.7,9-10.7c-4.3-3-9.1-4.9-14.9-4.2c-4.7,0.6-6.6-4.1-5.3-7.5c-5.1-13.8,14.9-22,27-19.4c5.6,1.2,11.2,3.5,16.4,6.8c0.5-1.4,1.6-2.8,2.5-3.9c0.6-0.7,1.3-1.5,2-2.2c-2.7-2.8-5.6-6-7.9-7.4c-3.3-2.1-3.2-6-1.6-8.5c-0.2-0.3-0.4-0.5-0.5-0.8c-7.6-14.5,13.4-16.8,22.9-14.6c5.6,1.3,10.7,4.6,14.6,8.8c0.8-1.9,2-3.5,3.7-5c0.8-0.6,1.6-1.2,2.4-1.7c-1.5-1.7-3-3.4-4.7-5c-0.8-0.8-1.6-1.6-2.5-2.3c-1.2-0.9-0.2-0.3-1.4-0.9c-2.6-1.2-3.4-3.6-2.9-5.8c-0.1-0.5-0.2-1.1-0.2-1.7c0.5-16,17.8-13.9,28.1-8.4c3.2,1.7,6.3,3.8,9.2,6.1c0.6-0.7,1.4-1.3,2.4-1.8c-0.7,0.4,1.1-0.6,1.2-0.7c0.7-0.4,1.4-0.7,2-1.2c0.7-0.5,1.4-1,2.1-1.5c-2.6-4-5.1-8.3-8.6-11.4c-3.6-3.1-1.5-7.9,1.9-9.3c3.5-9.7,17.6-6.1,24.6-2.1c3.4,1.9,6.9,4.4,10,7.2c3.7-3.1,8-4.9,12-7.5C286.9,142.3,293,151.4,287.1,155.3z"/><path d="M440.8,143.6c-0.6-24.3-6.7-50.6-27.2-66c-2.5-1.8-5.3-1.3-7.1,0.2c-30.6,1.7-60.6,9-90,17.2c-25.4,7.1-50.4,14.8-74.7,25.2c-47.5,20.3-91.6,48.9-128,85.7c-13.6,13.8-26,28.9-37,44.8c-11.8,17.1-19.8,36-25,56.1C41.3,347.4,43,390.2,43,431.7c0,2,0.9,3.4,2.1,4.1c0.5,1.7,1.7,3.2,3.8,3.8c54.3,17.7,111.2,31.4,168.7,27.3c28.6-2,56.8-9.1,82.7-21.3c22.2-10.5,42.1-25.6,59.2-43.2c33-34.1,53.4-78.4,65.3-123.8c6.1-23.1,9.9-46.8,12-70.6C438.9,186.7,441.3,165,440.8,143.6z M77.2,437c-7.8-2.3-15.5-4.7-23.3-7.2c-0.1-53.9-2.7-111.4,24-160.3c12.6-23,31-43.6,49.6-61.8c18.6-18.1,39.4-33.9,61.3-47.6c30.3-19,63.2-33.6,97.2-44.7c1-0.3,1.9-0.6,2.9-0.9c-1.6,6-1.1,13.2,0.1,19.2c3,15.2,10.5,28.7,20.2,40.6c13.5,16.5,32.9,26.7,52.5,34.1c5.3,2,10.7,3.7,16.1,5.2c-0.1,0.2-0.2,0.4-0.3,0.7c-4.1,13.2-8.1,26.3-13.7,38.9c-6,13.4-14.1,25.1-23.4,36.5c-18.3,22.4-38.6,43.4-60.6,62.2c-21.8,18.7-45.8,36.2-71.7,48.9c-13.1,6.4-26.5,12.2-40.2,17.3c-13,4.8-27,10.2-40.8,11.7c-15.7,1.7-32.7-0.8-47.5,5.4C78.6,435.5,77.8,436.2,77.2,437z M388.8,342.7c-22.9,43.6-59,79.6-105,98.1c-54,21.8-113.7,18.2-169.5,5.7c-6.1-1.4-12.1-2.8-18.1-4.4c7.3-0.9,14.8-0.7,21.9-1c13.5-0.5,25.8-3.7,38.6-7.7c27.5-8.6,54.5-20.5,79-35.6c24.6-15.1,47.3-33.3,68.3-53.1c10.6-9.9,20.6-20.3,30.3-31.1c9.4-10.5,18.9-21.4,26.8-33.1c13.2-19.7,20.2-41.9,27.2-64.3c0-0.1,0-0.1,0-0.2c11.9,2.6,24,4.1,36.2,4.5C419.6,263,408.6,304.9,388.8,342.7z M426.1,205.9c-0.1,1.3-0.2,2.5-0.4,3.8c-19-0.4-38-4-55.9-10.1c-17.4-6-34.9-14.5-48-27.6c-9.4-9.5-16.8-21.6-20.5-33.9c-1.6-5.3-6.8-24.2,2.5-25.3c2.7-0.3,4.2-2.1,4.7-4.2c5.4-1.5,10.7-3,16.1-4.5c-1.9,7.9-1.3,15.4,2.2,22.9c7,15.2,20.5,27.9,33.9,37.8c12.4,9.2,25.8,17.8,40.2,23.5c8,3.2,18.6,5.9,26.5,2.6C427,195.9,426.6,200.9,426.1,205.9z M428.9,175.8c-1.1,0.4-2.1,1.2-2.8,2.5c-3.6,6.7-16.2,1.8-22.1-0.6c-11.2-4.6-21.8-11.2-31.7-18.1c-9.2-6.4-17.7-13.7-25.1-22.2c-5.2-5.9-10.8-13.1-12.3-21c-0.6-2.9-0.2-5.3,0.4-8.2c0.3-1.4,0.6-2.8,1-4.2c0-0.2,0.1-0.4,0.2-0.7c1.8-0.4,3.4-1.7,4.1-3.2c1.1-0.3,2.2-0.6,3.3-0.8c21.4-5.3,43.2-9.4,65.3-10.5c0.3,0,0.5-0.1,0.8-0.1c14.9,13.3,19.1,33.6,20,53.1C430.3,153,429.7,164.4,428.9,175.8z"/><path d="M280.9,146.2c-4,2.6-8.4,4.5-12,7.5c-3.1-2.9-6.6-5.3-10-7.2c-7.1-4-21.1-7.5-24.6,2.1c-3.4,1.4-5.4,6.1-1.9,9.3c3.5,3.1,6.1,7.4,8.6,11.4c-0.7,0.5-1.4,1-2.1,1.5c-0.6,0.4-1.3,0.8-2,1.2c-0.2,0.1-1.9,1-1.2,0.7c-0.9,0.5-1.7,1.1-2.4,1.8c-2.8-2.3-6-4.4-9.2-6.1c-10.3-5.5-27.6-7.6-28.1,8.4c0,0.6,0,1.2,0.2,1.7c-0.5,2.2,0.2,4.6,2.9,5.8c1.2,0.6,0.2-0.1,1.4,0.9c0.9,0.7,1.7,1.5,2.5,2.3c1.6,1.6,3.2,3.3,4.7,5c-0.8,0.5-1.7,1.1-2.4,1.7c-1.8,1.5-3,3.1-3.7,5c-3.9-4.2-9-7.6-14.6-8.8c-9.5-2.2-30.5,0.1-22.9,14.6c0.2,0.3,0.3,0.6,0.5,0.8c-1.7,2.5-1.7,6.4,1.6,8.5c2.3,1.4,5.2,4.6,7.9,7.4c-0.7,0.7-1.3,1.4-2,2.2c-0.9,1.1-1.9,2.4-2.5,3.9c-5.1-3.2-10.8-5.6-16.4-6.8c-12.2-2.6-32.1,5.5-27,19.4c-1.3,3.4,0.6,8.1,5.3,7.5c5.8-0.7,10.6,1.2,14.9,4.2c-2.2,4-6.4,7-9,10.7c-0.3,0.5-0.6,1-0.8,1.6c-10.9-5.1-25.9-8.2-35.2,1.4c-1.7,1.8-1.8,3.8-1,5.5c-3.2,3-1.6,10,4.1,9.6c4-0.3,9.8,3.8,13.5,6.3c0.4,0.3,0.8,0.6,1.2,0.8c-3,3.8-5.8,7.7-7.6,12.2c-0.1,0-0.2-0.1-0.2-0.1c-13.2-4.1-36.6-3.6-33.7,16.2c0.4,2.9,2.5,4.4,4.8,4.8c1,1,2.3,1.8,4.1,1.8c3.9,0.1,8.2,0.6,12.6,1.5c-4.8,11.7-19.8,24-9.1,36.1c4.7,5.3,11.9-3,7.3-8.3c0.7,0.8,0-0.1,0-0.6c0.1-1.1,0.4-2.1,0.7-3.1c1.2-3.1,3-6.1,4.7-8.9c2.3-3.9,5.1-7.8,6.9-12c4.5,1.9,8.7,4.3,12,7.4c3.5,3.3,8,0.6,8.9-3.1c1.7,0.4,3.5,0,4.9-1.9c8.4-11.2-2.7-20.4-13.5-25.8c1.2-3.7,3.9-6.9,6.4-10c2.5,1.7,5,3.4,7.6,5c4.6,2.9,10.3,5.7,15.9,5c6.6-0.8,9.9-6.4,10.2-12.6c0.4-9-7.7-16.8-15.8-22.1c2.6-3.6,6.2-6.6,8.8-10.3c4.3,4.3,8.5,8.7,13.3,11.6c5.5,3.3,14,5.5,19.1,0.2c4.6-4.8,3.7-12.2,2.2-18.1c-1.8-7-5.8-13.3-11.1-18.5c0.9-0.7,1.6-1.7,1.7-2.9c0.2-0.3,0.4-0.6,0.6-0.8c0.4-0.5,0.8-0.9,1.2-1.3c3.1,3,6.4,5.9,10.1,8.2c4.5,2.9,10.3,4.9,15.3,2c6.6-3.8,7.9-11.4,6.4-18.3c-1-4.5-3.1-8.9-5.5-12.9c2.1-0.8,3.2-2.8,3.4-5.1c0,0,0,0,0,0c0,0.2,0,0.2,0,0c-0.1,0.6,0.2-0.2,0-0.1l0,0c0.1-0.1,0.2-0.2,0.3-0.3c-0.3,0.4,0.5-0.4,0.6-0.5c0.8-0.6,1.6-1,2.4-1.5c2.3,2.6,4.6,5.2,7.1,7.6c3.6,3.5,8.2,7,13.5,6.7c6.7-0.3,9.3-7.6,10.2-13.1c1.2-7.5-0.9-14.2-4.9-19.8c2.3-1.2,4.4-2.4,6.4-3.9c2.4,3.2,4.9,6.3,7.9,8.9c4.2,3.7,10,5.6,15.2,2.7c5.4-3,8.6-9.8,8.8-15.8c0.2-4.3-1.1-8.3-3.2-12c0.1-0.1,0.2-0.2,0.3-0.3c3-2.9,7.5-4.3,10.9-6.6C293,151.4,286.9,142.3,280.9,146.2z M122.9,317.4c1.9,1.5,2.9,2.4,4,4.3c0.2,0.4,0.1,0.8,0,0.9c-0.4,0.6-0.7,1.1-0.9,1.7c-10.1-8-24.9-11.8-37.6-12.5c0.3-1.6,1.5-2.2,4.2-2.9c4.5-1.2,11,0.2,15.8,1.6C113.5,311.9,118.7,314.2,122.9,317.4z M147,284.9c1.2,1.2,2.3,2.8,3,4.4c0.6,1.4,0.8,3.1,0.7,3.4c-0.3,0.9-0.3,0.6-1.2,0.7c-0.7,0-2.9-0.8-4.1-1.4c-5-2.3-9.5-5.7-14-8.9c-5.6-4-12.2-9.4-19.2-12c6.7-3.2,17.3,1.7,22.8,4.6C139.4,278,143.5,281.2,147,284.9z M179.6,261.3c0,0.6-0.4,1.8-0.2,1.9c-0.7,0.3-3.4-0.8-4.4-1.2c-5.3-2.3-9.4-6.9-13.3-10.9c-7.2-7.4-15-13.5-25-14.4c-0.9-3,4.2-4,6.9-4.7c6.4-1.7,12.8,0.7,18.3,3.8C171,240.8,179.1,250.6,179.6,261.3z M202.8,228.6c-1.1,5.1-12.1-5.7-14.1-7.6c-5.4-5.2-10.3-11.4-16.5-15.8c1-1.2,1.6-2.7,1.5-4.3c0.1,0,0.2,0,0.3,0c2-0.4,4-0.4,6-0.4c4.1,0,7.7,1.2,10.9,3.7c4.2,3.2,6.8,8.1,9.1,12.7C201.8,220.5,203.7,224.3,202.8,228.6z M234,203.5c0,0.1-0.1,0.1-0.1,0.2c-0.4-0.2-0.9-0.4-1.3-0.6c-3.7-2.7-6.9-6.3-9.8-9.7c-4.8-5.5-9.6-13-15.9-17.3c0-0.1,0-0.2,0-0.2c0-0.4,0.1-0.5,0.1-0.6c0.8-0.4,2.3-0.4,3.7-0.2c4.4,0.7,8.8,2.9,12.4,5.4C230.9,185.7,237.8,193.7,234,203.5z M267.9,175.1c-0.3,1.6-1.1,3-2.1,4.3c-0.5,0.6-0.6,0.7-1.2,1.1c0.6-0.4-0.6-0.2,0-0.1c-2.5-0.4-5.9-5-7.7-7.4c-4.5-5.8-8.1-12.8-12.8-18.6c0.1-0.3,0.2-0.7,0.3-1.1c0,0,0,0,0,0c0.5,0,1.1,0,1.5,0c3.7,0.5,7.2,2.4,10.3,4.4C261.7,161.1,269,167.9,267.9,175.1z"/></svg>