<svg xmlns="http://www.w3.org/2000/svg"  viewBox="0 0 512 512" width="64px" height="64px"><path fill="#BCBCBC" d="M334.6,279.8c1.8-6.7,1-13.6-4.4-18.4c-4.8-4.3-11.4-6.4-17.8-6.3c-7,0.1-14.3,2.6-20.1,6.6c-2.7,1.9-5.4,4.1-6.7,7.2c-0.5,1.2-1.6,6.4-0.5,7.2c2,1.4,2.4,3.7,1.8,5.6c13.4,0.8,26.8,1.3,40.1,0.8c2.5-0.1,5-0.2,7.5-0.2C334.4,281.6,334.4,280.7,334.6,279.8z"/><path fill="#BCBCBC" d="M364.8,275.1c-5.3-19.9-11.7-41.7-26.1-56.8c-13.5-14.2-35.9-10.5-53.6-10.4c-24.4,0.2-48.9-0.9-73,3.6c-16.7,3.1-33.7,6.5-43.5,21.9c-4.5,7.1-8.1,15-11.9,22.4c-3.2,6.3-8.3,15.2-7.3,22.7c5.7-1.4,11.9-0.1,17.7,0.4c9.6,0.8,19.1-0.4,28.7-0.8c21.6-0.9,43.4,0.4,65,1.8c5.7,0.4,11.4,0.8,17.1,1.2c-4.4-6.5-1.5-16.9,3.9-22.3c6.8-6.9,17.3-11.9,27.1-12.6c9.7-0.8,20.5,1.7,27.7,8.7c7.5,7.2,9.7,17.1,7,27c0,0,0,0,0,0.1c1.3-0.1,2.7-0.1,4-0.2c5.1-0.4,11.1-0.5,16-2.5C363,277.7,363.6,276.2,364.8,275.1z"/><path fill="#127274" d="M370.1 237.6c-3.4-6.2-6.8-12.5-10-18.8-2.8-5.4-5.2-11-8.4-16.2-5.7-9.3-13.2-19.6-24.4-22.2-11.3-2.6-23.5-1.8-35-1.5-26.5.8-53 3.1-79.3 6.4-10.5 1.3-21.7 2-31.7 5.9-10.5 4.1-16.6 12.1-21.4 22-8.4 17.3-16.4 35.3-26.7 51.7 2.9 1.8 3.3 7-.9 8.3-.6.2-1.1.4-1.7.6 1 .8 2 1.7 3 2.5 1.1.9 1.5 2 1.5 3.1 1.6-.7 3.4-.9 5.2-.9-.7-11.9 6.9-24.4 12.2-34.3 6.2-11.5 11.4-23 22.9-30.3 7-4.5 14.9-7.2 23-8.9 11.4-2.4 23.1-4.3 34.7-5.2 22.4-1.7 45-1 67.4-1.2 9.5-.1 19.6.1 28.6 3.3 9.4 3.4 16.1 9.3 21.9 17.4 11.7 16.5 17.8 36.3 23 55.7 4-1.4 8.2 2.2 10.6 5.5 1.3-1.7 2.8-3.2 4.5-4.5C383.7 262.7 376.9 250.1 370.1 237.6zM126.1 283.3c-.2-.6-.3-1.3-.3-1.8-8.3-6.9-17.9-14.4-28.4-17-5.3-1.3-10.4-.7-15.2 2.1-3.1 1.8-8.8 5.3-8.2 9.7.4 2.6 3.6 4.5 5.5 5.8 3 2.1 6.1 4 9.3 5.6 5.4 2.7 12.8 6.4 19 6.1 4.2-.1 8.8-1.6 12.4-3.7C122.6 288.8 127.2 286.5 126.1 283.3z"/><path fill="#BCBCBC" d="M125.9 423.4c-6.6-2.8-12.9-6.7-17.8-11.9.4 3.7.4 7.4.7 11.1.2 2.9.3 5.8 1 8.6.2.9.4 2 .9 2.9.4.8 1.2 1.3.6 1.2 4.8 1.3 10.1 1 15.1 1 6.2.1 12.4.4 18.6.7l.4-9.1c0-.3.1-.7.1-1C138.8 426.5 132.2 426.1 125.9 423.4zM386.7 453.5c-2.5-1.5-3.2-5.5-.8-7.5 0-.3 0-.6 0-.9-4.1.8-8.1 1.4-12.3 1.6-2.3.1-4.8-1.9-4.7-4.4.1-2.4 0-4.8 0-7.2 0-1.3-.1-2.6-.1-4-1.9 0-3.7 0-5 0-3.1.1-6.1.2-9.2.3.3 1.2 0 2.6-1.3 3.7-.1.5-.3 1-.3 1.5-.2 1.3-.2 2.6-.2 4 0 4.2.3 8.4.8 12.6.5 3.9 1.1 7.9 2.1 11.7.3 1.3.7 2.6 1.2 3.8 0-.1.1.1.2.4 0 0 0 0 .1 0 3.5 1.7 8.1 1.9 11.9 2.1 3.9.2 8.2.5 12.1-.3C387.6 469.7 387.5 460 386.7 453.5z"/><path fill="#BCBCBC" d="M162.5 431.1c-.6-.1-1.3-.2-1.9-.2-1.4-.2-2.9-.3-4.3-.2.1 0-.6.1-1 .1-.3.4-.7.6-1.1.8l-.4 10.2c-.1 2.3-1.8 4.8-4.4 4.7-8.5-.4-17.1-.8-25.6-.9-.5 0-1 0-1.6 0 0 .3 0 .7-.1 1.1-.8 4.8-1 9.8-.8 14.6.2 4.2.3 8.9 3.9 11.7 3.5 2.7 8.4 3.3 12.6 3.6 3.9.2 7.7.8 11.6 1.2 2.8.3 8.7 1.3 10.3-1.9 2-3.7 2.3-8.2 2.4-12.4C162.6 452.6 162.1 441.8 162.5 431.1zM267.4 394.5c-16.8-.8-33.6-2.1-50.4-2.9 6 2.5 12.4 4.2 18.8 4.9 7.9.8 16-.5 23.9-.6 6.7-.1 12.9.5 19.4 2 5.9 1.3 12.1 3 18.2 2.5 6.5-.6 11.7-3.7 16.6-8 .2-.2.4-.4.6-.5C299.3 396.1 283.1 395.2 267.4 394.5zM328.2 366.5c-3.2-2-7.3-2.1-11-2.2-6-.2-12 .4-18 .6-12.8.6-25.5-1.7-38.3-2.4-13.2-.7-26.3.2-39.5 1.1-6.6.4-13.5 1.3-20.1.9-3.6-.2-8-1-11.6.3.8 2.1 1.8 4.1 2.9 6.1.5-1.4 1.8-2.5 3.9-2.4 23.7 1 47.4 2.8 71.2 2.5 11.5-.2 23-.7 34.5-1.1 2.8-.1 5.6 0 8.4-.2 2.6-.2 5.5-1.1 8-1 1.2.1 2.5.1 3.7.1.1 0 .3 0 .5 0 .9-.7 2.2-1 3.7-.5 1.1.4 2.3.9 3.1 1.7C329.4 368.4 329.4 367.2 328.2 366.5zM320.3 377.7c-4.5-.2-8.9 1.2-13.5 1.1-11.9-.3-23.9.9-35.8 1.1-24.6.4-49.2-1.3-73.7-2.4 2.5 2.9 5.4 5.5 8.5 7.8.4-1.8 1.7-3.2 4.1-3.1 18.7.8 37.3 2.3 55.9 3.2 14.5.7 29.7 1.8 43.9-1.7.7-.8 1.8-1.3 3.2-1.3l1.6.1c2.9.1 4.6 2.5 4.6 4.8 2.8-3 5.4-6.2 7.4-9.8C324.6 378 322.3 377.8 320.3 377.7z"/><path fill="#127274" d="M381.7,296.2c0-2.4-1.5-5.8-3-8.3c-0.7-1.3-1.5-2.6-2.6-3.6c0,0,0,0,0,0c-1.2,0.5-2.8,0.2-3.9-0.5c-0.3,0.9-0.9,1.6-2,2.2c-5.7,3.2-12.7,4-19.2,4.6c-6.8,0.6-13.6,0.7-20.5,1c-21.6,0.8-43-0.7-64.6-2.2c-21.7-1.5-43.5-2.9-65.3-2.3c-10.2,0.3-20.5,1.7-30.7,1.1c-3.4-0.2-6.8-0.7-10.2-0.9c-2.6-0.2-6.6-1-9,0.2c-1.1,0.5-2.1,0.6-3.1,0.3c-1.2,1-3,1.4-4.8,0.4c-0.9-0.5-2.1-0.8-3.1-0.7c-0.9,0-0.9,0-1.6,0.2c0,0,0,0,0,0c0.1,0,0.1,0-0.1,0.1c-1,1.4-2.6,2.3-4.3,2.1c-2.9,5.3-9.9,9.1-16.3,11.1c-0.3,7.3-1,15.4,4,21.5c5.4,6.8,14.7,11.9,22.7,15c4.6,1.8,9.6,2.9,14.3,4.3c4.8,1.4,9.6,2.9,14.5,4.3c7.6,2.1,15.8,3.4,23.1,6.3c1.5,0.6,2.3,1.7,2.4,2.9c0,0,0.1,0,0.1,0c6.9,0.5,13.9-0.1,20.7-0.6c14.2-0.9,28.4-2,42.6-1.1c13.9,0.9,27.3,2.9,41.3,2c6.8-0.4,13.5-0.6,20.3,0.1c0.3,0,0.6,0.1,0.9,0.1c0.2-1,0.9-2,2.2-2.6c7-3.3,14.7-4.3,21.8-7.3c6.3-2.7,11.9-8,16.6-12.9c9.2-9.7,15.4-21.5,17-34.7C381.9,297.7,381.7,297,381.7,296.2z"/><path fill="#127274" d="M409.9 313.5c-7.4.7-14.8-.5-20.4-5.5-2.8 10.8-8.1 20.9-15.8 29.2-5.2 5.6-11.6 12.3-18.7 15.7-6.7 3.2-14 4.3-20.8 6.9 9.8 8.5.6 23.3-6 31-4.4 5.2-9.5 10-15.3 13.6-7.2 4.5-15.3 5.7-23.7 4.6-6.6-.9-13.2-3.4-19.8-3.8-6.1-.4-12.3-.2-18.4.2-10.4.6-20.5.4-30.5-2.9-18.1-5.9-34-18.3-40.1-36.9-.6-1.7-.1-3.2.8-4.2.1-1.2.6-2.5 1.9-3.3-1.6-.3-3.3-.6-4.9-1-4.8-1.1-9.5-2.7-14.2-4.2-9.7-2.9-20-5-29-9.7-8.2-4.2-18.5-10.3-22.9-18.8-2.8-5.6-3.5-11.3-3.5-17.3-1.6 2.1-3.2 4.2-4.7 6.4-3.3 5-4.1 10.4-4.9 16.3-1.5 12.1-2.3 24.9-2.2 37.1 0 4.7.3 10.1 1.7 13.8 1.2 3.1 2.7 6 4.1 8.9 1 2 3.3 5.6 4.5 9.1 1.5-.1 3 .5 4 2.1 4.7 7.7 13 12.9 21.4 15.7 9.4 3.1 19.7 1.3 29.2 4.3.9.3 1.7.8 2.2 1.4 1.5.3 3 .5 4.3.7 9 1.4 17 2.1 26.2 2.2 26.1.3 52.3-.7 78.4.3 12.9.5 25.6-1 38.5-1.9 9-.6 18-.4 27-.5 7-.1 14-.3 21-.5 3.3-.1 6.5-.3 9.8-.5 1-.1 2-.1 3-.2 1.1-.1.8-.1.1.3.4-.2.8-.3 1.2-.3.1 0 .1-.1.2-.1 12-4.8 22.3-11.9 31.1-21.3 1.2-1.3 2.7-1.6 4-1.3 7.4-9.8 11.7-21.2 12-34.2C421.3 346.8 410.8 331.1 409.9 313.5zM179.9 413c-6.6 2-13.6 2.1-20.5 2.3-8.3.2-17.1 1.4-25.2-1.2-14.3-4.6-23-19.5-27.8-33-2.1-5.9-3.6-13.2.6-18.6 5.1-6.7 16.2-5.5 22.9-2.3 5.5 2.6 9.9 6.8 15.4 9.4 5.4 2.5 10.9 4.8 16.2 7.4 8.3 4 15.5 11.8 24.6 14 2.6-1.1 6.4.1 6.7 3.8C193.5 403.6 188.3 410.4 179.9 413zM407.4 387.8c-4.8 7.3-12.5 13.1-19.9 17.5-7.7 4.7-16.7 9.5-26 9.2-10.4-.3-20.6-3.3-29.9-7.9-2.5-1.2-2.8-3.6-1.9-5.6-.2-.9-.2-2 .2-3 1.1-2.7 2.6-5.1 4.4-7.3 6.1-7.5 14.6-12.8 22.7-17.9 6.6-4.2 12.5-9.2 18.9-13.8 6.3-4.5 13.9-9.6 22.1-9.3 8.3.3 12.8 7.5 13.8 15.1C412.8 372.2 411.6 381.3 407.4 387.8zM442.2 282c-4.4-10.6-16.1-9.7-25.6-7.6-5.8 1.2-11.6 2.9-16.9 5.7-1.7.9-3.9 2-5.7 3.5 1.6 1.6 2 4-.1 6-1.5 1.4-2.2 2.8-2.4 4.2 0 .2 0 .4 0 .6 0 3.6 3.4 7.1 7.1 8.9 5.5 2.7 12.5 1.3 18.2-.2 7.1-1.8 14.2-4.2 20.5-7.9C442.5 292.2 444.6 287.7 442.2 282z"/><path fill="#BCBCBC" d="M399.9,416.9c-6,4.6-12.4,8.4-19.4,11.5c-0.5,1-1.3,1.7-2.5,2c0,1.3,0,2.6,0,3.7c0,1.1,0,2.2,0.1,3.2c7.6-0.9,15.1-2.9,22.5-4.7C400.4,427.3,400,422.1,399.9,416.9z"/><path fill="#FEBF10" d="M160.3,386.4c-4.9-2.7-10-4.9-15.1-7.1c-2.8-1.2-5.6-2.5-8.3-3.9c-2.3-1.2-4.2-3.3-6.5-4.7c-2.8-1.7-16.7-8-16.9-0.6c-0.1,6,2.8,11.9,5.6,17.1c3.1,5.9,6.6,12.5,12.5,16c6.9,4.1,14.9,3.8,22.6,3.4c7.7-0.4,25.3,1.5,28.9-7.1C174.6,397.1,167.8,390.6,160.3,386.4z"/><path fill="#010101" d="M402.4,363.6c-0.7-2.4-1.8-4.6-4.5-4.9c-2.8-0.3-6,1.1-8.4,2.4c-6.3,3.4-11.8,7.8-17.3,12.2c-10.6,8.4-26.5,14.2-33.1,26.7c7.2,3.2,15.5,5.7,23.3,5.4c7.7-0.3,15.1-4.5,21.5-8.5c5.8-3.8,13.3-8.5,16.4-15C402.9,376.7,404.2,369.4,402.4,363.6z"/><path fill="#010101" d="M411.8 364.8c-1-7.5-5.5-14.8-13.8-15.1-8.1-.3-15.7 4.8-22.1 9.3-6.4 4.6-12.2 9.6-18.9 13.8-8.1 5.1-16.6 10.3-22.7 17.9-1.8 2.2-3.3 4.6-4.4 7.3-.4 1.1-.5 2.1-.2 3-.9 1.9-.6 4.4 1.9 5.6 9.3 4.6 19.5 7.6 29.9 7.9 9.2.3 18.3-4.6 26-9.2 7.4-4.5 15.1-10.2 19.9-17.5C411.6 381.3 412.8 372.2 411.8 364.8zM400.3 382c-3.2 6.4-10.6 11.2-16.4 15-6.3 4.1-13.8 8.3-21.5 8.5-7.8.3-16.1-2.2-23.3-5.4 6.6-12.5 22.5-18.3 33.1-26.7 5.5-4.4 11.1-8.8 17.3-12.2 2.4-1.3 5.6-2.7 8.4-2.4 2.7.3 3.8 2.6 4.5 4.9C404.2 369.4 402.9 376.7 400.3 382zM192.8 394.7c-.3-3.7-4.1-4.9-6.7-3.8-9.1-2.2-16.3-10-24.6-14-5.4-2.6-10.8-4.9-16.2-7.4-5.5-2.5-9.9-6.8-15.4-9.4-6.6-3.1-17.8-4.3-22.9 2.3-4.1 5.4-2.6 12.7-.6 18.6 4.7 13.6 13.4 28.4 27.8 33 8.1 2.6 16.9 1.5 25.2 1.2 6.9-.2 13.8-.3 20.5-2.3C188.3 410.4 193.5 403.6 192.8 394.7zM154.2 406.5c-7.7.4-15.7.6-22.6-3.4-5.9-3.5-9.4-10.2-12.5-16-2.8-5.2-5.7-11.1-5.6-17.1.1-7.3 14.1-1.1 16.9.6 2.2 1.4 4.2 3.4 6.5 4.7 2.7 1.5 5.5 2.7 8.3 3.9 5.1 2.2 10.3 4.4 15.1 7.1 7.6 4.2 14.4 10.7 22.9 13.1C179.5 408.1 161.9 406.2 154.2 406.5z"/><path fill="#010101" d="M452.2,285.1c-0.6-8.4-6.3-15.6-13.7-19.2c-5.9-2.8-13.4-2.1-19.6-1.1c-7.6,1.1-14.9,3.3-21.8,6.5c-9.5-22.3-22.2-43.2-33-64.9c-5.1-10.3-11.8-20.2-20.5-27.7c-8.1-7.1-18.8-8.5-29.2-8.9c-25.9-1.2-52.4,1.2-78.2,3.7c-12.4,1.2-24.7,2.8-37,4.4c-10.3,1.3-20.5,3.3-29.5,8.8c-13.1,8-18.5,23.5-25,36.6c-7.3,14.6-14.3,29.6-23.4,43.2c-8.8-6.3-18.6-11.4-29.1-11.8c-11.9-0.4-31.7,11.4-26.4,25.5c2.9,7.7,13.1,12.6,20,16c4.5,2.2,9.9,4.6,15.3,5.8c-1.5,2.1-3.1,4-4.6,6.1c-3.3,4.5-4.7,9.4-5.7,14.8c-2.3,12.2-2.3,24.8-2.9,37.1c-0.5,9-0.4,18.2,3.3,26.6c1.5,3.4,3.2,6.6,4.8,10c0.6,1.3,1.3,2.6,1.9,3.9c0.2,0.4,0.4,0.9,0.5,1.3c-0.2,1.2,0.1,2.3,0.9,3.2c-0.8,1-1.2,2.3-0.8,3.9c2.7,10.5-1.7,25.3,7.3,33.5c1.8,1.6,4.5,2.3,7.4,2.7c-1.6,10.5-2.8,24.2,4.3,32.7c7,8.4,21.1,7.5,30.9,8.6c5.1,0.6,10,0.6,14.7-1.7c4.9-2.4,6.6-8.8,7.4-13.7c2.1-12.6,0.7-25.9,0.9-38.7c0.3,0.1,0.6,0.1,1,0.2c10,1.6,20.1,1.4,30.2,1.4c13.2,0,26.4-0.2,39.6-0.2c12.8,0,25.6,0.8,38.4,0.6c12.9-0.2,25.7-1.9,38.6-2.5c7.7-0.4,15.3,0,23-0.1c0.9,0,1.7,0,2.6-0.1c-0.9,2.2-1,5-1.1,7.1c-0.3,5.2,0.2,10.5,0.8,15.6c0.8,6.9,1.3,19.5,8.7,22.9c4.9,2.3,10.7,2.7,16,3c5.2,0.3,11,0.5,16-1.1c11.1-3.6,11.3-18,10-28.2c0.3-0.9,0.4-2,0.1-3c-0.2-0.7-0.4-1.4-0.6-2c0.4-0.9,0.5-1.9,0.3-2.9c3.7-0.9,7.5-1.8,11.2-2.7c2.1-0.5,3.2-2.6,3.2-4.5c0.2-7.8-0.8-15.6-0.6-23.5c12.3-12.2,19.2-26.8,20.7-44.3c0.9-9.7-1-18.9-3.9-28.2c-2.9-9.2-6.6-18.3-6.8-28.1c7.1-1.7,14.1-4.3,20.6-7.6C447.3,300.4,452.8,294.4,452.2,285.1z M132.3,273.1c4.2-1.3,3.7-6.6,0.9-8.3c10.2-16.4,18.2-34.4,26.7-51.7c4.8-9.9,10.8-17.9,21.4-22c10-3.9,21.2-4.5,31.7-5.9c26.3-3.4,52.8-5.6,79.3-6.4c11.5-0.4,23.7-1.2,35,1.5c11.2,2.6,18.7,13,24.4,22.2c3.2,5.2,5.7,10.8,8.4,16.2c3.2,6.3,6.7,12.5,10,18.8c6.8,12.6,13.7,25.1,19.1,38.4c-1.7,1.3-3.2,2.8-4.5,4.5c-2.4-3.3-6.6-6.9-10.6-5.5c-5.2-19.4-11.3-39.2-23-55.7c-5.8-8.1-12.5-14-21.9-17.4c-9-3.3-19.1-3.4-28.6-3.3c-22.4,0.2-45-0.5-67.4,1.2c-11.7,0.9-23.3,2.7-34.7,5.2c-8.1,1.7-16,4.4-23,8.9c-11.4,7.3-16.7,18.8-22.9,30.3c-5.4,10-13,22.4-12.2,34.3c-1.8-0.1-3.6,0.2-5.2,0.9c0-1.1-0.4-2.2-1.5-3.1c-1-0.8-2-1.7-3-2.5C131.1,273.5,131.7,273.3,132.3,273.1z M313,382.4c-1.5-0.1-2.5,0.5-3.2,1.3c-14.2,3.5-29.4,2.4-43.9,1.7c-18.7-0.9-37.3-2.4-55.9-3.2c-2.4-0.1-3.7,1.3-4.1,3.1c-3.1-2.3-6-4.9-8.5-7.8c24.6,1.1,49.1,2.8,73.7,2.4c11.9-0.2,23.9-1.4,35.8-1.1c4.5,0.1,9-1.2,13.5-1.1c2,0.1,4.3,0.3,6.3-0.2c-2,3.6-4.6,6.8-7.4,9.8c0-2.3-1.7-4.7-4.6-4.8L313,382.4z M314.6,391.8c-0.2,0.2-0.4,0.3-0.6,0.5c-4.8,4.3-10.1,7.4-16.6,8c-6.1,0.5-12.3-1.2-18.2-2.5c-6.5-1.5-12.8-2.1-19.4-2c-8,0.1-16,1.4-23.9,0.6c-6.5-0.7-12.8-2.3-18.8-4.9c16.8,0.9,33.6,2.1,50.4,2.9C283.1,395.2,299.3,396.1,314.6,391.8z M326.3,368.2c-1.5-0.5-2.8-0.2-3.7,0.5c-0.2,0-0.3,0-0.5,0c-1.2,0-2.5-0.1-3.7-0.1c-2.5-0.1-5.4,0.8-8,1c-2.8,0.2-5.6,0.1-8.4,0.2c-11.5,0.3-23,0.9-34.5,1.1c-23.7,0.3-47.5-1.4-71.2-2.5c-2.1-0.1-3.4,1-3.9,2.4c-1.1-1.9-2.1-4-2.9-6.1c3.6-1.3,8-0.6,11.6-0.3c6.6,0.4,13.5-0.4,20.1-0.9c13.2-0.9,26.3-1.7,39.5-1.1c12.8,0.6,25.5,3,38.3,2.4c6-0.3,12-0.8,18-0.6c3.7,0.1,7.8,0.2,11,2.2c1.1,0.7,1.2,1.9,1.2,3.4C328.6,369.1,327.4,368.6,326.3,368.2z M326.8,353.2c-1.3,0.6-2,1.6-2.2,2.6c-0.3,0-0.6-0.1-0.9-0.1c-6.8-0.8-13.5-0.6-20.3-0.1c-13.9,0.8-27.4-1.2-41.3-2c-14.2-0.9-28.4,0.1-42.6,1.1c-6.9,0.5-13.8,1.1-20.7,0.6c0,0-0.1,0-0.1,0c-0.1-1.2-0.9-2.3-2.4-2.9c-7.4-2.9-15.5-4.2-23.1-6.3c-4.9-1.3-9.7-2.8-14.5-4.3c-4.8-1.4-9.7-2.4-14.3-4.3c-8-3.2-17.2-8.3-22.7-15c-4.9-6.1-4.3-14.1-4-21.5c6.4-2,13.4-5.8,16.3-11.1c1.7,0.1,3.3-0.7,4.3-2.1c0.1-0.1,0.1-0.1,0.1-0.1c0,0,0,0,0,0c0.7-0.3,0.7-0.2,1.6-0.2c1,0,2.2,0.3,3.1,0.7c1.8,1,3.6,0.6,4.8-0.4c0.9,0.2,2,0.1,3.1-0.3c2.4-1.1,6.5-0.3,9-0.2c3.4,0.2,6.8,0.7,10.2,0.9c10.2,0.5,20.5-0.9,30.7-1.1c21.7-0.6,43.6,0.8,65.3,2.3c21.5,1.5,43,2.9,64.6,2.2c6.8-0.2,13.7-0.4,20.5-1c6.4-0.6,13.5-1.3,19.2-4.6c1-0.6,1.7-1.4,2-2.2c1.2,0.7,2.7,1,3.9,0.5c0,0,0,0,0,0c1.1,1,1.8,2.4,2.6,3.6c1.5,2.5,3,5.9,3,8.3c0,0.8,0.2,1.6,0.5,2.2c-1.6,13.1-7.8,25-17,34.7c-4.7,4.9-10.3,10.2-16.6,12.9C341.5,348.9,333.8,349.9,326.8,353.2z M363.4,279.2c-4.9,2-10.9,2.1-16,2.5c-1.3,0.1-2.7,0.2-4,0.2c0,0,0,0,0-0.1c2.7-9.9,0.5-19.8-7-27c-7.2-6.9-18-9.4-27.7-8.7c-9.7,0.8-20.2,5.8-27.1,12.6c-5.4,5.4-8.3,15.8-3.9,22.3c-5.7-0.4-11.4-0.8-17.1-1.2c-21.6-1.5-43.4-2.7-65-1.8c-9.6,0.4-19.1,1.6-28.7,0.8c-5.8-0.5-12-1.7-17.7-0.4c-1-7.5,4.1-16.4,7.3-22.7c3.8-7.5,7.4-15.4,11.9-22.4c9.8-15.4,26.8-18.8,43.5-21.9c24.1-4.5,48.6-3.4,73-3.6c17.6-0.1,40.1-3.8,53.6,10.4c14.3,15.1,20.8,36.9,26.1,56.8C363.6,276.2,363,277.7,363.4,279.2z M334.6,282.3c-2.5,0.1-5,0.1-7.5,0.2c-13.4,0.5-26.8,0-40.1-0.8c0.6-1.9,0.2-4.1-1.8-5.6c-1.1-0.8-0.1-6,0.5-7.2c1.3-3.1,4-5.4,6.7-7.2c5.8-4,13.1-6.5,20.1-6.6c6.4-0.1,13,2.1,17.8,6.3c5.4,4.8,6.2,11.7,4.4,18.4C334.4,280.7,334.4,281.6,334.6,282.3z M88.9,287.6c-3.3-1.6-6.4-3.5-9.3-5.6c-1.9-1.3-5.1-3.3-5.5-5.8c-0.7-4.4,5-7.9,8.2-9.7c4.8-2.7,9.9-3.3,15.2-2.1c10.6,2.5,20.1,10,28.4,17c0,0.6,0,1.2,0.3,1.8c1.1,3.2-3.5,5.5-5.7,6.8c-3.7,2.1-8.2,3.6-12.4,3.7C101.6,294,94.3,290.3,88.9,287.6z M111.3,435.4c0.6,0.1-0.2-0.5-0.6-1.2c-0.5-0.8-0.7-1.9-0.9-2.9c-0.7-2.8-0.9-5.7-1-8.6c-0.2-3.7-0.2-7.4-0.7-11.1c4.9,5.2,11.2,9.1,17.8,11.9c6.3,2.7,12.9,3.1,19.5,3.6c-0.1,0.3-0.1,0.6-0.1,1l-0.4,9.1c-6.2-0.3-12.4-0.6-18.6-0.7C121.4,436.4,116.1,436.7,111.3,435.4z M162.2,463.4c-0.1,4.2-0.4,8.6-2.4,12.4c-1.7,3.1-7.5,2.2-10.3,1.9c-3.9-0.4-7.7-1-11.6-1.2c-4.2-0.2-9.2-0.9-12.6-3.6c-3.6-2.8-3.7-7.5-3.9-11.7c-0.2-4.9,0-9.8,0.8-14.6c0.1-0.4,0.1-0.7,0.1-1.1c0.6,0,1.1,0,1.6,0c8.5,0.2,17.1,0.6,25.6,0.9c2.6,0.1,4.3-2.4,4.4-4.7l0.4-10.2c0.4-0.2,0.7-0.5,1.1-0.8c0.4,0,1.1-0.1,1-0.1c1.4,0,2.9,0.1,4.3,0.2c0.6,0.1,1.3,0.2,1.9,0.2C162.1,441.8,162.6,452.6,162.2,463.4z M381,471.1c-3.8,0.8-8.2,0.5-12.1,0.3c-3.8-0.2-8.4-0.5-11.9-2.1c0,0,0,0-0.1,0c-0.1-0.2-0.2-0.4-0.2-0.4c-0.5-1.2-0.9-2.5-1.2-3.8c-1-3.8-1.6-7.8-2.1-11.7c-0.5-4.2-0.8-8.4-0.8-12.6c0-1.3,0-2.7,0.2-4c0.1-0.5,0.2-1,0.3-1.5c1.3-1.1,1.6-2.5,1.3-3.7c3.1-0.1,6.1-0.2,9.2-0.3c1.3-0.1,3.1,0,5,0c0,1.3,0.1,2.6,0.1,4c0,2.4,0.1,4.8,0,7.2c-0.1,2.4,2.3,4.5,4.7,4.4c4.1-0.2,8.2-0.8,12.3-1.6c0,0.3,0,0.6,0,0.9c-2.4,2-1.7,6,0.8,7.5C387.5,460,387.6,469.7,381,471.1z M378,437.3c0-1.1,0-2.2-0.1-3.2c0-1.1,0.1-2.4,0-3.7c1.2-0.3,2.1-1,2.5-2c7-3.1,13.4-6.9,19.4-11.5c0.1,5.2,0.6,10.5,0.7,15.7C393.1,434.4,385.6,436.3,378,437.3z M420.8,364.6c-0.4,13-4.6,24.4-12,34.2c-1.3-0.3-2.8,0-4,1.3c-8.8,9.4-19.1,16.6-31.1,21.3c-0.1,0-0.1,0.1-0.2,0.1c-0.4,0.1-0.8,0.1-1.2,0.3c0.7-0.4,0.9-0.4-0.1-0.3c-1,0.1-2,0.2-3,0.2c-3.2,0.2-6.5,0.3-9.8,0.5c-7,0.3-14,0.5-21,0.5c-9,0.1-18-0.1-27,0.5c-12.8,0.9-25.6,2.4-38.5,1.9c-26.1-0.9-52.3,0-78.4-0.3c-9.2-0.1-17.2-0.8-26.2-2.2c-1.3-0.2-2.8-0.5-4.3-0.7c-0.5-0.6-1.2-1.1-2.2-1.4c-9.5-3-19.8-1.2-29.2-4.3c-8.4-2.8-16.8-8-21.4-15.7c-1-1.6-2.5-2.2-4-2.1c-1.2-3.5-3.6-7.1-4.5-9.1c-1.5-2.9-3-5.8-4.1-8.9c-1.4-3.7-1.7-9.1-1.7-13.8c-0.1-12.2,0.7-25,2.2-37.1c0.7-5.8,1.6-11.3,4.9-16.3c1.5-2.2,3.1-4.3,4.7-6.4c0,6,0.7,11.8,3.5,17.3c4.4,8.5,14.6,14.6,22.9,18.8c9.1,4.7,19.3,6.8,29,9.7c4.7,1.4,9.4,3.1,14.2,4.2c1.6,0.4,3.3,0.7,4.9,1c-1.3,0.9-1.9,2.1-1.9,3.3c-0.9,1-1.4,2.4-0.8,4.2c6,18.6,22,31,40.1,36.9c10,3.3,20.1,3.5,30.5,2.9c6.1-0.4,12.3-0.6,18.4-0.2c6.7,0.5,13.2,2.9,19.8,3.8c8.4,1.2,16.5,0,23.7-4.6c5.8-3.6,10.9-8.4,15.3-13.6c6.6-7.7,15.8-22.5,6-31c6.8-2.7,14.1-3.8,20.8-6.9c7-3.3,13.4-10,18.7-15.7c7.7-8.3,13.1-18.4,15.8-29.2c5.6,5,13,6.2,20.4,5.5C410.8,331.1,421.3,346.8,420.8,364.6z M437.4,295.2c-6.3,3.7-13.4,6.1-20.5,7.9c-5.7,1.4-12.7,2.9-18.2,0.2c-3.8-1.8-7.1-5.3-7.1-8.9c0-0.2,0-0.4,0-0.6c0.2-1.4,0.9-2.9,2.4-4.2c2.1-1.9,1.6-4.4,0.1-6c1.8-1.4,4-2.6,5.7-3.5c5.2-2.8,11.1-4.4,16.9-5.7c9.5-2.1,21.2-3,25.6,7.6C444.6,287.7,442.5,292.2,437.4,295.2z"/><g><path d="M505.9,161.5c3.9-28.9,1.8-58.1-12.8-83.8c-11.6-20.4-30.4-35.9-51.5-45.6c-25-11.5-52.4-13.7-79.6-13.6c-32.3,0.2-64.5,4.4-96.8,5.7c-31,1.3-62.1-1.4-93.1,0c-28.5,1.3-57.8,5.5-83.4,18.6C67.6,53.5,49.9,69.3,37,89.2c-15.5,24-19.9,51.8-19,80c0.5,16.3,2.8,32.5,4.9,48.6c2.1,16.3,3.2,32.6,3.7,49c1.7,64.3-6.6,128.3-5,192.6c0.2,7.1,11.1,6.2,11-0.8c-1.6-65.6,6.9-131,4.9-196.6c-1-32.7-7.8-64.9-8.5-97.6c-0.6-28,5.9-54.7,22.8-77.2C66,68.3,86,54.5,108.1,46.2c13.8-5.2,28.5-8.1,43.4-9.6c-1.3,5.3-2.6,11.4-6.7,15.8c-4.8,5.3,3.5,12.5,8.3,7.3c3.9-4.3,5.4-9.6,7.3-15c0.6-1.7,1.2-3.3,1.7-5.1c0.1-0.5,0.2-1,0.4-1.6c0.8-0.7,1.4-1.5,1.7-2.5c5.4-0.3,10.9-0.5,16.3-0.6c0,3.1-0.4,6.1-2.6,8.5c-4.9,5.2,3.4,12.4,8.3,7.3c4.2-4.5,5.1-10.1,5.3-15.9c2.5,0,5,0,7.5,0c4.9,0,9.7,0.1,14.6,0.1v14.6c0,7.1,11,6.2,11-0.8V35c4,0.1,8.1,0.2,12.1,0.2c0,1,0.3,1.9,0.9,2.8c1.5,2.4,2.4,5.8,3.4,8.7c2.2,6.7,12.6,3.1,10.4-3.6c-0.9-2.6-1.7-5.3-2.8-7.8c7.2,0,14.3-0.1,21.5-0.5c0.4,1.2,1.2,2.2,2.7,3c2.6,1.3,3.1,5.5,3.7,8.1c1,3.8,1.8,7.8,4.1,11.1c4.1,5.7,13.3-0.4,9.1-6.2c-2.3-3.1-2.6-7.7-3.6-11.4c-0.5-1.9-1.3-3.7-2.2-5.3c3.1-0.2,6.2-0.4,9.4-0.6c0.8-0.1,1.7-0.1,2.5-0.2c0.1,0.9,0.4,1.8,0.8,2.7c2,3.9,4.6,7.4,7,11c4,5.9,13.1-0.3,9.1-6.2c-1.9-2.8-3.8-5.5-5.6-8.4c4.9-0.4,9.8-0.8,14.7-1.1c0.1,2.2,1.4,4.4,4.3,5c4.8,1,12,10.1,13.9,14.4c2.8,6.5,13.2,2.9,10.4-3.6c-2-4.7-5.3-8.7-8.7-12.5c-1.4-1.5-2.8-3-4.5-4.4c17.8-1,35.6-1.4,53.4,0c24.3,2,48.3,9.5,67.9,24.2c20.9,15.8,34,39,37.5,64.9c4.2,31.1-5.4,61.3-9.7,91.8c-4.4,31.3-3.3,63-1,94.4c1.6,22.7,3.9,45.4,5.2,68.2c0.6,11.4,0.9,22.8,0.8,34.3c-0.1,11.2,0.1,22.7-1.4,33.8c-0.9,7,9.9,9.1,10.8,2.1c2-15.2,1.7-31,1.6-46.3c-0.1-15.9-1.1-31.7-2.3-47.5c-2.4-31.5-5.7-63-5.6-94.6c0-16.1,1.2-32.1,3.7-48C500.1,192.2,503.8,177,505.9,161.5z"/><path d="M142.6 69.9c-2-1.8-6.1-2-7.8.5-1.8 2.7-2.9 5.3-3.8 8.4-.6 2.1-.9 4.7-2.2 6.6-1.7 2.5-1.9 5.6.5 7.8 2 1.8 6.1 2 7.8-.5 1.8-2.7 2.9-5.3 3.8-8.4.6-2.1.9-4.7 2.2-6.6C144.8 75.2 145.1 72 142.6 69.9zM124.4 111.1c-2.9-1.4-5.8 0-7.4 2.5-3.9 6.1-6.1 12.9-10 19-1.6 2.5 0 6.2 2.5 7.4 2.9 1.4 5.8 0 7.4-2.5 3.9-6.1 6.1-12.9 10-19C128.5 115.9 126.9 112.3 124.4 111.1zM92.6 169c-2 6.5-5.5 12.5-8.5 18.6-3.2 6.3 6.7 11.2 9.9 4.9 3.5-7 7.2-13.8 9.5-21.4C105.5 164.3 94.6 162.2 92.6 169zM69.9 214.4c-3.4 4.4-5.6 10.4-9.9 14.1-2.3 1.9-3.3 5-1.5 7.6 1.5 2.3 5.3 3.4 7.6 1.5 5.3-4.5 7.9-10.5 12.1-15.9C82.5 216 74.2 208.8 69.9 214.4zM380.2 82.2c-1.9-4-4.7-6.9-8.2-9.5-2.7-2-6.7-4.1-7.8-7.5-2.3-6.7-12.6-3.1-10.4 3.6 1.3 4 4.2 7 7.5 9.5 2.7 2.1 7 4.2 8.5 7.5 1.3 2.7 4 4.4 7 3.4C379.4 88.3 381.5 84.9 380.2 82.2zM409.6 121.9c-5.5-4.5-11.9-10.9-14.4-17.7-2.4-6.6-12.8-3-10.4 3.6 3.2 8.6 10.6 16.6 17.6 22.3C407.9 134.6 415.1 126.4 409.6 121.9zM439.2 174.2c-4.6-9.7-12.2-16.9-18.6-25.3-4.3-5.6-13.4.5-9.1 6.2 5.8 7.5 13.3 14.1 17.4 22.7C431.8 184.2 442.2 180.6 439.2 174.2zM172.6 70c-.9 4.1-2.6 7.8-4.5 11.6-3.2 6.4 6.7 11.2 9.9 4.9 2.3-4.6 4.4-9.3 5.5-14.4C184.9 65.1 174.1 63 172.6 70zM161.1 112.6c-3.1 6.3-5.9 12.7-9 19-3.2 6.4 6.7 11.2 9.9 4.9 3.1-6.3 5.9-12.7 9-19C174.1 111.1 164.2 106.2 161.1 112.6zM143.1 165.6c-3.7 6.5-6.2 14.1-7.5 21.4-.2 1-.1 1.8.1 2.6-.9 1.1-1.2 2.4-1.2 3.9v1c0 1.4.9 2.8 1.9 3.7 1.1 1 2.6 1.5 4.1 1.4 1.4-.1 2.8-.8 3.7-1.9 1-1.2 1.4-2.5 1.4-4.1v-1c0-.4-.1-.7-.2-1.1.5-.6.9-1.5 1.1-2.5 1.2-6.5 3.2-12.9 6.5-18.6C156.5 164.3 146.6 159.4 143.1 165.6zM213.5 68.4v20c0 7.1 11 6.2 11-.8v-20C224.5 60.5 213.5 61.4 213.5 68.4zM220.5 114.6c-.1-7.1-11-6.2-11 .8 0 4.5 1.1 9.8-.4 14.1-1 2.8-.4 5.9 2.5 7.4 2.4 1.2 6.4.4 7.4-2.5C221.2 127.9 220.6 121.4 220.5 114.6zM258.5 87.6c-1-6.7-2.8-13.3-4-20-1.2-6.9-12.2-6.2-11 .8 1.2 6.7 3 13.3 4 20C248.6 95.4 259.6 94.6 258.5 87.6zM266.6 132.9c-1.2-1.3-1.4-3.6-1.6-5.3-.5-2.8-.8-5.7-1.8-8.4-2.4-6.7-12.8-3-10.4 3.6 1 2.7 1.2 5.5 1.7 8.3.8 3.9 2.2 7 4.8 10 2 2.2 6 1.6 7.8-.5C269.3 138.2 268.6 135.1 266.6 132.9zM306.4 94.1c-1.8-.9-2.9-5-3.7-7.1-1.3-3.4-2.4-6.9-4.2-10.1-3.5-6.2-12.6 0-9.1 6.2 3.9 6.9 4.1 17 12.1 20.9C307.9 107 312.8 97.2 306.4 94.1zM330.6 143.9c-3.2-5.5-6.5-11.4-10.9-16.1-2.1-2.2-5.9-1.6-7.8.5-2.1 2.4-1.6 5.6.5 7.8 0 0 0 0 0 0 .2.2.4.5.6.7.5.6 1 1.3 1.4 2 1.2 1.7 2.3 3.4 3.4 5.2 1.3 2 2.5 4 3.7 6.1C325 156.2 334.1 150 330.6 143.9zM333.2 83.2c-2.5-6.1-5.6-12-9.6-17.3-4.3-5.6-13.5.5-9.1 6.2 3.5 4.5 6.2 9.5 8.4 14.7C325.5 93.4 335.9 89.8 333.2 83.2zM359.5 126.6c-1.5-7.9-5.7-14.6-11.9-19.7-5.5-4.5-12.7 3.7-7.3 8.3 3.8 3.1 7.2 7.3 8.1 12.3.6 2.9 2.7 5.3 5.9 5.1C357.2 132.3 360.1 129.5 359.5 126.6zM387.2 167.2c-1.2-4-4.9-7.2-7.8-10-1.6-1.6-3.2-3.1-4.8-4.6-.5-.4-.9-.9-1.3-1.3-1.5-3.8-7.7-5.4-10.2-.7-2.5 4.7 2.6 8.7 5.6 11.6 1.8 1.8 3.6 3.5 5.4 5.3 1 1 1.2 1.3 1.9 2.1.3.4.5.7.8 1.1 0 0 0 .1 0 .1C378.9 177.6 389.3 174 387.2 167.2zM424.6 218.9c-3.9-4.1-7.2-10.1-8.4-15.7-.7-2.9-4.4-4.3-7-3.4-3.1 1.1-4 4.1-3.4 7 1.7 7.4 6.3 14.9 11.6 20.3C422.3 232.3 429.5 223.9 424.6 218.9zM476.6 216.9c-5.3-7.4-10.3-15.3-19.1-18.9-6.5-2.6-11.5 7.2-4.9 9.9 7 2.8 10.7 9.2 14.9 15.1C471.5 228.9 480.7 222.7 476.6 216.9zM124.6 224c-.8 3.7-1.6 9.9-4.7 12.5-2.3 1.9-3.3 5-1.5 7.6 1.6 2.3 5.3 3.4 7.6 1.5 5.8-4.8 7.9-12.4 9.3-19.5C136.8 219.1 126 217 124.6 224z"/></g></svg>