<svg xmlns="http://www.w3.org/2000/svg"  viewBox="0 0 48 48" width="64px" height="64px"><path fill="#9fdadf" d="M17.734,11.237c1.364-0.384,2.76-0.637,4.135-0.979c2.257-0.562,4.414-1.505,6.701-1.932	c1.336-0.25,2.753-0.313,4.021,0.175c0.245,0.094,0.49,0.215,0.655,0.418c0.151,0.187,0.22,0.425,0.3,0.652	c0.572,1.642,1.803,2.954,3.006,4.21c0.281,0.293,0.568,0.591,0.924,0.788c0.527,0.291,1.152,0.332,1.753,0.367	c0.954,0.055,1.907,0.11,2.861,0.165c0.824,0.048,1.729,0.071,2.379-0.437c0.691-0.54,1.438-1.716,1.385-2.591	c-0.053-0.875,0.196-1.665,0.181-2.931c-0.014-1.217-1.539-1.937-2.646-2.877S40.85,4.85,39.422,4.589	c-3.647-0.664-7.396-0.055-11.032,0.666c-3.118,0.619-6.219,1.321-9.319,2.023c-1.791,0.406-3.588,0.813-5.309,1.451	c-1.527,0.566-2.981,1.308-4.43,2.048c-1.086,0.555-2.172,1.109-3.258,1.664c-1,0.511-2.03,1.045-2.746,1.911	c-0.832,1.006-1.143,2.369-1.073,3.672s0.489,2.563,0.985,3.77c0.389,0.947,1.023,2.013,2.046,2.056	c0.527,0.022,1.017-0.248,1.475-0.509c1.45-0.827,2.9-1.654,4.35-2.481c0.777-0.443,1.596-0.93,1.996-1.73	c0.782-1.563-0.348-3.661,0.618-5.117C13.724,14.013,14.425,12.169,17.734,11.237z"/><path fill="#9fdadf" d="M5.545,40.225L19.86,40.47l0.779-1.544l6.313-0.055l0.32,1.296L41.92,40.71	c0,0-0.131,3.355-3.722,3.52c-3.592,0.165-25.349-0.455-28.156-0.537S5.661,41.995,5.545,40.225z"/><path fill="none" d="M41.92,40.71c-0.34,1.37-0.88,2.57-2.24,3.11c-0.85,0.33-2.94,0.32-3.86,0.31	c-8.47-0.13-16.41-0.25-24.89-0.37c-1.14-0.02-3.91-0.46-4.53-1.39c-0.43-0.64-0.69-1.31-0.82-1.96c3.03,0.2,7.18,0.05,9.5-0.05	c1.59-0.07,3.19-0.04,4.78,0.11c0.14,0.01,0.29,0.02,0.41-0.04c0.28-0.14-0.02-0.94,0.1-1.22c0.15-0.34,0.58-0.42,0.95-0.46	c1.69-0.14,3.39-0.15,5.09-0.02c0.31,0.02,0.71,0.12,0.77,0.43c0.04,0.22-0.19,0.9,0.09,1.01c0.28,0.1,2.12,0.13,2.42,0.12	C33.67,40.24,37.91,40.42,41.92,40.71z"/><path fill="#74cccf" d="M42.32,38.85c-0.13,0.62-0.24,1.26-0.4,1.86c-4.01-0.29-8.25-0.47-12.23-0.42	c-0.3,0.01-2.14-0.02-2.42-0.12c-0.28-0.11-0.05-0.79-0.09-1.01c-0.06-0.31-0.46-0.41-0.77-0.43c-1.7-0.13-3.4-0.12-5.09,0.02	c-0.37,0.04-0.8,0.12-0.95,0.46c-0.12,0.28,0.18,1.08-0.1,1.22c-0.12,0.06-0.27,0.05-0.41,0.04c-1.59-0.15-3.19-0.18-4.78-0.11	c-2.32,0.1-6.47,0.25-9.5,0.05c-0.32-1.46-0.07-2.85,0.02-3.77c0.17-1.78,0.98-2.89,1.58-4.59c1.18-3.36,2.59-7.77,3.78-11.13	l1.98-1.52l0.64-2.78c0.77-0.06,1.45-0.12,2.07-0.17c-0.06-0.66,0.04-1.66,0.2-2.15c0.05-0.2,0.29-0.46,0.5-0.43	c1.11-0.01,2.16-0.11,3.27-0.12c0.32,0,0.71,0.03,0.87,0.32c0.1,0.2,0.09,1.34,0.06,2.03c1.45-0.06,3.03-0.07,5.5-0.01	c0.3,0.01,1.2-0.03,2.32-0.05c0-0.72,0.01-1.67,0.02-1.99c0.01-0.06,0.01-0.11,0.04-0.15c0.04-0.06,0.13-0.07,0.21-0.08	c1.32-0.09,2.65-0.08,3.97,0.01c0.06,0.01,0.14,0.02,0.19,0.06c0.08,0.06,0.08,0.18,0.08,0.28c0,0.44-0.01,1.36-0.05,2.04	c1.2,0.15,2.14,0.43,2.38,0.92c2.53,5.25,2.79,8.32,6.36,15.27C42.2,34.14,42.89,36.13,42.32,38.85z"/><path fill="#e1ab35" d="M22.936,35.604c-1.614-0.396-3.105-0.938-4.17-1.966s-1.811-2.339-2.446-3.675	c-1.659-2.783-0.339-5.87,1.486-8.103c1.403-2.389,4.751-2.906,7.31-2.876c2.989,0.453,6.104,1.903,6.862,5.094	c1.191,2.435,0.473,5.08-0.552,7.497c-0.839,1.752-2.368,3-4.232,3.546C25.536,35.609,24.635,35.925,22.936,35.604z"/><path fill="#060606" d="M32.958,25.428c-0.18-0.915-0.551-1.915-0.957-2.757c-0.34-0.705-0.836-1.345-1.417-1.868	c-1.211-1.092-2.762-1.751-4.338-2.112c-1.587-0.364-3.297-0.206-4.866,0.202c-1.547,0.403-2.946,1.178-3.874,2.505	c-1.103,1.578-2.16,3.108-2.396,5.076c-0.13,1.084,0.028,2.172,0.479,3.168c0.477,1.052,1.04,2.113,1.717,3.051	c0.627,0.868,1.361,1.644,2.29,2.19c0.989,0.582,2.1,0.926,3.207,1.203c1.872,0.329,3.791-0.082,5.517-0.851	c1.601-0.713,2.941-2.013,3.631-3.631C32.773,29.678,33.372,27.528,32.958,25.428z M31.646,29.54	c-0.566,1.866-1.432,3.505-3.175,4.501c-0.813,0.465-1.728,0.713-2.629,0.949c-0.932,0.244-1.821,0.299-2.773,0.132	c-1.739-0.436-3.341-1.049-4.524-2.453c-0.563-0.668-1.014-1.426-1.416-2.199c-0.438-0.842-0.912-1.675-1.032-2.633	c-0.214-1.703,0.5-3.38,1.43-4.766c0.847-1.262,1.708-2.338,3.162-2.908c2.656-1.041,5.704-0.872,8.162,0.596	c1.282,0.766,2.155,1.854,2.602,3.276c0.278,0.886,0.616,1.651,0.643,2.604C32.122,27.627,31.931,28.599,31.646,29.54z"/><path fill="#bbb" d="M23.977,21.088c-0.366-0.006-0.764,0.182-1.018,0.461c-0.254,0.279-0.398,0.673-0.32,1.042	c0.08,0.374,0.371,0.673,0.699,0.87c0.162,0.098,0.337,0.176,0.522,0.217c0.499,0.111,1.054-0.083,1.376-0.48	c0.322-0.397,0.397-0.979,0.186-1.445C25.173,21.207,24.787,21.046,23.977,21.088z"/><path fill="#bbb" d="M27.274,25.406c0.428,0.34,0.985,0.608,1.5,0.424c0.298-0.107,0.533-0.34,0.727-0.59	c0.105-0.136,0.204-0.285,0.237-0.453c0.079-0.397-0.229-0.783-0.595-0.955c-0.461-0.216-1.179-0.446-1.577-0.138	C27.167,24.001,26.579,24.854,27.274,25.406z"/><path fill="#bbb" d="M27.2,29.812c0.065,0.171,0.221,0.301,0.392,0.397c0.526,0.297,1.268,0.291,1.74-0.072	s0.573-1.08,0.158-1.496c-0.424-0.426-1.428-0.604-1.983-0.122S27.112,29.582,27.2,29.812z"/><path fill="#bbb" d="M22.847,33.359c0.396,0.248,0.952,0.381,1.41,0.329c0.21-0.035,0.402-0.146,0.582-0.268	c0.317-0.215,0.635-0.51,0.687-0.914c0.038-0.293-0.08-0.595-0.273-0.803s-0.454-0.328-0.721-0.384	c-0.7-0.145-1.464,0.17-1.902,0.784C22.631,32.104,22.417,33.085,22.847,33.359z"/><path fill="#bbb" d="M19.231,28.486c-0.307,0.121-0.672,0.422-0.726,0.865c-0.015,0.145,0.029,0.289,0.083,0.424	c0.097,0.243,0.239,0.479,0.457,0.622c0.336,0.22,0.78,0.176,1.163,0.055c0.163-0.052,0.325-0.118,0.453-0.232	c0.253-0.226,0.322-0.609,0.237-0.937c-0.069-0.265-0.232-0.508-0.463-0.654C20.203,28.483,19.538,28.365,19.231,28.486z"/><path fill="#bbb" d="M18.526,25.093c0.103,0.487,0.631,0.757,1.118,0.858c0.166,0.034,0.338,0.057,0.503,0.02	c0.402-0.092,0.639-0.503,0.779-0.89c0.068-0.188,0.126-0.385,0.123-0.585c-0.006-0.402-0.277-0.783-0.648-0.938	c-0.371-0.155-0.876-0.137-1.334,0.152S18.433,24.655,18.526,25.093z"/><path fill="#060606" d="M25.795,21.384c-0.174-0.313-0.436-0.538-0.765-0.671c-0.329-0.133-0.704-0.141-1.053-0.124	c-0.825,0.002-1.629,0.606-1.813,1.42c-0.197,0.868,0.362,1.641,1.131,1.995c0.398,0.183,0.801,0.243,1.232,0.165	c0.375-0.068,0.75-0.275,1.008-0.554C26.092,23.011,26.192,22.099,25.795,21.384z M24.243,23.205	C24.221,23.206,24.212,23.207,24.243,23.205L24.243,23.205z M24.986,22.638c-0.047,0.14-0.141,0.258-0.246,0.356	c-0.461,0.403-1.149,0.174-1.491-0.257c-0.069-0.087-0.11-0.193-0.135-0.297c-0.005-0.267,0.138-0.522,0.353-0.682	c0.008-0.008,0.359-0.204,0.51-0.17c0.126-0.006,0.252-0.009,0.378-0.003C24.915,21.541,25.164,22.178,24.986,22.638z M25.041,22.417C25.043,22.408,25.043,22.407,25.041,22.417L25.041,22.417z"/><path fill="#060606" d="M30.195,24.301c-0.238-0.707-0.969-1.07-1.659-1.205c-0.369-0.072-0.741-0.079-1.088,0.086	c-0.26,0.123-0.461,0.359-0.63,0.585c-0.204,0.274-0.337,0.598-0.363,0.94c-0.031,0.402,0.157,0.8,0.465,1.053	c0.317,0.249,0.658,0.471,1.054,0.571c0.407,0.103,0.822,0.063,1.195-0.132c0.334-0.175,0.593-0.469,0.811-0.77	C30.213,25.106,30.324,24.688,30.195,24.301z M27.886,24.074c-0.001,0-0.002,0.001-0.003,0.001	C27.883,24.075,27.884,24.075,27.886,24.074z M27.882,24.076C27.881,24.076,27.881,24.076,27.882,24.076	C27.861,24.082,27.854,24.083,27.882,24.076z M29.117,24.924c-0.185,0.242-0.478,0.534-0.817,0.456	c-0.256-0.052-0.479-0.183-0.69-0.34c-0.023-0.022-0.101-0.07-0.127-0.083c-0.052-0.067-0.035-0.182-0.027-0.251	c0.003,0.008-0.001,0.011,0,0.018c0.05-0.189,0.02-0.115,0.124-0.303c0.104-0.152,0.243-0.362,0.436-0.376	c0.271-0.016,0.538,0.085,0.783,0.176c0.202,0.082,0.459,0.205,0.443,0.395c-0.004,0.049-0.002,0.117-0.018,0.14	C29.189,24.813,29.155,24.869,29.117,24.924z"/><path fill="#060606" d="M30.028,28.518c-0.202-0.302-0.491-0.492-0.822-0.627c-0.581-0.237-1.355-0.234-1.88,0.142	c-0.341,0.244-0.622,0.605-0.688,1.028c-0.046,0.298-0.027,0.6,0.081,0.884c0.096,0.229,0.221,0.405,0.417,0.557	c0.165,0.127,0.339,0.214,0.534,0.288c0.311,0.119,0.667,0.157,0.998,0.115c0.402-0.05,0.773-0.191,1.078-0.464	c0.245-0.219,0.425-0.545,0.477-0.87C30.279,29.21,30.236,28.83,30.028,28.518z M29.284,29.595	c-0.169,0.395-0.734,0.383-1.124,0.299c-0.379-0.054-0.526-0.489-0.526-0.588c0-0.099,0.028-0.191,0.05-0.259	c0.102-0.239,0.325-0.299,0.582-0.317s1.192,0.035,1.075,0.567C29.335,29.327,29.293,29.567,29.284,29.595z"/><path fill="#060606" d="M25.864,31.714c-0.389-0.784-1.349-1.033-2.151-0.878c-0.386,0.075-0.739,0.262-1.044,0.505	c-0.213,0.17-0.478,0.41-0.531,0.684c-0.104,0.534-0.088,1.166,0.287,1.581c0.041,0.071,0.093,0.137,0.17,0.183	c0.369,0.225,0.784,0.348,1.212,0.394c0.433,0.047,0.833-0.044,1.201-0.277c0.332-0.211,0.667-0.481,0.851-0.837	C26.083,32.637,26.081,32.151,25.864,31.714z M24.66,32.939c0.034-0.022-0.284,0.189-0.362,0.225	c-0.02,0.002-0.06,0.015-0.088,0.023c-0.359,0.05-0.767-0.054-1.084-0.245c-0.1-0.117-0.106-0.266-0.1-0.413	c0.004-0.069,0.032-0.145,0.075-0.219c0.155-0.184,0.354-0.328,0.576-0.425c0.088-0.043,0.251-0.084,0.314-0.088	c0.196-0.021,0.396-0.014,0.585,0.053c0.005,0,0.13,0.055,0.133,0.059c0.084,0.041,0.141,0.102,0.209,0.164	c0.063,0.073,0.083,0.125,0.098,0.2c0.005,0.006,0.009,0.088,0.018,0.142C25.029,32.553,24.796,32.829,24.66,32.939z"/><path fill="#060606" d="M21.456,24.217c-0.064-0.343-0.27-0.67-0.542-0.887c-0.615-0.49-1.509-0.472-2.161-0.054	c-0.637,0.409-0.915,1.222-0.772,1.949c0.161,0.684,0.844,1.083,1.49,1.211c0.406,0.081,0.826,0.071,1.171-0.184	c0.313-0.232,0.505-0.551,0.651-0.907C21.443,24.986,21.529,24.606,21.456,24.217z M20.483,24.602	c-0.03,0.154-0.087,0.297-0.138,0.445c-0.036,0.134-0.171,0.379-0.381,0.438c-0.397,0.001-1.079-0.179-1.022-0.689	c0.017-0.222,0.09-0.449,0.26-0.609c0.195-0.161,0.528-0.241,0.793-0.218c0.15,0.013,0.271,0.088,0.374,0.218	c0.047,0.065,0.078,0.135,0.094,0.17C20.489,24.438,20.492,24.517,20.483,24.602z"/><path fill="#060606" d="M20.902,28.36c-0.237-0.207-0.52-0.319-0.827-0.372c-0.311-0.054-0.672-0.096-0.977,0.016	c-0.649,0.264-1.191,0.866-1.074,1.61c0.055,0.351,0.241,0.7,0.474,0.966c0.247,0.283,0.596,0.424,0.962,0.464	c0.318,0.034,0.655-0.027,0.956-0.134c0.346-0.122,0.669-0.318,0.844-0.655C21.582,29.636,21.429,28.821,20.902,28.36z M20.204,29.923c-0.067,0.029-0.132,0.048-0.202,0.069c-0.202,0.059-0.593,0.121-0.8-0.121l0,0	c-0.043-0.069-0.089-0.137-0.123-0.211c-0.208-0.322,0.089-0.666,0.413-0.722c0.212-0.011,0.374,0.007,0.574,0.075	c-0.003-0.003,0.071,0.025,0.098,0.04c0.09,0.048,0.157,0.146,0.203,0.233C20.479,29.504,20.464,29.828,20.204,29.923z"/><path fill="#060606" d="M46.367,8.378c-0.292-0.684-0.901-1.162-1.479-1.598c-0.712-0.537-1.403-1.153-2.179-1.595	c-0.819-0.467-1.728-0.773-2.646-0.976c-4.347-0.963-8.847-0.051-13.126,0.83c-2.236,0.46-4.463,0.957-6.689,1.46	c-2.185,0.494-4.399,0.938-6.509,1.707c-2.029,0.739-3.938,1.77-5.857,2.75c-1.709,0.873-3.817,1.632-5.031,3.196	c-1.128,1.454-1.28,3.392-0.936,5.143c0.196,1,0.546,1.98,0.958,2.91c0.307,0.695,0.731,1.417,1.393,1.829	c0.701,0.437,1.492,0.361,2.216,0.021c0.966-0.454,1.881-1.053,2.807-1.581c0.25-0.142,0.503-0.282,0.755-0.421	c-0.937,2.72-1.833,5.453-2.764,8.175c-0.502,1.467-1.125,2.868-1.679,4.312c-0.47,1.226-0.617,2.58-0.674,3.887	c-0.062,1.434,0.179,3,1.036,4.191c0.595,0.828,1.736,1.131,2.68,1.342c1.297,0.289,2.578,0.304,3.901,0.323	c1.918,0.028,3.835,0.056,5.753,0.085c3.711,0.055,7.421,0.111,11.132,0.166c1.883,0.028,3.766,0.055,5.648,0.083	c1.273,0.018,2.558,0.058,3.823-0.117c1.162-0.161,2.132-0.73,2.759-1.742c0.682-1.101,0.875-2.447,1.128-3.694	c0.317-1.561,0.316-3.115-0.061-4.665c-0.361-1.486-1.013-2.776-1.667-4.148c-1.304-2.736-2.314-5.57-3.353-8.413	c-0.471-1.29-0.974-2.568-1.537-3.821c-0.26-0.578-0.465-1.278-1.014-1.648c-0.526-0.354-1.183-0.493-1.814-0.588	c0.014-0.347,0.028-0.693,0.033-1.04c0.005-0.317,0.059-0.684-0.073-0.979c-0.139-0.31-0.391-0.384-0.697-0.428	c-0.606-0.085-1.248-0.069-1.86-0.074c-0.62-0.005-1.242,0.005-1.86,0.046c-0.327,0.021-0.691,0.027-0.887,0.341	c-0.153,0.244-0.11,0.623-0.115,0.899c-0.005,0.332-0.008,0.664-0.012,0.996c-2.262,0.027-4.525-0.023-6.786,0.045	c0.045-0.6,0.084-1.298-0.168-1.768c-0.462-0.861-1.935-0.555-2.702-0.52c-0.619,0.028-1.249,0.017-1.865,0.068	c-0.38,0.031-0.694,0.219-0.883,0.56c-0.313,0.564-0.356,1.37-0.338,2.065c-0.432,0.035-0.865,0.071-1.297,0.105	c-0.016-0.663,0.037-1.315,0.367-1.934c0.01-0.016,0.02-0.034,0.03-0.05c0.071-0.114,0.135-0.231,0.216-0.34	c0.289-0.39,0.671-0.725,1.07-0.997c0.719-0.49,1.52-0.813,2.352-1.057c2.117-0.585,4.273-0.96,6.367-1.635	c2.05-0.661,4.184-1.495,6.372-1.448c0.553,0.012,1.115,0.086,1.639,0.27c0.248,0.087,0.516,0.183,0.669,0.414	c0.142,0.215,0.201,0.532,0.299,0.771c0.351,0.852,0.863,1.614,1.439,2.329c0.602,0.747,1.261,1.506,1.979,2.144	c0.693,0.615,1.492,0.796,2.395,0.859c1.115,0.078,2.234,0.147,3.35,0.192c0.832,0.033,1.711-0.031,2.394-0.558	c0.629-0.486,1.113-1.198,1.392-1.938c0.273-0.725,0.17-1.518,0.256-2.278C46.509,10.051,46.69,9.134,46.367,8.378z M39.383,43.387	c-1.034,0.33-2.254,0.253-3.327,0.243c-1.64-0.015-3.279-0.047-4.918-0.071c-3.472-0.051-6.945-0.103-10.417-0.155	c-1.741-0.026-3.483-0.052-5.224-0.077c-1.622-0.024-3.262,0.02-4.882-0.08c-1.008-0.062-2.085-0.25-3.019-0.645	c-0.77-0.326-1.199-1.037-1.431-1.826c2.547,0.353,5.133,0.26,7.694,0.141c0.711-0.033,1.421-0.086,2.133-0.045	c0.764,0.043,1.523,0.161,2.288,0.193c1.027,0.043,2.336,0.099,2.507-1.161c0.016-0.12-0.023-0.391,0.043-0.49	c0.146-0.218,0.77-0.184,0.973-0.198c0.807-0.058,1.615-0.084,2.424-0.079c0.754,0.005,1.503,0.05,2.255,0.103	c0.265,0.019,0.212,0.004,0.179,0.258c-0.031,0.237-0.053,0.49,0.036,0.718c0.271,0.688,1.393,0.545,1.984,0.562	c1.127,0.032,2.254-0.004,3.381-0.013c3.09-0.026,6.173,0.041,9.255,0.269C41.002,42.054,40.471,43.041,39.383,43.387z M13.879,17.092c0.589-0.047,1.178-0.094,1.767-0.143c0.257-0.021,0.517-0.212,0.5-0.5c-0.036-0.605-0.011-1.231,0.132-1.821	c0.091-0.376,0.311-0.263,0.661-0.274c0.426-0.013,0.851-0.035,1.276-0.055c0.367-0.017,1.633-0.219,1.828,0.045	c0.103,0.14,0.03,0.654,0.03,0.821c0,0.312-0.009,0.623-0.022,0.935c-0.012,0.263,0.239,0.51,0.5,0.5	c2.604-0.103,5.211-0.014,7.815-0.061c0.273-0.005,0.497-0.225,0.5-0.5c0.007-0.551-0.066-1.201,0.012-1.767	c0.241-0.032,0.584,0.008,0.751,0.003c0.248-0.008,0.496-0.012,0.744-0.014c0.621-0.003,1.241,0.014,1.86,0.05	c0.048,0.003,0.097,0.006,0.145,0.009c-0.04,0.138-0.002,0.373-0.005,0.509c-0.008,0.46-0.021,0.92-0.045,1.379	c-0.01,0.194,0.161,0.454,0.367,0.482c0.571,0.079,1.495,0.137,1.956,0.544c0.378,0.333,0.592,1.143,0.795,1.603	c0.452,1.027,0.858,2.073,1.245,3.125c0.805,2.192,1.565,4.396,2.487,6.544c1.132,2.639,2.782,5.162,2.854,8.12	c0.028,1.142-0.184,2.306-0.458,3.427c-2.795-0.216-5.593-0.305-8.396-0.295c-1.257,0.004-2.515,0.044-3.771,0.034	c-0.426-0.003-0.852-0.013-1.277-0.034c-0.16-0.008-0.327-0.038-0.486-0.032c-0.004,0-0.014-0.001-0.02-0.001	c0.02-0.026,0.023-0.09,0.034-0.227c0.097-1.214-1.038-1.266-1.979-1.317c-1.503-0.081-3.096-0.129-4.589,0.1	c-0.453,0.07-0.935,0.231-1.153,0.673c-0.134,0.271-0.003,0.844-0.212,1.033c-0.184,0.167-0.876,0.089-1.107,0.087	c-0.343-0.003-0.685-0.027-1.026-0.057c-0.762-0.067-1.522-0.171-2.289-0.163c-3.12,0.034-6.233,0.406-9.338-0.095	c-0.017-0.149-0.029-0.297-0.037-0.44C5.856,37.976,6,36.443,6.432,35.169c0.253-0.746,0.611-1.451,0.912-2.177	c0.313-0.754,0.568-1.532,0.833-2.305c1.072-3.127,2.088-6.274,3.18-9.395c0.223-0.132,0.451-0.257,0.668-0.398	c0.694-0.449,1.329-1.007,1.635-1.795C13.914,18.448,13.913,17.77,13.879,17.092z M45.352,11.586	c-0.015,0.343,0.028,0.674-0.064,1.009c-0.115,0.415-0.347,0.807-0.611,1.144c-0.605,0.773-1.36,0.912-2.299,0.875	c-1.01-0.04-2.021-0.113-3.03-0.173c-0.428-0.025-0.868-0.036-1.279-0.168c-0.483-0.154-0.819-0.491-1.163-0.847	c-0.648-0.671-1.299-1.354-1.848-2.109c-0.537-0.739-0.82-1.525-1.202-2.34c-0.362-0.772-1.211-1.051-1.996-1.207	c-1.858-0.369-3.781,0.075-5.562,0.605c-1.906,0.567-3.766,1.232-5.71,1.669c-0.999,0.224-1.999,0.438-2.985,0.71	c-1.883,0.551-3.657,1.556-4.506,3.375c-0.677,1.45,0.172,3.075-0.336,4.537c-0.3,0.862-1.156,1.333-1.902,1.762	c-0.031,0.018-0.062,0.035-0.093,0.053c-0.021,0.008-0.04,0.023-0.06,0.034C9.859,21,9.011,21.481,8.164,21.964	c-0.773,0.441-1.652,1.147-2.529,1.346c-0.908,0.205-1.448-0.666-1.787-1.37c-0.812-1.687-1.415-3.772-0.938-5.636	c0.481-1.877,2.023-2.72,3.632-3.542c1.806-0.923,3.599-1.883,5.437-2.741c3.764-1.757,7.963-2.446,11.996-3.329	C28.047,5.8,32.234,4.74,36.429,4.807c1.909,0.03,3.984,0.259,5.686,1.192c0.736,0.404,1.375,0.984,2.048,1.482	c0.56,0.414,1.303,0.906,1.371,1.661C45.607,9.952,45.386,10.778,45.352,11.586z"/><path fill="#060606" d="M42.122,18.326c1.692-0.164,3.432-0.751,4.734-1.872c0.205-0.176,0.181-0.526,0-0.707	c-0.203-0.203-0.502-0.177-0.707,0c-1.085,0.935-2.627,1.444-4.027,1.579c-0.269,0.026-0.5,0.211-0.5,0.5	C41.622,18.076,41.852,18.352,42.122,18.326L42.122,18.326z"/><path fill="#060606" d="M41.686,21.265c1.12,0.038,2.212-0.268,3.212-0.755c0.76-0.37,1.313-0.939,1.958-1.467	c0.209-0.171,0.178-0.53,0-0.707c-0.207-0.207-0.497-0.171-0.707,0c-0.283,0.232-0.547,0.484-0.823,0.724	c-0.233,0.203-0.532,0.387-0.856,0.549c-0.864,0.433-1.814,0.689-2.784,0.656C41.042,20.243,41.043,21.243,41.686,21.265	L41.686,21.265z"/><path fill="#060606" d="M2.091,13.29c0.474-1.147,1.212-2.187,2.183-2.964c0.976-0.781,2.159-1.237,3.38-1.459	c0.266-0.048,0.417-0.372,0.35-0.615c-0.077-0.28-0.348-0.398-0.615-0.349C5.99,8.156,4.676,8.724,3.567,9.619	c-1.11,0.896-1.899,2.097-2.44,3.405c-0.103,0.25,0.112,0.55,0.349,0.615C1.763,13.718,1.988,13.541,2.091,13.29L2.091,13.29z"/><path fill="#060606" d="M1.909,8.863c0.749-1.197,2.24-1.843,3.639-1.851c0.643-0.004,0.645-1.004,0-1	c-1.752,0.01-3.556,0.833-4.503,2.346C0.703,8.905,1.567,9.408,1.909,8.863L1.909,8.863z"/></svg>