<svg xmlns="http://www.w3.org/2000/svg"  viewBox="0 0 48 48" width="64px" height="64px"><path fill="#fcbf95" d="M43.315,16.68c-0.337-0.609-0.652-1.405-0.988-2.014c-0.425-0.77-0.875-1.357-1.426-2.043 c-1.293-1.609-3.166-2.624-4.987-3.596c-0.233-0.124-0.494-0.252-0.75-0.186c-0.19,0.05-0.336,0.198-0.471,0.341 c-0.319,0.336-1.013,1.152-1.332,1.488l-0.219,0.348c1.871,1.578,3.716,3.189,5.387,4.976c0.23,0.246,0.463,0.506,0.567,0.826 c0.275,0.844-0.418,1.666-1.036,2.304c-2.013,2.079-3.803,4.36-5.589,6.637c0,0,2.379,1.972,2.665,3.766 c0.153,0.957,1.905-1.729,2.414-2.554c0.305-0.495,0.513-1.076,0.442-1.654c-0.054-0.437-0.265-0.862-0.199-1.298 c0.046-0.303,0.221-0.569,0.391-0.823c1.492-2.226,2.81-3.753,4.92-5.406c0.157-0.123,0.327-0.256,0.38-0.449 C43.545,17.118,43.428,16.885,43.315,16.68z"/><path fill="#fcbf95" d="M33.174,26.841c-1.495-1.626-3.002-3.209-4.751-4.559c-2.416-1.864-5.278-4.848-7.518-7.231 l3.56-4.203c-1.363,0.195-1.271,0.175-2.882,0.504c-1.349,0.275-2.731,0.725-3.664,1.737c-0.153,0.166-0.327,0.361-0.553,0.352 c-0.153-0.006-0.283-0.107-0.402-0.202c-1.354-1.093-3.366-3.439-4.889-4.235c-0.453-0.237-1.009-0.218-1.445,0.05 C9.251,9.898,8.07,10.945,7.18,12.269c-1.004,1.493-1.712,3.16-2.415,4.816c-0.098,0.232-0.199,0.478-0.165,0.727 c0.067,0.5,0.619,0.744,1.069,0.973c1.018,0.517,2.85,2.349,3.709,3.06c0.263,0.218,0.832,0.512,1.012,1.153 c0.119,0.425-0.046,0.868-0.157,1.294c-0.38,1.457,0.065,1.889,0.281,3.027l0.396-0.468c1.965,1.984,12.873,12.944,12.873,12.944 c0.835,0.837,1.982,1.767,3.638,1.7c0.647-0.026,1.135-0.242,1.505-0.774c0.13-0.187,0.163-0.411,0.157-0.638 c2.863,0.417,3.049-2.009,2.514-3.124c0.824,0.651,2.114,0.325,2.28,0.23c0.314-0.178,0.972-0.74,0.636-2.02 C37.417,32.892,35.169,29.011,33.174,26.841z"/><path fill="#fcbf95" d="M14.209,29.405c0.339-0.73,0.41-1.905-0.073-2.549c-0.345-0.46-0.991-0.615-1.556-0.505 s-1.061,0.439-1.509,0.799c-1.017,0.818-1.915,1.921-2.036,3.221c-0.068,0.727,0.144,1.513,0.698,1.989 c0.553,0.476,1.39,0.718,1.905,0.2"/><path fill="#fcbf95" d="M18.115,32.404c0.438-0.527,0.601-2.234-0.285-3.174c-0.559-0.593-1.208-0.537-1.742-0.426 s-1.393,0.649-1.851,0.946c-0.421,0.273-0.784,0.569-1.157,0.967c-0.562,0.601-0.799,0.904-1.325,1.808 c-0.063,0.108-0.39,1.007-0.137,1.554c0.294,0.637,0.832,0.862,1.357,1.117c0.628,0.305,2.085,0.039,2.692-0.138"/><path fill="#fcbf95" d="M21.423,35.006c0.523-0.783,0.307-2.489-0.9-3.118c-0.365-0.19-1.358-0.352-1.974,0.159 c-0.977,0.81-1.919,1.686-2.538,2.793c-0.169,0.302-0.249,0.636-0.329,0.972c-0.315,1.333,0.515,2.197,1.175,2.423 c0.88,0.302,2.676-0.631,2.863-1.096"/><path fill="#fcbf95" d="M23.819,34.97c-0.276-0.537-1.025-0.674-1.588-0.457c-0.563,0.217-0.983,0.689-1.379,1.145 c-0.389,0.447-0.637,0.912-1.026,1.359c-0.267,0.307-0.778,1.361-0.712,1.905c0.1,0.827,0.624,1.43,1.384,1.771 c1.22,0.548,2.378-0.288,2.669-0.654c0.856-1.076,1.644-3.429,0.689-5.073"/><path fill="#2b8c5e" d="M21.031,15.03c1.504-2.184,3.301-4.165,5.327-5.876c0.57-0.481,1.205-0.96,1.948-1.02 c0.493-0.04,0.983,0.112,1.43,0.325c0.813,0.387,1.513,0.971,2.204,1.55c2.277,1.906,4.56,3.818,6.588,5.986 c0.23,0.246,0.463,0.506,0.567,0.826c0.275,0.844-0.418,1.666-1.036,2.304c-2.013,2.079-3.803,4.36-5.589,6.637"/><path fill="#71c598" d="M35.6,18.419c-0.646-0.007-1.147-0.667-1.162-1.313c-0.015-0.646,0.342-1.247,0.777-1.725 c-0.616,0.048-1.137-0.42-1.574-0.857c-1.149-1.145-2.297-2.291-3.446-3.436c-0.664,1.187-2.498,1.488-3.506,0.576 c-1.151,1.795-2.535,3.441-4.106,4.883l2.05,1.81c0.335-0.18,0.684-0.157,1.138-0.161c0.574-0.005,1.125-0.001,1.651,0.291 c0.262,0.145,0.57,0.32,0.804,0.507c0.492,0.393,0.769,1.005,0.878,1.625c0.088,0.501,0.065,1.165-0.042,1.648l1.675,1.479 C32.247,21.873,33.872,20.093,35.6,18.419z M28.836,17.07c-0.268-0.262-0.428-0.539-0.481-0.91 c-0.041-0.286-0.007-0.605,0.115-0.867c0.149-0.321,0.453-0.545,0.775-0.693c0.467-0.214,1.021-0.123,1.501,0.155l0.009,0.002 c0.43,0.322,0.551,0.794,0.529,1.33c-0.022,0.537-0.327,1.046-0.813,1.274C29.984,17.59,29.22,17.445,28.836,17.07z"/><path fill="#010101" d="M32.469,26.261c-0.108,0-0.217-0.035-0.309-0.106c-0.217-0.171-0.255-0.485-0.085-0.702 c1.765-2.25,3.59-4.576,5.624-6.676c0.558-0.576,1.103-1.24,0.92-1.801c-0.069-0.211-0.248-0.415-0.457-0.64 c-2.01-2.148-4.314-4.078-6.544-5.944c-0.656-0.55-1.335-1.118-2.098-1.481c-0.45-0.215-0.834-0.308-1.175-0.278 c-0.607,0.049-1.178,0.492-1.665,0.903c-1.994,1.683-3.757,3.626-5.238,5.777c-0.159,0.228-0.471,0.282-0.696,0.128 c-0.227-0.157-0.284-0.468-0.128-0.695c1.533-2.224,3.355-4.234,5.418-5.974c0.605-0.511,1.327-1.063,2.229-1.136 c0.522-0.042,1.073,0.08,1.685,0.372c0.877,0.417,1.605,1.027,2.311,1.617c2.252,1.885,4.58,3.834,6.632,6.028 c0.226,0.242,0.534,0.573,0.678,1.012c0.393,1.21-0.65,2.289-1.152,2.807c-1.998,2.062-3.807,4.368-5.556,6.598 C32.764,26.195,32.618,26.261,32.469,26.261z"/><path fill="#010101" d="M10.921,33.349c-0.532,0-1.088-0.242-1.515-0.609c-0.635-0.546-0.96-1.448-0.87-2.414 c0.149-1.591,1.29-2.816,2.221-3.564c0.432-0.347,1.018-0.763,1.728-0.9c0.812-0.156,1.615,0.117,2.051,0.696 c0.62,0.828,0.528,2.194,0.126,3.06c-0.116,0.25-0.417,0.358-0.664,0.242c-0.25-0.116-0.358-0.413-0.242-0.664 c0.272-0.587,0.331-1.568-0.021-2.038c-0.199-0.268-0.637-0.396-1.061-0.313c-0.493,0.096-0.948,0.423-1.29,0.697 c-0.78,0.627-1.735,1.636-1.852,2.878c-0.059,0.634,0.143,1.233,0.526,1.563c0.378,0.324,0.935,0.516,1.225,0.226 c0.194-0.195,0.511-0.196,0.707-0.002s0.196,0.511,0.002,0.707C11.688,33.219,11.311,33.349,10.921,33.349z"/><path fill="#010101" d="M13.809,35.834c-0.39,0-0.766-0.05-1.052-0.188l-0.1-0.049c-0.535-0.257-1.143-0.549-1.493-1.308 c-0.362-0.787,0.079-1.877,0.158-2.015c0.548-0.942,0.803-1.269,1.394-1.899c0.385-0.411,0.77-0.733,1.249-1.045 c0.923-0.6,1.565-0.923,2.021-1.017c0.652-0.134,1.488-0.19,2.208,0.573c1.06,1.124,0.916,3.102,0.306,3.836 c-0.178,0.214-0.493,0.241-0.704,0.065c-0.213-0.177-0.241-0.492-0.065-0.704c0.286-0.344,0.444-1.76-0.265-2.512 c-0.356-0.379-0.752-0.387-1.276-0.28c-0.222,0.046-0.692,0.235-1.68,0.876c-0.408,0.266-0.736,0.54-1.063,0.89 c-0.54,0.577-0.757,0.855-1.258,1.718c-0.086,0.181-0.246,0.813-0.116,1.095c0.199,0.432,0.561,0.605,1.019,0.825l0.103,0.05 c0.412,0.199,1.635,0.037,2.334-0.168c0.268-0.08,0.543,0.074,0.62,0.339c0.078,0.266-0.074,0.543-0.339,0.62 C15.794,35.542,14.759,35.834,13.809,35.834z"/><path fill="#010101" d="M17.256,38.794c-0.202,0-0.393-0.026-0.562-0.085c-0.992-0.34-1.855-1.512-1.5-3.012 c0.082-0.346,0.176-0.736,0.379-1.101c0.672-1.2,1.674-2.119,2.655-2.935c0.771-0.641,1.962-0.511,2.524-0.217 c0.659,0.344,1.134,0.968,1.337,1.758c0.194,0.759,0.098,1.557-0.252,2.081c-0.154,0.23-0.465,0.291-0.693,0.139 c-0.229-0.153-0.292-0.464-0.139-0.693c0.191-0.287,0.237-0.801,0.115-1.277c-0.076-0.297-0.285-0.836-0.83-1.12 c-0.219-0.114-0.993-0.256-1.424,0.1c-0.907,0.753-1.829,1.596-2.421,2.653c-0.136,0.242-0.206,0.534-0.279,0.844 c-0.246,1.039,0.392,1.677,0.852,1.835c0.616,0.21,2.06-0.535,2.247-0.83c0.104-0.255,0.389-0.368,0.646-0.267 c0.257,0.104,0.376,0.404,0.272,0.661C19.934,37.948,18.405,38.794,17.256,38.794z"/><path fill="#010101" d="M21.33,41.373c-0.334,0-0.684-0.065-1.037-0.224c-0.963-0.434-1.558-1.203-1.675-2.167 c-0.087-0.718,0.497-1.91,0.831-2.294c0.182-0.21,0.331-0.424,0.48-0.638c0.169-0.242,0.339-0.484,0.546-0.722 c0.394-0.453,0.884-1.017,1.576-1.283c0.703-0.269,1.644-0.138,2.109,0.523c0.05,0.038,0.094,0.087,0.128,0.146 c1.092,1.881,0.23,4.428-0.73,5.636C23.244,40.746,22.366,41.373,21.33,41.373z M22.775,34.914c-0.125,0-0.253,0.022-0.364,0.065 c-0.461,0.177-0.844,0.617-1.182,1.006c-0.182,0.21-0.331,0.424-0.48,0.638c-0.169,0.242-0.339,0.484-0.546,0.722 c-0.23,0.266-0.633,1.18-0.593,1.518c0.095,0.772,0.646,1.174,1.093,1.375c1.003,0.452,1.941-0.344,2.072-0.51 c0.768-0.964,1.416-2.984,0.721-4.377c-0.048-0.041-0.09-0.092-0.12-0.152C23.276,35.005,23.029,34.914,22.775,34.914z"/><path fill="#010101" d="M30.737,24.246c-0.11,0-0.222-0.036-0.313-0.111c-0.215-0.173-0.249-0.488-0.076-0.703 c1.354-1.68,2.814-3.3,4.349-4.825c-0.461-0.348-0.745-0.933-0.758-1.49c-0.011-0.467,0.131-0.948,0.414-1.418 c-0.462-0.219-0.827-0.584-1.064-0.821l-3.04-3.031c-0.405,0.42-0.962,0.706-1.596,0.81c-0.658,0.107-1.298,0.004-1.828-0.288 c-1.115,1.664-2.427,3.191-3.903,4.546c-0.201,0.187-0.519,0.173-0.706-0.03c-0.187-0.203-0.174-0.52,0.03-0.706 c1.541-1.415,2.895-3.024,4.023-4.785c0.079-0.124,0.209-0.206,0.355-0.226c0.146-0.018,0.293,0.026,0.401,0.125 c0.361,0.328,0.91,0.469,1.465,0.377c0.557-0.091,1.031-0.4,1.269-0.825c0.076-0.137,0.212-0.23,0.367-0.251 c0.162-0.024,0.312,0.031,0.422,0.141l3.447,3.436c0.36,0.361,0.773,0.748,1.182,0.712c0.205-0.013,0.398,0.095,0.488,0.279 s0.059,0.405-0.08,0.557c-0.302,0.331-0.659,0.839-0.646,1.377c0.009,0.378,0.302,0.821,0.667,0.825 c0.203,0.002,0.385,0.126,0.46,0.315c0.074,0.188,0.028,0.403-0.117,0.544c-1.708,1.654-3.33,3.431-4.821,5.281 C31.027,24.182,30.882,24.246,30.737,24.246z"/><path fill="#010101" d="M34.766,35.415c-0.151,0-0.301-0.068-0.399-0.198c-0.166-0.221-0.122-0.534,0.098-0.701 c0.605-0.457,0.932-1.034,0.998-1.766c0.163-1.802-1.329-4.127-2.656-5.571c-1.415-1.538-2.942-3.154-4.688-4.5 c-2.722-2.1-5.256-4.692-7.589-7.181c-0.189-0.201-0.179-0.518,0.022-0.707c0.201-0.188,0.519-0.18,0.706,0.023 c2.305,2.458,4.805,5.015,7.472,7.072c1.808,1.395,3.369,3.045,4.813,4.616c1.536,1.671,3.108,4.214,2.916,6.338 c-0.092,1.014-0.56,1.846-1.391,2.475C34.977,35.382,34.872,35.415,34.766,35.415z"/><path fill="#010101" d="M32.965,37.853c-0.573,0-1.242-0.152-1.758-0.668c-0.195-0.195-0.195-0.512,0-0.707 s0.512-0.195,0.707,0c0.583,0.582,1.6,0.328,1.733,0.269c0.234-0.134,0.764-0.604,0.237-1.883c-0.16-0.391-0.947-1.578-1.236-1.952 c-0.765-0.99-0.996-1.254-1.943-2.059c-0.211-0.179-0.236-0.494-0.058-0.704c0.179-0.211,0.495-0.236,0.704-0.058 c1.008,0.855,1.296,1.183,2.088,2.209c0.291,0.375,1.152,1.653,1.37,2.183c0.678,1.646,0.089,2.703-0.688,3.143 C33.96,37.718,33.505,37.853,32.965,37.853z"/><path fill="#010101" d="M29.997,40.576c-0.187,0-0.389-0.016-0.607-0.052c-0.272-0.044-0.458-0.301-0.413-0.573 c0.044-0.273,0.306-0.463,0.573-0.413c0.744,0.116,1.259-0.035,1.542-0.46c0.399-0.598,0.268-1.577-0.004-2.016 c-0.501-0.81-1.175-1.62-2.121-2.552l-1.112-1.095c-0.197-0.193-0.199-0.511-0.006-0.707c0.194-0.197,0.51-0.199,0.707-0.006 l1.112,1.095c1.005,0.989,1.727,1.859,2.271,2.738c0.475,0.77,0.604,2.172-0.016,3.098C31.671,40.01,31.108,40.576,29.997,40.576z"/><path fill="#010101" d="M27.25,42c-1.747,0-2.957-0.983-3.822-1.851c-0.195-0.196-0.195-0.513,0-0.707 c0.195-0.195,0.512-0.195,0.707,0c0.8,0.802,1.834,1.606,3.265,1.554c0.53-0.021,0.854-0.183,1.115-0.559 c0.173-0.249,0.057-0.733-0.16-1.029c-0.896-1.22-1.029-1.316-2.502-2.201c-0.236-0.143-0.313-0.45-0.171-0.687 c0.144-0.237,0.45-0.311,0.687-0.171c1.557,0.937,1.794,1.108,2.793,2.467c0.42,0.574,0.653,1.504,0.174,2.192 c-0.438,0.631-1.059,0.954-1.896,0.987C27.376,41.998,27.313,42,27.25,42z"/><path fill="#010101" d="M35.134,30.027c-0.202,0-0.393-0.123-0.468-0.323c-0.098-0.259,0.033-0.547,0.291-0.645 c0.69-0.26,1.598-1.428,2.165-2.349c0.203-0.331,0.433-0.83,0.372-1.331c-0.018-0.137-0.054-0.272-0.089-0.409 c-0.078-0.303-0.166-0.646-0.109-1.024c0.062-0.417,0.289-0.755,0.47-1.026c1.63-2.431,2.992-3.928,5.028-5.521 c0.071-0.056,0.189-0.149,0.208-0.192c0.001-0.033-0.04-0.131-0.125-0.286c-0.175-0.315-0.344-0.679-0.513-1.043 c-0.157-0.339-0.313-0.678-0.476-0.972c-0.419-0.756-0.872-1.34-1.379-1.971c-1.249-1.555-3.153-2.571-4.833-3.468 c-0.093-0.049-0.325-0.17-0.388-0.143c-0.058,0.015-0.169,0.132-0.235,0.202c-0.154,0.162-0.398,0.441-0.645,0.72 c-0.261,0.297-0.523,0.594-0.688,0.768c-0.191,0.201-0.507,0.208-0.707,0.018c-0.2-0.19-0.208-0.507-0.018-0.707 c0.158-0.167,0.41-0.454,0.661-0.739c0.256-0.291,0.51-0.58,0.67-0.749c0.149-0.157,0.375-0.393,0.707-0.48 c0.463-0.122,0.868,0.098,1.112,0.228c1.765,0.942,3.765,2.009,5.142,3.724c0.536,0.667,1.018,1.287,1.475,2.113 c0.173,0.313,0.341,0.673,0.508,1.034c0.158,0.342,0.316,0.684,0.48,0.98c0.116,0.21,0.333,0.603,0.212,1.039 c-0.098,0.35-0.359,0.557-0.551,0.707c-1.947,1.524-3.252,2.958-4.816,5.292c-0.139,0.208-0.282,0.424-0.312,0.62 c-0.026,0.176,0.027,0.384,0.09,0.625c0.045,0.178,0.09,0.356,0.112,0.535c0.076,0.626-0.102,1.31-0.513,1.978 c-0.424,0.688-1.531,2.334-2.663,2.761C35.252,30.018,35.193,30.027,35.134,30.027z"/><path fill="#010101" d="M10.512,27.82c-0.235,0-0.444-0.167-0.49-0.407c-0.057-0.3-0.131-0.547-0.2-0.778 c-0.196-0.66-0.382-1.284-0.072-2.468l0.055-0.201c0.086-0.312,0.168-0.606,0.104-0.833c-0.1-0.354-0.392-0.565-0.648-0.752 c-0.076-0.055-0.145-0.105-0.2-0.151c-0.257-0.212-0.598-0.521-0.979-0.867c-0.835-0.758-1.979-1.797-2.639-2.132 c-0.574-0.289-1.24-0.623-1.338-1.352c-0.053-0.395,0.094-0.739,0.2-0.99c0.7-1.651,1.425-3.359,2.46-4.899 c0.888-1.322,2.066-2.422,3.602-3.363c0.589-0.36,1.331-0.384,1.939-0.067c1.033,0.541,2.196,1.671,3.321,2.764 c0.604,0.587,1.175,1.142,1.649,1.525c0.032,0.025,0.106,0.085,0.136,0.097c-0.025-0.018,0.071-0.123,0.128-0.185 c1.104-1.197,2.686-1.643,3.942-1.898c1.513-0.309,1.538-0.313,2.677-0.476l0.234-0.034c0.266-0.042,0.525,0.15,0.565,0.424 c0.039,0.273-0.151,0.527-0.425,0.566L24.3,11.377c-1.12,0.16-1.12,0.16-2.618,0.465c-1.109,0.226-2.497,0.61-3.396,1.586 c-0.188,0.205-0.484,0.525-0.94,0.513c-0.325-0.013-0.558-0.201-0.697-0.313c-0.511-0.412-1.098-0.982-1.719-1.586 c-1.023-0.995-2.184-2.123-3.087-2.595c-0.299-0.156-0.664-0.144-0.954,0.033c-1.41,0.865-2.488,1.869-3.294,3.068 c-0.982,1.46-1.688,3.124-2.37,4.732c-0.064,0.153-0.146,0.343-0.129,0.466c0.027,0.205,0.389,0.387,0.707,0.547l0.093,0.046 c0.779,0.396,1.932,1.442,2.857,2.283c0.367,0.333,0.696,0.632,0.943,0.837c0.042,0.035,0.094,0.071,0.149,0.112 c0.312,0.225,0.831,0.602,1.025,1.291c0.139,0.496,0.01,0.961-0.104,1.371l-0.051,0.185c-0.238,0.915-0.118,1.32,0.064,1.931 c0.077,0.261,0.16,0.54,0.224,0.878c0.052,0.271-0.127,0.532-0.398,0.584C10.575,27.817,10.543,27.82,10.512,27.82z"/><path fill="#010101" d="M29.924,17.959c-0.523,0-1.073-0.193-1.43-0.541c-0.358-0.35-0.557-0.728-0.622-1.19 c-0.057-0.392,0.001-0.808,0.156-1.141c0.18-0.386,0.529-0.708,1.012-0.929c0.574-0.262,1.267-0.205,1.912,0.154 c0.032,0.014,0.063,0.033,0.094,0.055c0.513,0.383,0.757,0.969,0.725,1.741c-0.031,0.731-0.46,1.397-1.094,1.694 C30.453,17.909,30.192,17.959,29.924,17.959z M29.805,14.97c-0.129,0-0.249,0.024-0.357,0.074 c-0.188,0.086-0.434,0.236-0.536,0.456c-0.076,0.164-0.104,0.385-0.074,0.592c0.035,0.248,0.133,0.43,0.338,0.63 c0.244,0.238,0.797,0.339,1.088,0.2c0.309-0.145,0.518-0.479,0.533-0.853c0.023-0.539-0.142-0.765-0.301-0.895 C30.259,15.039,30.021,14.97,29.805,14.97z"/><path fill="#010101" d="M28.975,23.085c-0.062,0-0.125-0.011-0.186-0.036c-0.257-0.103-0.381-0.394-0.278-0.65 c0.147-0.369,0.194-1.16,0.101-1.693c-0.102-0.574-0.35-1.043-0.698-1.322c-0.197-0.158-0.471-0.314-0.734-0.461 c-0.396-0.22-0.839-0.232-1.403-0.228h-0.2c-0.489-0.002-0.649,0.008-0.866,0.208c-0.201,0.187-0.52,0.175-0.707-0.029 c-0.187-0.203-0.174-0.52,0.029-0.707c0.518-0.477,1.057-0.472,1.547-0.473h0.188c0.55-0.001,1.24-0.011,1.897,0.354 c0.302,0.167,0.616,0.348,0.874,0.554c0.538,0.43,0.914,1.115,1.058,1.929c0.127,0.719,0.058,1.702-0.157,2.239 C29.361,22.966,29.173,23.085,28.975,23.085z"/></svg>