<?xml version="1.0" encoding="UTF-8"?>
<svg xmlns="http://www.w3.org/2000/svg" xmlns:xlink="http://www.w3.org/1999/xlink" viewBox="0 0 64 64" width="64px" height="64px">
<g id="surface13563425">
<path style=" stroke:none;fill-rule:nonzero;fill:rgb(89.019608%,89.019608%,89.411765%);fill-opacity:1;" d="M 40.960938 54.398438 L 16 54.398438 C 13.878906 54.398438 12.160156 52.679688 12.160156 50.558594 L 12.160156 13.441406 C 12.160156 11.320312 13.878906 9.601562 16 9.601562 L 40.960938 9.601562 C 43.082031 9.601562 44.800781 11.320312 44.800781 13.441406 L 44.800781 50.558594 C 44.800781 52.679688 43.082031 54.398438 40.960938 54.398438 Z M 40.960938 54.398438 "/>
<path style=" stroke:none;fill-rule:nonzero;fill:rgb(78.039217%,87.450981%,94.509804%);fill-opacity:1;" d="M 41.921875 46.71875 L 15.039062 46.71875 C 14.863281 46.71875 14.71875 46.578125 14.71875 46.398438 L 14.71875 15.039062 C 14.71875 14.863281 14.863281 14.71875 15.039062 14.71875 L 41.921875 14.71875 C 42.097656 14.71875 42.238281 14.863281 42.238281 15.039062 L 42.238281 46.398438 C 42.238281 46.578125 42.097656 46.71875 41.921875 46.71875 Z M 41.921875 46.71875 "/>
<path style=" stroke:none;fill-rule:nonzero;fill:rgb(12.156863%,12.941177%,16.862746%);fill-opacity:1;" d="M 31.039062 12.800781 L 25.921875 12.800781 C 25.742188 12.800781 25.601562 12.65625 25.601562 12.480469 C 25.601562 12.304688 25.742188 12.160156 25.921875 12.160156 L 31.039062 12.160156 C 31.214844 12.160156 31.359375 12.304688 31.359375 12.480469 C 31.359375 12.65625 31.214844 12.800781 31.039062 12.800781 Z M 31.039062 12.800781 "/>
<path style=" stroke:none;fill-rule:nonzero;fill:rgb(56.078434%,61.960787%,71.372551%);fill-opacity:1;" d="M 45.761719 19.519531 L 45.121094 19.519531 L 45.121094 15.039062 L 45.761719 15.039062 C 46.113281 15.039062 46.398438 15.328125 46.398438 15.679688 L 46.398438 18.878906 C 46.398438 19.234375 46.113281 19.519531 45.761719 19.519531 Z M 45.761719 19.519531 "/>
<path style=" stroke:none;fill-rule:nonzero;fill:rgb(12.156863%,12.941177%,16.862746%);fill-opacity:1;" d="M 45.761719 19.839844 L 45.121094 19.839844 C 44.945312 19.839844 44.800781 19.695312 44.800781 19.519531 L 44.800781 15.039062 C 44.800781 14.863281 44.945312 14.71875 45.121094 14.71875 L 45.761719 14.71875 C 46.289062 14.71875 46.71875 15.152344 46.71875 15.679688 L 46.71875 18.878906 C 46.71875 19.410156 46.289062 19.839844 45.761719 19.839844 Z M 45.441406 19.199219 L 45.761719 19.199219 C 45.9375 19.199219 46.078125 19.054688 46.078125 18.878906 L 46.078125 15.679688 C 46.078125 15.503906 45.9375 15.359375 45.761719 15.359375 L 45.441406 15.359375 Z M 45.441406 19.199219 "/>
<path style=" stroke:none;fill-rule:nonzero;fill:rgb(12.156863%,12.941177%,16.862746%);fill-opacity:1;" d="M 15.039062 41.601562 C 14.863281 41.601562 14.71875 41.457031 14.71875 41.28125 L 14.71875 40 C 14.71875 39.824219 14.863281 39.679688 15.039062 39.679688 C 15.214844 39.679688 15.359375 39.824219 15.359375 40 L 15.359375 41.28125 C 15.359375 41.457031 15.214844 41.601562 15.039062 41.601562 Z M 15.039062 41.601562 "/>
<path style=" stroke:none;fill-rule:nonzero;fill:rgb(12.156863%,12.941177%,16.862746%);fill-opacity:1;" d="M 15.039062 36.480469 C 14.863281 36.480469 14.71875 36.335938 14.71875 36.160156 L 14.71875 15.039062 C 14.71875 14.863281 14.863281 14.71875 15.039062 14.71875 L 39.359375 14.71875 C 39.535156 14.71875 39.679688 14.863281 39.679688 15.039062 C 39.679688 15.214844 39.535156 15.359375 39.359375 15.359375 L 15.359375 15.359375 L 15.359375 36.160156 C 15.359375 36.335938 15.214844 36.480469 15.039062 36.480469 Z M 15.039062 36.480469 "/>
<path style=" stroke:none;fill-rule:nonzero;fill:rgb(12.156863%,12.941177%,16.862746%);fill-opacity:1;" d="M 41.921875 17.921875 C 41.742188 17.921875 41.601562 17.777344 41.601562 17.601562 L 41.601562 15.039062 C 41.601562 14.863281 41.742188 14.71875 41.921875 14.71875 C 42.097656 14.71875 42.238281 14.863281 42.238281 15.039062 L 42.238281 17.601562 C 42.238281 17.777344 42.097656 17.921875 41.921875 17.921875 Z M 41.921875 17.921875 "/>
<path style=" stroke:none;fill-rule:nonzero;fill:rgb(12.156863%,12.941177%,16.862746%);fill-opacity:1;" d="M 41.921875 19.839844 C 41.742188 19.839844 41.601562 19.695312 41.601562 19.519531 L 41.601562 18.878906 C 41.601562 18.703125 41.742188 18.558594 41.921875 18.558594 C 42.097656 18.558594 42.238281 18.703125 42.238281 18.878906 L 42.238281 19.519531 C 42.238281 19.695312 42.097656 19.839844 41.921875 19.839844 Z M 41.921875 19.839844 "/>
<path style=" stroke:none;fill-rule:nonzero;fill:rgb(12.156863%,12.941177%,16.862746%);fill-opacity:1;" d="M 41.921875 22.398438 C 41.742188 22.398438 41.601562 22.542969 41.601562 22.71875 L 41.601562 46.078125 L 15.359375 46.078125 L 15.359375 42.558594 C 15.359375 42.382812 15.214844 42.238281 15.039062 42.238281 C 14.863281 42.238281 14.71875 42.382812 14.71875 42.558594 L 14.71875 46.398438 C 14.71875 46.578125 14.863281 46.71875 15.039062 46.71875 L 41.921875 46.71875 C 42.097656 46.71875 42.238281 46.578125 42.238281 46.398438 L 42.238281 22.71875 C 42.238281 22.542969 42.097656 22.398438 41.921875 22.398438 Z M 41.921875 22.398438 "/>
<path style=" stroke:none;fill-rule:nonzero;fill:rgb(56.078434%,61.960787%,71.372551%);fill-opacity:1;" d="M 30.398438 50.238281 C 30.398438 51.300781 29.539062 52.160156 28.480469 52.160156 C 27.417969 52.160156 26.558594 51.300781 26.558594 50.238281 C 26.558594 49.179688 27.417969 48.320312 28.480469 48.320312 C 29.539062 48.320312 30.398438 49.179688 30.398438 50.238281 Z M 30.398438 50.238281 "/>
<path style=" stroke:none;fill-rule:nonzero;fill:rgb(12.156863%,12.941177%,16.862746%);fill-opacity:1;" d="M 28.480469 52.480469 C 27.246094 52.480469 26.238281 51.476562 26.238281 50.238281 C 26.238281 49.003906 27.246094 48 28.480469 48 C 29.714844 48 30.71875 49.003906 30.71875 50.238281 C 30.71875 51.476562 29.714844 52.480469 28.480469 52.480469 Z M 28.480469 48.640625 C 27.597656 48.640625 26.878906 49.359375 26.878906 50.238281 C 26.878906 51.121094 27.597656 51.839844 28.480469 51.839844 C 29.363281 51.839844 30.078125 51.121094 30.078125 50.238281 C 30.078125 49.359375 29.363281 48.640625 28.480469 48.640625 Z M 28.480469 48.640625 "/>
<path style=" stroke:none;fill-rule:nonzero;fill:rgb(12.156863%,12.941177%,16.862746%);fill-opacity:1;" d="M 40.960938 8.960938 L 16 8.960938 C 13.527344 8.960938 11.519531 10.964844 11.519531 13.441406 L 11.519531 50.558594 C 11.519531 53.035156 13.527344 55.039062 16 55.039062 L 40.960938 55.039062 C 43.433594 55.039062 45.441406 53.035156 45.441406 50.558594 L 45.441406 13.441406 C 45.441406 10.964844 43.433594 8.960938 40.960938 8.960938 Z M 44.160156 50.558594 C 44.160156 52.328125 42.726562 53.761719 40.960938 53.761719 L 16 53.761719 C 14.234375 53.761719 12.800781 52.328125 12.800781 50.558594 L 12.800781 13.441406 C 12.800781 11.671875 14.234375 10.238281 16 10.238281 L 40.960938 10.238281 C 42.726562 10.238281 44.160156 11.671875 44.160156 13.441406 Z M 44.160156 50.558594 "/>
<path style=" stroke:none;fill-rule:nonzero;fill:rgb(99.607843%,99.215686%,93.725491%);fill-opacity:1;" d="M 50.558594 56.960938 L 38.398438 56.960938 C 36.277344 56.960938 34.558594 55.242188 34.558594 53.121094 L 34.558594 26.878906 C 34.558594 24.757812 36.277344 23.039062 38.398438 23.039062 L 50.558594 23.039062 C 52.679688 23.039062 54.398438 24.757812 54.398438 26.878906 L 54.398438 53.121094 C 54.398438 55.242188 52.679688 56.960938 50.558594 56.960938 Z M 50.558594 56.960938 "/>
<path style=" stroke:none;fill-rule:nonzero;fill:rgb(78.039217%,87.450981%,94.509804%);fill-opacity:1;" d="M 52.160156 50.558594 L 36.800781 50.558594 C 36.625 50.558594 36.480469 50.417969 36.480469 50.238281 L 36.480469 27.199219 C 36.480469 27.023438 36.625 26.878906 36.800781 26.878906 L 52.160156 26.878906 C 52.335938 26.878906 52.480469 27.023438 52.480469 27.199219 L 52.480469 50.238281 C 52.480469 50.417969 52.335938 50.558594 52.160156 50.558594 Z M 52.160156 50.558594 "/>
<path style=" stroke:none;fill-rule:nonzero;fill:rgb(12.156863%,12.941177%,16.862746%);fill-opacity:1;" d="M 45.757812 25.601562 L 43.199219 25.601562 C 43.023438 25.601562 42.878906 25.457031 42.878906 25.28125 C 42.878906 25.101562 43.023438 24.960938 43.199219 24.960938 L 45.757812 24.960938 C 45.9375 24.960938 46.078125 25.101562 46.078125 25.28125 C 46.078125 25.457031 45.9375 25.601562 45.757812 25.601562 Z M 45.757812 25.601562 "/>
<path style=" stroke:none;fill-rule:nonzero;fill:rgb(80.784315%,80.000001%,74.509805%);fill-opacity:1;" d="M 55.359375 32.960938 L 54.71875 32.960938 L 54.71875 28.480469 L 55.359375 28.480469 C 55.714844 28.480469 56 28.765625 56 29.121094 L 56 32.320312 C 56 32.671875 55.714844 32.960938 55.359375 32.960938 Z M 55.359375 32.960938 "/>
<path style=" stroke:none;fill-rule:nonzero;fill:rgb(12.156863%,12.941177%,16.862746%);fill-opacity:1;" d="M 55.359375 33.28125 L 54.71875 33.28125 C 54.542969 33.28125 54.398438 33.136719 54.398438 32.960938 L 54.398438 28.480469 C 54.398438 28.304688 54.542969 28.160156 54.71875 28.160156 L 55.359375 28.160156 C 55.890625 28.160156 56.320312 28.589844 56.320312 29.121094 L 56.320312 32.320312 C 56.320312 32.847656 55.890625 33.28125 55.359375 33.28125 Z M 55.039062 32.640625 L 55.359375 32.640625 C 55.535156 32.640625 55.679688 32.496094 55.679688 32.320312 L 55.679688 29.121094 C 55.679688 28.945312 55.535156 28.800781 55.359375 28.800781 L 55.039062 28.800781 Z M 55.039062 32.640625 "/>
<path style=" stroke:none;fill-rule:nonzero;fill:rgb(12.156863%,12.941177%,16.862746%);fill-opacity:1;" d="M 36.800781 41.601562 C 36.625 41.601562 36.480469 41.457031 36.480469 41.28125 L 36.480469 40 C 36.480469 39.824219 36.625 39.679688 36.800781 39.679688 C 36.976562 39.679688 37.121094 39.824219 37.121094 40 L 37.121094 41.28125 C 37.121094 41.457031 36.976562 41.601562 36.800781 41.601562 Z M 36.800781 41.601562 "/>
<path style=" stroke:none;fill-rule:nonzero;fill:rgb(12.156863%,12.941177%,16.862746%);fill-opacity:1;" d="M 36.800781 36.480469 C 36.625 36.480469 36.480469 36.335938 36.480469 36.160156 L 36.480469 27.199219 C 36.480469 27.023438 36.625 26.878906 36.800781 26.878906 L 49.601562 26.878906 C 49.777344 26.878906 49.921875 27.023438 49.921875 27.199219 C 49.921875 27.375 49.777344 27.519531 49.601562 27.519531 L 37.121094 27.519531 L 37.121094 36.160156 C 37.121094 36.335938 36.976562 36.480469 36.800781 36.480469 Z M 36.800781 36.480469 "/>
<path style=" stroke:none;fill-rule:nonzero;fill:rgb(12.156863%,12.941177%,16.862746%);fill-opacity:1;" d="M 52.160156 30.078125 C 51.984375 30.078125 51.839844 29.9375 51.839844 29.761719 L 51.839844 27.199219 C 51.839844 27.023438 51.984375 26.878906 52.160156 26.878906 C 52.335938 26.878906 52.480469 27.023438 52.480469 27.199219 L 52.480469 29.761719 C 52.480469 29.9375 52.335938 30.078125 52.160156 30.078125 Z M 52.160156 30.078125 "/>
<path style=" stroke:none;fill-rule:nonzero;fill:rgb(12.156863%,12.941177%,16.862746%);fill-opacity:1;" d="M 52.160156 32 C 51.984375 32 51.839844 31.855469 51.839844 31.679688 L 51.839844 31.039062 C 51.839844 30.863281 51.984375 30.71875 52.160156 30.71875 C 52.335938 30.71875 52.480469 30.863281 52.480469 31.039062 L 52.480469 31.679688 C 52.480469 31.855469 52.335938 32 52.160156 32 Z M 52.160156 32 "/>
<path style=" stroke:none;fill-rule:nonzero;fill:rgb(12.156863%,12.941177%,16.862746%);fill-opacity:1;" d="M 52.160156 34.558594 C 51.984375 34.558594 51.839844 34.703125 51.839844 34.878906 L 51.839844 49.921875 L 37.121094 49.921875 L 37.121094 42.558594 C 37.121094 42.382812 36.976562 42.238281 36.800781 42.238281 C 36.625 42.238281 36.480469 42.382812 36.480469 42.558594 L 36.480469 50.238281 C 36.480469 50.417969 36.625 50.558594 36.800781 50.558594 L 52.160156 50.558594 C 52.335938 50.558594 52.480469 50.417969 52.480469 50.238281 L 52.480469 34.878906 C 52.480469 34.703125 52.335938 34.558594 52.160156 34.558594 Z M 52.160156 34.558594 "/>
<path style=" stroke:none;fill-rule:nonzero;fill:rgb(80.784315%,80.000001%,74.509805%);fill-opacity:1;" d="M 45.761719 53.441406 C 45.761719 54.148438 45.1875 54.71875 44.480469 54.71875 C 43.773438 54.71875 43.199219 54.148438 43.199219 53.441406 C 43.199219 52.734375 43.773438 52.160156 44.480469 52.160156 C 45.1875 52.160156 45.761719 52.734375 45.761719 53.441406 Z M 45.761719 53.441406 "/>
<path style=" stroke:none;fill-rule:nonzero;fill:rgb(12.156863%,12.941177%,16.862746%);fill-opacity:1;" d="M 44.480469 52.480469 C 45.007812 52.480469 45.441406 52.910156 45.441406 53.441406 C 45.441406 53.96875 45.007812 54.398438 44.480469 54.398438 C 43.949219 54.398438 43.519531 53.96875 43.519531 53.441406 C 43.519531 52.910156 43.949219 52.480469 44.480469 52.480469 M 44.480469 51.839844 C 43.597656 51.839844 42.878906 52.558594 42.878906 53.441406 C 42.878906 54.324219 43.597656 55.039062 44.480469 55.039062 C 45.363281 55.039062 46.078125 54.324219 46.078125 53.441406 C 46.078125 52.558594 45.363281 51.839844 44.480469 51.839844 Z M 44.480469 51.839844 "/>
<path style=" stroke:none;fill-rule:nonzero;fill:rgb(12.156863%,12.941177%,16.862746%);fill-opacity:1;" d="M 51.199219 22.398438 L 37.761719 22.398438 C 35.640625 22.398438 33.921875 24.117188 33.921875 26.238281 L 33.921875 53.761719 C 33.921875 55.882812 35.640625 57.601562 37.761719 57.601562 L 51.199219 57.601562 C 53.320312 57.601562 55.039062 55.882812 55.039062 53.761719 L 55.039062 26.238281 C 55.039062 24.117188 53.320312 22.398438 51.199219 22.398438 Z M 53.761719 53.761719 C 53.761719 55.171875 52.613281 56.320312 51.199219 56.320312 L 37.761719 56.320312 C 36.347656 56.320312 35.199219 55.171875 35.199219 53.761719 L 35.199219 26.238281 C 35.199219 24.828125 36.347656 23.679688 37.761719 23.679688 L 51.199219 23.679688 C 52.613281 23.679688 53.761719 24.828125 53.761719 26.238281 Z M 53.761719 53.761719 "/>
<path style=" stroke:none;fill-rule:nonzero;fill:rgb(63.137257%,82.745099%,63.529414%);fill-opacity:1;" d="M 40.640625 32.320312 L 39.359375 32.320312 C 39.007812 32.320312 38.71875 32.035156 38.71875 31.679688 L 38.71875 30.398438 C 38.71875 30.046875 39.007812 29.761719 39.359375 29.761719 L 40.640625 29.761719 C 40.992188 29.761719 41.28125 30.046875 41.28125 30.398438 L 41.28125 31.679688 C 41.28125 32.035156 40.992188 32.320312 40.640625 32.320312 Z M 40.640625 32.320312 "/>
<path style=" stroke:none;fill-rule:nonzero;fill:rgb(12.156863%,12.941177%,16.862746%);fill-opacity:1;" d="M 40.640625 32.640625 L 39.359375 32.640625 C 38.832031 32.640625 38.398438 32.210938 38.398438 31.679688 L 38.398438 30.398438 C 38.398438 29.871094 38.832031 29.441406 39.359375 29.441406 L 40.640625 29.441406 C 41.167969 29.441406 41.601562 29.871094 41.601562 30.398438 L 41.601562 31.679688 C 41.601562 32.210938 41.167969 32.640625 40.640625 32.640625 Z M 39.359375 30.078125 C 39.183594 30.078125 39.039062 30.222656 39.039062 30.398438 L 39.039062 31.679688 C 39.039062 31.855469 39.183594 32 39.359375 32 L 40.640625 32 C 40.816406 32 40.960938 31.855469 40.960938 31.679688 L 40.960938 30.398438 C 40.960938 30.222656 40.816406 30.078125 40.640625 30.078125 Z M 39.359375 30.078125 "/>
<path style=" stroke:none;fill-rule:nonzero;fill:rgb(99.607843%,96.470588%,66.666669%);fill-opacity:1;" d="M 49.601562 32.320312 L 48.320312 32.320312 C 47.964844 32.320312 47.679688 32.035156 47.679688 31.679688 L 47.679688 30.398438 C 47.679688 30.046875 47.964844 29.761719 48.320312 29.761719 L 49.601562 29.761719 C 49.953125 29.761719 50.238281 30.046875 50.238281 30.398438 L 50.238281 31.679688 C 50.238281 32.035156 49.953125 32.320312 49.601562 32.320312 Z M 49.601562 32.320312 "/>
<path style=" stroke:none;fill-rule:nonzero;fill:rgb(12.156863%,12.941177%,16.862746%);fill-opacity:1;" d="M 49.601562 32.640625 L 48.320312 32.640625 C 47.789062 32.640625 47.359375 32.210938 47.359375 31.679688 L 47.359375 30.398438 C 47.359375 29.871094 47.789062 29.441406 48.320312 29.441406 L 49.601562 29.441406 C 50.128906 29.441406 50.558594 29.871094 50.558594 30.398438 L 50.558594 31.679688 C 50.558594 32.210938 50.128906 32.640625 49.601562 32.640625 Z M 48.320312 30.078125 C 48.144531 30.078125 48 30.222656 48 30.398438 L 48 31.679688 C 48 31.855469 48.144531 32 48.320312 32 L 49.601562 32 C 49.777344 32 49.921875 31.855469 49.921875 31.679688 L 49.921875 30.398438 C 49.921875 30.222656 49.777344 30.078125 49.601562 30.078125 Z M 48.320312 30.078125 "/>
<path style=" stroke:none;fill-rule:nonzero;fill:rgb(47.058824%,63.529414%,82.352942%);fill-opacity:1;" d="M 45.121094 32.320312 L 43.839844 32.320312 C 43.488281 32.320312 43.199219 32.035156 43.199219 31.679688 L 43.199219 30.398438 C 43.199219 30.046875 43.488281 29.761719 43.839844 29.761719 L 45.121094 29.761719 C 45.472656 29.761719 45.761719 30.046875 45.761719 30.398438 L 45.761719 31.679688 C 45.761719 32.035156 45.472656 32.320312 45.121094 32.320312 Z M 45.121094 32.320312 "/>
<path style=" stroke:none;fill-rule:nonzero;fill:rgb(12.156863%,12.941177%,16.862746%);fill-opacity:1;" d="M 45.121094 32.640625 L 43.839844 32.640625 C 43.3125 32.640625 42.878906 32.210938 42.878906 31.679688 L 42.878906 30.398438 C 42.878906 29.871094 43.3125 29.441406 43.839844 29.441406 L 45.121094 29.441406 C 45.648438 29.441406 46.078125 29.871094 46.078125 30.398438 L 46.078125 31.679688 C 46.078125 32.210938 45.648438 32.640625 45.121094 32.640625 Z M 43.839844 30.078125 C 43.664062 30.078125 43.519531 30.222656 43.519531 30.398438 L 43.519531 31.679688 C 43.519531 31.855469 43.664062 32 43.839844 32 L 45.121094 32 C 45.296875 32 45.441406 31.855469 45.441406 31.679688 L 45.441406 30.398438 C 45.441406 30.222656 45.296875 30.078125 45.121094 30.078125 Z M 43.839844 30.078125 "/>
<path style=" stroke:none;fill-rule:nonzero;fill:rgb(96.470588%,57.254905%,44.705883%);fill-opacity:1;" d="M 40.640625 36.800781 L 39.359375 36.800781 C 39.007812 36.800781 38.71875 36.511719 38.71875 36.160156 L 38.71875 34.878906 C 38.71875 34.527344 39.007812 34.238281 39.359375 34.238281 L 40.640625 34.238281 C 40.992188 34.238281 41.28125 34.527344 41.28125 34.878906 L 41.28125 36.160156 C 41.28125 36.511719 40.992188 36.800781 40.640625 36.800781 Z M 40.640625 36.800781 "/>
<path style=" stroke:none;fill-rule:nonzero;fill:rgb(12.156863%,12.941177%,16.862746%);fill-opacity:1;" d="M 40.640625 37.121094 L 39.359375 37.121094 C 38.832031 37.121094 38.398438 36.6875 38.398438 36.160156 L 38.398438 34.878906 C 38.398438 34.351562 38.832031 33.921875 39.359375 33.921875 L 40.640625 33.921875 C 41.167969 33.921875 41.601562 34.351562 41.601562 34.878906 L 41.601562 36.160156 C 41.601562 36.6875 41.167969 37.121094 40.640625 37.121094 Z M 39.359375 34.558594 C 39.183594 34.558594 39.039062 34.703125 39.039062 34.878906 L 39.039062 36.160156 C 39.039062 36.335938 39.183594 36.480469 39.359375 36.480469 L 40.640625 36.480469 C 40.816406 36.480469 40.960938 36.335938 40.960938 36.160156 L 40.960938 34.878906 C 40.960938 34.703125 40.816406 34.558594 40.640625 34.558594 Z M 39.359375 34.558594 "/>
<path style=" stroke:none;fill-rule:nonzero;fill:rgb(0%,67.450982%,61.176473%);fill-opacity:1;" d="M 49.601562 36.800781 L 48.320312 36.800781 C 47.964844 36.800781 47.679688 36.511719 47.679688 36.160156 L 47.679688 34.878906 C 47.679688 34.527344 47.964844 34.238281 48.320312 34.238281 L 49.601562 34.238281 C 49.953125 34.238281 50.238281 34.527344 50.238281 34.878906 L 50.238281 36.160156 C 50.238281 36.511719 49.953125 36.800781 49.601562 36.800781 Z M 49.601562 36.800781 "/>
<path style=" stroke:none;fill-rule:nonzero;fill:rgb(12.156863%,12.941177%,16.862746%);fill-opacity:1;" d="M 49.601562 37.121094 L 48.320312 37.121094 C 47.789062 37.121094 47.359375 36.6875 47.359375 36.160156 L 47.359375 34.878906 C 47.359375 34.351562 47.789062 33.921875 48.320312 33.921875 L 49.601562 33.921875 C 50.128906 33.921875 50.558594 34.351562 50.558594 34.878906 L 50.558594 36.160156 C 50.558594 36.6875 50.128906 37.121094 49.601562 37.121094 Z M 48.320312 34.558594 C 48.144531 34.558594 48 34.703125 48 34.878906 L 48 36.160156 C 48 36.335938 48.144531 36.480469 48.320312 36.480469 L 49.601562 36.480469 C 49.777344 36.480469 49.921875 36.335938 49.921875 36.160156 L 49.921875 34.878906 C 49.921875 34.703125 49.777344 34.558594 49.601562 34.558594 Z M 48.320312 34.558594 "/>
<path style=" stroke:none;fill-rule:nonzero;fill:rgb(95.294118%,49.411765%,59.607846%);fill-opacity:1;" d="M 45.121094 36.800781 L 43.839844 36.800781 C 43.488281 36.800781 43.199219 36.511719 43.199219 36.160156 L 43.199219 34.878906 C 43.199219 34.527344 43.488281 34.238281 43.839844 34.238281 L 45.121094 34.238281 C 45.472656 34.238281 45.761719 34.527344 45.761719 34.878906 L 45.761719 36.160156 C 45.761719 36.511719 45.472656 36.800781 45.121094 36.800781 Z M 45.121094 36.800781 "/>
<path style=" stroke:none;fill-rule:nonzero;fill:rgb(12.156863%,12.941177%,16.862746%);fill-opacity:1;" d="M 45.121094 37.121094 L 43.839844 37.121094 C 43.3125 37.121094 42.878906 36.6875 42.878906 36.160156 L 42.878906 34.878906 C 42.878906 34.351562 43.3125 33.921875 43.839844 33.921875 L 45.121094 33.921875 C 45.648438 33.921875 46.078125 34.351562 46.078125 34.878906 L 46.078125 36.160156 C 46.078125 36.6875 45.648438 37.121094 45.121094 37.121094 Z M 43.839844 34.558594 C 43.664062 34.558594 43.519531 34.703125 43.519531 34.878906 L 43.519531 36.160156 C 43.519531 36.335938 43.664062 36.480469 43.839844 36.480469 L 45.121094 36.480469 C 45.296875 36.480469 45.441406 36.335938 45.441406 36.160156 L 45.441406 34.878906 C 45.441406 34.703125 45.296875 34.558594 45.121094 34.558594 Z M 43.839844 34.558594 "/>
</g>
</svg>
