<svg xmlns="http://www.w3.org/2000/svg"  viewBox="0 0 100 100" width="64px" height="64px"><path fill="#c7ede6" d="M87.215,56.71C88.35,54.555,89,52.105,89,49.5c0-6.621-4.159-12.257-10.001-14.478 C78.999,35.015,79,35.008,79,35c0-11.598-9.402-21-21-21c-9.784,0-17.981,6.701-20.313,15.757C36.211,29.272,34.638,29,33,29 c-7.692,0-14.023,5.793-14.89,13.252C12.906,43.353,9,47.969,9,53.5C9,59.851,14.149,65,20.5,65c0.177,0,0.352-0.012,0.526-0.022 C21.022,65.153,21,65.324,21,65.5C21,76.822,30.178,86,41.5,86c6.437,0,12.175-2.972,15.934-7.614C59.612,80.611,62.64,82,66,82 c4.65,0,8.674-2.65,10.666-6.518C77.718,75.817,78.837,76,80,76c6.075,0,11-4.925,11-11C91,61.689,89.53,58.727,87.215,56.71z"/><path fill="#fff" d="M15.405,57H5.5C5.224,57,5,56.776,5,56.5S5.224,56,5.5,56h9.905c0.276,0,0.5,0.224,0.5,0.5 S15.682,57,15.405,57z"/><path fill="#fff" d="M18.5,57h-1c-0.276,0-0.5-0.224-0.5-0.5s0.224-0.5,0.5-0.5h1c0.276,0,0.5,0.224,0.5,0.5 S18.777,57,18.5,57z"/><path fill="#fff" d="M23.491,59H14.5c-0.276,0-0.5-0.224-0.5-0.5s0.224-0.5,0.5-0.5h8.991c0.276,0,0.5,0.224,0.5,0.5 S23.767,59,23.491,59z"/><path fill="#fff" d="M12.5,59h-1c-0.276,0-0.5-0.224-0.5-0.5s0.224-0.5,0.5-0.5h1c0.276,0,0.5,0.224,0.5,0.5 S12.777,59,12.5,59z"/><path fill="#fff" d="M9.5,59h-2C7.224,59,7,58.776,7,58.5S7.224,58,7.5,58h2c0.276,0,0.5,0.224,0.5,0.5S9.777,59,9.5,59 z"/><path fill="#fff" d="M15.5,61h-2c-0.276,0-0.5-0.224-0.5-0.5s0.224-0.5,0.5-0.5h2c0.276,0,0.5,0.224,0.5,0.5 S15.776,61,15.5,61z"/><path fill="#fff" d="M18.5,52c-0.177,0-0.823,0-1,0c-0.276,0-0.5,0.224-0.5,0.5c0,0.276,0.224,0.5,0.5,0.5 c0.177,0,0.823,0,1,0c0.276,0,0.5-0.224,0.5-0.5C19,52.224,18.776,52,18.5,52z"/><path fill="#fff" d="M18.5,54c-0.177,0-4.823,0-5,0c-0.276,0-0.5,0.224-0.5,0.5c0,0.276,0.224,0.5,0.5,0.5 c0.177,0,4.823,0,5,0c0.276,0,0.5-0.224,0.5-0.5C19,54.224,18.776,54,18.5,54z"/><path fill="#fff" d="M23.5,56c-0.177,0-2.823,0-3,0c-0.276,0-0.5,0.224-0.5,0.5c0,0.276,0.224,0.5,0.5,0.5 c0.177,0,2.823,0,3,0c0.276,0,0.5-0.224,0.5-0.5C24,56.224,23.776,56,23.5,56z"/><path fill="#fff" d="M67.5,20h-10c-0.276,0-0.5-0.224-0.5-0.5s0.224-0.5,0.5-0.5h10c0.276,0,0.5,0.224,0.5,0.5 S67.776,20,67.5,20z"/><path fill="#fff" d="M71.5,20h-2c-0.276,0-0.5-0.224-0.5-0.5s0.224-0.5,0.5-0.5h2c0.276,0,0.5,0.224,0.5,0.5 S71.776,20,71.5,20z"/><path fill="#fff" d="M76.5,22h-10c-0.276,0-0.5-0.224-0.5-0.5s0.224-0.5,0.5-0.5h10c0.276,0,0.5,0.224,0.5,0.5 S76.777,22,76.5,22z"/><path fill="#fff" d="M64.5,22h-1c-0.276,0-0.5-0.224-0.5-0.5s0.224-0.5,0.5-0.5h1c0.276,0,0.5,0.224,0.5,0.5 S64.776,22,64.5,22z"/><path fill="#fff" d="M61.375,22H59.5c-0.276,0-0.5-0.224-0.5-0.5s0.224-0.5,0.5-0.5h1.875c0.276,0,0.5,0.224,0.5,0.5 S61.651,22,61.375,22z"/><path fill="#fff" d="M70.5,18h-5c-0.276,0-0.5-0.224-0.5-0.5s0.224-0.5,0.5-0.5h5c0.276,0,0.5,0.224,0.5,0.5 S70.777,18,70.5,18z"/><path fill="#fff" d="M67.5,24h-2c-0.276,0-0.5-0.224-0.5-0.5s0.224-0.5,0.5-0.5h2c0.276,0,0.5,0.224,0.5,0.5 S67.776,24,67.5,24z"/><path fill="#fdfcef" d="M40.875,40.5c0,0,3.64,0,6.125,0s4.5-2.015,4.5-4.5c0-2.333-1.782-4.229-4.055-4.455 C47.467,31.364,47.5,31.187,47.5,31c0-2.485-2.015-4.5-4.5-4.5c-1.438,0-2.703,0.686-3.527,1.736 C39.333,25.6,37.171,23.5,34.5,23.5c-2.761,0-5,2.239-5,5c0,0.446,0.077,0.87,0.187,1.282C29.045,29.005,28.086,28.5,27,28.5 c-1.781,0-3.234,1.335-3.455,3.055C23.364,31.533,23.187,31.5,23,31.5c-2.485,0-4.5,2.015-4.5,4.5s2.015,4.5,4.5,4.5s9.5,0,9.5,0 h5.375V41h3V40.5z"/><path fill="#472b29" d="M34.5,23c-3.033,0-5.5,2.467-5.5,5.5c0,0.016,0,0.031,0,0.047C28.398,28.192,27.71,28,27,28 c-1.831,0-3.411,1.261-3.858,3.005C23.095,31.002,23.048,31,23,31c-2.757,0-5,2.243-5,5s2.243,5,5,5h14.875 c0.276,0,0.5-0.224,0.5-0.5s-0.224-0.5-0.5-0.5H23c-2.206,0-4-1.794-4-4s1.794-4,4-4c0.117,0,0.23,0.017,0.343,0.032l0.141,0.019 c0.021,0.003,0.041,0.004,0.062,0.004c0.246,0,0.462-0.185,0.495-0.437C24.232,30.125,25.504,29,27,29 c0.885,0,1.723,0.401,2.301,1.1c0.098,0.118,0.241,0.182,0.386,0.182c0.078,0,0.156-0.018,0.228-0.056 c0.209-0.107,0.314-0.346,0.254-0.573C30.054,29.218,30,28.852,30,28.5c0-2.481,2.019-4.5,4.5-4.5 c2.381,0,4.347,1.872,4.474,4.263c0.011,0.208,0.15,0.387,0.349,0.45c0.05,0.016,0.101,0.024,0.152,0.024 c0.15,0,0.296-0.069,0.392-0.192C40.638,27.563,41.779,27,43,27c2.206,0,4,1.794,4,4c0,0.117-0.017,0.23-0.032,0.343l-0.019,0.141 c-0.016,0.134,0.022,0.268,0.106,0.373c0.084,0.105,0.207,0.172,0.34,0.185C49.451,32.247,51,33.949,51,36c0,2.206-1.794,4-4,4 h-6.125c-0.276,0-0.5,0.224-0.5,0.5s0.224,0.5,0.5,0.5H47c2.757,0,5-2.243,5-5c0-2.397-1.689-4.413-4.003-4.877 C47.999,31.082,48,31.041,48,31c0-2.757-2.243-5-5-5c-1.176,0-2.293,0.416-3.183,1.164C39.219,24.76,37.055,23,34.5,23L34.5,23z"/><path fill="#472b29" d="M33,30c-1.403,0-2.609,0.999-2.913,2.341C29.72,32.119,29.301,32,28.875,32 c-1.202,0-2.198,0.897-2.353,2.068C26.319,34.022,26.126,34,25.937,34c-1.529,0-2.811,1.2-2.918,2.732 C23.01,36.87,23.114,36.99,23.251,37c0.006,0,0.012,0,0.018,0c0.13,0,0.24-0.101,0.249-0.232c0.089-1.271,1.151-2.268,2.419-2.268 c0.229,0,0.47,0.042,0.738,0.127c0.022,0.007,0.045,0.01,0.067,0.01c0.055,0,0.11-0.02,0.156-0.054 C26.962,34.537,27,34.455,27,34.375c0-1.034,0.841-1.875,1.875-1.875c0.447,0,0.885,0.168,1.231,0.473 c0.047,0.041,0.106,0.063,0.165,0.063c0.032,0,0.063-0.006,0.093-0.019c0.088-0.035,0.148-0.117,0.155-0.212 C30.623,31.512,31.712,30.5,33,30.5c0.208,0,0.425,0.034,0.682,0.107c0.023,0.007,0.047,0.01,0.07,0.01 c0.109,0,0.207-0.073,0.239-0.182c0.038-0.133-0.039-0.271-0.172-0.309C33.517,30.04,33.256,30,33,30L33,30z"/><path fill="#472b29" d="M46.883,31.5c-1.326,0-2.508,0.897-2.874,2.182c-0.038,0.133,0.039,0.271,0.172,0.309 C44.205,33.997,44.228,34,44.25,34c0.109,0,0.209-0.072,0.24-0.182C44.795,32.748,45.779,32,46.883,32 c0.117,0,0.23,0.014,0.342,0.029c0.012,0.002,0.023,0.003,0.035,0.003c0.121,0,0.229-0.092,0.246-0.217 c0.019-0.137-0.077-0.263-0.214-0.281C47.158,31.516,47.022,31.5,46.883,31.5L46.883,31.5z"/><path fill="#fdfcef" d="M84.5,68.5c0,0,1.567,0,3.5,0s3.5-1.567,3.5-3.5c0-1.781-1.335-3.234-3.055-3.455 C88.473,61.366,88.5,61.187,88.5,61c0-1.933-1.567-3.5-3.5-3.5c-1.032,0-1.95,0.455-2.59,1.165 c-0.384-1.808-1.987-3.165-3.91-3.165c-2.209,0-4,1.791-4,4c0,0.191,0.03,0.374,0.056,0.558C74.128,59.714,73.592,59.5,73,59.5 c-1.228,0-2.245,0.887-2.455,2.055C70.366,61.527,70.187,61.5,70,61.5c-1.933,0-3.5,1.567-3.5,3.5s1.567,3.5,3.5,3.5s7.5,0,7.5,0 V69h7V68.5z"/><path fill="#472b29" d="M86.25,64C86.112,64,86,63.888,86,63.75c0-1.223,0.995-2.218,2.218-2.218 c0.034,0.009,0.737-0.001,1.244,0.136c0.133,0.036,0.212,0.173,0.176,0.306c-0.036,0.134-0.173,0.213-0.306,0.176 c-0.444-0.12-1.1-0.12-1.113-0.118c-0.948,0-1.719,0.771-1.719,1.718C86.5,63.888,86.388,64,86.25,64z"/><circle cx="79.5" cy="68.5" r=".5" fill="#472b29"/><path fill="#472b29" d="M88,69h-3.5c-0.276,0-0.5-0.224-0.5-0.5s0.224-0.5,0.5-0.5H88c1.654,0,3-1.346,3-3 c0-1.496-1.125-2.768-2.618-2.959c-0.134-0.018-0.255-0.088-0.336-0.196s-0.115-0.244-0.094-0.377C87.975,61.314,88,61.16,88,61 c0-1.654-1.346-3-3-3c-0.85,0-1.638,0.355-2.219,1c-0.125,0.139-0.321,0.198-0.5,0.148c-0.182-0.049-0.321-0.195-0.36-0.379 C81.58,57.165,80.141,56,78.5,56c-1.93,0-3.5,1.57-3.5,3.5c0,0.143,0.021,0.28,0.041,0.418c0.029,0.203-0.063,0.438-0.242,0.54 c-0.179,0.102-0.396,0.118-0.556-0.01C73.878,60.155,73.449,60,73,60c-0.966,0-1.792,0.691-1.963,1.644 c-0.048,0.267-0.296,0.446-0.569,0.405C70.314,62.025,70.16,62,70,62c-1.654,0-3,1.346-3,3s1.346,3,3,3h7.5 c0.276,0,0.5,0.224,0.5,0.5S77.776,69,77.5,69H70c-2.206,0-4-1.794-4-4s1.794-4,4-4c0.059,0,0.116,0.002,0.174,0.006 C70.588,59.82,71.711,59,73,59c0.349,0,0.689,0.061,1.011,0.18C74.176,56.847,76.126,55,78.5,55c1.831,0,3.466,1.127,4.153,2.774 C83.333,57.276,84.155,57,85,57c2.206,0,4,1.794,4,4c0,0.048-0.001,0.095-0.004,0.142C90.739,61.59,92,63.169,92,65 C92,67.206,90.206,69,88,69z"/><path fill="#472b29" d="M82.5,68c-0.159,0-0.841,0-1,0c-0.276,0-0.5,0.224-0.5,0.5c0,0.276,0.224,0.5,0.5,0.5 c0.159,0,0.841,0,1,0c0.276,0,0.5-0.224,0.5-0.5C83,68.224,82.776,68,82.5,68z"/><path fill="#472b29" d="M68.5,59c-2.472,0-2.5-4.316-2.5-4.5v-5c0-3.46-4.316-3.5-4.5-3.5c-0.276,0-0.5-0.224-0.5-0.5 s0.224-0.5,0.5-0.5c1.902,0,5.5,0.94,5.5,4.5v5c0.001,0.908,0.279,3.5,1.5,3.5c1.01,0,1.5-1.145,1.5-3.5v-6 c0-0.276,0.224-0.5,0.5-0.5s0.5,0.224,0.5,0.5v6C71,57.486,70.159,59,68.5,59z"/><path fill="#f4989e" d="M38.7,75.3V36.217c0-3.594,2.923-6.517,6.517-6.517h11.566c3.594,0,6.517,2.923,6.517,6.517V75.3 H38.7z"/><path fill="#472b29" d="M56.783,30.4c3.208,0,5.817,2.609,5.817,5.817V74.6H39.4V36.217c0-3.208,2.609-5.817,5.817-5.817 H56.783 M56.783,29H45.217C41.231,29,38,32.231,38,36.217V76h26V36.217C64,32.231,60.769,29,56.783,29L56.783,29z"/><path fill="#a8dbdb" d="M56.845,45h-12.19c-1.19,0-2.155-0.965-2.155-2.155v-6.69c0-1.19,0.965-2.155,2.155-2.155h12.19 C58.035,34,59,34.965,59,36.155v6.69C59,44.035,58.035,45,56.845,45z"/><path fill="#472b29" d="M56.845,45.5H44.655C43.191,45.5,42,44.309,42,42.845v-6.689c0-1.464,1.191-2.655,2.655-2.655 h12.189c1.464,0,2.655,1.191,2.655,2.655v6.689C59.5,44.309,58.309,45.5,56.845,45.5z M44.655,34.5 C43.742,34.5,43,35.242,43,36.155v6.689c0,0.913,0.742,1.655,1.655,1.655h12.189c0.913,0,1.655-0.742,1.655-1.655v-6.689 c0-0.913-0.742-1.655-1.655-1.655H44.655z"/><g><path fill="#472b29" d="M66.5,76h-36c-0.276,0-0.5-0.224-0.5-0.5s0.224-0.5,0.5-0.5h36c0.276,0,0.5,0.224,0.5,0.5 S66.776,76,66.5,76z"/></g><g><path fill="#472b29" d="M74.5,76h-5c-0.276,0-0.5-0.224-0.5-0.5s0.224-0.5,0.5-0.5h5c0.276,0,0.5,0.224,0.5,0.5 S74.776,76,74.5,76z"/></g><g><rect width="26.6" height="6.6" x="37.7" y="68.7" fill="#edd773"/><path fill="#472b29" d="M63.6,69.4v5.2H38.4v-5.2H63.6 M65,68H37v8h28V68L65,68z"/></g><g><path fill="#472b29" d="M51.5,71.75h-12c-0.138,0-0.25-0.112-0.25-0.25s0.112-0.25,0.25-0.25h12 c0.138,0,0.25,0.112,0.25,0.25S51.638,71.75,51.5,71.75z"/></g><g><path fill="#472b29" d="M56.5,71.75h-3c-0.138,0-0.25-0.112-0.25-0.25s0.112-0.25,0.25-0.25h3c0.138,0,0.25,0.112,0.25,0.25 S56.638,71.75,56.5,71.75z"/></g><g><path fill="#472b29" d="M61.5,71.75h-3c-0.138,0-0.25-0.112-0.25-0.25s0.112-0.25,0.25-0.25h3c0.138,0,0.25,0.112,0.25,0.25 S61.638,71.75,61.5,71.75z"/></g><g><path fill="#472b29" d="M42.5,60c-0.276,0-0.5-0.224-0.5-0.5v-11c0-0.276,0.224-0.5,0.5-0.5s0.5,0.224,0.5,0.5v11 C43,59.776,42.776,60,42.5,60z"/></g><g><path fill="#472b29" d="M45.5,49h-3c-0.276,0-0.5-0.224-0.5-0.5s0.224-0.5,0.5-0.5h3c0.276,0,0.5,0.224,0.5,0.5 S45.776,49,45.5,49z"/></g><g><path fill="#472b29" d="M56.5,66h-4c-0.276,0-0.5-0.224-0.5-0.5s0.224-0.5,0.5-0.5h4c0.276,0,0.5,0.224,0.5,0.5 S56.776,66,56.5,66z"/></g><g><path fill="#472b29" d="M59.5,49h-12c-0.276,0-0.5-0.224-0.5-0.5s0.224-0.5,0.5-0.5h12c0.276,0,0.5,0.224,0.5,0.5 S59.776,49,59.5,49z"/></g><g><path fill="#472b29" d="M50.5,66h-8c-0.276,0-0.5-0.224-0.5-0.5s0.224-0.5,0.5-0.5h8c0.276,0,0.5,0.224,0.5,0.5 S50.776,66,50.5,66z"/></g><g><path fill="#472b29" d="M42.5,66c-0.276,0-0.5-0.224-0.5-0.5v-3c0-0.276,0.224-0.5,0.5-0.5s0.5,0.224,0.5,0.5v3 C43,65.776,42.776,66,42.5,66z"/></g><g><path fill="#472b29" d="M51.5,44c-0.088,0-0.177-0.022-0.257-0.071c-0.237-0.142-0.314-0.449-0.172-0.686l3-5 c0.143-0.237,0.452-0.314,0.686-0.172c0.237,0.142,0.314,0.449,0.172,0.686l-3,5C51.835,43.913,51.669,44,51.5,44z"/></g><g><path fill="#472b29" d="M59.5,51c-0.276,0-0.5-0.224-0.5-0.5v-2c0-0.276,0.224-0.5,0.5-0.5s0.5,0.224,0.5,0.5v2 C60,50.776,59.776,51,59.5,51z"/></g><g><path fill="#472b29" d="M59.5,66c-0.276,0-0.5-0.224-0.5-0.5v-6c0-0.276,0.224-0.5,0.5-0.5s0.5,0.224,0.5,0.5v6 C60,65.776,59.776,66,59.5,66z"/></g><g><path fill="#472b29" d="M59.5,58c-0.276,0-0.5-0.224-0.5-0.5v-5c0-0.276,0.224-0.5,0.5-0.5s0.5,0.224,0.5,0.5v5 C60,57.776,59.776,58,59.5,58z"/></g><g><path fill="#edd773" d="M55.323,45c-0.539-2.009-2.412-3.5-4.662-3.5S46.539,42.991,46,45H55.323z"/><path fill="#472b29" d="M55.976,45.5H45.348l0.169-0.63c0.612-2.278,2.728-3.87,5.145-3.87c2.418,0,4.533,1.592,5.146,3.87 L55.976,45.5z M46.708,44.5h7.907c-0.68-1.5-2.221-2.5-3.954-2.5S47.388,43,46.708,44.5z"/></g><g><path fill="#a2b3cb" d="M77.078,32.078l-1.031-1.031c-0.302-0.302-0.792-0.302-1.094,0L70.5,35.5 c-1.473,1.473-1.86,3.484-1.962,4.444c-0.003,0.013-0.002,0.027-0.005,0.04c-0.001,0.011-0.002,0.021-0.003,0.032 c-0.016,0.097-0.03,0.195-0.03,0.296v0.25v6.125c0,1.001,0.811,1.813,1.812,1.813h2.375c1.001,0,1.813-0.811,1.813-1.813v-6.375 c0-1.001-0.811-1.813-1.813-1.813h0c-0.438,0-0.658-0.53-0.348-0.84l4.738-4.738C77.311,32.689,77.311,32.311,77.078,32.078z"/><path fill="#472b29" d="M72.688,49h-2.375C69.037,49,68,47.963,68,46.688v-6.375c0-0.13,0.016-0.256,0.037-0.381 c0.002-0.01,0.012-0.09,0.014-0.1c0.106-1.043,0.535-3.125,2.096-4.686l4.453-4.453c0.496-0.496,1.305-0.496,1.801,0l1.031,1.031 c0.428,0.428,0.428,1.123,0,1.551l-4.738,4.738c0.009,0,0.017,0,0.025,0c1.258,0,2.281,1.032,2.281,2.299v6.375 C75,47.963,73.963,49,72.688,49z M75.5,31.32c-0.07,0-0.14,0.026-0.193,0.08l-4.453,4.453c-1.343,1.343-1.716,3.172-1.818,4.144 c-0.001,0.011-0.01,0.092-0.012,0.103C69.012,40.17,69,40.239,69,40.313v6.375C69,47.411,69.589,48,70.313,48h2.375 C73.411,48,74,47.411,74,46.688v-6.375C74,39.589,73.411,39,72.688,39c-0.402,0-0.762-0.24-0.916-0.612s-0.07-0.797,0.215-1.081 l4.738-4.738c0.038-0.038,0.038-0.099,0-0.137L75.693,31.4C75.64,31.347,75.57,31.32,75.5,31.32z"/></g><g><path fill="#c7ede6" d="M71.5,46.5L71.5,46.5c-0.552,0-1-0.448-1-1v-4c0-0.552,0.448-1,1-1l0,0c0.552,0,1,0.448,1,1v4 C72.5,46.052,72.052,46.5,71.5,46.5z"/></g><g><path fill="#472b29" d="M72.5,41.75c-0.138,0-0.25-0.112-0.25-0.25c0-0.413-0.337-0.75-0.75-0.75s-0.75,0.337-0.75,0.75 c0,0.138-0.112,0.25-0.25,0.25s-0.25-0.112-0.25-0.25c0-0.689,0.561-1.25,1.25-1.25s1.25,0.561,1.25,1.25 C72.75,41.638,72.638,41.75,72.5,41.75z"/></g><g><path fill="#472b29" d="M70.5,44.656c-0.138,0-0.25-0.112-0.25-0.25v-1.875c0-0.138,0.112-0.25,0.25-0.25 s0.25,0.112,0.25,0.25v1.875C70.75,44.544,70.638,44.656,70.5,44.656z"/></g><g><path fill="#472b29" d="M71.5,46.75c-0.689,0-1.25-0.561-1.25-1.25c0-0.138,0.112-0.25,0.25-0.25s0.25,0.112,0.25,0.25 c0,0.413,0.337,0.75,0.75,0.75s0.75-0.337,0.75-0.75v-2.844c0-0.138,0.112-0.25,0.25-0.25s0.25,0.112,0.25,0.25V45.5 C72.75,46.189,72.189,46.75,71.5,46.75z"/></g></svg>