<svg xmlns="http://www.w3.org/2000/svg"  viewBox="0 0 512 512" width="64px" height="64px"><path fill="#231F20" d="M512,263.3v6.3c0-0.1,0.1-0.3,0.1-0.4C512.3,267.2,512.2,265.2,512,263.3z"/><path fill="#14B6B9" d="M485.8,258.2c-2.3-4.7-4.9-9.2-7-13.9c-3.9-8.7-5.4-18.5-9.4-27.1c-9.7,17.7-27.8,28.7-39.9,44.7h19.8c0.6,0,1.1,0.1,1.6,0.2c0.8-0.1,1.6,0,2.4,0.3c12.6,4.4-2.1,26.4-5.7,32.2c-4.1,6.5-8.5,12.8-13.2,18.7c-4.7,5.8-10.2,10.2-16.2,14.6c-22.6,16.6-47.8,27.7-74.7,35.3c-26.7,7.6-54.4,12.2-82.2,12.3c-1.1,0-2-0.3-2.7-0.7c-2.9,1.4-6.9,0.3-6.9-3.8V172c0-2.7,1.7-5,4.5-5.2c14.1-1.4,28.7-0.4,42.8,0.1c11.5,0.4,24.8,5.1,35.9,0.9c5.1-1.9,11.7-5.8,11.7-12.2c0-4.7-2-9.1-5.8-12c-3.6-2.8-8-3.3-11.7-0.4c-2.9,2.3-3.7,5.7-6,8.3c-2.4,2.7-7.8,3.5-11.1,4.1c-19.2,3.5-38.8-0.9-58.1-1c-1.5,0-2.6-0.5-3.5-1.4c-0.5-0.3-1.1-0.8-1.6-1.3c-3.2-3.1-0.9-7.7,2.3-8.5c1.9-7.1,6.3-12.4,14.3-14.1c8.3-1.8,16.2-3.3,22.3-9.7c13.1-13.8,18.5-36,16.8-54.6c-0.8-8.8-3.5-16.9-9.8-23.3c-7.2-7.3-16.2-12.5-25.9-15.8c-18.4-6.3-42-7.7-58.9,3.4c-16.9,11-24.5,31.5-23.1,51.2c0.7,10.2,3.4,20,9.1,28.6c5.5,8.2,14.1,18.4,25.1,16.8c2.2-0.3,3.7,0.7,4.5,2.1c1.3,0.7,2.2,1.9,2.2,3.8c0.1,4.9,1.4,9.7,1.5,14.6c0.1,2.8-1.9,4.5-4,5c-0.5,0.7-1.2,1.3-2.1,1.5c-13.9,3-28.1,3.4-42.2,3.2c-11.6-0.2-22.4-4.1-33.3-7.8c-9.7-3.3-17.9,5.8-16.3,15.3c1,5.9,8.2,6.3,13,6.1c8.1-0.2,15.9-1.9,23.9-2.6c8.2-0.8,16.5-1.3,24.7-1.7c8.7-0.5,19.3-1,26.9,4c5.2,3.5,5.6,8.4,6.6,14.3c1.1,6.5,2.1,13,2.8,19.6c5.9,55.7-1.4,111.4-1.4,167.2c0,3.6-3.2,5.4-5.9,5.1c-0.4,0.1-0.9,0.2-1.5,0.2c-10.6-0.2-20.8-3.2-31-6.1c-10.6-3-21.2-5.6-31.5-9.5c-20.8-7.7-42.2-17.2-60.2-30.5c-13.7-10.1-24.1-22.8-34.7-35.8c-4.5-5.6-20.7-22.4-12.1-30.1c0.5-0.4,1-0.7,1.5-0.9c0.7-1,1.8-1.9,3.3-2.2c6.9-1.4,13.9-3.1,20.6-5.4c-1.7-5.1-3.5-10.1-5.5-15.1c-2.3-5.7-4.4-12-7.8-17.1c-4.9-7.3-9.7-14.9-11.9-23.4c-7,7-11,17.3-16.7,25c-8.5,11.4-18.5,21.9-24.7,34.8c2.6,1.5,5,3.1,7.7,4.5c0.6,0.3,1,0.7,1.4,1.1c2.7,0,5.8,2.1,5.6,5.7c-0.7,11.6,4.4,23.5,8.7,34c4.6,11.2,8.6,22.7,13.3,33.9c10.2,24.6,24,48,43.4,66.5c20.8,19.8,46.9,34.2,72.1,47.3c9.1,4.7,18.2,9.6,27.6,13.7c8.7,3.7,17.5,7.2,26.2,11c8.6,3.8,17.3,7.8,25.1,13.1c5.4,3.6,11.7,8.4,13.2,15.1c0,0,0,0.1,0,0.1c0.4-0.4,0.8-0.8,1.4-1.1c2.6-1.3,4.9-3,7.3-4.4c23.9-13.9,41.5-35.8,64.2-51.2c23.3-15.7,48.5-28.6,69.6-47.5c19.2-17.2,35.7-37.1,48.9-59.2c13.2-22.2,23.4-45.9,32.4-70c0.5-1.5,2.5-2.7,4-2.7h8.6C489.3,265.4,487.4,261.5,485.8,258.2z M211.1,81.9c-8.3-10-3.2-24.2,5.7-32.9c10.2-9.9,25.3-16.7,39.4-11.7C271.6,42.8,281,63,277,78.6c-3.8,14.5-17,25-31.9,26.3C229.2,106.2,215.8,97,211.1,81.9z M340.4,405c-10.1,5.5-20.7,10.2-31.5,14.2c-19.6,7.4-54.4,16.4-52,43.3c0.4,4.3-4.9,6.9-8.1,4c-10.4-9.3-18.3-21.2-29.4-29.7c-5.8-4.4-11.5-8.2-18.2-11.1c-6.1-2.6-12.6-4.1-18.6-6.8c-13.3-5.9-27-11.2-40.3-17.2c-9.3-4.2-20.8-7.1-27.5-15.2c-4-4.9,4.1-10.3,8.1-5.5c3.2,3.8,9.2,5.8,13.6,7.6c5.1,2.2,10.2,4.5,15.4,6.5c13.3,5.2,26.2,11.9,39.7,16.5c13,4.4,25,9.8,35.5,18.8c7.6,6.5,13.9,14.2,20.8,21.5c5.1-21.8,31.1-32.5,50.9-39.6c9.4-3.4,18.7-7,27.7-11.3c5.4-2.6,10.9-5.3,15.9-8.7c1.7-1.2,3.5-2.4,4.9-3.9c0.6-0.7,0.7-0.7,0.9-1.1c-0.4-5.4,7.9-8,9.4-2.2C360.1,394.8,347.2,401.4,340.4,405z"/><path fill="#231F20" d="M488.5,242.1c-6.1-12.4-6.9-26.9-15.7-38.1c-2-2.5-7.1-3.2-8.4,0.6c-8.8,25.2-35.3,37.4-48.3,60c-2,3.5,1.3,7,4.7,7h27.4c-0.4,2.2-1.4,4.2-2.3,6.2c-2.9,6.3-6.8,12.3-10.7,18.1c-3.4,4.9-6.9,9.7-10.8,14.2c-0.6,0.7-1.2,1.3-1.8,2c-0.1,0.1-0.6,0.5-0.6,0.6c-0.8,0.7-1.6,1.3-2.4,2c-4.9,4-10,7.7-15.3,11.2c-21.1,14.2-44.7,23-69,29.6c-24,6.5-48.9,10.2-73.8,10.4V176.1c10.4-0.6,20.8,0.1,31.3,0.3c11.2,0.2,22.2,2.3,33.4,2.5c12.8,0.2,28.3-7.6,30.1-21.5c1.3-10-4.9-20.3-14-24.4c-11-5-20.9,1.9-26.2,11.4c-9.1,3.5-19.9,2.8-29.4,2.4c-8.6-0.4-17.2-1.3-25.9-1.8c0.6-2.1,1.6-4,3.6-5.2c3-1.9,7.6-2,11-2.8c8.7-1.9,16.2-6.7,21.9-13.4c12.6-14.6,17.6-36.1,17.3-55c-0.1-8.7-1.9-17.6-6.2-25.2c-4.9-8.6-13-15.1-21.4-20.1C269.3,13,246.7,9.1,226.8,12.6c-29.4,5.2-48.1,29.8-49.8,58.9c-0.9,14.3,2,28.2,9.3,40.6c6.5,11.1,18.1,23.5,31.8,23.6c0.2,2.3,0.6,4.5,0.9,6.8c-0.7,0.4-1.3,0.9-1.7,1.6c-6.2,1.1-12.6,1.7-18.9,1.9c-7.8,0.3-15.9,0.8-23.6-0.1c-11.2-1.3-21.3-8.2-32.8-8.3c-18.6,0-29.2,29.4-12.1,39.1c6.6,3.7,15.6,2.9,22.9,2.1c7.4-0.8,14.8-2.2,22.3-2.4c9.4-0.3,18.8-1.9,28.2-1.6c3.9,0.1,8,0.8,11.4,2.7c1.7,1,1.6,4.9,1.9,6.8c0.7,3.8,1.3,7.6,1.8,11.4c7.9,56.4,0.2,113.5-0.4,170.1c-8.6-0.4-17.1-3.2-25.3-5.5c-9.6-2.8-19.3-5.1-28.8-8.4c-19.3-6.8-39.1-15.6-56-27.1c-13.2-8.9-23.3-20.3-33.4-32.5c-3.7-4.5-7.4-9-10.9-13.8c-1.5-2.1-3.1-4.3-4.2-6.7c-0.3-0.7-0.6-1.4-0.8-2.1c8.6-1.8,17.2-3.9,25.4-7.1c2.5-1,3.9-3.6,3-6.2c-4-11.9-8.4-23.7-13.9-35.1c-5.1-10.5-13.3-18.6-13.7-31c-0.1-4-4.6-5.3-7.6-3.7c-11.8,6.4-17,20-24.2,30.5c-9,13.1-20.5,24.2-27.2,38.7c-0.8,1.7-0.6,3.2,0.2,4.4c-1.1,2.2-0.8,5.1,2,6.5c3.5,1.8,6.7,4.1,10.2,5.9c0.6,0.3,1.1,0.5,1.7,0.5c0.2,10.5,3.6,20.6,7.4,30.4c4.6,11.8,9.2,23.6,13.8,35.3c9.6,24.4,22.8,47.2,40.5,66.6c19.1,20.8,44.4,35.8,69,49.2c18.6,10.2,37.4,19.1,57,27.3c9.5,4,18.9,8.1,27.9,13.1c5.2,2.9,13.1,7.1,14.5,13.4c1,4.6,6.5,3.9,8.6,0.7c0.9,2.7,4.2,4.9,7.6,3.2c21.7-10.9,39.2-29,57.5-44.7c21.2-18.1,46.7-30.1,69.1-46.6c42-30.8,70.5-75.2,90.3-122.6c2.7-6.5,5.2-13,7.7-19.6h10.2c1.9,0,3.9-1.7,4.3-3.6v-6.1C498.6,259.6,492.6,250.7,488.5,242.1z M481.5,269.2c-1.5,0-3.5,1.2-4,2.7c-9,24.1-19.2,47.8-32.4,70c-13.2,22.1-29.7,42-48.9,59.2c-21,18.9-46.2,31.8-69.6,47.5c-22.7,15.4-40.3,37.3-64.2,51.2c-2.5,1.4-4.7,3.1-7.3,4.4c-0.6,0.3-1.1,0.7-1.4,1.1c0,0,0-0.1,0-0.1c-1.5-6.7-7.8-11.5-13.2-15.1c-7.9-5.3-16.5-9.3-25.1-13.1c-8.7-3.8-17.5-7.3-26.2-11c-9.4-4-18.5-8.9-27.6-13.7c-25.3-13.1-51.4-27.5-72.1-47.3C70,386.6,56.2,363.2,46,338.6c-4.6-11.2-8.7-22.7-13.3-33.9c-4.3-10.5-9.5-22.4-8.7-34c0.2-3.6-2.9-5.7-5.6-5.7c-0.4-0.4-0.8-0.8-1.4-1.1c-2.6-1.3-5.1-3-7.7-4.5c6.2-12.9,16.2-23.5,24.7-34.8c5.8-7.7,9.8-18,16.7-25c2.2,8.5,7,16.1,11.9,23.4c3.4,5.1,5.5,11.4,7.8,17.1c2,5,3.8,10,5.5,15.1c-6.7,2.3-13.6,4-20.6,5.4c-1.5,0.3-2.6,1.1-3.3,2.2c-0.5,0.2-1,0.5-1.5,0.9c-8.5,7.7,7.6,24.5,12.1,30.1c10.6,13,21,25.7,34.7,35.8c17.9,13.3,39.3,22.8,60.2,30.5c10.3,3.8,20.9,6.4,31.5,9.5c10.1,2.9,20.4,6,31,6.1c0.5,0,1-0.1,1.5-0.2c2.7,0.3,5.9-1.5,5.9-5.1c0.1-55.7,7.4-111.5,1.4-167.2c-0.7-6.6-1.7-13.1-2.8-19.6c-1-5.8-1.4-10.8-6.6-14.3c-7.6-5-18.2-4.5-26.9-4c-8.2,0.4-16.6,0.9-24.7,1.7c-8,0.8-15.9,2.4-23.9,2.6c-4.8,0.1-12-0.3-13-6.1c-1.6-9.6,6.6-18.6,16.3-15.3c10.8,3.7,21.7,7.6,33.3,7.8c14.2,0.2,28.3-0.2,42.2-3.2c0.9-0.2,1.6-0.8,2.1-1.5c2.2-0.5,4.1-2.2,4-5c-0.1-4.9-1.4-9.7-1.5-14.6c0-1.9-1-3.2-2.2-3.8c-0.8-1.5-2.3-2.4-4.5-2.1c-11,1.6-19.6-8.6-25.1-16.8c-5.8-8.6-8.4-18.3-9.1-28.6c-1.4-19.6,6.3-40.2,23.1-51.2c16.9-11,40.5-9.7,58.9-3.4c9.7,3.3,18.7,8.4,25.9,15.8c6.3,6.4,9,14.5,9.8,23.3c1.7,18.6-3.7,40.8-16.8,54.6c-6.1,6.4-14.1,7.9-22.3,9.7c-8,1.8-12.4,7.1-14.3,14.1c-3.2,0.9-5.4,5.5-2.3,8.5c0.5,0.5,1.1,0.9,1.6,1.3c0.8,0.8,2,1.4,3.5,1.4c19.3,0.1,38.9,4.5,58.1,1c3.3-0.6,8.7-1.4,11.1-4.1c2.3-2.6,3.1-6,6-8.3c3.7-2.9,8.1-2.3,11.7,0.4c3.7,2.9,5.8,7.3,5.8,12c0,6.4-6.6,10.3-11.7,12.2c-11.1,4.2-24.4-0.4-35.9-0.9c-14.2-0.5-28.7-1.5-42.8-0.1c-2.8,0.3-4.5,2.5-4.5,5.2v199.1c0,4.1,4.1,5.2,6.9,3.8c0.7,0.5,1.6,0.7,2.7,0.7c27.8-0.1,55.5-4.7,82.2-12.3c26.9-7.6,52.1-18.7,74.7-35.3c6-4.4,11.5-8.8,16.2-14.6c4.8-6,9.1-12.3,13.2-18.7c3.7-5.8,18.4-27.7,5.7-32.2c-0.9-0.3-1.7-0.4-2.4-0.3c-0.5-0.1-1-0.2-1.6-0.2h-19.8c12.1-16,30.2-27,39.9-44.7c4,8.6,5.5,18.4,9.4,27.1c2.1,4.7,4.7,9.2,7,13.9c1.6,3.3,3.6,7.2,4.3,11H481.5z"/><path fill="#231F20" d="M256.2 37.4c-14.1-5-29.3 1.8-39.4 11.7-8.9 8.7-14 22.9-5.7 32.9 4.7 15.1 18.1 24.3 34 22.9 14.9-1.3 28.2-11.8 31.9-26.3C281 63 271.6 42.8 256.2 37.4zM252.7 92.9c-12.5 5.4-25.7 1-31.2-10.9.5-1.6.2-3.4-1.5-4.8-.2-.2-.3-.3-.5-.5-.4-.7-.8-1.1-1.3-1.5-6.1-8.2 4.4-19.4 11.3-24.2 5.1-3.5 11.7-6.1 18-5.7 7.5.5 12.8 5.1 16.4 11.3C272.1 70.3 267.3 86.7 252.7 92.9zM357.6 385.2c-1.5-5.7-9.7-3.2-9.4 2.2-.2.4-.3.5-.9 1.1-1.4 1.6-3.2 2.8-4.9 3.9-5 3.4-10.4 6.1-15.9 8.7-9 4.3-18.3 7.9-27.7 11.3-19.8 7.1-45.8 17.8-50.9 39.6-6.9-7.2-13.2-15-20.8-21.5-10.5-9-22.5-14.3-35.5-18.8-13.5-4.6-26.4-11.3-39.7-16.5-5.2-2-10.3-4.4-15.4-6.5-4.4-1.9-10.5-3.8-13.6-7.6-4-4.8-12.1.6-8.1 5.5 6.7 8.1 18.2 11.1 27.5 15.2 13.3 6 26.9 11.2 40.3 17.2 6 2.7 12.6 4.2 18.6 6.8 6.7 2.9 12.5 6.6 18.2 11.1 11.1 8.5 19 20.4 29.4 29.7 3.2 2.8 8.5.2 8.1-4-2.3-27 32.5-36 52-43.3 10.8-4.1 21.4-8.8 31.5-14.2C347.2 401.4 360.1 394.8 357.6 385.2z"/></svg>