<svg xmlns="http://www.w3.org/2000/svg"  viewBox="0 0 512 512" width="64px" height="64px"><path fill="#C56528" d="M392 63c-.1-1.4-.2-2.8-.6-4.1 0 0 0 0 0 0-15.9 5.5-31 15-45.3 23.9-.6 0-1.1.1-1.6.6-.3.3-.6.6-.9 1-.6.4-1.2.7-1.8 1.1-1.8 1.1-3.5 2.2-5.2 3.3-.4.1-.7.3-1.1.6-.1.1-.2.1-.2.2-1.7 1.1-3.5 2.3-5.2 3.4-1-.4-2.2-.2-2.9.8-.4.7-.8 1.3-1.3 2-15.1 10.3-29.6 21.7-43.3 33.8-7.8 6.9-15.4 14.1-22.8 21.4 14-11.9 28.3-23.5 43.2-34 3.9-2.8 7.9-5.5 11.9-8.2 0 0 0 .1 0 .1 0 .3 0 .6 0 1 0 0 0 0 0 0v3.2c-.2 1.2-.2 2.5 0 3.8 0 .3.1.5.2.7.1 1.4.2 2.8.4 4.2-.8.6-1.7 1.2-2.5 1.7 1.1.1 2.1.4 2.9 1.1 0 .3.1.6.1.8.2.9.7 1.3 1.4 1.5.1.5.2.9.2 1.5 0 12.2.7 24.5 2.5 36.5 1.6 10.5 4.1 20.9 6.2 31.3 2.7 13.1 6.3 26.6 14.1 37.4-.5-2.4-1.3-4.8-2.8-6.8-1.8-2.4-1.2-4.8.3-6.5-2.7-8.4-5.1-16.8-6.3-25.7-2-14.4-2.2-29-1.8-43.5.4-12.3.9-25 3.6-37 .2-1 .5-2.1.8-3.3.3-.6.5-1.1.8-1.7 5.4-6.9 10-14.2 14.8-21.5 6.8-3.4 13.7-6.5 20.8-9.1 4.7-1.7 9.4-3.2 14.2-4.5 2.2-.6 4.5-1.1 6.7-2 .1 0 .2-.1.3-.1C392.3 69.2 392.3 66.1 392 63zM217.6 80.8c-22 8.9-43.3 20.1-62.9 33.5-19 13-38.6 25.5-55.5 41.3-5.1 4.8-13.5-2.4-8.3-7.3 18-16.8 38.8-30.1 59-44.1 19.7-13.6 41.7-25 64-33.8 22.3-8.8 46.2-15.4 70.3-15.9 7-.1 14.1-.3 21.1-.4-11.7-5.4-25.5-6.9-38-6.9-22.7-.1-46.3 3.3-67.7 11.2-26.1 9.6-49.6 25-71.6 41.8-10.8 8.2-21.3 16.7-31.8 25.2-10.1 8.2-20.2 16.2-29.4 25.4-9 9.1-17.6 19.1-22.8 30.9-3.5 8.1-6.6 19.8 1.7 26.2 8.5 6.5 21.3 4.7 31.1 2.9 12.9-2.4 25.4-7.2 37.2-13 24.1-12 45.8-28.2 68.6-42.3 42.9-26.7 91.1-48.2 121.2-90.4-5.7.1-11.4.2-17.1.3C262.9 65.9 239.6 71.9 217.6 80.8z"/><path fill="#71C598" d="M238.3 283.9c-6-22.9-20-41.5-40.7-53-1.4-.8-2.2-1.9-2.6-3.1-.4.1-.8.2-1.2.3-3.6 5.6-7 11.4-9.8 17.4-3.1 6.4-12.9 1.5-9.9-4.9 2.5-5.2 5.3-10.2 8.3-15.1-21.5-9.8-47.9 3.1-65.5 15.7-39.8 28.5-49.7 82.6-49.5 128.7.1 21.2 5.1 43.7 19.8 59.9 14.6 16 35 23.1 56.5 19.4 46.3-8 78.7-53.7 91.3-96C241.6 331 244.2 306.5 238.3 283.9zM315.8 200.3c-1.1-5.3-2.3-10.7-3.5-16 0 .1-.1.2-.1.2-1.1 2.9-1.9 6-2.6 9-1 4.4-2.1 8.9-2.8 13.3-.9 6.2-1.3 12.5-2.2 18.7 4.4-4.1 9.6-7 15.7-7.8C318.5 212.1 317 206.2 315.8 200.3zM333.9 418.2c-18.3-14.1-34-31.9-43.8-53.1-10-21.7-12.9-45.2-10.5-68.8.7-6.4 1.5-12.8 2.7-19.2-2.9 4.9-4.8 10.8-6.3 15.2-4 12.4-6.6 25.2-7.8 38.2-2.9 30.2-.6 60.2 11.1 88.4 9 21.6 21.6 45 46.7 49.5 12.1 2.2 24.7 1.7 36-3.6 9.6-4.4 18-11.4 24.2-20C367 439.7 348.4 429.3 333.9 418.2z"/><path fill="#71C598" d="M461.3,307.1c-9.4-24.1-25.1-45.3-44.1-62.8c-18.1-16.7-41.7-31.8-67.4-26.1c-0.4,0.1-0.9,0.1-1.3,0.2c0.9,2.6,1.8,5.2,2.6,7.8c0.6,1.8,0.3,3.3-0.5,4.5c1.1,5.5,0.8,11.3,0.8,16.9c0,4.8-5.2,7.7-9.1,4.6c-8-6.4-13.7-14.6-17.8-23.6c-19.1,0.5-26.2,27-29.6,42c-4.1,17.9-6.7,36.9-4.6,55.2c2.6,23,12.2,44.3,27.1,62c14.8,17.5,34.1,31.9,55.3,40.8c17.4,7.3,38.3,12.2,56.8,5.8c21.6-7.4,32.9-27.7,37.7-48.9C473.3,359.3,471,332,461.3,307.1z"/><path d="M469.9,299c-10.6-25.5-28.4-47.8-48.9-66.1c-20.7-18.4-46.8-31.4-74.9-25.1c-0.3,0.1-0.6,0.2-0.8,0.2c-0.9-3.3-1.7-6.7-2.3-10.1c-2.4-14.2-2.7-28.6-2.5-43c0.2-10.6,0.7-21.1,2.3-31.6c0.7-4.6,1.5-9.3,3.3-13.6c0.7-1.6,1.3-2.9,2.2-3.9c0.3-0.3,0.7-0.5,0.1-0.3c0.2-0.1,0.2-0.1,0.2-0.2c0,0,0.2,0.1,0.7,0.1c4.4,0.1,5.7-4,4.4-7.3c3.9-2,7.9-4,12-5.7c5.9-2.6,12.1-5,18.4-6.7c4.2-1.2,8.5-1.9,12.5-3.8c7.2-3.5,6.8-12.8,6.3-19.7c-0.2-3.1-0.9-7-2.5-10.1c-0.2-3.2-3.2-6.5-7.3-5.3c-6.1,1.7-12,4.1-17.8,6.8c-5.5-2.4-12.1-3.3-17.5-0.2c-0.4,0.2-0.8,0.6-1.1,0.9c-10.7-0.3-21.5-0.4-32.2-0.4c-0.3-0.4-0.6-0.8-1-1.1c-17.1-14.5-41.1-17-62.7-16.5c-22.9,0.5-46.5,4.8-67.9,12.9c-25.8,9.8-49.2,25.4-71.1,42c-20.9,15.8-42.1,32.2-61,50.3c-15.8,15.1-36,38.9-30.3,62.5c5.6,23.7,37.2,20.4,54.7,16.4c26-6,49.6-20.6,71.8-34.9c11.1-7.2,22-14.6,33.2-21.5c11-6.9,22.5-13.1,33.7-19.6c35.6-20.7,70-43.9,93.1-78.8c0.1-0.1,0.2-0.3,0.3-0.4c12.3-0.1,24.5-0.1,36.8,0.2c-5.7,3.4-11.3,6.9-16.8,10.3c-21.9,13.3-42.3,28.9-61.5,45.8c-19.5,17.2-37.7,35.8-54.9,55.3c-11,12.5-22.4,25.6-32.1,39.5c0,0-0.1,0-0.1,0c-21.8-10.8-47.1-2.2-66.9,9c-20.6,11.7-36.1,28.5-46.5,49.9c-10.8,22.2-15.7,47-17.7,71.5c-1.8,22.8-1.9,45.8,7.1,67.2c8,19,22.7,35.4,42.2,42.9c21.4,8.3,45.3,4.5,65.5-5.6c41.3-20.7,67.9-65.8,77.3-109.8c4.8-22.4,4.3-46.7-3.1-68.5c-7.5-22.3-23.5-40.1-43.9-51.5c-0.4-0.2-0.7-0.4-1.1-0.5c14.7-19.9,35.8-35.6,54.3-51.5c16.5-14.2,33.4-28.1,51-40.9c-0.1,0.4-0.1,0.8-0.1,1.3c0,12.2,0.8,24.4,2.5,36.5c0.2,1.5,0.4,2.9,0.7,4.4c-4.2,2-6.4,6.9-8,11.2c-2.2,6.1-3.5,12.4-4.8,18.8c-1.1,5.7-1.7,11.4-2.4,17.2c-0.5,4.6-0.6,13.9-3.7,16.8c-3.2,3-1.3,6.8,1.9,8.3c-0.9,1.8-1.7,3.7-2.4,5.5c-1.4,3.6-2.7,7.2-3.8,10.9c-9.1,3.8-14.3,13-17.9,21.7c-4.4,10.5-7.3,21.7-9.2,32.8c-5.2,29.3-5,60.4,2.8,89.2c3.8,14,9.6,27.4,16.5,40.1c5.5,10.2,12.7,19.6,22.1,26.4c18.6,13.4,45.8,14.7,66.3,5.2c12.7-5.9,23.3-15.6,30.8-27.3c17.6,2.6,35.3,0.3,50.6-10.2c19.7-13.5,28.4-38,31.9-60.7C484.2,350.3,480,323.3,469.9,299z M99.1,155.6c16.9-15.8,36.5-28.3,55.5-41.3c19.6-13.5,40.9-24.7,62.9-33.5c22-8.9,45.4-14.9,69.2-15.3c5.7-0.1,11.4-0.2,17.1-0.3c-30.1,42.2-78.3,63.7-121.2,90.4c-22.8,14.2-44.5,30.4-68.6,42.3c-11.8,5.8-24.2,10.6-37.2,13c-9.8,1.8-22.5,3.6-31.1-2.9c-8.4-6.4-5.2-18.1-1.7-26.2C49.3,170,57.8,160,66.9,151c9.2-9.2,19.4-17.2,29.4-25.4c10.5-8.5,21-17,31.8-25.2c22-16.8,45.5-32.2,71.6-41.8c21.4-7.9,45-11.3,67.7-11.2c12.5,0,26.3,1.5,38,6.9c-7.1,0.1-14.1,0.2-21.1,0.4c-24.1,0.4-48,7.1-70.3,15.9c-22.3,8.8-44.3,20.2-64,33.8c-20.2,14-41,27.3-59,44.1C85.7,153.2,94,160.4,99.1,155.6z M238.3,283.9c5.9,22.5,3.3,47-3.2,69.1c-12.6,42.3-45.1,88.1-91.3,96c-21.4,3.7-41.9-3.3-56.5-19.4c-14.7-16.2-19.7-38.7-19.8-59.9c-0.1-46.1,9.7-100.1,49.5-128.7c17.6-12.6,43.9-25.5,65.5-15.7c-3.1,4.9-5.9,10-8.3,15.1c-3.1,6.4,6.8,11.3,9.9,4.9c2.9-6,6.2-11.8,9.8-17.4c0.4,0,0.8-0.1,1.2-0.3c0.4,1.2,1.2,2.4,2.6,3.1C218.3,242.5,232.2,261.1,238.3,283.9z M302.9,117.1c-14.9,10.5-29.2,22.1-43.2,34c7.4-7.3,15-14.5,22.8-21.4c13.7-12.2,28.2-23.5,43.3-33.8c0.4-0.7,0.8-1.3,1.3-2c0.7-1,2-1.2,2.9-0.8c1.7-1.2,3.5-2.3,5.2-3.4c0.1-0.1,0.2-0.1,0.2-0.2c0.3-0.3,0.7-0.5,1.1-0.6c1.7-1.1,3.5-2.2,5.2-3.3c0.6-0.4,1.2-0.7,1.8-1.1c0.3-0.3,0.6-0.7,0.9-1c0.5-0.5,1.1-0.7,1.6-0.6c14.3-8.9,29.4-18.3,45.3-23.9c0,0,0,0,0,0c0.4,1.3,0.5,2.7,0.6,4.1c0.3,3,0.3,6.1-0.3,9.1c-0.1,0-0.2,0.1-0.3,0.1c-2.2,0.9-4.5,1.4-6.7,2c-4.8,1.3-9.5,2.8-14.2,4.5c-7.1,2.6-14,5.7-20.8,9.1c-4.8,7.3-9.4,14.6-14.8,21.5c-0.2,0.6-0.5,1.1-0.8,1.7c-0.3,1.2-0.6,2.3-0.8,3.3c-2.8,12-3.3,24.7-3.6,37c-0.4,14.5-0.2,29.1,1.8,43.5c1.2,8.9,3.6,17.3,6.3,25.7c-1.6,1.6-2.1,4.1-0.3,6.5c1.5,2,2.3,4.3,2.8,6.8c-7.7-10.8-11.4-24.3-14.1-37.4c-2.1-10.4-4.6-20.8-6.2-31.3c-1.8-12.1-2.4-24.3-2.5-36.5c0-0.5-0.1-1-0.2-1.5c-0.7-0.2-1.2-0.6-1.4-1.5c0-0.3-0.1-0.6-0.1-0.8c-0.8-0.6-1.8-1-2.9-1.1c0.8-0.6,1.7-1.2,2.5-1.7c-0.2-1.4-0.3-2.8-0.4-4.2c-0.1-0.2-0.2-0.4-0.2-0.7c-0.2-1.3-0.2-2.6,0-3.8V110c0,0,0,0,0,0c0-0.3,0-0.6,0-1c0,0,0-0.1,0-0.1C310.8,111.6,306.8,114.4,302.9,117.1z M306.8,206.9c0.7-4.5,1.8-9,2.8-13.3c0.7-3,1.5-6.1,2.6-9c0-0.1,0.1-0.2,0.1-0.2c1.1,5.3,2.3,10.7,3.5,16c1.2,5.9,2.7,11.8,4.6,17.5c-6.2,0.9-11.4,3.8-15.7,7.8C305.5,219.4,305.9,213.1,306.8,206.9z M362,464.8c-11.3,5.2-23.9,5.7-36,3.6c-25.1-4.5-37.8-27.9-46.7-49.5c-11.7-28.2-13.9-58.2-11.1-88.4c1.2-13,3.8-25.8,7.8-38.2c1.4-4.4,3.3-10.3,6.3-15.2c-1.2,6.4-2,12.8-2.7,19.2c-2.5,23.6,0.5,47.1,10.5,68.8c9.8,21.1,25.4,38.9,43.8,53.1c14.5,11.2,33.1,21.5,52.4,26.7C380.1,453.4,371.7,460.4,362,464.8z M467.3,385.3c-4.8,21.2-16.2,41.5-37.7,48.9c-18.5,6.4-39.4,1.5-56.8-5.8c-21.1-8.9-40.5-23.3-55.3-40.8c-14.9-17.6-24.5-39-27.1-62c-2.1-18.3,0.5-37.3,4.6-55.2c3.4-15,10.5-41.5,29.6-42c4.1,9,9.8,17.2,17.8,23.6c3.9,3.2,9.1,0.3,9.1-4.6c0-5.6,0.3-11.4-0.8-16.9c0.8-1.2,1-2.8,0.5-4.5c-0.9-2.6-1.8-5.2-2.6-7.8c0.4,0,0.8-0.1,1.3-0.2c25.7-5.7,49.4,9.4,67.4,26.1c18.9,17.5,34.7,38.7,44.1,62.8C471,332,473.3,359.3,467.3,385.3z"/><path d="M184.9 257.4c-2.8 2.8-10.1-.2-12.9-1.4-3.7-1.6-9.6-4.7-9.5-9.4.2-7.1-10.7-6.2-11 .8-.3 9.2 9.1 15.6 16.5 18.8 7.9 3.4 18.5 5.1 25.1-1.6C198.1 259.6 189.8 252.3 184.9 257.4zM361.6 252c-1.1 6.1-9.4 7.7-14.5 9-4.4 1.1-12.1 1.7-14.1 6.6-2.5 6.2 6.2 10.9 9.4 5.9 0 0 0 0 0 0 1.3-.5 2.7-.8 4.1-1.1 3.6-.9 7.1-1.7 10.6-2.9 7.3-2.5 13.8-7.4 15.3-15.4C373.7 247.1 362.9 245 361.6 252z"/></svg>