<svg xmlns="http://www.w3.org/2000/svg"  viewBox="0 0 64 64" width="64px" height="64px"><path fill="#8b8e98" d="M11,9h4a0,0,0,0,1,0,0v8a0,0,0,0,1,0,0H11a4,4,0,0,1-4-4v0A4,4,0,0,1,11,9Z"/><path fill="#8b8e98" d="M55,9h4a0,0,0,0,1,0,0v8a0,0,0,0,1,0,0H55a4,4,0,0,1-4-4v0A4,4,0,0,1,55,9Z" transform="rotate(-180 55 13)"/><path fill="#85cbf8" d="M10,14H53a3,3,0,0,1,3,3V47a3,3,0,0,1-3,3H10a0,0,0,0,1,0,0V14A0,0,0,0,1,10,14Z" transform="rotate(90 33 32)"/><path fill="#96d7f9" d="M15 28.5L15 12 51 40.5 51 54 48.47 55 15 28.5zM18.79 9L51 34.5 51 30 24.47 9 18.79 9zM30.16 9L51 25.5 51 24 32.05 9 30.16 9z"/><path fill="#8b8e98" d="M17 27H63V37H17z" transform="rotate(90 40 32)"/><path fill="#fedaa4" d="M29,45a3,3,0,0,0-1.35-2.5,3,3,0,1,0-3.31,0A3,3,0,1,0,29,45Z"/><path fill="#eb9697" d="M26 37A3 3 0 1 0 26 43A3 3 0 1 0 26 37Z"/><path fill="#a9a7ae" d="M42 10a1 1 0 0 0-1-1H39a1 1 0 1 0 0 2h2A1 1 0 0 0 42 10zM42 15a1 1 0 0 0-1-1H39a1 1 0 1 0 0 2h2A1 1 0 0 0 42 15zM42 20a1 1 0 0 0-1-1H39a1 1 0 0 0 0 2h2A1 1 0 0 0 42 20zM42 25a1 1 0 0 0-1-1H39a1 1 0 0 0 0 2h2A1 1 0 0 0 42 25zM42 31a1 1 0 0 0-1-1H39a1 1 0 0 0 0 2h2A1 1 0 0 0 42 31zM42 36a1 1 0 0 0-1-1H39a1 1 0 1 0 0 2h2A1 1 0 0 0 42 36zM42 41a1 1 0 0 0-1-1H39a1 1 0 1 0 0 2h2A1 1 0 0 0 42 41zM39 45a1 1 0 0 0 0 2h2a1 1 0 1 0 0-2zM42 51a1 1 0 0 0-1-1H39a1 1 0 0 0 0 2h2A1 1 0 0 0 42 51z"/><path fill="#8d6c9f" d="M28 30a1 1 0 0 0 1-1V25a1 1 0 0 0-2 0v4A1 1 0 0 0 28 30zM28 22a1 1 0 0 0 1-1V13a1 1 0 0 0-2 0v8A1 1 0 0 0 28 22zM24 25a1 1 0 0 0 1-1V13a1 1 0 0 0-2 0V24A1 1 0 0 0 24 25zM30 40a4 4 0 1 0-7.12 2.5 4 4 0 1 0 6.24 0A4 4 0 0 0 30 40zm-2.9 3.33a2 2 0 1 1-2.2 0 1 1 0 0 0 0-1.67 2 2 0 1 1 2.2 0 1 1 0 0 0 0 1.67zM45 46a1 1 0 0 0-1 1v4a1 1 0 0 0 2 0V47A1 1 0 0 0 45 46z"/><path fill="#8d6c9f" d="M55,8H11a5,5,0,0,0,0,10h3V53a3,3,0,0,0,3,3H49a3,3,0,0,0,3-3V18h3A5,5,0,0,0,55,8ZM11,16a3,3,0,0,1,0-6h3v6Zm5,37V10H34V54H17A1,1,0,0,1,16,53Zm34,0a1,1,0,0,1-1,1H36V10h8V43a1,1,0,0,0,2,0V10h4Zm5-37H52V10h3a3,3,0,0,1,0,6Z"/></svg>