<svg xmlns="http://www.w3.org/2000/svg"  viewBox="0 0 512 512" width="64px" height="64px"><path fill="#C56528" d="M85.3 168.4c-1.9-20.4-8.3-43.1-2.7-63.4-2 2-4 3.9-6 5.9-3.6 3.4-7.2 6.9-9.4 11.3.5 1.6.3 3.4-1 5-.8.9-.3 7.1-.2 9.2.2 3.9.6 7.8.6 11.8v41.8c0 9.4 0 18.9-.1 28.3 3.2-5 7.5-9.6 10.9-14.6 3.7-5.4 6.4-10.2 7.4-16.8C85.7 180.7 85.9 174.6 85.3 168.4zM200.7 148.4c-8.3 5.3-20.4 2.3-29.9 1.8-.2 4.6-.5 9.3-.6 14-.3 9.3.2 18.6.6 28h27.9c.8 0 1.6.2 2.2.4 0-3.5 0-7 0-10.5C200.8 170.8 201.2 159.5 200.7 148.4zM99.5 442c-.3-15.1-8.2-28.6-14.1-42.1-2.3-5.3-4.6-9.7-9.2-13.3-2.2-1.7-4.5-3.2-6.8-4.8 0 6.6-.2 13.1-.5 19.7-.6 12.3-1.3 24.6-1.5 37 10.4 2.8 21.3 3.9 32.1 4.3C99.5 442.5 99.5 442.2 99.5 442z"/><path fill="#C56528" d="M166.1 418.2c-1.2-8.7-3.3-17.3-3.9-26.1-.5-7.7-.8-15.5-1.1-23.2-3.2 4.5-5.9 9.4-7.3 14.7-1.7 6.1-2.8 12.1-6.1 17.5-6.1 10.2-18.8 12.6-27.4 3.5-8.1-8.5-11.6-19.9-14.8-30.9-3.5-12.1-8-23.9-10-36.4-2.3-14.7-4.2-29.5-6.5-44.2-2.4-15.4-2.1-30.3 1.5-45.5 3.4-14.6 8.1-28.9 12-43.3 2.1-7.6 3.9-15.4 3.8-23.3 0-3.6-.3-7.1-.4-10.7-.1-8.2-.2-19.7 6.1-26 5.7-5.7 14.3-6.5 20.6-1.3 6 4.8 9.3 12.2 12.8 18.8 2.6 4.9 6.2 13.3 12.3 14.3.5.1.9.2 1.3.3-.2-5.9-.2-11.9.1-17.8.6-10.9 2-23-1.9-33.5.5 3.6-3.4 7.9-8 6.2-6.6-2.4-13.9-2-20.5-4.3-6.6-2.3-11.3-7-14.4-13.2-5.9-11.7-8-26-8.1-39 0-3.5 2.7-5.5 5.4-5.7-.6-.5-1.2-1.1-1.8-1.6-6.9 6.7-11 15.8-16.3 23.9 2.9 1 5 4 3.1 7.4-12.3 22-1.4 49.4-.4 72.8.5 11.9-.9 24.7-7.7 34.8-2.8 4.2-6.1 8-9.2 12-2.6 3.3-6.9 8-7.1 12.5-.2 3.6-3.2 5.6-6.1 5.7 0 12.3.1 24.7.4 37 .6 28.2 1.9 56.4 2.5 84.5.1 3.4.1 6.9.2 10.3.4.2.8.4 1.2.7 5.1 3.6 11 6.7 15.4 11.1 4.6 4.6 7.2 9.8 9.8 15.7 6.3 14.3 14.3 28.8 14.6 44.9 0 .7-.1 1.3-.3 1.9 17.8.1 35.6-.9 53.4-2 .7 0 1.4 0 2 .2.1-.1.2-.2.3-.4C169.7 436.6 166.9 423.8 166.1 418.2zM241.3 404.8c-3.2-9.2-8.1-16.5-14.2-23.9-4.6-5.7-8.7-11.7-12.5-17.9.2 13.8.3 27.6-.3 41.4-.6 12.3-1.3 24.6-1.5 37 13.2 3.5 27.2 4.4 40.8 4.6C245.1 434.6 245.8 417.7 241.3 404.8zM284.5 239.7c-.5-11.9-.4-24.1-3.9-35.6-2.5-8.1-7.4-21-17-22.9-8.4-1.7-11.5 10.5-12.6 16.7-4.9 27.5-1.2 55.8-.6 83.5.3.8.4 1.8 0 2.9 0 .9 0 1.8 0 2.8 0 2.1-1 3.7-2.4 4.6-5 16.1-9.4 33.7-5.2 50.2 2.3 9.1 6.4 18.1 13.3 24.6 3.9 3.7 10.7 9.6 15.2 3.4 4.1-5.7 5.3-13.8 6.2-20.6.9-6.5 1.5-13.1 2.2-19.7 1.6-14.7 4.2-29.1 4.8-43.9C285.3 270.4 285.1 255 284.5 239.7zM266.9 299c-2.7 6.6-12.5 1.6-9.9-4.9 6.6-16.2 3.5-36.1 3.4-53.1 0-7.1 11-7.9 11-.8C271.5 259.4 274.3 280.7 266.9 299z"/><path fill="#C56528" d="M160.1 201c-.1-4.9-.3-9.8-.5-14.8-1 .6-2.2.9-3.7.7-11-1.8-16.4-13.7-21.2-22.5-1.7-3.2-10.4-20.6-15-11.9-3.9 7.3-2.7 16.7-2.4 24.7.2 5.7-.3 11.2-1.2 16.7 4.2-5.3 10.5-8.9 17.4-8.9 11.5.1 20.3 6.9 26.5 16.2C160.1 201.2 160.1 201.1 160.1 201zM55.6 154c-6.7-.2-16.4-1.9-22.1 2-6.1 4.1-4 16.2-3.5 22.5.3 4 .5 7.9.5 11.9 0 3.5-.2 7.7 1.2 11 .8 1.8 8.1-1 10.5-1.1 3.4-.2 7.5.4 11.1-.1.5-.9 1.3-1.6 2.2-2.1 0-6.3 0-12.6 0-18.9C55.5 170.7 55.7 162.3 55.6 154zM160.4 336.1c-4.7 9.2-14.1 16.8-24.8 12.3-10.1-4.2-18.2-15.9-22.9-25.3-5.7-11.5-7.4-24.7-6.9-37.5.3-6.6.4-13.7 1.8-20.2 1.6-7.1 3.8-14.5 3.9-21.8.1-8-.4-15.7-.9-23.7-.1-1-.1-2.1-.2-3.1-4.3 14.2-8.9 28.8-11 43.6-2.3 15.8.7 30.8 3.3 46.4 2.4 14.3 2.7 29.1 7 43.1 3.4 11.3 6.5 23.1 10.9 34.1 2 5 4.8 12 10 14.6 4.8 2.4 7.6-1.6 9.4-5.8 2.5-5.8 3.1-12.2 5.6-18.1 2.4-5.7 5.8-10.9 9.5-15.8 1.7-2.2 4-2.4 5.9-1.5C160.6 350.3 160.5 343.2 160.4 336.1zM58.2 355.3c-.2-8.1-.4-16.2-.7-24.3 0 0-.1 0-.1 0-6.7 0-16.3-1.5-22.2 2.3-5.2 3.4-4.9 10.7-4.8 16.5.7.8 1.1 1.9 1 3.3-.1 7.6-2.6 16.3-.3 23.8 1.3 4.3 5.6 3.9 9.6 4.2 5.9.4 11.8 0 17.7 0C58.5 372.5 58.4 363.9 58.2 355.3zM156.4 120.5c-5.4-10.7-15.7-19-23.1-28.3-4.9-6.3-10.1-12.3-15.8-17.9.1 11.1 1.3 24.6 6.8 34.4 3.1 5.6 7 8.1 13.3 9.2 5.8 1 11.4 1.6 16.9 3.6 1.1.4 1.8 1 2.3 1.6C156.3 122.3 156.2 121.3 156.4 120.5zM156.4 246.7c-4.9-3.7-9.6-5.6-12.5.9-2.5 5.7-3.1 12.4-2.5 18.5.3 3.7.3 7.2.3 10.9 0 1.9-.6 6.8 1.1 8.2 2.1 1.7 6.8 1 8.5-.9 2.4-2.6 3.6-5.9 4.8-9.2.9-2.3 2.6-3.2 4.4-3.1 0-8 0-16.1 0-24.1C159.2 248 157.7 247.7 156.4 246.7z"/><path fill="#C56528" d="M160.4 290.7c-1.2 1.5-2.7 2.9-4.4 3.8-5.1 2.6-11.6 3.8-17 1.3-10.7-5-7.7-18.2-8.6-27.7-.9-9.7 0-21.5 6.2-29.6 6.3-8.2 15.2-7.2 22.9-2.8-.2-9.4-3.1-19.3-8.1-27.3-4.1-6.5-10.5-13.6-19-12.1-8.4 1.4-11.3 9.8-11.1 17.4.3 11.4 2.1 22.6.9 34.1-1.2 11.4-4.5 22.3-5.2 33.9-.6 9.7-.4 20 2.7 29.4 2.9 8.8 8.4 18.1 15.6 24.2 3.2 2.7 7.1 5.1 10.9 2 3.6-2.9 5.6-7.3 6.5-11.7.8-4.1 4.8-5 7.8-3.8 0-8.5 0-17.1 0-25.6C160.4 294.3 160.4 292.5 160.4 290.7zM203.5 358.2c-.2-8.4-.4-16.9-.7-25.3-.7 0-1.4-.1-2.2-.4-3.9-1.6-9-.5-13.1-.4-2.3 0-4.6.2-6.9.2-2.6 0-6.1.3-9.1-.4.1 7.4.1 14.9.3 22.3.2 8.2.1 16.6.4 24.9 10.3-.1 20.7-.9 30.9 1.1.3.1.5.1.8.2C203.8 373 203.6 365.6 203.5 358.2zM434.5 334c-5.7-32-14.7-63.2-21.5-94.9-3.3-15.6-5.8-31.4-6.3-47.4-.3-8 .1-16-.6-23.9-.4-3.9-.8-7.9-2.3-11.6-.4-.9-.8-2.2-1.5-2.8-.7-.7-.4-.7-1.3-.6-1.7.3-3.9 5-4.7 6.7-1.9 4.1-3.5 8.3-4.9 12.6-2.6 7.8-4.3 16.7-8.3 24-6.3 11.3-16.2 21.5-18.5 34.6-.4 2.4-1.9 3.7-3.7 4.1 0 6.4 0 12.7.1 19.1 3.5-5.2 8.4-9.5 14.8-10.1 12.9-1.3 19.7 11.7 23.5 22 4.2 11.1 7.5 22.5 11.7 33.6 5.3 13.8 9.1 29 9.9 43.8.6 12.9-1.5 32.1-17 35.4-7.1 1.5-15.6 1.1-22.8.8-5.5-.2-13.3-.7-17.1-4.9 0 6 0 12-.2 18 1.4.1 2.9.8 4 2.2 5.2 6.6 9.7 13.7 14.2 20.7 2.2 3.4 4.4 6.9 6.8 10.3 1.7 2.4 3.8 5.8 6.7 6.9 1.8.7 5-6.7 5.5-7.8 2.6-5.4 4.6-10.9 8.4-15.6 8-10.2 20.9-17.3 25.3-30C439.2 364.5 437.1 348.7 434.5 334zM383.6 436.8c-8.1-8.9-13.8-19.9-20.6-29.9-.5 10.5-1.1 21-1.2 31.5 10.1 2.7 20.7 3.9 31.2 4.3C389.7 442 386.4 439.9 383.6 436.8z"/><path fill="#C56528" d="M384.3,322.7c-1.7-9-4.5-18.5-8.1-27c-0.3-0.7-2.6-6.5-3.6-6.3c-2.3,0.4-4.7,5.8-5.6,7.5c-1.2,2.2-3.2,3-5.1,2.8c0.3,8.6,0.6,17.3,0.9,25.9c2.2-1.1,5.1-0.9,6.9,1.7c2.1,3,2.3,5.8,3.2,9.1c0.9,3.2,5.4,4.7,8.4,5.2C388,342.9,385,326.4,384.3,322.7z"/><path fill="#C56528" d="M460.4 418.2c-1.2-8.7-3.3-17.3-3.9-26.1-2-31.9-2-64-1.9-96 .1-31.7.3-63.4-.3-95.1-.3-14.1-1.4-28.2-.7-42.4.6-11.6 2.2-24.4-2.6-35.3-.5-1-.6-2-.4-2.9-4.3-8.5-11.7-15.5-18.2-22.6-.1 10.2-.3 20.5-.4 30.7-.1 11.3-.6 23.1 1.1 34.3 1.4 8.9 5.1 16.8 9 24.9 4.2 8.6 6.9 17.7 9 27 1.6 6.8-8.8 10.5-10.4 3.6-2.4-10.5-5.8-20.3-10.5-30-3.8-7.9-6.9-15.9-8.1-24.6-3.1-22.9-.7-46.7-.7-69.7 0-2.6 1.5-4.3 3.3-5.2-6.2-7.6-12.9-14.8-20.4-21.1-8.5 8.2-12.8 20.4-20.3 29.5-4.1 5-8.6 9.3-13.3 13.7-3.6 3.4-7.2 6.9-9.4 11.3.5 1.6.3 3.4-1 5-.8.9-.3 7.1-.2 9.2.2 3.9.6 7.8.6 11.8v41.8c0 7 0 13.9 0 20.9 5.4-9.1 12.2-17.5 15.5-27.8 2.3-7.1 4.4-14.3 7-21.3 2.2-5.7 4.7-12.1 9.3-16.4 4.4-4.1 10.9-4.9 15.8-1.1 4.6 3.5 6.3 9.5 7.4 14.9 2.6 12.9 1.2 26.3 2.2 39.4 2.5 32.5 11.8 63.9 19.2 95.5 3.5 15.1 7 30.2 9.3 45.5 2.1 13.7 2.7 28-1.4 41.4-3.8 12.6-13.1 19.9-22 28.9-4.6 4.6-7.8 9.2-10.5 15.1-2 4.3-3.9 8.8-6.8 12.6-2.5 3.3-5.4 5-8.5 5.5 2 .1 4 .1 6 .1 18.2.2 36.3-.8 54.5-2 .7 0 1.4 0 2 .2.1-.1.2-.2.3-.4C464 436.6 461.2 423.8 460.4 418.2zM477.6 337.4c-3.8-2.1-8.2-3.4-11.9-5.8.1 7.5.1 15 .3 22.6.2 7.5.1 15.2.4 22.8 2.3-.4 4.5-.6 6.8-.9 1.3-.2 5.6-.3 6.4-1.7 2.5-4.8 2.9-11.2 3-16.6C482.5 351.9 483.6 340.7 477.6 337.4zM481.5 153.6c0-1.6.9-6.7-.8-7.7-4.3-2.3-10.6-3.6-15.5-3.8 0 7.3-.5 14.6-.7 22-.3 9.2.2 18.4.6 27.6 4.7-1.8 10.6-1.8 15.7-1.7C483 178 481.4 165.8 481.5 153.6z"/><path fill="#C56528" d="M408.2 331.2c-2.3-13.3-7.3-25.2-11.6-37.9-3.6-10.6-5.9-22.5-11.7-32.2-2-3.3-5.6-8.6-10.1-5.8-4.1 2.6-6.9 6.8-8.4 11.3-.9 2.6-3.1 3.9-5.4 4.1 0 1.1 0 2.1.1 3.2.1 3.8.2 7.6.3 11.4 2.2-2.8 4.8-5.2 8.2-6.4 4.9-1.6 9.9 1.2 12.8 5.2 3.8 5.4 5.7 11.9 7.7 18.1 2.3 7 4.4 14.1 5.5 21.3 1.6 10.4 1.9 29.3-12.8 29.5-5.8.1-12.7-2.9-16.8-6.8-1.5-1.4-2.2-3-2.7-4.7.2 5.6.3 11.3.4 16.9 0 1.9.1 3.9.1 5.8 2.8-1.9 7.6-1.1 8.7 2.9.2.1.5.2 1.1.4 1.8.4 3.6.7 5.5.8 3.7.1 7.5 0 11.2-.1 4.5-.2 11 1.3 14.5-2.2C412.8 357.7 410 341.4 408.2 331.2zM311.4 421.1c-1.2-8.4-3.2-16.8-3.8-25.2-5.7 8.4-12.2 16.2-16 25.7-2.2 5.7-3.5 11.7-6 17.3-.9 2.1-2.1 4.4-3.6 6.5 8.9-.4 17.8-.9 26.7-1.5.7 0 1.4 0 2 .2.1-.1.2-.2.3-.4C315 439.6 312.2 426.7 311.4 421.1zM349.8 148c-.7.5-1.6.8-2.5.8-.5 0-1 .1-1.3.2-.7.2-.6.1 0 0 .2-.1.5-.2.8-.3-2.3.9-4.2.3-5.5-1.1-8.4-.3-16.8.3-25.2.4-.1 6.3-.6 12.6-.7 19-.2 7 0 14 .3 21 11.3-.1 22.9-1.1 33.7 2.6.1 0 .2.1.4.1 0-3.9 0-7.8 0-11.7C349.8 168.7 350.1 158.4 349.8 148zM305.7 299c.1-31.7.3-63.4-.3-95.1-.3-14.1-1.4-28.2-.7-42.4.6-11.6 2.2-24.4-2.6-35.3-.5-1-.6-2-.4-2.9-5.4-10.7-15.7-19-23.1-28.3-7-8.9-14.5-17.3-23.2-24.6-8.5 8.2-12.8 20.4-20.3 29.5-4.1 5-8.6 9.3-13.3 13.7-3.6 3.4-7.2 6.9-9.4 11.3.5 1.6.3 3.4-1 5-.8.9-.3 7.1-.2 9.2.2 3.9.6 7.8.6 11.8v41.8c0 6.2 0 12.4 0 18.5 1.1-4.2 2.2-8.5 3.1-12.8 2.5-12 3.2-24.2 4.9-36.4 1.6-11.2 4.1-22.5 8.5-33 3.1-7.4 6.6-15.8 12.6-21.4 6.4-6 14.6-4.1 17.5 4.2 1.3 3.9 2 7.5 4.2 11.1 2.7 4.2 5.9 7.9 9.5 11.2 7.2 6.6 16.2 12.5 21.1 21.1 5.3 9.3 4.5 20.5 9.3 29.9 3.2 6.2-5.9 12.5-9.1 6.2-4.4-8.6-4.7-18-8.1-26.9-3.3-8.8-11.6-14.1-18.4-20.1-6.7-5.9-12.7-12.5-16.5-20.7-1.1-2.5-1.5-5.3-2.4-7.8-.2.2-.4.4-.6.6-1 1.2-1.9 2.3-2.7 3.7-9.8 16.5-13.5 35.4-15.5 54.3-1.2 11.4-2.6 22.5-5.4 33.6-2.7 10.9-6.1 21.6-9.5 32.3-.5 1.6-1.5 2.7-2.7 3.3 0 11 .1 21.9.4 32.8.5 23.1 1.5 46.1 2.1 69.2 1.6-.1 3.3.6 4.4 2.5 5.4 9 10.8 18.2 17.7 26.3 5.5 6.5 10.3 13.3 13.5 21.1 3 7.3 4.8 15 6.3 22.8 1.2 6 2.1 12.3 4.7 17.9 1.6 3.3 5.7 8.2 9.9 5.2 4-2.9 5.8-8.7 7.3-13.2 1.9-5.8 3.4-11.7 6.3-17.1 4.4-8.4 10.4-15.8 15.7-23.6 2-3 5.2-2.5 7.3-.6C305.6 357.9 305.6 328.5 305.7 299zM295.9 275.7c-.4 14.9-1.3 30-3.6 44.7-2.2 13.5-2.3 27.5-5.8 40.8-2.7 10.3-8.4 24.1-21.6 22.3-11-1.5-20.4-11.9-25.5-21.1-14.2-25.6-8.4-53.1 0-79.5-.3-17.1-1.7-34.1-1.7-51.2 0-14.6-.1-30.7 4.9-44.7 3.8-10.4 12.2-19.7 24.2-16.4 11.8 3.3 19.2 15.2 23 26.1 3.7 10.8 4.7 21.7 5.2 33C295.8 245.1 296.3 260.4 295.9 275.7zM352.5 355.3c-.2-8.1-.4-16.1-.7-24.2-11.8.5-23.3 3.2-35.1 2.9.1 7.7.1 15.3.3 23 .2 7.9.1 16 .4 24 .1 0 .1 0 .2 0 5.5 0 10.9.5 16.4.6 3.2.1 9.9.7 12-.7 2.6-1.6 5.2-.8 6.9.9C352.8 373 352.7 364.1 352.5 355.3z"/><path fill="#231F20" d="M346,149C345.4,149.2,345.3,149.3,346,149L346,149z"/><path fill="#231F20" d="M488.5,332.7c-2.1-3.3-5.7-5.1-9.1-6.8c-1.7-0.9-3.5-1.6-5.3-2.4c-0.5-0.2-3.6-1.9-2.5-1.1c-2-1.5-4.2-1.4-6-0.5c0-5.6,0-11.2,0-16.8c0.1-32.4,0.3-64.7-0.1-97.1c0-1.3-0.1-2.6-0.1-3.9c0.5-0.2,1.1-0.5,1.6-1c2-1.6,5.3-1.5,7.7-1.8c3.5-0.3,7.1-0.3,10.6-0.3c2.6,0,4.3-2.2,5-4.4c2.4-8.3,2.7-16.8,2.5-25.4c-0.1-8-0.1-16.1-0.5-24c-0.6-13.1-17.5-15.6-28-16.1c-0.2-1.7-0.5-3.3-0.9-5c-0.3-1.5-0.8-3-1.3-4.4c1-2.2,0.9-4.9-1.2-6.4c-0.4-0.3-0.8-0.6-1.1-0.9c-0.1-0.1-0.2-0.2-0.3-0.2c-5.8-10-14.8-17.6-21.8-26.7c-8.8-11.4-18.4-22.3-29.9-31c-1.9-1.4-4.7-2-6.7-0.4c-11.2,8.6-16.3,21.8-24.5,32.8c-7.9,10.7-21.9,18.2-26.3,31.3c-0.4,1.2-0.4,2.3-0.2,3.3c-1.6,4.2-1.4,9.3-1.1,14c-0.3-0.1-0.7-0.2-1.1-0.2c-10.7-1-21.5-0.2-32.2-0.1c-0.2-2.7-0.6-5.4-1.2-8c-0.3-1.5-0.8-3-1.3-4.4c1-2.2,0.9-4.9-1.2-6.4c-0.4-0.3-0.8-0.6-1.1-0.9c-0.1-0.1-0.2-0.2-0.3-0.2c-5.8-10-14.8-17.6-21.8-26.7c-8.8-11.4-18.4-22.3-29.9-31c-1.9-1.4-4.7-2-6.7-0.4c-11.2,8.6-16.3,21.8-24.5,32.8c-7.9,10.7-21.9,18.2-26.3,31.3c-0.4,1.2-0.4,2.3-0.2,3.3c-1.4,3.6-1.4,7.9-1.2,12.1c-1.5-0.7-3.3-0.7-5.1,0.5c-3.2,2.2-9.3,1.2-12.9,1c-3.7-0.2-7.5-0.6-11.2-0.8c-0.1-4.4-0.6-8.7-1.5-13.1c-0.3-1.5-0.8-3-1.3-4.4c1-2.2,0.9-4.9-1.2-6.4c-0.4-0.3-0.8-0.6-1.1-0.9c-0.1-0.1-0.2-0.2-0.3-0.2c-5.8-10-14.8-17.6-21.8-26.7c-8.8-11.4-18.4-22.3-29.9-31c-1.9-1.4-4.7-2-6.7-0.4c-11.2,8.6-16.3,21.8-24.5,32.8c-7.9,10.7-21.9,18.2-26.3,31.3c-0.4,1.2-0.4,2.3-0.2,3.3c-2.2,5.9-1,13.8-0.7,19.6c-10-0.1-21.5-1.6-29.7,5.2c-8.6,7.1-7.1,21.1-6.5,31.1c0.6,8.8-1.6,22.1,4.4,29.3c4.2,5.1,10.9,4.4,16.6,3.1c5-1.2,10.4-0.3,15.4-1c0,18.7-0.1,37.3,0.2,56c0.3,17.8,0.9,35.5,1.5,53.3c-0.2,0-0.4,0-0.6,0c-9.8-0.1-20-0.7-28.7,4.9c-9.1,5.9-8.5,18.6-8.4,28c0,1.2,0.4,2.2,0.9,3c-0.2,3.4-0.7,8.2-0.9,11.7c-0.2,5.6,0.1,11.7,2.8,16.6c3,5.6,9.1,6.8,15,7.5c7,0.7,14,0.4,21,0.3c0,2.1-0.1,4.3-0.2,6.4c-0.5,14.8-1.6,29.7-1.7,44.5c0,2.6,2.2,4.3,4.4,5c15.2,4.9,31.6,5.7,47.5,6c18.7,0.4,37.4-0.8,56-2c2-0.1,3.3-1.1,4.1-2.3c1.8,0.6,3.9,0.3,5.6-1.5c5.4-6.1,4.5-16.1,3.8-23.6c-0.8-9-2.7-17.9-4.1-26.9c-0.4-2.5-0.7-5.1-1-7.6c9.4-0.1,18.8-0.9,28.1,0.9c1,0.2,2,0.1,2.8-0.1c-0.1,3.5-0.1,7.1-0.3,10.6c-0.5,14.8-1.6,29.7-1.7,44.5c0,2.6,2.2,4.3,4.4,5c15.2,4.9,31.6,5.7,47.5,6c18.7,0.4,37.4-0.8,56-2c2-0.1,3.3-1.1,4.1-2.3c1.8,0.6,3.9,0.3,5.6-1.5c5.4-6.1,4.5-16.1,3.8-23.6c-0.8-9-2.7-17.9-4.1-26.9c-0.5-2.8-0.8-5.7-1.1-8.6c0.1,0,0.2,0,0.3,0c5.9,0,11.8,0.5,17.6,0.6c5.2,0.1,11.4,0.3,16-2.6c0.2-0.1,0.4-0.3,0.6-0.5c-0.1,2.9-0.1,5.9-0.2,8.8c-0.5,14.8-1.6,29.7-1.7,44.5c0,2.6,2.2,4.3,4.4,5c15.2,4.9,31.6,5.7,47.5,6c18.7,0.4,37.4-0.8,56-2c2-0.1,3.3-1.1,4.1-2.3c1.8,0.6,3.9,0.3,5.6-1.5c5.4-6.1,4.5-16.1,3.8-23.6c-0.8-9-2.7-17.9-4.1-26.9c-0.5-3.2-0.9-6.5-1.2-9.8c0.3,0,0.6-0.1,0.8-0.1c7.1-1.5,14.1-0.8,19.8-6c5.2-4.7,5.4-15.6,5.7-22.1C493.8,350.4,493.6,340.7,488.5,332.7z M55.5,179c0,6.3,0,12.6,0,18.9c-0.9,0.5-1.7,1.2-2.2,2.1c-3.6,0.5-7.7-0.1-11.1,0.1c-2.4,0.2-9.7,3-10.5,1.1c-1.4-3.3-1.2-7.5-1.2-11c-0.1-4-0.2-7.9-0.5-11.9c-0.4-6.3-2.6-18.3,3.5-22.5c5.7-3.9,15.4-2.2,22.1-2C55.7,162.3,55.5,170.7,55.5,179z M40.8,381.1c-4.1-0.3-8.3,0.1-9.6-4.2c-2.3-7.5,0.1-16.1,0.3-23.8c0-1.4-0.4-2.5-1-3.3c-0.2-5.8-0.5-13.1,4.8-16.5c5.9-3.9,15.5-2.4,22.2-2.3c0,0,0.1,0,0.1,0c0.3,8.1,0.5,16.2,0.7,24.3c0.2,8.6,0.3,17.2,0.3,25.8C52.6,381.1,46.7,381.4,40.8,381.1z M112.7,323.1c4.7,9.5,12.8,21.1,22.9,25.3c10.7,4.5,20.2-3.1,24.8-12.3c0.1,7.1,0.2,14.2,0.4,21.3c-1.9-0.9-4.2-0.7-5.9,1.5c-3.8,4.9-7.1,10.1-9.5,15.8c-2.5,5.9-3.1,12.3-5.6,18.1c-1.8,4.2-4.6,8.2-9.4,5.8c-5.2-2.6-8-9.5-10-14.6c-4.4-11-7.4-22.8-10.9-34.1c-4.3-14-4.6-28.7-7-43.1c-2.6-15.6-5.5-30.5-3.3-46.4c2.1-14.7,6.7-29.4,11-43.6c0,1,0.1,2.1,0.2,3.1c0.5,8,1.1,15.7,0.9,23.7c-0.1,7.3-2.3,14.7-3.9,21.8c-1.4,6.5-1.6,13.6-1.8,20.2C105.2,298.4,107,311.6,112.7,323.1z M117.4,177.2c-0.3-8-1.5-17.4,2.4-24.7c4.6-8.6,13.3,8.7,15,11.9c4.7,8.8,10.1,20.7,21.2,22.5c1.5,0.2,2.7,0,3.7-0.7c0.2,4.9,0.4,9.8,0.5,14.8c0,0.1,0,0.1,0,0.2c-6.2-9.3-15-16-26.5-16.2c-6.9-0.1-13.2,3.6-17.4,8.9C117.1,188.4,117.6,182.9,117.4,177.2z M130.4,268c0.9,9.5-2.2,22.7,8.6,27.7c5.4,2.5,12,1.3,17-1.3c1.7-0.9,3.2-2.2,4.4-3.8c0,1.8,0,3.6,0,5.4c0,8.5-0.1,17.1,0,25.6c-2.9-1.3-6.9-0.3-7.8,3.8c-0.9,4.4-3,8.8-6.5,11.7c-3.8,3.1-7.7,0.7-10.9-2c-7.1-6.1-12.7-15.4-15.6-24.2c-3.1-9.3-3.3-19.7-2.7-29.4c0.7-11.5,4-22.4,5.2-33.9c1.2-11.5-0.6-22.7-0.9-34.1c-0.2-7.6,2.6-16,11.1-17.4c8.6-1.4,14.9,5.6,19,12.1c5,8,7.9,17.9,8.1,27.3c-7.7-4.4-16.7-5.4-22.9,2.8C130.4,246.5,129.5,258.3,130.4,268z M160.5,272c-1.8-0.1-3.6,0.8-4.4,3.1c-1.2,3.3-2.5,6.6-4.8,9.2c-1.8,2-6.5,2.6-8.5,0.9c-1.7-1.4-1.1-6.3-1.1-8.2c0-3.7,0-7.2-0.3-10.9c-0.6-6.1,0-12.8,2.5-18.5c2.9-6.5,7.7-4.7,12.5-0.9c1.4,1,2.8,1.3,4.2,1.2C160.5,255.9,160.5,263.9,160.5,272z M133.3,92.2c7.3,9.3,17.7,17.6,23.1,28.3c-0.1,0.8,0,1.8,0.4,2.8c-0.5-0.7-1.3-1.3-2.3-1.6c-5.5-2-11.1-2.7-16.9-3.6c-6.3-1-10.2-3.6-13.3-9.2c-5.4-9.9-6.7-23.3-6.8-34.4C123.2,79.9,128.4,86,133.3,92.2z M66.1,127.2c1.3-1.6,1.5-3.4,1-5c2.3-4.4,5.9-7.9,9.4-11.3c2-2,4-3.9,6-5.9c-5.7,20.3,0.8,43,2.7,63.4c0.6,6.2,0.5,12.3-0.5,18.5c-1.1,6.6-3.7,11.4-7.4,16.8c-3.4,4.9-7.7,9.5-10.9,14.6c0-9.4,0.1-18.9,0.1-28.3v-41.8c0-3.9-0.4-7.9-0.6-11.8C65.8,134.3,65.4,128.1,66.1,127.2z M67.5,438.4c0.2-12.3,0.9-24.7,1.5-37c0.3-6.6,0.4-13.1,0.5-19.7c2.3,1.5,4.6,3.1,6.8,4.8c4.6,3.5,6.9,8,9.2,13.3c5.9,13.5,13.7,27,14.1,42.1c0,0.3,0,0.6,0.1,0.8C88.8,442.4,77.9,441.2,67.5,438.4z M165.9,440.9c-0.1,0.1-0.2,0.2-0.3,0.4c-0.6-0.2-1.3-0.3-2-0.2c-17.8,1.1-35.5,2.1-53.4,2c0.2-0.6,0.3-1.2,0.3-1.9c-0.3-16.1-8.3-30.5-14.6-44.9c-2.6-5.9-5.2-11.1-9.8-15.7c-4.5-4.4-10.3-7.5-15.4-11.1c-0.4-0.3-0.8-0.5-1.2-0.7c0-3.4-0.1-6.9-0.2-10.3c-0.5-28.2-1.9-56.4-2.5-84.5c-0.3-12.3-0.3-24.7-0.4-37c2.8-0.1,5.9-2.1,6.1-5.7c0.2-4.5,4.6-9.2,7.1-12.5c3.1-4,6.4-7.9,9.2-12c6.8-10.1,8.3-22.9,7.7-34.8c-1-23.4-11.9-50.8,0.4-72.8c1.9-3.4-0.2-6.4-3.1-7.4c5.3-8.1,9.4-17.3,16.3-23.9c0.6,0.5,1.2,1,1.8,1.6c-2.7,0.2-5.4,2.2-5.4,5.7c0.1,13,2.2,27.3,8.1,39c3.1,6.2,7.8,10.9,14.4,13.2c6.7,2.3,13.9,1.9,20.5,4.3c4.6,1.7,8.5-2.6,8-6.2c3.9,10.5,2.4,22.5,1.9,33.5c-0.3,5.9-0.3,11.9-0.1,17.8c-0.4-0.2-0.8-0.3-1.3-0.3c-6.1-1-9.7-9.5-12.3-14.3c-3.6-6.6-6.9-14-12.8-18.8c-6.4-5.2-14.9-4.4-20.6,1.3c-6.3,6.3-6.2,17.8-6.1,26c0,3.6,0.3,7.1,0.4,10.7c0.1,7.9-1.8,15.7-3.8,23.3c-3.9,14.5-8.6,28.7-12,43.3c-3.5,15.2-3.9,30.1-1.5,45.5c2.3,14.7,4.1,29.5,6.5,44.2c2,12.5,6.5,24.3,10,36.4c3.2,11,6.7,22.4,14.8,30.9c8.6,9.1,21.3,6.7,27.4-3.5c3.3-5.5,4.4-11.5,6.1-17.5c1.5-5.4,4.2-10.2,7.3-14.7c0.3,7.7,0.6,15.5,1.1,23.2c0.5,8.8,2.6,17.4,3.9,26.1C166.9,423.8,169.7,436.6,165.9,440.9z M170.1,164.1c0.1-4.7,0.4-9.3,0.6-14c9.6,0.6,21.7,3.6,29.9-1.8c0.5,11.2,0.1,22.4,0.1,33.6c0,3.5,0,7,0,10.5c-0.7-0.3-1.4-0.4-2.2-0.4h-27.9C170.3,182.7,169.9,173.4,170.1,164.1z M171.2,208c0-1.6-0.1-3.3-0.1-4.9h28.3c0.5,0,0.9-0.1,1.4-0.2c-0.1,22.3-0.1,44.6,0.2,66.9c0.3,17.3,0.9,34.6,1.4,51.9c-5.3-1.3-10.8-0.6-16.3-0.6c-2.1,0-4.3,0.2-6.4,0.2c-1.4,0-2.9,0-4.3,0c-0.4,0-0.6,0-0.9-0.1c-0.9-0.7-2-1.1-3.1-1.1c0-5,0-10.1,0-15.1C171.4,272.7,171.7,240.3,171.2,208z M203,380.1c-10.2-2-20.6-1.2-30.9-1.1c-0.3-8.3-0.3-16.8-0.4-24.9c-0.2-7.4-0.3-14.9-0.3-22.3c3,0.7,6.5,0.5,9.1,0.4c2.3,0,4.6-0.2,6.9-0.2c4.1-0.1,9.2-1.2,13.1,0.4c0.8,0.3,1.5,0.4,2.2,0.4c0.3,8.4,0.5,16.9,0.7,25.3c0.2,7.4,0.3,14.8,0.3,22.1C203.5,380.3,203.3,380.2,203,380.1z M212.8,441.4c0.2-12.3,0.9-24.7,1.5-37c0.6-13.8,0.5-27.6,0.3-41.4c3.9,6.2,7.9,12.2,12.5,17.9c6.1,7.5,11.1,14.7,14.2,23.9c4.4,12.9,3.8,29.8,12.3,41.2C240,445.8,226,444.9,212.8,441.4z M270.6,441.8c-4.1,3-8.3-1.9-9.9-5.2c-2.6-5.6-3.6-11.9-4.7-17.9c-1.5-7.8-3.3-15.5-6.3-22.8c-3.2-7.9-8-14.7-13.5-21.1c-6.8-8.1-12.2-17.2-17.7-26.3c-1.1-1.9-2.8-2.6-4.4-2.5c-0.6-23.1-1.6-46.1-2.1-69.2c-0.2-10.9-0.3-21.9-0.4-32.8c1.2-0.7,2.2-1.7,2.7-3.3c3.4-10.7,6.7-21.4,9.5-32.3c2.8-11.1,4.2-22.2,5.4-33.6c2-18.9,5.7-37.8,15.5-54.3c0.8-1.3,1.7-2.5,2.7-3.7c0.2-0.2,0.4-0.4,0.6-0.6c0.9,2.6,1.3,5.3,2.4,7.8c3.8,8.2,9.8,14.8,16.5,20.7c6.8,6,15,11.3,18.4,20.1c3.4,8.9,3.7,18.3,8.1,26.9c3.2,6.3,12.3,0.1,9.1-6.2c-4.8-9.4-4-20.7-9.3-29.9c-4.9-8.6-13.9-14.5-21.1-21.1c-3.7-3.4-6.9-7-9.5-11.2c-2.3-3.6-2.9-7.2-4.2-11.1c-2.9-8.4-11.1-10.2-17.5-4.2c-6,5.6-9.4,14-12.6,21.4c-4.5,10.5-6.9,21.7-8.5,33c-1.7,12.1-2.4,24.3-4.9,36.4c-0.9,4.3-1.9,8.6-3.1,12.8c0-6.2,0-12.4,0-18.5V151c0-3.9-0.4-7.9-0.6-11.8c-0.1-2-0.5-8.2,0.2-9.2c1.3-1.6,1.5-3.4,1-5c2.3-4.4,5.9-7.9,9.4-11.3c4.6-4.5,9.2-8.8,13.3-13.7c7.5-9.1,11.7-21.2,20.3-29.5c8.7,7.2,16.2,15.7,23.2,24.6c7.3,9.3,17.7,17.6,23.1,28.3c-0.1,0.9,0,1.8,0.4,2.9c4.8,10.9,3.2,23.7,2.6,35.3c-0.7,14.1,0.4,28.2,0.7,42.4c0.6,31.7,0.4,63.4,0.3,95.1c-0.1,29.4-0.1,58.9,1.4,88.3c-2.1-2-5.2-2.5-7.3,0.6c-5.3,7.8-11.3,15.2-15.7,23.6c-2.9,5.4-4.4,11.3-6.3,17.1C276.4,433.1,274.6,438.9,270.6,441.8z M311.2,443.8c-0.1,0.1-0.2,0.2-0.3,0.4c-0.6-0.2-1.3-0.3-2-0.2c-8.9,0.6-17.8,1.1-26.7,1.5c1.4-2.1,2.6-4.4,3.6-6.5c2.5-5.6,3.7-11.6,6-17.3c3.8-9.5,10.3-17.4,16-25.7c0.6,8.5,2.6,16.8,3.8,25.2C312.2,426.7,315,439.6,311.2,443.8z M315.4,167c0.2-6.4,0.6-12.7,0.7-19c8.4-0.1,16.8-0.7,25.2-0.4c1.3,1.4,3.2,2,5.5,1.1c-0.4,0.1-0.6,0.2-0.8,0.3c0.3-0.1,0.8-0.2,1.3-0.2c0.9,0,1.8-0.3,2.5-0.8c0.4,10.3,0,20.7,0,31c0,3.9,0,7.8,0,11.7c-0.1,0-0.2-0.1-0.4-0.1c-10.8-3.7-22.5-2.6-33.7-2.6C315.4,181,315.2,174,315.4,167z M316.5,210.9c-0.1-4-0.2-7.9-0.4-11.9c0.1,0,0.2,0,0.2,0c9,0,19.4-1.5,28.1,1.4c2,0.7,3.8,0.3,5.2-0.7c-0.1,22.3-0.1,44.7,0.2,67c0.3,17.8,0.9,35.6,1.5,53.3c-11.6,0.5-23.1,3.6-34.8,3c0-5.1,0-10.1,0-15.2C316.7,275.6,317,243.3,316.5,210.9z M345.9,381c-2.1,1.3-8.8,0.7-12,0.7c-5.5-0.1-10.9-0.6-16.4-0.6c-0.1,0-0.1,0-0.2,0c-0.3-8-0.2-16.1-0.4-24c-0.2-7.7-0.3-15.3-0.3-23c11.8,0.2,23.3-2.4,35.1-2.9c0.3,8.1,0.5,16.1,0.7,24.2c0.2,8.9,0.4,17.7,0.3,26.6C351.1,380.1,348.5,379.3,345.9,381z M361.1,273.8c0-1.1,0-2.1-0.1-3.2c2.2-0.1,4.5-1.4,5.4-4.1c1.5-4.6,4.3-8.7,8.4-11.3c4.5-2.8,8.2,2.5,10.1,5.8c5.8,9.7,8.1,21.6,11.7,32.2c4.3,12.7,9.3,24.6,11.6,37.9c1.8,10.2,4.6,26.6-3.7,34.8c-3.5,3.5-10,2-14.5,2.2c-3.7,0.1-7.5,0.2-11.2,0.1c-1.8-0.1-3.7-0.4-5.5-0.8c-0.6-0.1-0.9-0.3-1.1-0.4c-1-4-5.8-4.8-8.7-2.9c0-1.9-0.1-3.9-0.1-5.8c-0.1-5.6-0.3-11.3-0.4-16.9c0.5,1.7,1.2,3.3,2.7,4.7c4.2,3.9,11,6.9,16.8,6.8c14.7-0.2,14.4-19.1,12.8-29.5c-1.1-7.3-3.3-14.4-5.5-21.3c-2-6.2-3.8-12.7-7.7-18.1c-2.8-4-7.8-6.8-12.8-5.2c-3.4,1.1-6.1,3.5-8.2,6.4C361.2,281.4,361.1,277.6,361.1,273.8z M366.9,297c0.9-1.7,3.3-7.1,5.6-7.5c1-0.2,3.3,5.6,3.6,6.3c3.5,8.5,6.3,18,8.1,27c0.7,3.7,3.7,20.2-3.1,19.1c-3-0.5-7.5-2.1-8.4-5.2c-1-3.3-1.2-6.2-3.2-9.1c-1.8-2.6-4.7-2.8-6.9-1.7c-0.3-8.6-0.6-17.3-0.9-25.9C363.7,300,365.7,299.2,366.9,297z M361.8,438.4c0.1-10.5,0.7-21,1.2-31.5c6.8,10,12.4,21,20.6,29.9c2.8,3.1,6.1,5.2,9.4,5.9C382.5,442.3,371.9,441.2,361.8,438.4z M395.2,432.3c-2.9-1.1-5-4.5-6.7-6.9c-2.4-3.3-4.6-6.8-6.8-10.3c-4.5-7.1-9-14.1-14.2-20.7c-1.1-1.4-2.5-2.1-4-2.2c0.1-6,0.2-12,0.2-18c3.8,4.3,11.6,4.7,17.1,4.9c7.3,0.3,15.7,0.7,22.8-0.8c15.6-3.3,17.7-22.5,17-35.4c-0.7-14.8-4.6-30-9.9-43.8c-4.3-11.1-7.5-22.5-11.7-33.6c-3.9-10.3-10.6-23.3-23.5-22c-6.4,0.7-11.2,4.9-14.8,10.1c-0.1-6.4-0.1-12.7-0.1-19.1c1.8-0.5,3.3-1.8,3.7-4.1c2.4-13.1,12.2-23.3,18.5-34.6c4.1-7.2,5.8-16.1,8.3-24c1.4-4.3,3-8.5,4.9-12.6c0.8-1.7,3-6.4,4.7-6.7c0.8-0.1,0.5-0.1,1.3,0.6c0.7,0.6,1.2,1.9,1.5,2.8c1.5,3.7,1.9,7.7,2.3,11.6c0.8,8,0.4,16,0.6,23.9c0.5,15.9,3,31.8,6.3,47.4c6.8,31.7,15.8,63,21.5,94.9c2.6,14.7,4.7,30.5-0.2,45c-4.4,12.8-17.2,19.8-25.3,30c-3.7,4.7-5.8,10.2-8.4,15.6C400.2,425.6,397,433,395.2,432.3z M460.2,440.9c-0.1,0.1-0.2,0.2-0.3,0.4c-0.6-0.2-1.3-0.3-2-0.2c-18.1,1.1-36.3,2.2-54.5,2c-2,0-4-0.1-6-0.1c3-0.5,5.9-2.2,8.5-5.5c2.9-3.8,4.9-8.3,6.8-12.6c2.7-5.9,5.9-10.5,10.5-15.1c8.9-9,18.2-16.3,22-28.9c4.1-13.4,3.5-27.7,1.4-41.4c-2.3-15.3-5.8-30.5-9.3-45.5c-7.4-31.6-16.6-63-19.2-95.5c-1-13.1,0.4-26.4-2.2-39.4c-1.1-5.4-2.8-11.4-7.4-14.9c-4.9-3.8-11.4-3-15.8,1.1c-4.6,4.3-7.1,10.7-9.3,16.4c-2.7,7-4.7,14.2-7,21.3c-3.3,10.2-10.1,18.6-15.5,27.8c0-7,0-13.9,0-20.9v-41.8c0-3.9-0.4-7.9-0.6-11.8c-0.1-2-0.5-8.2,0.2-9.2c1.3-1.6,1.5-3.4,1-5c2.3-4.4,5.9-7.9,9.4-11.3c4.6-4.5,9.2-8.8,13.3-13.7c7.5-9.1,11.7-21.2,20.3-29.5c7.5,6.3,14.2,13.5,20.4,21.1c-1.9,0.8-3.3,2.6-3.3,5.2c0,23-2.4,46.9,0.7,69.7c1.2,8.7,4.3,16.8,8.1,24.6c4.7,9.7,8.1,19.5,10.5,30c1.6,6.9,11.9,3.2,10.4-3.6c-2.1-9.3-4.8-18.4-9-27c-3.9-8.1-7.6-15.9-9-24.9c-1.7-11.2-1.2-23-1.1-34.3c0.1-10.2,0.3-20.5,0.4-30.7c6.5,7.2,13.9,14.2,18.2,22.6c-0.1,0.9,0,1.8,0.4,2.9c4.8,10.9,3.2,23.7,2.6,35.3c-0.7,14.1,0.4,28.2,0.7,42.4c0.6,31.7,0.4,63.4,0.3,95.1c-0.1,32-0.1,64,1.9,96c0.5,8.8,2.6,17.4,3.9,26.1C461.2,423.8,464,436.6,460.2,440.9z M464.4,164.1c0.2-7.4,0.8-14.7,0.7-22c5,0.3,11.3,1.6,15.5,3.8c1.8,0.9,0.8,6.1,0.8,7.7c-0.1,12.2,1.5,24.4-0.9,36.4c-5.1-0.1-11-0.1-15.7,1.7C464.6,182.5,464.2,173.2,464.4,164.1z M482.5,357.7c0,5.4-0.5,11.8-3,16.6c-0.7,1.4-5.1,1.5-6.4,1.7c-2.3,0.3-4.5,0.6-6.8,0.9c-0.2-7.7-0.2-15.3-0.4-22.8c-0.2-7.5-0.3-15-0.3-22.6c3.7,2.4,8.1,3.7,11.9,5.8C483.6,340.7,482.5,351.9,482.5,357.7z"/><path fill="#231F20" d="M295.1,229.8c-0.6-11.3-1.5-22.2-5.2-33c-3.8-10.9-11.1-22.8-23-26.1c-12.1-3.4-20.5,5.9-24.2,16.4c-5,13.9-4.9,30-4.9,44.7c0,17.1,1.4,34.1,1.7,51.2c-8.4,26.4-14.2,53.9,0,79.5c5.1,9.2,14.5,19.7,25.5,21.1c13.2,1.7,18.9-12,21.6-22.3c3.5-13.3,3.6-27.3,5.8-40.8c2.4-14.8,3.3-29.8,3.6-44.7C296.3,260.4,295.8,245.1,295.1,229.8z M284.6,285.7c-0.6,14.8-3.2,29.2-4.8,43.9c-0.7,6.6-1.3,13.1-2.2,19.7c-1,6.7-2.1,14.9-6.2,20.6c-4.5,6.2-11.2,0.3-15.2-3.4c-6.9-6.5-11-15.5-13.3-24.6c-4.2-16.4,0.2-34.1,5.2-50.2c1.4-1,2.4-2.5,2.4-4.6c0-0.9,0-1.8,0-2.8c0.3-1.1,0.3-2.1,0-2.9c-0.6-27.8-4.2-56,0.6-83.5c1.1-6.2,4.2-18.3,12.6-16.7c9.6,1.9,14.5,14.8,17,22.9c3.5,11.5,3.4,23.7,3.9,35.6C285.1,255,285.3,270.4,284.6,285.7z"/><path fill="#231F20" d="M271.5,240.1c0-7.1-11-6.2-11,0.8c0,17,3.1,36.9-3.4,53.1c-2.7,6.5,7.2,11.5,9.9,4.9C274.3,280.7,271.5,259.4,271.5,240.1z"/></svg>