<svg xmlns="http://www.w3.org/2000/svg"  viewBox="0 0 512 512" width="64px" height="64px"><path fill="#127274" d="M252.4,92.9c0.2-1.5,0.6-4.8-1.4-5.4c-2.6-0.9-5.4-1.1-8.2-1.2c-1.4,0-3-0.2-4.3,0.2c-0.1,1.9,1,4.3,1.5,6c0.1,0.4,0.2,0.8,0.2,1.1c4.1,0.1,8.2,0.5,12.2,1.2C252.4,94.2,252.4,93.6,252.4,92.9z"/><path fill="#EF4823" d="M270.5,140.5c-0.2-4.8-0.8-9.6-1.1-14.5c-0.3-4.5-0.4-9.3-2.1-13.6c-1.8-4.5-5.2-5.7-9.7-6.4c-8.8-1.5-21.4-4.6-29.9-0.6c0.3,13.6,2.1,27.2,1.4,40.8c0,0.9-0.3,1.7-0.7,2.4c6.2,0.4,12.5,0.7,18.7,0.7c6.5,0,14.1,0.5,20.3-1.9C270.7,146.1,270.7,143.7,270.5,140.5z"/><path fill="#127274" d="M345.7 408.7c-2.9-8.2-6.9-15.9-10.6-23.8-4.4-9.4-8-19.1-11.4-28.9-10.2-29.4-18.6-59.5-24.7-90.1-3.1-15.5-5.7-31-9.3-46.4-2.6-11.4-5.9-22.6-9-33.8-2.1-7.8-4.6-15.6-6.1-23.6-.3-1.9-.8-4.2-.9-6.6-2.9 1.5-6.1 2.4-9.4 3 .9 2.3 1.5 4.5 1.7 7 .1 1.2-.2 2.2-.7 2.9 1.4 7.1 4.2 14 5.5 21 2 10.5 4.1 20.9 5.6 31.5-2.2-1.6-4.6-3-6.7-4.3-6.3-3.9-12.5-7.9-19.1-11.2-.5-.3-.9-.6-1.4-.8-3.2-1.6-7.4 3.7-9.7 5.5-3.3 2.6-6.6 5.2-9.6 8.1 0 .1-.1.2-.1.4-1.5 1.5-3 3-4.5 4.6-2.9 2.6-5.7 5.3-8.5 8 1.3-6 2.6-12 3.9-18 4.1-18.4 8.8-36.7 16.4-54-2.3-.1-4.6-.2-6.9-.3-.9 6.1-3.1 12.1-5 17.9-2.9 8.7-6 17.3-8.4 26.1-3.1 11.6-5.9 23.2-8.6 34.9-2.7 11.9-6.9 23.6-10.4 35.3-7.2 23.6-14.7 47.2-24 70.2-8.8 21.9-17.1 44-25.3 66.1 4.9-.3 9.7-.9 14.6-1.4 2.1-.2 4.3-.4 6.4-.6l.1-1.4c.1-1.1.4-2 .9-2.7 1.4-5.2 2.9-10.4 4.5-15.6.5-.2.9-.5 1.4-.7 0-1.2.4-2.4 1.5-3.5 9.3-9.4 22.3-15.3 34.2-20.9 4.6-2.2 9.3-4.3 13.8-6.7 2.3-1.2 4.6-2.5 6.8-4 .5-.3 2.4-2.3 2.1-1.5 1.1-3.5 4.8-4.2 7.3-3 .2 0 .5.1.7.2 6.4 2.2 10.8 6.9 16.7 10.1 6.4 3.6 13 7.1 19.5 10.5 5.9 3.1 12 5.6 17.3 9.7 4 3.1 8.8 5.4 12 9.4 1.2 1.5 1.4 3.2 1 4.7 1 5.8 2 11.5 2.9 17.3 11.4.5 22.9 1.1 34.3 1.8C346.2 410.3 345.9 409.5 345.7 408.7zM218.6 335.1c-.5 3-2 5.4-3.9 7.3-9.1 4.9-18 10.3-26.9 15.7-1.1-.5-2-1.4-2.5-2.5.4-2.3.9-4.5 1.3-6.8.1-.1.3-.3.4-.5.6-2 1.2-4 1.7-6 1.9-6.6 3.7-13.2 5.5-19.8 2-4.3 4.1-8.7 4.9-13.3.9-.1 1.9.1 3 .8C209.8 315.1 220.4 324.9 218.6 335.1zM246.3 323.9c-2.3 2.7-5.5 1.8-7.2-.5-.7-.1-1.3-.4-2-.9-6.9-5.2-12.2-12.3-18.2-18.5-5.3-5.5-10.6-11.4-12.8-18.9 0 0 0 0 0 0-.5-.4-.9-.9-1.4-1.3.7-2.7 1.4-5.3 2-8 1.5-6 2.9-12 4.2-17.9.2-.2.4-.4.6-.6 2.3-1.7 4.3-3.8 6.1-6.1 2.1-2 4.3-3.9 6.4-5.8 0 0 0 .1 0 .1 1.1-1 2.2-1.9 3.3-2.9 4.9-4.3 9.8-8.6 14.1-13.3.5-.2 1-.5 1.5-.6 4.3-1.4 8.4-.6 12.2 1.2 3.9 4.5 9.1 7.5 14.1 10.8 1.7 1.1 3.3 2.2 4.9 3.5.5.4.8.9 1.1 1.4 1.6 1.6 3.3 3.2 5.1 4.6 1.7 12.3 3.5 24.5 5.7 36.7-.3.2-.5.4-.8.6 0 .4-.1.7-.2 1.1-2.3 7.7-11.7 13.7-17.9 18.1C259.8 311.9 252.3 316.9 246.3 323.9zM303.4 363.1c-1.1-.7-2.1-1.4-3.2-2.1-.1.1-.3.2-.5.2-7.2-3.6-14.3-7.3-20.9-11.9-5.1-3.6-9.9-8.6-15.9-10.7-3.3-4.9.7-10.3 5.2-13.7 3-2.3 5.2-5.7 7.9-8.4 2.1-2.1 4.3-4 6.7-5.8.3-.4.6-.9.9-1.3 1.3-1.4 3.2-1.7 4.9-1.2 1 8.4 4.5 16.7 6.3 24.8 2 9.4 4.1 19.1 8.1 28C303.1 361.7 303.3 362.4 303.4 363.1 303.4 363.1 303.4 363.1 303.4 363.1zM397.9 433.7c.1-2.5-.5-7.4-3.1-7.8-1.6-.3-2.7-1.1-3.2-2.1-42.4-2.5-84.8-5.2-127.2-6.2-23.1-.5-46.2-1-69.2-1.2-11.3-.1-22.5.4-33.7 1.6-8.4.9-16.9 1.7-25.3 1.5-3.8-.8-7.6-1.2-11.5-.9-2.7.2-7.5.8-8.7 3.5-1 .8-1.6 2.3-1.7 4.6-.1 4.1.4 8.1.8 12.1 12.7 2.3 25.7 1.9 38.6 2.1 13.7.2 27.3 1 41 0 13.7-1 27.4-2.6 41.1-3.1 14.3-.5 28.5.6 42.7 1.5 14.3.8 28.5 1 42.8-.3 13.7-1.2 27.4-2.5 41.1-2.9 9.7-.3 19.4-.2 29.1-.8 1.9-.1 4-.2 5.8-.7C398.3 434.3 397.9 434.8 397.9 433.7z"/><path fill="#010101" d="M202.2,310.1c-1-0.7-2-0.9-3-0.8c-0.8,4.6-2.9,8.9-4.9,13.3c-1.8,6.6-3.6,13.2-5.5,19.8c-0.6,2-1.1,4-1.7,6c-0.1,0.1-0.3,0.3-0.4,0.5c-0.5,2.3-0.9,4.5-1.3,6.8c0.6,1.1,1.5,2,2.5,2.5c8.8-5.4,17.7-10.8,26.9-15.7c1.9-1.9,3.4-4.3,3.9-7.3C220.4,324.9,209.8,315.1,202.2,310.1z M208,334.6c-2.3,2.6-5.2,4.3-8.3,5.9c1.5-5.3,3-10.6,4.4-16C207.5,328,210.3,332.1,208,334.6z"/><path fill="#010101" d="M398.2,416.3c-0.8-1.3-2.2-2.3-4.1-2.4c-12.5-0.7-25-1.5-37.6-2.2c0.1-5.6-3.7-11.9-5.8-16.6c-3.4-7.6-7.3-15-10.5-22.6c-11.5-27.3-19.6-56.7-26.5-85.4c-7.3-30.6-11.4-61.9-20.1-92.1c-2.2-7.6-4.3-15.2-6.4-22.8c-0.6-2.2-1.2-4.3-1.7-6.5c-1.5-4.1-3.3-8-4.3-12.2c-0.6-2.4-0.4-4.5,0-6.6c-0.4-0.1-0.7-0.1-1.2-0.1c1.6-6.9-0.4-15.8-0.8-21.8c-0.7-12.1-3.5-25.1-17-28.1c-0.2,0-0.3-0.1-0.5-0.1c0.1-0.3,0.2-0.7,0.3-1.2c0.7-5.4,0.6-11-3.7-14.9c-3.9-3.5-9.6-3.9-14.5-4.2c-5-0.3-10.5,0-13.7,4.3c-2.9,3.9-1.4,9.4-0.1,13.8c-2.8,0.5-5.5,1.4-7.9,2.6c-1,0.5-1.7,1.2-2.1,2c-1.4,0.8-2.5,2.2-2.5,4.3c0.2,14.4,2.2,28.7,1.4,43.2c-0.1,1.7,0.6,3,1.6,3.7c-1.1,1.6-1.1,3.9-0.1,5.7c0,0.2-0.1,0.4-0.1,0.7c-0.4,4.3-3.3,12.3-5,17.6c-2.8,8.7-6,17.3-8.4,26.1c-3.2,11.6-5.9,23.3-8.6,34.9c-2.7,11.9-6.9,23.6-10.4,35.3c-7.2,23.7-14.8,47.2-24,70.2c-8.4,21-16.5,42.3-24.3,63.5c-0.2,0.3-0.4,0.7-0.5,1c0.2,0.7,0,1.5-0.7,2.1c0,0.1,0,0.2-0.1,0.3c0,0,0,0.1-0.1,0.1c0,0,0,0,0,0c-0.1,0.4-0.1,0.9-0.2,1.3c0,0.2,0,0.4,0,0.6c-1.9,0-3.7-0.1-5.6-0.2c-2.8,0.6-5.7,0.7-8.6,1.1c-0.3,0.3-0.4,0.7-0.6,1.2c-1.3-0.2-2.6-0.3-3.9-0.3c-3.1,0.9-6,2.2-9.3,2.4c-2.2,1.5-4,3.7-5.1,6.9c-2.5,7-0.1,15.3,0.1,22.5c0.1,2.2,1.6,4.3,3.8,4.8c14.7,3.2,29.8,3,44.8,3.1c15.7,0.2,31,0.8,46.6-0.4c15.7-1.2,31.2-3,47-2.8c16.3,0.2,32.4,2,48.7,2.3c15.9,0.4,31.8-1.7,47.6-2.9c13.3-1,26.9-1.2,39.9-1.5c7.2-0.2,19.4,1.2,23.1-6.8C410.3,431,406.4,419.4,398.2,416.3z M242.9,86.3c2.8,0.1,5.5,0.3,8.2,1.2c2,0.7,1.6,3.9,1.4,5.4c-0.1,0.7,0,1.3,0.1,1.8c-4-0.6-8.1-1.1-12.2-1.2c0-0.4-0.1-0.7-0.2-1.1c-0.6-1.7-1.6-4.1-1.5-6C239.9,86.1,241.5,86.2,242.9,86.3z M257.7,106c4.5,0.8,7.9,1.9,9.7,6.4c1.7,4.3,1.9,9.1,2.1,13.6c0.3,4.8,0.8,9.6,1.1,14.5c0.2,3.2,0.2,5.6-3.1,6.9c-6.2,2.4-13.8,1.9-20.3,1.9c-6.2,0-12.5-0.3-18.7-0.7c0.4-0.7,0.6-1.4,0.7-2.4c0.7-13.7-1-27.2-1.4-40.8C236.3,101.4,248.8,104.5,257.7,106z M247.2,159.2c1.8,0,3.6,0,5.4,0c0.6,0,1.2,0,1.8,0c0,0.1,0,0.2,0,0.3c-0.3,10.1,4.1,19.5,6.2,29.3c1,4.7,2,9.5,2.8,14.2c-4.3-2.9-7.6-6.8-12.6-8.6c-4.6-1.6-9.9,1.2-13.2,4.2c-1.3,1.2-2.7,2.3-4.1,3.4c3.3-13.7,7.3-27.2,13.2-40.1C247.1,160.9,247.3,160.1,247.2,159.2z M173.8,343c9.3-22.9,16.8-46.5,24-70.2c3.6-11.7,7.7-23.4,10.4-35.3c2.7-11.7,5.5-23.4,8.6-34.9c2.4-8.9,5.5-17.4,8.4-26.1c1.9-5.8,4.1-11.8,5-17.9c2.3,0.1,4.6,0.2,6.9,0.3c-7.6,17.3-12.3,35.6-16.4,54c-1.3,6-2.6,12-3.9,18c2.8-2.7,5.6-5.4,8.5-8c1.5-1.5,3-3.1,4.5-4.6c0-0.1,0.1-0.2,0.1-0.4c3-2.9,6.3-5.5,9.6-8.1c2.3-1.8,6.5-7.1,9.7-5.5c0.5,0.2,1,0.5,1.4,0.8c6.6,3.3,12.8,7.4,19.1,11.2c2.1,1.3,4.5,2.7,6.7,4.3c-1.5-10.6-3.6-21-5.6-31.5c-1.3-7-4.1-13.9-5.5-21c0.5-0.8,0.8-1.7,0.7-2.9c-0.1-2.5-0.7-4.7-1.7-7c3.3-0.5,6.4-1.4,9.4-3c0.1,2.3,0.5,4.7,0.9,6.6c1.5,8,4,15.8,6.1,23.6c3.1,11.3,6.3,22.5,9,33.8c3.5,15.4,6.2,30.9,9.3,46.4c6.1,30.6,14.4,60.7,24.7,90.1c3.4,9.8,7,19.5,11.4,28.9c3.7,7.8,7.7,15.6,10.6,23.8c0.3,0.8,0.5,1.6,0.7,2.4c-11.4-0.6-22.9-1.2-34.3-1.8c-0.9-5.8-1.9-11.6-2.9-17.3c0.4-1.5,0.2-3.2-1-4.7c-3.2-4-8-6.4-12-9.4c-5.3-4.1-11.4-6.6-17.3-9.7c-6.5-3.4-13-6.9-19.5-10.5c-5.8-3.2-10.2-7.9-16.7-10.1c-0.2-0.1-0.5-0.1-0.7-0.2c-2.6-1.2-6.2-0.5-7.3,3c0.3-0.8-1.7,1.2-2.1,1.5c-2.1,1.5-4.5,2.7-6.8,4c-4.5,2.4-9.2,4.5-13.8,6.7c-11.9,5.5-24.9,11.5-34.2,20.9c-1.1,1.1-1.5,2.3-1.5,3.5c-0.5,0.2-0.9,0.5-1.4,0.7c-1.6,5.2-3.1,10.4-4.5,15.6c-0.5,0.7-0.9,1.6-0.9,2.7l-0.1,1.4c-2.1,0.2-4.3,0.3-6.4,0.6c-4.9,0.5-9.7,1-14.6,1.4C156.6,387,164.9,364.9,173.8,343z M302,408.9c-11.9-0.5-23.9-0.9-35.8-1.2c-23.1-0.6-46.2-0.8-69.3-1.2c-5.7-0.1-11.3,0-17,0.2c1.4-5.3,2.9-10.6,4.5-15.8c0.2-0.1,0.3-0.3,0.5-0.4c9.5-9.6,23.4-15.2,35.5-20.8c4.9-2.3,9.9-4.6,14.6-7.4c2.1-1.2,4.4-2.6,6.2-4.4c0.2,0,0.3,0,0.5,0c4.6,2,8.5,5.9,12.8,8.6c6.2,3.9,13.1,6.9,19.5,10.5c4.9,2.7,10.9,4.5,15.3,8.2c3.2,2.7,7.1,4.7,10.2,7.6C300.3,398,301.1,403.4,302,408.9z M397.2,434.6c-1.9,0.6-3.9,0.6-5.8,0.7c-9.7,0.6-19.4,0.5-29.1,0.8c-13.7,0.4-27.4,1.7-41.1,2.9c-14.3,1.3-28.5,1.1-42.8,0.3c-14.2-0.8-28.4-2-42.7-1.5c-13.7,0.5-27.4,2.2-41.1,3.1c-13.7,1-27.3,0.2-41,0c-12.9-0.2-25.9,0.1-38.6-2.1c-0.3-4-0.9-8.1-0.8-12.1c0-2.4,0.6-3.8,1.7-4.6c1.2-2.7,6-3.3,8.7-3.5c4-0.3,7.8,0.2,11.5,0.9c8.5,0.2,16.9-0.7,25.3-1.5c11.3-1.2,22.4-1.7,33.7-1.6c23.1,0.2,46.2,0.6,69.2,1.2c42.5,1,84.8,3.6,127.2,6.2c0.6,1.1,1.6,1.9,3.2,2.1c2.7,0.4,3.2,5.3,3.1,7.8C397.9,434.8,398.3,434.3,397.2,434.6z"/><path fill="#010101" d="M280.3 250c-1.8-1.4-3.4-3-5.1-4.6-.3-.5-.6-1-1.1-1.4-1.6-1.2-3.2-2.4-4.9-3.5-5-3.2-10.2-6.3-14.1-10.8-3.8-1.8-7.9-2.6-12.2-1.2-.5.2-1 .4-1.5.6-4.3 4.8-9.2 9.1-14.1 13.3-1.1 1-2.2 2-3.3 2.9 0 0 0-.1 0-.1-2.2 1.9-4.3 3.8-6.4 5.8-1.8 2.3-3.7 4.4-6.1 6.1-.2.2-.4.4-.6.6-1.4 6-2.8 12-4.2 17.9-.7 2.7-1.4 5.3-2 8 .5.4.9.8 1.4 1.3 0 0 0 0 0 0 2.1 7.5 7.4 13.5 12.8 18.9 6 6.2 11.3 13.2 18.2 18.5.7.5 1.4.8 2 .9 1.7 2.2 4.9 3.1 7.2.5 6-6.9 13.5-12 20.8-17.3 6.2-4.5 15.6-10.5 17.9-18.1.1-.4.2-.8.2-1.1.3-.2.5-.4.8-.6C283.9 274.5 282 262.2 280.3 250zM275.3 285.9c-.7 2.4-5 5.3-6.8 7-3.2 2.9-6.8 5.3-10.3 7.8-5.6 4-11.3 8.1-16.1 13.1-5.4-4.1-9.3-10-14.1-14.8-4.8-4.9-10.3-9.9-12.3-16.7-.1-.2-.1-.4-.2-.6 1.5-6.2 3-12.3 4.5-18.5.2-.1.3-.2.5-.3 1.2-5.3 7.3-10.1 11-13.3 2.9-2.5 6.2-5.5 9.8-7.6 1.1-1.2 2.3-2.3 3.6-3.3 6.2-4.7 19.2 10.1 23.9 13.5.7.5 1.4.8 2.1.9 1.5 10.6 3.1 21.3 4.9 31.8C275.5 285.3 275.4 285.6 275.3 285.9zM303 361c-4-8.8-6.1-18.5-8.1-28-1.8-8.1-5.3-16.5-6.3-24.8-1.7-.5-3.6-.2-4.9 1.2-.4.4-.7.8-.9 1.3-2.4 1.8-4.6 3.7-6.7 5.8-2.7 2.7-4.9 6.1-7.9 8.4-4.5 3.5-8.6 8.8-5.2 13.7 6 2.1 10.8 7.1 15.9 10.7 6.5 4.6 13.7 8.2 20.9 11.9.2-.1.3-.1.5-.2 1.1.7 2.1 1.4 3.2 2.1 0 0 0 0 .1 0C303.3 362.4 303.1 361.7 303 361zM288.8 347.2c-5.2-3.5-8.7-9.2-14.1-12.5-.5-.3-1.1-.6-1.7-.8.1-.1.2-.2.4-.3 2.3-2.1 4.4-3.9 6.5-6.3 1.3-1.4 2.6-2.9 3.9-4.2.5 2.1 1 4.1 1.5 6.2 1.4 6.1 2.7 12.2 4.1 18.3C289.2 347.5 289 347.3 288.8 347.2zM311 73.2c-2-8.1-6.9-15.8-14.7-18.5-.7-.5-1.5-.8-2.5-.8l-1.3-.1c-6.6-.4-6 9.3.2 10 5.5.6 8 8.9 9.1 13.3.8 3.3.6 7.1.2 10.5-.5 3.9-3.9 6.5-5.5 10-2.6 5.8 6.1 10.9 8.7 5 2.2-5 5.9-8.2 6.7-14C312.4 83.4 312.2 78.3 311 73.2zM349.6 84c-1.3-21.3-13.4-40.5-29.4-54-4.9-4.1-12 3-7 7.1 13.2 11.1 22.8 25.3 25.9 42.4 1.6 8.6 1.1 18.4-1.8 26.7-1.2 3.5-3.7 6.7-5.7 9.8-1 1.7-3.2 6.4-5.2 6.9-6.2 1.8-3.5 11.4 2.7 9.6 7-2 11-11.4 14.7-17.1C349.6 106.3 350.2 94.6 349.6 84zM191.4 60.7c-16.3 10.2-16.3 33.3-6.2 48 3.6 5.3 12.3.2 8.6-5.1-6.8-9.9-9-27 2.7-34.3C201.9 65.9 196.9 57.3 191.4 60.7zM167.1 20.5c-10.9 5.6-19.6 14-25.1 25-5.5 11-7.3 23.5-8.1 35.7-.9 13.8-.1 28.4 5 41.5 2.3 6 6.5 22 15.4 21.1 6-.6 6.2-9.6.8-10-.1-.1-.5-.5-1-1.3-1.2-1.8-2-3.9-2.9-5.8-1.3-3-2.4-6.2-3.7-9.2-4.7-11.4-4.3-25.7-3.5-37.8 1.4-21.2 8.5-40.3 28.2-50.4C177.9 26.1 172.8 17.6 167.1 20.5z"/></svg>