<svg xmlns="http://www.w3.org/2000/svg"  viewBox="0 0 512 512" width="64px" height="64px"><path fill="#EF4823" d="M326.3 212c-4.9-6.4-17.7-4.5-25.4-4.2.1 6.6.9 13.1 1.6 19.7 6.2-.2 14.4 2.1 20-1C327.1 223.9 330 216.8 326.3 212zM412.3 228.1c-3.1-16.1-25.3-23.5-40-22.9.2 9.2 1.5 18.2 2.3 27.3.8 9.5.5 18.9.4 28.4.1 0 .1 0 .2.1C394.9 266.8 416.2 248.8 412.3 228.1zM251.8 225.9c-1.5-2.3-5.3-9.1-8.8-8.5-3.7.6-6.6 5.5-8.1 8.5-1.8 3.4-3.5 6.8-5 10.4h27.8C255.8 232.7 254 229.2 251.8 225.9z"/><path fill="#EF4823" d="M492.3,300.9c-1-24.1,0.8-48.5-1.5-72.5c-1.9-19.4-7.5-40.9-25.7-51.2c-23.9-13.5-53.3-13.6-80-11.5c-29.2,2.2-58.2,6.5-87.5,6c-31.5-0.5-62.6-5.5-93.8-8.9c-22.7-2.5-47.5-6.2-69.5,2.3c-10,3.9-18.8,10.1-25.2,18.7c-0.4,0.5-0.7,1-1.1,1.5c-0.2,1.5-1,2.9-2.5,3.9c-5,8.6-7.8,18-11,27.4c5.6,28.6,7.9,57.5,7.2,86.6c-0.4,18.9-3.3,38-3.4,57c0,0,0.1,0,0.1,0v6.1c0.1,4.1,0.4,8.3,0.9,12.4c2.3,19.5,10.6,37.4,28.7,46.8c23.6,12.2,52.2,12.7,78.1,11.3c30.3-1.5,60.5-5.6,90.8-5.3c32.6,0.3,65.1,4,97.6,5.5c20.4,0.9,42.7,1.4,62.4-5.1c8.6-2.8,17.1-7,23.1-14c7.4-8.6,10-18.9,11.5-29.9C495.6,359.1,493.5,329.9,492.3,300.9z M193.7,216c-11.1-5.3-25.3-6.6-36.4-0.3c-9.7,5.5-17.1,15.2-17.3,26.7c-0.1,9.9,3.4,19.8,11.7,25.8c12.3,8.8,27.6,4,40.6-0.3c6.7-2.2,10.4,8.1,3.6,10.4c-16.9,5.6-36.2,10.1-51.5-1.8c-10.9-8.4-16.3-22.2-15.3-35.8c1.1-15.3,10.6-28.7,24.4-35.4c14.3-6.8,30.9-5.9,45,0.9C205,209.3,200.1,219.1,193.7,216z M361.3,200.2c0.2-4.3,4.3-6.3,7.5-5.6c0.5-0.2,1-0.3,1.6-0.3c21-1.5,50.8,10.5,53,34.3c2.6,26.8-23.6,51.1-50.3,43.3c-1.7-0.5-2.8-1.5-3.5-2.8c-2.8,0.3-5.6-1.2-5.6-4.9v-2.7c0-0.2,0-0.4,0-0.6c0.1-9.8,0.4-19.6-0.6-29.4C362.4,221.1,360.9,210.7,361.3,200.2z M290,202.9c0.2-4,3.8-6,6.8-5.7c0.5-0.1,1-0.2,1.6-0.2c12.5-0.1,34.1-2.7,39,12.9c2.6,8.3,1.1,18.9-6.4,24.3c-3.4,2.4-6.9,3.6-10.5,4.1c1.9,1.3,3.8,2.6,5.8,3.7c7.8,4.3,15,9.8,22.2,15.1c5.7,4.2-1.6,12.5-7.3,8.3c-6.9-5.2-14-9.9-21.3-14.4c-3.7-2.3-7.6-4.6-11.2-7.1c-1.8-1.3-3.6-2.7-5.4-3.9c0.3,8.2,0.4,16.5,0.4,24.8c0,0,0,0,0,0v1.2c0,7.1-11,7.9-11,0.8v-1.2c0,0,0,0,0,0c0-10.2,0.1-20.5-0.7-30.6C291.2,224.2,289.4,213.6,290,202.9z M226.2,247.3c-2.3,8.4-3.5,17-4.6,25.6c-0.9,7-11.7,4.9-10.8-2.1c1.8-13.9,4.1-28,9.9-40.8c3.8-8.5,10.2-23.3,21.5-23.5c12.4-0.2,19.2,13.5,24.2,23c6.2,11.9,13.2,23.2,16.3,36.5c1.6,6.8-8.8,10.5-10.4,3.6c-1.8-8.1-5.2-15.2-8.9-22.3H226.2z M458.5,380.4c-6,19.3-23.9,36.3-45.5,29.3c-4.3-1.4-8.3-3.4-12-6c-11.3,12.3-33.3,13.5-48.4,8.7c-6.3-2-12-5.4-16.8-9.9c-12.8,7.8-33,5.8-45.3-1.9c-11.4-7.1-20.1-19.6-20.1-33.4c0-15,8.8-27.9,22.8-33.6c9-3.6,18.9-4.5,28.5-3.4c3.7,0.4,6.8,1.2,10.1,3c1.3,0.7,2.6,1.4,4,2.1c0.7,0.3,2.6,0.6,1.2,0.8c2.1-0.3,3.6,0.4,4.5,1.6c8.1-4.2,17.3-6.3,26.5-5.8c4.7,0.2,9.7,0.4,14.2,2.2c3.9,1.5,7.3,4,11.1,5.9c0.3-0.2,0.5-0.4,0.8-0.6c9.1-6.6,20.4-7.7,31.3-6.6c10.6,1.1,21.6,5,28,14.1C460.3,356.6,462,369.2,458.5,380.4z"/><path fill="#FEBF10" d="M445.3,354.4c-4.8-6.8-12.4-9.7-20.5-10.5c-7.6-0.8-16.9-0.8-23.3,3.9c-5.2,3.8-8.8,9.2-10,15.3c0.6,0.8,1,1.8,1,3.2c-0.4,14.1,8.6,27.5,22,32.4c15,5.4,27.9-5,32.8-18.9C450.1,371.7,450.4,361.6,445.3,354.4z"/><path fill="#EF4823" d="M83.9,219.5c-0.3-0.6-0.5-1.2-0.6-1.8c0.3-2.3,0.5-4.7,0.6-7c0.4-0.5,0.9-0.9,1.5-1.2c1.6-4.5,3.1-9,4.9-13.3c-14.9,6.5-30.4,12-46.6,11.8c3.6,12.8,6.5,25.9,8.9,39c4.4,24.6,4.7,50.6,12.6,74.6c4.3,13.3,11.6,25.2,22.5,32.9c0.6-15.2,2.4-30.3,3-45.4C91.6,279,89.6,249,83.9,219.5z"/><path fill="#FEBF10" d="M381.8 373.4c-.9-.8-1.6-2-1.7-3.6-.5-7.5 1.5-15.1 5.6-21.4-2.3-1.4-4.5-2.8-6.9-3.8-3.4-1.3-7.6-1.6-11.3-1.6-7.1 0-14.8.8-21 4.6-10.5 6.4-16.5 18.7-13 30.8 3.3 11.1 12.1 20.9 23.6 23.8 10.8 2.7 27.4 3 35.6-5.8C387 390.1 383 382.1 381.8 373.4zM331.4 345.7c-2.5-1.3-4.9-3-7-3.9-5.5-2.3-15.5-1.3-21.3.2-10.9 2.9-21.6 10.9-21.6 23.3 0 10.1 5.2 20.3 14 25.4 9 5.2 23.3 8.1 33.2 3.2-2.8-4.3-4.9-9-6-14C319.9 367.9 323.3 354.8 331.4 345.7z"/><path fill="#EF4823" d="M303.1 56c-28.2 8-55.7 17.9-84.6 23.2-31 5.7-62.4 7-93.7 9.8-22.8 2.1-47.8 3.3-67.6 16.1-8.3 5.3-15.3 12.4-19.9 21.1 1.4-.2 2.8-.2 4.2-.3 3.9-.3 7.9-.6 11.8-.8 5.4-.3 10.7-2.1 15.9-3.5 15.4-4.2 30.6-7.6 46.3-10.5 31.8-5.8 63.2-13.2 94.8-20.2 31.7-7 63.3-14.2 94.8-22.2 25.1-6.4 51.6-8.9 75.9-18.1C355.6 43.4 327.9 49 303.1 56zM421.7 105.4c-.6.3-1.2.4-1.9.5.9-.1-.3 0-1.3.3-1.5.4-2.9.8-4.4 1.2-3.4 1-6.8 1.9-10.3 2.9-7.9 2.2-15.9 4.1-23.8 6.2-22 5.7-44.2 11-66 17.1-11 3.1-21.9 6.6-33 9.4-10.6 2.6-21.3 5-31.8 8.1-5.1 1.5-10.3 2.7-15.4 4 6.3.8 12.6 1.6 19 2.3 30.7 3.4 61 4 91.9 1 28-2.7 56.6-7.1 84.7-3.5 1 .1 2 .3 3 .4C428.8 138.8 426 121.9 421.7 105.4z"/><path fill="#127274" d="M394.3,56.7c-1.4,1.2-2.8,2.1-4.7,2.5c-0.2,0.1-0.5,0.1-0.7,0.1c-4.9,2-9.9,3.8-15,5.3c-13.9,4-28.1,6.5-42.3,9.3c-15.3,3-30.4,7.1-45.5,10.8c-31.7,7.7-63.5,14.8-95.3,21.7c-15.4,3.4-30.8,7.1-46.2,10.3c-15.9,3.2-32.1,5.2-47.9,8.9c-8,1.9-16,4.2-23.9,6.4c-5.6,1.5-11.6,3.8-17.4,4.1c-3.8,0.2-7.5,0.4-11.3,0.7c-1.6,0.1-3.2,0.2-4.9,0.4c-0.5,0.2-1.2,0.3-1.9,0.4c-0.4,0.1-0.5,0.2-0.1,0c0,0-0.1,0-0.1,0c-0.7,0-1.4,0.1-2.1-0.1c-0.7-0.2-1.4-0.6-2-1c-2.7,8.8-3.6,18-4.8,27.3c4.6,11.1,8.6,22.3,12.2,33.7c0.6-0.1,1.2-0.2,1.8-0.2c19.1,1.2,38.5-8.5,55.7-16.4c2.7-4.2,5.8-8.2,9.7-11.8c15.9-15.1,38.2-20.1,59.6-20c13.9,0.1,27.8,1.4,41.7,3.1c0.7-1.6,2.2-2.8,4.4-3c0.1,0,0.4-0.1,0.5-0.1c0.2-0.1,0.4-0.1,0.7-0.2c1.4-0.3,2.8-0.7,4.2-1.1c3.4-0.9,6.7-1.8,10.1-2.7c7.3-1.9,14.5-3.7,21.8-5.7c10.7-2.8,21.5-5.3,32.2-8c11-2.9,21.9-6.5,32.9-9.5c21.9-6,44-11.2,66-17c7.3-1.9,14.7-3.7,22-5.8c4.8-1.3,9.9-3.4,14.9-3.9C414.1,80.4,407,65.3,394.3,56.7z"/><path d="M105.5,189.2c-0.3,0.2-0.5,0.3-0.8,0.5c-4.7,2.1-9.5,4.4-14.4,6.5c-1.8,4.3-3.3,8.8-4.9,13.3c-0.6,0.3-1.1,0.7-1.5,1.2c-0.1,2.3-0.3,4.7-0.6,7c0.1,0.7,0.3,1.3,0.6,1.8c5.7,29.5,7.7,59.5,6.7,89.6c-0.5,15.1-2.4,30.3-3,45.4c3.2,2.3,6.8,4.3,10.7,5.8c0.1-19,3-38.2,3.4-57c0.7-29.1-1.5-58.1-7.2-86.6C97.7,207.2,100.5,197.7,105.5,189.2z"/><path d="M504.4,325.9c-0.5-14.5-1.4-28.9-1.7-43.4c-0.3-12.1,0.1-24.2,0-36.3c-0.3-20.5-2-41.9-12.9-59.9c-9.8-16.3-27.6-24.6-45.8-28.8c0.4,1.5,0.7,2.9,1.1,4.4h-11.3c-0.5-2.2-1-4.4-1.4-6.5c-1-0.1-2-0.3-3-0.4c-28.1-3.6-56.7,0.8-84.7,3.5c-30.8,2.9-61.1,2.4-91.9-1c-6.3-0.7-12.6-1.5-19-2.3c-1.6,0.4-3.2,0.8-4.7,1.2c-4.7,1.3-9.8,3.2-14.7,3.6c-4.9,0.4-6.8-4.6-5.2-8c-13.9-1.7-27.8-3-41.7-3.1c-21.4-0.2-43.7,4.8-59.6,20c-3.8,3.7-7,7.6-9.7,11.8c1-0.5,2-0.9,3-1.4c4.4-2,7.5,2.2,6.9,6c0.4-0.5,0.7-1,1.1-1.5c6.4-8.7,15.2-14.9,25.2-18.7c22-8.5,46.7-4.8,69.5-2.3c31.2,3.4,62.3,8.4,93.8,8.9c29.3,0.5,58.3-3.8,87.5-6c26.6-2,56-2,80,11.5c18.3,10.3,23.9,31.8,25.7,51.2c2.3,24,0.5,48.4,1.5,72.5c1.2,29,3.3,58.2-0.8,87.1c-1.6,11-4.1,21.3-11.5,29.9c-6,7-14.5,11.1-23.1,14c-19.6,6.5-42,6-62.4,5.1c-32.6-1.5-65-5.2-97.6-5.5c-30.4-0.2-60.5,3.8-90.8,5.3c-26,1.3-54.5,0.9-78.1-11.3c-18.1-9.4-26.4-27.3-28.7-46.8c-0.5-4.1-0.7-8.2-0.9-12.4v5.5c-0.3-0.1-0.5-0.2-0.8-0.3c-3.6-1.3-6.9-2.8-10.1-4.5c0.1,6,0.6,11.9,1.5,17.8c3.2,20.9,13.8,38.4,32.1,49.3c23.6,14.1,54.4,14.7,81,13.8c30.1-1,60.1-5.2,90.3-5.5c32.9-0.4,65.8,3.6,98.6,5.3c37,1.9,91.6,2.8,107.2-39.2c4.6-12.3,5.5-26.2,6.2-39.1C505.2,354.9,504.9,340.4,504.4,325.9z"/><path d="M453.5 347c-6.4-9-17.4-13-28-14.1-10.9-1.2-22.3 0-31.3 6.6-.3.2-.5.4-.8.6-3.8-1.9-7.1-4.3-11.1-5.9-4.5-1.7-9.4-1.9-14.2-2.2-9.2-.5-18.4 1.6-26.5 5.8-.9-1.2-2.5-1.9-4.5-1.6 1.4-.2-.5-.5-1.2-.8-1.3-.7-2.6-1.4-4-2.1-3.3-1.8-6.4-2.5-10.1-3-9.6-1.1-19.5-.2-28.5 3.4-14 5.6-22.8 18.6-22.8 33.6 0 13.8 8.7 26.3 20.1 33.4 12.3 7.7 32.5 9.6 45.3 1.9 4.8 4.4 10.5 7.9 16.8 9.9 15.1 4.9 37 3.6 48.4-8.7 3.7 2.5 7.7 4.6 12 6 21.5 7 39.4-10 45.5-29.3C462 369.2 460.3 356.6 453.5 347zM322.6 380c1.1 5 3.2 9.8 6 14-9.9 4.9-24.1 2.1-33.2-3.2-8.9-5.1-14-15.4-14-25.4 0-12.4 10.7-20.4 21.6-23.3 5.8-1.6 15.8-2.5 21.3-.2 2.2.9 4.6 2.6 7 3.9C323.3 354.8 319.9 367.9 322.6 380zM357.1 402.3c-11.5-2.9-20.3-12.7-23.6-23.8-3.6-12.2 2.5-24.4 13-30.8 6.2-3.8 13.9-4.6 21-4.6 3.7 0 7.9.3 11.3 1.6 2.4.9 4.7 2.4 6.9 3.8-4.1 6.3-6.1 13.8-5.6 21.4.1 1.6.7 2.8 1.7 3.6 1.1 8.7 5.1 16.7 10.9 23.1C384.6 405.3 367.9 405.1 357.1 402.3zM447.3 379.7c-4.9 13.9-17.8 24.4-32.8 18.9-13.4-4.8-22.4-18.2-22-32.4 0-1.4-.3-2.4-1-3.2 1.2-6.1 4.7-11.5 10-15.3 6.5-4.7 15.7-4.8 23.3-3.9 8.1.9 15.7 3.7 20.5 10.5C450.4 361.6 450.1 371.7 447.3 379.7zM157.3 215.7c11.1-6.3 25.3-5 36.4.3 6.4 3.1 11.3-6.8 4.9-9.9-14.1-6.8-30.7-7.7-45-.9-13.8 6.6-23.3 20-24.4 35.4-1 13.6 4.4 27.4 15.3 35.8 15.4 11.9 34.7 7.4 51.5 1.8 6.7-2.2 3.1-12.6-3.6-10.4-13 4.3-28.4 9.1-40.6.3-8.3-5.9-11.8-15.9-11.7-25.8C140.2 230.9 147.6 221.2 157.3 215.7zM282.7 266c-3-13.3-10-24.6-16.3-36.5-5-9.5-11.8-23.2-24.2-23-11.3.2-17.7 15-21.5 23.5-5.8 12.9-8.2 26.9-9.9 40.8-.9 7 9.9 9.1 10.8 2.1 1.1-8.6 2.4-17.2 4.6-25.6h37.2c3.7 7.1 7 14.2 8.9 22.3C273.9 276.5 284.2 272.8 282.7 266zM229.9 236.3c1.5-3.5 3.3-7 5-10.4 1.5-3 4.4-7.9 8.1-8.5 3.5-.6 7.2 6.2 8.8 8.5 2.2 3.3 4.1 6.9 5.9 10.4H229.9zM348.5 257c-7.1-5.3-14.4-10.7-22.2-15.1-2-1.1-3.9-2.4-5.8-3.7 3.6-.5 7.1-1.6 10.5-4.1 7.6-5.4 9.1-16 6.4-24.3-5-15.6-26.5-12.9-39-12.9-.6 0-1.1.1-1.6.2-3-.3-6.6 1.7-6.8 5.7-.6 10.7 1.2 21.3 2 32 .7 10.2.7 20.4.7 30.6 0 0 0 0 0 0v1.2c0 7.1 11 6.2 11-.8v-1.2c0 0 0 0 0 0 0-8.3 0-16.5-.4-24.8 1.9 1.2 3.6 2.6 5.4 3.9 3.6 2.5 7.4 4.8 11.2 7.1 7.3 4.5 14.4 9.2 21.3 14.4C346.9 269.5 354.1 261.2 348.5 257zM302.5 227.6c-.6-6.6-1.4-13.1-1.6-19.7 7.7-.3 20.5-2.2 25.4 4.2 3.7 4.8.8 11.9-3.9 14.5C316.9 229.7 308.7 227.4 302.5 227.6zM423.4 228.6c-2.3-23.8-32-35.8-53-34.3-.6 0-1.1.2-1.6.3-3.1-.7-7.3 1.3-7.5 5.6-.4 10.5 1.1 20.9 2.1 31.4 1 9.8.7 19.6.6 29.4 0 .2 0 .4 0 .6v2.7c0 3.6 2.8 5.2 5.6 4.9.7 1.3 1.8 2.3 3.5 2.8C399.8 279.7 426 255.4 423.4 228.6zM375.2 261c-.1 0-.1 0-.2-.1.1-9.5.4-18.9-.4-28.4-.8-9.1-2.1-18.2-2.3-27.3 14.7-.6 36.9 6.8 40 22.9C416.2 248.8 394.9 266.8 375.2 261zM98.3 360.2c0 2.1 0 4.1.1 6.2L98.3 360.2C98.3 360.3 98.3 360.2 98.3 360.2zM105.5 189.2c1.5-1 2.2-2.4 2.5-3.9C107.1 186.6 106.3 187.9 105.5 189.2z"/><path d="M441.6,147.3c-2.7-11.8-4.7-23.7-7.2-35.5C430,91.7,424,71.1,409.8,55.6c-16.4-17.8-42.7-20.5-65.5-18.8C316,38.9,288.9,48.8,262,57c-29.6,9-59.4,14.4-90.2,17.2c-28.4,2.5-57.3,3.1-85.4,8.5c-21,4.1-41.9,13.4-54.5,31.4c-9.5,13.5-11.7,28.6-13.9,44.3c-0.5,0.4-1,0.9-1.3,1.5c0.3,2.3,0.6,4.6,0.8,7c0.2,0.6,0.6,1.2,1,1.7C30,196.3,38,225.3,42.9,255c4.1,24.9,4.7,50.8,13.4,74.7c6,16.4,16.4,29.4,31.2,37.5c-0.1-4.2,0-8.4,0.1-12.6c-10.9-7.8-18.1-19.6-22.5-32.9c-7.8-23.9-8.2-49.9-12.6-74.6c-2.3-13.2-5.3-26.2-8.9-39c16.1,0.2,31.7-5.4,46.6-11.8c2.2-5.4,4.7-10.6,7.8-15.5c-17.2,7.9-36.6,17.6-55.7,16.4c-0.7,0-1.3,0-1.8,0.2c-3.5-11.4-7.6-22.6-12.2-33.7c1.2-9.2,2.1-18.4,4.8-27.3c0.6,0.5,1.3,0.8,2,1c0.7,0.2,1.4,0.1,2.1,0.1c0,0,0.1,0,0.1,0c-0.4,0.2-0.3,0.1,0.1,0c0.7,0,1.3-0.1,1.9-0.4c1.6-0.1,3.2-0.3,4.9-0.4c3.8-0.3,7.5-0.5,11.3-0.7c5.8-0.3,11.8-2.5,17.4-4.1c8-2.2,15.9-4.5,23.9-6.4c15.7-3.7,32-5.7,47.9-8.9c15.5-3.1,30.8-6.9,46.2-10.3c31.8-7,63.6-14.1,95.3-21.7c15.2-3.7,30.2-7.8,45.5-10.8c14.2-2.8,28.4-5.3,42.3-9.3c5.1-1.5,10.1-3.2,15-5.3c0.2,0,0.5-0.1,0.7-0.1c1.9-0.4,3.3-1.3,4.7-2.5c12.6,8.7,19.8,23.8,24.4,38.3c-5,0.5-10.1,2.6-14.9,3.9c-7.3,2-14.6,3.8-22,5.8c-22,5.8-44.1,11.1-66,17c-11,3-21.9,6.6-32.9,9.5c-10.7,2.8-21.5,5.2-32.2,8c-7.3,1.9-14.5,3.8-21.8,5.7c-3.4,0.9-6.7,1.8-10.1,2.7c-1.4,0.4-2.8,0.7-4.2,1.1c-0.2,0.1-0.4,0.1-0.7,0.2c-0.1,0-0.3,0.1-0.5,0.1c-2.2,0.2-3.7,1.4-4.4,3c8.2,1,16.5,2.1,24.7,3.2c5.1-1.3,10.3-2.5,15.4-4c10.5-3,21.2-5.4,31.8-8.1c11.1-2.8,22-6.3,33-9.4c21.9-6.2,44-11.4,66-17.1c7.9-2.1,15.9-4,23.8-6.2c3.4-0.9,6.8-1.9,10.3-2.9c1.5-0.4,2.9-0.8,4.4-1.2c1-0.3,2.2-0.4,1.3-0.3c0.7-0.1,1.4-0.2,1.9-0.5c4.3,16.4,7.1,33.3,10.6,50c3.9,0.6,7.8,1.3,11.6,2.2C443.2,154.2,442.3,150.7,441.6,147.3z M305.1,68.7c-31.4,8-63.1,15.2-94.8,22.2c-31.5,7-63,14.4-94.8,20.2c-15.7,2.8-30.9,6.2-46.3,10.5c-5.2,1.4-10.5,3.3-15.9,3.5c-4,0.2-7.9,0.5-11.8,0.8c-1.4,0.1-2.8,0.1-4.2,0.3c4.6-8.7,11.6-15.8,19.9-21.1c19.9-12.7,44.9-14,67.6-16.1c31.3-2.9,62.8-4.1,93.7-9.8C247.4,73.9,275,64,303.1,56c24.8-7,52.5-12.6,77.8-5.4C356.7,59.8,330.1,62.3,305.1,68.7z"/><path d="M444 157.6c-3.9-.9-7.8-1.6-11.6-2.2.5 2.2.9 4.4 1.4 6.5H445C444.7 160.5 444.3 159 444 157.6zM209.1 151.9c-1.6 3.4.4 8.4 5.2 8 4.9-.4 10-2.4 14.7-3.6 1.6-.4 3.2-.8 4.7-1.2C225.5 154 217.3 152.9 209.1 151.9zM98.3 360.2c-3.9-1.5-7.4-3.5-10.7-5.8-.2 4.2-.2 8.4-.1 12.6 3.2 1.7 6.5 3.2 10.1 4.5.3.1.5.2.8.3v-5.5C98.3 364.3 98.3 362.3 98.3 360.2zM101 179.3c-1 .4-2 .9-3 1.4-3.1 4.9-5.6 10.1-7.8 15.5 4.9-2.1 9.7-4.3 14.4-6.5.3-.1.6-.3.8-.5.8-1.3 1.6-2.6 2.5-3.9C108.5 181.5 105.5 177.2 101 179.3z"/></svg>