<svg xmlns="http://www.w3.org/2000/svg"  viewBox="0 0 512 512" width="64px" height="64px"><path fill="#FEBF10" d="M168,225.6c-0.9-2.6-1.9-8.5-4.8-10c-5.7-2.9-13.7-0.3-19.8-0.3c-6.5,0-11.5-3-13.1-9.6c-1.2-4.9-1.7-9.9-2.9-14.7c-0.9-3.4-1.9-6.7-2.9-10.1c-4,0.2-8,0.2-12,0.8c-4.6,0.7-7,2.2-6.4,7c0.5,4.2,1.3,8.3,1.4,12.5c0.1,2.8-0.7,8.2,0.6,10.7c1.7,3.2,0.1,6.4-2.3,7.9c-0.8,1.3-2,2.3-3.8,2.7c-5.1,1-10.1,3.9-14.7,6.2c-3.8,2-8.5,3.5-11.8,6.4c0,0-0.2,0.2-0.2,0.5c0.5,1.6,1.1,3.2,1.8,4.7c2,4.1,3.5,7.7,8.5,8c8.6,0.6,18.6,0.3,24.1,8.4c4.2,6.2,5.7,13.8,6.7,21.2c7.4,0.3,14.9-0.5,21.9-2.8c0.5-10-2-21.7,3.2-30.5c2.9-5,11.1-5.9,16.2-6.9c4.2-0.8,8.7-1.4,12.9-2.5C170.2,232,169.1,228.8,168,225.6z M93,244.6c-7.1,0-7.9-11-0.8-11C99.2,233.7,100.1,244.6,93,244.6z M116,193.6c-1.5,0-2.9-0.3-4.1-1.4c-1.1-0.9-1.7-2.3-1.9-3.7c-0.1-1.5,0.4-2.9,1.4-4.1c0.9-1,2.3-1.9,3.7-1.9h1c1.5,0,2.9,0.3,4.1,1.4c1.1,0.9,1.7,2.3,1.9,3.7c0.1,1.5-0.4,3-1.4,4.1c-0.9,1-2.3,1.9-3.7,1.9H116z M130.7,268.8c-0.9,1-2.3,1.9-3.7,1.9c-0.7,0-1.5,0-2.2-0.1c-1.3-0.2-2.2-0.7-3.2-1.5c-1.6-1.2-2.5-3.5-2.5-5.5c0-1.5,0.3-2.9,1.4-4.1c0.9-1.1,2.3-1.7,3.7-1.9c1.5-0.1,3,0.4,4.1,1.4c0.4,0.4,0.8,0.9,1.1,1.4c0.3,0.2,0.6,0.4,0.9,0.6c1.1,0.9,1.7,2.3,1.9,3.7C132.2,266.2,131.7,267.7,130.7,268.8z M156.7,226.8c-0.9,1-2.3,1.9-3.7,1.9h-1c-1.5,0-2.9-0.3-4.1-1.4c-1.1-0.9-1.7-2.3-1.9-3.7c-0.1-1.5,0.4-2.9,1.4-4.1c0.9-1,2.3-1.9,3.7-1.9h1c1.5,0,2.9,0.3,4.1,1.4c1.1,0.9,1.7,2.3,1.9,3.7C158.2,224.2,157.7,225.7,156.7,226.8z"/><path fill="#F6851F" d="M381.6,196c-6.8-1.2-11.7,5.6-11.6,11.8c0.1,1.9-0.7,3.4-1.9,4.4c1.2,0.5,2.8,0.9,4.2,1.1c4.1,0.5,10,0,12.8-3.3C388.1,206.5,387.2,197,381.6,196z"/><path fill="#127274" d="M273.8,124.7c-2.8-2.3-6.3-2.6-9.8-2.5c-6.9,0.2-13.7,0.4-20.5,0.4c-8.2,0-21.3-0.2-25.4,8c0.7,1.2,0.9,2.7,0.7,4c16.7,0.3,33.4,0.4,50.2-0.4c2.7-0.1,5.5-0.3,8.2-0.5c0.1-0.3,0.3-0.7,0.5-1C279,130.4,275.5,126.1,273.8,124.7z"/><path fill="#F6851F" d="M342.3,243.4c-6.9-0.7-11.4,4.8-11.2,11.3c0,1.9-0.7,3.4-1.9,4.3c1.7,1.4,3.8,2.4,6.2,2.9c5,1,11.7,0.5,13.9-5C351.7,251,349.1,244.1,342.3,243.4z"/><path fill="#127274" d="M483.4,341c-2.6-15.4-5.8-30.8-9.3-46.1c-10.8-47-22.8-102.1-63.4-133c-22.1-16.8-48.7-21.5-76-20.7c-15.8,0.5-31.6,2.1-47.4,3.1c-16.1,0.9-32.1,1.6-48.2,1.7c-31.7,0.2-63.7-3.5-95.3-0.5c-15.1,1.5-29.9,4.5-43.9,10.5c-13.1,5.6-25.2,12.9-37.1,20.7c-0.4,0.3-0.9,0.5-1.3,0.6C55.1,188.8,50,200.7,47,213.5c-6.9,28.8-6.9,58.7-13.7,87.5C29,319,23,336.6,19.1,354.7c-3.9,18.2-7.4,38.4-2.8,56.8c4.3,17.1,16.7,30.9,34.7,34c16.4,2.8,30.2-7.5,40.3-19.4c11.9-14.1,20.5-30.6,28.4-47.1c7.9-16.6,14.5-35,27.1-48.8c18.4-20,45.2-23.4,71.1-23.6c28.5-0.2,58.8,1.5,86.4,9.3c13.2,3.7,25.7,9.2,36.5,17.8c10.7,8.5,19.7,18.8,28.3,29.3c12.7,15.3,25.3,30,41.3,42.1c12.6,9.5,29.1,20.8,45.6,20.7c20.8-0.2,28-21.4,29.9-39.1C487.5,371.5,485.9,356.1,483.4,341z M178.4,244.3c-5,2-10.6,2.7-15.9,3.7c-2.8,0.5-5.6,1-8.3,1.8c-1.2,0.3-2.3,0.7-3.4,1.2c-3.4,8.9-0.7,19.9-1.8,29.2c-0.2,2-1.9,3.4-3.6,4.1c-10.9,4.6-23.2,5.2-34.9,4.2c-2.5-0.2-4.2-2.7-4.4-5c-1-8.5-1.4-22.1-11.9-23.7c-5-0.8-10.2,0-15.1-1.7c-5.1-1.8-8.1-5.9-10.5-10.6c-3.9-7.6-7-16.2,1.5-22c4.6-3.1,10-5.3,15-7.8c4-2,7.9-3.8,12.1-5.1c-0.7-3.8-0.4-7.9-0.7-11.8c-0.3-5.6-2.5-11.8-1.2-17.4c3.6-15,21.1-12.4,32.8-13.8c2.3-0.3,5,1.4,5.6,3.7c1.7,5.8,3.6,11.5,4.8,17.4c0.9,4.2,1,9.2,2.7,13.2c0.1,0.1,0.1,0.3,0.2,0.4c0.9,0.1,1.9,0.1,2.9,0c3.9-0.3,7.8-0.7,11.8-0.7c7,0.1,14.1,1.2,17.9,7.9c4.4,7.8,8,18.2,8,27.2C182.1,241.3,180.8,243.4,178.4,244.3z M309.5,215.1c-1,12.3-3.4,26.1-13.1,34.8c-8.3,7.4-19.6,9.4-30.4,8.8c-1.1-0.1-2.1-0.4-2.9-0.9c-11.7,0.2-23.5,0.5-35.2-0.4c-7.7-0.6-15.4-3.2-19.3-10.3c-2.6-4.7-3.8-9.6-5.2-14.7c-1.9-7-4-14-5.5-21.2c-1.2-5.5-2.6-11-3.8-16.5c-1-4.5-1.6-9.1,0-13.5c0-0.3,0.1-0.7,0.1-1.1c0.2-0.9,0.5-1.8,0.8-2.7c5.4-14.6,27.9-14.7,40.5-14.5c15.6,0.3,31,2.6,46.4,5c8.5,1.3,18.8,2.9,24,10.7c3,4.5,4.2,9.8,4.2,15.1C310.1,200.8,310.1,208,309.5,215.1z M359.4,261.1c-4.3,10.7-17.2,14.4-27.6,11.3c-9.2-2.7-19.4-11.2-13.2-21.7c0.6-1,1.4-1.7,2.3-2.2c2.7-10.2,11.8-17.7,23.5-15.9C357.9,234.6,364.3,248.8,359.4,261.1z M370.3,224c-8.1-1.2-18.2-7.2-15.1-16.9c0.7-2.3,2.5-3.6,4.4-4c2.2-10.6,11.6-20.3,23.3-18.1c11.8,2.2,19.1,18.2,12.9,28.8C390.7,222.5,379.9,225.5,370.3,224z M443.6,256.9c-3,13.2-15.9,19.7-28.7,18.6c-12.4-1.1-22.8-10.2-20.7-23.4c0.4-2.6,2.1-3.9,4.1-4.2c1.8-10.7,12.6-17.3,23.8-17C436,231.4,446.9,242.5,443.6,256.9z"/><path fill="#BCBCBC" d="M293.9,182.3c-6.5-3.4-14.7-3.8-21.8-4.9c-12.2-1.9-24.5-3.5-36.8-3.6c-6.8,0-14,0-20.6,1.8c-2.6,0.7-5.2,1.5-7.4,3.1c-1.2,0.9-1.9,1.9-2.2,3c0.1,0.9-0.1,1.8-0.6,2.8c-1.8,3.6,0.5,9.1,1.5,12.7c1.4,5.1,2.2,10.4,3.5,15.6c1.5,5.9,3.2,11.8,4.8,17.7c1,3.7,1.7,7.9,3.9,11.1c3.3,4.9,9.6,4.9,15,5c12.3,0.2,24.6,0,36.9,0c1.3,0,2.3,0.4,3.2,0.9c6.6-0.5,13.1-2.5,17.4-7.6c7.2-8.6,8-22.1,8.3-32.8C299.1,200.2,301.8,186.4,293.9,182.3z"/><path fill="#127274" d="M259.5,110.4c-2.3-1.7-5.4-2.9-8.4-3.4c-5.4-0.9-10.2-0.1-11.7,4.7c2.5-0.1,4.9-0.1,7.2-0.1c4,0,8.7-0.5,13.4-0.8C259.9,110.7,259.7,110.5,259.5,110.4z"/><path fill="#F6851F" d="M422,241.8c-6.8,0-13.9,3-13,10.9c0.4,3.1-1.5,4.9-3.8,5.5c3.2,9.6,24.9,8.3,27.4-2.6C434.3,248,430.3,241.8,422,241.8z"/><path d="M486.9,302.5c-5.9-27.8-12.3-56.1-22.7-82.6c-8.4-21.2-20-41.3-36.2-57.5c-17.4-17.3-40.2-27.8-64.4-31c-24.6-3.2-49.7-0.6-74.5,1.4c0.7-7.7-6-15.7-12.1-19.3c-1.5-0.9-3-1.5-4.7-1.9c-0.4-7-9.4-13.3-19.1-15.3c-0.1-0.3-0.2-0.7-0.4-1.1c-4.7-9.8,10.9-20.7,18.4-23.8c13-5.4,27.3-3.4,40.6-0.7c7.6,1.6,14.9,3.4,22.7,3.7c8.3,0.4,15.9-2.7,23.1-6.5c5.9-3.2,11.9-7.7,15.6-13.4c1.4-2.2,2.6-4.9,3.9-7.4c1.8,0.6,4,0.4,5.6-1.5c3.4-3.9,4.6-8.3,1.4-12.7c-1.8-2.6-5-3-7.6-1.5c-5.3,3.1-8,8.6-10.7,13.9c-3.7,7.2-10.6,11.8-17.9,15.1c-15.8,7.3-33.4-1.6-49.6-3.1c-14-1.4-29.2,0.7-40.8,9.1c-8.7,6.2-19.3,18.2-16.1,29.6c-6.9,1.5-12.5,6.3-13.2,15.9c0,0.2,0,0.5,0,0.7c-10.7,2-20.2,7-22,19.3c-0.1,0.8-0.1,1.5,0.1,2.2c-11-0.3-22-0.6-33-0.7c-21.7-0.3-43.5,1.2-64.3,7.5c-16.9,5.1-32.4,13.9-47.2,23.3c-2.4-0.9-5.4-0.4-7,2.4c-7.2,12.7-13.1,25.7-17.2,39.7c-4,14-5.9,28.6-7.6,43.1c-1.8,14.8-3.3,29.6-6.3,44.2c-1.9,9.4-4.7,18.7-7.3,27.9C11,340.3,6,359.2,4.2,378.7c-1.8,18.3-0.8,37.8,9,53.8c9.3,15.2,28.2,25.1,45.9,24.4c17.2-0.6,31.5-12.7,41.9-25.3c11.9-14.3,20.6-31.1,28.6-47.8c7.9-16.6,14.4-34.8,27.3-48.3c18.9-19.7,51.3-18.6,76.5-17.8c14.7,0.5,29.4,1.8,44,3.9c13.9,2,27.8,4.9,40.6,10.7c25.4,11.5,41.1,36.6,59,56.8c11.3,12.9,24.8,24,39.3,33.2c13.6,8.7,31,16.9,47.6,13.6c20.7-4.1,29.4-24.8,32.4-43.7C500.9,362.6,493.1,331.6,486.9,302.5z M251.1,107c2.9,0.5,6.1,1.7,8.4,3.4c0.2,0.1,0.4,0.3,0.5,0.5c-4.7,0.2-9.4,0.8-13.4,0.8c-2.3,0-4.7,0-7.2,0.1C240.9,106.9,245.7,106.1,251.1,107z M243.5,122.6c6.9,0,13.7-0.3,20.5-0.4c3.5-0.1,7,0.2,9.8,2.5c1.7,1.4,5.2,5.7,3.8,8c-0.2,0.3-0.4,0.7-0.5,1c-2.7,0.2-5.5,0.3-8.2,0.5c-16.8,0.8-33.5,0.7-50.2,0.4c0.2-1.3-0.1-2.8-0.7-4C222.2,122.4,235.3,122.6,243.5,122.6z M485.9,386.7c-1.9,17.6-9.1,38.9-29.9,39.1c-16.5,0.1-33-11.2-45.6-20.7c-15.9-12.1-28.6-26.7-41.3-42.1c-8.7-10.5-17.7-20.8-28.3-29.3c-10.8-8.6-23.3-14.1-36.5-17.8c-27.6-7.8-57.9-9.5-86.4-9.3c-25.9,0.2-52.7,3.6-71.1,23.6c-12.6,13.7-19.2,32.2-27.1,48.8c-7.9,16.5-16.5,33.1-28.4,47.1C81.2,438,67.4,448.3,51,445.5c-17.9-3.1-30.4-16.9-34.7-34c-4.6-18.4-1.1-38.7,2.8-56.8C23,336.6,29,319,33.3,301c6.8-28.8,6.8-58.7,13.7-87.5c3.1-12.8,8.2-24.7,14.3-36.2c0.4-0.2,0.9-0.4,1.3-0.6c11.9-7.7,24-15.1,37.1-20.7c14-6,28.8-9,43.9-10.5c31.6-3.1,63.6,0.7,95.3,0.5c16.1-0.1,32.2-0.8,48.2-1.7c15.8-0.9,31.5-2.6,47.4-3.1c27.3-0.8,53.9,3.9,76,20.7c40.7,30.9,52.7,86,63.4,133c3.5,15.3,6.7,30.7,9.3,46.1C485.9,356.1,487.5,371.5,485.9,386.7z"/><path d="M174,211.5c-3.8-6.7-10.9-7.8-17.9-7.9c-4,0-7.8,0.3-11.8,0.7c-1,0.1-2,0.1-2.9,0c-0.1-0.1-0.1-0.2-0.2-0.4c-1.8-4-1.8-8.9-2.7-13.2c-1.3-5.9-3.2-11.7-4.8-17.4c-0.7-2.3-3.3-4-5.6-3.7c-11.7,1.4-29.3-1.2-32.8,13.8c-1.3,5.6,0.9,11.8,1.2,17.4c0.2,3.9,0,7.9,0.7,11.8c-4.2,1.3-8.1,3.1-12.1,5.1c-5,2.5-10.4,4.7-15,7.8c-8.5,5.8-5.3,14.5-1.5,22c2.4,4.6,5.3,8.8,10.5,10.6c4.9,1.7,10.1,1,15.1,1.7c10.5,1.6,10.9,15.2,11.9,23.7c0.3,2.2,2,4.8,4.4,5c11.7,1,24,0.4,34.9-4.2c1.7-0.7,3.3-2.2,3.6-4.1c1.1-9.3-1.6-20.3,1.8-29.2c1.1-0.5,2.3-0.8,3.4-1.2c2.7-0.8,5.5-1.3,8.3-1.8c5.3-1,10.8-1.7,15.9-3.7c2.4-1,3.7-3,3.7-5.6C182.1,229.7,178.4,219.3,174,211.5z M157.9,237.8c-5.1,1-13.3,2-16.2,6.9c-5.2,8.8-2.7,20.5-3.2,30.5c-7,2.3-14.5,3.1-21.9,2.8c-1-7.4-2.5-15-6.7-21.2c-5.5-8.1-15.5-7.8-24.1-8.4c-4.9-0.4-6.5-4-8.5-8c-0.7-1.5-1.4-3.1-1.8-4.7c-0.1-0.3,0.1-0.5,0.2-0.5c3.3-2.9,7.9-4.4,11.8-6.4c4.6-2.4,9.6-5.2,14.7-6.2c1.8-0.4,3.1-1.4,3.8-2.7c2.4-1.5,4-4.7,2.3-7.9c-1.3-2.5-0.5-7.9-0.6-10.7c-0.1-4.2-0.9-8.3-1.4-12.5c-0.5-4.8,1.9-6.3,6.4-7c4-0.6,8-0.6,12-0.8c1,3.4,2,6.7,2.9,10.1c1.3,4.9,1.7,9.9,2.9,14.7c1.7,6.6,6.6,9.6,13.1,9.6c6.1,0,14-2.7,19.8,0.3c2.9,1.5,3.8,7.4,4.8,10c1.1,3.2,2.2,6.4,2.7,9.7C166.5,236.4,162.1,236.9,157.9,237.8z"/><path d="M120.2 184c-1.2-1-2.5-1.4-4.1-1.4h-1c-1.4 0-2.8.9-3.7 1.9-1 1.1-1.5 2.6-1.4 4.1.1 1.4.8 2.8 1.9 3.7 1.2 1 2.5 1.4 4.1 1.4h1c1.4 0 2.8-.9 3.7-1.9 1-1.1 1.5-2.6 1.4-4.1C121.9 186.3 121.3 185 120.2 184zM156.2 219c-1.2-1-2.5-1.4-4.1-1.4h-1c-1.4 0-2.8.9-3.7 1.9-1 1.1-1.5 2.6-1.4 4.1.1 1.4.8 2.8 1.9 3.7 1.2 1 2.5 1.4 4.1 1.4h1c1.4 0 2.8-.9 3.7-1.9 1-1.1 1.5-2.6 1.4-4.1C157.9 221.3 157.3 220 156.2 219zM130.2 261c-.3-.2-.6-.4-.9-.6-.3-.5-.7-1-1.1-1.4-1.1-1-2.6-1.5-4.1-1.4-1.4.1-2.8.8-3.7 1.9-1 1.2-1.4 2.5-1.4 4.1 0 1.9.8 4.3 2.5 5.5 1 .7 1.9 1.3 3.2 1.5.7.1 1.5.1 2.2.1 1.4 0 2.8-.9 3.7-1.9 1-1.1 1.5-2.6 1.4-4.1C131.9 263.3 131.3 262 130.2 261zM92.1 233.7c-7.1 0-6.2 11 .8 11C100.1 244.6 99.2 233.7 92.1 233.7zM382.9 185c-11.7-2.2-21 7.5-23.3 18.1-1.9.4-3.7 1.7-4.4 4-3.1 9.7 7 15.6 15.1 16.9 9.6 1.5 20.4-1.4 25.5-10.2C402 203.2 394.7 187.2 382.9 185zM385.2 209.9c-2.8 3.3-8.7 3.8-12.8 3.3-1.4-.2-3-.6-4.2-1.1 1.2-1 2-2.4 1.9-4.4-.2-6.1 4.8-13 11.6-11.8C387.2 197 388.1 206.5 385.2 209.9zM344.4 232.6c-11.6-1.8-20.7 5.7-23.5 15.9-.9.4-1.7 1.2-2.3 2.2-6.2 10.5 4 18.9 13.2 21.7 10.4 3.1 23.3-.6 27.6-11.3C364.3 248.8 357.9 234.6 344.4 232.6zM349.3 257c-2.2 5.5-8.9 6-13.9 5-2.4-.5-4.5-1.4-6.2-2.9 1.2-1 1.9-2.4 1.9-4.3-.1-6.5 4.3-12 11.2-11.3C349.1 244.1 351.7 251 349.3 257zM422 230.9c-11.2-.4-21.9 6.2-23.8 17-1.9.3-3.7 1.7-4.1 4.2-2 13.2 8.3 22.2 20.7 23.4 12.8 1.2 25.8-5.3 28.7-18.6C446.9 242.5 436 231.4 422 230.9zM432.6 255.7c-2.4 10.9-24.2 12.2-27.4 2.6 2.3-.6 4.2-2.5 3.8-5.5-.9-7.9 6.1-10.9 13-10.9C430.3 241.8 434.3 248 432.6 255.7zM305.9 178.6c-5.2-7.8-15.5-9.3-24-10.7-15.4-2.4-30.8-4.7-46.4-5-12.6-.3-35.1-.1-40.5 14.5-.3.9-.6 1.8-.8 2.7-.1.4-.1.7-.1 1.1-1.6 4.3-1 9 0 13.5 1.3 5.5 2.6 11 3.8 16.5 1.6 7.1 3.6 14.1 5.5 21.2 1.4 5.1 2.6 10 5.2 14.7 3.9 7.1 11.7 9.7 19.3 10.3 11.6.9 23.5.5 35.2.4.8.5 1.8.9 2.9.9 10.8.6 22-1.4 30.4-8.8 9.7-8.6 12.1-22.4 13.1-34.8.6-7.1.6-14.2.6-21.3C310.1 188.4 308.9 183.1 305.9 178.6zM299 207.2c-.3 10.8-1 24.2-8.3 32.8-4.3 5.1-10.8 7.1-17.4 7.6-.9-.6-1.9-.9-3.2-.9-12.3 0-24.6.1-36.9 0-5.4-.1-11.7-.1-15-5-2.2-3.2-2.9-7.4-3.9-11.1-1.6-5.9-3.3-11.8-4.8-17.7-1.3-5.2-2.1-10.4-3.5-15.6-1-3.6-3.3-9.1-1.5-12.7.5-1 .7-2 .6-2.8.3-1.1 1-2 2.2-3 2.1-1.6 4.8-2.4 7.4-3.1 6.6-1.8 13.8-1.8 20.6-1.8 12.3.1 24.7 1.7 36.8 3.6 7.1 1.1 15.3 1.5 21.8 4.9C301.8 186.4 299.1 200.2 299 207.2z"/></svg>