<svg xmlns="http://www.w3.org/2000/svg"  viewBox="0 0 64 64" width="64px" height="64px"><path fill="#f6d397" d="M43 22A18 18 0 1 0 43 58A18 18 0 1 0 43 22Z"/><path fill="#f9e3ae" d="M43 27A13 13 0 1 0 43 53A13 13 0 1 0 43 27Z"/><path fill="#ffefca" d="M49.419 28.706c-.241-.14-.49-.266-.739-.389L31.315 45.658c.124.251.251.501.391.744.471.843 1.04 1.627 1.687 2.345l18.361-18.353C51.042 29.746 50.26 29.176 49.419 28.706zM44.739 27.122C44.163 27.04 43.582 26.999 43 27c-.256 0-.505.024-.757.038L32.25 37l-2.21 2.21C30.024 39.473 30 39.733 30 40c.006 1.069.148 2.13.406 3.164l15.769-15.769C45.702 27.277 45.223 27.185 44.739 27.122zM55.402 36.097c-.12-.383-.258-.758-.412-1.125-.006-.015-.011-.03-.018-.044-.312-.734-.693-1.431-1.128-2.089-.068-.102-.14-.201-.211-.302-.082-.116-.17-.228-.255-.341L52.4 33.17 35.203 50.385C37.377 52.019 40.071 53 43 53l13-13c0-1.333-.202-2.619-.575-3.83C55.417 36.145 55.41 36.121 55.402 36.097z"/><path fill="#efd8be" d="M38,6l2.931,6.449C42.295,15.448,43,18.705,43,21.999L36,23L23,6c2.333-0.667,4-1,7-1C35,5,38,6,38,6 z"/><path fill="#8d6c9f" d="M43,59c-10.477,0-19-8.523-19-19s8.523-19,19-19s19,8.523,19,19S53.477,59,43,59z M43,23 c-9.374,0-17,7.626-17,17s7.626,17,17,17s17-7.626,17-17S52.374,23,43,23z"/><path fill="#8d6c9f" d="M44,39v-3c0-0.552-0.448-1-1-1s-1,0.448-1,1v3c-1.105,0-2-0.895-2-2v-1c0-1.105,0.895-2,2-2h2 c1.105,0,2,0.895,2,2c0,0.552,0.448,1,1,1s1-0.448,1-1c0-2.209-1.791-4-4-4v-1c0-0.552-0.448-1-1-1s-1,0.448-1,1v1 c-2.209,0-4,1.791-4,4v1c0,2.209,1.791,4,4,4h2c1.105,0,2,0.895,2,2v1c0,1.105-0.895,2-2,2v-3c0-0.552-0.448-1-1-1s-1,0.448-1,1v3 c-1.105,0-2-0.895-2-2c0-0.552-0.448-1-1-1s-1,0.448-1,1c0,2.209,1.791,4,4,4c0,0.376,0,0.767,0,1c0,0.552,0.448,1,1,1s1-0.448,1-1 c0-0.118,0-0.561,0-1c2.209,0,4-1.791,4-4v-1C48,40.791,46.209,39,44,39z"/><path fill="#8d6c9f" d="M43,54c-7.72,0-14-6.28-14-14s6.28-14,14-14c0.363,0,0.72,0.026,1.077,0.054 c0.55,0.042,0.963,0.523,0.92,1.074c-0.042,0.55-0.51,0.959-1.074,0.92C43.618,28.024,43.312,28,43,28c-6.617,0-12,5.383-12,12 s5.383,12,12,12s12-5.383,12-12c0-2.785-0.983-5.501-2.769-7.649c-0.353-0.425-0.295-1.055,0.13-1.408 c0.423-0.353,1.055-0.295,1.408,0.13C55.853,33.579,57,36.749,57,40C57,47.72,50.72,54,43,54z"/><path fill="#8d6c9f" d="M49.999,30.062c-0.185,0-0.371-0.051-0.539-0.158c-0.612-0.392-1.233-0.72-1.845-0.976 c-0.51-0.212-0.751-0.798-0.538-1.308c0.213-0.511,0.798-0.753,1.308-0.538c0.72,0.3,1.445,0.683,2.155,1.137 c0.465,0.298,0.601,0.917,0.303,1.382C50.651,29.899,50.329,30.062,49.999,30.062z"/><path fill="#faefde" d="M33.485,36.485c4.235-4.235,4.643-10.848,1.224-15.541C34.345,20.444,23,6,23,6s-6,4-11,9S3,26,3,26 s14.444,11.345,14.945,11.709C22.638,41.128,29.25,40.72,33.485,36.485z"/><path fill="#8d6c9f" d="M43 23c-.552 0-1-.448-1-1 0-3.173-.666-6.248-1.979-9.137L37.09 6.414c-.229-.502-.006-1.095.497-1.324.499-.229 1.095-.007 1.324.497l2.931 6.449C43.274 15.186 44 18.539 44 22 44 22.552 43.552 23 43 23zM25.004 41.023c-2.664 0-5.341-.825-7.648-2.506-.5-.364-13.494-10.568-14.974-11.73-.435-.341-.51-.97-.169-1.404.341-.435.969-.51 1.404-.169C7.624 28.36 18.113 36.594 18.533 36.9c4.398 3.204 10.389 2.732 14.245-1.122 3.855-3.855 4.327-9.846 1.123-14.245-.307-.42-8.541-10.91-11.688-14.916-.341-.435-.266-1.063.169-1.404.434-.34 1.063-.265 1.404.169 1.162 1.48 11.366 14.473 11.731 14.974 3.788 5.199 3.231 12.28-1.325 16.836C31.658 39.727 28.342 41.023 25.004 41.023z"/><path fill="#fff" d="M31.74,26.105c-0.216-0.792-0.573-1.553-1.076-2.242c-0.057-0.076-0.686-0.87-5.11-6.363 c-0.768-0.953-1.909-1.5-3.13-1.5c-0.809,0-1.59,0.244-2.259,0.704c-1.124,0.775-2.299,1.773-3.493,2.967l0.039,0.039l-0.039-0.027 c-1.194,1.194-2.192,2.369-2.967,3.493C13.244,23.846,13,24.627,13,25.436c0,1.221,0.547,2.362,1.5,3.13 c5.493,4.424,6.288,5.053,6.363,5.11c0.689,0.502,1.45,0.86,2.242,1.076c2.375,0.647,5.025,0.02,6.84-1.794c0,0,0,0,0,0 l-0.026-0.038l0.026,0.026c0,0,0,0,0,0C31.76,31.13,32.387,28.48,31.74,26.105z"/><path fill="#e4eaf4" d="M31.74,26.105c-0.216-0.792-0.573-1.553-1.076-2.242c-0.057-0.076-0.686-0.87-5.11-6.363 c-0.768-0.953-1.909-1.5-3.13-1.5c-0.809,0-1.59,0.244-2.259,0.704c-0.073,0.05-3.467,2.868-3.54,2.921 c2-0.625,4.59-1.173,5.832,0.375c2.392,2.982,5.96,7.428,8.834,11.008C32.014,29.48,32.183,27.731,31.74,26.105z"/><path fill="#8d6c9f" d="M24.976,36.019c-1.688,0-3.301-0.525-4.666-1.519c-0.216-0.163-2.498-1.995-6.438-5.168 c-1.692-1.363-2.307-3.649-1.527-5.689c0.197-0.516,0.773-0.774,1.291-0.577c0.516,0.197,0.774,0.775,0.577,1.291 c-0.461,1.208-0.085,2.613,0.914,3.418c5.625,4.529,6.301,5.063,6.375,5.119c1.172,0.854,2.651,1.244,4.09,1.094 c1.383-0.142,2.644-0.747,3.646-1.75c1.52-1.521,2.109-3.77,1.537-5.87c-0.189-0.695-0.499-1.339-0.919-1.917 c-0.033-0.042-0.479-0.612-5.081-6.324c-0.958-1.189-2.784-1.468-4.042-0.6c-1.074,0.74-2.202,1.7-3.354,2.851l-0.306,0.318 c-0.387,0.396-1.019,0.404-1.414,0.02c-0.396-0.385-0.405-1.019-0.02-1.414l0.326-0.338c1.237-1.237,2.459-2.275,3.633-3.083 C20.434,15.305,21.411,15,22.424,15c1.525,0,2.95,0.683,3.909,1.873c4.422,5.49,5.061,6.296,5.13,6.389 c0.573,0.787,0.988,1.651,1.242,2.581c0.761,2.791-0.026,5.783-2.052,7.81c-1.332,1.332-3.011,2.136-4.856,2.325 C25.525,36.005,25.251,36.019,24.976,36.019z"/></svg>