<svg xmlns="http://www.w3.org/2000/svg"  viewBox="0 0 48 48" width="64px" height="64px"><path fill="#c56528" d="M29.137,8.598c0.101,0.541,0.729,0.798,1.276,0.863c1.421,0.17,3.58-0.287,4.888,0.294 c1.06,0.471,1.858,2.563,2.034,3.709c0.042,0.274,0.326,0.499,0.603,0.51c0,0,0.756-1.075,1.561-0.147s-0.051,2.933,1.098,2.322 c1.149-0.611,1.91-1.524,1.345-4.647s-0.465-5.861-4.696-6.868S30.052,6.794,29.137,8.598z"/><path fill="#fcbf95" d="M41.493,15.91c-0.065,1.303-0.195,3.092,0.318,4.292c0.642,1.501,2.07,2.558,3.702,2.61 c0.154,0.005,0.368,0.065,0.343,0.218c-0.119,6.717-0.258,15.725-0.377,22.442c-5.976,0.631-12.867,0.255-18.842-0.389 c-0.991-1.828-2.176-5.035-3.167-6.863c-0.45-0.83-0.901-1.663-1.256-2.538c-0.444-1.094-0.734-2.24-0.861-3.413 c-1.634,1.678-4.82,2.173-7.201,2.322s-4.765-0.395-6.982-1.246c-1.586-0.609-3.211-1.477-3.935-2.968 c-0.516-1.062-0.495-2.288-0.395-3.457c0.418-4.924,2.125-9.936,4.818-14.138c1.574-1.489,3.449-2.932,5.417-3.892 c0.297-0.145,0.61-0.286,0.943-0.291c0.722-0.01,1.599,0.699,2.103,1.198c0.476,0.471,1.588,1.61,1.633,1.842 c0.042,0.214-0.093,0.42-0.222,0.599c-0.449,0.626-0.804,1.059-1.398,1.56c-0.594,0.501-1.351,0.865-2.14,0.847 c-0.599-0.013-1.172-0.241-1.769-0.296s-1.81,0.478-2.076,1.686c-0.42,1.908,0.131,3.865,0.448,5.792s0.364,3.953-1.056,5.627 c1.127-1.358,2.737-3.155,4.387-3.847s3.502-0.588,5.055,0.3c0,0,1.5-2.351,4.533-2.301c3.033,0.05,2.247,1.455,4.058,1.633 c1.811,0.178,2.073-1.282,1.565-1.942c-0.508-0.66,0.442-2.803,0.442-2.803s-2.234-0.162-1.916-1.5 c0.318-1.338,0.97-3.458,1.035-4.175c0.065-0.717-0.133-3.129,0.284-3.95c0.434,0.198,1.38,0.743,3.923,0.585 c2.543-0.157,3.659,0.917,4.271,3.295c0.235,0.912,0.62,0.877,1.435,0.75c0.815-0.127,1.656,1.021,1.369,2.091 S41.493,15.91,41.493,15.91z"/><path fill="#f26322" d="M24.047,38.991c0.993-0.962,1.42-2.098,1.909-3.391c1.533-4.053,2.31-8.028,2.28-12.361 c0,0,1.444-1.672,3.082-0.596c0.325,2.497,2.304,4.739,4.864,5.511c2.56,0.772,5.567,0.033,7.391-1.816 c0.877-0.889,1.475-1.981,2.062-3.058l-0.153,21.983c0,0-2.625,1.671-18.983-0.437C26.016,43.831,24.047,38.991,24.047,38.991z"/><path fill="#010101" d="M30.541,14.122c-0.17,0-0.335-0.087-0.429-0.242c-0.142-0.237-0.065-0.544,0.171-0.687 c0.595-0.356,1.362-0.414,2.002-0.148c0.255,0.105,0.376,0.398,0.271,0.653c-0.106,0.255-0.4,0.377-0.653,0.271 c-0.354-0.148-0.777-0.116-1.105,0.082C30.717,14.099,30.628,14.122,30.541,14.122z"/><path fill="#010101" d="M38.07,18.995c-0.248,0-0.428-0.078-0.549-0.159c-0.419-0.283-0.539-0.848-0.472-1.281 c0.042-0.272,0.297-0.459,0.57-0.418c0.273,0.042,0.46,0.297,0.418,0.57c-0.02,0.126,0.016,0.257,0.045,0.299 c0-0.011,0.045-0.014,0.116-0.034c0.578-0.173,0.791-0.734,1.074-1.639l0.049-0.154c0.117-0.371,0.231-0.807,0.189-1.223 c-0.038-0.374-0.212-0.692-0.466-0.853c-0.238-0.148-0.586-0.138-0.745,0.029c-0.192,0.198-0.508,0.206-0.707,0.014 c-0.199-0.19-0.206-0.508-0.015-0.707c0.492-0.513,1.351-0.592,1.999-0.182c0.513,0.322,0.86,0.92,0.929,1.598 c0.061,0.6-0.091,1.184-0.231,1.624l-0.048,0.152c-0.273,0.874-0.613,1.961-1.741,2.298C38.33,18.976,38.192,18.995,38.07,18.995z"/><path fill="#010101" d="M37.939,14.476c-0.007,0-0.015,0-0.021,0c-0.526-0.022-0.999-0.434-1.076-0.936 c-0.172-1.117-0.937-2.969-1.744-3.327c-0.714-0.317-1.801-0.275-2.85-0.237c-0.681,0.026-1.325,0.05-1.895-0.019 c-0.929-0.11-1.583-0.597-1.708-1.267c-0.05-0.271,0.129-0.533,0.4-0.583c0.27-0.051,0.532,0.128,0.583,0.399 c0.046,0.251,0.47,0.413,0.844,0.458C30.963,9.022,31.57,9,32.211,8.977c1.165-0.044,2.368-0.09,3.293,0.322 c1.361,0.604,2.167,3.062,2.326,4.09c0.009,0.028,0.078,0.085,0.129,0.087c0.276,0.012,0.49,0.245,0.479,0.521 C38.427,14.266,38.205,14.476,37.939,14.476z"/><path fill="#010101" d="M31.092,22.915c-0.171,0-0.327-0.005-0.46-0.016c-0.519-0.041-1.229-0.098-1.769-0.547 c-0.46-0.382-0.728-1.006-0.733-1.711c-0.004-0.429,0.261-1.232,0.529-1.831c-0.021-0.004-0.043-0.008-0.064-0.012 c-0.288-0.053-0.585-0.107-0.812-0.2c-0.124-0.05-0.311-0.125-0.462-0.29c-0.338-0.366-0.246-0.87-0.207-1.085 c0.082-0.455,0.166-0.928,0.3-1.401l0.078-0.271c0.166-0.578,0.476-1.655,0.517-2.077c0.024-0.253,0.008-0.508-0.005-0.762 l-0.013-0.269c-0.081-1.993,0.119-3.494,1.378-5.263c1.901-2.732,5.939-3.808,9.391-2.499c0.687,0.262,1.224,0.579,1.644,0.972 c0.772,0.721,1.166,1.703,1.45,2.569c0.466,1.424,0.765,2.902,0.888,4.396c0.063,0.771,0.084,1.669-0.238,2.492 c-0.378,0.968-1.2,1.642-2.095,1.717c-0.266,0.026-0.517-0.181-0.54-0.456s0.181-0.517,0.456-0.54 c0.589-0.05,1.051-0.58,1.248-1.084c0.247-0.633,0.229-1.357,0.172-2.047c-0.116-1.416-0.399-2.818-0.841-4.167 c-0.245-0.745-0.576-1.584-1.183-2.15c-0.323-0.302-0.754-0.553-1.316-0.768c-3.035-1.15-6.568-0.231-8.218,2.14 c-1.102,1.548-1.271,2.827-1.197,4.647l0.013,0.254c0.016,0.293,0.033,0.597,0.002,0.912c-0.046,0.475-0.297,1.376-0.551,2.258 l-0.077,0.267c-0.121,0.426-0.201,0.874-0.278,1.307c-0.029,0.161-0.028,0.227-0.023,0.253c0-0.017,0.051,0.006,0.083,0.018 c0.133,0.054,0.391,0.102,0.618,0.144c0.288,0.053,0.585,0.107,0.812,0.2c0.143,0.058,0.25,0.178,0.292,0.325 c0.042,0.147,0.015,0.307-0.076,0.432c-0.223,0.308-0.678,1.509-0.675,1.86c0.003,0.404,0.142,0.76,0.372,0.95 c0.275,0.229,0.71,0.28,1.209,0.32c0.854,0.067,2.885-0.143,3.68-0.382c0.857-0.258,2.641-0.794,2.643-3.709 c0-0.276,0.224-0.5,0.5-0.5c0,0,0,0,0,0c0.276,0,0.5,0.225,0.5,0.5c-0.002,3.659-2.526,4.417-3.355,4.666 C33.891,22.716,32.176,22.915,31.092,22.915z"/><path fill="#010101" d="M19.097,24.214c-0.085,0-0.171-0.021-0.25-0.067c-0.239-0.138-0.321-0.443-0.183-0.683 c0.978-1.692,2.55-2.509,4.857-2.464c1.065,0.017,1.959,0.531,2.825,1.03c0.408,0.235,0.793,0.457,1.192,0.627 c0.038,0.017,0.074,0.037,0.107,0.063c0.022,0.019,0.089,0.029,0.189,0.008c0.379-0.068,0.872-0.438,1.043-0.712 c0.147-0.233,0.456-0.304,0.689-0.158c0.234,0.146,0.305,0.455,0.159,0.689c-0.297,0.474-1.019,1.039-1.712,1.165 c-0.431,0.079-0.729-0.033-0.917-0.156c-0.435-0.19-0.849-0.429-1.25-0.659c-0.79-0.455-1.536-0.884-2.341-0.896 c-1.904-0.035-3.184,0.595-3.975,1.964C19.438,24.124,19.27,24.214,19.097,24.214z"/><path fill="#010101" d="M24.046,39.491c-0.13,0-0.261-0.051-0.359-0.152c-0.192-0.198-0.187-0.515,0.012-0.707 c0.909-0.88,1.314-1.952,1.784-3.192c1.568-4.148,2.283-8.019,2.253-12.196c-0.002-0.276,0.22-0.502,0.497-0.504 c0.001,0,0.002,0,0.003,0c0.274,0,0.498,0.222,0.5,0.496c0.03,4.306-0.705,8.291-2.312,12.542c-0.497,1.313-0.96,2.537-2.03,3.573 C24.297,39.444,24.172,39.491,24.046,39.491z"/><path fill="#010101" d="M38.297,28.96c-0.763,0-1.526-0.106-2.261-0.328c-2.767-0.834-4.863-3.215-5.215-5.925 c-0.036-0.273,0.157-0.524,0.431-0.561c0.274-0.04,0.524,0.157,0.56,0.432c0.298,2.29,2.153,4.386,4.512,5.097 c2.373,0.716,5.206,0.021,6.891-1.688c0.833-0.844,1.416-1.912,1.979-2.946c0.133-0.243,0.437-0.331,0.678-0.2 c0.243,0.133,0.332,0.437,0.2,0.679c-0.597,1.095-1.214,2.227-2.146,3.171C42.486,28.15,40.396,28.96,38.297,28.96z"/><path fill="#010101" d="M38.722,46.299c-3.644,0-7.703-0.24-12.14-0.718c-0.163-0.018-0.308-0.114-0.386-0.259 c-0.506-0.933-1.063-2.223-1.602-3.47c-0.531-1.229-1.08-2.498-1.565-3.394c-0.457-0.843-0.917-1.694-1.28-2.589 c-0.346-0.854-0.602-1.736-0.764-2.637c-1.466,1.043-3.748,1.666-6.804,1.856c-2.202,0.14-4.623-0.292-7.192-1.278 c-1.396-0.536-3.349-1.453-4.205-3.216c-0.568-1.17-0.549-2.479-0.444-3.718c0.425-5.002,2.164-10.104,4.895-14.366 c0.022-0.034,0.048-0.065,0.077-0.094c1.822-1.724,3.738-3.099,5.542-3.978c0.346-0.169,0.72-0.335,1.155-0.342 c0.958,0.002,1.948,0.835,2.461,1.342c1.688,1.667,1.747,1.972,1.772,2.102c0.086,0.44-0.169,0.796-0.306,0.986 c-0.472,0.658-0.848,1.117-1.482,1.651c-0.759,0.641-1.629,0.983-2.473,0.966c-0.381-0.009-0.733-0.088-1.074-0.165 c-0.241-0.055-0.483-0.11-0.729-0.133c-0.333-0.021-1.328,0.32-1.542,1.295c-0.318,1.442-0.042,2.918,0.25,4.48 c0.07,0.375,0.141,0.75,0.202,1.123c0.166,1.004,0.274,2.088,0.115,3.161c0.791-0.743,1.648-1.392,2.529-1.761 c1.655-0.695,4.754-0.851,6.467,0.977c0.189,0.201,0.179,0.518-0.023,0.707c-0.201,0.188-0.517,0.18-0.707-0.023 c-1.24-1.322-3.743-1.412-5.351-0.738c-1.492,0.626-2.982,2.25-4.127,3.623c-0.023,0.028-0.047,0.058-0.072,0.086 c-0.178,0.21-0.492,0.237-0.703,0.06c-0.211-0.177-0.239-0.49-0.063-0.702c0.021-0.025,0.042-0.051,0.064-0.077 c1.267-1.555,1.159-3.474,0.884-5.149c-0.061-0.366-0.129-0.733-0.198-1.102c-0.298-1.592-0.606-3.237-0.244-4.879 c0.322-1.462,1.745-2.151,2.609-2.076c0.29,0.026,0.574,0.089,0.859,0.153c0.307,0.069,0.596,0.135,0.876,0.141 c0.583-0.011,1.233-0.247,1.807-0.729c0.557-0.471,0.88-0.864,1.314-1.47c0.085-0.119,0.131-0.197,0.136-0.232 c-0.069-0.084-0.765-0.844-1.493-1.563c-0.653-0.646-1.308-1.063-1.744-1.053c-0.228,0.003-0.476,0.115-0.73,0.24 c-1.7,0.828-3.513,2.129-5.249,3.764c-2.626,4.118-4.298,9.037-4.708,13.859c-0.093,1.098-0.115,2.244,0.347,3.196 c0.702,1.445,2.427,2.244,3.664,2.72c2.434,0.935,4.713,1.347,6.771,1.214c3.314-0.207,5.691-0.958,6.874-2.172 c0.136-0.14,0.339-0.187,0.521-0.124c0.183,0.063,0.313,0.227,0.334,0.419c0.121,1.122,0.399,2.226,0.827,3.279 c0.342,0.843,0.789,1.67,1.222,2.469c0.517,0.954,1.075,2.245,1.614,3.493c0.486,1.125,0.987,2.285,1.441,3.159 c7.042,0.745,13.105,0.884,18.033,0.404c0.058-3.26,0.119-7.021,0.181-10.781c0.063-3.818,0.125-7.637,0.184-10.931 c-1.751-0.132-3.292-1.255-4-2.909c-0.527-1.232-0.439-2.916-0.37-4.27l0.012-0.243c0.014-0.276,0.245-0.503,0.524-0.475 c0.276,0.014,0.488,0.248,0.475,0.523l-0.013,0.246c-0.061,1.184-0.145,2.806,0.291,3.825c0.58,1.356,1.859,2.263,3.257,2.307 c0.137,0.005,0.479,0.042,0.686,0.294c0.117,0.143,0.166,0.323,0.135,0.506c-0.053,3.284-0.117,7.213-0.182,11.143 c-0.065,3.933-0.129,7.866-0.189,11.227c-0.004,0.253-0.196,0.462-0.447,0.488C43.459,46.188,41.185,46.299,38.722,46.299z M45.355,23.021c-0.004,0.019-0.004,0.038-0.001,0.058C45.355,23.06,45.355,23.041,45.355,23.021z"/><path fill="#010101" d="M13.988,29.737c-0.331,0-0.661-0.017-0.991-0.05c-0.275-0.027-0.475-0.272-0.448-0.547 c0.028-0.274,0.276-0.474,0.547-0.447c1.52,0.149,3.058-0.088,4.454-0.694c0.254-0.107,0.548,0.007,0.658,0.26 c0.11,0.253-0.006,0.548-0.259,0.658C16.7,29.459,15.348,29.737,13.988,29.737z"/></svg>