<svg xmlns="http://www.w3.org/2000/svg"  viewBox="0 0 512 512" width="64px" height="64px"><path fill="#74CCCF" d="M422.5,358.7c-3-23.3-16.1-42.8-35.9-55.3c-21-13.2-46.5-22.5-71.6-21.8c-24.2,0.6-45.3,12-60.9,30.3c-14.9,17.6-25.4,41.6-16.6,64.4c0.6,1.6,0.5,3.1-0.1,4.2c0.8,4.5,2.1,9,3.6,13.3c4.2,11.5,10.4,22.6,18,32.6c3.6-9.4,13.5-12.4,22.8-13c5.1-0.4,10.3-0.3,15.4-0.7c4.1-0.3,9-0.5,12.5-3c9.8-7,4.6-20.7,1.1-29.6c-4.4-11-9.6-22.5-7.3-34.6c3.4-18.4,20.7-31.1,39.2-30.3c19.7,0.8,35.8,19.2,33.2,39.2c-1.2,9-6.1,16.5-10.6,24.1c-4.2,7-10.2,17.2-6.5,25.6c1.5,3.5,6.3,3.4,9.5,4c5.2,1,9.9,2.5,14.2,5.7c8.3,6.2,12.8,15.3,15.8,24.9C416.4,416.5,426.2,386.5,422.5,358.7z"/><path fill="#127274" d="M197,257.1c1.5-4.8-2.4-7.9-6.2-10.3c-5.6-3.5-11.6-6.2-17.5-9c-7-3.4-14.8-7.6-18.9-14.6c-5.7-9.7-3.6-20.3,0.4-30.2c3.9-9.8,8.9-19,10.2-29.7c1.2-9.4,0.5-19.6-3.3-28.4c-3.8-8.9-10.9-15.1-20.7-16.4c-8.1-1-15.3,2.7-19.5,9.8c-4.4,7.4-6.8,16.2-7,24.9c-0.3,12.1,3.8,23.4,6.1,35.1c0.2,0.6,0.4,1.3,0.4,2c0.1,0.7,0.1,1.3,0,1.9c0.1,9.3,0.4,18.4-4.6,26.7c-3.5,5.9-8.6,9.6-14.7,12.4c-9.4,4.4-24.1,7.3-22.7,20.4c0.1,0.6,0,1.1,0,1.6c1.4,1,2.8,2,4.3,2.9c33.6,21,80.3,26.3,115.6,6.2C197.1,261.4,196.2,259.6,197,257.1z"/><path fill="#74CCCF" d="M240.8,181.2c-2.1-33.4-19.4-65.3-47.2-84.1C154.7,70.8,98.9,73.4,63,103.7c0,0,0,0,0,0c-15.6,25.3-20,57.6-17,86.8c1.4,13.2,3.9,27.3,10.8,38.8c3.2,5.5,7.1,10.5,11.6,15c2.4-10,11.5-15.8,21.6-20c4.7-1.9,10.8-3.7,14.3-7.6c6.6-7.5,5.7-16.3,5.7-25.7c-1.7-9.7-5.4-19.1-6.2-28.9c-0.5-5.7-0.3-11.6,0.6-17.2c1.8-11.3,6.1-22.9,14.9-30.7c14.9-13,39.3-6.6,49.2,9.5c10.4,17,10.4,39.7,3.2,57.8c-3.6,9.1-11.1,20.1-9.7,30.3c1,8.1,8.9,12.3,15.5,15.5c10.8,5.2,32.9,13.3,31.3,28.3C231.2,238.2,242.6,210.3,240.8,181.2z"/><path fill="#127274" d="M387.2 440.5c-2.8-8.6-7.2-17.4-15.9-20.4-7.2-2.5-17.1-1.4-21.4-9.2-9.9-17.9 5.2-33.9 12.4-49.2 4.1-8.8 3.5-17.8-2.2-25.9-4.7-6.7-12.5-10.2-20.7-9.5-8.2.7-16.1 4.5-21 11.2-5.9 8.1-5.2 17.8-2 26.8 3.5 9.8 9 19.6 9.8 30.2.7 9.7-3 20.3-11.9 25.3-7.9 4.4-17.5 4-26.2 4.3-6.9.2-16.5-.2-19.3 7.5-.7 1.8-1.8 2.7-3.2 3 7.5 8.6 15.9 16.4 24.9 22.9 18.7 13.6 42.3 19 64.6 11.7 12.5-4.1 23.8-11.2 33.5-20.3C385.7 447.1 385.5 443 387.2 440.5zM434 203.1c1.3-7.2-1.9-12.5-7.1-17.2-5.8-5.3-13.5-10-17.3-17.2-5.7-11-.7-19.9 5.8-29.3 3.9-5.6 6.3-12 4.4-19-1.4-5.1-3.8-10.3-7.8-13.8-5.9-5.2-14.1-7.1-21.4-3.6-8 3.9-11.8 13.7-10.1 22.1 1.8 9.1 8.1 16.6 9.4 25.8 1.5 10.6-4.8 19.5-13.3 25.3-7.6 5.2-18.7 9.5-20.4 19.6 13.6 9.5 30.1 15.1 46.6 15.6 10.7.3 21.5-1.2 31.4-5.1C433.9 205.5 433.8 204.4 434 203.1z"/><path fill="#74CCCF" d="M458.3,93.8c-14.7-18.7-40.2-29.5-63.9-29c-11.5,0.3-23.6,3.2-32.3,11.2c-7,6.4-13.2,13.9-18.5,21.8c-9.6,14.2-23.2,38.1-13.5,55.3c1.6,2.9,0.4,5.9-1.7,7.5c0.2,0.4,0.3,0.8,0.4,1.2c4.1,10.2,10.4,19.2,18.4,26.6c2.9-6.9,8.8-11.8,15.2-15.9c6-3.8,17.3-9.2,16.9-17.7c-0.3-9-6.8-16.5-8.9-25.1c-2.4-10-0.9-20.6,5.8-28.7c12.2-14.7,34.5-13.5,46.4,0.9c7.8,9.4,11.9,24.1,6.7,35.8c-3.4,7.8-15.9,17.6-9.6,26.5c4.6,6.5,12,10.5,17.3,16.3c5.4,6,8.4,12.6,8.2,20.2c0.2-0.2,0.5-0.3,0.7-0.5c13.8-9.4,22.8-24.1,26.2-40.4C476.9,137.1,472.8,112.3,458.3,93.8z"/><path fill="#010101" d="M460.1,79.3c-16.8-17.1-42.9-25.5-66.6-25.4c-12.2,0.1-24.2,3.6-34.3,10.5c-7.6,5.2-13.9,12.8-19.5,20.1C327.6,100,314,123,316.1,144.1c-1.6,0.9-2.6,2.5-2.2,5c0.4,2.1,0.8,4.1,1.3,6.1c-10-0.8-20.4,2.4-29.8,5.1c-11.5,3.3-22.8,7.2-33.8,11.6c-0.2,0.1-0.4,0.2-0.6,0.3c-1.7-12.9-5.5-25.6-11-37.2c-13.2-27.4-36-48.6-64.5-59.5c-38.8-14.8-86.7-7.9-118.6,19c-0.6,0.5-1,1.1-1.4,1.7c-0.7,0.4-1.4,1.1-2,1.9c-12.7,20.3-17.7,44.6-19,68.3c-1.2,22.4,1.5,46.8,12,66.9c19.7,37.8,69.1,54.2,109.2,52.4c14.6-0.7,29-4.3,42-10.6c-1.4,2-1.4,4.7,1.2,6.6c8.7,6.2,17.4,12.5,25.9,19.1c3.3,2.6,6.6,5.2,9.7,8c1.6,1.5,3.2,3,5.1,4.1c-12.6,18-19.8,40.4-13.9,61.7c2.9,27.1,17.6,51.1,35.7,70.9c16.7,18.2,37.6,33.7,62.6,37.1c48,6.6,88.7-32.4,103.6-74.9c7.6-21.5,9.3-45,2.4-67c-7.1-22.8-24.2-39.4-44.5-51.1c-0.5-0.3-1.1-0.6-1.6-0.9c6.7-21.9,18.5-42.7,20.5-65.8c0-0.2,0-0.5,0-0.7c23.2,0.4,46.5-7.8,62-25.9C494.7,163.6,489.8,109.6,460.1,79.3z M83.1,256.2c-1.5-0.9-2.9-1.9-4.3-2.9c0.1-0.5,0.1-1,0-1.6c-1.4-13.1,13.3-16,22.7-20.4c6.1-2.8,11.2-6.5,14.7-12.4c5-8.3,4.7-17.4,4.6-26.7c0.1-0.6,0.1-1.2,0-1.9c0-0.8-0.1-1.5-0.4-2c-2.3-11.7-6.4-23-6.1-35.1c0.2-8.6,2.6-17.5,7-24.9c4.2-7,11.4-10.8,19.5-9.8c9.8,1.3,16.9,7.4,20.7,16.4c3.8,8.8,4.5,19,3.3,28.4c-1.3,10.7-6.3,19.9-10.2,29.7c-4,10-6.1,20.5-0.4,30.2c4.1,7,11.9,11.2,18.9,14.6c5.9,2.9,12,5.5,17.5,9c3.8,2.4,7.7,5.5,6.2,10.3c-0.8,2.4,0.1,4.3,1.7,5.3C163.5,282.6,116.7,277.2,83.1,256.2z M177.3,227.5c-6.6-3.2-14.4-7.5-15.5-15.5c-1.3-10.2,6.1-21.2,9.7-30.3c7.2-18.2,7.2-40.9-3.2-57.8c-9.9-16.2-34.3-22.5-49.2-9.5c-8.8,7.7-13.1,19.3-14.9,30.7c-0.9,5.7-1.1,11.5-0.6,17.2c0.9,9.8,4.5,19.3,6.2,28.9c0.1,9.3,1,18.2-5.7,25.7c-3.5,3.9-9.6,5.7-14.3,7.6c-10.1,4.2-19.3,10-21.6,20c-4.5-4.5-8.4-9.5-11.6-15c-6.8-11.6-9.4-25.7-10.8-38.8c-3-29.2,1.4-61.5,17-86.8c0,0,0,0,0,0c35.9-30.3,91.7-33,130.6-6.7c27.9,18.8,45.1,50.8,47.2,84.1c1.8,29.1-9.6,57-32.3,74.7C210.1,240.8,188,232.7,177.3,227.5z M355.2,469.2c-22.3,7.3-45.9,1.9-64.6-11.7c-9-6.5-17.4-14.3-24.9-22.9c1.3-0.3,2.5-1.3,3.2-3c2.8-7.6,12.4-7.2,19.3-7.5c8.7-0.3,18.3,0.1,26.2-4.3c8.9-4.9,12.7-15.6,11.9-25.3c-0.8-10.6-6.4-20.4-9.8-30.2c-3.2-9-3.8-18.7,2-26.8c4.9-6.8,12.8-10.5,21-11.2c8.2-0.7,16,2.8,20.7,9.5c5.7,8.1,6.3,17.1,2.2,25.9c-7.2,15.3-22.3,31.3-12.4,49.2c4.3,7.8,14.2,6.7,21.4,9.2c8.7,3,13.1,11.8,15.9,20.4c-1.7,2.4-1.5,6.5,1.5,8.4C379,458,367.7,465.1,355.2,469.2z M386.6,303.4c19.8,12.5,32.9,32,35.9,55.3c3.6,27.8-6.1,57.8-24.4,80.1c-3-9.6-7.5-18.7-15.8-24.9c-4.3-3.2-9-4.7-14.2-5.7c-3.2-0.6-7.9-0.5-9.5-4c-3.7-8.4,2.3-18.6,6.5-25.6c4.6-7.6,9.5-15.1,10.6-24.1c2.6-19.9-13.5-38.4-33.2-39.2c-18.5-0.7-35.8,11.9-39.2,30.3c-2.3,12.1,2.9,23.6,7.3,34.6c3.6,8.9,8.7,22.6-1.1,29.6c-3.5,2.5-8.4,2.7-12.5,3c-5.1,0.4-10.3,0.3-15.4,0.7c-9.2,0.7-19.1,3.7-22.8,13c-7.5-10.1-13.7-21.1-18-32.6c-1.6-4.3-2.8-8.8-3.6-13.3c0.6-1.2,0.8-2.6,0.1-4.2c-8.8-22.8,1.7-46.8,16.6-64.4c15.6-18.4,36.7-29.7,60.9-30.3C340.1,280.9,365.7,290.2,386.6,303.4z M375,280.8c-1,0.6-1.8,1.5-2.2,2.6c-18.8-8.5-39.6-13.3-60.1-12.8c-24,0.6-45.2,11.9-61.9,28.7c-1.5,1.5-2.9,3.1-4.4,4.7c-0.3-0.1-0.7-0.2-1-0.2c-2-0.3-4.6-3.7-6.1-5.1c-3.2-3-6.9-5.6-10.4-8.3c-7.5-5.9-15.3-11.3-23-16.9c-1-0.7-2-1-3.1-1.1c16.9-9.4,31-23.5,39.6-41.5c7.2-15.1,10-31.8,9.4-48.4c1,0.3,2.1,0.2,3.3-0.3c9.8-3.9,19.8-7.4,29.9-10.5c8.7-2.7,19.5-6.8,28.7-5.8c1.8,0.2,3.3-0.4,4.4-1.4c10.2,26.4,33,45.6,60.6,53.9c4.8,1.4,9.6,2.5,14.6,3.2C391.5,242.4,381.8,261.3,375,280.8z M402.9,211.5c-16.5-0.5-33-6.1-46.6-15.6c1.7-10.1,12.8-14.3,20.4-19.6c8.4-5.8,14.8-14.7,13.3-25.3c-1.3-9.2-7.6-16.8-9.4-25.8c-1.7-8.4,2.1-18.3,10.1-22.1c7.3-3.5,15.5-1.5,21.4,3.6c4,3.5,6.4,8.7,7.8,13.8c1.9,7-0.5,13.4-4.4,19c-6.5,9.3-11.6,18.3-5.8,29.3c3.7,7.2,11.4,11.9,17.3,17.2c5.2,4.7,8.3,10,7.1,17.2c-0.2,1.2-0.1,2.3,0.4,3.2C424.5,210.3,413.6,211.8,402.9,211.5z M445.9,200.2c-0.2,0.2-0.5,0.3-0.7,0.5c0.2-7.7-2.8-14.2-8.2-20.2c-5.3-5.9-12.7-9.8-17.3-16.3c-6.3-8.9,6.2-18.7,9.6-26.5c5.1-11.6,1.1-26.4-6.7-35.8c-11.9-14.3-34.3-15.6-46.4-0.9c-6.7,8.1-8.2,18.8-5.8,28.7c2.1,8.6,8.5,16.1,8.9,25.1c0.3,8.5-10.9,13.9-16.9,17.7c-6.5,4.1-12.4,9-15.2,15.9c-7.9-7.4-14.3-16.4-18.4-26.6c-0.2-0.4-0.3-0.8-0.4-1.2c2.1-1.6,3.3-4.5,1.7-7.5c-9.7-17.2,3.9-41.1,13.5-55.3C348.8,90,355,82.5,362,76.1c8.7-8,20.8-11,32.3-11.2c23.7-0.6,49.2,10.2,63.9,29c14.6,18.5,18.6,43.3,13.9,66C468.7,176.1,459.7,190.8,445.9,200.2z"/></svg>