<svg xmlns="http://www.w3.org/2000/svg"  viewBox="0 0 512 512" width="64px" height="64px"><path fill="#FEBF10" d="M319.2,332.7c-1.2,0.6-2.3,1.3-3.4,2c-8,4.9-15.8,10.7-24.7,13.8c-8.9,3.1-18.3,3.5-27.6,1.9c-19.6-3.4-37.9-13.7-52.6-26.9c-8.7-7.8-16.5-16.5-22.1-26.5h3.6c0.4-2,1.8-3.7,4.3-4c10.7-1.1,21.8,1,32.5,1c9.6,0,19.1-0.2,28.7-0.7c0.9-1.2,2.2-1.9,3.7-2.1c-1-1-1.6-2.4-1.4-4.1c0.4-5,1.4-11.4-0.9-16c-1.1-2.1-3.9-2-6-2c-4.2,0-8.5,0-12.7,0.2c-18.6,0.7-38.4,3.5-56.4-2.2c-2.1-0.7-3.2-2.2-3.6-3.9h-1.3c-0.3-4.1-0.3-8.3-0.2-12.5c-1.7-3-0.7-7.5,3.7-7.4c13.4,0.1,26.8,1.6,40.2,2.1c8.3,0.4,16.5,0.7,24.8,0.5c2.9-0.1,5.7-0.2,8.6-0.5c1.5-0.2,1.1-0.1,2.1-0.4c0.1,0,0.2-0.1,0.3-0.1c0.7-0.6,1.5-1,2.4-1.2c-0.2-1,0-2.1,0.7-3.1c0.1-0.5,0.1-0.9,0.2-1.4c0.1-1.2,0.2-2.3,0.3-3.5c0.1-2.8,0.1-5.6-0.2-8.4c-0.1-0.8-0.5-1.4-0.4-1.4c-1-0.7-2-1.3-3.1-1.7c-3.2-1.1-6.7-1.5-10.1-1.7c-18.9-1.2-37.9-3.1-56.8-3.2c-1.8,0-3.2-0.8-4.1-2h-1.4c0.2-0.5,0.4-1,0.6-1.5c-1-2.6,0-5.8,3-6.4c0.1-0.3,0.3-0.5,0.4-0.8c11-20.6,31-34.2,54.4-35.7c11.3-0.7,22.8,0.6,33.8,3c5.1,1.1,9.3,2.4,13.5,3.6c2.1-0.7,4.5-0.3,6.2,1.7c0.5,0.1,1,0.2,1.5,0.4v1.7c0.5,0.8,1,1.7,1.5,2.5c0.3,0.5,0.6,1.1,0.9,1.6c0.2,0,0.5,0.2,1,0.4c3.9,0.7,7.9,0.4,11.8,0.3c7-0.3,13.9-0.8,20.9-0.7c-0.2-0.4-0.4-0.8-0.5-1.2c-0.6-2.3-1.3-4.5-2-6.8c-0.3-1-0.7-2-1-3.1h-0.6c-0.1-0.5,0-1,0-1.4c-0.2-0.4-0.3-0.5,0-0.1c0,0,0,0,0,0c-0.5-1-0.7-2.2-0.6-3.4c-1.4-2.3-3-4.5-4.8-6.4c-15.8-17.2-39-24.5-61-29.9c-11.5-2.9-23.1-5.7-35.1-5.4c-11.5,0.3-22.7,2.5-33.2,7.2c-33,14.6-54.3,46.1-62.8,80.6h-5.4c-1.7,0.8-3.5,1.3-5.5,1.3c-2.1,0-5-0.4-6.4,1.6c-1.6,2.2-1.7,6-1.8,8.6c-0.2,6.5,0.3,13.2,1.5,19.6c2.9,0.1,5.7,0.6,8.3,1.9h5c0,4.4,0.1,8.7,0.5,13h-1.2c-0.4,1.9-1.8,3.6-4.3,4c-7.6,1-6.6,8.5-6,14.6c0.3,3.1,0.3,6.1,3.5,7.4c3.4,1.4,7.5,1.1,11,2.1c3.1,0.8,4.2,3.7,3.7,6.2c4.6,14.4,11.4,28,20.9,39.7c14.8,18.3,35.2,32.4,57.7,39.5c22.8,7.3,48.6,9.3,72,3.3c19.5-5.1,36.1-15.4,49.5-29.9c-0.8-2.1-0.3-4.4,2.2-5.9c0.3-0.2,0.6-0.4,1-0.6c0.1-1,0.5-1.9,1.4-2.8c2.1-2.2,5.4-5.9,6-9C337.9,331.5,328.5,332.4,319.2,332.7z"/><path fill="#D6E5E5" d="M451.4,180c-9.1-23.4-22.2-45.4-38.1-64.9c-32-39.3-76.9-71.1-127.6-79.8c-54.6-9.5-112.5,10.3-156.5,42.5c-22.5,16.5-42.9,36.8-56.9,61.2c-8,13.9-14.2,28.5-19.2,43.6c-5.5,10-9.4,21-12.4,31.9c-2.9,10.5-4.9,21.4-5.9,32.3c-0.2,0.9-0.5,1.9-0.8,2.8c-0.2,0.6-0.4,1.1-0.7,1.5c-0.6,5.3-1,10.6-1,16.1c-0.1,17.9,2,35.9,6.3,53.2c10.9,44.2,34.1,87.9,71,115.7c21.7,16.3,47.4,24.6,74.1,27.7c29.3,3.5,59.6,2.4,88.7-1.7c28.9-4.1,58.1-11.3,84.1-24.9c23.3-12.2,42.5-29,58.5-49.9c29.6-38.8,47.4-87.9,48.1-136.8C463.5,226.6,460.1,202.4,451.4,180z M350.8,348.9c-13.1,16.9-30.5,30.5-50.9,37.6c-44.7,15.4-98.7,4.5-134.2-26.6c-18.2-15.9-31.1-36.9-38.7-59.8c-5.2-0.9-10.3-1.3-14.4-5.5c-3.9-4-3.9-9.6-4.5-14.8c-1.1-9.8,2.2-18.2,10.5-21.5c-1.9-0.6-4.7-0.3-6.3-0.3c-2.1,0-4.6-1.1-5.1-3.3c-2.3-9.4-3.5-19.5-2.6-29.1c0.4-4.1,1.2-9.1,4-12.3c2.1-2.4,4.8-4.1,7.9-4.6c2.2-0.4,5.6,0.4,7.5-0.8c0.5-0.3,1.1-0.5,1.6-0.6c13.2-42.2,46.4-81.1,92-87.1c23.2-3.1,47,3.1,68.9,10.4c21.6,7.2,42.8,18.1,54.5,38.6c0.4,0.7,0.6,1.5,0.7,2.2c0.4,1,0.7,2,1,3c0.8,2.6,1.7,5.1,2.3,7.7c0.6,2.3,0,4.7-1.8,6.1c3.9,2.8,3.6,9.9-2.3,9.9h-2c-0.4,0-0.8,0-1.2-0.1c-9.8-0.2-19.6,0.8-29.5,0.8c-4.4,0-9-0.2-12.9-2.6c-2.7-1.7-3.9-4.8-5.5-7.4c-1.8-0.5-3.7-1-5.5-1.4c-17.9-4.6-38-8.2-55.8-1.4c-11.9,4.5-21.2,12.9-27.6,23.3c9.6,0.4,19.1,1.2,28.7,2c9.5,0.8,20.2-0.3,29.4,2.5c4,1.2,8.6,2.8,11,6.4c1.7,2.5,1.8,6.2,1.9,9c0.2,4.5,1.4,15-3.3,17.9c-0.6,0.4-1.1,0.6-1.7,0.7c0,0.4-0.1,0.7-0.2,1.1c-1.6,5.6-8.2,6.1-13.1,6.4c-8.3,0.5-16.6,0.3-24.9,0c-13.3-0.5-26.7-1.9-40-2.3c-0.1,1.6-0.1,3.2-0.1,4.8c20.5,5.4,42.7,0.7,63.5,1.1c7.7,0.1,15,2.5,17,11c1.4,6.3,1.1,12.6,0.5,19c-0.2,2.6-2,3.8-4,3.9c0.3,0.4,0.6,0.9,0.8,1.5c-0.9-2.6,0.8,1.4,1,2c1.1,3-1.1,6.4-4.3,6.6c-11.1,0.8-22.3,1-33.5,1c-8.4,0-17-1.2-25.4-1.3c14.1,17.5,34.7,32.3,56.6,37.1c12.2,2.6,23.5,1.9,34.5-4.4c4.4-2.5,8.7-5.4,13.1-8.2c-0.2-2.7,1.4-5.4,4.9-5.4c14.1-0.1,28.1-1.8,42.1-0.6c2.3,0.2,4.4,2.7,4.4,5C360.4,334.3,356.7,343,350.8,348.9z"/><path fill="#010101" d="M464,184.6c-7.6-23.5-20.1-45.7-34.6-65.6C399.4,78,357.1,45,308.2,30c-52.3-16-107.8-4.2-155.2,20.8c-31.2,16.4-60,40-80.4,68.8c-12.2,17.2-21.1,36.3-27.9,56.1c-0.3,0.3-0.7,0.7-1,1.1c-1.1,1.7-2.1,3.5-3.1,5.4c-2.9,5.3-4.8,11.4-6.7,17c-0.6,1.8-1.7,4.4-2.4,7.2c-0.4,0.6-0.7,1.2-0.9,2.1c-2.6,12.7-5.8,25.3-7.3,38.2c-1.3,11.1-1.5,22.2-1,33.4c1.1,23.1,6.1,46.2,13.8,68c15.1,42.7,42.6,82.7,82,106.1c24.2,14.4,53.2,19.8,81,21.4c29.4,1.7,59.1-0.2,88-5.3c28.3-5,56-13.6,81.2-27.7c22.4-12.5,40.8-30.3,56.2-50.7c29.4-39.1,46.4-87.4,48.7-136.2C474.4,231.6,471.4,207.5,464,184.6z M463.2,250.6c-0.7,48.9-18.6,98-48.1,136.8c-15.9,20.9-35.2,37.7-58.5,49.9c-26,13.6-55.2,20.8-84.1,24.9c-29.1,4.1-59.5,5.1-88.7,1.7c-26.8-3.2-52.5-11.4-74.1-27.7c-37-27.8-60.2-71.5-71-115.7c-4.3-17.4-6.3-35.3-6.3-53.2c0-5.4,0.4-10.8,1-16.1c0.3-0.4,0.5-0.9,0.7-1.5c0.3-0.9,0.5-1.9,0.8-2.8c1-10.9,3-21.8,5.9-32.3c3-10.9,6.8-21.9,12.4-31.9c5-15.1,11.2-29.7,19.2-43.6c14-24.3,34.3-44.7,56.9-61.2c44-32.2,101.9-52,156.5-42.5c50.6,8.8,95.6,40.6,127.6,79.8c15.9,19.5,29,41.5,38.1,64.9C460.1,202.4,463.5,226.6,463.2,250.6z"/><path fill="#010101" d="M360.2,326.2c-0.1-2.2-2.1-4.8-4.4-5c-14.1-1.2-28.1,0.5-42.1,0.6c-3.5,0-5.1,2.7-4.9,5.4c-4.4,2.8-8.7,5.7-13.1,8.2c-11,6.2-22.3,7-34.5,4.4c-21.9-4.7-42.5-19.5-56.6-37.1c8.4,0.1,17,1.3,25.4,1.3c11.2,0,22.3-0.2,33.5-1c3.2-0.2,5.4-3.6,4.3-6.6c-0.2-0.6-1.9-4.6-1-2c-0.2-0.6-0.5-1-0.8-1.5c2-0.1,3.7-1.3,4-3.9c0.6-6.4,0.9-12.7-0.5-19c-2-8.5-9.2-10.9-17-11c-20.9-0.3-43,4.4-63.5-1.1c0-1.6,0-3.2,0.1-4.8c13.3,0.4,26.7,1.8,40,2.3c8.3,0.3,16.6,0.6,24.9,0c4.9-0.3,11.5-0.8,13.1-6.4c0.1-0.4,0.2-0.8,0.2-1.1c0.6-0.1,1.1-0.3,1.7-0.7c4.7-2.9,3.4-13.4,3.3-17.9c-0.1-2.9-0.3-6.6-1.9-9c-2.4-3.6-7-5.3-11-6.4c-9.2-2.7-19.9-1.7-29.4-2.5c-9.6-0.8-19.1-1.6-28.7-2c6.5-10.4,15.7-18.8,27.6-23.3c17.8-6.7,38-3.2,55.8,1.4c1.9,0.5,3.7,1,5.5,1.4c1.6,2.7,2.8,5.8,5.5,7.4c3.9,2.4,8.4,2.5,12.9,2.6c9.8,0,19.7-1,29.5-0.8c0.4,0.1,0.8,0.1,1.2,0.1h2c5.9,0,6.2-7.1,2.3-9.9c1.8-1.4,2.4-3.8,1.8-6.1c-0.7-2.6-1.5-5.2-2.3-7.7c-0.3-1-0.6-2.1-1-3c-0.1-0.7-0.3-1.4-0.7-2.2c-11.6-20.5-32.9-31.4-54.5-38.6c-21.9-7.3-45.7-13.5-68.9-10.4c-45.6,6-78.8,44.8-92,87.1c-0.5,0.1-1,0.3-1.6,0.6c-1.9,1.1-5.3,0.3-7.5,0.8c-3.1,0.6-5.8,2.3-7.9,4.6c-2.9,3.2-3.7,8.2-4,12.3c-0.9,9.7,0.3,19.7,2.6,29.1c0.5,2.3,3,3.3,5.1,3.3c1.6,0,4.5-0.3,6.3,0.3c-8.4,3.3-11.7,11.7-10.5,21.5c0.6,5.2,0.6,10.8,4.5,14.8c4,4.2,9.2,4.6,14.4,5.5c7.6,22.9,20.5,43.9,38.7,59.8c35.5,31.1,89.5,42,134.2,26.6c20.4-7,37.8-20.6,50.9-37.6C356.7,343,360.4,334.3,360.2,326.2z M341.2,340.7c-0.9,0.9-1.3,1.9-1.4,2.8c-0.3,0.2-0.6,0.4-1,0.6c-2.6,1.4-3,3.8-2.2,5.9c-13.4,14.4-30,24.8-49.5,29.9c-23.3,6.1-49.2,4-72-3.3c-22.5-7.1-42.9-21.2-57.7-39.5c-9.5-11.8-16.3-25.4-20.9-39.7c0.5-2.5-0.6-5.3-3.7-6.2c-3.6-1-7.6-0.7-11-2.1c-3.2-1.3-3.2-4.3-3.5-7.4c-0.6-6.1-1.6-13.5,6-14.6c2.5-0.3,3.9-2.1,4.3-4h1.2c-0.4-4.3-0.5-8.6-0.5-13h-5c-2.6-1.3-5.4-1.8-8.3-1.9c-1.2-6.4-1.7-13.1-1.5-19.6c0.1-2.6,0.2-6.4,1.8-8.6c1.4-2,4.3-1.6,6.4-1.6c2,0,3.8-0.4,5.5-1.3h5.4c8.5-34.5,29.8-66,62.8-80.6c10.5-4.6,21.8-6.9,33.2-7.2c12-0.3,23.6,2.6,35.1,5.4c22,5.5,45.2,12.7,61,29.9c1.8,2,3.4,4.2,4.8,6.4c-0.1,1.2,0.1,2.4,0.6,3.4c0,0,0,0,0,0c-0.3-0.4-0.2-0.3,0,0.1c-0.1,0.4-0.1,0.9,0,1.4h0.6c0.4,1,0.7,2,1,3.1c0.7,2.2,1.4,4.5,2,6.8c0.1,0.4,0.3,0.8,0.5,1.2c-7-0.1-13.9,0.4-20.9,0.7c-3.9,0.2-7.9,0.4-11.8-0.3c-0.5-0.2-0.8-0.4-1-0.4c-0.3-0.5-0.6-1-0.9-1.6c-0.5-0.9-0.9-1.7-1.5-2.5v-1.7c-0.5-0.1-1-0.2-1.5-0.4c-1.8-2-4.2-2.3-6.2-1.7c-4.2-1.2-8.3-2.4-13.5-3.6c-11.1-2.5-22.5-3.8-33.8-3c-23.4,1.5-43.4,15.2-54.4,35.7c-0.1,0.3-0.3,0.5-0.4,0.8c-3,0.6-3.9,3.8-3,6.4c-0.2,0.5-0.4,1-0.6,1.5h1.4c0.9,1.2,2.2,2,4.1,2c18.9,0.1,38,2,56.8,3.2c3.4,0.2,6.9,0.6,10.1,1.7c1.2,0.4,2.2,1,3.1,1.7c0,0,0.3,0.6,0.4,1.4c0.4,2.8,0.3,5.6,0.2,8.4c0,1.2-0.1,2.3-0.3,3.5c-0.1,0.5-0.1,0.9-0.2,1.4c-0.6,1-0.8,2-0.7,3.1c-0.9,0.2-1.7,0.6-2.4,1.2c-0.1,0.1-0.2,0.1-0.3,0.1c-0.9,0.3-0.6,0.2-2.1,0.4c-2.8,0.4-5.7,0.5-8.6,0.5c-8.3,0.2-16.6-0.1-24.8-0.5c-13.4-0.6-26.8-2.1-40.2-2.1c-4.3,0-5.4,4.5-3.7,7.4c-0.2,4.2-0.1,8.4,0.2,12.5h1.3c0.4,1.7,1.5,3.3,3.6,3.9c18.1,5.7,37.9,3,56.4,2.2c4.2-0.2,8.5-0.2,12.7-0.2c2,0,4.9-0.1,6,2c2.3,4.6,1.4,11.1,0.9,16c-0.2,1.7,0.5,3.1,1.4,4.1c-1.5,0.2-2.8,1-3.7,2.1c-9.5,0.5-19.1,0.7-28.7,0.7c-10.8,0-21.8-2.1-32.5-1c-2.6,0.3-4,2-4.3,4h-3.6c5.6,10,13.3,18.7,22.1,26.5c14.7,13.1,33.1,23.5,52.6,26.9c9.3,1.6,18.7,1.2,27.6-1.9c8.9-3.1,16.7-8.9,24.7-13.8c1.1-0.7,2.3-1.4,3.4-2c9.3-0.3,18.7-1.2,28-1C346.6,334.8,343.3,338.5,341.2,340.7z"/></svg>