<svg xmlns="http://www.w3.org/2000/svg"  viewBox="0 0 48 48" width="64px" height="64px"><path fill="#16b7b8" d="M43.398,40.652c-0.248-0.802-0.565-1.617-1.176-2.193c-0.541-0.51-1.258-0.781-1.954-1.04 c-2.991-1.111-6.035-2.636-9.025-3.748H18.839c-3.87,1.094-9.737,1.629-12.665,4.851c-0.931,1.025-1.493,3.38-1.559,4.763 c-0.031,0.638,0.051,1.308,0.406,1.839c0.666,0.996,2.024,1.189,3.218,1.284c5.214,0.411,11.901,0.382,17.129,0.529 c1.686-0.064,2.776-0.668,4.446-0.432c1.068,0.151,2.153,0.05,3.226-0.05c3.406-0.319,7.813,0.362,11.219,0.043 C44.174,44.856,43.884,42.224,43.398,40.652z"/><path fill="#bcbcbc" d="M30.672,31.531c1.676,0.149,3.657,0.715,4.734,2.007c0.36,0.432,0.61,0.944,0.855,1.45 c0.737,1.522,1.456,2.952,1.179,4.62c1.244-0.177,2.462,0.169,3.205,1.184c0.427,0.583,0.96,1.422,1.125,2.125 c0.218,0.928,0.47,2.457,0.688,3.386L40.5,46.406c-0.193-1.24-0.435-3.399-1.348-4.26c-0.118-0.111-0.248-0.214-0.401-0.267 c-0.223-0.078-0.468-0.042-0.702-0.005c-0.554,0.087-1.109,0.174-1.663,0.26c-0.33,0.052-0.666,0.105-0.965,0.256 c-0.707,0.357-0.778,0.698-0.874,1.485c-0.067,0.55,0.149,1.709,0.266,2.25l-2.016,0.177c-0.189-0.439-0.278-2.005-0.296-2.282 c-0.114-1.725,1.371-4.101,3.063-4.458c-0.025-1.068-0.184-1.543-0.453-2.577c-0.269-1.034-0.809-1.801-1.662-2.444 c-0.562-0.425-1.681-1.051-2.385-1.094L30.672,31.531z"/><path fill="#d6e5e5" d="M31.243,34.023l-12.404-0.095c2.048,3.735,4.509,9.153,6.318,13.01 c2.277-3.318,5.013-8.381,6.209-12.223C31.442,34.469,31.478,34.128,31.243,34.023z"/><path fill="#010101" d="M25.25,47.083c-0.014,0-0.027-0.001-0.041-0.002c-0.179-0.015-0.336-0.123-0.412-0.286 c-1.865-3.974-4.435-9.049-6.397-12.627c-0.133-0.242-0.044-0.546,0.198-0.679s0.546-0.044,0.679,0.198 c1.842,3.359,4.218,8.031,6.049,11.887c2.031-3.067,4.426-7.364,5.562-11.008c0.021-0.069,0.031-0.123,0.034-0.16 c-0.167-0.14-0.229-0.38-0.135-0.589c0.113-0.251,0.411-0.365,0.661-0.251c0.339,0.152,0.622,0.573,0.396,1.297 c-1.261,4.048-4.02,8.854-6.181,12.003C25.568,47.003,25.414,47.083,25.25,47.083z"/><path fill="#010101" d="M14.578,47.105c-2.219,0-4.395-0.042-6.378-0.199c-1.419-0.111-2.837-0.37-3.594-1.504 c-0.367-0.549-0.532-1.269-0.49-2.141c0.067-1.409,0.635-3.916,1.688-5.075c2.362-2.6,3.892-2.941,6.207-3.459 c0.676-0.151,1.43-0.319,2.309-0.568c0.263-0.071,0.542,0.078,0.617,0.346c0.075,0.266-0.079,0.542-0.345,0.617 c-0.902,0.255-1.678,0.428-2.362,0.581c-2.28,0.51-3.536,0.791-5.685,3.155c-0.838,0.923-1.369,3.179-1.429,4.451 c-0.032,0.653,0.077,1.171,0.322,1.538c0.546,0.817,1.753,0.977,2.842,1.063c3.116,0.245,6.746,0.205,10.253,0.166 c2.387-0.026,4.64-0.052,6.732,0.007c0.462-0.019,0.917-0.054,1.353-0.088c1.051-0.08,2.042-0.158,3.267,0.016 c1.014,0.144,2.079,0.044,3.109-0.054c1.734-0.161,3.782-0.093,5.762-0.026c1.763,0.06,3.58,0.121,5.148,0.017 c-0.136-1.566-0.543-3.721-0.984-5.148c-0.226-0.729-0.507-1.472-1.042-1.977c-0.474-0.446-1.141-0.694-1.785-0.934 c-1.541-0.573-1.688-0.663-1.857-0.769c-0.103-0.063-0.231-0.143-1.681-0.681c-0.259-0.096-0.391-0.384-0.295-0.643 c0.096-0.26,0.386-0.392,0.643-0.295c1.542,0.572,1.689,0.663,1.858,0.768c0.104,0.064,0.232,0.144,1.681,0.682 c0.704,0.262,1.501,0.558,2.123,1.145c0.704,0.664,1.057,1.59,1.31,2.408c0.51,1.648,0.976,4.229,1.062,5.876 c0.014,0.269-0.186,0.499-0.453,0.524c-1.735,0.16-3.782,0.092-5.762,0.026c-1.949-0.065-3.963-0.134-5.635,0.022 c-1.088,0.101-2.212,0.205-3.342,0.048c-1.117-0.157-2.012-0.089-3.05-0.009c-0.449,0.035-0.916,0.071-1.425,0.091 c-2.105-0.06-4.351-0.033-6.726-0.007C17.228,47.091,15.895,47.105,14.578,47.105z"/><path fill="#bcbcbc" d="M19.236,31.585c-0.577-0.044-1.257,0.092-1.751,0.394c-1.338,0.816-2.764,1.787-3.313,3.255 c-0.162,0.434-0.42,1.118-0.476,1.578c-0.12,0.99-0.079,1.923,0.04,2.913l1.826-0.259c-0.094-1.114-0.146-1.964,0.203-3.026 c0.349-1.062,1.006-1.92,1.953-2.513c0.418-0.262,0.663-0.398,1.156-0.381L19.236,31.585z"/><path fill="#010101" d="M42.458,46.803c-0.227,0-0.432-0.155-0.486-0.386c-0.11-0.471-0.23-1.094-0.349-1.717 c-0.116-0.606-0.231-1.212-0.338-1.669c-0.116-0.495-0.486-1.186-1.042-1.943c-0.578-0.79-1.573-1.149-2.731-0.984 c-0.159,0.019-0.317-0.032-0.428-0.146c-0.111-0.114-0.162-0.274-0.135-0.432c0.245-1.473-0.371-2.742-1.084-4.213l-0.052-0.108 c-0.228-0.47-0.463-0.956-0.789-1.347c-1.17-1.403-3.463-1.746-4.395-1.829c-0.275-0.024-0.479-0.268-0.454-0.542 c0.024-0.275,0.273-0.46,0.542-0.454c1.056,0.094,3.665,0.494,5.075,2.185c0.404,0.484,0.679,1.052,0.921,1.552l0.052,0.107 c0.636,1.312,1.291,2.662,1.234,4.188c0.021-0.001,0.042-0.001,0.063-0.001c1.243,0,2.309,0.504,2.989,1.434 c0.448,0.611,1.021,1.508,1.208,2.306c0.11,0.469,0.229,1.089,0.347,1.709c0.116,0.608,0.232,1.217,0.34,1.677 c0.063,0.269-0.104,0.538-0.373,0.601C42.534,46.799,42.496,46.803,42.458,46.803z"/><path fill="#010101" d="M13.736,40.226c-0.25,0-0.465-0.187-0.496-0.44c-0.141-1.166-0.153-2.102-0.041-3.033 c0.062-0.512,0.323-1.21,0.496-1.673c0.615-1.645,2.143-2.682,3.528-3.526c0.56-0.341,1.343-0.514,2.05-0.467 c0.275,0.021,0.481,0.262,0.46,0.537c-0.021,0.276-0.26,0.472-0.537,0.461c-0.496-0.041-1.069,0.089-1.453,0.322 c-1.242,0.758-2.609,1.678-3.104,3.003c-0.154,0.413-0.4,1.069-0.447,1.464c-0.103,0.848-0.09,1.709,0.041,2.793 c0.033,0.273-0.163,0.522-0.437,0.556C13.776,40.225,13.756,40.226,13.736,40.226z"/><path fill="#bcbcbc" d="M16.012,39.567c-0.85-0.166-1.605-0.162-2.361,0.286c-1.064,0.629-1.48,2.255-0.863,3.375 c0.45,0.818,1.362,1.302,2.247,1.234c0.884-0.068,1.708-0.665,2.132-1.498c0.328-0.644,0.424-1.436,0.186-2.124 S16.692,39.651,16.012,39.567z"/><path fill="#010101" d="M14.87,44.969c-1.023,0-2.018-0.584-2.521-1.499c-0.745-1.354-0.246-3.284,1.047-4.048 c0.973-0.575,1.907-0.501,2.695-0.349c0.568,0.075,1.323,0.417,1.733,1.604c0.271,0.782,0.191,1.723-0.213,2.515 c-0.515,1.01-1.488,1.688-2.539,1.769C15.005,44.967,14.938,44.969,14.87,44.969z M15.089,39.967c-0.453,0-0.823,0.104-1.184,0.316 c-0.825,0.487-1.162,1.827-0.68,2.704c0.351,0.639,1.063,1.036,1.771,0.977c0.695-0.054,1.373-0.535,1.725-1.227 c0.283-0.555,0.342-1.202,0.158-1.733c-0.298-0.862-0.773-0.921-0.929-0.94c-0.012-0.001-0.023-0.003-0.035-0.005 C15.608,39.998,15.336,39.967,15.089,39.967z"/><path fill="#010101" d="M15.562,39.967c-0.257,0-0.476-0.197-0.498-0.458c-0.103-1.217-0.143-2.1,0.226-3.225 c0.391-1.19,1.119-2.126,2.163-2.78c0.478-0.298,0.807-0.482,1.438-0.457c0.276,0.01,0.492,0.241,0.483,0.517 c-0.009,0.277-0.251,0.49-0.516,0.483c-0.36-0.012-0.498,0.069-0.875,0.305c-0.84,0.526-1.427,1.282-1.743,2.245 c-0.311,0.947-0.275,1.7-0.18,2.828c0.023,0.275-0.181,0.517-0.456,0.54C15.59,39.966,15.576,39.967,15.562,39.967z"/><path fill="#010101" d="M32.797,46.803c-0.194,0-0.378-0.113-0.46-0.303c-0.146-0.339-0.248-1.071-0.332-2.377 c-0.12-1.82,1.231-4.257,3.041-4.93c-0.042-0.651-0.154-1.07-0.333-1.748l-0.088-0.334c-0.237-0.908-0.693-1.577-1.479-2.171 c-0.602-0.455-1.595-0.962-2.114-0.994c-0.276-0.017-0.486-0.254-0.469-0.529s0.259-0.494,0.529-0.469 c0.852,0.052,2.081,0.76,2.656,1.193c0.965,0.729,1.551,1.593,1.845,2.718l0.087,0.33c0.216,0.816,0.359,1.355,0.382,2.361 c0.005,0.24-0.161,0.451-0.396,0.501c-1.487,0.314-2.763,2.483-2.667,3.936c0.106,1.663,0.223,2.04,0.257,2.118 c0.109,0.254-0.008,0.548-0.262,0.656C32.93,46.79,32.862,46.803,32.797,46.803z"/><path fill="#010101" d="M40.5,46.906c-0.242,0-0.455-0.177-0.494-0.423l-0.055-0.367c-0.175-1.172-0.439-2.943-1.142-3.605 c-0.092-0.087-0.165-0.14-0.225-0.16c-0.108-0.036-0.303-0.007-0.458,0.018l-1.664,0.261c-0.288,0.044-0.583,0.09-0.816,0.208 c-0.486,0.245-0.515,0.373-0.604,1.099c-0.048,0.391,0.095,1.328,0.258,2.084c0.058,0.27-0.113,0.536-0.383,0.594 c-0.271,0.063-0.536-0.112-0.594-0.383c-0.109-0.506-0.354-1.755-0.273-2.416c0.104-0.854,0.215-1.4,1.145-1.87 c0.375-0.19,0.785-0.253,1.114-0.304l1.662-0.261c0.25-0.04,0.593-0.094,0.943,0.026c0.262,0.092,0.458,0.259,0.582,0.377 c0.954,0.899,1.237,2.799,1.444,4.186l0.055,0.36c0.042,0.273-0.145,0.528-0.417,0.571C40.551,46.904,40.525,46.906,40.5,46.906z"/><path fill="#fcbf95" d="M34.746,15.537c0.024-0.524-0.4-0.968-0.948-0.996c-0.144-0.007-0.526-0.014-0.893-0.02 c-0.013-0.804-0.042-1.639-0.096-2.556l-8.477-1.029l-8.063,0.75c-0.043,0.907-0.101,1.885-0.145,2.886 c-1.202-0.008-2.055,0.576-2.204,1.02c-0.166,0.495-0.102,1.027-0.037,1.541c0.096,0.755,0.191,1.51,0.287,2.265 c0.07,0.55,0.151,1.128,0.511,1.573c0.343,0.424,1.284,0.64,1.797,0.378c0.034,0.153,0.059,0.313,0.098,0.461 c0.495,1.86,1.412,3.668,2.715,5.072c0.203,2.018,0.348,5.376-0.637,7.205c2.707,1.798,3.363,2.412,6.384,2.35 c3.022-0.062,5.463-1.525,6.202-2.155c-0.484-1.412-0.984-4.013-0.83-6.988c0.435-0.439,0.813-0.935,1.106-1.489 c0.754-1.426,0.972-3.06,1.108-4.668c0.959-0.487,2.073-1.137,2.122-1.999C34.779,18.583,34.705,16.466,34.746,15.537z"/><path fill="#010101" d="M15.75,21.981c-0.558,0-1.124-0.285-1.456-0.696c-0.458-0.567-0.547-1.265-0.618-1.824l-0.287-2.266 c-0.065-0.512-0.146-1.149,0.059-1.763c0.13-0.388,0.709-1.645,2.674-1.394c0.274,0.033,0.469,0.282,0.436,0.557 C16.524,14.87,16.275,15.07,16,15.031c-1.141-0.14-1.495,0.391-1.605,0.72c-0.133,0.396-0.073,0.865-0.015,1.318l0.287,2.266 c0.058,0.457,0.124,0.976,0.403,1.321c0.208,0.257,0.667,0.431,0.923,0.259c0.229-0.152,0.54-0.09,0.693,0.141 s0.09,0.54-0.14,0.693C16.304,21.91,16.028,21.981,15.75,21.981z"/><path fill="#010101" d="M32.792,21.631c-0.182,0-0.358-0.1-0.446-0.273c-0.125-0.246-0.027-0.547,0.219-0.672l0.14-0.071 c0.987-0.499,1.503-0.793,1.544-1.505c0.014-0.247,0.005-0.814-0.003-1.443c-0.01-0.775-0.021-1.641,0.001-2.152 c0.011-0.247-0.201-0.46-0.473-0.474c-0.288-0.014-0.56-0.027-0.69-0.031c-0.276-0.009-0.493-0.238-0.485-0.515 c0.009-0.276,0.264-0.496,0.515-0.485c0.134,0.004,0.415,0.018,0.71,0.033c0.82,0.041,1.458,0.721,1.422,1.517 c-0.022,0.498-0.011,1.34,0,2.094c0.009,0.659,0.016,1.254,0.001,1.514c-0.074,1.32-1.099,1.839-2.09,2.341l-0.138,0.069 C32.945,21.613,32.868,21.631,32.792,21.631z"/><path fill="#010101" d="M24.972,30.003c-1,0-2-0.184-2.939-0.573c-2.778-1.153-4.998-3.953-5.938-7.489 c-0.726-2.733-0.545-6.097-0.386-9.064l0.063-1.209c0.013-0.275,0.258-0.511,0.523-0.476c0.275,0.013,0.489,0.247,0.476,0.522 l-0.063,1.216c-0.156,2.894-0.332,6.174,0.354,8.753c0.861,3.237,2.862,5.788,5.354,6.823c3.158,1.309,7.125-0.033,8.661-2.934 c0.757-1.431,0.944-3.098,1.071-4.684c0.262-3.254,0.359-5.521,0.164-8.89c-0.016-0.276,0.194-0.513,0.47-0.528 c0.275-0.028,0.512,0.194,0.528,0.47c0.198,3.408,0.095,5.803-0.165,9.028c-0.13,1.615-0.339,3.473-1.185,5.07 C30.653,28.51,27.821,30.003,24.972,30.003z"/><path fill="#010101" d="M21.998,15.193c-0.051,0-0.102-0.008-0.153-0.024c-0.136-0.043-0.24-0.14-0.297-0.26l-2.155,0.126 c-0.27,0.022-0.514-0.189-0.532-0.466c-0.018-0.275,0.19-0.514,0.466-0.532l2.157-0.144c0.27-0.02,0.665,0.059,0.882,0.335 c0.139,0.177,0.178,0.402,0.109,0.618C22.405,15.059,22.209,15.193,21.998,15.193z"/><path fill="#010101" d="M29.566,15.071c-0.028,0-0.058-0.002-0.087-0.008c-0.853-0.149-1.719-0.157-2.575-0.021 c-0.273,0.044-0.529-0.144-0.572-0.416c-0.043-0.272,0.143-0.528,0.416-0.572c0.964-0.152,1.941-0.145,2.904,0.024 c0.272,0.047,0.454,0.307,0.406,0.578C30.016,14.9,29.805,15.071,29.566,15.071z"/><path fill="#010101" d="M24.541,22.643c-0.037,0-0.074-0.004-0.111-0.013l-0.979-0.22c-0.128-0.029-0.364-0.083-0.541-0.287 c-0.256-0.292-0.195-0.662-0.168-0.819c0.165-0.996,0.364-1.979,0.563-2.961c0.197-0.969,0.394-1.938,0.556-2.92 c0.045-0.273,0.294-0.462,0.575-0.412c0.272,0.045,0.457,0.303,0.412,0.574c-0.165,0.995-0.363,1.977-0.563,2.957 c-0.197,0.97-0.394,1.94-0.557,2.925c0,0.004-0.001,0.008-0.001,0.012l0.925,0.177c0.269,0.061,0.438,0.329,0.377,0.598 C24.976,22.485,24.769,22.643,24.541,22.643z M23.716,21.572h0.01H23.716z"/><path fill="#010101" d="M24.35,25.877c-0.307,0-0.615-0.038-0.914-0.114c-0.341-0.088-0.609-0.438-0.585-0.763 c0.017-0.241,0.272-0.497,0.513-0.523c0.252-0.027,0.472,0.131,0.537,0.363c0.716,0.121,1.477-0.051,2.07-0.479 c0.225-0.16,0.537-0.109,0.698,0.114c0.161,0.224,0.11,0.536-0.114,0.698C25.914,25.634,25.133,25.877,24.35,25.877z"/><path fill="#010101" d="M23.988,37.048c-0.601,0-1.134-0.039-1.528-0.122c-1.473-0.309-2.899-1.265-4.015-2.689 c-0.087-0.112-0.124-0.256-0.099-0.396l0.091-0.514c0.392-2.193,0.763-4.266,0.163-6.356c-0.076-0.266,0.077-0.542,0.343-0.618 c0.266-0.081,0.542,0.077,0.618,0.343c0.664,2.314,0.274,4.497-0.139,6.808l-0.051,0.289c0.947,1.145,2.11,1.906,3.294,2.155 c1.373,0.288,4.931-0.052,6.189-0.727c0.641-0.344,1.182-0.813,1.754-1.311c-0.73-1.449-0.661-3.031-0.593-4.565l0.095-2.199 c0.012-0.276,0.258-0.461,0.521-0.479c0.276,0.013,0.49,0.246,0.478,0.521l-0.095,2.2c-0.069,1.586-0.135,3.085,0.655,4.372 c0.128,0.21,0.086,0.481-0.101,0.641l-0.29,0.252c-0.593,0.516-1.206,1.049-1.951,1.448C28.227,36.692,25.799,37.048,23.988,37.048 z"/><path fill="#010101" d="M20.846,16.003c-0.196,0-0.391-0.081-0.537-0.229c-0.083-0.083-0.144-0.182-0.18-0.287 c-0.074-0.164-0.069-0.352,0.013-0.517c0.08-0.188,0.242-0.338,0.444-0.409c0.181-0.103,0.412-0.105,0.613,0.013 c0.326,0.19,0.444,0.597,0.265,0.905c-0.018,0.032-0.039,0.062-0.062,0.09c-0.015,0.051-0.035,0.101-0.059,0.15 c-0.064,0.13-0.183,0.226-0.323,0.262C20.962,15.996,20.904,16.003,20.846,16.003z"/><path fill="#010101" d="M28.209,15.772c-0.153,0-0.31-0.03-0.461-0.092c-0.081-0.033-0.151-0.086-0.205-0.154 c-0.157-0.2-0.187-0.475-0.078-0.717c0.055-0.122,0.14-0.224,0.243-0.296c0.011-0.033,0.026-0.065,0.045-0.097 c0.136-0.225,0.376-0.34,0.657-0.345c0.289,0.009,0.548,0.166,0.678,0.411c0.208,0.395,0.051,0.909-0.349,1.148 C28.583,15.726,28.4,15.772,28.209,15.772z M28.609,14.937C28.609,14.938,28.609,14.938,28.609,14.937 C28.609,14.938,28.609,14.938,28.609,14.937z"/><path fill="#16b7b8" d="M33.153,12.046c-0.512-1.74-1.023-4.48-1.535-6.22c-0.222-0.755-0.488-1.976-1.013-2.562 c-0.788-0.878-2.045-1.131-3.214-1.289c-2.189-0.296-4.399-0.434-6.607-0.413c-1.013,0.009-2.151,0.11-2.806,0.883 c-0.284,0.335-0.438,0.758-0.583,1.173c-0.752,2.152-1.079,6.326-1.631,8.537c0.164-0.401,0.648-0.545,1.071-0.633 C21.957,10.46,28.046,10.911,33.153,12.046z"/><path fill="#010101" d="M15.764,12.655c-0.052,0-0.104-0.008-0.156-0.024c-0.249-0.082-0.393-0.343-0.329-0.597 c0.224-0.898,0.412-2.14,0.61-3.453c0.285-1.882,0.58-3.828,1.033-5.128c0.143-0.407,0.32-0.914,0.674-1.331 c0.775-0.914,2.044-1.049,3.183-1.06c2.222-0.01,4.476,0.12,6.679,0.418c1.312,0.177,2.646,0.476,3.52,1.45 c0.518,0.577,0.791,1.567,1.01,2.362l0.11,0.393c0.26,0.885,0.521,2.03,0.775,3.14c0.25,1.094,0.508,2.225,0.759,3.08 c0.05,0.169,0.006,0.353-0.114,0.482c-0.122,0.129-0.302,0.185-0.474,0.146c-5.712-1.271-11.583-1.461-16.108-0.522 c-0.155,0.032-0.627,0.13-0.71,0.333C16.147,12.537,15.961,12.655,15.764,12.655z M23.23,10.424c2.949,0,6.101,0.323,9.223,0.962 c-0.187-0.725-0.374-1.542-0.556-2.339c-0.25-1.094-0.508-2.225-0.759-3.08l-0.115-0.408c-0.182-0.657-0.43-1.558-0.791-1.96 c-0.69-0.771-1.864-0.986-2.909-1.128c-2.155-0.291-4.341-0.421-6.536-0.408c-0.958,0.009-1.916,0.102-2.429,0.706 c-0.217,0.256-0.346,0.597-0.493,1.015c-0.423,1.211-0.71,3.11-0.988,4.947c-0.126,0.834-0.248,1.639-0.378,2.355 c0.09-0.023,0.17-0.04,0.234-0.053C18.695,10.626,20.899,10.424,23.23,10.424z"/></svg>