<svg xmlns="http://www.w3.org/2000/svg"  viewBox="0 0 100 100" width="64px" height="64px"><path fill="#c7ede6" d="M87.215,56.71C88.35,54.555,89,52.105,89,49.5c0-6.621-4.159-12.257-10.001-14.478 C78.999,35.015,79,35.008,79,35c0-11.598-9.402-21-21-21c-9.784,0-17.981,6.701-20.313,15.757C36.211,29.272,34.638,29,33,29 c-7.692,0-14.023,5.793-14.89,13.252C12.906,43.353,9,47.969,9,53.5C9,59.851,14.149,65,20.5,65c0.177,0,0.352-0.012,0.526-0.022 C21.022,65.153,21,65.324,21,65.5C21,76.822,30.178,86,41.5,86c6.437,0,12.175-2.972,15.934-7.614C59.612,80.611,62.64,82,66,82 c4.65,0,8.674-2.65,10.666-6.518C77.718,75.817,78.837,76,80,76c6.075,0,11-4.925,11-11C91,61.689,89.53,58.727,87.215,56.71z"/><path fill="#fff" d="M32.5,81h-10c-0.276,0-0.5-0.224-0.5-0.5s0.224-0.5,0.5-0.5h10c0.276,0,0.5,0.224,0.5,0.5 S32.777,81,32.5,81z"/><path fill="#fff" d="M35.5,81h-1c-0.276,0-0.5-0.224-0.5-0.5s0.224-0.5,0.5-0.5h1c0.276,0,0.5,0.224,0.5,0.5 S35.777,81,35.5,81z"/><path fill="#fff" d="M40.491,83H31.5c-0.276,0-0.5-0.224-0.5-0.5s0.224-0.5,0.5-0.5h8.991c0.276,0,0.5,0.224,0.5,0.5 S40.767,83,40.491,83z"/><path fill="#fff" d="M29.5,83h-1c-0.276,0-0.5-0.224-0.5-0.5s0.224-0.5,0.5-0.5h1c0.276,0,0.5,0.224,0.5,0.5 S29.777,83,29.5,83z"/><path fill="#fff" d="M26.5,83h-2c-0.276,0-0.5-0.224-0.5-0.5s0.224-0.5,0.5-0.5h2c0.276,0,0.5,0.224,0.5,0.5 S26.777,83,26.5,83z"/><path fill="#fff" d="M32.5,85h-2c-0.276,0-0.5-0.224-0.5-0.5s0.224-0.5,0.5-0.5h2c0.276,0,0.5,0.224,0.5,0.5 S32.776,85,32.5,85z"/><path fill="#fff" d="M35.5,76c-0.177,0-0.823,0-1,0c-0.276,0-0.5,0.224-0.5,0.5c0,0.276,0.224,0.5,0.5,0.5 c0.177,0,0.823,0,1,0c0.276,0,0.5-0.224,0.5-0.5C36,76.224,35.776,76,35.5,76z"/><path fill="#fff" d="M35.5,78c-0.177,0-4.823,0-5,0c-0.276,0-0.5,0.224-0.5,0.5c0,0.276,0.224,0.5,0.5,0.5 c0.177,0,4.823,0,5,0c0.276,0,0.5-0.224,0.5-0.5C36,78.224,35.776,78,35.5,78z"/><path fill="#fff" d="M40.5,80c-0.177,0-2.823,0-3,0c-0.276,0-0.5,0.224-0.5,0.5c0,0.276,0.224,0.5,0.5,0.5 c0.177,0,2.823,0,3,0c0.276,0,0.5-0.224,0.5-0.5C41,80.224,40.776,80,40.5,80z"/><g><path fill="#fff" d="M65.5,17h-10c-0.276,0-0.5-0.224-0.5-0.5s0.224-0.5,0.5-0.5h10c0.276,0,0.5,0.224,0.5,0.5 S65.776,17,65.5,17z"/><path fill="#fff" d="M69.5,17h-2c-0.276,0-0.5-0.224-0.5-0.5s0.224-0.5,0.5-0.5h2c0.276,0,0.5,0.224,0.5,0.5 S69.776,17,69.5,17z"/><path fill="#fff" d="M74.5,19h-10c-0.276,0-0.5-0.224-0.5-0.5s0.224-0.5,0.5-0.5h10c0.276,0,0.5,0.224,0.5,0.5 S74.777,19,74.5,19z"/><path fill="#fff" d="M62.5,19h-1c-0.276,0-0.5-0.224-0.5-0.5s0.224-0.5,0.5-0.5h1c0.276,0,0.5,0.224,0.5,0.5 S62.776,19,62.5,19z"/><path fill="#fff" d="M59.47,19H57.5c-0.276,0-0.5-0.224-0.5-0.5s0.224-0.5,0.5-0.5h1.97c0.276,0,0.5,0.224,0.5,0.5 S59.746,19,59.47,19z"/><path fill="#fff" d="M68.5,15h-5c-0.276,0-0.5-0.224-0.5-0.5s0.224-0.5,0.5-0.5h5c0.276,0,0.5,0.224,0.5,0.5 S68.777,15,68.5,15z"/><path fill="#fff" d="M65.5,21h-2c-0.276,0-0.5-0.224-0.5-0.5s0.224-0.5,0.5-0.5h2c0.276,0,0.5,0.224,0.5,0.5 S65.776,21,65.5,21z"/></g><g><path fill="#fdfcef" d="M74.25,38.5V39h-3v-0.5c0,0-4.242,0-5.5,0c-2.485,0-4.5-2.015-4.5-4.5 c0-2.333,1.782-4.229,4.055-4.455C65.283,29.364,65.25,29.187,65.25,29c0-2.485,2.015-4.5,4.5-4.5 c1.438,0,2.703,0.686,3.527,1.736c0.14-2.636,2.302-4.736,4.973-4.736c2.761,0,5,2.239,5,5c0,0.446-0.077,0.87-0.187,1.282 c0.642-0.777,1.6-1.282,2.687-1.282c1.781,0,3.234,1.335,3.455,3.055c0.181-0.022,0.358-0.055,0.545-0.055 c2.485,0,4.5,2.015,4.5,4.5s-2.015,4.5-4.5,4.5s-9.5,0-9.5,0H74.25z"/><path fill="#472b29" d="M78.25,21c3.033,0,5.5,2.467,5.5,5.5c0,0.016,0,0.031,0,0.047c0.602-0.354,1.29-0.547,2-0.547 c1.831,0,3.411,1.261,3.858,3.005C89.655,29.002,89.702,29,89.75,29c2.757,0,5,2.243,5,5s-2.243,5-5,5h-15.5 c-0.276,0-0.5-0.224-0.5-0.5s0.224-0.5,0.5-0.5h15.5c2.206,0,4-1.794,4-4s-1.794-4-4-4c-0.117,0-0.23,0.017-0.343,0.032 l-0.141,0.019c-0.021,0.003-0.041,0.004-0.062,0.004c-0.246,0-0.462-0.185-0.495-0.437C88.518,28.125,87.246,27,85.75,27 c-0.885,0-1.723,0.401-2.301,1.1c-0.098,0.118-0.241,0.182-0.386,0.182c-0.078,0-0.156-0.018-0.228-0.056 c-0.209-0.107-0.314-0.346-0.254-0.573c0.116-0.436,0.17-0.802,0.17-1.153c0-2.481-2.019-4.5-4.5-4.5 c-2.381,0-4.347,1.872-4.474,4.263c-0.011,0.208-0.15,0.387-0.349,0.45c-0.05,0.016-0.101,0.024-0.152,0.024 c-0.15,0-0.296-0.069-0.392-0.192C72.112,25.563,70.971,25,69.75,25c-2.206,0-4,1.794-4,4c0,0.117,0.017,0.23,0.032,0.343 l0.019,0.141c0.016,0.134-0.022,0.268-0.106,0.373c-0.084,0.105-0.207,0.172-0.34,0.185C63.299,30.247,61.75,31.949,61.75,34 c0,2.206,1.794,4,4,4h5.5c0.276,0,0.5,0.224,0.5,0.5s-0.224,0.5-0.5,0.5h-5.5c-2.757,0-5-2.243-5-5 c0-2.397,1.689-4.413,4.003-4.877C64.751,29.082,64.75,29.041,64.75,29c0-2.757,2.243-5,5-5c1.176,0,2.293,0.416,3.183,1.164 C73.531,22.76,75.695,21,78.25,21L78.25,21z"/><path fill="#472b29" d="M79.75,28c1.403,0,2.609,0.999,2.913,2.341C83.03,30.119,83.449,30,83.875,30 c1.202,0,2.198,0.897,2.353,2.068C86.431,32.022,86.624,32,86.813,32c1.529,0,2.811,1.2,2.918,2.732 C89.74,34.87,89.636,34.99,89.499,35c-0.006,0-0.012,0-0.018,0c-0.13,0-0.24-0.101-0.249-0.232 c-0.089-1.271-1.151-2.268-2.419-2.268c-0.229,0-0.47,0.042-0.738,0.127c-0.022,0.007-0.045,0.01-0.067,0.01 c-0.055,0-0.11-0.02-0.156-0.054c-0.064-0.047-0.102-0.129-0.102-0.209c0-1.034-0.841-1.875-1.875-1.875 c-0.447,0-0.885,0.168-1.231,0.473c-0.047,0.041-0.106,0.063-0.165,0.063c-0.032,0-0.063-0.006-0.093-0.019 c-0.088-0.035-0.148-0.117-0.155-0.212c-0.102-1.292-1.191-2.305-2.479-2.305c-0.208,0-0.425,0.034-0.682,0.107 c-0.023,0.007-0.047,0.01-0.07,0.01c-0.109,0-0.207-0.073-0.239-0.182c-0.038-0.133,0.039-0.271,0.172-0.309 C79.233,28.04,79.494,28,79.75,28L79.75,28z"/><path fill="#472b29" d="M65.867,29.5c1.326,0,2.508,0.897,2.874,2.182c0.038,0.133-0.039,0.271-0.172,0.309 C68.545,31.997,68.522,32,68.5,32c-0.109,0-0.209-0.072-0.24-0.182C67.955,30.748,66.971,30,65.867,30 c-0.117,0-0.23,0.014-0.342,0.029c-0.012,0.002-0.023,0.003-0.035,0.003c-0.121,0-0.229-0.092-0.246-0.217 c-0.019-0.137,0.077-0.263,0.214-0.281C65.592,29.516,65.728,29.5,65.867,29.5L65.867,29.5z"/></g><g><path fill="#77cbd2" d="M58,25c0,0-8.983,0.003-9.002,0.003L48,25c-11,0-21,7.667-21,28v13.125 C27,67.161,27.839,68,28.875,68H29v4h5v-4h0.125C35.161,68,36,67.161,36,66.125v-4.959c-0.164-5.521,0.801-12.744,2.488-16.978 C38.595,43.918,39,44.004,39,44.296v23.329C39,70,41,71,41,71v5h24v-5c0,0,2-1,2-3.375V44.294c0-0.291,0.404-0.378,0.512-0.107 c1.685,4.219,2.645,11.365,2.488,16.98v4.959C70,67.161,70.839,68,71.875,68H72v4h5v-4h0.125C78.161,68,79,67.161,79,66.125V53 C79,32.667,69,25,58,25z"/><rect width="22" height="6" x="42" y="70" fill="#00a5a5"/><rect width="3" height="4" x="30" y="67" fill="#00a5a5"/><rect width="3" height="4" x="73" y="67" fill="#00a5a5"/><polygon fill="#8889b9" points="47.227,25.7 57.774,25.7 52.5,34.624"/><path fill="#472b29" d="M56.547,26.4L52.5,33.249L48.454,26.4H56.547 M58.035,25H46.966c-0.427,0-0.692,0.464-0.474,0.832 l5.534,9.366c0.107,0.181,0.291,0.271,0.474,0.271s0.368-0.09,0.475-0.271l5.534-9.366C58.726,25.464,58.461,25,58.035,25 L58.035,25z"/><path fill="#472b29" d="M47.996,26.4l1.002,0.003L58,26.4c5.525,0,10.217,2.038,13.568,5.894 C75.571,36.898,77.6,43.865,77.6,53v13.125c0,0.262-0.213,0.475-0.475,0.475H77h-1.4V68v2.6h-2.2V68v-1.4H72h-0.125 c-0.262,0-0.475-0.213-0.475-0.475l-0.001-4.92c0.17-6.086-0.894-13.298-2.587-17.538c-0.253-0.634-0.857-1.044-1.538-1.044 c-0.923,0-1.674,0.749-1.674,1.67v23.331c0,1.425-1.115,2.063-1.226,2.123L63.6,70.135V71v3.6H42.4V71l-0.018-0.848l-0.739-0.396 c-0.127-0.068-1.243-0.707-1.243-2.131V44.296c0-0.921-0.751-1.67-1.675-1.67c-0.682,0-1.286,0.41-1.539,1.045 c-1.675,4.207-2.763,11.582-2.587,17.496v4.959c0,0.262-0.213,0.475-0.475,0.475H34h-1.4V68v2.6h-2.2V68v-1.4H29h-0.125 c-0.262,0-0.475-0.213-0.475-0.475V53c0-9.135,2.029-16.102,6.032-20.707C37.783,28.438,42.475,26.4,47.996,26.4 M58,25 c0,0-8.983,0.003-9.002,0.003L48,25c-11,0-21,7.667-21,28v13.125C27,67.161,27.839,68,28.875,68H29v4h5v-4h0.125 C35.161,68,36,67.161,36,66.125v-4.959c-0.164-5.521,0.801-12.744,2.488-16.978c0.045-0.112,0.141-0.163,0.238-0.163 c0.136,0,0.275,0.1,0.275,0.271v23.329C39,70,41,71,41,71v5h24v-5c0,0,2-1,2-3.375V44.294c0-0.17,0.138-0.271,0.274-0.271 c0.097,0,0.193,0.051,0.238,0.163c1.685,4.219,2.645,11.365,2.488,16.979v4.959C70,67.161,70.839,68,71.875,68H72v4h5v-4h0.125 C78.161,68,79,67.161,79,66.125V53C79,32.667,69,25,58,25L58,25z"/><path fill="#472b29" d="M45.5,71h-4c-0.276,0-0.5-0.224-0.5-0.5s0.224-0.5,0.5-0.5h4c0.276,0,0.5,0.224,0.5,0.5 S45.776,71,45.5,71z"/><path fill="#472b29" d="M50.5,71h-3c-0.276,0-0.5-0.224-0.5-0.5s0.224-0.5,0.5-0.5h3c0.276,0,0.5,0.224,0.5,0.5 S50.776,71,50.5,71z"/><path fill="#472b29" d="M64.5,71h-12c-0.276,0-0.5-0.224-0.5-0.5s0.224-0.5,0.5-0.5h12c0.276,0,0.5,0.224,0.5,0.5 S64.776,71,64.5,71z"/><path fill="#472b29" d="M57.942,31.716c-0.086,0-0.173-0.022-0.252-0.069c-0.238-0.14-0.318-0.446-0.178-0.684l3.058-5.216 c0.139-0.238,0.444-0.319,0.684-0.178c0.238,0.14,0.318,0.446,0.178,0.684l-3.058,5.216 C58.281,31.628,58.114,31.716,57.942,31.716z"/><path fill="#472b29" d="M52.497,39.788c-0.625,0-1.187-0.321-1.504-0.859l-2.083-3.53c-0.14-0.238-0.061-0.544,0.177-0.685 c0.236-0.141,0.544-0.061,0.685,0.177l2.083,3.53c0.136,0.23,0.375,0.367,0.643,0.367c0,0,0,0,0.001,0 c0.267,0,0.507-0.138,0.643-0.369l3.309-5.644c0.139-0.238,0.445-0.318,0.684-0.178c0.238,0.14,0.318,0.446,0.178,0.684 l-3.309,5.644c-0.316,0.539-0.878,0.862-1.503,0.863C52.498,39.788,52.497,39.788,52.497,39.788z"/><path fill="#472b29" d="M48.399,34.049c-0.171,0-0.338-0.088-0.431-0.246l-1.923-3.259 c-0.14-0.238-0.061-0.544,0.177-0.685c0.236-0.141,0.544-0.062,0.685,0.177l1.923,3.259c0.14,0.238,0.061,0.544-0.177,0.685 C48.573,34.026,48.486,34.049,48.399,34.049z"/><path fill="#472b29" d="M45.556,29.229c-0.171,0-0.338-0.088-0.431-0.246l-1.389-2.354 c-0.14-0.238-0.061-0.544,0.177-0.685c0.237-0.141,0.544-0.061,0.685,0.177l1.389,2.354c0.14,0.238,0.061,0.544-0.177,0.685 C45.729,29.207,45.642,29.229,45.556,29.229z"/><path fill="#472b29" d="M39.875,44.25c-0.274,0-0.498-0.221-0.5-0.496c-0.023-2.924-0.535-5.945-1.521-8.979 c-0.085-0.262,0.058-0.545,0.321-0.63c0.261-0.085,0.544,0.058,0.63,0.321c1.019,3.132,1.547,6.254,1.57,9.28 c0.002,0.276-0.22,0.502-0.496,0.504C39.877,44.25,39.876,44.25,39.875,44.25z"/><path fill="#472b29" d="M37.529,32.922c-0.198,0-0.385-0.118-0.463-0.313c-0.704-1.74-1.305-2.785-1.311-2.796 c-0.138-0.239-0.057-0.545,0.182-0.683c0.239-0.138,0.545-0.057,0.683,0.182c0.026,0.044,0.64,1.11,1.373,2.923 c0.104,0.256-0.02,0.547-0.276,0.651C37.655,32.91,37.592,32.922,37.529,32.922z"/><path fill="#472b29" d="M66.188,44.25c-0.001,0-0.002,0-0.004,0c-0.276-0.002-0.498-0.228-0.496-0.504 c0.009-1.223,0.104-2.48,0.28-3.738c0.039-0.273,0.29-0.466,0.564-0.426c0.273,0.038,0.464,0.291,0.426,0.565 c-0.17,1.214-0.262,2.427-0.271,3.606C66.686,44.029,66.462,44.25,66.188,44.25z"/><g><path fill="#472b29" d="M66.917,38.093c-0.036,0-0.073-0.004-0.11-0.012c-0.269-0.061-0.438-0.328-0.378-0.597 c1.08-4.804,2.936-8.036,3.014-8.172c0.138-0.239,0.445-0.321,0.683-0.181c0.239,0.138,0.32,0.444,0.182,0.683 c-0.019,0.032-1.859,3.244-2.903,7.889C67.352,37.935,67.146,38.093,66.917,38.093z"/></g></g><g><path fill="#fdfcef" d="M15.125,57.5c0,0-1.567,0-3.5,0s-3.5-1.567-3.5-3.5c0-1.781,1.335-3.234,3.055-3.455 c-0.028-0.179-0.055-0.358-0.055-0.545c0-1.933,1.567-3.5,3.5-3.5c1.032,0,1.95,0.455,2.59,1.165 c0.384-1.808,1.987-3.165,3.91-3.165c2.209,0,4,1.791,4,4c0,0.191-0.03,0.374-0.056,0.558c0.428-0.344,0.965-0.558,1.556-0.558 c1.228,0,2.245,0.887,2.455,2.055c0.179-0.028,0.358-0.055,0.545-0.055c1.933,0,3.5,1.567,3.5,3.5s-1.567,3.5-3.5,3.5 s-7.5,0-7.5,0V58h-7V57.5z"/><path fill="#472b29" d="M13.375,53c0.138,0,0.25-0.112,0.25-0.25c0-1.223-0.995-2.218-2.218-2.218 c-0.034,0.009-0.737-0.001-1.244,0.136c-0.133,0.036-0.212,0.173-0.176,0.306c0.036,0.134,0.173,0.213,0.306,0.176 c0.444-0.12,1.1-0.12,1.113-0.118c0.948,0,1.719,0.771,1.719,1.718C13.125,52.888,13.237,53,13.375,53z"/><circle cx="20.125" cy="57.5" r=".5" fill="#472b29"/><path fill="#472b29" d="M11.625,58h3.5c0.276,0,0.5-0.224,0.5-0.5s-0.224-0.5-0.5-0.5h-3.5c-1.654,0-3-1.346-3-3 c0-1.496,1.125-2.768,2.618-2.959c0.134-0.018,0.255-0.088,0.336-0.196s0.115-0.244,0.094-0.377 C11.65,50.314,11.625,50.16,11.625,50c0-1.654,1.346-3,3-3c0.85,0,1.638,0.355,2.219,1c0.125,0.139,0.321,0.198,0.5,0.148 c0.182-0.049,0.321-0.195,0.36-0.379C18.045,46.165,19.484,45,21.125,45c1.93,0,3.5,1.57,3.5,3.5c0,0.143-0.021,0.28-0.041,0.418 c-0.029,0.203,0.063,0.438,0.242,0.54c0.179,0.102,0.396,0.118,0.556-0.01C25.747,49.155,26.176,49,26.625,49 c0.966,0,1.792,0.691,1.963,1.644c0.048,0.267,0.296,0.446,0.569,0.405C29.311,51.025,29.465,51,29.625,51c1.654,0,3,1.346,3,3 s-1.346,3-3,3h-7.5c-0.276,0-0.5,0.224-0.5,0.5s0.224,0.5,0.5,0.5h7.5c2.206,0,4-1.794,4-4s-1.794-4-4-4 c-0.059,0-0.116,0.002-0.174,0.006C29.037,48.82,27.914,48,26.625,48c-0.349,0-0.689,0.061-1.011,0.18 C25.449,45.847,23.499,44,21.125,44c-1.831,0-3.466,1.127-4.153,2.774C16.292,46.276,15.47,46,14.625,46c-2.206,0-4,1.794-4,4 c0,0.048,0.001,0.095,0.004,0.142C8.886,50.59,7.625,52.169,7.625,54C7.625,56.206,9.419,58,11.625,58z"/><path fill="#472b29" d="M17.125,57c0.159,0,0.841,0,1,0c0.276,0,0.5,0.224,0.5,0.5c0,0.276-0.224,0.5-0.5,0.5 c-0.159,0-0.841,0-1,0c-0.276,0-0.5-0.224-0.5-0.5C16.625,57.224,16.849,57,17.125,57z"/></g></svg>