<svg xmlns="http://www.w3.org/2000/svg"  viewBox="0 0 48 48" width="64px" height="64px"><path fill="#14b6b9" d="M32.599,44.797c-0.117-0.313-0.414-0.515-0.694-0.697c-2.174-1.412-4.241-2.038-6.414-3.45 l-13.151,0.863c-2.072,0.812-5.591,1.769-7.134,3.023c-0.703,0.571,0.2,1.746,1.103,1.816c4.051,0.313,9.596,0.204,13.663,0.134 c3.525-0.061,7.049-0.121,10.574-0.182c0.502-0.009,1.025-0.023,1.466-0.261C32.452,45.805,32.775,45.267,32.599,44.797z"/><path fill="#fcbf95" d="M31.52,22.96c0,0.65-0.02,1.33-0.36,1.89c-0.28,0.44-1.46,0.58-2.22,0.44 c-0.29,2.63-0.87,5.19-2.07,7.58c-0.39,0.77-0.87,1.5-1.42,2.16c-0.36,1.78-0.56,3.89,0.04,5.62c-0.26,0.62-0.97,0.71-1.59,0.98 c-1.69,0.74-3.48,1.34-5.32,1.4c-1.85,0.06-4.74-0.37-6.06-1.65c0.3-1.37,0.01-3.98-0.52-5.28c-0.26-0.2-0.49-0.42-0.69-0.68 c-0.43-0.56-0.65-1.26-0.85-1.93c-0.72-2.34-1.58-4.76-2.2-7.21c-0.54,0.16-1.66,0.13-1.92-0.17c-0.3-0.33-0.35-0.75-0.39-1.16 c-0.14-1.36-0.27-2.73-0.41-4.1c-0.05-0.51-0.1-1.04,0.13-1.52c0.18-0.37,1.2-0.9,1.97-1.11l5.27-9.66l13.21-1.31l3.37,8.69 c-0.02,0.42-0.04,0.85-0.06,1.3c0.48-0.07,1.15,0.19,1.45,0.5c0.39,0.43,0.49,1.02,0.54,1.59C31.54,20.53,31.53,21.75,31.52,22.96z"/><path fill="#a37b57" d="M7.518,18.44c0.617-2.243,2.257-4.29,4.15-5.641c-0.064,0.555-0.032,1.102,0.468,1.659 c0.426-0.375,3.436-2.977,4.343-3.917c-0.062,0.664,0.408,1.157,0.727,1.743c1.8-1.955,4.276-3.275,6.903-3.68 c-0.326,1.786,1.348,3.242,2.827,4.295c1.479,1.053,2.736,2.054,2.642,3.807c2.793-3.558,1.95-6.727,0.035-9.956 c-0.578-0.975-1.214-1.94-2.1-2.619c-0.908-0.695-2.003-1.065-3.081-1.411c-1.83-0.587-3.694-1.143-5.608-1.213 C14.956,1.365,9.428,3.208,7.146,6.458S5.375,14.958,7.518,18.44z"/><path fill="#bcbcbc" d="M36.482,31.565c-0.165-6.643,0.275-13.106,0.109-19.75c-0.003-0.121-0.005-0.246,0.045-0.356 c0.074-0.161,0.243-0.253,0.404-0.327c1.236-0.569,2.073-0.626,3.412-0.382c0.272,0.05,0.557,0.125,0.747,0.326 c0.255,0.269,0.268,0.678,0.267,1.049c-0.025,6.489,0.026,12.987,0.001,19.426c2.161,1.206,3.4,4.113,2.653,6.473 c-0.421,1.33-1.383,2.488-2.635,3.102c-1.733,0.85-3.901,0.588-5.515-0.471c-0.412-0.27-0.794-0.589-1.12-0.96 c-0.955-1.086-1.379-2.62-1.117-4.043S34.976,32.318,36.482,31.565z"/><path d="M18.63,38.99c-0.457,0-0.913-0.041-1.366-0.123c-1.526-0.279-3.051-0.841-4.412-1.627c-0.766-0.442-1.44-0.861-1.941-1.517 c-0.491-0.641-0.726-1.411-0.934-2.091c-0.236-0.774-0.489-1.558-0.744-2.348c-1.362-4.225-2.771-8.594-2.212-12.909 c0.035-0.274,0.29-0.475,0.56-0.432c0.274,0.036,0.467,0.286,0.432,0.561c-0.53,4.093,0.844,8.354,2.172,12.474 c0.256,0.795,0.511,1.583,0.748,2.362c0.192,0.628,0.391,1.277,0.771,1.775c0.389,0.509,0.976,0.871,1.647,1.259 c1.262,0.729,2.677,1.25,4.091,1.508c3.99,0.736,7.456-2.204,8.982-5.239c1.78-3.54,2.155-7.528,2.296-11.312 c0.032-0.854,0.083-1.784,0.134-2.716c0.051-0.925,0.102-1.85,0.133-2.697c0.01-0.275,0.235-0.471,0.518-0.481 c0.276,0.011,0.491,0.243,0.481,0.519c-0.032,0.854-0.083,1.784-0.134,2.716c-0.051,0.925-0.102,1.85-0.133,2.697 c-0.145,3.896-0.537,8.013-2.402,11.724C25.499,36.715,22.063,38.99,18.63,38.99z"/><path d="M10.555,18.866c-0.158,0-0.313-0.074-0.41-0.214c-0.118-0.168-0.151-0.377-0.092-0.574 c0.114-0.375,0.497-0.551,0.612-0.597c2.027-0.787,3.545-1.255,5.765-1.476c0.277-0.006,0.52,0.173,0.547,0.449 c0.027,0.274-0.173,0.52-0.448,0.547c-2.108,0.208-3.501,0.636-5.475,1.401c-0.011,0.145-0.084,0.283-0.212,0.373 C10.754,18.837,10.654,18.866,10.555,18.866z M10.964,18.08C10.965,18.08,10.965,18.08,10.964,18.08 C10.965,18.08,10.965,18.08,10.964,18.08z"/><path d="M26.437,18.986c-0.153,0-0.305-0.07-0.403-0.203c-0.119-0.161-0.376-0.26-0.676-0.363c-0.727-0.25-1.362-0.441-1.996-0.634 c-0.646-0.195-1.292-0.391-2.033-0.646c-0.261-0.09-0.4-0.374-0.31-0.636c0.089-0.261,0.373-0.4,0.635-0.31 c0.728,0.25,1.362,0.441,1.997,0.634c0.646,0.195,1.292,0.391,2.033,0.646c0.355,0.122,0.841,0.29,1.155,0.715 c0.164,0.223,0.117,0.535-0.105,0.699C26.644,18.955,26.54,18.986,26.437,18.986z"/><path d="M13.424,20.897c-0.023,0-0.046,0-0.07-0.002c-0.435-0.023-0.833-0.389-0.923-0.848c-0.077-0.39,0.092-0.746,0.432-0.908 c0.223-0.106,0.49-0.07,0.695,0.099c-0.012-0.018,0.064-0.002,0.099-0.001c0.277,0,0.554,0.032,0.821,0.096 c0.173,0.041,0.312,0.171,0.363,0.341s0.009,0.354-0.111,0.485C14.487,20.42,14.045,20.897,13.424,20.897z"/><path d="M23.479,20.9c-0.189,0-0.395-0.025-0.597-0.114c-0.5-0.222-0.748-0.776-0.555-1.236c0.135-0.319,0.488-0.514,0.853-0.466 c0.146,0.018,0.276,0.073,0.381,0.156c0.252,0.015,0.501,0.085,0.722,0.211c0.293,0.167,0.388,0.385,0.416,0.538 c0.033,0.19-0.012,0.378-0.127,0.53c-0.209,0.276-0.573,0.342-0.72,0.356C23.742,20.888,23.615,20.9,23.479,20.9z"/><path d="M17.59,28.953c-0.267,0-0.876-0.032-1.131-0.562c-0.145-0.303-0.081-0.608-0.043-0.791 c0.138-0.655,0.296-1.342,0.459-2.045c0.455-1.973,0.925-4.013,1.07-5.83c0.022-0.275,0.265-0.479,0.538-0.458 c0.275,0.021,0.481,0.263,0.459,0.538c-0.151,1.891-0.63,3.967-1.093,5.975c-0.161,0.697-0.317,1.378-0.454,2.025 c-0.007,0.034-0.021,0.099-0.025,0.143c0.024-0.01,0.099,0.005,0.241,0.005c0.008,0,0.017,0,0.025,0l1.737-0.016 c0.001,0,0.003,0,0.004,0c0.274,0,0.498,0.221,0.5,0.496s-0.22,0.502-0.496,0.504l-1.736,0.016 C17.629,28.953,17.611,28.953,17.59,28.953z M17.369,27.983h0.01H17.369z"/><path d="M14.118,32.466c-0.243,0-0.457-0.178-0.494-0.425c-0.042-0.273,0.146-0.528,0.419-0.569 c2.867-0.435,5.774-0.457,8.644-0.068c0.273,0.037,0.465,0.289,0.428,0.563c-0.037,0.274-0.295,0.474-0.563,0.428 c-2.775-0.375-5.587-0.354-8.36,0.066C14.168,32.464,14.143,32.466,14.118,32.466z"/><path d="M7.486,26.982c-0.581,0-1.221-0.197-1.522-0.533c-0.415-0.463-0.471-1.031-0.512-1.447l-0.408-4.104 c-0.051-0.522-0.115-1.172,0.18-1.785c0.295-0.612,1.063-1.21,1.966-1.12c0.275,0.022,0.48,0.264,0.458,0.538 c-0.023,0.276-0.268,0.476-0.539,0.458c-0.432-0.035-0.838,0.256-0.983,0.558c-0.174,0.36-0.129,0.814-0.086,1.253l0.408,4.104 c0.038,0.386,0.079,0.675,0.262,0.878c0.162,0.167,0.903,0.273,1.101,0.153c0.238-0.138,0.545-0.061,0.685,0.179 c0.14,0.238,0.06,0.544-0.178,0.684C8.101,26.924,7.802,26.982,7.486,26.982z"/><path d="M29.864,25.875c-0.375,0-0.776-0.076-1.096-0.284c-0.231-0.151-0.297-0.461-0.146-0.692s0.461-0.297,0.692-0.146 c0.161,0.104,0.542,0.171,0.935,0.081c0.28-0.062,0.435-0.173,0.482-0.248c0.281-0.452,0.287-1.08,0.291-1.633 c0.009-1.179,0.02-2.397-0.098-3.575c-0.049-0.491-0.133-0.988-0.416-1.294c-0.198-0.214-0.426-0.323-0.553-0.323 c-0.001,0-0.003,0-0.005,0c-0.177,0.211-0.535,0.261-0.747,0.082c-0.211-0.178-0.281-0.472-0.103-0.684 c0.213-0.253,0.499-0.391,0.826-0.398c0.435-0.021,0.932,0.23,1.315,0.644c0.484,0.522,0.612,1.21,0.678,1.874 c0.122,1.232,0.112,2.478,0.103,3.683c-0.005,0.651-0.012,1.463-0.442,2.153c-0.209,0.336-0.605,0.583-1.115,0.696 C30.287,25.851,30.08,25.875,29.864,25.875z"/><path fill="#ef4823" d="M36.482,31.565c-0.165-6.643,0.111-3.503-0.054-10.146c-0.003-0.121,5.055-0.967,5.054-0.597 c-0.025,6.464,0.012,4.264-0.014,10.728c2.161,1.206,3.4,4.113,2.653,6.473c-0.421,1.33-1.383,2.488-2.635,3.102 c-1.733,0.85-3.901,0.588-5.515-0.471c-0.412-0.27-0.794-0.589-1.12-0.96c-0.955-1.086-1.379-2.62-1.117-4.043 S34.976,32.318,36.482,31.565z"/><path d="M7.518,18.94c-0.172,0-0.334-0.089-0.426-0.238C5.02,15.334,4.19,9.798,6.737,6.171c2.403-3.424,8.025-5.312,12.106-5.164 c1.975,0.074,3.843,0.628,5.742,1.238c1.212,0.389,2.292,0.769,3.232,1.489c0.996,0.764,1.671,1.825,2.226,2.761 c1.742,2.938,3.095,6.485-0.072,10.52c-0.136,0.171-0.369,0.234-0.569,0.159c-0.204-0.076-0.335-0.276-0.324-0.494 c0.079-1.468-0.958-2.324-2.433-3.373c-1.423-1.013-2.994-2.365-3.076-4.096c-2.293,0.485-4.404,1.683-5.996,3.412 c-0.109,0.119-0.27,0.18-0.429,0.157c-0.16-0.02-0.301-0.115-0.378-0.257c-0.073-0.135-0.155-0.264-0.236-0.392 c-0.12-0.188-0.246-0.389-0.348-0.605c-1.045,0.979-2.698,2.419-3.411,3.04l-0.305,0.267c-0.206,0.182-0.519,0.163-0.702-0.04 c-0.305-0.34-0.47-0.679-0.552-1.006C9.647,15.118,8.472,16.855,8,18.573c-0.053,0.191-0.214,0.334-0.411,0.362 C7.565,18.938,7.542,18.94,7.518,18.94z M18.398,1.999c-3.689,0-8.743,1.755-10.843,4.746c-2.076,2.956-1.641,7.363-0.137,10.471 c0.773-1.818,2.195-3.565,3.959-4.824c0.161-0.114,0.374-0.124,0.544-0.023c0.17,0.101,0.266,0.292,0.243,0.488 c-0.037,0.323-0.034,0.591,0.072,0.851c0.962-0.84,3.148-2.751,3.882-3.512c0.147-0.154,0.375-0.198,0.568-0.107 c0.193,0.088,0.309,0.289,0.29,0.501c-0.026,0.281,0.101,0.531,0.32,0.884c1.833-1.786,4.2-2.972,6.735-3.362 c0.159-0.026,0.322,0.029,0.435,0.146s0.163,0.279,0.133,0.438c-0.276,1.513,1.258,2.824,2.625,3.798 c1.009,0.718,2.206,1.57,2.665,2.881c1.854-3.12,0.78-5.859-0.708-8.368c-0.629-1.061-1.206-1.888-1.974-2.478 c-0.813-0.622-1.807-0.971-2.929-1.33c-1.831-0.589-3.626-1.122-5.474-1.19C18.672,2.002,18.536,1.999,18.398,1.999z"/><path d="M39.226,42.13c-1.216,0-2.462-0.358-3.528-1.058c-0.471-0.309-0.881-0.661-1.221-1.047 c-1.064-1.21-1.525-2.879-1.234-4.464c0.271-1.467,1.232-3.376,2.733-4.287c-0.074-3.229-0.05-6.461-0.026-9.589 c0.024-3.219,0.225-6.544,0.142-9.858c-0.003-0.144-0.008-0.359,0.09-0.576c0.162-0.351,0.506-0.508,0.653-0.574 c1.24-0.57,2.158-0.701,3.709-0.42c0.342,0.063,0.731,0.169,1.021,0.476c0.407,0.429,0.405,1.032,0.403,1.393 c-0.013,3.231,0.014,6.509,0.014,9.756c0,3.153-0.001,6.247-0.013,9.386c2.193,1.396,3.407,4.444,2.629,6.906 c-0.471,1.49-1.525,2.729-2.892,3.4C40.947,41.946,40.094,42.13,39.226,42.13z M39.158,11.117c-0.745,0-1.222,0.154-1.907,0.469 c-0.127,0.058-0.16,0.086-0.168,0.096c0.006,0,0.008,0.079,0.009,0.121c0.083,3.329-0.118,6.662-0.143,9.889 c-0.024,3.219-0.049,6.547,0.034,9.859c0.005,0.194-0.103,0.373-0.276,0.46c-1.296,0.648-2.229,2.367-2.48,3.731 c-0.233,1.267,0.151,2.654,1.001,3.622c0.28,0.318,0.623,0.611,1.019,0.871c1.54,1.009,3.51,1.183,5.021,0.439 c1.106-0.542,1.995-1.59,2.379-2.803c0.672-2.129-0.453-4.787-2.421-5.886c-0.159-0.089-0.257-0.257-0.256-0.438 c0.013-3.231,0.014-6.42,0.014-9.667c0-3.248-0.027-6.527-0.014-9.76c0.001-0.272-0.008-0.573-0.13-0.702 c-0.093-0.098-0.302-0.146-0.474-0.178C39.891,11.155,39.56,11.117,39.158,11.117z"/><path d="M36.64,21.862c-0.249,0-0.463-0.185-0.496-0.438c-0.035-0.273,0.159-0.523,0.433-0.559 c0.772-0.098,1.568-0.095,2.336-0.094c0.771,0.001,1.43,0.03,2.137-0.061c0.297-0.044,0.556,0.142,0.679,0.337 c0.104,0.165,0.114,0.436,0.008,0.599c-0.106,0.163-0.347,0.258-0.539,0.234c-0.115-0.017-0.214-0.07-0.289-0.147 c-0.687,0.068-1.316,0.041-1.999,0.039c-0.768,0.002-1.5-0.004-2.208,0.086C36.682,21.861,36.661,21.862,36.64,21.862z M41.178,21.704c0,0-0.001,0-0.001,0C41.177,21.704,41.177,21.704,41.178,21.704z"/><path fill="#9fdadf" d="M23.723,6.617c-0.584,1.338-1.085,2.614-1.669,3.953c-0.331,0.757-0.633,1.729-0.088,2.341 c0.307,0.344,0.788,0.444,1.235,0.523c0.526,0.093,1.1,0.174,1.564-0.094c0.629-0.363,0.801-1.245,0.629-1.964 s-0.605-1.338-0.941-1.993C24.025,8.543,23.831,7.559,23.723,6.617z"/><path d="M23.988,14.022c-0.324,0-0.629-0.054-0.873-0.097c-0.432-0.076-1.084-0.191-1.521-0.682 c-0.754-0.846-0.36-2.046,0.002-2.875c0.291-0.666,0.561-1.316,0.831-1.968c0.272-0.656,0.545-1.313,0.838-1.984 c0.09-0.206,0.31-0.325,0.532-0.294c0.224,0.033,0.397,0.213,0.422,0.438c0.128,1.113,0.344,1.938,0.68,2.594 c0.088,0.172,0.183,0.341,0.278,0.511c0.276,0.492,0.562,1.002,0.704,1.595c0.205,0.851,0.021,2.001-0.865,2.513 C24.686,13.964,24.327,14.022,23.988,14.022z M23.532,8.348c-0.061,0.146-0.121,0.292-0.181,0.438 c-0.272,0.656-0.545,1.313-0.838,1.984c-0.395,0.904-0.451,1.496-0.172,1.809c0.191,0.214,0.558,0.294,0.949,0.363 c0.47,0.082,0.919,0.143,1.228-0.034c0.417-0.242,0.514-0.909,0.392-1.414c-0.109-0.458-0.35-0.887-0.604-1.34 c-0.101-0.18-0.202-0.36-0.296-0.544C23.817,9.234,23.66,8.819,23.532,8.348z"/><path fill="#9fdadf" d="M10.647,26.683c-0.625,1.417-1.556,2.42-1.959,3.91c-0.086,0.319,0.093,1.072,0.234,1.372 c0.247,0.526,1.157,0.647,1.734,0.501c0.802-0.204,1.596-0.761,1.703-1.557c0.06-0.444-0.102-0.886-0.262-1.307 C11.691,28.531,11.054,27.756,10.647,26.683z"/><path d="M10.17,33.022c-0.655,0-1.409-0.226-1.7-0.844c-0.136-0.289-0.406-1.194-0.265-1.716c0.259-0.956,0.718-1.724,1.162-2.465 c0.287-0.479,0.583-0.974,0.822-1.517c0.082-0.186,0.267-0.28,0.471-0.298c0.203,0.006,0.382,0.133,0.454,0.322 c0.19,0.501,0.435,0.934,0.693,1.392c0.266,0.471,0.541,0.957,0.758,1.528c0.164,0.434,0.368,0.972,0.29,1.551 c-0.149,1.105-1.211,1.755-2.076,1.975C10.602,32.996,10.392,33.022,10.17,33.022z M10.626,27.828 c-0.132,0.234-0.268,0.461-0.401,0.684c-0.428,0.715-0.833,1.39-1.056,2.213c-0.038,0.162,0.082,0.769,0.204,1.028 c0.104,0.218,0.722,0.34,1.159,0.229c0.607-0.154,1.254-0.566,1.331-1.139c0.044-0.328-0.104-0.719-0.234-1.063 c-0.189-0.5-0.434-0.933-0.693-1.391C10.833,28.206,10.729,28.021,10.626,27.828z"/><path d="M18.233,43.536c-2.091,0-4.769-0.546-6.061-1.803c-0.124-0.12-0.176-0.295-0.14-0.464c0.262-1.217,0.014-3.731-0.492-4.981 c-0.104-0.256,0.02-0.548,0.276-0.651c0.256-0.102,0.547,0.021,0.651,0.276c0.545,1.35,0.812,3.802,0.595,5.273 c1.193,0.96,3.619,1.412,5.498,1.345c1.518-0.048,3.102-0.468,5.136-1.361c0.158-0.069,0.321-0.127,0.483-0.185 c0.366-0.13,0.622-0.229,0.765-0.396c-0.466-1.515-0.451-3.421,0.045-5.816c0.056-0.271,0.318-0.455,0.591-0.388 c0.271,0.056,0.444,0.32,0.389,0.591c-0.482,2.331-0.485,4.133-0.007,5.507c0.041,0.116,0.037,0.244-0.011,0.357 c-0.285,0.679-0.923,0.905-1.436,1.087c-0.139,0.049-0.28,0.099-0.416,0.158c-1.338,0.588-3.366,1.377-5.506,1.445 C18.475,43.534,18.355,43.536,18.233,43.536z"/><path d="M13.397,47.063c-2.498,0-5.021-0.049-7.128-0.212c-0.757-0.059-1.526-0.671-1.752-1.395 C4.36,44.954,4.5,44.465,4.889,44.148c1.201-0.976,3.423-1.745,5.384-2.424c0.687-0.238,1.336-0.463,1.883-0.678 c0.257-0.1,0.547,0.025,0.648,0.283c0.101,0.257-0.026,0.547-0.283,0.648c-0.558,0.219-1.22,0.448-1.921,0.69 c-1.883,0.652-4.017,1.392-5.081,2.255c-0.041,0.033-0.097,0.079-0.048,0.235c0.093,0.297,0.495,0.665,0.875,0.695 c3.904,0.299,9.3,0.208,13.24,0.139l10.949-0.188c0.418-0.007,0.893-0.016,1.238-0.202c0.258-0.139,0.429-0.439,0.357-0.631 c-0.059-0.156-0.261-0.298-0.499-0.453c-1.06-0.688-2.123-1.198-3.151-1.693c-1.056-0.508-2.149-1.032-3.263-1.756 c-0.231-0.15-0.297-0.46-0.147-0.691s0.459-0.297,0.692-0.146c1.06,0.688,2.123,1.198,3.151,1.693 c1.056,0.508,2.149,1.032,3.263,1.756c0.283,0.185,0.711,0.463,0.89,0.94c0.276,0.739-0.199,1.527-0.819,1.862 c-0.559,0.302-1.188,0.313-1.695,0.321l-10.949,0.188C17.755,47.025,15.585,47.063,13.397,47.063z"/><path d="M36.563,24.125c0.625,0,1.25,0,1.875,0c0.643,0,0.645-1,0-1c-0.625,0-1.25,0-1.875,0 C35.919,23.125,35.918,24.125,36.563,24.125L36.563,24.125z"/><path d="M36.875,26.125c0.625,0,1.25,0,1.875,0c0.643,0,0.645-1,0-1c-0.625,0-1.25,0-1.875,0 C36.232,25.125,36.23,26.125,36.875,26.125L36.875,26.125z"/><path d="M36.813,28.068c0.564-0.02,1.126-0.014,1.69,0.018c0.643,0.036,0.641-0.964,0-1c-0.563-0.032-1.126-0.038-1.69-0.018 C36.171,27.09,36.168,28.09,36.813,28.068L36.813,28.068z"/><path d="M36.938,30.053c0.542,0.033,1.084,0.066,1.627,0.099c0.643,0.039,0.64-0.961,0-1c-0.542-0.033-1.084-0.066-1.627-0.099 C36.295,29.014,36.298,30.014,36.938,30.053L36.938,30.053z"/><path d="M37,19.944c0.482-0.026,0.959-0.016,1.44,0.03c0.64,0.062,0.636-0.938,0-1c-0.481-0.047-0.958-0.057-1.44-0.03 C36.36,18.979,36.356,19.979,37,19.944L37,19.944z"/><path d="M37.063,18.006c0.468-0.034,0.91-0.013,1.37,0.086c0.628,0.134,0.896-0.829,0.266-0.964 c-0.542-0.116-1.082-0.162-1.636-0.121C36.425,17.053,36.42,18.054,37.063,18.006L37.063,18.006z"/><path d="M36.75,15.882c0.512,0.036,1.006,0.123,1.501,0.257c0.622,0.168,0.888-0.797,0.266-0.964 c-0.58-0.156-1.168-0.251-1.767-0.292C36.107,14.837,36.11,15.837,36.75,15.882L36.75,15.882z"/></svg>