<svg xmlns="http://www.w3.org/2000/svg"  viewBox="0 0 64 64" width="64px" height="64px"><rect width="54" height="30" x="7" y="1" fill="#72caaf" rx="2" ry="2"/><path fill="#97e0bb" d="M9,1H59a2,2,0,0,1,2,2V3a3,3,0,0,1-3,3H10A3,3,0,0,1,7,3V3A2,2,0,0,1,9,1Z"/><path fill="#fadb6f" d="M52 14A3 3 0 1 0 52 20 3 3 0 1 0 52 14zM16 14A3 3 0 1 0 16 20 3 3 0 1 0 16 14z"/><path fill="#bbdef9" d="M34 6A8 10 0 1 0 34 26A8 10 0 1 0 34 6Z"/><path fill="#def0ff" d="M34 26c4.42 0 8-4.48 8-10a11.82 11.82 0 0 0-1.26-5.36l-11 13.85A6.83 6.83 0 0 0 34 26zM28.13 22.78L39.36 8.59a8.21 8.21 0 0 0-1.79-1.53L26.89 20.56A10.34 10.34 0 0 0 28.13 22.78zM26.32 18.76L36.13 6.37a6.6 6.6 0 0 0-.82-.22L26.13 17.73C26.18 18.08 26.24 18.42 26.32 18.76z"/><path fill="#8d6c9f" d="M9,32H59a3,3,0,0,0,3-3V3a3,3,0,0,0-3-3H9A3,3,0,0,0,6,3V29A3,3,0,0,0,9,32ZM8,3A1,1,0,0,1,9,2H59a1,1,0,0,1,1,1V29a1,1,0,0,1-1,1H9a1,1,0,0,1-1-1Z"/><path fill="#8d6c9f" d="M21 8a1 1 0 0 0 1-1V5a1 1 0 0 0-2 0V7A1 1 0 0 0 21 8zM26 8a1 1 0 0 0 1-1V5a1 1 0 0 0-2 0V7A1 1 0 0 0 26 8zM42 8a1 1 0 0 0 1-1V5a1 1 0 0 0-2 0V7A1 1 0 0 0 42 8zM47 8a1 1 0 0 0 1-1V5a1 1 0 0 0-2 0V7A1 1 0 0 0 47 8zM21 24a1 1 0 0 0-1 1v2a1 1 0 0 0 2 0V25A1 1 0 0 0 21 24zM26 28a1 1 0 0 0 1-1V25a1 1 0 0 0-2 0v2A1 1 0 0 0 26 28zM42 24a1 1 0 0 0-1 1v2a1 1 0 0 0 2 0V25A1 1 0 0 0 42 24zM47 28a1 1 0 0 0 1-1V25a1 1 0 0 0-2 0v2A1 1 0 0 0 47 28zM11 7h5a1 1 0 0 0 0-2H11a1 1 0 0 0 0 2zM11 27h5a1 1 0 0 0 0-2H11a1 1 0 0 0 0 2zM57 25H52a1 1 0 0 0 0 2h5a1 1 0 0 0 0-2zM52 7h5a1 1 0 0 0 0-2H52a1 1 0 0 0 0 2zM30 25s0 0 0 0v2a1 1 0 0 0 2 0V25.74a7.9 7.9 0 0 0 4 0V27a1 1 0 0 0 2 0V25s0 0 0 0a10.16 10.16 0 0 0 5-9 10.16 10.16 0 0 0-5-9s0 0 0 0V5a1 1 0 0 0-2 0V6.26a7.9 7.9 0 0 0-4 0V5a1 1 0 0 0-2 0V7s0 0 0 0a10.16 10.16 0 0 0-5 9A10.16 10.16 0 0 0 30 25zM34 8c3.86 0 7 3.59 7 8s-3.14 8-7 8-7-3.59-7-8S30.14 8 34 8zM52 21a4 4 0 1 0-4-4A4 4 0 0 0 52 21zm0-6a2 2 0 1 1-2 2A2 2 0 0 1 52 15zM12 17a4 4 0 1 0 4-4A4 4 0 0 0 12 17zm6 0a2 2 0 1 1-2-2A2 2 0 0 1 18 17z"/><path fill="#faefde" d="M27,50l5,2a10,10,0,0,0,7.81-.16l2.95-1.33A2,2,0,0,0,44,48.73v-.41a4,4,0,0,0-4.29-4l-2.19.16a6,6,0,0,1-3-.56l-9.41-4.44a12,12,0,0,0-6.52-1.07L6.77,39.82a2,2,0,0,0-1.77,2V54.47a2,2,0,0,0,2.48,1.94L14,54.77a8,8,0,0,1,5.67.68L32.3,62.08a8,8,0,0,0,7.41,0l21.3-11a3.68,3.68,0,0,0,2-3.27h0a3.68,3.68,0,0,0-4.6-3.56L44,48"/><path fill="#efd8be" d="M42.49,56.66,39.71,58.1a8,8,0,0,1-7.41,0L19.71,51.45A8,8,0,0,0,14,50.77L5,53v1.44a2,2,0,0,0,2.48,1.94L14,54.77a8,8,0,0,1,5.67.68L32.3,62.08a8,8,0,0,0,7.41,0l7.1-3.68-.34-.6A3,3,0,0,0,42.49,56.66Z"/><path fill="#fff7f0" d="M25.12,43.49l9.41,4.44a6,6,0,0,0,3,.56l2.19-.16a4,4,0,0,1,3.65,1.86l.1.18a2,2,0,0,0,2.34,1.12L62.91,47a3.67,3.67,0,0,0-4.52-2.83L44,48h0a4,4,0,0,0-4.25-3.62l-2.19.16a6,6,0,0,1-3-.56l-9.41-4.44a12,12,0,0,0-6.52-1.07L6.77,39.82a2,2,0,0,0-1.77,2V44l13.6-1.6A12,12,0,0,1,25.12,43.49Z"/><path fill="#8d6c9f" d="M11 42H9a1 1 0 0 0 0 2h2a1 1 0 0 0 0-2zM11 47H9a1 1 0 0 0 0 2h2a1 1 0 0 0 0-2zM11 52H9a1 1 0 0 0 0 2h2a1 1 0 0 0 0-2z"/><path fill="#8d6c9f" d="M62.18,44.08a4.65,4.65,0,0,0-4-.83L44.74,46.73a5,5,0,0,0-5.1-3.39l-2.19.16A5,5,0,0,1,35,43l-9.41-4.44a13,13,0,0,0-7.07-1.15L6.65,38.83a3,3,0,0,0-2.65,3V54.47a3,3,0,0,0,3.73,2.91l6.56-1.64a7,7,0,0,1,5,.6L31.84,63a9,9,0,0,0,8.34,0l21.3-11a4.69,4.69,0,0,0,.71-7.86Zm-1.63,6.09-21.3,11a7,7,0,0,1-6.48,0L20.18,54.57a9,9,0,0,0-6.37-.77L7.24,55.44a1,1,0,0,1-1.24-1V41.81a1,1,0,0,1,.88-1l11.83-1.39a11,11,0,0,1,6,1l9.41,4.44a7.06,7.06,0,0,0,3.49.65l2.19-.16a3,3,0,0,1,3.22,3v.41a1,1,0,0,1-.59.91l-3,1.33a9.05,9.05,0,0,1-7,.15l-5-2A1,1,0,1,0,26.64,51l5,2a11.05,11.05,0,0,0,8.6-.18l3-1.33A3,3,0,0,0,45,48.73l13.65-3.54a2.68,2.68,0,0,1,1.91,5Z"/></svg>