<svg xmlns="http://www.w3.org/2000/svg"  viewBox="0 0 512 512" width="64px" height="64px"><path fill="#71C598" d="M107.9,171.9c-0.6-5.1-2-10-4-14.7c-3.2-7.3-8.9-16.7-16.8-12c0,3.8,0.2,7.6,0.4,11.4c0.9,2,2,3.8,3.2,5.5c4.5,6.1,10.6,9.7,17.3,11.5C108,173.1,108,172.5,107.9,171.9z"/><path fill="#127274" d="M159.4,405.9c-4.4-26-8.4-52.2-12.6-78.3c-4.2-26.2-8.9-52.2-12.5-78.4c-1-7.1-2-14.2-3.3-21.2c-1.2-6.5-3.4-12.8-5.2-19.1c-1.7-5.8-4.2-11.9-5-17.9c-0.2-1.6-0.3-3.1-0.1-4.6c-1.7,0-3.3-0.1-5-0.2c-1.3,1.2-2.9,2.1-5.1,2.5c-3.5,0.7-5.4-1.7-5.6-4.4c-1.7-0.5-3.3-1-5-1.7c-4-1.6-7.5-3.7-10.7-6.2c1.6,12.5,3.8,25,6,37.4c4.6,25.5,7.4,51.3,12.1,76.8c4.8,26,10.7,51.9,14.6,78.1c3.2,21,3.6,42.4,6.7,63.4c2.8,19,10.4,36.5,30.7,41.4c4.9,1.2,9.9,2,14.9,2.6C169.1,452.7,163.4,429.4,159.4,405.9z"/><path fill="#71C598" d="M265.3 272.8c-2.4-6.6-7.3-11.1-14.5-11.9-5.6-.6-11.9.7-10.7 7.4 0 0 0 .1 0 .1.2.8.2 1.8-.1 2.9-3.1 10.2 1.4 22.7 6.5 31.5 2.5 4.4 5.4 9 9.6 12 1.3 1 2.5 1.3 3.1 1.3.7-.1.2.2.9-.3.5-.4.8-.6 1.3-1.3 3.7-5 4.4-12.6 5.1-18.6C267.4 288.2 267.9 279.9 265.3 272.8zM411.8 109.4c-.6-7.9-1.4-15.8-2.9-23.6-.6-3.4-1.4-6.8-2.7-10-.2-.4-.3-.7-.4-.9-1.1.1-2-.2-2.8-.7-9.7 3.5-19.5 7-29.1 10.7-10.5 4-20.6 8.8-30.7 13.6 2.7.9 3.8 4 3.2 6.6.4.6.9 1.2 1.4 1.7.7.8 1.5 1.6 2.2 2.4.3.1.8.3 1.4.4 1 .1 2 0 3-.2 2-.3 4-.9 5.9-1.6 9.7-3.7 18.2-9.9 27.5-14.6 3.3-1.7 6.7-.8 8.3 2.7 2.1 4.8 2.2 9.8 1.9 14.9-.2 4.4-1.3 9.8.1 14.1 1.6 4.7 2.1 4.2 6.6 3.1 2.9-.7 5.6-1.2 8.5-1.3C412.6 120.9 412.2 115.1 411.8 109.4zM344 37.7c-.2-.6-.3-1-.5-1.3-.3 1.1-1 2.1-2.3 2.8-3.5 2.2-7.1 4.2-10.8 6-.1.7-.3 1.5-.9 2.4-1 1.6-2.2 3.2-2.7 4.9 2.5-.2 5.3-1.5 7.4-2 3-.7 5.7-.7 8.5-.1.1-.7.2-1.4.6-2.1.3-.7.8-1.3 1.4-1.7C344.7 43.7 344.7 40.1 344 37.7zM341.6 109.1c3-.3 4-1.6 4.2-2.8C345 107.8 343.7 108.9 341.6 109.1z"/><path fill="#D6E5E5" d="M345.2,74.8c-4.9-3.1-6.8-8.5-5.7-13.8c-1.5-0.1-2.8,0.2-4.3,0.6c-3.8,1.1-8.2,2.6-12.2,1.7c-6.7-1.5-8.1-6.5-7.1-11.8c-12.8,4.9-26.2,8.6-39.4,12.6c-12,3.7-23.6,8.5-35.4,12.5c-12,4.1-24.1,7.9-36.1,12.1c-12.5,4.4-25.3,7.9-38,11.6c-11.7,3.4-23.3,7.6-35.2,10.6c-8.3,2.1-16.5,4.3-24.6,7.1c-6.6,2.3-15.3,4.8-20.1,10.2c-0.1,0.1-0.2,0.2-0.3,0.3c0.1,0.9,0,1.9-0.4,3c-0.2,0.4-0.3,0.9-0.5,1.3c0.1,0.2,0.3,0.3,0.4,0.5c12.4-3.5,22.9,8.4,27.7,20.1c2,4.8,5.1,13.9,5.1,21.7c10.6,0.4,21.8-2,31-4.8c29.6-9,58.3-20.8,86.5-33.6c28.3-12.9,56.2-26.9,84.3-40.2c12.4-5.9,24.6-12.1,37.2-17.4C355.1,76.2,349.2,77.3,345.2,74.8z"/><path fill="#71C598" d="M422,283c-1.5-16-3.1-31.9-4.1-48c-1.1-16.2-1-32.4-1.7-48.5c-0.7-16.3-1.5-32.7-2.5-49c-4.4,0.1-8.5,2.4-12.9,2.3c-4.9-0.1-8.5-2.1-11-6.3c-5.3-8.7-1.7-18.4-2.6-27.5c-11.4,6.8-23.6,15.5-36.8,14.4c-6.1-0.5-10.1-4.8-13.4-9.7c-1.8-2.7-2.6-6-1.7-8.6C280,128,226,157.1,168.1,176.3c-11.3,3.8-23.7,7.7-36.1,9.3c0.1,0.5,0.1,1,0.2,1.6c0,1-0.1,1.9-0.5,2.6c0.3,1.4,0.9,2.9,1.2,4.2c0.9,3.1,1.8,6.2,2.6,9.3c1.8,6.2,3.5,12.4,5.3,18.5c3.3,11.5,4.1,24.2,5.7,36.1c3.3,25,8.2,49.7,12.1,74.5c4,24.8,7.7,49.7,12,74.4c4,23.4,9.8,46.6,15.1,69.7c20.1,0.4,40.2-3.6,59.3-9.5c27.2-8.3,53.4-20,79.6-30.9c12.3-5.1,24.5-10.5,36.4-16.5c0-0.5,0-1.1-0.1-1.6c-0.4-1.8-0.9-3.5-1.3-5.3c-0.9-3.9-2-7.9-2.2-11.9c-0.3-7.1,2.5-13.4,7.8-18.2c9.9-9,24-15.6,37.7-17.2c-0.6-11.3-2.5-22.4-1.4-33.8c0.5-5.5,1.7-11.8,6-15.7c5-4.6,11.1-3.1,17-4.2C423.8,302.2,422.9,292.6,422,283z M226.6,320.7c-4.1,14.7-18.5,23.1-32.5,14.6c-10.2-6.2-14.3-17.6-15.6-28.9c-1.2-10.2-1.4-22.5,3.6-31.8c5.3-10.1,15.5-11.9,25.1-6.4c6.1,3.5,1.3,13.4-4.9,9.9c-6-3.4-8.9-2.7-11.2,3.5c-2.6,6.9-2.5,15.1-1.7,22.3c0.8,7.2,2,14.5,7.2,19.5c7.2,6.8,16.5,5.4,19.3-4.7C217.7,311.8,228.5,313.9,226.6,320.7z M278,290.1c-0.4,9.1-1.4,20.3-6.2,28.3c-3.3,5.4-9.1,10.2-15.9,8.1c-6.7-2.1-11.7-7.2-15.5-12.9c-8-11.9-15.5-29.9-11.1-44.4c0-0.1,0-0.1,0-0.2c-0.2-0.7-0.3-1.5-0.3-2.3c-0.1-22.7,32.7-20.2,42.6-6C277.4,269.3,278.5,280,278,290.1z M328.8,288.5c-7.2,11.3-20.7,11.8-30.3,2.9c-7.7-7.1-11.6-17-10.7-26.9c-2.2-0.8-3.8-2.9-2.9-5.9c2.4-8.2,6-17.1,14.5-20.7c7.8-3.3,18.5-2.1,24.7,3.9c6.2,6,9.1,14.6,9.4,23.1C333.7,272.7,333,281.8,328.8,288.5z M382.1,232.1c-4.2,7.4-8.6,16-14.7,22.4c7.5,7.3,12.1,20,12.3,28.7c0.2,7.1-10.8,7.9-11,0.8c-0.1-5.4-3.8-18.5-10-22.8c-1.4,0.8-2.9,1.4-4.5,1.9c0,9.1,0.5,18-2,26.8c-0.8,2.7-3.4,5.2-6.4,4.3c0,0,0,0,0,0c-3-0.8-4.8-3.3-4.3-6.4c0.1-0.7,0.3-1.5,0.4-2.2c0.1-0.5,0.2-0.9,0.4-1.3c2-10.3,1-21.1,1-31.5c0-9.5-6.2-23.4,2.4-30.7c5.4-4.6,11.5,4.6,6.2,9.1c1-0.8,0.5,3.5,0.6,4.7c0.3,2.8,0.8,5.7,1.2,8.5c0.2,1.5,0.4,2.9,0.5,4.4c1.1,0,2.2,0,3.3,0.2c6.7-5.5,10.9-14.7,15-21.8C375.7,221.1,385.6,225.9,382.1,232.1z"/><path fill="#71C598" d="M425.4 322.7c-1.6.2-3.3.3-5 .4-1.7.1-4.5-.2-5.6 1.3-2.5 3.2-2.5 8.8-2.6 12.7-.1 11.1 1.8 22.1 1.9 33.3 0 2.9-1.9 5.9-5.1 5.9-12.4.2-28.7 5.9-37.1 15.4-6.2 7.1-2.1 14.8-.3 22.6 7.4-4.1 14.6-8.5 21.5-13.4.6-1 1.6-1.9 3.1-2.3 0 0 .1 0 .1 0 1.1-.8 2.1-1.5 3.2-2.3 2.1-1.6 4.3-1.3 5.9-.1 4.3-1.3 8.5-2.9 12.3-5.1 6.4-3.7 9.3-7.3 9.4-14.9C427.5 358.1 426.7 340.4 425.4 322.7zM318.7 252.4c-3.2-4.5-9.4-6.8-14.7-4.5-2.8 1.2-4.6 3.6-6 6.3 1.7 1.5 2.6 3.8 1.6 6.5-2.8 7.2-.5 16.1 4.9 21.4 4.2 4.1 10.2 7.3 14.2 1.8C324.3 276.1 324.2 260.1 318.7 252.4z"/><path fill="#010101" d="M438.2,363.8c-0.1-32.4-3.7-64.7-6.7-97c-1.5-15.9-2.8-31.9-3.5-47.9c-0.7-16.3-0.7-32.7-1.6-49c-1.3-22.7-2-45.7-4.2-68.3c-0.5-5.6-1.8-26-8.2-34.6c0.4-3.6-2.7-7.7-7.1-6c-12.6,4.7-25.4,9.1-37.9,14c-2.5-4.3-6.2-7.1-11.5-8.2c-2.2-0.5-4.6-0.3-6.6-1.3c-1.6-0.8-0.7-1.9-0.2-3c0.5-1,0.7-2,0.8-2.9c0.6-0.1,1.3-0.4,1.8-0.8c2.5-1.7,3.1-5.1,1.5-7.6c-0.2-0.3-0.4-0.6-0.6-0.9c0.9-1,1.5-2.3,1.5-3.9c0-5.3-0.1-10.9-2.8-15.6c-3.5-6.2-10.1-7.1-16.5-5.6c-2.1,0.5-3.3,2.3-3.5,4.2c-3,0.2-4.4,2.4-4.5,4.8c-17.7,9.5-37.7,14.3-56.8,20.2c-12.1,3.7-23.7,8.6-35.7,12.7c-12.6,4.3-25.2,8.6-37.8,12.7c-12.6,4.2-25.4,7.8-38.2,11.5c-11.5,3.3-22.8,7.3-34.4,10.3c-8.6,2.2-17.1,4.6-25.4,7.7c-7.4,2.7-15.7,6-21,12c-1.2,1.3-1.5,2.8-1.4,4.1c-0.4,0.4-0.7,0.9-0.9,1.6c-4.2,10.5-4,21.9-0.1,31.9c1.6,24.4,6.6,48.5,10.8,72.7c2.7,15.5,4.3,31.2,6.8,46.7c2.6,15.9,5.8,31.8,9,47.6c3.1,15.8,6.2,31.6,8.6,47.6c2.1,14.1,3.1,28.2,4.3,42.4c1.5,18.7,3.3,39.9,16.6,54.5c14.5,15.9,39,17.8,59.3,17.5c26.3-0.4,52.3-7.8,76.8-16.8c23.9-8.7,47.5-18.9,70.8-28.9c21.5-9.3,42.8-19.7,61.8-33.4c10.7-2.8,22.5-6.4,30.5-14.2C439.8,386.7,438.2,373.7,438.2,363.8z M373.8,84.8c9.7-3.7,19.4-7.2,29.1-10.7c0.8,0.5,1.7,0.8,2.8,0.7c0.1,0.2,0.2,0.5,0.4,0.9c1.3,3.2,2.1,6.7,2.7,10c1.5,7.8,2.3,15.7,2.9,23.6c0.4,5.7,0.8,11.5,1.2,17.2c-2.8,0.1-5.6,0.6-8.5,1.3c-4.5,1.1-5,1.6-6.6-3.1c-1.4-4.3-0.3-9.7-0.1-14.1c0.3-5.1,0.2-10.2-1.9-14.9c-1.6-3.5-5-4.4-8.3-2.7c-9.2,4.7-17.7,10.9-27.5,14.6c-1.9,0.7-3.9,1.3-5.9,1.6c-1,0.1-2,0.2-3,0.2c-0.6,0-1.1-0.2-1.4-0.4c-0.8-0.8-1.5-1.6-2.2-2.4c-0.5-0.6-0.9-1.1-1.4-1.7c0.6-2.6-0.5-5.7-3.2-6.6C353.3,93.6,363.3,88.9,373.8,84.8z M345.8,106.4c-0.2,1.2-1.2,2.4-4.2,2.8C343.7,108.9,345,107.8,345.8,106.4z M329.6,47.6c0.5-0.8,0.8-1.6,0.9-2.4c3.7-1.8,7.3-3.8,10.8-6c1.2-0.8,1.9-1.8,2.3-2.8c0.1,0.3,0.3,0.8,0.5,1.3c0.7,2.3,0.7,6,0.7,9c-0.5,0.5-1,1-1.4,1.7c-0.3,0.6-0.5,1.3-0.6,2.1c-2.8-0.7-5.5-0.6-8.5,0.1c-2.1,0.5-4.9,1.7-7.4,2C327.4,50.8,328.6,49.2,329.6,47.6z M86.1,132.9c0.2-0.4,0.3-0.9,0.5-1.3c0.4-1,0.5-2.1,0.4-3c0.1-0.1,0.2-0.2,0.3-0.3c4.8-5.5,13.5-7.9,20.1-10.2c8-2.8,16.3-5,24.6-7.1c11.8-3,23.4-7.2,35.2-10.6c12.7-3.7,25.6-7.2,38-11.6c12-4.2,24.1-8.1,36.1-12.1c11.9-4,23.4-8.9,35.4-12.5c13.1-4,26.5-7.7,39.4-12.6c-1,5.3,0.3,10.3,7.1,11.8c4,0.9,8.4-0.7,12.2-1.7c1.4-0.4,2.8-0.7,4.3-0.6c-1.2,5.3,0.8,10.7,5.7,13.8c4,2.6,9.9,1.4,13.2,4.4c-12.6,5.3-24.8,11.6-37.2,17.4c-28.1,13.3-56,27.3-84.3,40.2c-28.2,12.9-56.9,24.6-86.5,33.6c-9.2,2.8-20.4,5.2-31,4.8c0-7.8-3.1-16.9-5.1-21.7c-4.9-11.7-15.3-23.6-27.7-20.1C86.4,133.3,86.3,133.1,86.1,132.9z M87.1,145.2c7.9-4.6,13.6,4.7,16.8,12c2,4.7,3.4,9.6,4,14.7c0.1,0.6,0.1,1.1,0.2,1.7c-6.7-1.9-12.8-5.5-17.3-11.5c-1.3-1.7-2.3-3.6-3.2-5.5C87.3,152.8,87.2,149,87.1,145.2z M159.5,473.3c-20.3-4.9-27.9-22.4-30.7-41.4c-3.1-21-3.5-42.3-6.7-63.4c-4-26.2-9.9-52-14.6-78.1c-4.7-25.5-7.5-51.3-12.1-76.8c-2.2-12.4-4.4-24.9-6-37.4c3.1,2.5,6.7,4.7,10.7,6.2c1.6,0.6,3.3,1.2,5,1.7c0.2,2.8,2.1,5.2,5.6,4.4c2.1-0.4,3.8-1.3,5.1-2.5c1.6,0.1,3.3,0.2,5,0.2c-0.2,1.4-0.1,3,0.1,4.6c0.8,6,3.3,12.1,5,17.9c1.8,6.3,4,12.7,5.2,19.1c1.3,7,2.4,14.1,3.3,21.2c3.6,26.3,8.3,52.3,12.5,78.4c4.2,26.1,8.2,52.2,12.6,78.3c4,23.5,9.6,46.8,15,70C169.4,475.4,164.5,474.5,159.5,473.3z M357.5,400.9c0.1,4,1.2,8,2.2,11.9c0.4,1.8,0.9,3.5,1.3,5.3c0.1,0.5,0.1,1.2,0.1,1.6c-11.9,6-24.1,11.4-36.4,16.5c-26.2,10.9-52.4,22.6-79.6,30.9c-19.1,5.8-39.3,9.8-59.3,9.5c-5.3-23.1-11.1-46.3-15.1-69.7c-4.3-24.8-8-49.6-12-74.4c-4-24.9-8.8-49.6-12.1-74.5c-1.6-11.9-2.4-24.6-5.7-36.1c-1.8-6.2-3.5-12.4-5.3-18.5c-0.9-3.1-1.8-6.2-2.6-9.3c-0.4-1.3-1-2.7-1.2-4.2c0.3-0.7,0.5-1.6,0.5-2.6c0-0.6-0.1-1.1-0.2-1.6c12.4-1.6,24.8-5.5,36.1-9.3c57.9-19.3,111.8-48.4,167-74.2c-0.9,2.6-0.1,5.9,1.7,8.6c3.3,4.9,7.3,9.2,13.4,9.7c13.2,1.1,25.4-7.6,36.8-14.4c0.9,9.1-2.6,18.9,2.6,27.5c2.6,4.2,6.2,6.2,11,6.3c4.4,0.1,8.5-2.2,12.9-2.3c1,16.3,1.8,32.7,2.5,49c0.7,16.2,0.6,32.4,1.7,48.5c1,16,2.6,32,4.1,48c0.9,9.6,1.8,19.2,2.6,28.9c-6,1-12-0.4-17,4.2c-4.3,3.9-5.5,10.2-6,15.7c-1.1,11.3,0.8,22.5,1.4,33.8c-13.7,1.6-27.8,8.2-37.7,17.2C360,387.5,357.3,393.8,357.5,400.9z M427.2,375.9c-0.1,7.6-3,11.2-9.4,14.9c-3.8,2.2-8,3.8-12.3,5.1c-1.6-1.2-3.8-1.5-5.9,0.1c-1,0.8-2.1,1.6-3.2,2.3c0,0-0.1,0-0.1,0c-1.6,0.4-2.6,1.2-3.1,2.3c-6.9,4.9-14.1,9.3-21.5,13.4c-1.7-7.8-5.9-15.5,0.3-22.6c8.4-9.5,24.7-15.2,37.1-15.4c3.1-0.1,5.1-3.1,5.1-5.9c-0.1-11.1-2.1-22.1-1.9-33.3c0-3.9,0.1-9.4,2.6-12.7c1.2-1.5,4-1.2,5.6-1.3c1.7-0.1,3.4-0.2,5-0.4C426.7,340.4,427.5,358.1,427.2,375.9z"/><path fill="#010101" d="M215.8 318.6c-2.8 10.1-12.1 11.6-19.3 4.7-5.2-4.9-6.5-12.2-7.2-19.5-.8-7.2-.8-15.4 1.7-22.3 2.3-6.2 5.3-6.8 11.2-3.5 6.2 3.5 11-6.4 4.9-9.9-9.6-5.4-19.8-3.7-25.1 6.4-4.9 9.3-4.7 21.7-3.6 31.8 1.3 11.3 5.4 22.7 15.6 28.9 14 8.5 28.4.1 32.5-14.6C228.5 313.9 217.7 311.8 215.8 318.6zM271.5 260.8c-9.9-14.3-42.7-16.8-42.6 6 0 .8.1 1.5.3 2.3 0 .1 0 .1 0 .2-4.4 14.5 3.1 32.5 11.1 44.4 3.9 5.7 8.9 10.8 15.5 12.9 6.8 2.1 12.6-2.7 15.9-8.1 4.8-8 5.8-19.2 6.2-28.3C278.5 280 277.4 269.3 271.5 260.8zM266.6 295.7c-.7 6-1.4 13.6-5.1 18.6-.5.7-.8 1-1.3 1.3-.7.5-.2.3-.9.3-.6.1-1.8-.3-3.1-1.3-4.2-3-7.1-7.6-9.6-12-5-8.8-9.6-21.4-6.5-31.5.3-1.1.3-2.1.1-2.9 0 0 0-.1 0-.1-1.2-6.7 5.1-8 10.7-7.4 7.2.8 12.1 5.3 14.5 11.9C267.9 279.9 267.4 288.2 266.6 295.7zM333.4 265c-.3-8.5-3.1-17.1-9.4-23.1-6.3-6-16.9-7.2-24.7-3.9-8.5 3.6-12.1 12.5-14.5 20.7-.9 3 .7 5.1 2.9 5.9-.9 10 3 19.8 10.7 26.9 9.6 8.8 23.1 8.3 30.3-2.9C333 281.8 333.7 272.7 333.4 265zM318.7 283.8c-3.9 5.5-10 2.3-14.2-1.8-5.5-5.4-7.7-14.2-4.9-21.4 1-2.6.1-5-1.6-6.5 1.3-2.7 3.2-5.1 6-6.3 5.3-2.2 11.5.1 14.7 4.5C324.2 260.1 324.3 276.1 318.7 283.8zM372.3 227.2c-4 7.1-8.3 16.3-15 21.8-1.1-.2-2.2-.3-3.3-.2-.1-1.5-.2-2.9-.5-4.4-.4-2.8-.9-5.6-1.2-8.5-.1-1.2.4-5.5-.6-4.7 5.4-4.5-.7-13.7-6.2-9.1-8.7 7.3-2.4 21.2-2.4 30.7 0 10.4 1.1 21.2-1 31.5-.2.4-.3.8-.4 1.3-.1.7-.3 1.5-.4 2.2-.5 3.1 1.3 5.7 4.3 6.4 0 0 0 0 0 0 3.1.8 5.7-1.6 6.4-4.3 2.5-8.8 2-17.7 2-26.8 1.6-.5 3.1-1.1 4.5-1.9 6.2 4.3 9.9 17.5 10 22.8.2 7.1 11.1 6.2 11-.8-.2-8.7-4.8-21.4-12.3-28.7 6.1-6.4 10.5-15 14.7-22.4C385.6 225.9 375.7 221.1 372.3 227.2z"/></svg>