<svg xmlns="http://www.w3.org/2000/svg"  viewBox="0 0 512 512" width="64px" height="64px"><path fill="#BCBCBC" d="M313.8 103.2c0 .1-.1.1-.1.2.1-.1.2-.2.3-.3C314.2 102.8 314.1 102.9 313.8 103.2zM313.7 103.3c-.2.3-.5.8-.6 1.5C313.2 104.3 313.4 103.8 313.7 103.3 313.7 103.3 313.7 103.3 313.7 103.3z"/><path fill="#EF4823" d="M383.1,41.5c-7.8-9.3-23.6-13.2-35.1-14.5c-15.3-1.8-31.1-0.7-46.5-0.4c-32.2,0.6-64.4-1.7-96.6-2c-29.1-0.3-58.5,1.2-87.3,5.4c-13.9,2-32.6,5-41.7,16.8c1.7-0.1,3.4-0.2,5-0.2h60.3c26.6,0,53.3,0.2,79.9-0.5c50.8-1.4,101.4-5.2,152.2-5.4c0.1-0.1,0.2-0.2,0.4-0.3c3.4,0.8,6.9,1.5,10.3,2.3C383.7,42.2,383.4,41.9,383.1,41.5z"/><path fill="#127274" d="M421.2,92.4c-2-10.3-7.2-20.9-16.9-24.7c0.8,5.1,0.6,10.4-0.1,15.6c-0.2,1.2-0.4,2.3-0.6,3.5c2.1,0.4,4,2,4.3,4.7c1.3,10.5,6.7,20,4.6,30.6c2.2,0.4,4.4,0.8,6.5,1.5c0.1-0.1,0.2-0.2,0.4-0.3c2.3-1.7,2.3-11.3,2.4-14.4C421.9,103.5,422.2,97.9,421.2,92.4z"/><path fill="#BCBCBC" d="M399.7,104c-1.5,5.8-3.1,11.5-4.6,17.3c2.1-0.3,4.2-0.4,6.4-0.3C402.7,115.3,401.3,109.7,399.7,104z"/><path fill="#127274" d="M422.3,138.4c-3.5-4.1-9.2-5-14.3-5.7c-3.7-0.5-10-1.9-13.6-0.1c-0.7,0.4-1.5,0.6-2.2,0.6c-0.4,1.9-0.8,3.8-1.2,5.7c0.6-0.2,1.2-0.4,1.9-0.4c3.3-0.1,6.3,0.6,9.1,2c1.5,0,3,0.4,4,1.4c0.9,0.8,1.5,1.8,1.7,2.8c5.5,5.5,8.6,13.9,7.7,21.5c-1.7,13.7-18.4,23.3-30.3,15.8c-0.6,5.5-1.3,11-2.5,16.4c0.1,0.2,0.3,0.3,0.4,0.5c1.1,1.7,1.2,4.3,0.2,6.1c1.1,1.4,2.4,2.6,3.9,3.7c1.4,1.1,3.2,2.2,4.9,2.6c0.3,0.1,0.6,0.2,0.9,0.2c0.5-0.3,1-0.6,1.7-0.8c10-2.8,20.1-7.2,26.6-15.7c5.7-7.3,8.1-16.8,8.2-25.9C429.5,159.6,428.9,146.1,422.3,138.4z"/><path fill="#EF4823" d="M342.1 245.7c-5.9 1.8-12.2 2.7-18.4 3.1-14.2.8-28.5-.6-42.7-.3-16.4.4-32.8 1.6-49.2 2.9-30.3 2.4-60.7 4.2-91.1 1.7-5.9-.5-11.9-1.3-17.9-2.6-1 .6-2.2 1-3.6.9-.9-.1-1.6.3-2.3 1-1 1.2-1.8 2.8-2.3 4.7-1.5 5.8-1.7 11.8-1.5 17.7.4 11.9 2 23.6 4 35.3 3.8 22.1 6.9 44.5 10 66.8 1.8 12.8 2.5 25.7 4 38.5 1.4 12.5 4.7 24.6 7.4 36.8.1.4.1.9.1 1.3 1.5-.3 3-.6 4.5-.8 24.1-3.9 48.3-2.3 72.6-2.1 28.1.3 56.3 1.8 84.3 3.4 5.7.3 11.4.7 17.1 1.3-.7-1.3-.8-3 .2-4.7 1.8-3.2 2.4-7.1 3.1-10.7 1-4.7 2-9.3 3.1-14 3-12.7 5.6-25.5 7.9-38.3 4.5-24.7 7.9-49.6 12.5-74.2 2.3-12.6 5.4-25 6.3-37.8C351 267 352.1 249.8 342.1 245.7zM333.7 470.3c-10.5-4.7-23.4-4.8-34.6-5.5-26.1-1.5-52.3-2.9-78.5-3.2-23.9-.3-47.9-1.8-71.7 1.4-7.3 1-14.6 2.3-21.5 4.7-5.3 1.8-12.9 4.1-15.1 9.8 0 .1-.1.1-.1.2.1.1.2.1.3.2.7.5 3.6 1.7 5.4 2.1 3.1.7 6.2 1.2 9.4 1.5 8 .8 16.1.8 24.1.6 15-.4 29.9-1.7 44.8-3.1 26.8-2.5 53.6-2.8 80.5-1.7 13.8.6 27.6 1.7 41.4 2.2 8.2.3 18 .9 26.5-1.3C340.8 475.4 337.5 472 333.7 470.3z"/><path fill="#127274" d="M278.7,187.2c-4.6,3.7-9.6,6.8-14.2,10.4c-4.1,3.1-8.8,6.5-10.9,11.3c2.7,0.8,5.4,1.8,7.9,3.1c0.9-1.8,2.7-2.9,4.5-3.2c6.1-8.1,11.2-17,17.2-25.2C281.7,184.7,280.2,186,278.7,187.2z"/><path fill="#BCBCBC" d="M390,60.2c-3.3-4.5-7.8-6.5-12.6-8.7c-51.8,0.1-103.6,4.1-155.4,5.5c-27.3,0.7-54.6,0.5-81.8,0.5H99.3c-6.5,0-12.9,0-19.4,0c-3,0-6,0.4-9.1,0.7c-5.1,25.6-0.9,51.2,3.9,76.6c2.6,13.7,5.3,27.4,6.6,41.3c1,10.6,1.3,21.6,4.3,31.9c3,10.4,8.4,18.7,18.1,24.1c10.5,5.8,22.2,8.5,34.2,9.7c15.3,1.6,30.7,1.9,46,1.5c-0.1-0.3-0.1-0.5-0.1-0.8c-1.7-20.2,22.4-33,39.4-35.6c6.4-1,13.1-1.1,19.7-0.2c0-0.7,0.1-1.3,0.4-2c4.6-11.9,18.9-18.4,28.4-25.9c14.2-11.3,27.3-23.9,41.5-35.2c3.5-2.8,10,1.1,8.5,5.6c-4.4,13.2-14.7,23.2-23.6,33.5c-10,11.5-16.9,25.3-26.7,36.9c0.9,1,1.6,2.1,2.3,3.3c2.7,4.5,4.8,9.1,8.1,13.2c0.5,0.6,0.8,1.2,1,1.7c10.2,0,20.4,0.4,30.6,0.4c8.3,0,17.3-0.3,25.5-2.7c0.8-0.7,1.8-1.1,3-1c2.9-1.1,5.8-2.4,8.4-4.2c10.5-7.1,17.3-17,20.3-29.3c3.1-12.6,3.6-25.6,5.2-38.4c2-16,5.3-31.7,9.4-47.3c3.3-12.6,8.3-26,8.5-39.1C393.9,70.5,393.3,64.7,390,60.2z M118.8,217.5c-5.2,0.1-10.3,0.9-15.5,1c-0.2,0-0.3,0-0.5,0H102c-7.1,0-7.9-11-0.8-11c5.6,0,11.2-0.9,16.8-1C125,206.4,125.9,217.4,118.8,217.5z M130.3,170.4c-1.4,2.9-4.6,3.5-7.4,2.5c-4.6-1.7-10.3-1.4-15.1-1.4c-7.1,0-7.9-11-0.8-11c7,0,14.2,0.1,20.9,2.6C130.6,164.1,131.5,168,130.3,170.4z M149.3,131.4c-1.2,2.4-4.9,4.1-7.4,2.5c-6.7-4.4-13.9-7.9-20.2-12.8c-5.6-4.3,1.7-12.6,7.3-8.3c5.5,4.3,12,7.4,17.8,11.2C149.3,125.7,150.7,128.5,149.3,131.4z M171.2,107.8c0,0,0-0.1,0-0.1c0-0.1-0.1-0.1-0.1-0.2c-0.4-0.6-0.8-1.2-1.2-1.8c-0.9-1.3-1.9-2.5-2.8-3.7c-0.5-0.6-1-1.3-1.6-1.9c-0.1-0.1-1-1.1-1.1-1.2c-0.2-0.2-0.4-0.4-0.6-0.7c-2.6-0.9-4-3.5-3.7-6.2c0.5-3.8,5.3-5.9,8.5-3.9c1.8,1.1,3.2,2.7,4.7,4.3c3.1,3.5,6.8,7.4,8.5,11.9C184,110.8,173.6,114.5,171.2,107.8z M221.3,75.4c-1.5,2.6-0.5,7.7-0.4,11.1c0.1,7.1-10.9,7.9-11,0.8c-0.1-5.5-1.3-11.9,1.6-16.9C215,64.5,224.9,69.3,221.3,75.4z M272.5,84.9c-0.9,0.8-1.8,1.6-2.7,2.4c-0.1,0.1-0.9,0.8-1,0.8c-0.5,0.4-0.9,0.8-1.4,1.3c-1.2,1.2-2.5,2.4-3.6,3.7c-0.1,0.1-0.8,1.1-0.9,1.2c-0.3,0.6-0.6,1.4-0.2,0.1c-0.9,2.9-3.3,5-6.4,4.3c-2.7-0.5-5.2-3.6-4.3-6.4c1.1-3.7,3.6-6.7,6.4-9.3c1.5-1.4,3.1-2.8,4.6-4.2c0.4-0.4,0.9-0.8,1.3-1.1c2.2-2,5.3-2.6,7.7-0.5C274.1,79,274.7,82.8,272.5,84.9z M315.4,115.5c-2,1.3-4.1,2.6-6,4c-0.1,0.1-0.3,0.3-0.6,0.5c-0.2,4-5.2,7.5-9.1,4.1c-5.8-5,0-11.2,4.4-14.3c2.1-1.5,4.3-2.9,6.5-4.3c0.9-0.6,1.9-1.2,2.7-1.9c0.1-0.1,0.2-0.2,0.3-0.3c0-0.1,0.1-0.1,0.1-0.2c2.3-3.4,8.3-4,9.7,1C325.2,109.8,319.4,112.9,315.4,115.5z M348.4,208.6c-4.7,2.8-10.3,2.9-15.7,2.9c-3,0-5.7-1.9-5.9-5.1c-0.2-2.8,2.1-5.9,5.1-5.9c2.2,0,4.3,0,6.5-0.2c1.3-0.1,3.4-0.6,3.8-0.9C348.3,195.8,354.5,204.9,348.4,208.6z M353.2,161.2c-5.9,1.8-13.2,1.4-18.7,4.4c-6.2,3.4-12.4-5.7-6.2-9.1c5.3-2.9,11.1-3.4,16.8-4.5c1.7-2,4.8-3.1,7.6-1.3C357.9,151.6,358.2,159.6,353.2,161.2z"/><path fill="#127274" d="M435.9 286.7c-1.3-14.2-4-28.1-6.5-42.2-2.1-12-4.1-23.9-6.3-35.9-4.8 4.1-10.3 7.2-16.1 9.5 3.8 5.3 5.1 12.5 6.1 18.6 1.4 8.2 1.3 16.6 2.7 24.8 4.3 25.4 5.7 51.4 3.9 77.2-1.6 23.2-4.5 49-21 66.9-7.5 8.1-17.4 16.1-28.1 19.6-11.8 3.9-23.8 2.5-35.9 4.3-.2 0-.5.1-.7.1 0 .1 0 .2-.1.2-1.1 4.7-1.8 10-2.9 15.1 13.4 2.2 27.1 1.7 40.5-1 11.8-2.4 24.3-5.9 33.8-13.8 17.1-14.2 22.8-37.5 26.5-58.4C436.8 343.7 438.5 315.1 435.9 286.7zM256.9 221.9c-9.7-4.6-21.3-5.9-31.9-4.3-11 1.7-31.4 10.1-30.2 23.9 0 .5 0 .9 0 1.3 8.1-.4 16.3-.9 24.4-1.5 16.4-1.2 32.8-2.7 49.2-3.4.5 0 1 0 1.5 0C266.2 231.9 263.6 225.1 256.9 221.9z"/><path d="M447.4,293.2c-0.9-15.5-3.7-30.5-6.4-45.8c-2.8-15.6-5.3-31.3-8.2-46.9c-0.1-0.8-0.4-1.4-0.8-2c6.2-9.7,8.3-21.4,8.2-32.8c0-12.2-2.4-27.8-11.8-36.5c2.9-4.5,3.4-10.7,3.8-15.8c0.6-7.7,1-15.5-0.5-23.1c-3-15.7-12.8-32.2-29.7-34.6c-4.2-10.1-7.6-20.8-17.2-27.1c-10.8-7.2-23.6-11.2-36.5-12.7c-15.1-1.7-30.8-0.8-45.9-0.5c-16.3,0.3-32.5,0.1-48.7-0.6c-32-1.3-64-2.2-96,0c-22.8,1.6-47.5,2.5-69.2,10.4c-11.5,4.2-21.1,11.6-25.9,22.4c-3,1-3.7,4.6-2.5,7.3c-6.1,28.7-0.8,57.4,4.6,85.8c2.8,14.7,4.9,29.4,6.3,44.3c1.1,11.5,2.4,23.2,6.9,33.8c5.8,13.8,17.1,22.1,30.2,27.1c-3.7,4.7-5.2,11.7-5.7,18.1c-1.1,14.2,0.8,28.6,3.1,42.6c3.5,21.6,6.6,43.4,9.8,65c2.1,14.1,3.5,28.1,4.6,42.3c1.1,14,5.2,27.8,8.1,41.5c0,0,0,0,0,0.1c-3,0.8-6,1.8-8.9,3c-6.6,2.6-14.2,6.7-16.9,13.7c-0.2,0.5-0.3,1-0.4,1.4c-0.7,0.9-1.2,2.1-1.2,3.5c-0.2,12.8,18.9,14.5,27.8,15.2c16.9,1.3,33.9,0.2,50.8-1.1c17.8-1.4,35.5-3.3,53.4-3.7c29.7-0.8,59.2,2,88.8,2.7c12,0.3,25,0,35.7-5.9c3.8-2.1,2.9-6.4,0.3-8.5c0.1-2.4-1.2-4.9-4.3-5.4c1.4,0.2-1-0.7-1.6-1.1c-1.6-1.1-3.1-2.3-4.7-3.4c-3.4-2.5-6.9-5.1-10.9-6.5c-3.3-1.2-6.6-2.1-9.9-2.8c0.4-0.4,0.7-0.8,1-1.3c0,0,0,0,0,0c14.4,2.6,29,2.3,43.3-0.2c13.1-2.3,26.6-6.1,37.7-13.6c19.5-13.2,28-36.8,32.6-58.8C447.1,353.4,449.2,323.1,447.4,293.2z M404.1,83.4c0.8-5.2,0.9-10.5,0.1-15.6c9.7,3.8,15,14.4,16.9,24.7c1,5.5,0.8,11.1,0.5,16.7c-0.1,3-0.1,12.7-2.4,14.4c-0.1,0.1-0.2,0.2-0.4,0.3c-2.1-0.7-4.3-1.1-6.5-1.5c2-10.6-3.3-20.1-4.6-30.6c-0.3-2.7-2.2-4.3-4.3-4.7C403.7,85.7,403.9,84.5,404.1,83.4z M399.7,104c1.6,5.6,3,11.2,1.8,16.9c-2.2-0.1-4.3,0-6.4,0.3C396.5,115.5,398.2,109.8,399.7,104z M408,132.7c5.1,0.7,10.7,1.6,14.3,5.7c6.6,7.7,7.2,21.2,7,30.8c-0.1,9.2-2.6,18.6-8.2,25.9c-6.5,8.5-16.5,12.9-26.6,15.7c-0.7,0.2-1.2,0.5-1.7,0.8c-0.3-0.1-0.6-0.1-0.9-0.2c-1.7-0.5-3.5-1.6-4.9-2.6c-1.5-1.1-2.8-2.3-3.9-3.7c1.1-1.8,1-4.4-0.2-6.1c-0.1-0.2-0.2-0.3-0.4-0.5c1.1-5.4,1.9-10.9,2.5-16.4c11.9,7.4,28.7-2.2,30.3-15.8c0.9-7.6-2.2-16-7.7-21.5c-0.2-1-0.8-2-1.7-2.8c-1-0.9-2.5-1.4-4-1.4c-2.7-1.4-5.8-2.1-9.1-2c-0.7,0-1.4,0.2-1.9,0.4c0.4-1.9,0.8-3.8,1.2-5.7c0.7-0.1,1.5-0.3,2.2-0.6C398,130.7,404.3,132.1,408,132.7z M353.5,241c1.9-1,3.7-2.2,5.5-3.5c8.1-5.9,14.2-13.6,18.3-22.6c0.4,0.4,0.8,0.8,1.2,1.1c4.6,4,11.4,7.5,17.6,6.6c0.2,0.2,0.4,0.4,0.6,0.6c4.6,3.8,5.2,12.7,6,18.1c1.1,7.5,1.1,15.2,2.4,22.7c3.9,23.3,5.1,47.1,3.9,70.7c-1.1,20.8-3.2,44.8-16.8,61.5c-6.5,8-15.6,15-25.3,18.6c-9.6,3.6-20.2,2.4-30.3,3.4c2.1-9.5,4-19,5.7-28.5c4.7-25.6,8-51.5,13-77c2.9-14.7,6.1-29.3,6.2-44.3C361.7,258.5,359.9,247.9,353.5,241z M391.9,161.9c2.8,1.2,6,0.3,7.4-2.5c0.4-0.8,0.6-1.8,0.5-2.7c0.6-0.7,1.3-1.4,1.9-2.1c1.6,2.8,2.6,6.1,2.7,8.7c0.4,5.7-8.1,13.5-13.5,9.4c-1.7-1.3-3.5-1.4-5.1-0.9c0.7-8.2,1.9-16.3,3.4-24.4c0.6,0.8,1.5,1.4,2.5,1.7c-0.2,0.2-0.3,0.4-0.5,0.6C388.2,153.3,386.4,159.6,391.9,161.9z M117.6,30c28.8-4.2,58.3-5.7,87.3-5.4c32.2,0.3,64.4,2.7,96.6,2c15.4-0.3,31.2-1.3,46.5,0.4c11.5,1.3,27.3,5.2,35.1,14.5c0.3,0.4,0.6,0.8,0.9,1.1c-3.4-0.8-6.9-1.6-10.3-2.3c-0.1,0.1-0.3,0.2-0.4,0.3c-50.8,0.3-101.5,4.1-152.2,5.4c-26.6,0.7-53.3,0.5-79.9,0.5H80.9c-1.7,0-3.4,0.1-5,0.2C85,35,103.7,32,117.6,30z M103.8,232.1c-9.7-5.4-15-13.7-18.1-24.1c-3-10.3-3.4-21.3-4.3-31.9c-1.3-13.9-4-27.6-6.6-41.3c-4.8-25.4-9.1-51.1-3.9-76.6c3-0.3,6-0.7,9.1-0.7c6.5,0,12.9,0,19.4,0h40.8c27.3,0,54.6,0.2,81.8-0.5c51.8-1.3,103.6-5.3,155.4-5.5c4.8,2.1,9.3,4.1,12.6,8.7c3.3,4.6,3.9,10.3,3.8,15.8c-0.2,13.2-5.2,26.5-8.5,39.1c-4.1,15.6-7.4,31.3-9.4,47.3c-1.6,12.9-2,25.8-5.2,38.4c-3.1,12.3-9.8,22.2-20.3,29.3c-2.6,1.8-5.4,3.1-8.4,4.2c-1.2-0.1-2.2,0.3-3,1c-8.2,2.4-17.2,2.7-25.5,2.7c-10.2,0-20.4-0.3-30.6-0.4c-0.2-0.6-0.5-1.2-1-1.7c-3.4-4-5.5-8.7-8.1-13.2c-0.7-1.2-1.5-2.3-2.3-3.3c9.8-11.7,16.6-25.4,26.7-36.9c8.9-10.3,19.2-20.3,23.6-33.5c1.5-4.5-4.9-8.4-8.5-5.6c-14.2,11.3-27.3,23.9-41.5,35.2c-9.4,7.5-23.8,14-28.4,25.9c-0.3,0.7-0.4,1.4-0.4,2c-6.6-0.8-13.3-0.7-19.7,0.2c-17,2.6-41.1,15.4-39.4,35.6c0,0.3,0.1,0.6,0.1,0.8c-15.4,0.4-30.7,0.1-46-1.5C126.1,240.6,114.4,237.9,103.8,232.1z M194.8,241.6c-1.2-13.8,19.2-22.2,30.2-23.9c10.6-1.6,22.2-0.4,31.9,4.3c6.7,3.2,9.3,10,13,16c-0.5,0-1,0-1.5,0c-16.4,0.7-32.8,2.2-49.2,3.4c-8.1,0.6-16.2,1.1-24.4,1.5C194.9,242.5,194.9,242,194.8,241.6z M266,208.7c-1.9,0.3-3.7,1.3-4.5,3.2c-2.5-1.2-5.2-2.2-7.9-3.1c2.1-4.8,6.9-8.2,10.9-11.3c4.7-3.6,9.6-6.7,14.2-10.4c1.5-1.2,3-2.4,4.4-3.6C277.1,191.7,272.1,200.6,266,208.7z M333.7,470.3c3.8,1.7,7.2,5.2,10.8,7.8c-8.5,2.2-18.3,1.6-26.5,1.3c-13.8-0.4-27.6-1.6-41.4-2.2c-26.8-1.1-53.7-0.8-80.5,1.7c-14.9,1.4-29.8,2.7-44.8,3.1c-8,0.2-16.1,0.2-24.1-0.6c-3.2-0.3-6.3-0.8-9.4-1.5c-1.8-0.4-4.7-1.6-5.4-2.1c-0.1-0.1-0.2-0.1-0.3-0.2c0-0.1,0.1-0.1,0.1-0.2c2.2-5.7,9.8-8.1,15.1-9.8c7-2.4,14.3-3.7,21.5-4.7c23.8-3.1,47.7-1.6,71.7-1.4c26.2,0.3,52.3,1.7,78.5,3.2C310.3,465.4,323.2,465.6,333.7,470.3z M323.7,425.9c-1.1,4.7-2.1,9.3-3.1,14c-0.7,3.5-1.3,7.5-3.1,10.7c-1,1.8-0.9,3.4-0.2,4.7c-5.7-0.7-11.4-1-17.1-1.3c-28.1-1.6-56.2-3.1-84.3-3.4c-24.3-0.2-48.5-1.8-72.6,2.1c-1.5,0.2-3,0.5-4.5,0.8c0-0.4-0.1-0.8-0.1-1.3c-2.7-12.2-5.9-24.3-7.4-36.8c-1.5-12.8-2.2-25.7-4-38.5c-3.1-22.2-6.2-44.7-10-66.8c-2-11.7-3.7-23.4-4-35.3c-0.2-5.9,0-11.9,1.5-17.7c0.5-1.9,1.3-3.5,2.3-4.7c0.6-0.8,1.4-1.1,2.3-1c1.4,0.1,2.6-0.3,3.6-0.9c6,1.3,12.1,2.1,17.9,2.6c30.4,2.6,60.7,0.7,91.1-1.7c16.4-1.3,32.8-2.5,49.2-2.9c14.2-0.4,28.5,1,42.7,0.3c6.2-0.3,12.4-1.3,18.4-3.1c10,4.1,8.9,21.3,8.3,29.8c-1,12.8-4,25.3-6.3,37.8c-4.6,24.7-8,49.6-12.5,74.2C329.3,400.4,326.7,413.2,323.7,425.9z M431.8,371.7c-3.7,20.9-9.3,44.2-26.5,58.4c-9.5,7.8-22,11.3-33.8,13.8c-13.3,2.8-27,3.2-40.5,1c1.2-5.1,1.8-10.4,2.9-15.1c0-0.1,0-0.2,0.1-0.2c0.2,0,0.4,0,0.7-0.1c12.1-1.8,24.1-0.5,35.9-4.3c10.6-3.5,20.5-11.5,28.1-19.6c16.5-17.8,19.4-43.7,21-66.9c1.8-25.7,0.4-51.7-3.9-77.2c-1.4-8.2-1.3-16.6-2.7-24.8c-1-6.1-2.4-13.3-6.1-18.6c5.9-2.4,11.4-5.5,16.1-9.5c2.2,11.9,4.2,23.9,6.3,35.9c2.4,14.1,5.2,28,6.5,42.2C438.5,315.1,436.8,343.7,431.8,371.7z"/><path d="M211.4 70.6c-2.9 5-1.6 11.4-1.6 16.9.1 7.1 11 6.2 11-.8 0-3.5-1-8.6.4-11.1C224.9 69.3 215 64.5 211.4 70.6zM117.9 206.5c-5.6.1-11.2 1-16.8 1-7.1 0-6.2 11 .8 11h.8c.2 0 .3 0 .5 0 5.2-.1 10.3-.9 15.5-1C125.9 217.4 125 206.4 117.9 206.5zM342.3 199.4c-.5.3-2.6.7-3.8.9-2.2.2-4.3.2-6.5.2-3 0-5.3 3.1-5.1 5.9.2 3.2 2.9 5.1 5.9 5.1 5.3 0 10.9-.1 15.7-2.9C354.5 204.9 348.3 195.8 342.3 199.4zM323.6 104.2c-1.5-5-7.4-4.4-9.7-1 .2-.3.4-.4.2-.1-.1.1-.2.2-.3.3-.3.5-.5 1-.7 1.5.2-.7.4-1.2.6-1.5-.1.1-.2.2-.3.3-.9.7-1.8 1.3-2.7 1.9-2.2 1.4-4.4 2.8-6.5 4.3-4.4 3.1-10.2 9.3-4.4 14.3 3.9 3.4 8.9-.1 9.1-4.1.2-.2.5-.4.6-.5 1.9-1.5 4-2.7 6-4C319.4 112.9 325.2 109.8 323.6 104.2z"/><path d="M313.7 103.3C313.7 103.3 313.7 103.3 313.7 103.3c0-.1.1-.1.1-.2C313.8 103.2 313.8 103.3 313.7 103.3zM146.8 124.1c-5.9-3.8-12.3-6.9-17.8-11.2-5.6-4.3-12.9 3.9-7.3 8.3 6.3 4.9 13.5 8.4 20.2 12.8 2.5 1.6 6.2 0 7.4-2.5C150.7 128.5 149.3 125.7 146.8 124.1zM181.6 104.2c-1.7-4.5-5.4-8.4-8.5-11.9-1.4-1.6-2.8-3.1-4.7-4.3-3.2-2-8 .1-8.5 3.9-.3 2.7 1 5.4 3.7 6.2.2.2.4.4.6.7.2.2 1 1.1 1.1 1.2.5.6 1 1.2 1.6 1.9 1 1.2 1.9 2.5 2.8 3.7.4.6.8 1.2 1.2 1.8.1.1.1.2.1.2 0 0 0 .1 0 .1C173.6 114.5 184 110.8 181.6 104.2zM127.8 163.1c-6.6-2.4-13.9-2.6-20.9-2.6-7.1 0-6.2 11 .8 11 4.9 0 10.5-.2 15.1 1.4 2.8 1 5.9.4 7.4-2.5C131.5 168 130.6 164.1 127.8 163.1zM272 77.1c-2.4-2.1-5.6-1.6-7.7.5-.4.4-.9.8-1.3 1.1-1.6 1.4-3.1 2.7-4.6 4.2-2.8 2.7-5.2 5.6-6.4 9.3-.9 2.9 1.6 5.9 4.3 6.4 3.2.6 5.6-1.5 6.4-4.3-.4 1.3-.1.5.2-.1.1-.1.8-1 .9-1.2 1.1-1.3 2.3-2.5 3.6-3.7.5-.4.9-.8 1.4-1.3.1-.1.9-.7 1-.8.9-.8 1.9-1.6 2.7-2.4C274.7 82.8 274.1 79 272 77.1zM352.7 150.7c-2.8-1.8-5.9-.8-7.6 1.3-5.7 1.2-11.5 1.6-16.8 4.5-6.2 3.4 0 12.5 6.2 9.1 5.5-3 12.8-2.5 18.7-4.4C358.2 159.6 357.9 151.6 352.7 150.7z"/></svg>