<?xml version="1.0" encoding="UTF-8"?>
<svg xmlns="http://www.w3.org/2000/svg" xmlns:xlink="http://www.w3.org/1999/xlink" viewBox="0 0 64 64" width="64px" height="64px">
<g id="surface13654513">
<path style=" stroke:none;fill-rule:nonzero;fill:rgb(96.470588%,82.745099%,59.215689%);fill-opacity:1;" d="M 41 3 C 31.609375 3 24 10.609375 24 20 C 24 29.390625 31.609375 37 41 37 C 50.390625 37 58 29.390625 58 20 C 58 10.609375 50.390625 3 41 3 Z M 41 3 "/>
<path style=" stroke:none;fill-rule:nonzero;fill:rgb(97.647059%,89.019608%,68.235296%);fill-opacity:1;" d="M 41 8 C 34.371094 8 29 13.371094 29 20 C 29 26.628906 34.371094 32 41 32 C 47.628906 32 53 26.628906 53 20 C 53 13.371094 47.628906 8 41 8 Z M 41 8 "/>
<path style=" stroke:none;fill-rule:nonzero;fill:rgb(100%,93.725491%,79.215688%);fill-opacity:1;" d="M 46.925781 9.574219 C 46.703125 9.445312 46.472656 9.328125 46.242188 9.214844 L 30.214844 25.222656 C 30.328125 25.453125 30.445312 25.6875 30.574219 25.910156 C 31.011719 26.6875 31.535156 27.410156 32.132812 28.074219 L 49.082031 11.132812 C 48.421875 10.535156 47.703125 10.007812 46.925781 9.574219 Z M 42.605469 8.113281 C 42.074219 8.035156 41.535156 8 41 8 C 40.765625 8 40.535156 8.023438 40.300781 8.035156 L 31.078125 17.230469 L 29.035156 19.269531 C 29.023438 19.511719 29 19.753906 29 20 C 29.007812 20.988281 29.136719 21.964844 29.375 22.921875 L 43.929688 8.363281 C 43.492188 8.257812 43.050781 8.171875 42.605469 8.113281 Z M 52.449219 16.398438 C 52.335938 16.042969 52.210938 15.695312 52.066406 15.359375 C 52.0625 15.34375 52.058594 15.332031 52.050781 15.316406 C 51.765625 14.640625 51.414062 13.996094 51.011719 13.390625 C 50.949219 13.296875 50.882812 13.203125 50.816406 13.109375 C 50.742188 13.003906 50.660156 12.902344 50.582031 12.796875 L 49.679688 13.695312 L 33.804688 29.585938 C 35.808594 31.09375 38.296875 32 41 32 L 53 20 C 53 18.769531 52.8125 17.582031 52.46875 16.464844 C 52.460938 16.441406 52.453125 16.417969 52.449219 16.398438 Z M 52.449219 16.398438 "/>
<path style=" stroke:none;fill-rule:nonzero;fill:rgb(98.039216%,93.725491%,87.058824%);fill-opacity:1;" d="M 57.277344 42.054688 C 56.96875 42.054688 56.660156 42.09375 56.363281 42.171875 L 41.972656 45.929688 L 41.941406 45.960938 C 41.769531 43.914062 40.078125 42.296875 37.988281 42.289062 C 37.886719 42.289062 37.785156 42.292969 37.6875 42.300781 L 35.5 42.460938 C 34.46875 42.535156 33.433594 42.339844 32.5 41.898438 L 23.097656 37.460938 C 21.070312 36.503906 18.816406 36.136719 16.59375 36.398438 L 4.769531 37.789062 C 3.753906 37.90625 2.992188 38.769531 3 39.789062 L 3 52.441406 C 3 53.546875 3.894531 54.4375 5 54.4375 C 5.160156 54.4375 5.320312 54.417969 5.476562 54.378906 L 11.992188 52.738281 C 13.902344 52.261719 15.917969 52.503906 17.660156 53.421875 L 30.28125 60.050781 C 32.601562 61.261719 35.367188 61.261719 37.6875 60.050781 L 58.960938 49 C 60.1875 48.371094 60.957031 47.109375 60.960938 45.730469 C 60.957031 43.699219 59.308594 42.050781 57.277344 42.054688 Z M 57.277344 42.054688 "/>
<path style=" stroke:none;fill-rule:nonzero;fill:rgb(93.725491%,84.705883%,74.509805%);fill-opacity:1;" d="M 40.488281 54.640625 L 37.710938 56.078125 C 35.390625 57.292969 32.621094 57.292969 30.300781 56.078125 L 17.710938 49.421875 C 15.957031 48.492188 13.921875 48.25 12 48.738281 L 3 51 L 3 52.441406 C 3 53.546875 3.898438 54.4375 5.003906 54.4375 C 5.164062 54.4375 5.324219 54.417969 5.480469 54.378906 L 12 52.738281 C 13.910156 52.261719 15.929688 52.503906 17.671875 53.421875 L 30.300781 60.050781 C 32.621094 61.261719 35.390625 61.261719 37.710938 60.050781 L 44.808594 56.371094 L 44.46875 55.769531 C 43.65625 54.390625 41.90625 53.894531 40.488281 54.640625 Z M 40.488281 54.640625 "/>
<path style=" stroke:none;fill-rule:nonzero;fill:rgb(100%,96.862745%,94.117647%);fill-opacity:1;" d="M 23.105469 41.46875 L 32.507812 45.910156 C 33.441406 46.351562 34.476562 46.546875 35.507812 46.46875 L 37.695312 46.308594 C 39.160156 46.214844 40.558594 46.925781 41.339844 48.171875 L 41.441406 48.351562 C 41.839844 49.246094 42.832031 49.722656 43.777344 49.46875 L 60.867188 45 C 60.46875 43.011719 58.535156 41.726562 56.550781 42.125 C 56.484375 42.136719 56.417969 42.152344 56.351562 42.171875 L 41.972656 45.929688 C 41.769531 43.769531 39.886719 42.164062 37.726562 42.308594 L 35.535156 42.46875 C 34.507812 42.546875 33.472656 42.351562 32.539062 41.910156 L 23.136719 37.46875 C 21.097656 36.503906 18.828125 36.132812 16.589844 36.398438 L 4.769531 37.789062 C 3.753906 37.90625 2.992188 38.769531 3 39.789062 L 3 42 L 16.589844 40.398438 C 18.820312 40.140625 21.074219 40.511719 23.105469 41.46875 Z M 23.105469 41.46875 "/>
<path style=" stroke:none;fill-rule:nonzero;fill:rgb(55.29412%,42.352942%,62.352943%);fill-opacity:1;" d="M 9 40 L 7 40 C 6.449219 40 6 40.449219 6 41 C 6 41.550781 6.449219 42 7 42 L 9 42 C 9.550781 42 10 41.550781 10 41 C 10 40.449219 9.550781 40 9 40 Z M 9 45 L 7 45 C 6.449219 45 6 45.449219 6 46 C 6 46.550781 6.449219 47 7 47 L 9 47 C 9.550781 47 10 46.550781 10 46 C 10 45.449219 9.550781 45 9 45 Z M 9 50 L 7 50 C 6.449219 50 6 50.449219 6 51 C 6 51.550781 6.449219 52 7 52 L 9 52 C 9.550781 52 10 51.550781 10 51 C 10 50.449219 9.550781 50 9 50 Z M 9 50 "/>
<path style=" stroke:none;fill-rule:nonzero;fill:rgb(55.29412%,42.352942%,62.352943%);fill-opacity:1;" d="M 60.140625 42.050781 C 59.007812 41.171875 57.53125 40.863281 56.144531 41.21875 L 42.710938 44.699219 C 41.984375 42.539062 39.886719 41.144531 37.617188 41.308594 L 35.429688 41.46875 C 34.585938 41.523438 33.742188 41.359375 32.980469 41 L 23.578125 36.558594 C 21.375 35.523438 18.929688 35.125 16.511719 35.410156 L 4.648438 36.800781 C 3.273438 36.960938 2.207031 38.035156 2.027344 39.375 C 2.007812 39.515625 2 39.65625 2 39.800781 L 2 52.441406 C 2 54.097656 3.34375 55.441406 4.996094 55.441406 C 5.242188 55.441406 5.488281 55.410156 5.726562 55.351562 L 12.28125 53.710938 C 13.964844 53.28125 15.746094 53.496094 17.28125 54.308594 L 29.859375 60.941406 C 32.472656 62.304688 35.585938 62.304688 38.195312 60.941406 L 59.480469 49.941406 C 61.773438 48.742188 62.664062 45.910156 61.46875 43.613281 C 61.15625 43.015625 60.71875 42.492188 60.1875 42.078125 Z M 58.511719 48.140625 L 37.226562 59.140625 C 35.195312 60.199219 32.777344 60.199219 30.75 59.140625 L 18.167969 52.539062 C 16.214844 51.507812 13.949219 51.234375 11.804688 51.769531 L 5.238281 53.410156 C 4.703125 53.542969 4.160156 53.214844 4.027344 52.679688 C 4.007812 52.59375 3.996094 52.5 4 52.410156 L 4 39.78125 C 3.996094 39.269531 4.375 38.839844 4.878906 38.78125 L 16.699219 37.390625 C 18.753906 37.152344 20.832031 37.5 22.695312 38.390625 L 32.097656 42.828125 C 33.1875 43.34375 34.386719 43.566406 35.585938 43.480469 L 37.773438 43.320312 C 39.425781 43.199219 40.863281 44.441406 40.984375 46.09375 C 40.992188 46.167969 40.992188 46.242188 40.992188 46.320312 L 40.992188 46.730469 C 40.992188 47.121094 40.761719 47.480469 40.402344 47.640625 L 37.40625 48.96875 C 35.1875 49.964844 32.664062 50.015625 30.410156 49.121094 L 25.414062 47.121094 C 24.898438 46.914062 24.316406 47.164062 24.113281 47.679688 C 23.910156 48.195312 24.160156 48.777344 24.675781 48.980469 L 29.671875 50.980469 C 32.441406 52.085938 35.542969 52.019531 38.265625 50.800781 L 41.261719 49.46875 C 42.324219 48.964844 42.992188 47.886719 42.972656 46.710938 L 56.613281 43.171875 C 58.019531 42.714844 59.53125 43.488281 59.984375 44.898438 C 60.402344 46.203125 59.773438 47.613281 58.519531 48.171875 Z M 40 12 L 40 13 C 37.789062 13 36 14.789062 36 17 C 36 19.210938 37.789062 21 40 21 L 42 21 C 43.105469 21 44 21.894531 44 23 C 44 24.105469 43.105469 25 42 25 L 42 23 C 42 22.449219 41.550781 22 41 22 C 40.449219 22 40 22.449219 40 23 L 40 25 C 38.894531 25 38 24.105469 38 23 C 38 22.449219 37.550781 22 37 22 C 36.449219 22 36 22.449219 36 23 C 36 25.210938 37.789062 27 40 27 L 40 28 C 40 28.550781 40.449219 29 41 29 C 41.550781 29 42 28.550781 42 28 L 42 27 C 44.210938 27 46 25.210938 46 23 C 46 20.789062 44.210938 19 42 19 L 42 17 C 42 16.449219 41.550781 16 41 16 C 40.449219 16 40 16.449219 40 17 L 40 19 C 38.894531 19 38 18.105469 38 17 C 38 15.894531 38.894531 15 40 15 L 42 15 C 43.105469 15 44 15.894531 44 17 C 44 17.550781 44.449219 18 45 18 C 45.550781 18 46 17.550781 46 17 C 46 14.789062 44.210938 13 42 13 L 42 12 C 42 11.449219 41.550781 11 41 11 C 40.449219 11 40 11.449219 40 12 Z M 40 12 "/>
<path style=" stroke:none;fill-rule:nonzero;fill:rgb(55.29412%,42.352942%,62.352943%);fill-opacity:1;" d="M 41 38 C 31.074219 38 23 29.925781 23 20 C 23 10.074219 31.074219 2 41 2 C 50.925781 2 59 10.074219 59 20 C 59 29.925781 50.925781 38 41 38 Z M 41 4 C 32.179688 4 25 11.179688 25 20 C 25 28.820312 32.179688 36 41 36 C 49.820312 36 57 28.820312 57 20 C 57 11.179688 49.820312 4 41 4 Z M 41 4 "/>
<path style=" stroke:none;fill-rule:nonzero;fill:rgb(55.29412%,42.352942%,62.352943%);fill-opacity:1;" d="M 48 11.273438 C 47.796875 11.273438 47.59375 11.210938 47.414062 11.085938 C 46.828125 10.660156 46.210938 10.300781 45.582031 10.011719 C 45.078125 9.78125 44.859375 9.1875 45.09375 8.683594 C 45.320312 8.183594 45.914062 7.960938 46.417969 8.191406 C 47.160156 8.535156 47.890625 8.964844 48.585938 9.460938 C 49.03125 9.785156 49.132812 10.410156 48.8125 10.859375 C 48.617188 11.128906 48.308594 11.273438 48 11.273438 Z M 48 11.273438 "/>
<path style=" stroke:none;fill-rule:nonzero;fill:rgb(55.29412%,42.352942%,62.352943%);fill-opacity:1;" d="M 41 33 C 33.832031 33 28 27.167969 28 20 C 28 12.832031 33.832031 7 41 7 C 41.367188 7 41.726562 7.023438 42.082031 7.054688 C 42.632812 7.097656 43.042969 7.582031 42.996094 8.132812 C 42.949219 8.683594 42.476562 9.089844 41.917969 9.046875 C 41.613281 9.023438 41.308594 9 41 9 C 34.933594 9 30 13.933594 30 20 C 30 26.066406 34.933594 31 41 31 C 47.066406 31 52 26.066406 52 20 C 52 17.832031 51.367188 15.734375 50.167969 13.933594 C 49.859375 13.472656 49.984375 12.851562 50.445312 12.546875 C 50.902344 12.242188 51.527344 12.367188 51.832031 12.824219 C 53.25 14.957031 54 17.4375 54 20 C 54 27.167969 48.167969 33 41 33 Z M 41 33 "/>
</g>
</svg>
