<svg xmlns="http://www.w3.org/2000/svg"  viewBox="0 0 48 48" width="64px" height="64px"><path fill="#d03827" d="M12.459,31.332c-1.057,0.81-2.261,1.427-3.535,1.812c-0.29,0.088-0.86,0.065-1.146,0.054 c0,0,0.166,0.018,0,0c-0.929-0.102-1.886-0.44-2.597-1.047c-0.711-0.607-1.232-1.591-1.595-2.452 c-0.563-1.373-0.358-3.204,0.543-4.383c0.95,1.201,1.239,2.779,1.499,4.288c1.229,0.163,2.36,0.949,2.941,2.044 c0.41-0.379,0.662-0.894,0.972-1.358c0.31-0.464,0.728-0.91,1.277-1.012C10.818,29.278,13.419,28.165,12.459,31.332z"/><path fill="#d03827" d="M36.219,29.593c1.534-0.485,3.035-0.674,4.623-0.417c0.954-1.087,1.26-2.309,2.658-2.676 c0.487-1.216,0.847-1.849,1.787-2.761c0.204,1.659,0.368,3.552-0.787,4.761c-1,1-0.852,0.689-1.722,1.54 c-0.639,0.626-1.668,1.185-2.548,1.024c-1.518,0.866-3.481,1.261-5.225,1.144L36.219,29.593z"/><path fill="#d03827" d="M38.783,36.724c-0.2-0.321-0.434-0.7-0.669-0.997c-0.018-0.07-0.088-0.192-0.153-0.223 c-0.852-0.417-1.71-0.823-2.572-1.22c-0.985-0.453-2.015-0.902-3.1-0.896c-0.218,0.001-0.436,0.021-0.651,0.059l-1.166,1.086 c1.6,1.31,3.961,1.876,6.027,1.967c0.107-0.116,0.11,0.871,0.34,1.243c0.45,0.729,0.123,1.089,0.66,1.757 c0.083,1.03-0.525,1.532-0.934,2.482c1.533,0.14,2.456-1.019,2.934-2.482C39.495,38.552,39.286,37.528,38.783,36.724z"/><path fill="#d03827" d="M11.38,40.499c-0.114-0.089-0.233-0.246-0.378-0.256c0.55-0.82,0.922-1.851,0.497-2.742 c1.721-0.753,4.366-2.778,5.846-3.934l-1.647-1.513c-0.351,0.167-1.736,1.248-2.108,1.363c-1.63,0.503-2.999,1.847-3.758,3.375 c-0.665,1.049-0.616,2.5-0.334,3.709c0.716,1.128,2.088,2.281,3.424,2.282C12.563,41.891,12.138,41.09,11.38,40.499z"/><path fill="#d03827" d="M18.991,42.06c-0.104-0.07-0.209-0.146-0.274-0.253c-0.055-0.091-0.076-0.198-0.097-0.302 c-0.13-0.661-0.26-1.321-0.39-1.982c-0.029-0.149-0.057-0.308,0.002-0.447c0.062-0.144,0.205-0.234,0.339-0.315 c0.751-0.452,1.503-0.904,2.254-1.357l-2.043-0.817c-0.734,0.396-1.406,0.904-1.985,1.504c-0.262,0.271-0.51,0.571-0.626,0.929 c-0.189,0.583,0,1.214,0.189,1.798c0.149,0.462,0.298,0.923,0.448,1.385c0.057,0.176,0.116,0.355,0.23,0.5 c0.178,0.225,0.465,0.333,0.74,0.413c1.328,0.388,2.735,0.385,4.119,0.38C20.869,43.154,19.888,42.67,18.991,42.06z"/><path fill="#d03827" d="M31.224,39.02C30.5,37.5,29.887,37.11,29.5,36.5c-0.283-0.446-1.232-1.012-1.515-1.458l-1.561,1.205 c0.335,0.391,1.67,1.781,2.005,2.172c0.112,0.13,0.226,0.264,0.281,0.427c0.048,0.142,0.048,0.294,0.048,0.444 c-0.002,0.551-0.004,1.102-0.005,1.653c0,0.15-0.002,0.304-0.052,0.445c-0.074,0.209-0.247,0.366-0.421,0.504 c-0.937,0.744-2.077,1.18-3.219,1.537c1.615,0.168,3.261,0.042,4.831-0.371c0.119-0.031,0.241-0.066,0.338-0.141 c0.108-0.084,0.174-0.21,0.235-0.333C31.016,41.477,31.439,40.237,31.224,39.02z"/><path fill="#d03827" d="M41.5,20.5c-1.586-0.324-5.023,1.709-6,3l1,1c2.072,0.228,5.22-1.48,6.822-2.814L41.5,20.5z"/><path fill="#d03827" d="M5.208,20.679c1.838,1.412,4.99,2.095,7.292,1.821c0,0,2,0,2-1c-1.995-1.157-4.761-2.551-7-2 L5.208,20.679z"/><path fill="#373837" d="M21.827,18.837c-0.005-0.486-0.176-0.988-0.542-1.308c-0.366-0.321-0.941-0.417-1.352-0.157 c-0.581,0.368-0.492,1.443-0.434,2.128l2.382-0.377C21.825,19.042,21.828,18.936,21.827,18.837z"/><path fill="#373837" d="M28.522,17.86c-0.273-0.507-1.006-0.621-1.516-0.354c-0.51,0.267-1.331,1.445-1.506,1.994 l3.105,0.127C28.505,19.038,28.805,18.386,28.522,17.86z"/><path fill="#f26322" d="M23.354,19.586c-3.065,0.003-6.304,0.629-9.069,2.046c-1.832,0.939-3.658,2.342-4.216,4.434 c-0.605,2.271,0.481,2.705,1.994,4.422c1.513,1.717,3.436,2.955,5.056,4.557c0.522,0.516,1.015,1.073,1.604,1.5 c1.211,0.878,2.713,1.131,4.159,1.361c1.293,0.206,2.676,0.399,3.857-0.202c1.12-0.57,1.852-1.753,2.866-2.518 c1.284-0.968,2.944-1.211,4.252-2.14c2.687-1.908,3.045-3.907,3.135-7.358c0.022-0.845,0.031-1.743-0.379-2.465 c-0.341-0.599-0.924-0.987-1.506-1.306C31.586,19.989,27.306,19.708,23.354,19.586z"/><path fill="#f26322" d="M38.041,17.733c-0.429-0.761-1.41-1.015-2.284-1.011c-0.874,0.004-1.761,0.188-2.613-0.008 c-1.064-0.244-1.902-1.038-2.684-1.8c-1.317-1.284-2.635-2.567-3.952-3.851c0.85-0.371,1.806-0.747,2.677-0.428 c0.407,0.149,0.747,0.436,1.124,0.651c1.109,0.632,2.461,0.6,3.736,0.55c-0.555-2.68-2.253-5.295-4.774-6.359 c1.787-0.128,3.876-0.507,5.556,0.117c1.913,0.71,3.397,2.347,4.192,4.226c0.795,1.879,0.952,3.98,0.748,6.011L38.041,17.733z"/><path fill="#d03827" d="M11.197,16.375c-0.092,0.045-0.145,0.141-0.195,0.23c-1.12,2.015-3.153,3.498-5.413,3.949 c-0.14,0.028-0.295,0.05-0.418-0.023c-0.219-0.13-0.189-0.452-0.123-0.698C5.526,18.07,6.5,15.5,8.5,14.5L11.197,16.375z"/><path fill="#d03827" d="M43.5,21.5c-1,0-2.89-1.241-3.854-1.901c-0.844-0.578-2.139-1.076-2.146-2.099 c0.333-0.497,0.902-0.921,1.39-1.267c0.211-0.15,0.455-0.288,0.713-0.264c0.231,0.022,0.429,0.17,0.606,0.32 C41.67,17.517,43.08,19.639,43.5,21.5z"/><path fill="#f26322" d="M20.88,5.315c-3.053-0.795-6.514-0.374-9.013,1.551s-4.037,5.04-4.047,8.195 c1.08-0.408,2.421,0.06,3.011,1.053c0.174,0.293,0.302,0.637,0.59,0.819c0.248,0.157,0.562,0.156,0.855,0.134 c1.976-0.149,3.881-1.087,5.204-2.562c0.971-1.083,1.799-2.54,3.234-2.778c-2.63-1.079-5.792-0.751-8.144,0.845 c0.592-1.659,2.456-2.424,4.111-3.028C18.337,8.941,20.721,5.551,20.88,5.315z"/><path fill="#010101" d="M45.78,23.68c-0.02-0.19-0.15-0.35-0.33-0.41s-0.37-0.02-0.51,0.11c-0.96,0.93-1.36,1.61-1.81,2.71 c-0.99,0.35-1.48,1.08-1.96,1.8c-0.16,0.25-0.34,0.5-0.53,0.75c-1.12-0.14-2.22-0.09-3.41,0.17c0.18-0.94,0.23-1.96,0.26-3.11 c0.01-0.23,0.01-0.47,0-0.72c2.21-0.25,4.84-1.82,6.15-2.91c0.05-0.04,0.08-0.08,0.11-0.14c0.05-0.03,0.1-0.07,0.14-0.12 c0.1-0.12,0.13-0.27,0.1-0.42c-0.42-1.87-1.85-4.13-3.46-5.48c-0.08-0.07-0.17-0.14-0.26-0.2c0.22-2.29-0.05-4.33-0.79-6.08 c-0.91-2.14-2.54-3.78-4.48-4.5c-1.47-0.55-3.21-0.39-4.75-0.24c-0.34,0.03-0.68,0.07-1.02,0.09C29,5,28.81,5.17,28.78,5.4 c-0.04,0.22,0.08,0.45,0.3,0.54c2.03,0.86,3.66,2.9,4.34,5.42c-0.99,0.02-2.02-0.03-2.86-0.51c-0.13-0.07-0.24-0.14-0.36-0.22 c-0.26-0.17-0.52-0.35-0.84-0.46c-1.03-0.38-2.07,0.01-3.05,0.44c-0.15,0.06-0.26,0.2-0.29,0.36c-0.03,0.17,0.02,0.34,0.14,0.45 l3.95,3.85c0.75,0.73,1.69,1.65,2.92,1.93c0.65,0.15,1.29,0.11,1.92,0.06c0.27-0.02,0.54-0.04,0.81-0.04 c0.23,0.01,0.79,0.03,1.25,0.24C37,17.47,37,17.49,37,17.5c0.01,1.09,1.01,1.69,1.81,2.17c0.19,0.11,0.38,0.23,0.55,0.34 c0.12,0.08,0.23,0.16,0.34,0.23c-1.17,0.37-2.46,1.1-3.43,1.84c-0.3-0.25-0.62-0.44-0.92-0.6c-1.93-1.06-4.06-1.64-6.25-1.96 c-0.01-0.06-0.02-0.13-0.02-0.2c0-0.12,0.02-0.25,0.03-0.38c0.04-0.41,0.09-0.87-0.15-1.32c-0.43-0.79-1.48-0.93-2.19-0.56 c-0.6,0.32-1.38,1.43-1.67,2.1c-0.58-0.03-1.16-0.05-1.73-0.07c-0.01,0-0.01,0-0.02,0c-0.31,0-0.62,0.01-0.93,0.02 c-0.01,0-0.01,0-0.02,0c0.01-0.1-0.01-0.19-0.07-0.28c-0.01-0.67-0.27-1.29-0.71-1.68c-0.56-0.48-1.38-0.57-1.95-0.2 c-0.84,0.53-0.74,1.8-0.67,2.57c-1.59,0.3-3.1,0.79-4.45,1.44c-1.45-0.84-3.15-1.69-4.82-1.98c0.53-0.48,1.01-1.03,1.41-1.64 c0.01,0.01,0.01,0.02,0.02,0.02c0.27,0.17,0.58,0.22,0.87,0.22c0.1,0,0.19-0.01,0.28-0.01c2.11-0.16,4.13-1.16,5.54-2.73 c0.22-0.24,0.43-0.51,0.65-0.77c0.7-0.87,1.36-1.69,2.3-1.85c0.22-0.03,0.39-0.21,0.41-0.43c0.03-0.23-0.1-0.44-0.31-0.52 c-2.02-0.83-4.3-0.89-6.35-0.22c0.68-0.42,1.49-0.74,2.3-1.04c1.89-0.69,4.42-4.38,4.45-4.42c0.09-0.13,0.1-0.3,0.05-0.45 c-0.06-0.15-0.19-0.27-0.34-0.31c-3.43-0.89-6.96-0.28-9.45,1.64c-2.5,1.93-4.1,5.05-4.23,8.21c-1.21,1-2.13,2.69-2.76,5.02 c-0.15,0.55-0.02,0.88,0.14,1.07v0.01C4.73,20.9,4.8,21,4.9,21.08c1.58,1.21,4.16,1.97,6.45,1.98c-0.89,0.86-1.49,1.83-1.77,2.88 c-0.4,1.51-0.11,2.34,0.48,3.11c-0.33,0.21-0.65,0.53-0.93,0.96c-0.09,0.13-0.18,0.27-0.26,0.41c-0.08,0.13-0.16,0.26-0.25,0.39 c-0.63-0.82-1.55-1.41-2.56-1.64c-0.24-1.35-0.57-2.94-1.54-4.16c-0.09-0.12-0.24-0.19-0.39-0.19c-0.11-0.01-0.3,0.07-0.4,0.19 c-1,1.31-1.25,3.32-0.61,4.88c0.52,1.22,1.09,2.09,1.74,2.64c0.73,0.63,1.75,1.04,2.94,1.17c0.03,0.01,0.07,0.01,0.11,0 c0.11,0.01,0.22,0.01,0.33,0.01c0.32,0,0.61-0.02,0.83-0.09c1.3-0.39,2.51-1,3.59-1.81c0.35,0.34,0.71,0.66,1.07,0.97 c-0.13,0.08-0.24,0.14-0.29,0.16c-1.66,0.51-3.18,1.87-4.03,3.58c-0.86,1.36-0.62,3.15-0.4,4.09c0.02,0.06,0.04,0.11,0.07,0.16 c0.79,1.25,2.29,2.51,3.84,2.51c0.17,0,0.33-0.08,0.42-0.22c0.09-0.14,0.11-0.31,0.05-0.47c-0.34-0.84-0.81-1.79-1.7-2.49h-0.01 c0.45-0.83,0.6-1.63,0.44-2.34c1.25-0.63,2.83-1.74,4.21-2.78c0.15,0.14,0.3,0.28,0.44,0.42l0.35,0.36 c0.25,0.26,0.51,0.52,0.79,0.77c-0.54,0.35-1.03,0.75-1.47,1.21c-0.28,0.29-0.59,0.66-0.74,1.13c-0.25,0.76,0,1.53,0.18,2.1 l0.45,1.39c0.06,0.19,0.14,0.44,0.32,0.65c0.26,0.34,0.65,0.49,0.99,0.59c1.24,0.36,2.51,0.4,3.75,0.4h0.51 c0.24,0,0.45-0.18,0.49-0.42c0.04-0.25-0.1-0.48-0.34-0.56c-0.98-0.33-1.92-0.79-2.78-1.37c-0.03-0.02-0.11-0.08-0.12-0.1 c-0.02-0.02-0.03-0.1-0.04-0.14l-0.39-1.98c-0.01-0.04-0.03-0.14-0.04-0.14c0.02-0.02,0.11-0.08,0.15-0.1L20.79,38 c0.68,0.19,1.37,0.3,2.01,0.4c0.62,0.1,1.32,0.21,2.04,0.21c0.71,0,1.44-0.11,2.12-0.46c0.12-0.06,0.24-0.13,0.35-0.2 c0.32,0.34,0.61,0.64,0.74,0.79c0.07,0.09,0.16,0.19,0.19,0.26c0.02,0.07,0.02,0.18,0.02,0.29l-0.01,1.65c0,0.1,0,0.21-0.02,0.28 c-0.03,0.09-0.16,0.2-0.26,0.28c-0.91,0.72-2.06,1.14-3.06,1.45c-0.23,0.07-0.37,0.29-0.35,0.53c0.03,0.23,0.21,0.42,0.45,0.44 C25.5,43.98,25.98,44,26.47,44c1.19,0,2.38-0.15,3.55-0.46c0.13-0.04,0.33-0.09,0.52-0.23c0.19-0.15,0.29-0.34,0.37-0.5 c0.75-1.51,1.01-2.74,0.81-3.88c-0.01-0.04-0.03-0.08-0.05-0.12c-0.51-1.09-0.97-1.63-1.34-2.06c-0.16-0.18-0.29-0.34-0.41-0.52 c-0.08-0.13-0.19-0.25-0.33-0.38c0.11-0.1,0.21-0.19,0.32-0.27c0.19-0.15,0.4-0.28,0.62-0.39c1.4,1,3.39,1.64,5.59,1.79 c0.06,0.34,0.12,0.75,0.29,1.03c0.16,0.25,0.19,0.43,0.23,0.66c0.04,0.27,0.09,0.61,0.37,1.01c0,0.47-0.2,0.8-0.46,1.25 c-0.15,0.26-0.3,0.53-0.44,0.86c-0.07,0.14-0.06,0.31,0.03,0.45c0.08,0.14,0.22,0.23,0.38,0.24c0.1,0.01,0.2,0.01,0.3,0.01 c1.44,0,2.55-0.99,3.16-2.83C39.99,39.6,40,39.55,40,39.5c-0.01-1.15-0.29-2.23-0.79-3.04l-0.02-0.03 c-0.19-0.31-0.41-0.65-0.64-0.95c-0.06-0.14-0.18-0.33-0.37-0.43c-0.85-0.41-1.72-0.82-2.58-1.22c-0.42-0.19-0.83-0.38-1.25-0.53 c0.27-0.19,0.51-0.39,0.73-0.59c0.17,0.01,0.36,0.02,0.54,0.02c1.64,0,3.35-0.42,4.71-1.15c1.05,0.1,2.16-0.56,2.8-1.18 c0.38-0.38,0.56-0.52,0.73-0.65c0.22-0.17,0.44-0.34,1-0.9C46.13,27.51,46.01,25.56,45.78,23.68z M37.59,16.63 c-0.49-0.27-1.1-0.41-1.81-0.41c-0.31-0.01-0.6,0.02-0.9,0.04c-0.58,0.04-1.12,0.08-1.62-0.03c-0.89-0.21-1.61-0.85-2.45-1.67 l-3.41-3.32c0.58-0.21,1.13-0.32,1.61-0.14c0.21,0.08,0.42,0.22,0.64,0.36c0.13,0.09,0.27,0.18,0.41,0.26 c1.27,0.72,2.78,0.66,4,0.62c0.15-0.01,0.29-0.08,0.38-0.19c0.09-0.12,0.12-0.27,0.09-0.41c-0.51-2.47-1.85-4.61-3.63-5.91 c1.32-0.11,2.65-0.17,3.75,0.23c1.68,0.63,3.11,2.07,3.91,3.96c0.66,1.56,0.91,3.4,0.73,5.48c-0.27,0.05-0.5,0.2-0.69,0.33 C38.27,16.07,37.91,16.33,37.59,16.63z M39.32,18.81c-0.36-0.21-0.72-0.43-0.98-0.68c-0.16-0.15-0.28-0.31-0.32-0.49 c0.09-0.12,0.21-0.24,0.33-0.34c0.25-0.25,0.55-0.46,0.83-0.66c0.17-0.12,0.3-0.19,0.38-0.17c0.1,0.01,0.25,0.14,0.33,0.2 c1.21,1.01,2.3,2.58,2.85,4.04c0.01,0.04,0.03,0.07,0.04,0.11c-0.38-0.14-0.9-0.4-1.64-0.85c-0.35-0.21-0.75-0.47-1.21-0.78 C39.74,19.06,39.53,18.93,39.32,18.81z M40.89,20.99c0.58,0.35,1.09,0.6,1.52,0.76c-1.34,0.96-3.37,2.04-5,2.24 c-0.07-0.35-0.18-0.69-0.36-1.01c-0.03-0.05-0.06-0.1-0.1-0.15C38.1,21.97,39.79,21.1,40.89,20.99z M27.24,17.95 c0.3-0.16,0.72-0.08,0.84,0.15c0.1,0.17,0.07,0.43,0.04,0.73c-0.02,0.18-0.03,0.37-0.03,0.56h-0.01c-0.63-0.08-1.27-0.13-1.9-0.17 C26.47,18.72,26.97,18.09,27.24,17.95z M20.2,17.79c0.21-0.12,0.54-0.08,0.76,0.11c0.23,0.21,0.36,0.56,0.37,0.96 c0,0.08,0.01,0.2,0.05,0.32c-0.01,0-0.01,0-0.01,0c-0.46,0.04-0.93,0.09-1.38,0.17c-0.01-0.17-0.03-0.4-0.03-0.63 C19.96,18.32,20.01,17.92,20.2,17.79z M8.38,14.01c0.31-2.62,1.7-5.14,3.79-6.75c2.07-1.59,4.97-2.18,7.86-1.63 c-0.8,1.07-2.42,3.04-3.52,3.45c-1.87,0.68-3.76,1.5-4.41,3.33c-0.07,0.2-0.01,0.43,0.16,0.56s0.41,0.14,0.59,0.02 c1.85-1.26,4.26-1.68,6.45-1.18c-0.62,0.44-1.12,1.06-1.58,1.63c-0.2,0.25-0.4,0.5-0.61,0.73c-1.24,1.38-3.02,2.26-4.87,2.4 c-0.2,0.02-0.43,0.02-0.55-0.06c0,0-0.01,0-0.01-0.01c-0.11-0.07-0.19-0.24-0.29-0.41c-0.03-0.07-0.07-0.14-0.11-0.2 c-0.01-0.01-0.01-0.02-0.02-0.03c-0.48-0.81-1.35-1.33-2.27-1.43c-0.11-0.01-0.23-0.02-0.34-0.02c-0.1,0-0.2,0.01-0.31,0.02 C8.35,14.29,8.36,14.15,8.38,14.01z M5.53,19.96c0.55-2.01,1.33-3.51,2.31-4.4h0.01c0.05,0,0.1-0.01,0.15-0.03 c0.85-0.33,1.93,0.05,2.4,0.84l0.08,0.13c-0.56,0.96-1.33,1.77-2.23,2.39c-0.39,0.27-0.81,0.5-1.24,0.69 c-0.48,0.21-0.98,0.37-1.5,0.48C5.51,20.03,5.52,20,5.53,19.96z M6.42,20.86c0.75-0.22,1.48-0.55,2.14-0.98c0.01,0,0.01,0,0.01,0 c1.61,0,3.44,0.81,4.92,1.62c-0.28,0.15-0.54,0.32-0.79,0.49C12.61,22,12.52,22,12.44,22C10.5,22.23,8.11,21.75,6.42,20.86z M8.78,32.67c-0.21,0.06-0.76,0.04-0.96,0.03c-0.91-0.1-1.73-0.43-2.31-0.93c-0.53-0.44-1.02-1.21-1.46-2.26 c-0.41-1-0.36-2.27,0.1-3.26c0.57,1.04,0.79,2.3,0.98,3.44c0.04,0.22,0.22,0.38,0.43,0.41c1.08,0.14,2.06,0.83,2.57,1.78 c0.07,0.14,0.2,0.24,0.36,0.26c0.14,0.03,0.3-0.02,0.42-0.12c0.35-0.33,0.58-0.71,0.81-1.08c0.08-0.12,0.16-0.25,0.24-0.37 c0.26-0.39,0.52-0.64,0.79-0.75c0.04,0.05,0.09,0.1,0.14,0.15c0.25,0.25,0.51,0.53,0.8,0.85c0.08,0.09,0.16,0.18,0.25,0.27 C10.98,31.79,9.92,32.32,8.78,32.67z M11.3,37.04c-0.12,0.06-0.22,0.16-0.27,0.29c-0.05,0.12-0.04,0.26,0.02,0.38 c0.38,0.8-0.13,1.75-0.46,2.25c-0.1,0.15-0.11,0.34-0.04,0.5c0.07,0.14,0.19,0.24,0.34,0.27c0.02,0.02,0.04,0.03,0.06,0.05 c0.04,0.04,0.08,0.08,0.12,0.11c0.43,0.34,0.74,0.76,0.99,1.21c-0.82-0.33-1.61-1.06-2.09-1.8c-0.18-0.81-0.36-2.23,0.31-3.29 c0.76-1.51,2.05-2.68,3.46-3.12c0.18-0.05,0.44-0.2,0.79-0.45c0.02,0.02,0.05,0.04,0.07,0.06c0.32,0.26,0.64,0.53,0.96,0.8 C14.11,35.39,12.48,36.52,11.3,37.04z M18.31,38.33c-0.15,0.1-0.41,0.25-0.54,0.55c-0.12,0.29-0.06,0.57-0.03,0.74l0.39,1.98 c0.02,0.13,0.06,0.3,0.16,0.47c0.13,0.2,0.31,0.33,0.42,0.4c0.23,0.16,0.46,0.31,0.7,0.45c-0.5-0.05-1.01-0.14-1.49-0.28 c-0.19-0.06-0.4-0.13-0.49-0.25c-0.06-0.07-0.1-0.21-0.15-0.34l-0.44-1.38c-0.19-0.57-0.33-1.08-0.19-1.5 c0.09-0.27,0.31-0.52,0.51-0.73c0.48-0.5,1.01-0.92,1.61-1.27c0.26,0.16,0.52,0.3,0.79,0.42L18.31,38.33z M29.08,36.77 c0.14,0.22,0.3,0.41,0.49,0.63c0.34,0.4,0.73,0.85,1.17,1.77c0.14,0.9-0.09,1.92-0.72,3.19c-0.02,0.04-0.07,0.14-0.1,0.16 c-0.02,0.02-0.12,0.04-0.16,0.05c-0.72,0.19-1.45,0.32-2.19,0.38c0.35-0.19,0.7-0.41,1.02-0.67c0.22-0.17,0.46-0.4,0.58-0.73 c0.08-0.22,0.08-0.45,0.08-0.61l0.01-1.65c0-0.17,0-0.39-0.08-0.61c-0.08-0.25-0.25-0.45-0.37-0.59c-0.13-0.15-0.4-0.43-0.7-0.76 c0.24-0.23,0.47-0.47,0.7-0.71c0.02-0.02,0.04-0.05,0.07-0.07C28.97,36.63,29.04,36.71,29.08,36.77z M35.18,34.74 c0.83,0.38,1.65,0.77,2.47,1.17c0.02,0.04,0.04,0.09,0.07,0.13c0.22,0.27,0.43,0.62,0.62,0.92l0.02,0.03 c0.4,0.63,0.62,1.5,0.64,2.43c-0.27,0.79-0.74,1.65-1.55,1.96c0.31-0.53,0.62-1.09,0.55-1.92c-0.01-0.1-0.05-0.2-0.11-0.27 c-0.2-0.25-0.23-0.41-0.27-0.67c-0.04-0.27-0.09-0.61-0.35-1.04c-0.08-0.11-0.13-0.5-0.16-0.68c-0.06-0.38-0.11-0.68-0.44-0.79 c-0.05-0.01-0.09-0.02-0.14-0.02c-0.03,0-0.05,0-0.07,0.01c-1.88-0.09-3.6-0.55-4.87-1.3c0.12-0.06,0.25-0.11,0.38-0.16 c0.4-0.16,0.81-0.33,1.22-0.53C33.84,34.15,34.48,34.42,35.18,34.74z M33.57,32.64c-0.16,0.12-0.33,0.22-0.51,0.32 c-0.45,0.25-0.95,0.45-1.46,0.65c-0.53,0.21-1.07,0.43-1.59,0.72v0.01c-0.24,0.13-0.48,0.28-0.71,0.45 c-0.16,0.12-0.32,0.25-0.47,0.4c-0.25,0.22-0.49,0.47-0.71,0.71c-0.01,0.01-0.02,0.02-0.03,0.03c-0.22,0.23-0.45,0.46-0.67,0.67 c-0.26,0.23-0.52,0.44-0.81,0.6c-0.03,0.02-0.07,0.04-0.1,0.06c-0.99,0.5-2.2,0.37-3.55,0.15c-0.57-0.09-1.18-0.19-1.77-0.34 c-0.78-0.19-1.53-0.47-2.17-0.93c-0.42-0.3-0.79-0.68-1.19-1.08l-0.36-0.37c-0.12-0.11-0.23-0.23-0.35-0.33 c-0.25-0.24-0.5-0.46-0.75-0.68c-0.32-0.28-0.65-0.56-0.98-0.83c-0.05-0.04-0.1-0.08-0.15-0.12c-0.22-0.18-0.43-0.36-0.65-0.54 c-0.51-0.43-1.02-0.87-1.5-1.34c-0.22-0.22-0.44-0.45-0.65-0.69c-0.11-0.12-0.22-0.24-0.32-0.35c-0.05-0.06-0.1-0.11-0.14-0.16 c-0.13-0.13-0.25-0.26-0.37-0.38c-0.21-0.22-0.4-0.41-0.56-0.59c-0.62-0.7-0.84-1.24-0.5-2.49c0.32-1.2,1.15-2.28,2.47-3.22 c0.44-0.31,0.94-0.61,1.49-0.89c0.14-0.07,0.28-0.14,0.43-0.2c2.43-1.16,5.39-1.79,8.41-1.79c3.95,0.12,8.1,0.4,11.52,2.27 c0.21,0.11,0.42,0.24,0.63,0.39c0.27,0.19,0.51,0.43,0.68,0.72c0,0,0,0.01,0.01,0.01c0.24,0.44,0.3,0.98,0.31,1.52 c0,0.23,0,0.46-0.01,0.67c-0.04,1.37-0.11,2.48-0.35,3.43c-0.07,0.29-0.16,0.57-0.27,0.84C35.46,30.95,34.76,31.79,33.57,32.64z M44.15,28.15c-0.51,0.5-0.7,0.65-0.9,0.81c-0.2,0.15-0.39,0.3-0.82,0.72c-0.53,0.52-1.42,1.02-2.11,0.89 c-0.11-0.02-0.24,0-0.34,0.06c-1.13,0.65-2.58,1.04-3.99,1.09c0.43-0.57,0.74-1.17,0.95-1.81c1.36-0.37,2.59-0.44,3.82-0.24 c0.18,0.03,0.34-0.04,0.46-0.16c0.31-0.36,0.55-0.72,0.78-1.07c0.47-0.7,0.84-1.25,1.63-1.46c0.15-0.04,0.28-0.15,0.33-0.29 c0.31-0.77,0.56-1.28,0.94-1.79C45,26.19,44.9,27.36,44.15,28.15z"/></svg>