<svg xmlns="http://www.w3.org/2000/svg"  viewBox="0 0 512 512" width="64px" height="64px"><path fill="#FEBF10" d="M375,174.9c-9.3-5.5-14.6-16.7-16.8-27c-4.5-20.7-2.6-42.2-11.2-62c-9.7-22.4-29.6-34.6-52.8-39.8c-22.5-5-49.1-5.5-68.6,8.5c-35,25.1-35.3,77-29.1,115.8c3.9,0,7.7,0,11.6-0.2c0.6,0,1.3,0,1.9,0c-0.8-29-2.1-62,15.4-86.7C237.2,66.7,259,55,279.8,58.7c22.2,3.9,44,20.4,52.9,41.3c11.2,26.5,6,56.8,17.5,83.1c3.9,8.8,11.6,17.6,22.1,17.7c10.1,0.1,18.6-5.3,24-13.6c0.7-4.5,1.5-9,2.1-13.1C390.8,177.1,382.1,179.1,375,174.9z"/><path fill="#D6E5E5" d="M139,254.6c-11.5,5.3-18.4,15.6-23.1,27.3c-2.6,6.4-5.3,12.7-8,19c-1.1,2.5-2.2,5.1-2.8,7.8c2.4-0.9,5.5,0.4,6.9,2.9c0.3,0,0.7,0,1,0c1.4,0,2.8-0.1,4.2-0.1c1.5,0,4.2,0.2,5.9,0c0.3-1.1,0.5-2.2,0.7-3.4c0.9-4.2,1.5-8.4,2.9-12.5c4.5-13.5,11.9-25.3,20.9-36C144.5,258.3,141.5,256.8,139,254.6z"/><path fill="#127274" d="M275.5,186.7c-0.3-2.3-0.7-6.4-2.6-8.1c-1.8-1.5-4.8-1.5-7.1-1.4c-8.2,0.3-16.2,2.5-24.4,3.2c-10.7,0.9-21.8,0.5-32.6,0.8c-8.8,0.3-17.6,0.4-26.4-0.2c-7-0.5-14.2-1-21.2-0.4c-5.6,0.5-8.6,0.7-8.2,6.8c0.4,6.4,2.3,12.7,2.8,19.1c14.7,0.2,29.3,1,44,1.5c10.6,0.4,21.1,0.3,31.7,0.8c9.5,0.4,19,0.8,28.5,0.4c3.8-0.2,7.7-0.4,11.5-1c0.8-2.4,2.9-4.2,6.1-3.6c0,0,0,0,0,0C276,198.9,276.4,192.5,275.5,186.7z"/><path fill="#FEBF10" d="M455.7,128c-1.7-4.7-1.4-9.2,2.5-12.7c3.3-3,7.7-4.7,11.4-7.3c-6.4-2.9-14-3.6-18.6-9.6c-3.5-4.6-3.5-9.8-3.2-15.2c-1,1.2-1.9,2.4-2.6,3.3c-2.2,2.7-4.5,5.6-7.9,6.8c-1.3,0.5-2.4,0.5-3.4,0.1c-0.5,0.1-0.9,0.1-1.4,0.1c-8.2-0.6-14.7-7.6-20.7-12.5c-4.3-3.5-8.9-8-13.9-11.1c2.3,13.9,8.2,27.1,7.1,41.4c-0.6,7.3-4.1,13.6-9.6,18.5c-2.9,2.6-6.2,5-9,7.8c5.6,1.1,11.3,2.4,15.9,5.7c7.7,5.6,8.1,13.6,7.8,22.4c-0.3,8.4-2,16.6-3,25c-0.5,3.9-0.9,8.1-0.8,12.2c7.7-12.1,11.8-27.1,23.7-35.8c5.6-4.1,13.5-4.5,20.1-4.4c5.1,0.1,10.3,0.4,15.4,1.2c0.6-5.8-1.5-12.1-3.2-17.4C460.1,140.2,457.9,134.1,455.7,128z M433.8,141.2c1.6,1.1,1.8,0.5,0.1,0.6c-1.1,0.1-2.2,0.1-3.3,0.1c-1.9,0-3.8,0-5.7-0.6c-4-1.1-6.3-4.1-6.6-8.2c-0.3-3.8,0.2-7.6,0.6-11.3c0.2-1.7,0.4-3.3,0.7-5c0.1-0.5,0.4-3.7,0.3-2.4c0.2-7,11.2-7.9,11-0.8c-0.2,5.4-1.6,10.8-1.7,16.2c0,0.4,0,0.8,0,1.1c0.9,0,1.8,0,2.8-0.1c3.4-0.2,6.2,0,9.1,2C446.9,137,439.6,145.2,433.8,141.2z"/><path fill="#127274" d="M376.1,305.2c-8.5-21.9-20.9-43-38-59.4c-8.3-8-17.4-15.1-27.7-20.2c-9.4-4.7-18.9-6.9-28.9-8.9c-4.6,2.3-10.4,2.9-15.3,3.3c-10,0.8-20,0.5-30,0.1c-27.4-1.1-54.9-2.4-82.3-2.5c-0.5,0.3-1,0.5-1.6,0.7c-40.1,10.9-69.6,46.7-80.8,85.7c-11.3,39.5-3.6,82.5,19.5,116.4c13.4,19.6,31.2,35.8,52.9,45.7c23,10.6,48.5,15.9,73.8,17.4c49.6,3,101-9.5,135.5-47.3c15.9-17.5,27.9-38.9,31.9-62.4C389,350.4,384.6,327.1,376.1,305.2z M160.6,261.7c-7.6,8.2-14.6,17-19.4,27.2c-2.6,5.4-4.6,11-5.7,16.9c-0.7,3.6-1.1,7.6-2.6,11c-3,6.7-10.8,5.6-16.9,5.8c-3.7,0.1-8.2-0.3-11-2.1c-0.4,0.4-0.8,0.8-1.4,1.1c-0.8,0.4-1.6,0.8-2.4,1.2c-1.7,0.8-4.1,0.1-5.5-1.1c-2.5-2.3-2-6.5-2-9.7c0-4.1,1.2-8.2,2.7-12c3-7.8,6.5-15.4,9.7-23.1c6.4-15.5,16.4-28.4,32.6-34.2c2.4-0.8,5,0.1,6.4,2.1c3,4.3,9.5,5.7,13.9,8.1C161.9,254.9,163.1,259,160.6,261.7z"/><path fill="#010101" d="M482.1,102.9c-5.9-5.4-13.6-6.2-20.4-9.8c-6.1-3.2-2.2-15.1-2.7-20.5c-0.3-2.7-2.9-5.6-5.9-5.1c-5,1-8.6,3.5-12.2,7.1c-1.8,1.8-4.7,6.6-6.7,7.9c-7.1-0.8-14-8.9-19.4-13.2c-7-5.6-13.4-11.4-22.3-13.7c-3.6-0.9-6.6,2.5-6.5,5.8c0.3,15.9,7.9,30.4,8.1,46.2c0.1,7.4-3.7,12-9.1,16.6c-5.1,4.3-10,8.5-13.5,14.3c-2,3.3,0.7,7,3.9,7.8c6.4,1.7,14.9,1.8,20.4,5.7c2.3,1.6,3.3,4.3,3.6,7.4c-1.8,0.5-3.3,1.9-4,3.7c-3.3,1.4-6.7,2.6-10.3,2.9c-6.4,0.5-9.8-5.2-12.5-10c-6.3-11-5.9-25.4-7-37.7c-2-22.8-9-45.4-25.7-61.8c-16.8-16.4-42.5-23-65.3-24.4c-23.7-1.4-46.6,4.1-64.2,20.7c-15.4,14.7-22.9,36.2-26,56.7c-3,20-2.2,40.5,0.9,60.5c-1.7-0.1-3.3-0.1-5-0.2c-8.2-0.5-16.7-1.2-24.9,0.4c-20.2,3.9-11.1,24.4-10.5,38.6c-44.9,14-76,56.5-86.5,101.2c-11,47.1,5,97.5,36.6,133.2c27,30.4,66.1,44.8,105.8,49.6h61.4c37.9-5.3,73.4-21.4,100-50.6c16-17.5,27.5-39.2,32.7-62.3c5.2-23.3,2-46.9-5.3-69.3c-14-43.7-44.8-86.2-89.6-101.2c-3.7-1.2-7.5-2.1-11.3-2.8c0.3-1,0.3-2.2-0.2-3.5c-2.6-6.8-1.4-15-3-22.1c-1.8-7.9-6.3-13.5-14.7-14.7c-9.1-1.2-18.4,1.3-27.3,2.6c-7.4,1.1-15.1,1.2-22.7,1.1c-0.9-36.4-2.2-84.1,38.7-99.1c22.2-8.1,46.7,7.8,58.9,25.7c7.4,11,9.8,24.8,11.4,37.7c1.8,14.2,2.7,28.4,6.4,42.2c4.4,16.3,14.3,31.5,32,34.6c10,1.7,19.2-1.5,26.8-7.2c0.3,4.5,1.2,8.9,3.2,12.9c1.9,3.8,6.1,4.9,9.3,1.8c11.8-11.3,15.2-28.1,25.9-40.1c4.3-4.8,9.9-5,16.1-5.1c6.3-0.1,12.7,0.6,18.8,1.9c2.2,0.5,5.1-0.7,6-3c4.8-12.9-0.4-25.9-4.8-38.1c-1.1-3-1.9-6-3.1-9c-0.3-0.7-0.5-1.4-0.8-2.2c0.2-0.2,0.4-0.5,0.8-0.8c2.3-2.3,5.9-3.5,8.7-5.1c2.9-1.7,5.4-3.9,7.3-6.7C484.3,108.2,484.5,105.1,482.1,102.9z M281.5,216.7c10,2,19.5,4.3,28.9,8.9c10.3,5.1,19.5,12.2,27.7,20.2c17,16.4,29.5,37.5,38,59.4c8.5,21.9,12.9,45.3,8.9,68.6c-4,23.5-16,44.9-31.9,62.4c-34.5,37.8-85.8,50.4-135.5,47.3c-25.2-1.5-50.7-6.8-73.8-17.4c-21.7-10-39.5-26.1-52.9-45.7C67.8,386.5,60.1,343.5,71.4,304c11.2-39.1,40.8-74.8,80.8-85.7c0.6-0.2,1.1-0.4,1.6-0.7c27.4,0.1,54.9,1.3,82.3,2.5c10,0.4,20,0.7,30-0.1C271.1,219.6,276.9,219,281.5,216.7z M241.4,180.4c8.2-0.7,16.2-2.9,24.4-3.2c2.3-0.1,5.2-0.2,7.1,1.4c2,1.7,2.3,5.7,2.6,8.1c0.9,5.9,0.5,12.2,2,18c0,0,0,0,0,0c-3.2-0.6-5.3,1.3-6.1,3.6c-3.8,0.7-7.7,0.9-11.5,1c-9.5,0.4-19,0-28.5-0.4c-10.5-0.5-21.1-0.4-31.7-0.8c-14.7-0.5-29.3-1.3-44-1.5c-0.5-6.4-2.4-12.7-2.8-19.1c-0.4-6.1,2.6-6.3,8.2-6.8c7-0.7,14.2-0.1,21.2,0.4c8.8,0.6,17.6,0.5,26.4,0.2C219.6,181,230.7,181.3,241.4,180.4z M396.2,187.1c-5.4,8.3-13.9,13.8-24,13.6c-10.5-0.1-18.2-8.9-22.1-17.7c-11.5-26.3-6.2-56.5-17.5-83.1C323.8,79,302,62.6,279.8,58.7c-20.8-3.7-42.7,8.1-54.5,24.9c-17.5,24.7-16.2,57.7-15.4,86.7c-0.6,0-1.3,0-1.9,0c-3.9,0.1-7.8,0.2-11.6,0.2c-6.2-38.8-5.9-90.7,29.1-115.8c19.5-14,46.1-13.5,68.6-8.5c23.2,5.2,43.1,17.4,52.8,39.8c8.6,19.8,6.7,41.3,11.2,62c2.2,10.3,7.5,21.5,16.8,27c7.2,4.2,15.9,2.1,23.4-1C397.7,178.1,396.9,182.5,396.2,187.1z M458.3,115.2c-4,3.5-4.2,8-2.5,12.7c2.2,6.1,4.3,12.3,6.4,18.5c1.8,5.2,3.9,11.6,3.2,17.4c-5.1-0.8-10.3-1.1-15.4-1.2c-6.6-0.1-14.5,0.4-20.1,4.4c-11.9,8.7-15.9,23.7-23.7,35.8c-0.1-4.1,0.3-8.3,0.8-12.2c1-8.4,2.7-16.5,3-25c0.3-8.8-0.1-16.8-7.8-22.4c-4.6-3.3-10.3-4.6-15.9-5.7c2.9-2.8,6.1-5.2,9-7.8c5.5-4.9,9-11.2,9.6-18.5c1.2-14.4-4.7-27.6-7.1-41.4c5,3.1,9.6,7.6,13.9,11.1c6,4.9,12.5,11.9,20.7,12.5c0.5,0,1,0,1.4-0.1c1,0.3,2.2,0.3,3.4-0.1c3.4-1.2,5.7-4.1,7.9-6.8c0.8-0.9,1.6-2.1,2.6-3.3c-0.3,5.3-0.3,10.6,3.2,15.2c4.6,6,12.2,6.7,18.6,9.6C466,110.5,461.6,112.2,458.3,115.2z"/><path fill="#010101" d="M441.1 132.9c-2.9-2-5.6-2.2-9.1-2-.9 0-1.8.1-2.8.1 0-.4 0-.8 0-1.1 0-5.4 1.5-10.8 1.7-16.2.2-7.1-10.7-6.2-11 .8 0-1.3-.3 2-.3 2.4-.2 1.7-.4 3.3-.7 5-.5 3.7-.9 7.6-.6 11.3.3 4.1 2.6 7.1 6.6 8.2 1.8.5 3.7.6 5.7.6 1.1 0 2.2-.1 3.3-.1 1.7-.1 1.4.4-.1-.6C439.6 145.2 446.9 137 441.1 132.9zM158.9 253.1c-4.4-2.5-10.9-3.8-13.9-8.1-1.4-2-4-2.9-6.4-2.1-16.3 5.7-26.2 18.7-32.6 34.2-3.2 7.7-6.7 15.4-9.7 23.1-1.5 3.8-2.7 7.8-2.7 12 0 3.1-.5 7.4 2 9.7 1.3 1.2 3.8 1.9 5.5 1.1.8-.4 1.6-.8 2.4-1.2.6-.3 1.1-.7 1.4-1.1 2.9 1.8 7.3 2.1 11 2.1 6.1-.2 13.9.9 16.9-5.8 1.5-3.4 1.9-7.4 2.6-11 1.1-5.9 3.2-11.5 5.7-16.9 4.8-10.1 11.9-19 19.4-27.2C163.1 259 161.9 254.9 158.9 253.1zM126.7 295.8c-1.3 4.1-2 8.3-2.9 12.5-.2 1.1-.5 2.2-.7 3.4-1.6.2-4.4 0-5.9 0-1.4 0-2.8.1-4.2.1-.3 0-.7 0-1 0-1.4-2.5-4.5-3.9-6.9-2.9.6-2.7 1.7-5.3 2.8-7.8 2.7-6.4 5.4-12.6 8-19 4.7-11.8 11.6-22 23.1-27.3 2.5 2.2 5.5 3.7 8.6 5.2C138.5 270.5 131.1 282.3 126.7 295.8z"/></svg>