<svg xmlns="http://www.w3.org/2000/svg"  viewBox="0 0 512 512" width="64px" height="64px"><path fill="#C56528" d="M275,250.4c-7.4-5.1-16.2-8-25.2-6.8c-4.3,0.6-10.1,1.9-14.7,4.5c1.3,2.7,0.7,6.4-2.9,7.6c-1.7,0.6-3.3,1.3-4.8,2.3c-0.7,1-1.7,1.7-2.8,2c-9.3,7.6-15,21.7-18.1,32c-2.8,9.5-5.9,22.2-1.8,31.8c0.4-0.2,0.8-0.4,1.4-0.5c9.2-2.1,19-5.5,25.9-12.4c5.5-5.5,7.4-12,9.3-19.4c1.7-6.6,3.5-13.6,7.8-19c4.7-5.8,11.1-8.4,18.3-9.5c7-1.1,7.8,9.9,0.8,11c-15,2.3-15.2,18.2-19.2,29.9c-5.6,16-20.7,24.9-36.4,29.1c13.7,9,34.9,6.1,48.2-1.8c14.3-8.6,25.2-23.2,28.6-39.7C292.5,275.9,288.6,259.8,275,250.4z"/><path fill="#D6E5E5" d="M414.7,234.2c-5.1-4.3-10.7,5.8-12.1,11.1c0.8,0.2,1.6,0.5,2.3,1.1c3.2,2.5,8.2,3.4,11.1-0.1C418.6,243.1,417.9,236.9,414.7,234.2z"/><path fill="#C56528" d="M306.7,189.9c-6.1-0.4-12.3,0.3-18.4,0.1c-18.2-0.5-35.9-0.4-54,1.9c-15.7,2-31.3,4.9-47.1,6.8c-6,0.7-13.8,1.3-20.5,3.7c10.8-0.1,21.6-0.4,32.4-1c14.6-0.8,29.2-2.5,43.8-3.4c13.7-0.9,27.4-1.6,41.2-2.5c9.7-0.7,19.6-1.4,29.4-2.5C312.4,191,310.3,190.1,306.7,189.9z"/><path fill="#BCBCBC" d="M354.3,160.8c-23.1-5.7-48.1-4.3-71.6-1.8c-15.5,1.6-31,2.7-46.5,3.1c-15.7,0.4-31.4-0.3-47.1,0.8c-15.1,1-30.5,4.9-44.6,10.3c-8,3.1-24,9.4-27.3,19.4c0,0.2,0,0.3,0,0.5c0,2.9,0,5.8,0,8.7c10,0.3,20,0.5,30.1,0.6c0.7-1.9,2-3,3.6-3.5c8.8-7.9,23.2-9.6,34.2-11c18.1-2.2,36-5.6,54.1-7.7c10.5-1.2,21-2,31.6-1.7c9.4,0.2,18.8,0.7,28.2,0.5c6.2-0.2,13-0.4,18.6,2.7c3.9,2.2,6.1,5.8,7.2,9.9c12.3-1.8,24.5-4.2,36.3-8c2.2-0.7,12.3-3.6,14.8-7.2c0-1,0-1.9,0.1-2.9C372.4,166.4,361.3,162.6,354.3,160.8z"/><path fill="#D6E5E5" d="M436.2,286c-1.2-0.3-2.1-0.9-2.7-1.6c-2.6,2.1-5.3,3.9-8.4,4.9c-7.4,2.5-16.3,2.9-24,1.4c0.8,23.5-2.7,48.7-26.5,59.6c-1,0.4-1.8,0.6-2.7,0.5c-1.9,2-3.9,3.9-6.1,5.6c-16.3,12.8-37.6,17.6-57.8,19.7c-20.4,2.1-40.9,1.5-61.3,1.5c-23,0-46,1.1-68.9-1.4c-20.3-2.2-41.2-7.3-57.5-20c-2.4,0.4-5-0.5-6.2-3.3c-4.3-9.6-6.3-20.1-7.3-30.8c-7.2,0.6-13.6,5.9-18.3,11.1c-4.9,5.5-9.7,12.1-9.5,19.9c0.4,15.9,14.2,25.3,29.3,25.5c7,0.1,7.9,11.1,0.8,11c-20-0.3-41.5-13.4-41.1-35.6c0.2-10.8,4.8-20.1,12.2-28c6.8-7.3,15.6-14.2,25.9-14.8c-0.2-6.3-0.1-12.6,0-18.8c-17,1.5-34.1,7.4-49.6,14.3c-15.4,6.8-35.5,16.8-42.5,33.3c-7.8,18.4,12.2,34.3,25.5,43.3c20.1,13.6,42.7,24.7,66.3,30.6c62,15.6,127.4,10.5,190.1,3.2c27-3.1,54.1-6.6,80.3-13.7c13.1-3.6,26.1-8,38.5-13.7c11.2-5.2,23.8-11.4,32.8-20C472.1,346.3,474.3,296.6,436.2,286z"/><path fill="#D6E5E5" d="M439.6,226.8c-4.7-9.5-19-13.7-28.7-14.1c-7.6-0.3-21,0.8-20.6,10.4c0.1,2.3-1,3.9-2.5,4.8c-2.7,3.8-9.9,3.2-9.9-2.5c-0.1-12.1-1.2-24.1-1.6-36.2c-0.3,0.2-0.7,0.3-1,0.5c-9.5,4.7-20.3,7-30.7,9.2c-7.2,1.5-14.5,2.7-21.8,3.8c-1.3,0.6-2.7,0.8-4.1,0.5c-6.4,0.8-12.7,1.5-19.1,2c-15,1.3-30.1,2.1-45.1,3c-15.6,0.9-31.1,2.6-46.6,3.6c-30.2,1.9-60.4,1.8-90.5,0.9c0,22.8,0.1,45.7,0,68.5c-0.1,20.2-1.7,42.5,4.9,62.1c0.2,0.2,0.5,0.4,0.7,0.6c0.9,0.9,1.9,1.8,2.9,2.6c17.7,14.5,42,18.3,64.2,19.7c21.9,1.4,43.8,0.2,65.7,0.4c21,0.2,42.3,0.5,63.1-3.1c18.9-3.3,39.5-10.1,50.5-26.9c2.2-3.3,6.3-3.2,8.8-1.4c13.5-11.9,12.8-34.3,11.7-51.2c-0.1-1.3,0.2-2.4,0.8-3.2c0.3-1.2,0.9-2.5,2.1-3.8c3.4-3.8,8.7-1.1,9.5,2.7c0.6,0.1,1.2,0.2,1.5,0.3c3,0.4,6.1,0.5,9.2,0.3c6.9-0.5,11.2-1.9,15.9-6.9c6.3-6.6,10.1-14.9,11.7-23.8C441.8,242.7,442.9,233.4,439.6,226.8z M296.4,305.5c-6.7,16.3-19.3,30.4-35.4,37.9c-16.4,7.6-39,9.1-54.6-1.2c-17-11.2-16.6-32.2-11.5-49.8c4.1-14.1,11.1-31.9,23.6-41.6c4.8-11,17.8-16.4,29.2-17.9c13-1.8,26,2.4,36.2,10.6C302.8,258.5,305.2,284.2,296.4,305.5z M422.8,255c-7.4,6.6-17.6,5.6-25.1-0.3c-0.7-0.6-1.2-1.2-1.5-1.8c-2.6,0-4.9-1.6-4.8-4.9c0.3-8.7,4.4-18,12.1-22.7c6.9-4.2,15.8-4.1,20.8,3.1C429.7,236.5,430.6,248.1,422.8,255z"/><path d="M470.4,300c-6.2-11.9-16.8-19.8-29.4-24c1.8-2.4,3.3-5,4.5-7.4c5.3-10.1,7.2-21.9,6.8-33.2c-0.7-18-14.2-28-30.6-32.2c-10.5-2.6-24.4-2.8-33.8,3.5c-0.6-9.4-1.3-18.8-1.2-28.3c0.8-2.2,0.9-4.5,0.2-7.2c0-0.8,0.1-1.5,0.1-2.3c0.3-3.7-2.6-6-5.5-6.4c-5.2-5.1-12.8-8.7-18.8-10.7c-21.3-7.3-46.1-6.9-68.2-5.2c-15.5,1.2-30.8,3.5-46.3,3.7c-15.5,0.3-31,0.6-46.4,0.9c-17.8,0.3-34.8,3-51.8,8.2c-15.1,4.6-32.9,11.5-41.4,25.7c-3,4.9-3.4,10.7-2.4,16.2c0,0.4,0,0.9,0,1.3c-1.8,1.8-1.7,5.2,0,7.4c0,23.6,0.1,47.3,0,70.9c-16.3,1.3-32.7,6.6-47.8,12.6c-17.3,6.9-35.4,16.2-47.6,30.7c-12.3,14.4-12,32.3-0.6,47.2c12.6,16.4,32.3,26.7,50.2,36.3c25.7,13.8,54.4,20.3,83.3,23.4c32.5,3.5,64.8,4.1,97.4,2c29.8-1.9,59.7-5.4,89.2-9.8c26.9-4,53.8-9.7,79.1-19.9c16.8-6.8,34.9-15.6,48-28.5c9.7-9.6,15.8-22.8,18.2-36.1C478.1,326.1,476.7,311.9,470.4,300z M144.5,173.2c14.1-5.4,29.5-9.3,44.6-10.3c15.7-1.1,31.4-0.4,47.1-0.8c15.6-0.4,31-1.5,46.5-3.1c23.5-2.5,48.4-3.9,71.6,1.8c7,1.7,18.1,5.5,21.7,12.6c0,1-0.1,1.9-0.1,2.9c-2.4,3.6-12.6,6.5-14.8,7.2c-11.8,3.7-24,6.2-36.3,8c-1.1-4.1-3.3-7.7-7.2-9.9c-5.6-3.1-12.4-2.8-18.6-2.7c-9.4,0.3-18.8-0.2-28.2-0.5c-10.6-0.3-21.1,0.6-31.6,1.7c-18.1,2-36,5.5-54.1,7.7c-11,1.4-25.5,3.1-34.2,11c-1.7,0.5-3,1.6-3.6,3.5c-10-0.1-20-0.3-30.1-0.6c0-2.9,0-5.8,0-8.7c0-0.2,0-0.4,0-0.5C120.6,182.6,136.5,176.3,144.5,173.2z M313.6,192.9c-9.8,1.1-19.6,1.8-29.4,2.5c-13.7,1-27.4,1.6-41.2,2.5c-14.6,1-29.2,2.6-43.8,3.4c-10.8,0.6-21.6,0.9-32.4,1c6.7-2.3,14.5-2.9,20.5-3.7c15.7-1.9,31.3-4.8,47.1-6.8c18.2-2.4,35.8-2.4,54-1.9c6.1,0.2,12.3-0.5,18.4-0.1C310.3,190.1,312.4,191,313.6,192.9z M117.3,281.3c0.1-22.8,0.1-45.7,0-68.5c30.2,0.9,60.4,1,90.5-0.9c15.6-1,31.1-2.7,46.6-3.6c15.1-0.9,30.1-1.7,45.1-3c6.4-0.5,12.8-1.2,19.1-2c1.3,0.3,2.8,0.1,4.1-0.5c7.3-1,14.6-2.2,21.8-3.8c10.3-2.2,21.2-4.4,30.7-9.2c0.3-0.2,0.7-0.3,1-0.5c0.5,12.1,1.6,24.1,1.6,36.2c0,5.7,7.2,6.3,9.9,2.5c1.5-0.9,2.6-2.6,2.5-4.8c-0.3-9.6,13.1-10.7,20.6-10.4c9.8,0.4,24,4.6,28.7,14.1c3.3,6.6,2.1,15.8,0.9,22.8c-1.6,8.9-5.4,17.3-11.7,23.8c-4.8,5-9,6.4-15.9,6.9c-3.1,0.2-6.1,0.1-9.2-0.3c-0.4-0.1-1-0.2-1.5-0.3c-0.8-3.8-6.1-6.6-9.5-2.7c-1.2,1.3-1.8,2.6-2.1,3.8c-0.5,0.9-0.8,2-0.8,3.2c1.1,16.9,1.9,39.3-11.7,51.2c-2.5-1.8-6.6-1.9-8.8,1.4c-11,16.8-31.7,23.7-50.5,26.9c-20.8,3.6-42.1,3.3-63.1,3.1c-21.9-0.2-43.8,0.9-65.7-0.4c-22.2-1.4-46.5-5.2-64.2-19.7c-1-0.8-1.9-1.7-2.9-2.6c-0.2-0.2-0.5-0.4-0.7-0.6C115.6,323.8,117.1,301.5,117.3,281.3z M447.7,369.5c-9,8.6-21.6,14.8-32.8,20c-12.4,5.8-25.4,10.1-38.5,13.7c-26.2,7.2-53.3,10.6-80.3,13.7c-62.7,7.3-128.2,12.3-190.1-3.2c-23.6-5.9-46.2-17-66.3-30.6c-13.3-9-33.3-24.9-25.5-43.3c7-16.5,27.2-26.5,42.5-33.3c15.4-6.8,32.6-12.7,49.6-14.3c-0.1,6.2-0.1,12.5,0,18.8c-10.3,0.6-19.2,7.6-25.9,14.8c-7.4,7.9-12,17.1-12.2,28c-0.4,22.3,21.1,35.3,41.1,35.6c7.1,0.1,6.2-10.9-0.8-11c-15-0.2-28.9-9.6-29.3-25.5c-0.2-7.7,4.6-14.3,9.5-19.9c4.6-5.2,11.1-10.5,18.3-11.1c0.9,10.7,3,21.1,7.3,30.8c1.2,2.8,3.9,3.7,6.2,3.3c16.3,12.7,37.2,17.7,57.5,20c22.9,2.5,45.9,1.4,68.9,1.4c20.5,0,40.9,0.7,61.3-1.5c20.2-2.1,41.5-6.9,57.8-19.7c2.2-1.7,4.2-3.6,6.1-5.6c0.8,0.1,1.7-0.1,2.7-0.5c23.8-10.9,27.3-36.1,26.5-59.6c7.7,1.5,16.6,1.1,24-1.4c3-1,5.8-2.8,8.4-4.9c0.7,0.7,1.6,1.3,2.7,1.6C474.3,296.6,472.1,346.3,447.7,369.5z"/><path d="M424.2 228.4c-4.9-7.3-13.8-7.3-20.8-3.1-7.7 4.7-11.8 14-12.1 22.7-.1 3.3 2.3 4.9 4.8 4.9.3.6.8 1.3 1.5 1.8 7.5 5.9 17.7 6.9 25.1.3C430.6 248.1 429.7 236.5 424.2 228.4zM416 246.3c-2.9 3.6-7.9 2.6-11.1.1-.8-.6-1.6-1-2.3-1.1 1.4-5.3 7-15.5 12.1-11.1C417.9 236.9 418.6 243.1 416 246.3zM283.9 243.4c-10.2-8.2-23.2-12.4-36.2-10.6-11.4 1.6-24.4 6.9-29.2 17.9-12.5 9.7-19.5 27.4-23.6 41.6-5.1 17.6-5.4 38.6 11.5 49.8 15.6 10.3 38.2 8.8 54.6 1.2 16.1-7.4 28.7-21.5 35.4-37.9C305.2 284.2 302.8 258.5 283.9 243.4zM289.3 291.5c-3.3 16.5-14.3 31.1-28.6 39.7-13.3 8-34.5 10.8-48.2 1.8 15.7-4.2 30.8-13.1 36.4-29.1 4.1-11.7 4.3-27.6 19.2-29.9 7-1.1 6.2-12.1-.8-11-7.2 1.1-13.6 3.7-18.3 9.5-4.4 5.4-6.1 12.4-7.8 19-2 7.4-3.8 13.9-9.3 19.4-6.8 6.9-16.7 10.2-25.9 12.4-.5.1-1 .3-1.4.5-4.1-9.6-1-22.3 1.8-31.8 3.1-10.4 8.8-24.4 18.1-32 1.1-.3 2.1-1 2.8-2 1.5-.9 3.1-1.7 4.8-2.3 3.7-1.2 4.3-4.9 2.9-7.6 4.6-2.6 10.5-3.9 14.7-4.5 9-1.2 17.8 1.7 25.2 6.8C288.6 259.8 292.5 275.9 289.3 291.5zM222.7 83.3c-4.4-7.3-12.3-12.3-15.8-20.1-3.2-7.2 1.4-20.1 8.7-23.4 6.4-2.9 2.8-13.3-3.6-10.4-9.6 4.4-16.5 16-17.2 26.5-.7 10.9 5.9 18.7 12.9 26.3 3.2 3.5 6.2 7.1 8 11.6 1.7 4.5-1.2 10.1-3.2 14-3.9 8-10.9 16.9-6.3 25.9 3.2 6.3 12.3.1 9.1-6.2.5 1 .4-.9.6-1.9.4-1.5 1.3-3 1.9-4.3 2-4.1 4.3-8 6.1-12.1C228 100.1 228 91.9 222.7 83.3zM270.6 81.9c-2.8-7.6-6.4-14.9-9.3-22.5-1.1-2.7-2.2-5.7-2.7-8.4 0-.3-.1-.5-.1-.8 5.1-1.7 6.1-10.1-.1-10.5-21.1-1.4-5 29.3-1.4 37.9 1.7 3.9 3.3 7.9 4.6 11.9 1.2 4 1.4 4.8-.5 8.3-5.2 9.7-18.2 19.1-11.9 31.6 3.1 6.2 13.6 2.7 10.4-3.6-2.1-4.3.5-7.8 3.1-11.3 3.1-4.2 6.4-8.1 8.9-12.7C275 95.1 273 88.4 270.6 81.9zM313 94.2c-1.7-7.4-4.6-14.6-7.3-21.6-1.2-3-2.3-6-3.3-9-.2-.6-.8-2.7-.7-2.6 0-.2-.1-.4-.1-.5 2.4-6-7-10.3-10.1-4.3-2.2 4.1 0 9.5 1.4 13.5 2.4 6.9 5.3 13.7 7.6 20.6 1.9 5.6 4.2 12.4 2.5 18.3-3.1 10.6-12 19.2-17.5 28.6-3.6 6.1 6.3 11 9.9 4.9 5.4-9.2 12.8-17.2 17-27C315.1 108 314.6 101.4 313 94.2z"/></svg>