<svg xmlns="http://www.w3.org/2000/svg"  viewBox="0 0 512 512" width="64px" height="64px"><path fill="#FEBF10" d="M383.3,272.4c-6-0.4-11-2-16.8-3.6c-5.2-1.5-11.1-3.3-16.6-2.8c-1.1,0.1-1.5,0.1-2.4,0.5c0.1-0.1-0.1,0.2-0.2,0.2c0,0.3-0.1,1,0,1.5c0.2,1.5,0.8,2.9,1.4,4.3c3.2,8.6,23,7.3,30.8,6.7c9.2-0.7,21-1.8,29.9-6.3C400.7,272.8,392,273,383.3,272.4z"/><path fill="#D6E5E5" d="M445.5,167.6c-4.1-3-10.1-3.8-14.9-4.5c-6.9-1-13.9-1.8-20.9-2.3c-13.9-1-27.9-1-41.9-1c-8.5,0-17.7,1.4-26.1,2.9c-5.9,1-13.6,2.6-18.5,6.7c24.6,2.3,48.7,8.7,73.4,9.7c12.5,0.5,25.9,0.3,37.8-4.1c3.8-1.4,7.7-3,10.7-5.7c0.3-0.3,0.6-0.8,0.8-1.1C445.9,168,445.7,167.8,445.5,167.6z"/><path fill="#127274" d="M208.1 59.6c-.8 1.3-2.1 2.3-4.2 2.3-14 .1-28 1.9-42 2-1 0-1.9-.2-2.7-.6-2.5 8-4.2 16.2-4.3 24.7 0 .3 0 .6-.1.9 17.9-.5 35.7-3.2 53.6-2.3.4-1.4 1.5-2.6 3.2-3.4C221.4 79.1 214.6 65.6 208.1 59.6zM287.5 432.7c-.7-17.7-1.4-35.3-1.4-53.1.2-51.7-1.2-107-36.3-148.6-8-9.5-17-17.5-22.8-28.7-5.6-10.6-9.3-21.8-11.8-33.5-4.9-23.4-5.1-47.4-5.1-71.2-16.3-1.3-32.8 1.2-49.1 2-1.9 21.8 4.7 43.3 4 65.2-.8 25.6-8 49.2-25 68.7-17.4 20-30.2 43.1-36.4 69-6.1 25.9-6.5 52.6-3.4 78.9 3.4 28 4.5 56.1 6.2 84.2 1.5.7 2.7 2.1 2.6 4.4 0 1 0 1.9-.1 2.8 11.5 3.1 23.3 5.6 35.1 6.9 8.8 1 17.5 1 26.3 1.4 12.8.6 25.6 1.5 38.4 1.9 15.4.5 30.9.9 46.3-.6 5.7-.6 11.5-1.3 17-3.2 2.2-.8 3.2-1.1 5-2.4.2-.1.6-.3 1.2-1.3-.4.6-.1-.2-.1-.1.9-3.9 4.8-4.9 7.7-3.8 1-4 1.3-8.1 1.6-12.1C288.1 450.5 287.8 441.6 287.5 432.7zM257.9 448.8c-14 4.2-28.9 5.8-43.4 6.6-16.4 1-33 1-49.4-.6-9.8-1-23.5-1.8-30.6-9.7-13.5-14.9-12.1-38.8-11.3-57.6 1.1-26.9 1.4-54-1.2-80.8-.2-2.4.9-4.1 2.5-5 .6-1.6 2.1-2.9 4.5-2.9 11.6 0 23.2 0 34.7.5 11 .5 22 2 33 2 21.3.1 42.5-2.1 63.7-.5 2.4.2 4.3 2.7 4.4 5 2.1 41.4 9.9 82.4 10 124 0 .5 0 .9-.1 1.3C277 441.3 265.9 446.4 257.9 448.8z"/><path fill="#74CCCF" d="M264.1,432c-0.1-0.4-0.1-0.8-0.1-1.2c-0.1-40-7.3-79.4-9.7-119.3c-19.4-1-38.9,1.3-58.4,0.9c-11.1-0.2-22.1-1.7-33.2-2.1c-9.8-0.4-19.6-0.4-29.4-0.4c1.8,20.1,2.3,40.7,1.6,60.8c-0.5,14.8-1.9,29.7-0.3,44.5c0.9,8,2.4,17.7,8.8,23.3c0.2,0.1,0.7,0.5,0.8,0.6c0.2,0.1,0.4,0.2,0.5,0.3c0.8,0.4,1.7,0.8,2.6,1.1c0.7,0.3,4.1,1.2,6.1,1.6c14.3,2.9,29.3,3.3,43.9,3.1c16-0.3,32.3-1.2,48-4.4c5.3-1.1,10.9-2.4,15.8-4.9c0.7-0.4,2.6-1.7,3.1-2.2C264.1,433,264.1,432.5,264.1,432z"/><path fill="#FEBF10" d="M401.9,286.7c-8.5,2.1-17.2,3.5-25.9,3.7c-8.6,0.3-19.5,0-27.7-4c1.5,5.8,2.5,11.7,3.7,17.5c2,10.3,4,21.9,10.9,30.3c7.4,8.9,16.4,13.2,25.2,4.5c10-9.8,15.8-23.8,20.6-36.8c2.3-6.4,4.4-12.9,6.2-19.5C410.7,284.4,406.1,285.7,401.9,286.7z"/><path fill="#D6E5E5" d="M448.1,180.7c-1.7,1.1-3.6,2-5.2,2.7c-12.5,5.6-26.4,7.1-39.9,6.9c-29.2-0.5-57.5-8.4-86.6-10.4c-1.8,19,1.1,38.4,4,57.1c3.2,20.4,6.3,40.9,11.2,60.9c2,7.9,4,16,7.2,23.2c2.7,5.9,6.1,11.4,9.4,16.9c3.2,5.2,6.5,10.3,9.5,15.5c0.6,1,1.3,2.3,2,3.6c1.9,0.1,3.8,1.1,4.9,3.3c11.8,24.3,10.2,52.1,8.9,78.8c1.6,2.3,1.6,5.7-0.3,7.4c-0.2,4.4-0.3,8.8-0.3,13.1c0,7.1-11,7.9-11,0.8c0-4.1,0.1-8.3,0.3-12.5c-12.7,2-25.5,10.2-33.3,19.7c-3.3,3.9-6.9,9.5-4.9,13.8c2.7,5.6,14,6.9,19.6,7.3c11.3,0.9,22.9,0.7,34.2-1c10.2-1.5,21.3-3.9,29.8-10.1c7.1-5.2,12.5-14.4,8.3-23.1c-3.6-7.3-11.7-9.6-19.2-9.2c0.1,3.4,0.2,6.9,0.2,10.3c0,7.1-10.9,7.9-11,0.8c-0.1-30.2-7.1-64.5,6.6-92.9c0.9-1.8,2.3-2.7,3.8-2.9c18.7-23.3,34.6-48.5,42.7-77.7c4.9-17.7,8-36,8.8-54.3C448.6,212.9,448.3,196.8,448.1,180.7z M428.9,269.4c-0.1,0.3-0.1,0.7-0.2,1c-2.5,14-6.8,27.9-12,41.1c-5.4,13.6-12.5,29.5-24.9,38.3c-13.1,9.3-27,3.5-36.7-7.7c-16.2-18.8-12.5-46.4-22.8-67.9c-1.8-3.7,0.9-6.4,4.2-6.9c0-4.6,1.9-8.8,6.9-11c6-2.6,13.4-1.2,19.5,0.2c5.8,1.3,11.5,4,17.4,4.6c14.7,1.6,29.6,0.1,44.3,1.8C427.6,263.3,429.4,266.6,428.9,269.4z"/><path fill="#FEBF10" d="M199.4,28.8c-8.7-3-19.5-0.4-27.4,3.3c-3.2,1.5-2.6,2.2-3.4,5.6c-1.2,5-3.4,9.6-5.3,14.4c-0.1,0.3-0.2,0.5-0.3,0.8c13.1-0.2,26-1.8,39.1-1.9c0.1-0.3,0.2-0.7,0.4-1C207.1,42.4,209.9,32.4,199.4,28.8z"/><path fill="#010101" d="M298.1 425c-1.1-23.4-.8-46.7-1.2-70.1-.4-25.7-2.4-51.6-9.7-76.4-3.6-12.3-8.8-24.1-15.3-35.1-6.8-11.7-15.7-21.4-24.8-31.2-13.7-14.6-19.8-35.1-22.9-54.4-3.4-21.1-3.3-42.6-3.3-63.9 0-1.3-.4-2.3-.9-3.1 13-9.7 6.4-30.3-5.4-40.2 4.4-9.6 4.9-20.8-4.1-28.2-9.7-8-26.4-6.7-37.6-2.9-4.5 1.5-10.1 4.2-12.8 8.4-2.4 3.9-2.4 9.2-4.2 13.4-6.6 15.3-11.7 30.6-11.9 47.4 0 2.1.9 3.5 2.2 4.2-.4 2.6.9 5.6 3.7 6.5-.9 14.1 1.1 28 2.7 41.9 1.6 13.6 1.9 27.2-.3 40.7-1.9 12.1-6.4 23.4-13 33.7-3.5 5.5-8 10.3-12.2 15.4-4.5 5.3-8.5 11-12.3 16.8-14.1 21.5-22.4 46.5-25.9 72-1.8 13-2.1 26.2-1.7 39.3.5 14.4 2.7 28.7 4.2 43 2.5 24.7 2.8 49.6 4.4 74.4.2 2.4 1.7 4 3.6 4.7.3.1.5.2.8.3 13.6 4 27.4 7 41.5 8.7 9.7 1.2 19.5 1.1 29.3 1.6 13.9.6 27.7 1.6 41.6 2.1 16.1.5 32.5.8 48.5-1.4 6.7-.9 15.9-2.3 21.9-6.8 2.4 2.3 7 2.7 9.2-1 4.5-7.6 5.5-17.2 6-25.8C299.1 447.7 298.7 436.3 298.1 425zM163.4 52c1.9-4.7 4.1-9.3 5.3-14.4.8-3.5.2-4.1 3.4-5.6 7.9-3.7 18.7-6.3 27.4-3.3 10.5 3.6 7.6 13.6 3.1 21.1-.2.3-.3.6-.4 1-13.1.2-26 1.7-39.1 1.9C163.2 52.6 163.3 52.3 163.4 52zM155 87.9c.1-8.5 1.8-16.7 4.3-24.7.8.4 1.6.6 2.7.6 14-.1 28-1.9 42-2 2.1 0 3.4-.9 4.2-2.3 6.5 6.1 13.3 19.5 3.6 23.6-1.7.7-2.7 2-3.2 3.4-17.9-.9-35.7 1.8-53.6 2.3C155 88.5 155 88.2 155 87.9zM287.4 459.4c-.3 4-.7 8.1-1.6 12.1-2.9-1.2-6.8-.1-7.7 3.8 0-.2-.3.6.1.1-.7 1-1.1 1.2-1.2 1.3-1.8 1.4-2.8 1.7-5 2.4-5.4 1.9-11.3 2.6-17 3.2-15.3 1.5-30.9 1.2-46.3.6-12.8-.5-25.6-1.4-38.4-1.9-8.8-.4-17.5-.4-26.3-1.4-11.9-1.3-23.6-3.7-35.1-6.9.1-.9.1-1.8.1-2.8 0-2.3-1.1-3.7-2.6-4.4-1.7-28.1-2.8-56.2-6.2-84.2-3.2-26.3-2.8-53 3.4-78.9 6.1-25.9 18.9-49 36.4-69 17-19.5 24.3-43.2 25-68.7.7-21.8-5.9-43.4-4-65.2 16.4-.8 32.8-3.3 49.1-2 0 23.8.2 47.8 5.1 71.2 2.5 11.7 6.2 22.9 11.8 33.5 5.9 11.2 14.8 19.2 22.8 28.7 35.2 41.6 36.5 96.8 36.3 148.6-.1 17.8.6 35.4 1.4 53.1C287.8 441.6 288.1 450.5 287.4 459.4zM401.6 372c20.7-25.2 37.9-52.2 47.4-83.6 11.9-39.4 10-79.8 10-120.4 0-2.3-1.2-3.7-2.7-4.4-3.8-8.4-18-10.3-25.5-11.4-15.4-2.3-31-2.9-46.6-3.1-12.1-.2-23.7.3-35.7 1.7-10.2 1.2-20.7 3.1-29.5 8.5-3.5 2.2-6.3 5.2-8.4 8.7-.2.4-.4.8-.6 1.2-1.9.3-3.6 1.7-3.9 4.2-2.7 19.8-.3 39.8 2.6 59.4 3 20.2 6.5 40.3 10.7 60.3 3.2 15.2 7.4 29.7 15.1 43.2 3.3 5.9 7 11.6 10.5 17.3 1.4 2.3 2.8 4.5 4 6.8.5.8.5 1 .7 1.4-.6 3.3 2.7 5.8 6 5.7 9.2 21.6 8.2 45.9 7 69.6-14.3 1.5-28.2 10.1-38.3 19.6-9.7 9.1-18.2 25.4-5.3 35.8 7.5 6.1 18.3 7.2 27.6 7.7 11.6.6 23.3.2 34.8-1.6 19.7-3.1 45.7-12.6 46.8-36.2.8-18-15.8-28.5-32.1-27.8-.4-7.8-.8-15.7-.8-23.6-.1-12.7.5-26.1 5.2-38.1C401 372.7 401.3 372.3 401.6 372zM341.8 162.7c8.4-1.5 17.6-2.9 26.1-2.9 14 0 27.9 0 41.9 1 7 .5 13.9 1.3 20.9 2.3 4.9.7 10.8 1.5 14.9 4.5.2.2.4.3.5.5-.2.3-.5.9-.8 1.1-3.1 2.7-7 4.3-10.7 5.7-11.9 4.5-25.3 4.6-37.8 4.1-24.7-1-48.8-7.3-73.4-9.7C328.2 165.3 335.9 163.8 341.8 162.7zM392.6 363.9c-13.7 28.4-6.7 62.6-6.6 92.9 0 7.1 11 6.2 11-.8 0-3.4-.1-6.9-.2-10.3 7.6-.4 15.7 1.9 19.2 9.2 4.2 8.7-1.2 17.9-8.3 23.1-8.5 6.2-19.6 8.7-29.8 10.1-11.3 1.6-22.8 1.9-34.2 1-5.6-.4-16.9-1.7-19.6-7.3-2.1-4.3 1.6-9.8 4.9-13.8 7.9-9.4 20.6-17.6 33.3-19.7-.2 4.2-.3 8.4-.3 12.5 0 7.1 10.9 6.2 11-.8 0-4.3.1-8.7.3-13.1 1.9-1.7 1.9-5.1.3-7.4 1.2-26.8 2.9-54.6-8.9-78.8-1-2.1-2.9-3.1-4.9-3.3-.7-1.3-1.4-2.6-2-3.6-3-5.3-6.3-10.4-9.5-15.5-3.4-5.5-6.8-11.1-9.4-16.9-3.3-7.2-5.3-15.3-7.2-23.2-5-20-8-40.5-11.2-60.9-2.9-18.7-5.8-38.1-4-57.1 29 2 57.3 9.9 86.6 10.4 13.6.2 27.5-1.2 39.9-6.9 1.7-.8 3.5-1.7 5.2-2.7.2 16.1.5 32.2-.2 48.3-.8 18.4-3.9 36.6-8.8 54.3-8.1 29.1-24 54.3-42.7 77.7C394.9 361.2 393.5 362.1 392.6 363.9z"/><path fill="#010101" d="M424.6 262.9c-14.7-1.7-29.6-.2-44.3-1.8-5.9-.6-11.7-3.3-17.4-4.6-6.1-1.4-13.5-2.8-19.5-.2-5 2.1-6.9 6.4-6.9 11-3.2.4-5.9 3.2-4.2 6.9 10.4 21.5 6.7 49.2 22.8 67.9 9.7 11.2 23.6 17 36.7 7.7 12.4-8.8 19.4-24.7 24.9-38.3 5.2-13.2 9.5-27.1 12-41.1.1-.3.1-.7.2-1C429.4 266.6 427.6 263.3 424.6 262.9zM347.4 266.7c.1 0 .3-.2.2-.2 1-.4 1.4-.4 2.4-.5 5.5-.5 11.4 1.4 16.6 2.8 5.7 1.6 10.8 3.2 16.8 3.6 8.7.6 17.4.3 26.1.5-8.9 4.5-20.7 5.6-29.9 6.3-7.7.6-27.6 1.9-30.8-6.7-.5-1.4-1.1-2.8-1.4-4.3C347.3 267.6 347.3 267 347.4 266.7zM408.6 301.9c-4.7 13-10.5 26.9-20.6 36.8-8.8 8.7-17.9 4.4-25.2-4.5-6.9-8.3-8.8-20-10.9-30.3-1.1-5.8-2.2-11.7-3.7-17.5 8.2 4.1 19.1 4.3 27.7 4 8.7-.3 17.4-1.7 25.9-3.7 4.2-1 8.8-2.3 12.9-4.3C413 289 410.9 295.5 408.6 301.9zM274.9 431.2c.1-.4.1-.8.1-1.3-.1-41.6-7.9-82.6-10-124-.1-2.2-2.1-4.8-4.4-5-21.2-1.6-42.5.6-63.7.5-11 0-22-1.5-33-2-11.6-.6-23.1-.5-34.7-.5-2.4 0-3.9 1.2-4.5 2.9-1.6.9-2.8 2.6-2.5 5 2.6 26.9 2.3 53.9 1.2 80.8-.8 18.7-2.2 42.6 11.3 57.6 7.1 7.9 20.8 8.7 30.6 9.7 16.4 1.6 33 1.6 49.4.6 14.5-.9 29.4-2.4 43.4-6.6C265.9 446.4 277 441.3 274.9 431.2zM261.1 435.8c-4.9 2.4-10.4 3.8-15.8 4.9-15.7 3.2-32 4.2-48 4.4-14.6.2-29.5-.1-43.9-3.1-2-.4-5.4-1.3-6.1-1.6-.9-.3-1.8-.7-2.6-1.1-.2-.1-.4-.2-.5-.3-.1-.1-.6-.4-.8-.6-6.4-5.6-7.9-15.3-8.8-23.3-1.6-14.8-.2-29.7.3-44.5.7-20.2.2-40.7-1.6-60.8 9.8 0 19.6.1 29.4.4 11.1.4 22.1 1.9 33.2 2.1 19.4.4 38.9-1.9 58.4-.9 2.4 39.8 9.6 79.3 9.7 119.3 0 .4 0 .8.1 1.2-.1.5-.1 1 0 1.6C263.7 434.1 261.8 435.4 261.1 435.8z"/></svg>