<svg xmlns="http://www.w3.org/2000/svg"  viewBox="0 0 512 512" width="64px" height="64px"><path fill="#14B6B9" d="M370 149.6c-10.9-18-24.9-33.4-40.4-47.1-8.7 2.5-17.6 4.4-26.5 5.8 7.9 22.5 11.2 46.8 13.5 70.5.2 1.6.3 3.2.4 4.8 14.3-1.6 28.6-3.8 42.7-6.6 7.2-1.4 14.3-3.1 21.2-5.1C378 164.1 374.3 156.7 370 149.6zM305 179.6c-2.3-23.4-5.2-47.7-13.7-69.8-14.7 1.7-29.6 2.6-44.4 2.1-4.7 15.6-7.8 31.6-10.2 47.7-1.3 9-2.7 18-4.1 27 8.8.4 17.6.5 26.3.5 15.5-.1 31-.9 46.5-2.3C305.4 183 305.2 181.3 305 179.6zM146.3 184.4c-5.5 14.4-9.1 29.5-11.5 45.1-1.2 8.2-1.6 16.5-1.8 24.7-.1 4.5-.1 8.9.2 13.4.1 1.4.2 2.8.4 4.2 0 0 0 .1 0 .2.2.2.3.3.5.5 12.5 5.9 25.5 10.9 38.5 15 12.9 4.1 26.2 7.6 39.7 9.3.2-23.6 1.3-47.2 3.5-70.7.9-9.7 2.1-19.3 3.4-28.8C194.6 195.4 170 191.5 146.3 184.4zM226.2 110.4c-10.5-1.3-21.5-2.5-32.2-5-11.5 15.7-22 32.4-32.5 48.7-4.1 6.4-7.6 12.9-10.7 19.6 22.7 6.7 46.4 10.4 70.2 12.1 1.6-10.8 3.3-21.5 5-32.3 2.2-14.2 5-28.4 9.1-42.3C232.1 111.1 229.1 110.8 226.2 110.4zM284.2 68.4c5.1 9.5 10.2 19 14.5 28.8 6.7-1 13.4-2.3 20-3.8C307.7 84.5 296 76.2 284.2 68.4zM353.3 76.2c-17.8-7.6-36.5-13.1-55-17-3.3-.7-6.6-1.3-9.9-1.9 15.2 10 30.2 20.5 44 32.2 6.6-2.2 13.1-4.9 19.3-8.1C351.4 79.5 352 77.5 353.3 76.2zM382.4 313.6c-6.8 1.6-12 3-19 3.3-9 .4-18 0-27-.3-5.1-.2-10.3-.4-15.5-.5 0 4.5-.1 9-.1 13.5 2.4 1.5 4.8 3 7.2 4.3 10 5.6 20.8 11.1 32.3 12.5 6.6.8 5.5 9.9 0 11.3.3 1.9-.3 4-2.1 5.5-9.1 7.8-18.4 15.5-27.8 23-2.4 1.9-4.9 3.9-7.4 6 1.9.1 3.7.2 5.5.3 9.7.4 19.1-.3 28.5-1.9 16.1-20.7 30.4-43.7 35-69.4.6-3.4 1.1-6.9 1.5-10.4C389.9 311.7 386.2 312.7 382.4 313.6zM333.7 404.1c-5.3-.2-10.6-.5-16-.4-.5 0-1 0-1.5 0-1.7 15.6-9.2 31-19 44.2 5.3-3.1 10.4-6.8 15-10.4 11.5-9.1 22-19.5 31.5-30.7.9-1 1.7-2 2.6-3C342.2 404.1 338 404.3 333.7 404.1zM429.9 131.7c-16.8-21-38.7-37.1-62.7-49.1 0 1.8-1 3.7-2.5 4.7-7.1 4.4-14.6 7.9-22.4 10.9 2.2 2 4.3 4.1 6.4 6.2 18.4 18.4 33.6 39.7 43.3 63.7 12-4.5 23.3-10.6 33.3-19-.8-2.2-.3-4.6 2.4-6.1 2.7-1.6 4.8-3.3 7.4-4.3C433.4 136.3 431.7 134 429.9 131.7zM307.7 316.1c-1.6.1-3.3.1-4.9.2 2.1 1.8 4.3 3.5 6.5 5.2 0-1.8 0-3.7 0-5.5C308.8 316.1 308.3 316.1 307.7 316.1zM265.6 57.7c-1.8 4.3-2.8 9.4-3.7 12.9-.9 3.3-1.2 7.3-2.7 10.3-2.4 4.9-4.7 9.9-6.7 15.1-.6 1.5-1.2 3.1-1.7 4.6 4.6 0 9.2-.2 13.7-.3 7.4-.3 14.9-.7 22.2-1.5C280.3 84.7 272.5 71.4 265.6 57.7zM393.8 224.2c-1.7-14-4.5-27.9-8.8-41.3-4.2 1.2-8.5 2.3-12.9 3.3-17.8 3.8-35.9 6.8-54 8.9 1.7 19.8 3 39.7 3.2 59.6.2 16.6-.1 33.3-.3 49.9 1.6 0 3.2.1 4.8.1 15.7.5 33.4 2 47.7-.9 7-1.4 14.1-3.2 21-5.3.5-8.5.6-17.1.8-25.5C395.9 256.7 395.8 240.3 393.8 224.2zM309.7 253.6c-.3-19.1-1.5-38.2-3.1-57.3-11.5 1.1-23 1.8-34.5 2.1-13.6.4-27.3.3-41-.4-1.5 10.7-2.9 21.5-3.9 32.3-2 22.4-3 44.9-3.1 67.4 4.9.2 9.8.2 14.7.2 0 0 .1 0 .1 0h1v-27.5c0-2 .9-3.6 2.1-4.6 0-5.9 9.2-8.5 11.2-2 3.1 10 12.1 18.4 19.4 25.4 6.2 6 12.9 11.4 19.3 17.1 2.8-.9 5.8-1.2 8.5-1.4 3-.2 6.1-.4 9.1-.4C309.7 287.5 310 270.5 309.7 253.6zM437.1 294.4c-10.2 4.9-20.7 9.1-31.5 12.7-.5 6.7-1.3 13.3-2.8 19.7-3.3 14.4-9.1 28.2-16.5 41-3.7 6.4-7.6 12.6-11.9 18.7 24.9-6.7 48.4-16.5 70.1-30.8.3-.2.7-.4 1-.5 10.1-23.7 16-49.3 18.3-74.9.1-1.1.2-2.3.3-3.4C456.6 284.7 445.5 290.3 437.1 294.4zM225.9 440.2c-6.4-9.3-13.3-22.8-11.8-34.7-18.4-.9-36.9-2.8-55-6.3 8.9 12 19.9 22.6 31.7 31.8 14.3 11.1 30.5 20.9 48.3 24.7C234.2 451.1 229.7 445.8 225.9 440.2zM248.7 463.4c-.9-.6-1.8-1.3-2.7-1.9-.4-.3-.8-.6-1.2-.9.1.8.1 1.7-.1 2.5C246 463.2 247.3 463.3 248.7 463.4zM372.8 398.9c-3 .7-5.9 1.4-8.9 2-8.1 10.4-17 20.3-26.3 29.4-12.2 12-26.8 25-43.3 32 37.7-4.3 74.2-17.8 103.5-42.6 15.5-13.1 28.2-28.2 38.2-45.5C416.2 385.5 394.9 393.6 372.8 398.9zM299.3 409.6c-8.2 4.7-17.3 7.6-25.9 11.5-4.2 1.9-8.6 4-12.1 7.1-2.3 2-3.5 4.2-5.8 5.5v.2c0 7.4-11.4 8.4-11.6.9-.2-9.5-2.9-19.1-1.3-28.4-5.7 0-11.3-.1-17-.3-2.4 9.8 6 22.8 11.1 29.7 5.9 7.9 17.7 22.1 28.2 22.4.7-4.3 6.8-5.2 9.9-2.2.1 0 .1 0 .2 0 6.8-7 12.9-14.8 17.9-23.1 4.8-8 9.4-16.9 11.2-26.2C302.6 407.6 301 408.6 299.3 409.6zM459.2 199.2c-3.8-17.1-9.2-34.2-17.6-49.6-12.9 13.5-28.5 23.1-45.6 29.6.9 2.9 1.8 5.9 2.6 8.9 7.9 30.1 9.3 61 8 92-.2 4.8-.3 9.8-.5 14.7 6.5-2.3 12.9-4.8 19.1-7.6 8.8-3.9 17.7-8.3 25.3-14.2 4.8-3.8 9.7-8.4 10.4-14.6.3-2.7 2-4.1 3.9-4.5C464.9 235.5 463.2 217.1 459.2 199.2zM247.9 58.5C229 64.6 214.2 79.6 202 95c10.5 2.1 21.2 3.4 31.8 4.7 1.6.2 3.1.3 4.7.4 1.7-4.9 3.5-9.7 5.6-14.4 2-4.6 4.2-8.8 5.4-13.7 1-3.9 2-7.8 3.2-11.6.4-1.1.7-2.2 1.1-3.3C251.9 57.4 249.9 57.9 247.9 58.5zM170.5 97.3c-7.5-3.8-14.8-9.2-16.3-18-.6-3.6-.4-7.2.4-10.8-2.2.9-4.4 1.8-6.6 2.7-22.9 9.8-46.6 23.8-65.4 41.9-4.1 28.7 26 45.2 48.6 54 2.7 1.1 5.4 2.1 8.2 3 2.4-5.2 5-10.3 8-15.2 5.9-9.8 12.6-19.1 18.8-28.7 5.1-8.1 10.3-16.2 15.9-24.1C178.2 100.8 174.3 99.2 170.5 97.3zM224.6 52.6c-17.3.7-34.8 4.2-51.6 9.4 0 0 0 0 0 0-6.5 3.6-10.9 14.4-4.4 20.1 5.3 4.7 12.3 7.4 19 9.3.7.2 1.3.4 2 .5 5.3-6.9 10.9-13.5 17.1-19.6 7.7-7.6 16.4-14.9 26.1-20C230 52.4 227.3 52.5 224.6 52.6zM184.5 440.7c-15.6-12.1-30.1-26.4-40.6-43.2-.4-.6-.6-1.2-.8-1.7C119 389.8 95.8 381 74 369.1c10.1 13.6 21.6 26.2 34.2 37.2 29.1 25.6 65.1 42.9 102.9 51.5C201.7 453 192.7 447.1 184.5 440.7z"/><path fill="#FEBF10" d="M321.5,343.5c-6.5-3.8-12.8-7.9-18.8-12.4c-4.7-3.5-8.9-7.6-13.3-11.4c-2.7-0.2-5.2-2.1-5.6-4.7c-7.6-6.4-15.1-13-22.1-20.1c-3.5-3.5-7.1-7.3-10.4-11.3v19.7c0,4-3.4,6.1-6.5,6c-0.5,0.1-0.9,0.2-1.5,0.2c-11.6,0-23.5,0.4-35-1.5c-14.6-2.4-28.9-5.9-42.9-10.7c-20.8-7.1-41.7-15.7-60.5-27C87.1,259.5,70,246.8,56.4,231c-6.8-7.9-12.7-16.9-16.1-26.6c-6.5,20.9-8.6,43.2-6.4,65c2.8,27.8,12.3,54.6,26.3,78.8c0.8,0.1,1.6,0.3,2.5,0.9c27.6,17.6,57.9,30.2,89.9,37.1c21.8,4.7,43.9,7,66,8c0.4-0.6,0.9-1.1,1.4-1.6c3.4-3.6,8.4-1.4,9.9,2c5.7,0.2,11.5,0.2,17.2,0.2c2.5,0,4.2,1.3,5.2,3c2.4,1.4,4,4.3,2.6,7.5c-1.9,4.3-1.8,9.2-1.2,14.2c1.2-1.1,2.5-2.1,3.9-3c3.8-2.4,7.8-4.5,11.9-6.3c8.1-3.6,17.4-6.1,24.7-11.2c18.9-13.4,37.1-28,54.8-43C339.4,353.2,330,348.5,321.5,343.5z"/><path fill="#14B6B9" d="M71.4,125.3c-12.4,15-21.3,32.5-24.1,52.3c1.2,1.2,2,2.9,1.7,5c-2.3,17,8.5,33.1,19.7,44.8c13.3,14,29.1,25.6,45.8,35c2.2,1.2,4.4,2.5,6.7,3.6c-0.1-4.3,0.3-8.5,0.3-10.9c0.5-20.7,2.9-41.5,9-61.4c1.3-4.4,2.8-8.7,4.5-13C108.2,171.5,76,154.6,71.4,125.3z"/><path d="M477.5,247.3c-1.2-50.8-15.1-103.3-52.3-139.5c-36.9-36-88.7-55.3-138.8-63.6c-4-0.7-8.1-1.3-12.1-1.8c-1-0.9-2.3-1.4-3.9-1.4h-2.5c-1-0.3-2.2-0.3-3.3,0.2c-17-1.8-34.3-2.2-51.2-0.3c-26.9,3-53,10.9-77.6,22.1C86.2,85.3,37.1,127.3,33.9,185.3c-20,49.1-16.2,102.6,5.8,150.6c22,48.1,61.8,89.5,109.2,113c92.2,45.8,219.1,37.9,285.3-48.5C466.9,357.7,478.7,300.1,477.5,247.3z M367.2,82.6c24.1,12,45.9,28.1,62.7,49.1c1.8,2.3,3.5,4.6,5.2,7c-2.6,1-4.7,2.7-7.4,4.3c-2.6,1.5-3.1,4-2.4,6.1c-10,8.4-21.3,14.5-33.3,19c-9.7-24-24.9-45.3-43.3-63.7c-2.1-2.1-4.3-4.2-6.4-6.2c7.8-3,15.3-6.5,22.4-10.9C366.2,86.3,367.2,84.4,367.2,82.6z M328.6,392.4c-1.8-0.1-3.6-0.2-5.5-0.3c2.5-2,4.9-4,7.4-6c9.4-7.5,18.7-15.1,27.8-23c1.8-1.6,2.4-3.6,2.1-5.5c5.5-1.3,6.6-10.4,0-11.3c-11.5-1.5-22.3-6.9-32.3-12.5c-2.4-1.4-4.9-2.8-7.2-4.3c0-4.5,0-9,0.1-13.5c5.2,0.1,10.3,0.3,15.5,0.5c9,0.3,18,0.7,27,0.3c7-0.3,12.2-1.6,19-3.3c3.7-0.9,7.5-1.9,11.2-2.9c-0.4,3.5-0.9,7-1.5,10.4c-4.6,25.7-18.9,48.7-35,69.4C347.7,392.2,338.4,392.8,328.6,392.4z M346.4,403.7c-0.9,1-1.7,2-2.6,3c-9.5,11.2-20,21.6-31.5,30.7c-4.6,3.7-9.7,7.3-15,10.4c9.8-13.3,17.3-28.6,19-44.2c0.5,0,1,0,1.5,0c5.3-0.1,10.7,0.2,16,0.4C338,404.3,342.2,404.1,346.4,403.7z M373.6,303.8c-14.3,2.9-32,1.4-47.7,0.9c-1.6,0-3.2-0.1-4.8-0.1c0.2-16.6,0.4-33.3,0.3-49.9c-0.2-19.9-1.5-39.8-3.2-59.6c18.1-2.1,36.2-5.1,54-8.9c4.3-0.9,8.6-2,12.9-3.3c4.3,13.4,7.1,27.3,8.8,41.3c2,16.2,2.1,32.5,1.7,48.8c-0.2,8.4-0.4,17-0.8,25.5C387.6,300.6,380.6,302.4,373.6,303.8z M300.4,304.9c-2.8,0.2-5.8,0.5-8.5,1.4c-6.4-5.7-13.1-11.1-19.3-17.1c-7.3-7.1-16.3-15.5-19.4-25.4c-2-6.5-11.2-3.9-11.2,2c-1.3,1-2.1,2.6-2.1,4.6v27.5h-1c0,0-0.1,0-0.1,0c-4.9,0-9.8,0-14.7-0.2c0.1-22.5,1.1-45,3.1-67.4c1-10.8,2.4-21.6,3.9-32.3c13.7,0.7,27.4,0.7,41,0.4c11.5-0.3,23-1,34.5-2.1c1.7,19.1,2.9,38.2,3.1,57.3c0.2,17,0,34-0.2,50.9C306.5,304.6,303.4,304.7,300.4,304.9z M309.4,316.1c0,1.8,0,3.7,0,5.5c-2.2-1.7-4.4-3.4-6.5-5.2c1.6-0.1,3.3-0.2,4.9-0.2C308.3,316.1,308.8,316.1,309.4,316.1z M150.8,173.8c3.1-6.7,6.6-13.2,10.7-19.6c10.5-16.4,21-33,32.5-48.7c10.7,2.4,21.7,3.7,32.2,5c2.9,0.4,5.9,0.6,8.8,0.9c-4,13.9-6.8,28.1-9.1,42.3c-1.7,10.8-3.4,21.5-5,32.3C197.2,184.2,173.5,180.5,150.8,173.8z M219.3,197.3c-1.3,9.6-2.5,19.2-3.4,28.8c-2.2,23.5-3.3,47.1-3.5,70.7c-13.4-1.7-26.8-5.2-39.7-9.3c-13-4.1-26-9.2-38.5-15c-0.1-0.2-0.3-0.3-0.5-0.5c0-0.1,0-0.1,0-0.2c-0.2-1.4-0.3-2.8-0.4-4.2c-0.3-4.4-0.3-8.9-0.2-13.4c0.2-8.2,0.6-16.6,1.8-24.7c2.3-15.7,5.9-30.7,11.5-45.1C170,191.5,194.6,195.4,219.3,197.3z M236.8,159.6c2.3-16.1,5.4-32.1,10.2-47.7c14.8,0.4,29.8-0.4,44.4-2.1c8.5,22.1,11.4,46.4,13.7,69.8c0.2,1.7,0.3,3.4,0.5,5.1c-15.4,1.4-31,2.2-46.5,2.3c-8.7,0.1-17.5-0.1-26.3-0.5C234.1,177.6,235.5,168.6,236.8,159.6z M303.1,108.3c8.9-1.4,17.8-3.3,26.5-5.8c15.5,13.7,29.5,29.1,40.4,47.1c4.3,7.1,8,14.6,11,22.2c-6.9,2.1-14,3.7-21.2,5.1c-14.2,2.8-28.4,5-42.7,6.6c-0.1-1.6-0.3-3.2-0.4-4.8C314.4,155.1,311.1,130.8,303.1,108.3z M298.3,59.2c18.5,3.9,37.2,9.4,55,17c-1.4,1.3-1.9,3.3-1.7,5.2c-6.2,3.2-12.7,5.9-19.3,8.1c-13.9-11.7-28.8-22.2-44-32.2C291.7,57.9,295,58.5,298.3,59.2z M318.7,93.3c-6.6,1.6-13.3,2.8-20,3.8c-4.3-9.8-9.4-19.3-14.5-28.8C296,76.2,307.7,84.5,318.7,93.3z M261.9,70.5c0.9-3.4,1.9-8.6,3.7-12.9c7,13.7,14.7,27.1,21.1,41c-7.4,0.8-14.8,1.2-22.2,1.5c-4.5,0.2-9.1,0.3-13.7,0.3c0.6-1.5,1.1-3.1,1.7-4.6c2-5.1,4.3-10.1,6.7-15.1C260.7,77.8,261,73.8,261.9,70.5z M247.9,58.5c2-0.6,4-1.1,6.1-1.4c-0.4,1.1-0.8,2.2-1.1,3.3c-1.3,3.8-2.3,7.7-3.2,11.6c-1.2,4.9-3.4,9.1-5.4,13.7c-2.1,4.7-3.9,9.6-5.6,14.4c-1.6-0.1-3.2-0.3-4.7-0.4c-10.6-1.3-21.3-2.6-31.8-4.7C214.2,79.6,229,64.6,247.9,58.5z M173,62C173,62,173,62,173,62c16.8-5.3,34.3-8.7,51.6-9.4c2.7-0.1,5.4-0.2,8.1-0.2c-9.7,5.1-18.4,12.4-26.1,20c-6.2,6.1-11.8,12.7-17.1,19.6c-0.7-0.2-1.3-0.3-2-0.5c-6.7-2-13.7-4.7-19-9.3C162,76.4,166.4,65.7,173,62z M82.7,113.1c18.8-18.1,42.5-32.1,65.4-41.9c2.2-0.9,4.3-1.8,6.6-2.7c-0.9,3.5-1.1,7.2-0.4,10.8c1.5,8.8,8.8,14.1,16.3,18c3.7,1.9,7.6,3.5,11.6,4.8c-5.5,7.9-10.8,16-15.9,24.1c-6.1,9.7-12.9,18.9-18.8,28.7c-3,4.9-5.6,10-8,15.2c-2.8-1-5.5-2-8.2-3C108.7,158.3,78.7,141.8,82.7,113.1z M71.4,125.3c4.6,29.3,36.8,46.1,63.7,55.5c-1.6,4.3-3.1,8.6-4.5,13c-6.1,19.8-8.6,40.7-9,61.4c-0.1,2.4-0.4,6.6-0.3,10.9c-2.2-1.2-4.5-2.4-6.7-3.6c-16.8-9.5-32.6-21.1-45.8-35c-11.2-11.7-22-27.8-19.7-44.8c0.3-2.1-0.5-3.8-1.7-5C50.1,157.8,59,140.4,71.4,125.3z M60.2,348.1c-14-24.2-23.5-51-26.3-78.8c-2.2-21.9-0.1-44.1,6.4-65c3.4,9.7,9.3,18.7,16.1,26.6c13.6,15.9,30.7,28.5,48.5,39.3c18.8,11.3,39.8,19.9,60.5,27c14,4.8,28.3,8.3,42.9,10.7c11.5,1.9,23.3,1.5,35,1.5c0.5,0,1-0.1,1.5-0.2c3.1,0.1,6.5-2,6.5-6v-19.7c3.3,4,7,7.8,10.4,11.3c7,7.1,14.4,13.7,22.1,20.1c0.3,2.6,2.9,4.5,5.6,4.7c4.4,3.8,8.6,7.8,13.3,11.4c6,4.5,12.3,8.6,18.8,12.4c8.5,5,17.9,9.8,27.6,12.5c-17.7,15-35.8,29.6-54.8,43c-7.3,5.2-16.6,7.6-24.7,11.2c-4.1,1.8-8.1,3.9-11.9,6.3c-1.4,0.9-2.7,1.9-3.9,3c-0.6-5-0.7-10,1.2-14.2c1.4-3.3-0.2-6.1-2.6-7.5c-1-1.7-2.7-3-5.2-3c-5.7,0-11.5-0.1-17.2-0.2c-1.5-3.5-6.5-5.6-9.9-2c-0.5,0.5-1,1.1-1.4,1.6c-22.2-1-44.3-3.4-66-8c-32-6.9-62.3-19.5-89.9-37.1C61.9,348.5,61,348.2,60.2,348.1z M108.2,406.3c-12.6-11.1-24.1-23.6-34.2-37.2c21.8,11.9,45,20.7,69.1,26.7c0.1,0.6,0.4,1.2,0.8,1.7c10.5,16.8,25,31.2,40.6,43.2c8.3,6.4,17.2,12.3,26.7,17.1C173.3,449.2,137.3,431.9,108.2,406.3z M190.8,431c-11.8-9.1-22.8-19.7-31.7-31.8c18.1,3.5,36.5,5.4,55,6.3c-1.4,11.9,5.4,25.4,11.8,34.7c3.8,5.6,8.3,10.8,13.3,15.5C221.3,451.9,205.1,442,190.8,431z M244.7,463c0.2-0.8,0.2-1.7,0.1-2.5c0.4,0.3,0.8,0.6,1.2,0.9c0.9,0.7,1.8,1.3,2.7,1.9C247.3,463.3,246,463.2,244.7,463z M275.1,455.8c-0.1,0-0.1,0-0.2,0c-3.1-3.1-9.2-2.1-9.9,2.2c-10.5-0.2-22.4-14.5-28.2-22.4c-5.1-6.9-13.5-19.8-11.1-29.7c5.7,0.2,11.4,0.3,17,0.3c-1.6,9.3,1.1,18.9,1.3,28.4c0.1,7.5,11.6,6.5,11.6-0.9v-0.2c2.3-1.3,3.5-3.5,5.8-5.5c3.5-3,7.9-5.1,12.1-7.1c8.6-3.9,17.7-6.8,25.9-11.5c1.6-1,3.3-2,4.9-3c-1.8,9.3-6.4,18.2-11.2,26.2C288,441,281.9,448.8,275.1,455.8z M397.8,419.9c-29.3,24.8-65.8,38.2-103.5,42.6c16.5-7,31-20.1,43.3-32c9.3-9.1,18.2-19,26.3-29.4c3-0.6,5.9-1.3,8.9-2c22.1-5.4,43.4-13.5,63.2-24.5C426,391.7,413.3,406.8,397.8,419.9z M463.8,280.3c-2.2,25.6-8.2,51.3-18.3,74.9c-0.3,0.1-0.7,0.3-1,0.5c-21.7,14.3-45.2,24.1-70.1,30.8c4.2-6.1,8.2-12.4,11.9-18.7c7.4-12.8,13.2-26.6,16.5-41c1.5-6.4,2.3-13,2.8-19.7c10.8-3.5,21.4-7.7,31.5-12.7c8.4-4.1,19.5-9.7,27-17.6C464,278,463.9,279.1,463.8,280.3z M461,258.3c-0.7,6.2-5.6,10.8-10.4,14.6c-7.6,6-16.5,10.3-25.3,14.2c-6.2,2.7-12.6,5.3-19.1,7.6c0.2-4.9,0.3-9.9,0.5-14.7c1.3-31-0.1-61.9-8-92c-0.8-3-1.7-5.9-2.6-8.9c17.1-6.5,32.7-16.1,45.6-29.6c8.4,15.4,13.8,32.5,17.6,49.6c3.9,17.9,5.7,36.3,5.7,54.7C463,254.2,461.3,255.7,461,258.3z"/></svg>