<svg xmlns="http://www.w3.org/2000/svg"  viewBox="0 0 512 512" width="64px" height="64px"><path fill="#3AB37C" d="M322.9,132.2c-2.5-1.5-4-4.6-2.5-7.4c4.8-8.9,10.3-17.5,13.2-26.9c-9.7,5.9-22.3,8.7-31.9,8.9c-6,0.1-8.5-8.9-2.2-10.7c2.5-0.7,2.9-2.9,2.3-5.1c-4,5.3-8.2,10.4-13.2,14.8c-8,6.8-17,8.9-26.5,12.7c0,0-0.1,0-0.1,0c0.1,1.7,0.3,3.5,0.6,5.2c0.6,3.7,2,7,3.2,10.5c1.3-0.2,2.8,0.1,4.1,1c9.4,6.4,22.5-4.6,29.2-10.5c5.2-4.5,13.4,2.1,8.3,7.3c-0.7,0.7-1.3,1.3-2,2c-0.6,0.6-1.2,1-1.8,1.3c-10.7,8.7-24.1,16.4-37.1,10.4c0,0.1-0.1,0.1-0.2,0.2c0.5,0.4,1,0.9,1.5,1.4c2.3,2.7,1.2,5.5-1,7c0,0.5,0,0.9,0,1.4c0,1,0,2.1,0.1,3.1c0.4,2.7,1.3,5.3,2.3,7.7c1,2.4,4.1,9.8,6.1,10.4c6.7,2,4.7,12.9-2.1,10.8c-9-2.7-14.4-15.1-16.4-23.5c-1-4.2-1.4-8.7-0.9-13c-1.4,0.2-2.7,0.4-4.1,0.5c0.1,13.9-4.2,30.8-16.6,38.2c-6.1,3.6-12.3-5.5-6.2-9.1c7.8-4.6,10.9-14.9,11.6-24.2c-0.4-0.1-0.8-0.1-1.1-0.3c-14.3,7.8-35.8,3.3-48.8-4c-4.4-2.5-3.8-10.4,2-10.4h3c2.5,0,4.2,1.3,5,3.1c5.3,2.2,11.1,3.5,16.8,4c6.2,0.5,13.8,0.4,18.9-3.7c-0.2-1.8-0.4-3.6-0.7-5.3c-10.2,0-21.7-0.6-29.2-7.4c-5.2-4.8,2-13,7.3-8.3c3.7,3.4,9.5,4.4,15.2,4.7c-3.1-2.7-6.7-4.6-10.3-6.7c-6.3-3.6-12.6-7.4-18.7-11.4c-5.9-3.9-11.6-8.2-16.5-13.3c1,10,3.6,19.7,7.8,29c1.6,3.6-1.6,6.7-4.8,7.3c-10.3,2.1-21.4,5.9-32.1,3.7c-3.4-0.7-6.5-1.8-9.6-3.2c2.4,4.2,4.4,8.7,6.9,12.8c2.9,4.6,5.7,5.5,10.4,7.8c3.1,1.5,5.4,3.8,6.9,7c3.6,7.9-9.6,15-14.9,17.7c-5.7,2.9-11.7,4.5-17.8,6.2c6.2,2.3,13.2,3.2,19.5,3.4c5.4,0.2,10.8,0.1,16.1-0.7c4.2-0.5,8.2-1.8,12.4-2.2c9-1,13.7,5.2,12.8,13.8c-0.8,7.8-4.3,14-8.6,20c4.2-0.9,8.3-2.2,12.3-3.5c5.4-1.7,8.5-3.9,12.5-7.8c2.8-2.8,6.2-6.5,10.5-6.8c4.9-0.3,8.8,2.8,11.1,6.9c2.4,4.2,3.2,8.7,3.9,13.5c0.3,2.2,0.5,4.4,1.1,6.5c0.2,0.7,0.4,1.4,0.7,2.1c0.2-0.1,0.3-0.1,0.5-0.3c1.3-1,2.5-2,3.5-3.2c1.8-2.2,3.3-4.6,4.4-7.2c2.3-5.8,3.3-12,4.8-18.1c0.8-3.3,4.6-5.7,7.8-3.9c10.7,6,17.2,15.2,23.8,24.8c5.3-8.8,6.6-21.1,2.5-30c-2.2-4.8,3.6-8.4,7.6-6.7c13.6,5.5,30.2,5.8,42.4-2.4c-5.9-1.8-11.6-4.2-15.5-8.5c-2.9-3.2-2.2-7.5,1.8-9.3c6.8-3.1,14.5-6,19.3-12.1c4-5.1,6.1-11.7,7.7-18.3C342,138.5,332.1,137.7,322.9,132.2z"/><path fill="#EF4823" d="M444.7,214.5c-2.2,0.6-4.7,0-6-2.2c-1.5-2.4-2.5-5.1-3.1-7.9c-2.1-0.4-3.8-2-3.8-4.8v-8c0-3.3,2.9-6.4,6.2-6c-6.2-17.9-15.9-34.8-28.7-48.5c-8.2-8.8-17.7-16.7-29-21.2c-12.8-5.1-25.2-4.5-38.5-2.3c-1.1,0.2-2.1,0.1-2.9-0.3c-1.9,3.8-3.9,7.5-6,11.3c7.8,2.8,15.7,1.6,23.3-3.1c3.9-2.3,9.7,0.7,8.5,5.6c-2.8,11.2-4.9,25-12.7,34c-4.1,4.7-9.2,8-14.6,10.8c4.2,1.7,8.9,2.7,12.9,3.8c4,1.1,5.9,5.7,3.1,9c-1,1.2-2,2.2-3.1,3.3c1.6,0.7,2.7,2.1,3.2,3.8c0.3,0.4,0.7,0.9,0.9,1.4c2.3,4.6,4.1,9.2,4.3,14.4c0.1,4.8-5.3,7.7-9.1,4.6c-5.5-4.6-5.6-11.9-6.8-18.4c-12.2,7.5-27.4,8.8-41.6,5.5c1.6,12.9-2.9,28-11.8,36.4c-2.6,2.5-6.5,2.5-8.7-0.6c-5.7-8-10.5-16.6-17.9-23c-2.7,11.4-6.6,23.7-17.7,28.6c-11.6,5.1-15.5-6.8-16.8-15.7c-0.4-2.6-0.6-5.2-1.3-7.7c-0.4-1.4-0.9-2.6-1.7-3.7c-0.2-0.2-0.4-0.4-0.6-0.6c-0.2,0.1-0.3,0.2-0.5,0.3c-0.6,0.5-1.2,1-1.7,1.6c-1.8,1.9-3.7,3.7-5.6,5.4c-5.3,4.6-12,6.4-18.6,8.2c-7.3,2-14.4,3.4-22,2.8c-4.6-0.4-5.2-6.1-3.1-9c5.1-7,14.4-15.8,13.4-25.5c-1.3,0.1-2.5,0.3-3.8,0.6c-3.6,0.8-7.3,1.6-11,1.9c-17.2,1.8-38.5,0.7-52.1-11.2c-3.2-2.8-2-7.8,1.8-9.3c8-3.2,16.8-4.1,24.7-7.7c3.8-1.8,7.8-3.9,11-6.8c-0.6-0.3-1.2-0.5-1.9-0.8c-7.8-3.2-11.7-8.8-15.4-16.2c-1-1.9-2-3.8-3.1-5.7c-6.4,0.4-12.8,1.1-19,2.4c1.1,0.2,2,0.5,2.9,1c1.9,1,3.2,3.1,3.1,5.2c0.2,1,0,2.1-0.6,3.1c-2.2,4-6.5,7.8-10.5,10c-2.6,1.4-5.7,2.9-8.7,2.2c-2.9-0.7-5.4-2.9-6.2-5.9c-1-3.8,0.5-7.2,3.2-10c-3.5,1.7-6.8,3.7-9.9,6.1c-20.9,16.1-34,43.7-39.2,69.1c-6.1,29.4-1.6,58.5,8.7,86.4c9.9,27.1,23.2,53,36.3,78.7c12.4,24.4,25.7,49.3,44.3,69.7c9.1,10,19.3,18.9,31.7,24.7c5.1,2.4,10.3,4.3,15.6,5.8c-2.9-1.9-5-4.7-6.3-8.3c-1.1-3,0.5-5.4,2.7-6.5c0.1-4.8,5.2-7.5,9.1-4.4c5.1,4.1,7.2,10.9,5.8,17.2c-0.4,1.7-1.7,3.4-3.4,4.1c4.5,1,9,1.7,13.6,2.2c11.8,1.3,23.8,1.7,35.6,1.7c-3.4-3-4.4-6.8-4.7-10.8c-1.2-1.4-1.7-3.5-0.5-5.6c0.1-0.3,0.3-0.5,0.4-0.8c0-0.1,0-0.2,0-0.3c0-1.6,0.6-3.2,1.6-4.3c1.8-3.3,7.3-3.3,9.4-0.2c3.9,5.6,4,12.6,2.8,19.1c-0.2,1.2-0.8,2.2-1.6,2.9c12.4-0.2,25-1.2,36.8-4.9c1.1-0.3,2.1-0.7,3.1-1.1c-0.2-0.8-0.1-1.6,0.1-2.6c-1.4-0.9-2.4-2.4-2.3-4c0.3-7.7,4.7-16.4,12.7-18.6c2.4-0.7,4.9,0.1,6.2,2c2.6,0.8,4.7,3.3,4,6.3c-0.8,3.1-2.1,5.9-3.7,8.5c14.8-9.7,26.7-23.8,36.4-38.7c8.4-13,15.8-26.5,23.1-40.1c-2-1-3.4-3-2.6-5.7c1-3.8,3-7.2,4-11c0.1-0.4,0.2-0.7,0.4-1.1c-1.2-3.6,1.3-8.4,6.1-7.3c2.1,0.5,3.6,1.4,4.7,2.5c1-1.8,2.1-3.6,3.1-5.3c9.8-16.5,20-32.9,29.3-49.8c-2.3-1-4-3.2-3.5-6c0.1-0.4,0.2-0.8,0.3-1.2c-0.9-0.8-1.4-2-1.3-3.4c0.2-5.6,3.1-15.9,10.1-15.9c0.6,0,1.2,0.1,1.7,0.2c1.8-0.5,4-0.1,5.4,1.1c0.1,0.1,0.1,0.1,0.2,0.2c0.6-1.4,1.3-2.7,1.9-4.1C440.7,270.2,448.2,243.1,444.7,214.5z M82.9,203.8c0.3,0,0.6,0,1,0c1.1-1.6,2.5-3.1,4.4-4.1c3.2-1.8,8.7-0.4,8.6,4.1c-0.2,4.3-2.3,9.4-6,12.1c0,0.1-0.1,0.2-0.1,0.3c-0.7,2.9-3.4,4.9-6.4,4.3c-2.3-0.5-4.3-2.6-4.5-5c-1.4-1.6-1.9-4-2-6C77.7,206.7,79.8,204,82.9,203.8z M77.9,300.2c-6.1-3.5-8-10.9-8-17.5c0-3,1.9-5.7,5.1-5.9c2.2-0.2,4.4,1.1,5.4,3c2.3,0,4.5,1.2,5.2,3.6c1.2,4.2,1.5,8.7,0.2,12.9C84.8,299.5,81.2,302.1,77.9,300.2z M103.7,374.3c-0.5,4.3-6.1,5.6-9,3.1c-0.5-0.4-0.9-0.8-1.2-1.2c-0.6-0.4-1.2-1-1.7-1.8c-4.8-8.3-8.6-15.3-7.8-25.1c0.3-3.4,5-5.7,7.8-3.9C101.2,351.3,104.9,363.5,103.7,374.3z M117.9,240.2c1.4-7.4,5-15.1,10.3-20.6c2.9-3.1,9.9-1.9,9.6,3.2c-0.2,3.5-1.3,6.7-2.5,10c-0.5,1.4-1.1,2.9-1.6,4.3c0,0,0,0.4-0.1,0.8c0.3,2.3-0.7,4.6-3.6,5.5c-0.4,0.1-0.7,0.2-1.1,0.3c-0.8,0.8-1.6,1.5-2.6,2.1C122.3,248.2,117,245.1,117.9,240.2z M112.8,322.3c-3.4-6.3-3-12.7-2.9-19.7c0-4.2,4-6.2,7.2-5.6c1.9-1.6,4.6-2,6.9,0.1c8.2,7.3,5.3,23.2-4.8,27.3C117,325.3,113.9,324.4,112.8,322.3z M133.9,420.2c-6.8-4.3-11.8-11.2-12-19.5c-0.1-3.5,2.4-5.4,5.1-5.7c1.2-1,2.7-1.5,4.4-1.1c9.5,2.2,10.4,12.9,10.4,21C141.8,418.6,137.7,422.6,133.9,420.2z M181.2,263.9c3.1-3.3,8.1-2.7,10.6,1c4.3,6.4,2.6,15-1.4,21c-1.8,2.6-5.6,2.1-7.8,0.5c-3.7-2.8-4-7.1-3.9-11.4C178.6,271.3,178.7,266.6,181.2,263.9z M194.2,361.7c-1.2,2.6-4.9,4-7.4,2.5c-6-3.6-7-10-7-16.5c0-1.7,0.6-3,1.5-3.9c0.2-1,0.6-1.9,1-2.9c1.5-3.3,5.9-3.9,8.6-1.7C197.1,344.3,197.4,354.8,194.2,361.7z M222.2,435.7c-1.2,2.6-4.9,4-7.4,2.5c-3.1-1.8-6-5.3-7.9-9.2c-0.9-0.6-1.5-1.5-1.9-2.9c-1.2-5.1-2.8-11.2-0.1-16.1c3-5.4,10.3-5.2,14.4-1.4C225.7,414.6,225.6,428.2,222.2,435.7z M252,333.6c0,0.7,0,1.4-0.1,2.1c0-0.5-0.1,3.7-0.1,1c-0.1,3.8-1.5,7.5-3.7,10.6c-2.1,3-5.9,5.2-9.5,3.4c-4-2-4-6.6-3.7-10.4c0-0.2,0.1-0.4,0.1-0.6c-0.5-4.2-0.1-8.8,1.5-12.3c1.6-3.5,4.9-5.9,8.8-5.4c3.9,0.5,5.7,4.1,6.3,7.5C251.9,330.8,252,332.2,252,333.6z M249.8,269c-1.6,0.7-3.7,0.6-5.3-0.2c-1.8-0.9-2.8-2.3-3.6-4.1c-1.4-2.8-1.1-6.5-0.9-9.5c0-0.4,0.1-0.8,0.2-1.1c0.1-1,0.2-1.9,0.4-2.8c0.4-2.3,0.8-5,2-7.1c0.9-1.6,2.1-2.9,3.8-3.5c2.6-1,5.3,0.3,7,2.4c1.9,2.5,2.2,6.3,2.6,9.3C256.7,258.1,255.9,266.2,249.8,269z M274.4,438.9c-2.6,3.7-7.8,1.5-9.3-1.8c-1.3-3-1.9-6.3-1.8-9.5c-0.7-1.3-0.8-3,0-4.7l3-6c1.3-2.5,4.8-4,7.4-2.5C282.3,419.5,279.2,432.1,274.4,438.9z M286.1,292.1c-1.1-5-1.3-9.8-0.2-14.9c0.4-1.7,1.4-2.9,2.6-3.6c0.3-0.6,0.5-1.2,0.9-1.8c2.5-4.3,10.4-3.9,10.4,2c0,7.1-0.2,14-4.4,20.1C293.2,297.1,287,295.9,286.1,292.1z M312.2,368.5c-0.5,3.8-1.4,9.3-5.1,11.4c-4.4,2.6-10,0.5-12.4-3.9c-1.5-2.8-1.6-5.7-1.5-8.8c0.1-1.6,0.2-3.2,0.4-4.8c0-0.2,0.2-2.8,0.2-1.7c0.1-3,1.8-5.7,5.1-5.9c0.2,0,0.4,0,0.7,0c0.5-0.7,1-1.5,1.6-2.1c1.6-1.8,3.6-1.9,5.7-1.9c2.8,0,5.9,1.9,5.9,5.1C312.8,360,312.7,364.3,312.2,368.5z M335.8,410.2c-1.3,9.2-7.8,17.8-17.1,19.5c-3.6,0.7-6.4-3.3-5.8-6.5c0.8-4.7,2.7-9,4.5-13.2c-1.8-2.3-2.2-6,0.8-8.3c3.5-2.7,8.9-5.6,13.3-2.9C335.5,401.3,336.4,405.8,335.8,410.2z M342.9,280.9c-3.3,0.6-6.7-1.3-7.9-4.5c-0.6-1.6-0.6-3.2-0.3-4.8c-0.1-0.9,0.1-1.9,0.6-2.7c0.2-0.3,0.4-0.6,0.6-1c0.1-0.3,0.3-0.7,0.4-1c0.1-0.2,0.2-0.4,0.3-0.5c2.2-5.2,3.6-12.1,10.4-12.3c4.2-0.1,8.3,3.3,9.6,7.3c1,3.1,0.7,6.4-0.8,9.3C353.4,275.5,348.5,279.9,342.9,280.9z M359.7,351.7c-3.1,0.6-5.5-2.4-5.9-5.1c-0.7-5.4,0.7-10.3,2.1-15.5c0.6-2.4,2.4-3.7,4.3-4.1c-0.3-1.9,0.2-3.9,2-5.4c1.3-1.1,2.7-1.9,4-3c2.8-2.3,7.1-0.3,8.3,2.7C378.7,332.7,372.1,349.4,359.7,351.7z M390.1,182.1c-0.2-0.6-0.3-1.2-0.4-1.7c-3.6-3.6-6.6-7.7-7.6-12.3c-0.6-2.9,0.3-5.9,3.4-7c2.6-0.9,6.4,0.4,7,3.4c0.1,0.5,0.2,1,0.4,1.4c0.8-0.2,1.6-0.2,2.4,0c8.2,2.1,13.6,10,12.3,18.4c-0.5,3.3-4.9,5.7-7.8,3.9c-1.3-0.8-2.6-1.6-3.9-2.6C393.6,186.1,391,185.1,390.1,182.1z M410.4,257.4c-0.6,5.1-5.7,13.2-11.9,10c-4.6-2.3-4.4-8.4-4.1-12.8c0.2-3.2,0.4-6.4,0.9-9.6c-1.3-4,2.3-9.2,6.9-7.1c2.2,0.3,4.2,1.7,4.6,4C410,246.3,411,252.3,410.4,257.4z"/><path fill="#3AB37C" d="M272.5,55.2c-2.1-1.2-4-2.6-5.7-4.4c-2.3-2.6-3.8-5.5-4.7-8.7c-5.4,4-10.5,8.4-14.4,14c-6.3,8.9-9.7,20.2-10.6,31c-1.3,15.2,4.6,29.2,8.2,43.7c1.2,1.5,1.7,3.6,1.2,5.4c0.3,1.6,0.6,3.2,0.8,4.8c0.5-0.1,1-0.2,1.6-0.2c2.1,0,5.3,0.4,7.3-0.6c-0.1-0.2-0.1-0.4-0.2-0.5c-1.9-5.6-3.9-10.9-4.5-16.8c-1.2-10.9-1.2-22.7,0.6-33.6C254.3,74.5,261.2,63,272.5,55.2z"/><path d="M88.2 199.7c-1.9 1-3.3 2.5-4.4 4.1-.3 0-.6 0-1 0-3.1.2-5.1 2.9-5.1 5.9.1 2 .6 4.4 2 6 .2 2.4 2.1 4.5 4.5 5 3.1.6 5.7-1.4 6.4-4.3 0-.1.1-.2.1-.3 3.7-2.7 5.8-7.8 6-12.1C97 199.3 91.4 197.9 88.2 199.7zM85.5 283.4c-.7-2.4-3-3.6-5.2-3.6-1-1.9-3.2-3.2-5.4-3-3.1.2-5.1 2.9-5.1 5.9.1 6.6 1.9 14 8 17.5 3.4 1.9 6.9-.7 7.8-3.9C87 292.1 86.7 287.6 85.5 283.4z"/><path d="M441.5,165.8c-9.1-18.9-22.1-36.9-38.9-49.6c-8.1-6.1-17.2-10.6-26.9-13.3c-10.7-2.9-21.3-2.3-32-0.6c2.2-6.4,3.5-13.1,3.2-20.5c-0.2-5.4-8.2-6.9-10.4-2c-2.7,6-9.5,9.1-15.2,11.5c-2.7,1.1-5.5,2-8.4,2.8c0.4-6.1-2.4-12.9-6.8-17c-2.1-1.9-6-1.8-7.8,0.5c-5,6.5-9.7,13.2-15.6,18.8c-6,5.7-13.4,7.7-20.8,10.3c0-0.9,0-1.8,0-2.7c0.1-9.1,1.1-18.5,5-26.9c4.2-8.9,12.3-14.4,21.3-17.8c5.2-1.9,4.6-9.4-0.8-10.6c-4.3-1-8.6-2-12-5c-3.4-2.9-3.5-8-3.6-12.1c-0.1-4.1-5.3-6.5-8.6-4.1c-8.2,6-16.5,11.9-22.9,19.9C233,56.8,229,68.3,227,79.7c-2.2,12-0.8,23.6,2.3,35.3c-6.2-3.9-13-7.1-18.6-10.6c-6.6-4.1-12.9-8.6-18.5-14c-5-4.9-5.9-13.2-9.2-19.2c-2.3-4.1-9.5-2.6-10,2c-1.8,17.4-0.3,34.9,5.8,51.2c-6.7,1.6-13.5,3-20.4,2.5c-8.8-0.7-16.8-6.9-24.6-10.5c-5.4-2.5-9.4,3.3-7,8c1.2,2.4,2.5,4.7,3.9,7c-20.9,2-40.3,8.7-55.4,24.4c-18.7,19.5-30.3,45.9-35.1,72.2c-10.7,58.6,20.2,113.7,45.5,164.3c12.3,24.5,25.4,48.9,43.1,70c8.7,10.4,18.2,19.7,29.7,27c10.8,6.9,23.2,11.2,35.7,13.9c12.8,2.8,25.9,3.4,39,3.8c13.5,0.4,27,0.5,40.4-1.1c13.1-1.6,25.7-5.1,37.2-11.5c10.8-5.9,20.2-14.4,28.3-23.5c16.9-18.8,28.8-41.8,40.7-64c13.7-25.6,29.5-49.9,43.6-75.3c14.3-25.6,27.8-53.2,32-82.5C459.5,220.7,453.9,191.6,441.5,165.8z M237.1,87.1c0.9-10.9,4.3-22.1,10.6-31c3.9-5.5,9-9.9,14.4-14c0.9,3.2,2.4,6.1,4.7,8.7c1.6,1.8,3.6,3.3,5.7,4.4c-11.3,7.7-18.2,19.3-20.5,34c-1.7,10.9-1.8,22.7-0.6,33.6c0.6,5.9,2.7,11.2,4.5,16.8c0.1,0.2,0.1,0.4,0.2,0.5c-2,0.9-5.2,0.6-7.3,0.6c-0.6,0-1.1,0.1-1.6,0.2c-0.2-1.6-0.5-3.2-0.8-4.8c0.5-1.8,0-3.9-1.2-5.4C241.7,116.4,235.8,102.3,237.1,87.1z M154.7,137.4c10.6,2.2,21.7-1.6,32.1-3.7c3.2-0.7,6.4-3.7,4.8-7.3c-4.2-9.3-6.8-19-7.8-29c4.9,5.1,10.6,9.4,16.5,13.3c6.1,4,12.3,7.8,18.7,11.4c3.6,2,7.3,4,10.3,6.7c-5.8-0.3-11.5-1.3-15.2-4.7c-5.3-4.8-12.5,3.5-7.3,8.3c7.5,6.8,19,7.4,29.2,7.4c0.3,1.8,0.6,3.5,0.7,5.3c-5.1,4.1-12.7,4.3-18.9,3.7c-5.7-0.5-11.4-1.8-16.8-4c-0.9-1.7-2.6-3.1-5-3.1h-3c-5.8,0-6.4,7.9-2,10.4c13,7.3,34.6,11.9,48.8,4c0.4,0.1,0.7,0.2,1.1,0.3c-0.7,9.3-3.8,19.6-11.6,24.2c-6.1,3.6,0.1,12.7,6.2,9.1c12.4-7.3,16.7-24.2,16.6-38.2c1.3-0.1,2.7-0.2,4.1-0.5c-0.6,4.3-0.1,8.8,0.9,13c2,8.4,7.4,20.7,16.4,23.5c6.8,2.1,8.8-8.8,2.1-10.8c-2-0.6-5.1-8.1-6.1-10.4c-1-2.5-1.9-5.1-2.3-7.7c-0.2-1-0.1-2.1-0.1-3.1c0-0.5,0-0.9,0-1.4c2.2-1.5,3.3-4.4,1-7c-0.4-0.5-0.9-1-1.5-1.4c0-0.1,0.1-0.1,0.2-0.2c13,6,26.4-1.7,37.1-10.4c0.6-0.3,1.3-0.7,1.8-1.3c0.7-0.7,1.3-1.3,2-2c5.1-5.1-3.1-11.8-8.3-7.3c-6.8,5.9-19.8,16.9-29.2,10.5c-1.3-0.9-2.8-1.2-4.1-1c-1.2-3.4-2.6-6.8-3.2-10.5c-0.3-1.7-0.5-3.4-0.6-5.2c0,0,0.1,0,0.1,0c9.5-3.9,18.5-5.9,26.5-12.7c5.1-4.4,9.2-9.5,13.2-14.8c0.5,2.3,0.1,4.4-2.3,5.1c-6.3,1.8-3.7,10.8,2.2,10.7c9.6-0.1,22.2-3,31.9-8.9c-3,9.4-8.4,18-13.2,26.9c-1.5,2.8,0,5.9,2.5,7.4c9.2,5.5,19.1,6.3,28.6,3.5c-1.6,6.6-3.7,13.2-7.7,18.3c-4.7,6-12.5,9-19.3,12.1c-4,1.8-4.7,6.1-1.8,9.3c3.9,4.3,9.6,6.7,15.5,8.5c-12.2,8.2-28.8,8-42.4,2.4c-4-1.6-9.9,2-7.6,6.7c4.1,8.9,2.8,21.2-2.5,30c-6.7-9.6-13.2-18.7-23.8-24.8c-3.3-1.8-7,0.6-7.8,3.9c-1.5,6-2.5,12.3-4.8,18.1c-1.1,2.7-2.5,5-4.4,7.2c-1,1.2-2.2,2.2-3.5,3.2c-0.2,0.1-0.3,0.2-0.5,0.3c-0.3-0.7-0.5-1.4-0.7-2.1c-0.6-2.1-0.8-4.4-1.1-6.5c-0.7-4.7-1.5-9.3-3.9-13.5c-2.3-4.1-6.3-7.2-11.1-6.9c-4.3,0.3-7.7,3.9-10.5,6.8c-3.9,4-7.1,6.1-12.5,7.8c-3.9,1.3-8.1,2.6-12.3,3.5c4.2-6,7.8-12.2,8.6-20c0.9-8.7-3.7-14.9-12.8-13.8c-4.2,0.5-8.2,1.7-12.4,2.2c-5.3,0.7-10.7,0.8-16.1,0.7c-6.3-0.2-13.3-1.1-19.5-3.4c6-1.7,12-3.3,17.8-6.2c5.3-2.7,18.5-9.8,14.9-17.7c-1.4-3.1-3.8-5.4-6.9-7c-4.6-2.3-7.5-3.2-10.4-7.8c-2.6-4.1-4.6-8.6-6.9-12.8C148.1,135.6,151.3,136.7,154.7,137.4z M429,296.2c-0.6,1.4-1.2,2.7-1.9,4.1c-0.1-0.1-0.1-0.1-0.2-0.2c-1.4-1.2-3.5-1.7-5.4-1.1c-0.5-0.1-1.1-0.2-1.7-0.2c-6.9,0-9.8,10.3-10.1,15.9c-0.1,1.4,0.5,2.5,1.3,3.4c-0.1,0.4-0.2,0.8-0.3,1.2c-0.5,2.8,1.2,5.1,3.5,6c-9.3,16.9-19.5,33.3-29.3,49.8c-1,1.8-2.1,3.5-3.1,5.3c-1-1.1-2.5-2-4.7-2.5c-4.8-1.1-7.2,3.7-6.1,7.3c-0.2,0.3-0.3,0.7-0.4,1.1c-1,3.8-3,7.2-4,11c-0.7,2.7,0.6,4.7,2.6,5.7c-7.4,13.6-14.7,27.2-23.1,40.1c-9.7,14.9-21.6,29-36.4,38.7c1.6-2.6,2.9-5.4,3.7-8.5c0.7-3-1.4-5.5-4-6.3c-1.4-1.8-3.8-2.6-6.2-2c-8,2.2-12.3,10.9-12.7,18.6c-0.1,1.7,0.9,3.1,2.3,4c-0.2,0.9-0.2,1.8-0.1,2.6c-1,0.4-2.1,0.7-3.1,1.1c-11.8,3.7-24.5,4.6-36.8,4.9c0.8-0.7,1.4-1.7,1.6-2.9c1.2-6.5,1-13.5-2.8-19.1c-2.1-3.1-7.7-3.1-9.4,0.2c-1,1.1-1.6,2.6-1.6,4.3c0,0.1,0,0.2,0,0.3c-0.1,0.3-0.3,0.5-0.4,0.8c-1.2,2.2-0.7,4.2,0.5,5.6c0.3,4.1,1.3,7.9,4.7,10.8c-11.9,0-23.9-0.4-35.6-1.7c-4.6-0.5-9.1-1.2-13.6-2.2c1.7-0.7,3-2.4,3.4-4.1c1.4-6.3-0.7-13.1-5.8-17.2c-3.9-3.1-9-0.3-9.1,4.4c-2.2,1.1-3.8,3.5-2.7,6.5c1.3,3.6,3.4,6.4,6.3,8.3c-5.3-1.5-10.6-3.4-15.6-5.8c-12.4-5.8-22.6-14.6-31.7-24.7c-18.6-20.4-31.9-45.2-44.3-69.7c-13-25.7-26.3-51.6-36.3-78.7c-10.3-28-14.8-57-8.7-86.4c5.2-25.3,18.4-52.9,39.2-69.1c3.1-2.4,6.4-4.4,9.9-6.1c-2.7,2.7-4.2,6.2-3.2,10c0.8,3,3.3,5.2,6.2,5.9c3,0.7,6.2-0.8,8.7-2.2c4-2.2,8.3-6,10.5-10c0.6-1,0.7-2.1,0.6-3.1c0.2-2.2-1.2-4.3-3.1-5.2c-0.9-0.5-1.9-0.8-2.9-1c6.2-1.3,12.6-2.1,19-2.4c1.1,1.9,2.1,3.8,3.1,5.7c3.7,7.4,7.6,13,15.4,16.2c0.6,0.3,1.2,0.5,1.9,0.8c-3.2,2.8-7.2,5-11,6.8c-7.9,3.6-16.7,4.5-24.7,7.7c-3.8,1.5-5,6.5-1.8,9.3c13.6,11.9,34.9,13,52.1,11.2c3.7-0.4,7.3-1.2,11-1.9c1.3-0.3,2.5-0.4,3.8-0.6c1,9.6-8.2,18.5-13.4,25.5c-2.2,3-1.5,8.7,3.1,9c7.6,0.6,14.7-0.8,22-2.8c6.6-1.8,13.3-3.6,18.6-8.2c2-1.7,3.8-3.6,5.6-5.4c0.5-0.6,1.1-1.1,1.7-1.6c0.2-0.1,0.3-0.2,0.5-0.3c0.2,0.2,0.5,0.4,0.6,0.6c0.9,1.2,1.3,2.4,1.7,3.7c0.7,2.5,1,5.1,1.3,7.7c1.3,8.9,5.2,20.8,16.8,15.7c11.1-4.9,15-17.2,17.7-28.6c7.4,6.3,12.2,15,17.9,23c2.2,3.1,6.1,3,8.7,0.6c8.9-8.4,13.5-23.5,11.8-36.4c14.2,3.3,29.4,2,41.6-5.5c1.2,6.5,1.3,13.8,6.8,18.4c3.8,3.2,9.3,0.3,9.1-4.6c-0.1-5.2-2-9.8-4.3-14.4c-0.3-0.5-0.6-1-0.9-1.4c-0.5-1.7-1.6-3.2-3.2-3.8c1.1-1,2.1-2.1,3.1-3.3c2.9-3.4,0.9-7.9-3.1-9c-4-1.1-8.7-2.1-12.9-3.8c5.4-2.8,10.5-6.1,14.6-10.8c7.8-9,9.9-22.8,12.7-34c1.2-4.9-4.6-8-8.5-5.6c-7.7,4.7-15.5,5.9-23.3,3.1c2.1-3.8,4.1-7.5,6-11.3c0.8,0.3,1.7,0.5,2.9,0.3c13.4-2.2,25.7-2.8,38.5,2.3c11.3,4.5,20.8,12.4,29,21.2c12.7,13.7,22.5,30.6,28.7,48.5c-3.3-0.5-6.2,2.6-6.2,6v8c0,2.8,1.7,4.4,3.8,4.8c0.6,2.8,1.6,5.4,3.1,7.9c1.3,2.2,3.8,2.8,6,2.2C448.2,243.1,440.7,270.2,429,296.2z"/><path d="M123.9 297.1c-2.3-2.1-5.1-1.7-6.9-.1-3.2-.6-7.1 1.4-7.2 5.6-.1 7-.5 13.3 2.9 19.7 1.1 2.1 4.3 3 6.4 2.1C129.3 320.4 132.1 304.5 123.9 297.1zM406.8 242c-.4-2.3-2.4-3.7-4.6-4-4.5-2.1-8.1 3-6.9 7.1-.5 3.2-.7 6.4-.9 9.6-.2 4.4-.5 10.4 4.1 12.8 6.2 3.1 11.3-5 11.9-10C411 252.3 410 246.3 406.8 242zM374.5 321.4c-1.1-3.1-5.5-5.1-8.3-2.7-1.3 1.1-2.7 1.9-4 3-1.8 1.5-2.3 3.6-2 5.4-1.9.4-3.7 1.7-4.3 4.1-1.4 5.2-2.8 10.1-2.1 15.5.4 2.7 2.8 5.6 5.9 5.1C372.1 349.4 378.7 332.7 374.5 321.4zM331.5 398.8c-4.4-2.7-9.7.1-13.3 2.9-3 2.3-2.6 6-.8 8.3-1.9 4.3-3.7 8.5-4.5 13.2-.5 3.2 2.2 7.2 5.8 6.5 9.3-1.7 15.8-10.3 17.1-19.5C336.4 405.8 335.5 401.3 331.5 398.8zM306.9 350.8c-2.2 0-4.1.1-5.7 1.9-.6.7-1.1 1.4-1.6 2.1-.2 0-.4 0-.7 0-3.2.2-5 2.9-5.1 5.9 0-1.1-.2 1.5-.2 1.7-.2 1.6-.3 3.2-.4 4.8-.2 3.1 0 6 1.5 8.8 2.4 4.5 8 6.5 12.4 3.9 3.7-2.1 4.6-7.6 5.1-11.4.5-4.2.6-8.5.6-12.7C312.8 352.7 309.7 350.8 306.9 350.8zM356.6 261.3c-1.3-4-5.3-7.4-9.6-7.3-6.8.2-8.2 7.1-10.4 12.3-.1.2-.2.4-.3.5-.2.3-.3.7-.4 1-.2.3-.4.7-.6 1-.5.8-.7 1.8-.6 2.7-.3 1.6-.3 3.2.3 4.8 1.2 3.2 4.6 5.1 7.9 4.5 5.5-.9 10.5-5.3 12.9-10.3C357.3 267.7 357.6 264.4 356.6 261.3zM219.4 408.6c-4.1-3.9-11.4-4-14.4 1.4-2.7 4.9-1.1 11 .1 16.1.3 1.4 1 2.3 1.9 2.9 1.9 3.9 4.8 7.4 7.9 9.2 2.5 1.5 6.2.1 7.4-2.5C225.6 428.2 225.7 414.6 219.4 408.6zM251.7 329.4c-.6-3.5-2.5-7-6.3-7.5-3.9-.5-7.3 1.9-8.8 5.4-1.6 3.6-1.9 8.1-1.5 12.3 0 .2-.1.4-.1.6-.3 3.8-.3 8.4 3.7 10.4 3.6 1.8 7.4-.4 9.5-3.4 2.1-3.1 3.6-6.8 3.7-10.6-.1 2.8.1-1.5.1-1 0-.7.1-1.4.1-2.1C252 332.2 251.9 330.8 251.7 329.4zM289.4 271.8c-.3.6-.6 1.2-.9 1.8-1.2.7-2.2 1.8-2.6 3.6-1.1 5-.9 9.9.2 14.9.9 3.8 7.1 5.1 9.3 1.8 4.1-6 4.3-13 4.4-20.1C299.8 268 291.9 267.5 289.4 271.8zM191.9 264.9c-2.5-3.7-7.5-4.3-10.6-1-2.6 2.7-2.6 7.4-2.5 11.1-.1 4.2.2 8.5 3.9 11.4 2.1 1.6 6 2.1 7.8-.5C194.4 279.9 196.1 271.3 191.9 264.9zM190.9 339.1c-2.6-2.2-7.1-1.6-8.6 1.7-.5 1-.8 2-1 2.9-.9 1-1.5 2.3-1.5 3.9 0 6.5 1 12.9 7 16.5 2.5 1.5 6.2.1 7.4-2.5C197.4 354.8 197.1 344.3 190.9 339.1zM131.4 393.9c-1.7-.4-3.3.1-4.4 1.1-2.7.3-5.2 2.3-5.1 5.7.3 8.3 5.3 15.2 12 19.5 3.8 2.5 7.9-1.6 7.9-5.4C141.8 406.8 140.9 396 131.4 393.9zM273.8 414.3c-2.6-1.6-6.1 0-7.4 2.5l-3 6c-.9 1.8-.8 3.4 0 4.7-.1 3.3.4 6.5 1.8 9.5 1.5 3.3 6.7 5.5 9.3 1.8C279.2 432.1 282.3 419.5 273.8 414.3zM128.2 219.6c-5.2 5.5-8.9 13.1-10.3 20.6-.9 4.9 4.4 8 8.5 5.6 1-.6 1.9-1.3 2.6-2.1.4-.1.7-.1 1.1-.3 2.8-.9 3.8-3.2 3.6-5.5 0-.4 0-.8.1-.8.5-1.4 1.1-2.9 1.6-4.3 1.2-3.3 2.3-6.5 2.5-10C138 217.7 131.1 216.5 128.2 219.6zM395.4 165.9c-.9-.2-1.7-.2-2.4 0-.2-.5-.3-.9-.4-1.4-.6-2.9-4.5-4.3-7-3.4-3.1 1.1-4 4.1-3.4 7 1 4.5 3.9 8.7 7.6 12.3.1.6.3 1.2.4 1.7.9 3.1 3.5 4 5.8 3.5 1.3.9 2.6 1.8 3.9 2.6 3 1.8 7.4-.6 7.8-3.9C408.9 175.9 403.6 168 395.4 165.9zM255.9 252.3c-.4-3-.7-6.8-2.6-9.3-1.6-2.1-4.3-3.4-7-2.4-1.8.7-2.9 1.9-3.8 3.5-1.1 2.1-1.6 4.8-2 7.1-.2.9-.3 1.9-.4 2.8-.1.3-.2.7-.2 1.1-.2 3-.5 6.7.9 9.5.9 1.7 1.8 3.2 3.6 4.1 1.6.8 3.7.9 5.3.2C255.9 266.2 256.7 258.1 255.9 252.3zM91.8 345.3c-2.8-1.8-7.6.5-7.8 3.9-.8 9.9 3 16.9 7.8 25.1.5.8 1.1 1.4 1.7 1.8.4.4.8.8 1.2 1.2 3 2.5 8.5 1.2 9-3.1C104.9 363.5 101.2 351.3 91.8 345.3z"/></svg>