<?xml version="1.0" encoding="UTF-8"?>
<svg xmlns="http://www.w3.org/2000/svg" xmlns:xlink="http://www.w3.org/1999/xlink" viewBox="0 0 64 64" width="64px" height="64px">
<g id="surface11835080">
<path style=" stroke:none;fill-rule:nonzero;fill:rgb(99.607843%,74.901962%,6.27451%);fill-opacity:1;" d="M 29.261719 23.648438 C 29.050781 23.5 28.761719 23.375 28.5 23.3125 C 28.351562 23.273438 28.1875 23.238281 28.023438 23.238281 C 27.925781 23.238281 27.863281 23.25 27.835938 23.25 C 27.726562 23.460938 27.511719 23.574219 27.300781 23.601562 C 27.050781 24.175781 27.113281 24.960938 27.738281 25.25 C 28.289062 25.5 29.261719 25.601562 29.664062 25.039062 C 29.988281 24.574219 29.664062 23.9375 29.261719 23.648438 Z M 29.261719 23.648438 "/>
<path style=" stroke:none;fill-rule:nonzero;fill:rgb(6.666667%,44.313726%,46.27451%);fill-opacity:1;" d="M 46.039062 49.125 C 45.925781 47.335938 45.800781 45.5625 45.710938 43.773438 C 45.625 41.976562 45.539062 40.175781 45.351562 38.386719 C 45.261719 37.539062 45.164062 36.6875 45.113281 35.835938 C 45.0625 34.976562 45.039062 34.101562 44.835938 33.261719 C 44.835938 33.25 44.835938 33.238281 44.824219 33.226562 C 44.238281 33.226562 43.636719 33.289062 43.050781 33.324219 C 41.636719 33.398438 40.238281 33.398438 38.824219 33.4375 C 35.875 33.511719 32.9375 33.625 30 33.773438 C 27.113281 33.925781 24.238281 34.148438 21.351562 33.789062 C 20.960938 33.738281 20.511719 33.726562 20.074219 33.675781 C 20.0625 33.824219 20.0625 33.960938 20.0625 34.113281 C 20 36.113281 20.023438 38.125 20.101562 40.125 C 20.175781 42.085938 20.25 44.050781 20.539062 46 C 20.8125 47.851562 21.125 49.699219 20.988281 51.585938 C 20.9375 52.261719 20.875 53.136719 21.351562 53.6875 C 21.824219 54.238281 22.75 54.363281 23.4375 54.386719 C 25.25 54.4375 27.0625 54.351562 28.875 54.4375 C 30.898438 54.539062 32.925781 54.675781 34.960938 54.738281 C 36.988281 54.800781 39.023438 54.726562 41.050781 54.601562 C 42.101562 54.539062 43.136719 54.460938 44.175781 54.375 C 44.648438 54.335938 45.125 54.289062 45.601562 54.238281 C 45.761719 54.226562 45.898438 54.199219 46.039062 54.199219 C 46.050781 54.164062 46.074219 54.125 46.101562 54.101562 C 46.351562 52.449219 46.136719 50.761719 46.039062 49.125 Z M 46.039062 49.125 "/>
<path style=" stroke:none;fill-rule:nonzero;fill:rgb(99.607843%,74.901962%,6.27451%);fill-opacity:1;" d="M 21.6875 24.148438 C 21.476562 24 21.1875 23.875 20.925781 23.8125 C 20.773438 23.773438 20.613281 23.738281 20.449219 23.738281 C 20.351562 23.738281 20.289062 23.75 20.261719 23.75 C 20.148438 23.960938 19.9375 24.074219 19.726562 24.101562 C 19.476562 24.675781 19.539062 25.460938 20.164062 25.75 C 20.710938 26 21.6875 26.101562 22.085938 25.539062 C 22.398438 25.074219 22.074219 24.4375 21.6875 24.148438 Z M 45.625 59.289062 C 45.039062 59.273438 44.449219 59.3125 43.863281 59.351562 C 43.875 59.773438 43.914062 60.6875 44.175781 60.800781 C 44.648438 61.011719 45.351562 60.726562 45.824219 60.625 C 46.164062 60.5625 46.5 60.523438 46.835938 60.460938 C 47.023438 60.425781 46.988281 60.488281 46.988281 60.261719 C 47 59.949219 47.023438 59.636719 47.039062 59.335938 C 47.039062 59.324219 47.039062 59.3125 47.039062 59.300781 C 46.539062 59.300781 46.050781 59.289062 45.625 59.289062 Z M 45.625 59.289062 "/>
<path style=" stroke:none;fill-rule:nonzero;fill:rgb(83.92157%,90.588236%,90.588236%);fill-opacity:1;" d="M 46.523438 5.726562 C 44.925781 5.710938 43.3125 5.800781 41.710938 5.800781 C 39.726562 5.789062 37.6875 5.875 35.699219 5.710938 C 34.851562 5.636719 34 5.585938 33.148438 5.636719 C 32.789062 5.664062 31.738281 5.738281 31.4375 6.050781 C 31.4375 6.085938 31.4375 6.113281 31.4375 6.148438 C 31.4375 6.199219 31.4375 6.25 31.4375 6.300781 C 33.1875 6.398438 34.925781 6.585938 36.664062 6.648438 C 38.523438 6.710938 40.386719 6.761719 42.25 6.761719 C 43.863281 6.761719 45.574219 6.726562 47.125 6.289062 C 47.363281 6.210938 47.636719 6.148438 47.863281 6.023438 C 47.886719 6.011719 47.925781 5.988281 47.949219 5.976562 C 47.574219 5.726562 46.898438 5.726562 46.523438 5.726562 Z M 46.523438 5.726562 "/>
<path style=" stroke:none;fill-rule:nonzero;fill:rgb(99.607843%,74.901962%,6.27451%);fill-opacity:1;" d="M 45.773438 30.988281 C 45.6875 30.886719 45.625 30.761719 45.601562 30.625 C 41.3125 30.625 37.023438 30.664062 32.738281 30.824219 C 28.300781 30.988281 23.863281 31.1875 19.425781 31.210938 C 19.425781 31.460938 19.4375 31.699219 19.523438 31.914062 C 19.648438 32.238281 20.023438 32.261719 20.335938 32.300781 C 21.351562 32.4375 22.375 32.539062 23.386719 32.585938 C 25.976562 32.710938 28.5625 32.460938 31.148438 32.335938 C 33.851562 32.210938 36.550781 32.113281 39.25 32.050781 C 40.5 32.023438 41.738281 32.023438 42.988281 31.949219 C 43.5625 31.914062 44.148438 31.835938 44.738281 31.851562 C 45.074219 31.863281 45.4375 31.898438 45.789062 31.875 C 45.773438 31.5625 45.789062 31.273438 45.773438 30.988281 Z M 23.523438 60.164062 C 23.511719 59.988281 23.5 59.800781 23.5 59.625 C 22.476562 59.5625 21.449219 59.476562 20.449219 59.3125 C 20.460938 59.539062 20.476562 59.75 20.523438 59.960938 C 20.550781 60.101562 20.636719 60.648438 20.761719 60.738281 C 20.925781 60.875 21.636719 60.710938 21.851562 60.726562 C 22.335938 60.75 22.960938 60.851562 23.425781 60.699219 C 23.460938 60.6875 23.488281 60.6875 23.5 60.6875 C 23.5 60.675781 23.5 60.648438 23.5 60.625 C 23.511719 60.476562 23.523438 60.324219 23.523438 60.164062 Z M 36.648438 23.648438 C 36.4375 23.5 36.148438 23.375 35.886719 23.3125 C 35.738281 23.273438 35.574219 23.238281 35.414062 23.238281 C 35.3125 23.238281 35.25 23.25 35.226562 23.25 C 35.113281 23.460938 34.898438 23.574219 34.6875 23.601562 C 34.4375 24.175781 34.5 24.960938 35.125 25.25 C 35.675781 25.5 36.648438 25.601562 37.050781 25.039062 C 37.375 24.574219 37.050781 23.9375 36.648438 23.648438 Z M 36.648438 23.648438 "/>
<path style=" stroke:none;fill-rule:nonzero;fill:rgb(83.92157%,90.588236%,90.588236%);fill-opacity:1;" d="M 48.363281 7.300781 C 48.023438 7.460938 47.664062 7.5625 47.375 7.625 C 45.710938 7.988281 44.050781 8.136719 42.351562 8.125 C 40.488281 8.113281 38.613281 8.101562 36.761719 8.011719 C 34.960938 7.9375 33.1875 7.738281 31.386719 7.648438 C 31.363281 9.523438 31.414062 11.386719 31.324219 13.261719 C 31.289062 14.113281 31.1875 15.289062 31.726562 16.011719 C 32.101562 16.511719 32.800781 16.601562 33.449219 16.699219 C 33.726562 16.1875 34.226562 15.835938 34.773438 15.5625 C 36.011719 14.9375 37.625 14.625 38.210938 13.210938 C 38.449219 12.636719 39.273438 12.761719 39.476562 13.289062 C 39.738281 13.976562 40 14.613281 40.074219 15.273438 C 40.960938 14.800781 41.625 14.050781 41.648438 12.914062 C 41.675781 12.039062 42.949219 11.914062 43.023438 12.8125 C 43.0625 13.398438 43.476562 13.925781 43.648438 14.476562 C 43.738281 14.738281 43.789062 15.039062 43.8125 15.335938 C 44.273438 15.023438 44.664062 14.574219 45.0625 14.164062 C 45.449219 13.761719 46.25 13.925781 46.261719 14.5625 C 46.273438 15.375 46.476562 16.25 46.460938 17.074219 C 47.289062 17 48.011719 16.699219 48.375 15.863281 C 48.738281 15.011719 48.835938 14.039062 48.851562 13.125 C 48.875 11.148438 48.511719 9.238281 48.363281 7.300781 Z M 48.363281 7.300781 "/>
<path style=" stroke:none;fill-rule:nonzero;fill:rgb(73.725492%,73.725492%,73.725492%);fill-opacity:1;" d="M 49.175781 50.574219 C 49.039062 48.238281 48.9375 45.898438 48.886719 43.5625 C 48.789062 38.949219 48.851562 34.351562 48.710938 29.738281 C 48.664062 27.824219 48.800781 25.886719 48.585938 23.988281 C 48.4375 22.5625 48.148438 21 46.699219 20.363281 C 45.238281 19.726562 43.425781 19.886719 41.875 19.949219 C 39.875 20.039062 37.886719 20.210938 35.886719 20.210938 C 32.300781 20.238281 28.726562 19.738281 25.136719 19.648438 C 22.1875 19.574219 18.988281 19.675781 16.414062 21.25 C 16.414062 22.761719 16.414062 24.273438 16.511719 25.773438 C 16.613281 27.261719 16.789062 28.738281 16.773438 30.238281 C 16.75 33.335938 16.636719 36.425781 16.75 39.539062 C 16.875 42.699219 17.085938 45.851562 17.261719 49 C 17.351562 50.539062 17.539062 52.0625 17.574219 53.601562 C 17.601562 54.5625 17.238281 55.800781 17.625 56.699219 C 17.636719 56.726562 17.636719 56.75 17.648438 56.761719 C 18.386719 57.550781 19.523438 57.773438 20.5625 57.925781 C 22.125 58.136719 23.6875 58.289062 25.261719 58.324219 C 28.648438 58.386719 32.039062 58.363281 35.425781 58.324219 C 37.136719 58.3125 38.835938 58.273438 40.550781 58.199219 C 42.050781 58.125 43.5625 57.898438 45.0625 57.898438 C 45.710938 57.898438 46.363281 57.925781 47.011719 57.898438 C 47.25 57.523438 47.8125 57.351562 48.113281 57.800781 C 48.6875 57.726562 49.414062 57.550781 49.613281 57 C 49.550781 54.875 49.300781 52.726562 49.175781 50.574219 Z M 41.101562 22.386719 C 41.226562 22.148438 41.4375 22.039062 41.648438 22.023438 C 42.199219 20.914062 44.039062 21.414062 44.898438 21.949219 C 45.976562 22.625 46.523438 24.0625 45.851562 25.210938 C 45.136719 26.425781 43.289062 26.613281 42.125 25.988281 C 40.8125 25.289062 40.414062 23.6875 41.101562 22.386719 Z M 33.511719 22.886719 C 33.636719 22.648438 33.851562 22.539062 34.0625 22.523438 C 34.613281 21.414062 36.449219 21.914062 37.3125 22.449219 C 38.386719 23.125 38.9375 24.5625 38.261719 25.710938 C 37.550781 26.925781 35.699219 27.113281 34.539062 26.488281 C 33.226562 25.789062 32.824219 24.1875 33.511719 22.886719 Z M 26.125 22.886719 C 26.25 22.648438 26.460938 22.539062 26.675781 22.523438 C 27.226562 21.414062 29.0625 21.914062 29.925781 22.449219 C 31 23.125 31.550781 24.5625 30.875 25.710938 C 30.164062 26.925781 28.3125 27.113281 27.148438 26.488281 C 25.835938 25.789062 25.4375 24.1875 26.125 22.886719 Z M 18.539062 23.386719 C 18.664062 23.148438 18.875 23.039062 19.085938 23.023438 C 19.636719 21.914062 21.476562 22.414062 22.335938 22.949219 C 23.414062 23.625 23.960938 25.0625 23.289062 26.210938 C 22.574219 27.425781 20.726562 27.613281 19.5625 26.988281 C 18.25 26.289062 17.851562 24.6875 18.539062 23.386719 Z M 47.585938 52.976562 C 47.5625 53.550781 47.6875 54.851562 47.101562 55.1875 C 47 55.25 46.898438 55.273438 46.800781 55.289062 C 46.789062 55.3125 46.761719 55.335938 46.75 55.363281 C 46.761719 55.351562 46.761719 55.335938 46.773438 55.324219 C 46.550781 55.710938 46.113281 55.738281 45.800781 55.574219 C 45.0625 55.648438 44.324219 55.726562 43.585938 55.789062 C 41.574219 55.949219 39.550781 56.050781 37.539062 56.113281 C 35.5 56.175781 33.460938 56.039062 31.4375 55.914062 C 29.476562 55.800781 27.488281 55.664062 25.523438 55.710938 C 24 55.75 22.210938 55.9375 20.875 55.039062 C 19.476562 54.085938 19.636719 52.5 19.664062 51.023438 C 19.6875 49.136719 19.324219 47.289062 19.074219 45.414062 C 18.8125 43.449219 18.773438 41.460938 18.710938 39.488281 C 18.648438 37.488281 18.625 35.488281 18.726562 33.488281 C 18.726562 33.375 18.761719 33.273438 18.800781 33.199219 C 18.800781 33.199219 18.800781 33.199219 18.789062 33.1875 C 18.023438 32.550781 18.050781 31.5625 18.0625 30.648438 C 18.0625 30.476562 18.113281 30.335938 18.199219 30.226562 C 18.273438 30 18.460938 29.824219 18.773438 29.824219 C 23.476562 29.824219 28.175781 29.601562 32.875 29.425781 C 37.398438 29.261719 41.925781 29.238281 46.449219 29.238281 C 46.800781 29.238281 47.1875 29.476562 47.1875 29.875 L 47.1875 29.960938 C 47.1875 30.113281 47.148438 30.25 47.074219 30.375 C 47.085938 30.398438 47.085938 30.4375 47.101562 30.460938 C 47.226562 31.113281 47.113281 31.726562 47.101562 32.375 C 47.085938 32.675781 46.960938 32.988281 46.636719 33.074219 C 46.5 33.113281 46.363281 33.136719 46.226562 33.164062 C 46.574219 34.898438 46.5625 36.738281 46.75 38.488281 C 46.9375 40.375 47.023438 42.25 47.113281 44.136719 C 47.226562 46.164062 47.363281 48.1875 47.488281 50.210938 C 47.539062 51.148438 47.625 52.0625 47.585938 52.976562 Z M 47.585938 52.976562 "/>
<path style=" stroke:none;fill-rule:nonzero;fill:rgb(93.725491%,28.235295%,13.725491%);fill-opacity:1;" d="M 45.085938 16.0625 C 44.601562 16.5 44.050781 16.875 43.386719 17.011719 C 42.988281 17.101562 42.488281 16.898438 42.476562 16.414062 C 42.460938 15.960938 42.449219 15.476562 42.351562 15.023438 C 41.726562 15.976562 40.699219 16.636719 39.476562 17.011719 C 38.886719 17.1875 38.386719 16.625 38.636719 16.0625 C 38.789062 15.710938 38.761719 15.351562 38.675781 15 C 38.101562 15.574219 37.351562 15.960938 36.574219 16.289062 C 36.023438 16.511719 35.199219 16.738281 34.800781 17.1875 C 34.75 17.238281 34.726562 17.289062 34.699219 17.335938 C 34.75 17.488281 34.75 17.636719 34.710938 17.773438 C 34.800781 18.023438 35.011719 18.273438 35.164062 18.476562 C 35.25 18.601562 35.289062 18.726562 35.289062 18.851562 C 37.625 18.851562 39.9375 18.636719 42.273438 18.5625 C 42.960938 18.539062 43.6875 18.523438 44.414062 18.574219 C 44.414062 18.375 44.5 18.1875 44.699219 18.039062 C 45.226562 17.636719 45.199219 16.835938 45.085938 16.0625 Z M 45.085938 16.0625 "/>
<path style=" stroke:none;fill-rule:nonzero;fill:rgb(99.607843%,74.901962%,6.27451%);fill-opacity:1;" d="M 44.238281 23.148438 C 44.023438 23 43.738281 22.875 43.476562 22.8125 C 43.324219 22.773438 43.164062 22.738281 43 22.738281 C 42.898438 22.738281 42.835938 22.75 42.8125 22.75 C 42.699219 22.960938 42.488281 23.074219 42.273438 23.101562 C 42.023438 23.675781 42.085938 24.460938 42.710938 24.75 C 43.261719 25 44.238281 25.101562 44.636719 24.539062 C 44.960938 24.074219 44.636719 23.4375 44.238281 23.148438 Z M 44.238281 23.148438 "/>
<path style=" stroke:none;fill-rule:nonzero;fill:rgb(0%,0%,0%);fill-opacity:1;" d="M 47.476562 50.238281 C 47.363281 48.210938 47.210938 46.1875 47.101562 44.164062 C 47 42.273438 46.925781 40.398438 46.738281 38.511719 C 46.5625 36.75 46.5625 34.925781 46.210938 33.1875 C 46.351562 33.164062 46.488281 33.136719 46.625 33.101562 C 46.9375 33.011719 47.074219 32.6875 47.085938 32.398438 C 47.101562 31.75 47.210938 31.125 47.085938 30.488281 C 47.074219 30.449219 47.074219 30.425781 47.0625 30.398438 C 47.136719 30.289062 47.175781 30.136719 47.175781 29.988281 L 47.175781 29.898438 C 47.175781 29.5 46.789062 29.261719 46.4375 29.261719 C 41.914062 29.261719 37.386719 29.289062 32.863281 29.449219 C 28.164062 29.625 23.476562 29.835938 18.761719 29.851562 C 18.449219 29.851562 18.261719 30.023438 18.1875 30.25 C 18.101562 30.363281 18.050781 30.5 18.050781 30.675781 C 18.039062 31.585938 18.023438 32.574219 18.773438 33.210938 C 18.773438 33.210938 18.773438 33.210938 18.789062 33.226562 C 18.75 33.3125 18.726562 33.414062 18.710938 33.511719 C 18.613281 35.511719 18.636719 37.511719 18.699219 39.511719 C 18.761719 41.488281 18.8125 43.476562 19.0625 45.4375 C 19.3125 47.300781 19.675781 49.148438 19.648438 51.050781 C 19.625 52.523438 19.460938 54.125 20.863281 55.0625 C 22.199219 55.960938 23.976562 55.773438 25.511719 55.738281 C 27.488281 55.6875 29.460938 55.835938 31.425781 55.9375 C 33.449219 56.050781 35.5 56.1875 37.523438 56.136719 C 39.550781 56.074219 41.5625 55.976562 43.574219 55.8125 C 44.3125 55.75 45.050781 55.6875 45.789062 55.601562 C 46.101562 55.761719 46.523438 55.726562 46.761719 55.351562 C 46.75 55.363281 46.75 55.375 46.738281 55.386719 C 46.761719 55.363281 46.773438 55.335938 46.789062 55.3125 C 46.886719 55.300781 46.988281 55.261719 47.085938 55.210938 C 47.664062 54.875 47.550781 53.574219 47.574219 53 C 47.625 52.0625 47.539062 51.148438 47.476562 50.238281 Z M 19.5 31.898438 C 19.414062 31.6875 19.398438 31.449219 19.398438 31.199219 C 23.835938 31.1875 28.273438 30.988281 32.710938 30.8125 C 37 30.648438 41.289062 30.625 45.574219 30.613281 C 45.601562 30.75 45.664062 30.875 45.75 30.976562 C 45.761719 31.261719 45.75 31.5625 45.738281 31.851562 C 45.386719 31.875 45.023438 31.835938 44.6875 31.824219 C 44.113281 31.8125 43.523438 31.886719 42.9375 31.925781 C 41.699219 32 40.449219 32 39.199219 32.023438 C 36.5 32.085938 33.800781 32.1875 31.101562 32.3125 C 28.511719 32.4375 25.925781 32.675781 23.335938 32.5625 C 22.324219 32.511719 21.289062 32.414062 20.289062 32.273438 C 20 32.25 19.625 32.238281 19.5 31.898438 Z M 46.125 54.085938 C 46.101562 54.125 46.074219 54.148438 46.0625 54.1875 C 45.925781 54.1875 45.789062 54.210938 45.625 54.226562 C 45.148438 54.273438 44.675781 54.324219 44.199219 54.363281 C 43.164062 54.449219 42.113281 54.523438 41.074219 54.585938 C 39.050781 54.699219 37.023438 54.789062 34.988281 54.726562 C 32.960938 54.664062 30.9375 54.511719 28.898438 54.425781 C 27.085938 54.335938 25.273438 54.425781 23.460938 54.375 C 22.773438 54.351562 21.851562 54.238281 21.375 53.675781 C 20.898438 53.125 20.960938 52.25 21.011719 51.574219 C 21.136719 49.6875 20.835938 47.851562 20.5625 45.988281 C 20.273438 44.039062 20.199219 42.085938 20.125 40.113281 C 20.050781 38.113281 20.011719 36.101562 20.085938 34.101562 C 20.085938 33.949219 20.101562 33.8125 20.101562 33.664062 C 20.539062 33.710938 20.988281 33.726562 21.375 33.773438 C 24.261719 34.136719 27.136719 33.914062 30.023438 33.761719 C 32.960938 33.613281 35.914062 33.5 38.851562 33.425781 C 40.261719 33.386719 41.664062 33.386719 43.074219 33.3125 C 43.664062 33.273438 44.261719 33.210938 44.851562 33.210938 C 44.851562 33.226562 44.851562 33.238281 44.863281 33.25 C 45.0625 34.101562 45.085938 34.960938 45.136719 35.824219 C 45.1875 36.675781 45.273438 37.523438 45.375 38.375 C 45.5625 40.175781 45.664062 41.960938 45.738281 43.761719 C 45.824219 45.550781 45.949219 47.324219 46.0625 49.113281 C 46.136719 50.761719 46.351562 52.449219 46.125 54.085938 Z M 22.335938 22.9375 C 21.488281 22.398438 19.636719 21.898438 19.085938 23.011719 C 18.875 23.023438 18.675781 23.136719 18.539062 23.375 C 17.851562 24.675781 18.25 26.273438 19.550781 26.960938 C 20.710938 27.585938 22.5625 27.398438 23.273438 26.1875 C 23.949219 25.0625 23.414062 23.613281 22.335938 22.9375 Z M 22.085938 25.539062 C 21.6875 26.101562 20.710938 26 20.164062 25.75 C 19.539062 25.460938 19.476562 24.6875 19.726562 24.101562 C 19.9375 24.074219 20.148438 23.976562 20.261719 23.75 C 20.300781 23.738281 20.363281 23.738281 20.449219 23.738281 C 20.601562 23.738281 20.773438 23.789062 20.925781 23.8125 C 21.1875 23.875 21.460938 24 21.6875 24.148438 C 22.074219 24.4375 22.398438 25.074219 22.085938 25.539062 Z M 29.914062 22.4375 C 29.0625 21.898438 27.210938 21.398438 26.664062 22.511719 C 26.449219 22.523438 26.25 22.636719 26.113281 22.875 C 25.425781 24.175781 25.824219 25.773438 27.125 26.460938 C 28.289062 27.085938 30.136719 26.898438 30.851562 25.6875 C 31.539062 24.5625 30.988281 23.113281 29.914062 22.4375 Z M 29.664062 25.039062 C 29.261719 25.601562 28.289062 25.5 27.738281 25.25 C 27.113281 24.960938 27.050781 24.1875 27.300781 23.601562 C 27.511719 23.574219 27.726562 23.476562 27.835938 23.25 C 27.875 23.238281 27.9375 23.238281 28.023438 23.238281 C 28.175781 23.238281 28.351562 23.289062 28.5 23.3125 C 28.761719 23.375 29.039062 23.5 29.261719 23.648438 C 29.664062 23.9375 29.988281 24.574219 29.664062 25.039062 Z M 37.300781 22.4375 C 36.449219 21.898438 34.601562 21.398438 34.050781 22.511719 C 33.835938 22.523438 33.636719 22.636719 33.5 22.875 C 32.8125 24.175781 33.210938 25.773438 34.511719 26.460938 C 35.675781 27.085938 37.523438 26.898438 38.238281 25.6875 C 38.925781 24.5625 38.375 23.113281 37.300781 22.4375 Z M 37.050781 25.039062 C 36.648438 25.601562 35.675781 25.5 35.125 25.25 C 34.5 24.960938 34.4375 24.1875 34.6875 23.601562 C 34.898438 23.574219 35.113281 23.476562 35.226562 23.25 C 35.261719 23.238281 35.324219 23.238281 35.414062 23.238281 C 35.5625 23.238281 35.738281 23.289062 35.886719 23.3125 C 36.148438 23.375 36.425781 23.5 36.648438 23.648438 C 37.050781 23.9375 37.375 24.574219 37.050781 25.039062 Z M 44.886719 21.9375 C 44.039062 21.398438 42.1875 20.898438 41.636719 22.011719 C 41.425781 22.023438 41.226562 22.136719 41.085938 22.375 C 40.398438 23.675781 40.800781 25.273438 42.101562 25.960938 C 43.261719 26.585938 45.113281 26.398438 45.824219 25.1875 C 46.511719 24.0625 45.960938 22.613281 44.886719 21.9375 Z M 44.636719 24.539062 C 44.238281 25.101562 43.261719 25 42.710938 24.75 C 42.085938 24.460938 42.023438 23.6875 42.273438 23.101562 C 42.488281 23.074219 42.699219 22.976562 42.8125 22.75 C 42.851562 22.738281 42.914062 22.738281 43 22.738281 C 43.148438 22.738281 43.324219 22.789062 43.476562 22.8125 C 43.738281 22.875 44.011719 23 44.238281 23.148438 C 44.636719 23.4375 44.960938 24.074219 44.636719 24.539062 Z M 44.636719 24.539062 "/>
<path style=" stroke:none;fill-rule:nonzero;fill:rgb(0%,0%,0%);fill-opacity:1;" d="M 52.488281 7.9375 C 51.886719 7.324219 51.039062 7.273438 50.25 7.375 C 50.113281 7.386719 49.949219 7.425781 49.789062 7.476562 C 49.726562 6.886719 49.6875 6.363281 49.675781 5.898438 C 49.675781 5.5625 49.476562 5.375 49.238281 5.3125 C 48.675781 4.4375 47.148438 4.363281 46.25 4.363281 C 44.625 4.351562 42.988281 4.4375 41.363281 4.4375 C 39.511719 4.4375 37.613281 4.511719 35.773438 4.351562 C 34.824219 4.273438 33.863281 4.210938 32.914062 4.289062 C 31.636719 4.375 29.976562 4.789062 29.976562 6.351562 C 29.976562 6.476562 30 6.574219 30.050781 6.648438 C 30.039062 6.863281 30.039062 7.085938 30.039062 7.300781 C 28.449219 6.675781 25.851562 8.226562 26.789062 10.050781 C 27.273438 10.988281 28.898438 11.523438 30.050781 11.273438 C 30.023438 12.210938 29.9375 13.164062 29.9375 14.101562 C 29.925781 15.125 30.085938 16.261719 30.800781 17.050781 C 31.476562 17.800781 32.425781 17.875 33.351562 18.0625 C 33.4375 18.324219 33.574219 18.585938 33.726562 18.824219 C 31.585938 18.738281 29.460938 18.523438 27.324219 18.398438 C 23.300781 18.164062 18.761719 17.988281 15.289062 20.375 C 14.960938 20.601562 14.9375 20.949219 15.074219 21.226562 C 15.074219 22.699219 15.085938 24.175781 15.164062 25.648438 C 15.25 27.226562 15.4375 28.773438 15.4375 30.351562 C 15.425781 33.539062 15.300781 36.699219 15.425781 39.886719 C 15.550781 43.050781 15.773438 46.199219 15.9375 49.351562 C 16.023438 50.875 16.199219 52.398438 16.238281 53.925781 C 16.261719 54.863281 16 55.875 16.238281 56.789062 C 16.199219 56.949219 16.226562 57.125 16.351562 57.3125 C 17.039062 58.238281 18.011719 58.738281 19.074219 59.023438 C 19.085938 59.976562 19.199219 61.039062 19.851562 61.761719 C 20.335938 62.3125 21.324219 62.074219 21.960938 62.085938 C 22.75 62.113281 23.648438 62.226562 24.335938 61.773438 C 25 61.351562 24.9375 60.414062 24.886719 59.664062 C 28.4375 59.800781 32.011719 59.699219 35.550781 59.675781 C 37.425781 59.664062 39.289062 59.625 41.164062 59.523438 C 41.613281 59.5 42.050781 59.460938 42.5 59.425781 C 42.539062 60.25 42.6875 61.261719 43.324219 61.824219 C 44.101562 62.523438 45.324219 62.0625 46.199219 61.914062 C 47.050781 61.761719 48.074219 61.726562 48.300781 60.710938 C 48.414062 60.226562 48.386719 59.6875 48.414062 59.1875 C 48.414062 59.175781 48.414062 59.148438 48.414062 59.136719 C 49.550781 58.949219 50.5625 58.476562 50.960938 57.324219 C 50.976562 57.300781 50.976562 57.273438 50.988281 57.25 C 50.988281 57.238281 51 57.226562 51 57.210938 C 51.050781 57.0625 51.039062 56.9375 51 56.824219 C 50.925781 55.023438 50.710938 53.210938 50.601562 51.414062 C 50.476562 49.398438 50.375 47.386719 50.3125 45.363281 C 50.175781 41.324219 50.261719 37.273438 50.1875 33.238281 C 50.148438 31.261719 50.0625 29.289062 50.074219 27.300781 C 50.085938 25.449219 50.101562 23.550781 49.585938 21.75 C 49.039062 19.851562 47.574219 19.039062 45.914062 18.710938 C 45.988281 18.613281 46.0625 18.523438 46.113281 18.425781 L 46.125 18.425781 C 49.949219 18.363281 50.414062 14.949219 50.199219 11.488281 C 51 11.363281 51.851562 11.101562 52.460938 10.5625 C 53.324219 9.835938 53.261719 8.738281 52.488281 7.9375 Z M 30.023438 9.789062 C 29.550781 10.164062 28.5625 9.824219 28.125 9.5 C 27.863281 9.300781 27.886719 9.25 28.085938 9.011719 C 28.386719 8.664062 29.0625 8.351562 29.511719 8.5625 C 29.699219 8.648438 29.875 8.648438 30.011719 8.601562 C 30.011719 9 30.023438 9.386719 30.023438 9.789062 C 30.039062 9.789062 30.023438 9.789062 30.023438 9.789062 Z M 31.425781 6.039062 C 31.726562 5.726562 32.789062 5.648438 33.136719 5.625 C 33.988281 5.5625 34.835938 5.625 35.6875 5.699219 C 37.675781 5.863281 39.710938 5.789062 41.699219 5.789062 C 43.3125 5.789062 44.914062 5.710938 46.511719 5.710938 C 46.886719 5.710938 47.5625 5.710938 47.9375 5.960938 C 47.898438 5.976562 47.875 6 47.851562 6.011719 C 47.625 6.136719 47.363281 6.210938 47.113281 6.273438 C 45.5625 6.710938 43.851562 6.75 42.238281 6.75 C 40.375 6.75 38.5 6.710938 36.648438 6.636719 C 34.898438 6.574219 33.164062 6.375 31.425781 6.289062 C 31.425781 6.238281 31.425781 6.1875 31.425781 6.136719 C 31.425781 6.101562 31.425781 6.074219 31.425781 6.039062 Z M 23.488281 60.648438 C 23.488281 60.675781 23.488281 60.699219 23.488281 60.710938 C 23.476562 60.710938 23.449219 60.710938 23.414062 60.726562 C 22.949219 60.875 22.324219 60.761719 21.835938 60.75 C 21.613281 60.738281 20.914062 60.886719 20.75 60.761719 C 20.636719 60.664062 20.550781 60.125 20.511719 59.988281 C 20.460938 59.773438 20.449219 59.550781 20.4375 59.335938 C 21.449219 59.5 22.476562 59.585938 23.488281 59.648438 C 23.5 59.824219 23.511719 60.011719 23.511719 60.1875 C 23.523438 60.324219 23.511719 60.476562 23.488281 60.648438 Z M 47.023438 59.335938 C 47.011719 59.648438 46.988281 59.960938 46.976562 60.261719 C 46.960938 60.488281 47 60.425781 46.824219 60.460938 C 46.488281 60.523438 46.148438 60.5625 45.8125 60.625 C 45.335938 60.726562 44.636719 61.011719 44.164062 60.800781 C 43.898438 60.6875 43.863281 59.773438 43.851562 59.351562 C 44.4375 59.3125 45.023438 59.273438 45.613281 59.289062 C 46.039062 59.289062 46.523438 59.300781 47.023438 59.289062 C 47.039062 59.300781 47.023438 59.324219 47.023438 59.335938 Z M 46.699219 20.363281 C 48.164062 21 48.4375 22.5625 48.585938 23.988281 C 48.789062 25.898438 48.648438 27.824219 48.710938 29.738281 C 48.851562 34.351562 48.789062 38.949219 48.886719 43.5625 C 48.9375 45.898438 49.039062 48.238281 49.175781 50.574219 C 49.300781 52.726562 49.550781 54.875 49.636719 57.011719 C 49.4375 57.5625 48.699219 57.738281 48.136719 57.8125 C 47.835938 57.363281 47.261719 57.523438 47.039062 57.914062 C 46.386719 57.9375 45.738281 57.914062 45.085938 57.914062 C 43.585938 57.914062 42.074219 58.136719 40.574219 58.210938 C 38.863281 58.289062 37.164062 58.324219 35.449219 58.335938 C 32.0625 58.363281 28.675781 58.398438 25.289062 58.335938 C 23.710938 58.3125 22.148438 58.148438 20.585938 57.9375 C 19.550781 57.800781 18.398438 57.5625 17.675781 56.773438 C 17.664062 56.75 17.664062 56.738281 17.648438 56.710938 C 17.261719 55.8125 17.613281 54.574219 17.601562 53.613281 C 17.5625 52.074219 17.375 50.539062 17.289062 49.011719 C 17.113281 45.863281 16.898438 42.699219 16.773438 39.550781 C 16.648438 36.4375 16.773438 33.363281 16.800781 30.25 C 16.8125 28.75 16.636719 27.273438 16.539062 25.789062 C 16.4375 24.289062 16.4375 22.773438 16.4375 21.261719 C 19.011719 19.6875 22.210938 19.574219 25.164062 19.664062 C 28.75 19.761719 32.324219 20.25 35.914062 20.226562 C 37.914062 20.210938 39.898438 20.050781 41.898438 19.960938 C 43.4375 19.886719 45.25 19.726562 46.699219 20.363281 Z M 39.460938 17.011719 C 40.6875 16.648438 41.710938 15.988281 42.335938 15.023438 C 42.4375 15.476562 42.449219 15.949219 42.460938 16.414062 C 42.476562 16.898438 42.976562 17.101562 43.375 17.011719 C 44.039062 16.875 44.585938 16.5 45.074219 16.0625 C 45.1875 16.835938 45.226562 17.648438 44.675781 18.050781 C 44.476562 18.199219 44.386719 18.386719 44.386719 18.585938 C 43.664062 18.550781 42.925781 18.5625 42.25 18.574219 C 39.914062 18.648438 37.601562 18.863281 35.261719 18.863281 C 35.261719 18.738281 35.226562 18.613281 35.136719 18.488281 C 34.988281 18.273438 34.789062 18.039062 34.6875 17.789062 C 34.726562 17.648438 34.726562 17.488281 34.675781 17.351562 C 34.699219 17.300781 34.726562 17.25 34.773438 17.199219 C 35.175781 16.738281 36 16.523438 36.550781 16.300781 C 37.324219 15.976562 38.074219 15.585938 38.648438 15.011719 C 38.75 15.363281 38.773438 15.726562 38.613281 16.074219 C 38.386719 16.613281 38.875 17.1875 39.460938 17.011719 Z M 48.835938 13.113281 C 48.824219 14.039062 48.726562 15 48.363281 15.851562 C 48 16.699219 47.289062 16.988281 46.449219 17.0625 C 46.460938 16.25 46.273438 15.363281 46.25 14.550781 C 46.238281 13.914062 45.4375 13.75 45.050781 14.148438 C 44.648438 14.5625 44.261719 15 43.800781 15.324219 C 43.773438 15.023438 43.726562 14.726562 43.636719 14.460938 C 43.449219 13.914062 43.050781 13.386719 43.011719 12.800781 C 42.949219 11.898438 41.664062 12.039062 41.636719 12.898438 C 41.613281 14.039062 40.949219 14.789062 40.0625 15.261719 C 40 14.601562 39.726562 13.976562 39.460938 13.273438 C 39.261719 12.75 38.4375 12.625 38.199219 13.199219 C 37.613281 14.613281 36 14.925781 34.761719 15.550781 C 34.226562 15.824219 33.710938 16.175781 33.4375 16.6875 C 32.789062 16.601562 32.074219 16.5 31.710938 16 C 31.175781 15.273438 31.273438 14.101562 31.3125 13.25 C 31.398438 11.375 31.351562 9.511719 31.375 7.636719 C 33.164062 7.726562 34.949219 7.925781 36.75 8 C 38.613281 8.074219 40.476562 8.101562 42.335938 8.113281 C 44.039062 8.125 45.699219 7.976562 47.363281 7.613281 C 47.648438 7.550781 48.011719 7.4375 48.351562 7.289062 C 48.511719 9.238281 48.875 11.148438 48.835938 13.113281 Z M 50.085938 10.148438 C 50.050781 9.726562 50 9.3125 49.949219 8.914062 C 50 8.875 50.050781 8.835938 50.101562 8.789062 C 50.113281 8.789062 50.125 8.789062 50.136719 8.773438 C 50.324219 8.738281 50.511719 8.726562 50.699219 8.710938 C 51.074219 8.6875 51.25 8.699219 51.585938 8.976562 C 52.273438 9.5625 50.675781 10.023438 50.085938 10.148438 Z M 50.085938 10.148438 "/>
<path style=" stroke:none;fill-rule:nonzero;fill:rgb(22.745098%,70.19608%,48.627451%);fill-opacity:1;" d="M 50.550781 39.601562 C 48.394531 39.851562 46.277344 40.574219 44.609375 41.703125 C 42.542969 43.097656 40.886719 45.199219 40.066406 47.625 C 39.550781 49.148438 39.367188 50.796875 39.621094 52.484375 C 39.664062 52.761719 39.714844 53.035156 39.777344 53.308594 C 40.132812 54.859375 40.808594 56.578125 41.714844 58.121094 C 42.707031 59.804688 43.828125 61.058594 45.257812 61.871094 C 45.335938 61.914062 45.554688 62.175781 45.632812 62.21875 C 49.304688 64.171875 53.761719 63.464844 57.261719 61.402344 C 57.347656 61.351562 57.433594 61.296875 57.519531 61.246094 C 58.992188 60.34375 60.425781 59.152344 61.371094 57.628906 C 61.503906 57.414062 61.632812 57.195312 61.753906 56.972656 C 63.433594 53.851562 63.910156 49.78125 62.707031 46.355469 C 62.128906 44.710938 61.246094 43.582031 60.003906 42.5 C 59.90625 42.414062 59.679688 42.082031 59.578125 42 C 59.195312 41.691406 58.796875 41.410156 58.378906 41.15625 C 57.773438 40.789062 57.140625 40.476562 56.488281 40.230469 C 54.710938 39.550781 52.613281 39.359375 50.550781 39.601562 Z M 50.550781 39.601562 "/>
<path style=" stroke:none;fill-rule:nonzero;fill:rgb(0%,0%,0%);fill-opacity:1;" d="M 50.429688 64 C 48.621094 64 46.886719 63.59375 45.339844 62.769531 C 45.21875 62.707031 45.128906 62.617188 44.992188 62.476562 C 44.964844 62.449219 44.929688 62.410156 44.90625 62.390625 C 43.457031 61.554688 42.269531 60.296875 41.179688 58.4375 C 40.265625 56.886719 39.550781 55.113281 39.167969 53.449219 C 39.101562 53.160156 39.046875 52.867188 39.003906 52.578125 C 38.746094 50.851562 38.902344 49.117188 39.476562 47.425781 C 40.320312 44.914062 42.019531 42.699219 44.257812 41.183594 C 45.964844 40.03125 48.175781 39.25 50.480469 38.980469 C 52.730469 38.71875 54.886719 38.949219 56.710938 39.644531 C 57.402344 39.910156 58.074219 40.238281 58.703125 40.621094 C 59.148438 40.894531 59.574219 41.191406 59.972656 41.515625 C 60.074219 41.597656 60.160156 41.707031 60.296875 41.878906 C 60.335938 41.929688 60.398438 42.007812 60.425781 42.039062 C 61.863281 43.292969 62.722656 44.523438 63.296875 46.144531 C 64.511719 49.609375 64.132812 53.871094 62.304688 57.269531 C 62.175781 57.503906 62.042969 57.738281 61.902344 57.957031 C 61.015625 59.386719 59.648438 60.671875 57.847656 61.777344 C 57.757812 61.832031 57.667969 61.886719 57.578125 61.9375 C 55.257812 63.308594 52.785156 64 50.429688 64 Z M 45.972656 61.691406 C 49.144531 63.355469 53.238281 63.046875 56.945312 60.863281 C 57.027344 60.8125 57.113281 60.761719 57.195312 60.710938 C 58.828125 59.710938 60.058594 58.5625 60.84375 57.300781 C 60.964844 57.097656 61.089844 56.890625 61.203125 56.675781 C 62.871094 53.578125 63.222656 49.699219 62.117188 46.5625 C 61.621094 45.152344 60.867188 44.078125 59.59375 42.972656 C 59.5 42.890625 59.414062 42.777344 59.308594 42.648438 C 59.269531 42.59375 59.203125 42.507812 59.171875 42.472656 C 58.820312 42.191406 58.445312 41.929688 58.054688 41.691406 C 57.488281 41.34375 56.886719 41.050781 56.265625 40.8125 C 54.652344 40.195312 52.648438 39.984375 50.625 40.222656 C 48.515625 40.46875 46.5 41.179688 44.957031 42.222656 C 42.945312 43.582031 41.417969 45.570312 40.660156 47.824219 C 40.152344 49.328125 40.011719 50.863281 40.238281 52.394531 C 40.277344 52.648438 40.328125 52.910156 40.386719 53.167969 C 40.742188 54.714844 41.40625 56.359375 42.253906 57.804688 C 43.242188 59.484375 44.292969 60.605469 45.566406 61.328125 C 45.675781 61.390625 45.757812 61.472656 45.886719 61.605469 C 45.910156 61.628906 45.949219 61.667969 45.972656 61.691406 Z M 44.941406 62.410156 C 44.945312 62.410156 44.945312 62.410156 44.949219 62.414062 C 44.945312 62.414062 44.945312 62.410156 44.941406 62.410156 Z M 60.414062 42.027344 C 60.414062 42.03125 60.414062 42.03125 60.414062 42.03125 C 60.414062 42.03125 60.414062 42.03125 60.414062 42.027344 Z M 60.414062 42.027344 "/>
<path style=" stroke:none;fill-rule:nonzero;fill:rgb(0%,0%,0%);fill-opacity:1;" d="M 50.753906 58.242188 C 49.414062 58.242188 47.945312 58.0625 46.605469 57.726562 C 46.269531 57.644531 46.066406 57.304688 46.152344 56.96875 C 46.234375 56.636719 46.574219 56.429688 46.910156 56.515625 C 48.441406 56.898438 50.152344 57.0625 51.59375 56.964844 C 53.941406 56.808594 55.171875 56.109375 55.246094 54.894531 C 55.273438 54.460938 55.101562 53.003906 51.742188 52.410156 C 51.328125 52.335938 50.917969 52.246094 50.652344 52.179688 C 49.558594 51.917969 48.191406 51.480469 47.328125 50.429688 C 46.34375 49.234375 46.410156 47.421875 47.484375 46.210938 C 48.304688 45.285156 50.0625 44.242188 53.765625 44.558594 C 54.746094 44.644531 55.355469 44.980469 55.726562 45.230469 C 56.011719 45.421875 56.089844 45.808594 55.898438 46.097656 C 55.707031 46.382812 55.320312 46.460938 55.03125 46.269531 C 54.738281 46.074219 54.34375 45.863281 53.660156 45.804688 C 51.898438 45.65625 49.5625 45.746094 48.417969 47.039062 C 47.75 47.792969 47.695312 48.910156 48.292969 49.636719 C 48.921875 50.398438 50.039062 50.746094 50.945312 50.964844 C 51.300781 51.050781 51.660156 51.125 51.957031 51.179688 C 54.957031 51.710938 56.613281 53.09375 56.496094 54.972656 C 56.410156 56.308594 55.507812 57.953125 51.675781 58.210938 C 51.378906 58.234375 51.070312 58.242188 50.753906 58.242188 Z M 50.753906 58.242188 "/>
<path style=" stroke:none;fill-rule:nonzero;fill:rgb(0%,0%,0%);fill-opacity:1;" d="M 52.878906 60.746094 C 52.535156 60.746094 52.253906 60.464844 52.253906 60.121094 L 52.253906 42.875 C 52.253906 42.53125 52.535156 42.25 52.878906 42.25 C 53.226562 42.25 53.503906 42.53125 53.503906 42.875 L 53.503906 60.121094 C 53.503906 60.464844 53.226562 60.746094 52.878906 60.746094 Z M 52.878906 60.746094 "/>
<path style=" stroke:none;fill-rule:nonzero;fill:rgb(0%,0%,0%);fill-opacity:1;" d="M 50.382812 59.996094 C 50.035156 59.996094 49.757812 59.714844 49.757812 59.371094 L 49.757812 42.5 C 49.757812 42.15625 50.035156 41.875 50.382812 41.875 C 50.726562 41.875 51.007812 42.15625 51.007812 42.5 L 51.007812 59.371094 C 51.007812 59.714844 50.726562 59.996094 50.382812 59.996094 Z M 50.382812 59.996094 "/>
</g>
</svg>
