<?xml version="1.0" encoding="UTF-8"?>
<svg xmlns="http://www.w3.org/2000/svg" xmlns:xlink="http://www.w3.org/1999/xlink" viewBox="0 0 64 64" width="64px" height="64px">
<g id="surface11860866">
<path style=" stroke:none;fill-rule:nonzero;fill:rgb(52.156866%,79.607844%,97.254902%);fill-opacity:1;" d="M 58.421875 41.648438 L 43.421875 41.648438 C 41.25 45.488281 38.238281 47.648438 33.050781 47.648438 C 26.671875 47.648438 22.121094 42.121094 21.960938 36.488281 L 58.960938 36.488281 C 59.890625 18.238281 47.960938 7.050781 33.75 7.050781 C 17.78125 7 9.25 16 7.25 27.238281 C 5 40.5 8.878906 59.410156 31.921875 59.410156 C 44.929688 59.410156 54.589844 52.730469 58.421875 41.648438 Z M 33 19.058594 C 38.699219 18.914062 43.488281 23.308594 43.828125 29 L 22.109375 29 C 22.652344 23.382812 27.359375 19.089844 33 19.058594 Z M 33 19.058594 "/>
<path style=" stroke:none;fill-rule:nonzero;fill:rgb(52.156866%,79.607844%,97.254902%);fill-opacity:1;" d="M 55.429688 31.800781 C 55.4375 20.519531 46.984375 11.023438 35.777344 9.726562 C 24.574219 8.425781 14.171875 15.734375 11.597656 26.714844 C 9.019531 37.699219 15.089844 48.867188 25.703125 52.6875 C 36.320312 56.503906 48.109375 51.757812 53.121094 41.648438 L 43.410156 41.648438 C 41.238281 45.488281 38.230469 47.648438 33.039062 47.648438 C 26.648438 47.648438 22.109375 42.109375 21.949219 36.488281 L 54.949219 36.488281 C 55.277344 34.949219 55.4375 33.375 55.429688 31.800781 Z M 22.109375 29 C 22.652344 23.382812 27.359375 19.089844 33 19.058594 C 38.699219 18.910156 43.492188 23.308594 43.828125 29 Z M 22.109375 29 "/>
<path style=" stroke:none;fill-rule:nonzero;fill:rgb(43.529412%,77.64706%,94.117647%);fill-opacity:1;" d="M 58.421875 41.648438 C 54.589844 52.730469 44.929688 59.410156 31.921875 59.410156 C 22.5 59.410156 16.289062 56.25 12.390625 51.609375 L 14.339844 49.660156 C 15.75 48.253906 17.976562 48.09375 19.570312 49.289062 C 24.828125 53.398438 31.65625 54.921875 38.164062 53.4375 C 44.667969 51.953125 50.160156 47.621094 53.121094 41.640625 Z M 58.421875 41.648438 "/>
<path style=" stroke:none;fill-rule:nonzero;fill:rgb(62.352943%,86.666667%,100%);fill-opacity:1;" d="M 57.738281 25.328125 L 56.738281 25.660156 C 55.269531 26.136719 53.675781 25.417969 53.058594 24 C 52.058594 21.542969 50.613281 19.296875 48.789062 17.371094 C 44.855469 13.277344 39.402344 11 33.730469 11.078125 L 33.601562 11.078125 C 32.1875 11.074219 30.773438 11.164062 29.371094 11.339844 C 27.863281 11.585938 26.414062 10.660156 26 9.191406 L 25.628906 7.910156 C 28.277344 7.320312 30.988281 7.035156 33.699219 7.058594 C 44.738281 7.058594 54.398438 13.800781 57.738281 25.328125 Z M 57.738281 25.328125 "/>
<path style=" stroke:none;fill-rule:nonzero;fill:rgb(55.29412%,42.352942%,62.352943%);fill-opacity:1;" d="M 33 18.058594 C 26.832031 18.089844 21.691406 22.789062 21.109375 28.929688 C 21.097656 29.203125 21.195312 29.472656 21.382812 29.667969 C 21.574219 29.867188 21.835938 29.980469 22.109375 29.980469 L 43.828125 29.980469 C 44.382812 29.980469 44.828125 29.53125 44.828125 28.980469 C 44.445312 22.761719 39.230469 17.945312 33 18.058594 Z M 23.238281 28 C 24.210938 23.382812 28.28125 20.070312 33 20.058594 C 37.75 19.960938 41.871094 23.324219 42.730469 28 Z M 33 56 C 33.550781 56 34 55.550781 34 55 L 34 53 C 34 52.449219 33.550781 52 33 52 C 32.449219 52 32 52.449219 32 53 L 32 55 C 32 55.550781 32.449219 56 33 56 Z M 37.601562 54.53125 C 37.746094 55.0625 38.296875 55.375 38.828125 55.230469 C 39.363281 55.082031 39.675781 54.53125 39.53125 54 L 39 52.078125 C 38.84375 51.566406 38.304688 51.265625 37.785156 51.40625 C 37.261719 51.546875 36.949219 52.074219 37.070312 52.601562 Z M 21.75 53 C 21.980469 53.132812 22.253906 53.167969 22.511719 53.101562 C 22.769531 53.03125 22.988281 52.863281 23.121094 52.628906 L 24.121094 50.898438 C 24.367188 50.425781 24.199219 49.839844 23.734375 49.570312 C 23.269531 49.300781 22.675781 49.449219 22.390625 49.898438 L 21.390625 51.628906 C 21.253906 51.859375 21.21875 52.132812 21.285156 52.390625 C 21.351562 52.648438 21.519531 52.867188 21.75 53 Z M 42.878906 52.621094 C 43.050781 52.945312 43.386719 53.152344 43.753906 53.15625 C 44.121094 53.160156 44.460938 52.964844 44.640625 52.644531 C 44.816406 52.324219 44.808594 51.929688 44.609375 51.621094 L 43.609375 49.890625 C 43.324219 49.4375 42.730469 49.292969 42.265625 49.5625 C 41.800781 49.828125 41.632812 50.414062 41.878906 50.890625 Z M 27.179688 55.230469 C 27.710938 55.371094 28.257812 55.050781 28.398438 54.519531 L 28.921875 52.589844 C 29.0625 52.230469 28.984375 51.824219 28.722656 51.542969 C 28.460938 51.261719 28.058594 51.152344 27.691406 51.269531 C 27.324219 51.382812 27.054688 51.699219 27 52.078125 L 26.46875 54 C 26.398438 54.257812 26.433594 54.53125 26.570312 54.761719 C 26.703125 54.992188 26.921875 55.160156 27.179688 55.230469 Z M 40.351562 13.320312 C 41.066406 13.589844 41.765625 13.894531 42.449219 14.238281 C 42.589844 14.3125 42.742188 14.347656 42.898438 14.351562 C 43.359375 14.347656 43.761719 14.03125 43.867188 13.582031 C 43.972656 13.132812 43.761719 12.671875 43.351562 12.460938 C 42.601562 12.085938 41.835938 11.75 41.050781 11.460938 C 40.542969 11.304688 40.003906 11.566406 39.816406 12.066406 C 39.632812 12.5625 39.863281 13.117188 40.351562 13.328125 Z M 47.171875 14.878906 C 46.734375 14.589844 46.148438 14.683594 45.828125 15.09375 C 45.503906 15.507812 45.554688 16.097656 45.941406 16.449219 C 48.253906 18.261719 50.164062 20.539062 51.550781 23.128906 C 51.808594 23.617188 52.417969 23.804688 52.90625 23.546875 C 53.394531 23.285156 53.578125 22.679688 53.320312 22.191406 C 52.261719 20.183594 50.914062 18.34375 49.320312 16.730469 C 48.640625 16.070312 47.921875 15.453125 47.171875 14.878906 Z M 47.171875 14.878906 "/>
<path style=" stroke:none;fill-rule:nonzero;fill:rgb(55.29412%,42.352942%,62.352943%);fill-opacity:1;" d="M 57.449219 7 C 53.820312 3.371094 47.269531 3.511719 39.730469 6.699219 C 37.722656 6.242188 35.667969 6.011719 33.609375 6.011719 C 18.828125 6.011719 8.609375 13.859375 6.269531 27.011719 C 5.554688 31.097656 5.503906 35.277344 6.128906 39.378906 C 2.238281 47.671875 1.808594 54.910156 5.699219 58.800781 C 7.722656 60.675781 10.417969 61.648438 13.171875 61.5 C 16.332031 61.402344 19.453125 60.726562 22.371094 59.5 C 22.511719 59.441406 22.636719 59.355469 22.738281 59.238281 C 25.734375 60.046875 28.828125 60.441406 31.929688 60.410156 C 45.121094 60.410156 55.378906 53.519531 59.371094 41.980469 C 59.476562 41.671875 59.429688 41.332031 59.238281 41.070312 C 59.050781 40.804688 58.746094 40.648438 58.421875 40.648438 L 43.421875 40.648438 C 43.058594 40.652344 42.726562 40.84375 42.550781 41.160156 C 40.378906 45.011719 37.550781 46.660156 33.050781 46.660156 C 27.421875 46.660156 23.648438 42.078125 23.050781 37.5 L 59 37.5 C 59.535156 37.5 59.972656 37.082031 60 36.550781 C 60.261719 32.144531 59.671875 27.730469 58.261719 23.550781 C 61 16.230469 60.769531 10.371094 57.449219 7 Z M 56 8.460938 C 58.390625 10.859375 58.738281 15.269531 57 20.761719 C 55.828125 18.238281 54.257812 15.921875 52.351562 13.898438 C 49.746094 11.152344 46.546875 9.035156 43 7.710938 C 48.660156 5.769531 53.429688 5.851562 56 8.460938 Z M 8.199219 27.460938 C 10.390625 15.289062 19.871094 8.058594 33.609375 8.058594 L 33.738281 8.058594 C 34.691406 8.058594 35.644531 8.113281 36.589844 8.21875 C 30.316406 11.59375 24.59375 15.902344 19.621094 21 C 15.007812 25.53125 11.027344 30.660156 7.78125 36.25 C 7.582031 33.300781 7.738281 30.335938 8.238281 27.421875 Z M 7.078125 57.460938 C 4.25 54.628906 4.390625 49.28125 6.851562 42.988281 C 7.742188 46.417969 9.367188 49.609375 11.609375 52.351562 C 13.835938 54.988281 16.671875 57.050781 19.871094 58.351562 C 14.179688 60.140625 9.578125 59.851562 7.109375 57.378906 Z M 58 35.5 L 22 35.5 C 21.449219 35.5 21 35.949219 21 36.5 C 21.160156 42.328125 25.828125 48.628906 33.089844 48.628906 C 38.089844 48.628906 41.550781 46.71875 44.039062 42.628906 L 57 42.628906 C 53 52.628906 43.910156 58.390625 31.941406 58.390625 C 23.648438 58.390625 17.339844 55.890625 13.179688 50.96875 C 10.59375 47.753906 8.890625 43.921875 8.230469 39.851562 C 11.511719 33.371094 15.824219 27.472656 21 22.378906 C 26.46875 16.769531 32.90625 12.1875 40 8.859375 C 44.199219 9.921875 48.011719 12.148438 51 15.28125 C 55.789062 20.351562 58.199219 27.328125 58 35.5 Z M 58 35.5 "/>
<path style=" stroke:none;fill-rule:nonzero;fill:rgb(97.647059%,89.019608%,68.235296%);fill-opacity:1;" d="M 63 51 C 63 57.628906 57.628906 63 51 63 C 44.371094 63 39 57.628906 39 51 C 39 44.371094 44.371094 39 51 39 C 57.628906 39 63 44.371094 63 51 Z M 63 51 "/>
<path style=" stroke:none;fill-rule:nonzero;fill:rgb(55.29412%,42.352942%,62.352943%);fill-opacity:1;" d="M 51 38 C 43.832031 38 38 43.832031 38 51 C 38 58.167969 43.832031 64 51 64 C 58.167969 64 64 58.167969 64 51 C 64 43.832031 58.167969 38 51 38 Z M 51 62 C 44.933594 62 40 57.066406 40 51 C 40 44.933594 44.933594 40 51 40 C 57.066406 40 62 44.933594 62 51 C 62 57.066406 57.066406 62 51 62 Z M 48 48 C 48 49.101562 48.898438 50 50 50 L 50 48 C 50 47.449219 50.445312 47 51 47 C 51.554688 47 52 47.449219 52 48 L 52 50 C 54.207031 50 56 51.792969 56 54 C 56 56.207031 54.207031 58 52 58 L 52 59 C 52 59.550781 51.554688 60 51 60 C 50.445312 60 50 59.550781 50 59 L 50 58 C 47.792969 58 46 56.207031 46 54 C 46 53.449219 46.445312 53 47 53 C 47.554688 53 48 53.449219 48 54 C 48 55.101562 48.898438 56 50 56 L 50 54 C 50 53.449219 50.445312 53 51 53 C 51.554688 53 52 53.449219 52 54 L 52 56 C 53.101562 56 54 55.101562 54 54 C 54 52.898438 53.101562 52 52 52 L 50 52 C 47.792969 52 46 50.207031 46 48 C 46 45.792969 47.792969 44 50 44 L 50 43 C 50 42.449219 50.445312 42 51 42 C 51.554688 42 52 42.449219 52 43 L 52 44 C 54.207031 44 56 45.792969 56 48 C 56 48.550781 55.554688 49 55 49 C 54.445312 49 54 48.550781 54 48 C 54 46.898438 53.101562 46 52 46 L 50 46 C 48.898438 46 48 46.898438 48 48 Z M 48 48 "/>
</g>
</svg>
