<svg xmlns="http://www.w3.org/2000/svg"  viewBox="0 0 512 512" width="64px" height="64px"><path fill="#3AB37C" d="M126.5,143.2c-1.4-4.1-5.3-6.2-8.9-8.3c-4.6-2.7-9.4-5.2-14.1-7.8c-3.3-1.8-6.7-3.6-10-5.6c-0.4-0.3-0.8-0.5-1.3-0.8c-26.8,26.1-46.2,59.3-54.3,95.8c7-1.1,13.1-5.5,17.2-11.2c4.4-6.1,5.2-12.3,6.5-19.5c2.5-13.5,8.3-28.7,24.1-29.7c8.2-0.5,16.7,1.3,24.9,0c4.5-0.7,8.2-2.7,11.7-5.7C124.2,149.1,127.4,145.9,126.5,143.2z"/><path fill="#74CCCF" d="M112,103.9c-3.9,2.9-7.6,6-11.3,9.2c1.9,1.1,3.8,2.1,5.7,3.2c5.8,3.1,11.6,6.2,17.2,9.6c4,2.5,8.6,5.1,11,9.3c4.6,8,2.8,16.3-3.8,22.5c-7.6,7.2-16.7,10.1-27.1,9.9c-7.4-0.1-19.7-3.3-25.1,3.5c-4.9,6.1-5.9,14.6-7.1,22.1c-2.2,14.6-12.4,28.4-26.5,33.1c-0.2,4.1-5,7.8-8.8,4.2c-0.3-0.3-0.5-0.5-0.8-0.8c-0.7,4.7-1.2,9.5-1.5,14.3c-1.9,29.4,3.9,57.9,16.1,84.6c10,21.9,23.2,42,36.7,61.8c-0.5-5.3-0.9-10.7-0.8-16.2c0.6-29.8,9.1-57.3,27.5-81c14.4-18.6,33.3-33,54.2-43.4c23.5-11.7,48.6-19.1,74.3-23.7c-3.1-5.6-2.9-15.1-2-19.6c0.4-1.8,2.5-8,0.6-9.3c-4.2-2.8-11.2-1.1-15.1,1.2c-9.1,5.4-16.5,12.3-27.3,14.3c-9.4,1.7-22.4,1.4-28.5-7.3c-7.7-10.7-1.2-21.4,5.6-30.6c8.3-11.3,12.2-23.3,13.6-37.1c0.9-8.2,4.9-17.3,13.4-20.2c7.3-2.5,14.9-0.7,21.3,3.3c6.7,4.3,11.7,11,13.5,18.8c0.9,3.9,0.8,7.8-0.2,11.7c1.9,0.3,3.7,0.2,5.6-0.7c0.3-0.1,0.6-0.2,0.9-0.3c-0.9-9.4,13.2-15.2,21.4-17.2c6.5-1.6,13.2-2.9,19.9-3c7.4-0.2,14.2,2.1,20.9,5.1c8.4,3.8,21,12.3,30.7,8.6c2.6-1,2.4-4.1,3.6-6.4c2-3.5,4.8-7,8.6-8.6c8.7-3.7,18.7,0,27.3,2.4c4.9,1.4,9.8,2.9,14.5-0.1c1.8-1.1,3.6-2.4,5.4-3.6c0.4-1.5,1.4-2.9,3.3-3.7c0.5-0.2,1-0.4,1.5-0.5C323.3,53,197.4,39.3,112,103.9z"/><path fill="#3AB37C" d="M420.2,143.5c-3.6-4.3-7.4-8.3-11.3-12.3c-0.6,1.1-1.5,2-2.7,2.6c-7.9,4.2-14.2,11.3-24,9.9c-8.5-1.2-17.8-6.6-26.5-5.6c-7.2,0.8-6.1,10-11.2,13.6c-7.3,5.2-17.8,3.8-25.7,1c-9.2-3.3-17.9-9.5-27.6-11.4c-4.5-0.9-8.8-0.5-13.7,0.3c-6,0.9-12.1,2.1-17.7,4.6c-1.6,0.7-3.9,1.8-4.7,2.8c-0.1,0.2-0.3,0.2-0.3,0.3c0.1,0.1,0.2,0.2,0.3,0.4c3.1,4.5-1.6,9.4-5.7,8.6c-0.5,1-1.4,1.9-2.6,2.5c-5.1,2.5-15.1,2.6-19.4-1.8c-4.5-4.6,0-8.6-0.3-13.8c-0.4-6.7-4.4-13.1-10.5-16.1c-4.4-2.2-11.3-3.5-14.1,1.8c-2.8,5.2-2.5,11.2-3.6,16.9c-1.1,6.1-2.7,12.2-5.3,17.8c-2.8,6.2-6.5,11.7-10.5,17.2c-2.8,3.8-7.5,9.4-5.2,14.4c3.7,8.2,19.2,5.4,25.5,2.5c9.4-4.4,16.9-14,27.9-14.8c8.5-0.6,20.8,2,21.1,12.7c0.1,4.3-1,8.3-1.7,12.5c-0.3,1.8-0.6,3.5-0.3,5.3c0.2,1.1,0.3,2.1,0.7,3.1c0.1,0.3,0.2,0.6,0.3,0.8c2.3,0.5,3.5,2.5,3.7,4.7c21.6-3,43.5-4.3,65.2-4.5c2-9-1.4-19.8-2.3-28.7c-0.3-3.6,2.8-6.5,6.3-6c26.1,3.9,50.4,17.8,73.6,29.7c24,12.2,46.5,26.7,70.9,38.1C463.5,212.6,446.5,174.5,420.2,143.5z"/><path fill="#3AB37C" d="M234.9,150.7c0.1,0,0.2,0,0.3,0.1C234.2,149.8,233,150.2,234.9,150.7z"/><path fill="#FEBF10" d="M395.2,225.2c-11.7-6-23.5-11.9-35.5-17.5c-9.6-4.5-19.4-8.5-29.7-10.9c1.2,8.2,2.5,16.6,0.9,24.7c2.2,3.2,1.1,8.6-3.7,8.6c-0.6,0-1.3,0-1.9,0c-1.4,0.5-2.6,0.5-3.7,0c-28.1,0.3-56.7,1.7-84.2,7.7c-46,10-93.3,28.4-120.4,69.2c-15.6,23.5-23.2,53.3-19.3,81.5c0.7,4.8,1.3,9.6,1.8,14.5c0.2,0,0.4,0.1,0.6,0.2c4.9-8.1,10.4-15.7,16.3-23c8.2-10.1,17.4-19.1,28.5-25.9c10.9-6.6,22.2-12.7,33.8-17.9c23.7-10.6,48.9-18.4,74.6-22c13.3-1.9,26.6-2.8,40-2.4c12.4,0.3,24.9,1.5,37.3,0.7c1.3-0.1,2.5,0.2,3.4,0.8c3.1,0,6.2,2.3,5.5,6.2c-1,6,2.4,12.2,3.1,18.2c0.1,0.9,0.2,1.9,0.3,2.9c2.1-1.3,4.4-2.5,6.6-3.6c5.8-3,10.9-6.3,16.3-10.1c13-9.1,26.2-18.5,40-26.2c6.7-3.7,13.4-7.5,19.7-11.9c5.3-3.7,10-8.1,15.3-11.8c3.9-2.8,7.9-5.4,11.7-8.2c1.9-1.4,4-2.8,5.7-4.5c0.6-0.6,1.2-1.1,1.7-1.8c0,0,0,0,0,0c0.1-0.7,0.4-1.4,0.7-1.9C438.3,249.9,417.3,236.6,395.2,225.2z"/><path fill="#3AB37C" d="M425.5,319.6c0.2-2.3,0.7-3.8-1.7-4.9c-3.5-1.5-6.6-1.3-9.8-3.8c-0.5-0.4-0.8-0.8-1.1-1.2c-12.9,7.5-25.3,15.9-37.6,24.4c-6,4.1-11.6,8.3-18.1,11.6c-5.1,2.6-10.9,5.1-14.4,9.8c-1.9,2.6-4.8,2.5-6.8,1.2c-2.5-0.6-4.5-2.7-3.8-5.9c1.1-4.6-0.2-11.9-1.5-16.4c-1-3.5-1.9-6.9-2.3-10.4c-1.6,0.1-3.3,0.1-4.9,0.1c-0.9,0.7-2.1,1.1-3.5,1c-5.3-0.2-11.1,3.9-15,7.1c-4.7,3.9-9.4,8.8-11.6,14.7c-3.6,9.7,13.8,14.7,20.2,17.4c12.6,5.4,26.8,10.6,35,22.2c4.2,5.9,6.5,11.8,4.5,19.1c-1.3,4.9-4.5,9.7-5.3,14.7c6.3,1.1,13.1-0.4,18.9-2.7c6.3-2.6,14.1-6.6,17.4-13c3.3-6.3,2.8-13.4,4.7-20.2c1.9-6.6,4.2-12.8,9.7-17.1c9.5-7.6,28.7-9.1,28.4-24.7C426.7,334.8,424.9,327.3,425.5,319.6z"/><path fill="#74CCCF" d="M470.3,266.6c-1.2,3.2-4.4,5.8-6.9,7.9c-4.2,3.4-8.7,6.5-13.1,9.6c-4.9,3.4-9.2,7.5-14.1,11c-4.1,3-8.4,5.7-12.7,8.3c1.6,0.3,3.4,0.4,4.7,1.2c1.5,0.9,3,1.8,4.4,2.9c2.3,2,3.9,5.3,3.9,8.3c0,3.6-0.4,7.2-0.1,10.8c0.5,4.9,1.4,9.8,1.3,14.7c-0.2,9.5-3.4,17.7-11.5,23.2c-5.8,4-12.9,5.7-18.7,9.6c-7,4.6-8.4,12.5-9.4,20.4c-1.2,8.9-3.9,16.5-10.6,22.7c-12.1,11.3-31.6,17.8-47.7,12.1c-1.8-0.6-3-2.6-3.2-4.4c-0.8-8.6,4.2-14.5,5.8-22.4c1.6-7.5-6-14-11.6-17.8c-12-8-26.6-10.7-38.6-18.7c-5-3.3-10-8.4-10.5-14.8c-0.4-6.4,2.7-12.6,6.5-17.5c2.8-3.7,6.2-7.4,10.1-10.5c-0.7,0-1.4-0.1-2.1-0.1c-12.4-0.4-24.8,0.1-37.1,1.7c-23.8,3-47.1,9.3-69.2,18.6c-21.5,9.1-44.5,19.9-60.2,37.7c-6.7,7.6-13.1,15.8-18.5,24.3c-0.5,0.8-1,1.6-1.5,2.4c6,2.7,12.1,5.4,18.2,7.9c0.5-0.2,0.9-0.4,1.4-0.6c0.2-0.1,0.4-0.2,0.6-0.3c0,0-0.1,0-0.1,0.1c1.5-0.7,3.3-0.8,4.8-0.2c0.2-1.8,1.2-3.5,3.1-4.6c9.9-5.2,21.4-8.4,32.5-5.7c5.7,1.4,10.7,5,15.9,7.7c4.1,2.1,8.3,4.1,12.8,5.5c8.6,2.7,19.2,1.8,26.7,7.5c4.9,3.7,7,9,7.3,14.6c0.3,0.6,0.4,1.3,0.4,2.1c0,1.1,0.3,2.1,0.3,3.1c0,1.2-0.3,2.4-1,3.5c7.2,1.3,14.4,2.4,21.7,3.2c46.3,5.2,94.7,0,135.1-24.8c46.5-28.5,76-76.3,80.6-130.7C470.9,286.4,471,276.4,470.3,266.6z"/><path fill="#3AB37C" d="M221.9,444.5c0.9-6.2-0.7-11.1-7.3-12.5c-8.1-1.7-16.2-2.5-24-5.6c-4-1.6-7.8-3.5-11.5-5.6c-3.7-2-7.7-5-11.9-5.8c-8.9-1.6-17.5,1.4-25.4,5.5c-0.4,0.2-0.7,0.3-1,0.4c11.8,4.6,23.7,8.9,35.7,12.9c14.9,5,30.1,9.3,45.5,12.5C221.8,445.8,221.8,445.2,221.9,444.5z"/><path d="M481.3,265.5c-3.2-54.2-28.1-105.2-66.1-143.6c-80.4-81.1-218.9-95.6-310.9-26.1c-5.2,3.9-10.1,8-14.9,12.4c-0.4,0.1-0.8,0.2-1.1,0.3c-1.7,0.8-3,2.2-3.4,3.9c-33.2,32.1-55.3,74.8-61,120.9c-3.5,28.8,0.1,57.7,10.1,84.9c9.7,26.2,24.7,50.1,40.3,73.1c3.4,5.1,6.9,10.1,10.4,15.1c1.1,1.6,2.6,2.3,4.1,2.3c0.2,2.3,0.4,4.6,0.5,6.9c0.1,1.7,0.2,3.4,0.1,5.2c0-0.2,0,0.5-0.1,0.9c-2.9,3.5,0.7,10.4,6.4,8.7c1.2-0.4,2.2-1.1,2.9-2c3.8-0.3,7.2-4.1,4.7-7.7c0-0.2,0.1-0.3,0.2-0.5c0.3-0.9,0.7-1.8,1.1-2.7c5.7,2.6,11.5,5.2,17.4,7.7c0.1,0.1,0.1,0.2,0.2,0.4c1.4,1.9,3.6,2.6,5.6,2.1c96.5,40.1,215.1,61.8,298-14.9C466.8,375.2,484.6,320.3,481.3,265.5z M408.9,131.2c3.9,3.9,7.7,8,11.3,12.3c26.3,31,43.4,69.1,48.8,109c-24.4-11.4-47-25.9-70.9-38.1c-23.2-11.9-47.5-25.8-73.6-29.7c-3.5-0.5-6.7,2.4-6.3,6c0.9,8.9,4.3,19.7,2.3,28.7c-21.7,0.3-43.6,1.5-65.2,4.5c-0.2-2.2-1.5-4.2-3.7-4.7c-0.1-0.2-0.2-0.5-0.3-0.8c-0.4-1-0.5-2-0.7-3.1c-0.3-1.9-0.1-3.5,0.3-5.3c0.7-4.2,1.8-8.2,1.7-12.5c-0.2-10.7-12.5-13.3-21.1-12.7c-11,0.8-18.5,10.4-27.9,14.8c-6.3,2.9-21.8,5.7-25.5-2.5c-2.3-5,2.5-10.6,5.2-14.4c4-5.5,7.6-11,10.5-17.2c2.6-5.6,4.2-11.8,5.3-17.8c1-5.7,0.8-11.7,3.6-16.9c2.9-5.4,9.7-4,14.1-1.8c6.1,3,10.1,9.4,10.5,16.1c0.3,5.1-4.2,9.2,0.3,13.8c4.3,4.4,14.3,4.3,19.4,1.8c1.2-0.6,2.1-1.5,2.6-2.5c4.2,0.8,8.9-4.1,5.7-8.6c-0.1-0.2-0.2-0.3-0.3-0.4c0.1,0,0.2-0.1,0.3-0.3c0.8-1,3.2-2.1,4.7-2.8c5.6-2.5,11.7-3.7,17.7-4.6c4.9-0.7,9.1-1.1,13.7-0.3c9.7,1.9,18.4,8.1,27.6,11.4c7.9,2.8,18.4,4.3,25.7-1c5.1-3.7,4-12.8,11.2-13.6c8.7-1,18,4.4,26.5,5.6c9.8,1.4,16.1-5.7,24-9.9C407.4,133.2,408.3,132.3,408.9,131.2z M235.2,150.7c-0.1,0-0.2,0-0.3-0.1C233,150.2,234.2,149.8,235.2,150.7z M92.3,120.8c0.4,0.3,0.8,0.5,1.3,0.8c3.2,2,6.7,3.7,10,5.6c4.7,2.6,9.4,5.1,14.1,7.8c3.5,2.1,7.4,4.2,8.9,8.3c1,2.7-2.3,5.8-4,7.3c-3.5,3-7.2,4.9-11.7,5.7c-8.2,1.4-16.6-0.5-24.9,0c-15.9,1-21.6,16.2-24.1,29.7c-1.3,7.2-2.1,13.4-6.5,19.5C51,211.1,45,215.5,38,216.6C46.1,180.1,65.5,146.9,92.3,120.8z M86.1,374c-0.1,5.5,0.3,10.9,0.8,16.2c-13.6-19.8-26.7-39.9-36.7-61.8c-12.2-26.7-18-55.2-16.1-84.6c0.3-4.8,0.8-9.6,1.5-14.3c0.3,0.3,0.5,0.5,0.8,0.8c3.8,3.6,8.6-0.1,8.8-4.2c14.1-4.7,24.3-18.5,26.5-33.1c1.1-7.5,2.2-16,7.1-22.1c5.4-6.8,17.7-3.6,25.1-3.5c10.4,0.2,19.4-2.6,27.1-9.9c6.6-6.3,8.5-14.6,3.8-22.5c-2.5-4.2-7-6.8-11-9.3c-5.6-3.4-11.5-6.5-17.2-9.6c-1.9-1-3.8-2.1-5.7-3.2c3.6-3.2,7.4-6.2,11.3-9.2c85.5-64.6,211.3-50.9,288.7,19.4c-0.5,0.1-1,0.3-1.5,0.5c-1.9,0.8-2.9,2.1-3.3,3.7c-1.8,1.2-3.6,2.4-5.4,3.6c-4.7,2.9-9.6,1.4-14.5,0.1c-8.5-2.4-18.6-6.2-27.3-2.4c-3.8,1.6-6.6,5.1-8.6,8.6c-1.3,2.2-1.1,5.4-3.6,6.4c-9.7,3.7-22.3-4.8-30.7-8.6c-6.7-3.1-13.5-5.3-20.9-5.1c-6.7,0.1-13.4,1.5-19.9,3c-8.3,2-22.4,7.7-21.4,17.2c-0.3,0.1-0.6,0.2-0.9,0.3c-1.9,0.9-3.7,1-5.6,0.7c1-3.8,1.1-7.7,0.2-11.7c-1.8-7.8-6.7-14.5-13.5-18.8c-6.4-4-14-5.8-21.3-3.3c-8.4,2.9-12.5,12-13.4,20.2c-1.4,13.8-5.4,25.8-13.6,37.1c-6.8,9.2-13.3,19.9-5.6,30.6c6.2,8.6,19.1,8.9,28.5,7.3c10.8-1.9,18.2-8.8,27.3-14.3c3.9-2.3,10.9-4.1,15.1-1.2c1.9,1.3-0.3,7.5-0.6,9.3c-0.9,4.5-1.1,14,2,19.6c-25.7,4.6-50.8,12-74.3,23.7c-21,10.5-39.8,24.9-54.2,43.4C95.2,316.7,86.7,344.2,86.1,374z M100,403.3c-0.2-0.1-0.4-0.1-0.6-0.2c-0.5-4.8-1.1-9.7-1.8-14.5c-3.9-28.2,3.7-58,19.3-81.5c27.1-40.8,74.3-59.2,120.4-69.2c27.5-6,56.1-7.4,84.2-7.7c1.1,0.4,2.3,0.5,3.7,0c0.7,0,1.3,0,1.9,0c4.8,0,5.9-5.3,3.7-8.6c1.5-8.1,0.2-16.5-0.9-24.7c10.3,2.4,20.1,6.4,29.7,10.9c11.9,5.6,23.8,11.5,35.5,17.5c22.2,11.3,43.1,24.6,65.5,35.5c-0.3,0.5-0.6,1.2-0.7,1.9c0,0,0,0,0,0c-0.5,0.7-1.1,1.2-1.7,1.8c-1.7,1.7-3.8,3.1-5.7,4.5c-3.8,2.8-7.8,5.5-11.7,8.2c-5.2,3.7-9.9,8.2-15.3,11.8c-6.3,4.3-13,8.1-19.7,11.9c-13.8,7.7-27.1,17.2-40,26.2c-5.4,3.8-10.5,7.1-16.3,10.1c-2.2,1.1-4.4,2.3-6.6,3.6c-0.1-1-0.2-2-0.3-2.9c-0.7-6-4.1-12.2-3.1-18.2c0.6-3.9-2.5-6.2-5.5-6.2c-0.9-0.6-2-0.9-3.4-0.8c-12.4,0.8-24.9-0.4-37.3-0.7c-13.4-0.3-26.7,0.6-40,2.4c-25.8,3.6-50.9,11.3-74.6,22c-11.6,5.2-22.9,11.3-33.8,17.9c-11.1,6.7-20.3,15.8-28.5,25.9C110.4,387.6,104.8,395.3,100,403.3z M426.9,342.5c0.3,15.6-18.8,17.1-28.4,24.7c-5.5,4.4-7.8,10.6-9.7,17.1c-1.9,6.8-1.4,13.8-4.7,20.2c-3.3,6.3-11.2,10.4-17.4,13c-5.7,2.3-12.6,3.9-18.9,2.7c0.8-5.1,3.9-9.8,5.3-14.7c2-7.2-0.3-13.1-4.5-19.1c-8.3-11.7-22.4-16.9-35-22.2c-6.4-2.7-23.8-7.6-20.2-17.4c2.2-5.8,6.9-10.8,11.6-14.7c3.9-3.2,9.7-7.3,15-7.1c1.4,0,2.6-0.4,3.5-1c1.6,0,3.3,0,4.9-0.1c0.3,3.5,1.3,6.9,2.3,10.4c1.2,4.4,2.5,11.8,1.5,16.4c-0.8,3.3,1.2,5.3,3.8,5.9c2.1,1.4,4.9,1.5,6.8-1.2c3.5-4.7,9.3-7.2,14.4-9.8c6.5-3.3,12.1-7.5,18.1-11.6c12.3-8.5,24.7-16.9,37.6-24.4c0.3,0.4,0.7,0.8,1.1,1.2c3.2,2.5,6.3,2.3,9.8,3.8c2.4,1.1,1.8,2.6,1.7,4.9C424.9,327.3,426.7,334.8,426.9,342.5z M221.9,446.4c-15.4-3.3-30.6-7.5-45.5-12.5c-11.9-4-23.9-8.3-35.7-12.9c0.3-0.1,0.7-0.2,1-0.4c7.9-4.1,16.4-7.1,25.4-5.5c4.3,0.8,8.2,3.8,11.9,5.8c3.7,2.1,7.6,4,11.5,5.6c7.8,3.2,15.8,3.9,24,5.6c6.6,1.4,8.1,6.4,7.3,12.5C221.8,445.2,221.8,445.8,221.9,446.4z M470.1,296.3c-4.5,54.4-34.1,102.2-80.6,130.7c-40.4,24.7-88.8,29.9-135.1,24.8c-7.3-0.8-14.5-1.9-21.7-3.2c0.6-1.1,1-2.3,1-3.5c0-1.1-0.3-2.1-0.3-3.1c0-0.8-0.2-1.5-0.4-2.1c-0.3-5.6-2.4-10.9-7.3-14.6c-7.5-5.7-18-4.8-26.7-7.5c-4.4-1.4-8.6-3.4-12.8-5.5c-5.2-2.7-10.1-6.3-15.9-7.7c-11.1-2.7-22.6,0.5-32.5,5.7c-2,1-2.9,2.8-3.1,4.6c-1.5-0.6-3.2-0.5-4.8,0.2c0,0,0.1,0,0.1-0.1c-0.2,0.1-0.4,0.2-0.6,0.3c-0.5,0.2-0.9,0.4-1.4,0.6c-6.1-2.5-12.2-5.2-18.2-7.9c0.5-0.8,1-1.6,1.5-2.4c5.4-8.6,11.8-16.7,18.5-24.3c15.7-17.8,38.6-28.6,60.2-37.7c22.1-9.3,45.4-15.7,69.2-18.6c12.3-1.6,24.7-2.1,37.1-1.7c0.7,0,1.4,0.1,2.1,0.1c-3.8,3.1-7.3,6.8-10.1,10.5c-3.8,5-7,11.1-6.5,17.5c0.4,6.4,5.5,11.5,10.5,14.8c12,8,26.6,10.7,38.6,18.7c5.6,3.8,13.2,10.3,11.6,17.8c-1.6,7.9-6.6,13.8-5.8,22.4c0.2,1.8,1.4,3.8,3.2,4.4c16,5.8,35.6-0.8,47.7-12.1c6.7-6.2,9.3-13.9,10.6-22.7c1.1-7.9,2.4-15.8,9.4-20.4c5.9-3.9,12.9-5.5,18.7-9.6c8.1-5.6,11.3-13.7,11.5-23.2c0.1-4.9-0.9-9.8-1.3-14.7c-0.4-3.6,0-7.2,0.1-10.8c0-3.1-1.6-6.4-3.9-8.3c-1.4-1.1-2.8-2-4.4-2.9c-1.4-0.8-3.1-0.9-4.7-1.2c4.3-2.6,8.6-5.4,12.7-8.3c4.9-3.5,9.2-7.6,14.1-11c4.4-3.1,8.9-6.1,13.1-9.6c2.5-2.1,5.7-4.7,6.9-7.9C471,276.4,470.9,286.4,470.1,296.3z"/></svg>