<svg xmlns="http://www.w3.org/2000/svg"  viewBox="0 0 512 512" width="64px" height="64px"><path fill="#EF4754" d="M268 303.9c-2.4-15.7-6.7-31.3-13.2-45.8-5-11-11.4-22.2-21-29.7-15.8-12.3-67.9-26.4-70.1 5.7-.1 2.2-1.3 3.5-2.8 4-.7 19 .8 38.9 3.2 57.7 3.4 26.2 8.7 54.6 22.8 77.4 6.6 10.7 15.9 21.1 28.9 23.6 12.3 2.4 26.7-.8 35.9-9.6 5.8-5.6 10-12.3 12.9-19.8-.1-1.3.4-2.6 1.3-3.6C272.1 344.9 270.9 322.3 268 303.9zM244.6 356.6c-4.1 8.3-11.3 17.7-21.4 18.4-12 .8-20.4-9.1-25.8-18.6-6.1-10.7-9.8-22.3-12.1-34.3-4.8-24.7-4.3-50-8.5-74.7-.7-4 2.7-6 5.9-5.6 4.6-6 12-8 20.6-5.1 10.4 3.5 19.7 11.3 27 19.4 6.7 7.4 10 17.2 12.8 26.7 3.8 12.7 6.4 25.9 6.9 39.2C250.5 333.7 249.9 345.9 244.6 356.6zM163.4 406.7c-.6-3.7-1.3-4.5-4.6-5.2-13.1-2.8-27.3-.1-40.6-.2-9-.1-19.2-.1-27.5-3.9-6.9-3.2-9.4-8.6-10.3-15.9-2.4-17.6-.3-35.8.3-53.5.9-26.2-3.6-52.5-1.1-78.7.6-6.8 2.8-15.9.1-22.5-2.1-5.2-8.7-4.1-14.2-3.1-.7.5-1.7.8-2.8.8h-1.1C60.1 279.4 69 334 67.1 388.9c-.2 6-1.1 14.1 2.2 19.6 3.9 6.7 11.9 8.2 19 8.8 25.4 2.1 50.9.5 76.2 3.3C164.3 416 164.1 411.3 163.4 406.7zM326.3 43.4c-22.7-2.7-46.3 13.6-55.1 34-1.6 3.6-7.5 4.2-9.5.6-9.7-17.5-24.8-36.9-47-36.1-21.9.8-40.5 18.7-42.8 40.5-1.2 11.6.2 23.3 5.9 33.6 5.6 10.2 13.2 19 21.8 26.8 7.9 7.2 16.6 14 24.9 20.6 6.2 4.9 12.9 10 20.4 12.6 1.8-.4 3.8-.1 5.4 1.4.3.1.6.1 1 .2 2.8.4 4.2 2.3 4.3 4.5 2.9 1.7 6.2 2.4 9.8 1.7 9.8-2.1 18.2-10.4 25.7-16.6 8.9-7.3 18.8-13.4 28.1-20.1 9.6-6.9 19.6-14.5 26-24.6 6-9.5 8.9-20 9.6-31.2C356.1 71.4 349.5 46.1 326.3 43.4z"/><path fill="#EF4754" d="M359.6 225.4c-2.9 7.4-4 15.7-5.8 23.5-1.9 8.2-4 16.4-6 24.6-9.1 36.5-18.9 72.7-30.1 108.6-1.5 4.6-6.8 6-10 2-12.8-16.1-9.3-37.7-13.8-56.4-5.9-24.7-13.9-48.5-23.3-72.1-1.9-4.7-3.8-9.1-4.8-14.1-.8-3.7-1.4-7.5-2.2-11.3-1.1-5.3-1.5-11.9-7.2-14.1-6.5-2.5-14.2-2.3-21-1.7-.9.1-1.8.2-2.7.3 1.3.7 2.6 1.4 3.8 2.2 10.7 6.9 18.4 17.2 24.2 28.3 7.3 14 12.5 29.1 15.8 44.5 5 23.7 7.8 52.1.1 76.3 5.1 6.7 9.1 14.2 14.1 20.9 4.8 6.4 11.2 13.1 19.9 12.6 8.4-.6 13.7-4.3 17.9-11.8 4.4-7.8 7-16.3 9.6-24.8 3.4-11.2 7.5-22.2 10.9-33.5 4.2-13.8 7.9-27.7 11.4-41.7 3.3-13 9-25.5 12.7-38.4 3.3-11.4 5.8-23 5.8-34.8C370.8 215 363 216.8 359.6 225.4zM468.1 398.2c-3.8-2.1-8.4-2.7-12.7-2.8-10.7-.4-21.4 1.2-32.1 1.1-12.2-.2-23.7-2.6-26.6-16.2-3.9-18.3-2-36.4-1.9-54.9 0-3 1.9-5.7 5.1-5.9 21.5-1.7 43.7 1.7 64.9-2.9v-14c-9 .4-17.9 1.4-26.9 1.6-11.3.2-24.8.6-34.5-6.2-18.1-12.6-12.9-40.3-12.6-59.4-.4-1.2-.4-2.6.6-4.1 7.5-12.1 27.3-11.4 39.7-11.3 12.9.1 25.8 1.7 38.6 2.1-.6-4.1-.8-8.3-.9-12.5-12.7-4.1-27-3.1-40-2-13 1.1-25.9 3-38.9 3.5 0 .9 0 1.8 0 2.8-.6 14.8-4.1 29-8.7 43-3 9.1-6 18-8.8 27.1 2.6 6.3 2.8 13.9 3.5 20.5.9 9.7 2.5 19.3 3.8 29 3.6 24.9 7.4 49.9 8 75.2 24.2 1.1 48.3-1.6 72.5-2.2 1.6-1.8 4.2-2.8 6.6-1.5.1-.5.3-1 .6-1.6 1.1-2.1 2.3-4.4 2-6.7C469.3 399.7 468.7 398.6 468.1 398.2z"/><path fill="#010101" d="M175.8 426.6c-.9-13.4 1.7-31.9-14.8-35.9-7.8-1.9-16.4-1.3-24.3-.9-9.5.4-19 1-28.5.2-3.9-.3-8-.8-11.7-2.1-3.2-1.2-3.7-1.7-4.4-4.1-2.2-7.5-1.6-16.5-1.5-24.2.1-9.4.6-18.7 1-28.1.5-11.3.1-22.6-.5-34-.6-13.4-1.9-26.9-1.1-40.3.5-8.2 1.9-16.4 1.7-24.6-.1-6.3-1.9-13.3-7.3-17-3-2-6.3-3-9.9-3.3-5.3-.4-10.2 1.3-15.4 1.3-2.3 0-3.7 1.1-4.4 2.6-2 .8-3.7 2.6-3.9 5.3-1.2 31.6 1.5 63.2 3.6 94.7 1.1 15.8 2 31.6 2.3 47.4.2 10.2-.5 20.2-.7 30.4-.1 7.4.7 14.9 4.5 21.5 4.2 7.2 12.5 10.5 20.2 12.1 13.6 2.7 28.5 2 42.3 2.2 15.4.2 30.8.5 46.1 2.8C172.8 432.9 176 430.3 175.8 426.6zM88.3 417.4c-7.2-.6-15.1-2.2-19-8.8-3.2-5.5-2.4-13.6-2.2-19.6 1.9-54.9-7-109.5-5.5-164.4h1.1c1.1 0 2.1-.3 2.8-.8 5.5-1 12.1-2.1 14.2 3.1 2.7 6.6.5 15.7-.1 22.5-2.5 26.2 2 52.4 1.1 78.7-.6 17.7-2.6 35.9-.3 53.5 1 7.2 3.4 12.7 10.3 15.9 8.4 3.8 18.5 3.8 27.5 3.9 13.3.1 27.5-2.6 40.6.2 3.3.7 3.9 1.5 4.6 5.2.8 4.6.9 9.3 1.1 14C139.2 417.9 113.6 419.5 88.3 417.4zM402.2 238.6c.8-.6 1.5-.9 2.4-1.3 2.5-1 5.2-1.6 7.8-2 7.6-1.2 15.4-1.2 23-1 13.8.3 27.5 2.1 41.2 2.2 3.9 0 5.5-4.1 4.8-7.3-1.6-6.8-1.7-13.7-1.7-20.6 0-1.8-1.4-3.8-3-4.5-29.3-11.7-62.5-.7-92.9-.6-11.3.1-24 1.3-31 11.4-3.9 5.6-5.4 12.3-6.9 18.9-2.2 9.7-4.5 19.3-6.9 28.9-8.6 34.9-17.8 69.5-28.2 103.9-1.7-5.2-2.5-10.7-3.2-16.1-.7-5.3-1.1-10.6-1.6-15.9-.6-5.9-2.2-11.7-3.6-17.5-3.2-12.5-6.9-24.8-10.9-37.1-4.1-12.7-10.5-24.7-14.4-37.5-4.1-13.2-1.8-31.4-17.7-36.9-8-2.7-16.7-2.8-25-2.1-6.5.5-13.7 1.4-19.7 4.1-7.7-2.1-15.6-3.3-23.3-3.7-13.4-.7-28.8 3.3-35.4 15.7-2.5-.3-5 1-5.3 4.3-2.8 30-.3 61.1 5 90.7 3.1 17.1 7.4 34.2 14.4 50.2 5.8 13.3 13.9 26.7 26.1 35.1 12.3 8.6 26.9 10.1 41.3 6.7 13.7-3.2 24.6-12.6 31.7-24.4.8-1.4 1.6-2.8 2.3-4.2 8.9 13.4 16.7 29 33.6 32.1 21.8 3.9 33.4-14.8 39.6-32.6 7.5-21.4 14.4-43.2 20.4-65.2.9 9.6 2.6 19.1 4 28.6 3.6 25.3 7.4 50.7 7.5 76.3 0 2.2 2.2 4.8 4.4 5 29.2 1.9 58.3-1.8 87.5-1.9 3.4 0 5.2-3.3 4.9-6.2 1.4-.3 2.7-1.2 3.6-2.8 5.5-10.6 3.2-21-8.7-25-10.9-3.6-23.6-2.1-34.9-1.4-7.4.5-22.4 3.3-25.6-5-2.6-6.8-2.8-15.5-3.1-22.7-.4-9 .4-18.1.7-27.1 22.2-1.1 44.7 1.7 66.5-4 2.5-.6 3.7-3.3 3.7-5.6v-20c0-.7-.1-1.3-.3-1.9.7-3.2-1.3-7.2-5.6-7.2-9.5.1-19 1.2-28.6 1.6-9.8.4-22 1.4-30.9-3.6-7.6-4.2-8.7-15.2-9.1-22.8-.5-9.2.3-18.4.5-27.7C401.9 238.8 402.1 238.7 402.2 238.6zM265.8 363.9c-.9 1-1.4 2.2-1.3 3.6-2.9 7.4-7.1 14.2-12.9 19.8-9.2 8.8-23.6 12-35.9 9.6-12.9-2.5-22.2-12.9-28.9-23.6-14.1-22.8-19.4-51.2-22.8-77.4-2.4-18.8-3.9-38.7-3.2-57.7 1.5-.5 2.6-1.8 2.8-4 2.2-32.1 54.2-18 70.1-5.7 9.7 7.5 16.1 18.7 21 29.7 6.5 14.5 10.8 30.1 13.2 45.8C270.9 322.3 272.1 344.9 265.8 363.9zM360.4 287.9c-3.5 14-7.2 27.9-11.4 41.7-3.4 11.2-7.6 22.2-10.9 33.5-2.6 8.5-5.2 17-9.6 24.8-4.1 7.4-9.5 11.2-17.9 11.8-8.7.6-15.2-6.1-19.9-12.6-5-6.7-9-14.2-14.1-20.9 7.7-24.2 5-52.5-.1-76.3-3.3-15.5-8.5-30.5-15.8-44.5-5.8-11.1-13.5-21.5-24.2-28.3-1.2-.8-2.5-1.5-3.8-2.2.9-.1 1.8-.2 2.7-.3 6.8-.6 14.6-.8 21 1.7 5.7 2.2 6.1 8.7 7.2 14.1.8 3.8 1.4 7.5 2.2 11.3 1 4.9 2.9 9.4 4.8 14.1 9.4 23.6 17.4 47.4 23.3 72.1 4.5 18.7 1.1 40.3 13.8 56.4 3.1 4 8.5 2.6 10-2 11.2-35.9 21-72.1 30.1-108.6 2-8.2 4.1-16.4 6-24.6 1.8-7.7 2.9-16 5.8-23.5 3.4-8.6 11.2-10.4 19.3-10.8 0 11.8-2.6 23.4-5.8 34.8C369.4 262.4 363.7 274.8 360.4 287.9zM390.8 238.7c-.3 19.1-5.4 46.7 12.6 59.4 9.7 6.8 23.1 6.4 34.5 6.2 9-.1 17.9-1.2 26.9-1.6v14c-21.2 4.5-43.4 1.2-64.9 2.9-3.2.2-5 2.9-5.1 5.9-.1 18.5-2 36.6 1.9 54.9 2.9 13.6 14.4 16 26.6 16.2 10.7.2 21.3-1.5 32.1-1.1 4.3.2 9 .7 12.7 2.8.6.3 1.2 1.5 1.2 1.6.3 2.2-.9 4.6-2 6.7-.3.5-.5 1.1-.6 1.6-2.5-1.3-5.1-.3-6.6 1.5-24.2.6-48.3 3.3-72.5 2.2-.5-25.2-4.4-50.2-8-75.2-1.4-9.7-2.9-19.3-3.8-29-.6-6.6-.9-14.2-3.5-20.5 2.8-9 5.9-18 8.8-27.1 4.6-14 8.1-28.2 8.7-43 0-.9 0-1.8 0-2.8 13-.5 25.9-2.4 38.9-3.5 13-1.1 27.3-2.1 40 2 .1 4.2.4 8.4.9 12.5-12.9-.5-25.7-2-38.6-2.1-12.4-.1-32.2-.8-39.7 11.3C390.4 236.1 390.3 237.5 390.8 238.7z"/><path fill="#010101" d="M250 322c-.5-13.2-3.2-26.5-6.9-39.2-2.8-9.5-6.1-19.2-12.8-26.7-7.2-8.1-16.6-15.9-27-19.4-8.6-2.9-16.1-.9-20.6 5.1-3.2-.4-6.6 1.6-5.9 5.6 4.3 24.7 3.7 50 8.5 74.7 2.4 12 6 23.6 12.1 34.3 5.4 9.5 13.9 19.4 25.8 18.6 10.1-.7 17.3-10.1 21.4-18.4C249.9 345.9 250.5 333.7 250 322zM229.4 359.9c-8.7 9.7-17.2-.4-22.1-8.4-13.3-21.3-14.1-48.8-16-73.1-.6-8.2-1.3-16.4-2.4-24.6.3-.5.6-1.1.8-1.8 4.1-16.1 26.9 5.5 32.2 11.1 6.6 6.9 9.2 17.4 11.7 26.4 3.6 12.8 5.5 26.1 5.6 39.3C239.2 339.9 237 351.4 229.4 359.9zM364.4 70.2c-2.1-10.2-6.4-19.6-13.7-27.1-8-8.2-19.5-11.1-30.6-11-21.1.2-42.4 13.8-54 31.7-10.7-16.5-25.7-30.8-46.3-32.7-24.1-2.1-46.3 13.7-55.1 35.6-9.4 23.7-2.1 49.7 13.3 69 7.6 9.4 16.6 16.8 25.8 24.5 9.5 7.9 18.7 16.2 29.5 22.4 3.7 2.1 7.8 3.9 12 4.9 6.9 6.3 15 8.8 24.8 6.3 10.1-2.6 18.6-10.4 26.4-16.8 18-14.9 39.8-25.2 54.6-43.9C364.8 115.9 368.8 91.7 364.4 70.2zM354.9 91.3c-.7 11.2-3.6 21.7-9.6 31.2-6.4 10.1-16.4 17.8-26 24.6-9.4 6.7-19.2 12.8-28.1 20.1-7.5 6.2-15.8 14.5-25.7 16.6-3.7.8-7 0-9.8-1.7-.2-2.1-1.5-4.1-4.3-4.5-.3 0-.6-.1-1-.2-1.6-1.5-3.6-1.8-5.4-1.4-7.5-2.6-14.2-7.7-20.4-12.6-8.4-6.6-17.1-13.4-24.9-20.6-8.6-7.8-16.2-16.5-21.8-26.8-5.6-10.3-7.1-22.1-5.9-33.6 2.2-21.8 20.9-39.7 42.8-40.5 22.2-.8 37.3 18.6 47 36.1 2 3.6 7.9 3 9.5-.6 8.8-20.4 32.4-36.7 55.1-34C349.5 46.1 356.1 71.4 354.9 91.3z"/></svg>