<svg xmlns="http://www.w3.org/2000/svg"  viewBox="0 0 48 48" width="64px" height="64px"><path fill="#c0e6ed" d="M20.828,35.757c-0.69-0.77-1.55-0.89-2.39-1.01l-0.12-0.02c-1.3-0.19-2.91-0.43-4.18,0.08 c-1.29,0.52-2.14,1.74-2.29,3.29c-0.15,1.51,0.52,2.99,1.72,3.87c0.92,0.67,2.15,1.02,3.37,1.02c0.86,0,1.72-0.17,2.47-0.52 c1.45-0.69,2.34-2.19,2.43-4.12C21.868,37.777,21.488,36.477,20.828,35.757z M18.988,41.557c-1.51,0.71-3.54,0.54-4.83-0.4 c-0.92-0.67-1.43-1.81-1.32-2.96c0.12-1.19,0.72-2.08,1.67-2.46c0.43-0.17,0.94-0.23,1.48-0.23c0.73,0,1.5,0.11,2.18,0.21 l0.13,0.02c0.83,0.12,1.36,0.22,1.79,0.69c0.48,0.53,0.76,1.59,0.75,1.87C20.798,39.217,20.498,40.847,18.988,41.557z M20.828,35.757c-0.69-0.77-1.55-0.89-2.39-1.01l-0.12-0.02c-1.3-0.19-2.91-0.43-4.18,0.08c-1.29,0.52-2.14,1.74-2.29,3.29 c-0.15,1.51,0.52,2.99,1.72,3.87c0.92,0.67,2.15,1.02,3.37,1.02c0.86,0,1.72-0.17,2.47-0.52c1.45-0.69,2.34-2.19,2.43-4.12 C21.868,37.777,21.488,36.477,20.828,35.757z M18.988,41.557c-1.51,0.71-3.54,0.54-4.83-0.4c-0.92-0.67-1.43-1.81-1.32-2.96 c0.12-1.19,0.72-2.08,1.67-2.46c0.43-0.17,0.94-0.23,1.48-0.23c0.73,0,1.5,0.11,2.18,0.21l0.13,0.02 c0.83,0.12,1.36,0.22,1.79,0.69c0.48,0.53,0.76,1.59,0.75,1.87C20.798,39.217,20.498,40.847,18.988,41.557z"/><path fill="#c0e6ed" d="M17.868,37.917c-0.14-0.22-0.38-0.35-0.71-0.41c-0.65-0.1-1.77,0.11-2.11,0.39 c-0.46,0.39-0.31,1.08-0.21,1.53c0.09,0.4,0.52,0.63,0.78,0.73c0.24,0.09,0.55,0.16,0.87,0.16c0.38,0,0.78-0.09,1.14-0.34 C18.158,39.617,18.128,38.337,17.868,37.917z M16.998,39.197c-0.46,0.26-1.04,0.05-1.2-0.07c-0.03-0.12-0.07-0.35-0.07-0.47 c0.28-0.11,1.01-0.22,1.3-0.16C17.058,38.687,17.048,39.037,16.998,39.197z"/><path fill="#c0e6ed" d="M40.088,38.567c-0.16-1-0.36-1.96-1.1-2.62c-0.63-0.56-1.56-0.79-2.55-0.6 c-0.2,0.03-0.46,0.07-0.76,0.11c-0.88,0.11-1.88,0.24-2.45,0.54c-0.98,0.51-1.33,1.67-1.6,2.6l-0.09,0.29 c-0.37,1.23,0.09,2.61,1.09,3.22c0.78,0.48,1.48,0.75,2.12,0.82c0.41,0.04,0.83,0.06,1.24,0.06c0.69,0,1.37-0.06,1.99-0.18 c0.66-0.12,1.1-0.73,1.46-1.22c0.09-0.11,0.17-0.22,0.25-0.32C40.318,40.497,40.228,39.467,40.088,38.567z M38.918,40.627 c-0.09,0.11-0.19,0.24-0.29,0.37c-0.25,0.35-0.56,0.78-0.84,0.83c-0.87,0.17-1.95,0.21-2.93,0.1c-0.49-0.05-1.05-0.27-1.71-0.67 c-0.61-0.38-0.89-1.29-0.65-2.08l0.09-0.3c0.24-0.83,0.49-1.68,1.1-1.99c0.41-0.22,1.4-0.35,2.13-0.44 c0.31-0.04,0.59-0.08,0.8-0.12c0.16-0.03,0.32-0.04,0.48-0.04c0.49,0,0.93,0.14,1.22,0.41c0.5,0.44,0.65,1.21,0.78,2.03 C39.208,39.437,39.288,40.177,38.918,40.627z"/><path fill="#c0e6ed" d="M36.388,38.157c-0.59-0.24-1.3-0.07-1.7,0.41c-0.43,0.52-0.42,1.3,0.03,1.79 c0.3,0.34,0.72,0.52,1.26,0.52c0.15,0,0.31-0.01,0.47-0.04c0.62-0.1,1.12-0.69,1.12-1.32 C37.578,38.817,36.798,38.317,36.388,38.157z M36.298,39.847c-0.41,0.06-0.69,0.02-0.83-0.15c0-0.01-0.01-0.01-0.01-0.02 c-0.11-0.11-0.11-0.34,0-0.48c0.08-0.09,0.23-0.15,0.37-0.15c0.06,0,0.13,0.01,0.18,0.03c0.28,0.12,0.54,0.35,0.56,0.43 C36.568,39.647,36.428,39.827,36.298,39.847z"/><path fill="#73a1b2" d="M44.108,25.747c-1.63,0-3.14-0.05-4.6-0.09c-2.92-0.07-5.69-0.14-9.04,0.07 c-0.66-1.72-0.5-2.4-0.12-3.93c0.08-0.33,0.18-0.7,0.27-1.11c3.07-0.22,5.47-0.1,6.93-0.03c0.3,0.01,0.56,0.02,0.99,0.04 c1.35,1.11,2.69,2.23,4.04,3.37C43.148,24.527,43.798,25.057,44.108,25.747z"/><path fill="#c0e6ed" d="M35.668,29.057c-1.06,0.19-2.16,0.1-3.18-0.26c-0.26-0.09-0.55,0.04-0.64,0.3 c-0.09,0.26,0.04,0.55,0.3,0.64c0.78,0.28,1.6,0.42,2.42,0.42c0.43,0,0.86-0.04,1.28-0.11c0.27-0.05,0.45-0.31,0.4-0.59 C36.198,29.187,35.938,29.007,35.668,29.057z M35.668,29.057c-1.06,0.19-2.16,0.1-3.18-0.26c-0.26-0.09-0.55,0.04-0.64,0.3 c-0.09,0.26,0.04,0.55,0.3,0.64c0.78,0.28,1.6,0.42,2.42,0.42c0.43,0,0.86-0.04,1.28-0.11c0.27-0.05,0.45-0.31,0.4-0.59 C36.198,29.187,35.938,29.007,35.668,29.057z M30.108,26.737v0.01c0.01,0,0.01,0,0.02,0c0.03,0,0.07-0.01,0.1-0.01H30.108z M26.358,30.977c0.01,0.09,0.02,0.18,0.02,0.28c0.01-0.03,0.02-0.06,0.02-0.09C26.398,31.097,26.388,31.037,26.358,30.977z M26.358,30.977c0.01-0.01,0.01-0.01,0-0.02c-0.07-0.18-0.23-0.3-0.44-0.31c-0.2-0.01-0.39-0.02-0.58-0.03 c-0.86-0.03-1.62-0.07-2.31-0.1c-4.35-0.19-5.97-0.26-11.68,0.37c-0.44,0.05-0.87,0.11-1.3,0.17c-1.55,0.23-2.91,0.42-4.26-0.15 c0.01,0.36,0.01,0.72,0.02,1.08c0.66,0.22,1.31,0.3,1.96,0.3c0.8,0,1.6-0.12,2.43-0.24c0.41-0.06,0.83-0.12,1.26-0.17 c5.63-0.62,7.12-0.56,11.53-0.36c0.72,0.03,1.52,0.07,2.42,0.11c0.15,0.01,0.31,0.01,0.47,0.02c0.01,0,0.01,0,0.02,0 c0.24,0,0.44-0.16,0.48-0.39C26.378,31.157,26.368,31.067,26.358,30.977z M35.668,29.057c-1.06,0.19-2.16,0.1-3.18-0.26 c-0.26-0.09-0.55,0.04-0.64,0.3c-0.09,0.26,0.04,0.55,0.3,0.64c0.78,0.28,1.6,0.42,2.42,0.42c0.43,0,0.86-0.04,1.28-0.11 c0.27-0.05,0.45-0.31,0.4-0.59C36.198,29.187,35.938,29.007,35.668,29.057z M35.668,29.057c-1.06,0.19-2.16,0.1-3.18-0.26 c-0.26-0.09-0.55,0.04-0.64,0.3c-0.09,0.26,0.04,0.55,0.3,0.64c0.78,0.28,1.6,0.42,2.42,0.42c0.43,0,0.86-0.04,1.28-0.11 c0.27-0.05,0.45-0.31,0.4-0.59C36.198,29.187,35.938,29.007,35.668,29.057z M30.108,26.737v0.01c0.01,0,0.01,0,0.02,0 c0.03,0,0.07-0.01,0.1-0.01H30.108z M30.038,26.727v0.01h0.01C30.038,26.737,30.038,26.737,30.038,26.727z M26.358,30.977 c0.01,0.09,0.02,0.18,0.02,0.28c0.01-0.03,0.02-0.06,0.02-0.09C26.398,31.097,26.388,31.037,26.358,30.977z M24.068,38.717 c0.01,0,0.03-0.01,0.04-0.01c-0.05,0.01-0.08,0-0.11-0.02c-0.04-0.03-0.19-0.15-0.28-0.57c-0.15-0.75-0.35-1.61-0.69-2.4 c-0.42-0.99-1.25-1.79-2.32-2.24c-0.95-0.41-2.74-0.73-3.84-0.71c-1.81,0.04-4.24,0.84-5.56,2.54c-0.54,0.69-0.81,1.51-1.07,2.29 c-0.1,0.32-0.21,0.64-0.33,0.95c-0.16,0.4-0.47,0.78-1.6,0.83c0.25,0.02,0.5,0.21,0.51,0.49c0.01,0.24-0.16,0.44-0.39,0.5 c1.27-0.07,2.05-0.54,2.41-1.45c0.13-0.33,0.24-0.67,0.35-1c0.24-0.74,0.47-1.44,0.91-1.99c0.97-1.25,2.9-2.12,4.79-2.16 c0.94-0.04,2.61,0.28,3.43,0.63c0.83,0.35,1.47,0.96,1.79,1.71c0.31,0.71,0.49,1.51,0.63,2.22c0.15,0.71,0.48,1.04,0.72,1.2 c0.05,0.03,0.09,0.06,0.14,0.08c0.02,0.01,0.03,0.01,0.05,0.02c0.01,0.01,0.02,0.01,0.03,0.01l0.01,0.01 c0.06,0.02,0.13,0.04,0.19,0.04c0.01,0.01,0.01,0.01,0.02,0c-0.2-0.07-0.33-0.26-0.33-0.47 C23.568,38.937,23.788,38.717,24.068,38.717z M5.518,10.947c-0.2,0-0.33-0.02-0.48-0.05c-0.19-0.04-0.39-0.08-0.72-0.07 c-0.28,0.01-0.49,0.24-0.48,0.52c0,0.27,0.23,0.51,0.51,0.48c0.21-0.01,0.33,0.02,0.49,0.05c0.16,0.03,0.35,0.07,0.62,0.07h0.1 c0.27-0.01,0.49-0.24,0.48-0.52C6.028,11.157,5.788,10.937,5.518,10.947z M8.928,14.427c-0.01-0.27-0.25-0.51-0.51-0.49 c-0.28,0.01-0.5,0.23-0.49,0.51l0.01,1.03c0.01,0.28,0.23,0.49,0.5,0.49h0.01c0.28,0,0.5-0.23,0.49-0.5L8.928,14.427z M11.138,13.377c-0.66-0.78-1.4-1.48-2.19-2.09l0.63-0.88c0.17-0.23,0.12-0.54-0.11-0.7c-0.22-0.16-0.54-0.11-0.7,0.11l-0.81,1.13 c-0.04,0.06-0.14,0.19-0.15,0.39c0,0.16,0.05,0.39,0.32,0.59c0.82,0.6,1.57,1.31,2.25,2.1c0.1,0.12,0.24,0.18,0.38,0.18 c0.12,0,0.23-0.04,0.32-0.12C11.298,13.907,11.318,13.587,11.138,13.377z M9.278,6.947c-0.27,0-0.5,0.23-0.5,0.5v0.98 c0,0.27,0.23,0.5,0.5,0.5c0.28,0,0.5-0.23,0.5-0.5v-0.98C9.778,7.177,9.558,6.947,9.278,6.947z M13.328,10.767l-1.1,0.06 c-0.27,0.02-0.48,0.25-0.47,0.53c0.02,0.26,0.24,0.47,0.5,0.47h0.03l1.09-0.06c0.28-0.02,0.49-0.26,0.48-0.53 C13.838,10.957,13.588,10.747,13.328,10.767z M35.668,29.057c-1.06,0.19-2.16,0.1-3.18-0.26c-0.26-0.09-0.55,0.04-0.64,0.3 c-0.09,0.26,0.04,0.55,0.3,0.64c0.78,0.28,1.6,0.42,2.42,0.42c0.43,0,0.86-0.04,1.28-0.11c0.27-0.05,0.45-0.31,0.4-0.59 C36.198,29.187,35.938,29.007,35.668,29.057z M35.668,29.057c-1.06,0.19-2.16,0.1-3.18-0.26c-0.26-0.09-0.55,0.04-0.64,0.3 c-0.09,0.26,0.04,0.55,0.3,0.64c0.78,0.28,1.6,0.42,2.42,0.42c0.43,0,0.86-0.04,1.28-0.11c0.27-0.05,0.45-0.31,0.4-0.59 C36.198,29.187,35.938,29.007,35.668,29.057z M30.108,26.737v0.01c0.01,0,0.01,0,0.02,0c0.03,0,0.07-0.01,0.1-0.01H30.108z M30.038,26.737h0.02c0.01,0.01,0.01,0.01,0.02,0c-0.02,0-0.03,0-0.04-0.01V26.737z M26.378,31.257c0.01-0.03,0.02-0.06,0.02-0.09 c0-0.07-0.01-0.13-0.04-0.19C26.368,31.067,26.378,31.157,26.378,31.257z M23.718,38.117c-0.15-0.75-0.35-1.61-0.69-2.4 c-0.42-0.99-1.25-1.79-2.32-2.24c-0.95-0.41-2.74-0.73-3.84-0.71c-1.81,0.04-4.24,0.84-5.56,2.54c-0.54,0.69-0.81,1.51-1.07,2.29 c-0.1,0.32-0.21,0.64-0.33,0.95c-0.16,0.4-0.47,0.78-1.6,0.83c0.25,0.02,0.5,0.21,0.51,0.49c0.01,0.24-0.16,0.44-0.39,0.5 c1.27-0.07,2.05-0.54,2.41-1.45c0.13-0.33,0.24-0.67,0.35-1c0.24-0.74,0.47-1.44,0.91-1.99c0.97-1.25,2.9-2.12,4.79-2.16 c0.94-0.04,2.61,0.28,3.43,0.63c0.83,0.35,1.47,0.96,1.79,1.71c0.31,0.71,0.49,1.51,0.63,2.22c0.15,0.71,0.48,1.04,0.72,1.2 c0.05,0.03,0.09,0.06,0.14,0.08c0.02,0.01,0.03,0.01,0.05,0.02c0.01,0.01,0.02,0.01,0.03,0.01l0.01,0.01 c0.06,0.02,0.13,0.04,0.19,0.04c0.01,0.01,0.01,0.01,0.02,0c-0.2-0.07-0.33-0.26-0.33-0.47c0-0.28,0.22-0.5,0.5-0.5 c0.01,0,0.03-0.01,0.04-0.01c-0.05,0.01-0.08,0-0.11-0.02C23.958,38.657,23.808,38.537,23.718,38.117z M13.328,10.767l-1.1,0.06 c-0.27,0.02-0.48,0.25-0.47,0.53c0.02,0.26,0.24,0.47,0.5,0.47h0.03l1.09-0.06c0.28-0.02,0.49-0.26,0.48-0.53 C13.838,10.957,13.588,10.747,13.328,10.767z M9.278,8.927c0.28,0,0.5-0.23,0.5-0.5v-0.98c0-0.27-0.22-0.5-0.5-0.5 c-0.27,0-0.5,0.23-0.5,0.5v0.98C8.778,8.697,9.008,8.927,9.278,8.927z M8.948,11.287l0.63-0.88c0.17-0.23,0.12-0.54-0.11-0.7 c-0.22-0.16-0.54-0.11-0.7,0.11l-0.81,1.13c-0.04,0.06-0.14,0.19-0.15,0.39c0,0.16,0.05,0.39,0.32,0.59 c0.82,0.6,1.57,1.31,2.25,2.1c0.1,0.12,0.24,0.18,0.38,0.18c0.12,0,0.23-0.04,0.32-0.12c0.22-0.18,0.24-0.5,0.06-0.71 C10.478,12.597,9.738,11.897,8.948,11.287z M8.418,13.937c-0.28,0.01-0.5,0.23-0.49,0.51l0.01,1.03c0.01,0.28,0.23,0.49,0.5,0.49 h0.01c0.28,0,0.5-0.23,0.49-0.5l-0.01-1.04C8.918,14.157,8.678,13.917,8.418,13.937z M5.518,10.947c-0.2,0-0.33-0.02-0.48-0.05 c-0.19-0.04-0.39-0.08-0.72-0.07c-0.28,0.01-0.49,0.24-0.48,0.52c0,0.27,0.23,0.51,0.51,0.48c0.21-0.01,0.33,0.02,0.49,0.05 c0.16,0.03,0.35,0.07,0.62,0.07h0.1c0.27-0.01,0.49-0.24,0.48-0.52C6.028,11.157,5.788,10.937,5.518,10.947z M30.108,26.737v0.01 c0.01,0,0.01,0,0.02,0c0.03,0,0.07-0.01,0.1-0.01H30.108z M30.038,26.737h0.02c0.01,0.01,0.01,0.01,0.02,0 c-0.02,0-0.03,0-0.04-0.01V26.737z M26.818,17.557c0-0.14,0.01-0.29,0.02-0.45c-0.31,0.03-0.62,0.05-0.92,0.06 c-0.25,0.01-0.46,0.2-0.48,0.46c-0.36,4.04-0.38,8.66-0.1,12.99c-0.86-0.03-1.62-0.07-2.31-0.1c-4.35-0.19-5.97-0.26-11.68,0.37 c-0.44,0.05-0.87,0.11-1.3,0.17c-1.55,0.23-2.91,0.42-4.26-0.15c0.01,0.36,0.01,0.72,0.02,1.08c0.66,0.22,1.31,0.3,1.96,0.3 c0.8,0,1.6-0.12,2.43-0.24c0.41-0.06,0.83-0.12,1.26-0.17c5.63-0.62,7.12-0.56,11.53-0.36c0.72,0.03,1.52,0.07,2.42,0.11 c0.15,0.01,0.31,0.01,0.47,0.02c0.01,0,0.01,0,0.02,0c0.24,0,0.44-0.16,0.48-0.39c0.01-0.03,0.02-0.06,0.02-0.09 c0-0.07-0.01-0.13-0.04-0.19c0.01-0.01,0.01-0.01,0-0.02c-0.29-4.24-0.29-8.79,0.04-12.81c0.3-0.02,0.6-0.04,0.9-0.08 C27.018,18.047,26.808,17.827,26.818,17.557z M12.258,11.827h0.03l1.09-0.06c0.28-0.02,0.49-0.26,0.48-0.53 c-0.02-0.28-0.27-0.49-0.53-0.47l-1.1,0.06c-0.27,0.02-0.48,0.25-0.47,0.53C11.778,11.617,11.998,11.827,12.258,11.827z M11.018,17.617c2.59-0.77,4.11-1.93,4.65-3.56c0-0.01,0.01-0.01,0.01-0.02c0.31-1.1,0.33-2.26,0.1-3.38 c-0.2,0.01-0.4,0.02-0.61,0.03c-0.2,0.01-0.38-0.1-0.48-0.27c0.31,1.08,0.33,2.24,0.03,3.33c-0.44,1.31-1.7,2.24-3.99,2.92 c-1.63,0.48-3.51,0.26-5.15-0.6c-0.06-0.03-0.13-0.07-0.2-0.11c0.12,0.09,0.2,0.23,0.2,0.39c0.01,0.27,0.01,0.56,0.01,0.84 c1.08,0.48,2.23,0.73,3.36,0.73C9.648,17.917,10.348,17.817,11.018,17.617z M45.868,32.347c0.03-0.07,0.05-0.14,0.05-0.21 c0-0.09-0.03-0.19-0.08-0.27c-0.06-0.9-0.13-1.77-0.19-2.58v-0.04c0-0.04-0.01-0.09-0.02-0.13c-0.06-0.63-0.11-1.22-0.16-1.76 c-0.04-0.37-0.08-0.75-0.16-1.12l-0.04-0.19c-0.05-0.23-0.12-0.46-0.22-0.68c-0.41-0.91-1.2-1.56-1.83-2.07 c-1.38-1.16-2.76-2.3-4.14-3.45c-0.03-0.02-0.05-0.04-0.08-0.06c-0.19-0.18-0.39-0.34-0.58-0.5c-0.96-0.79-2.05-1.69-3.33-2.2 c-2.04-0.79-4.21-0.5-6.32-0.21c-0.3,0.04-0.61,0.08-0.92,0.12c0-0.11,0-0.23,0.01-0.35c0.06-1.45,0.14-3.42-0.05-4.57 c-0.01-0.12-0.03-0.26-0.05-0.4c-0.05-0.41-0.08-0.67-0.17-0.85c-0.47-1.02-1.78-0.93-2.49-0.88c-1.65,0.13-3.18,0.01-4.8-0.12 c-1.52-0.12-3.08-0.25-4.81-0.16c-0.31-0.88-0.8-1.71-1.44-2.4c-1.66-1.78-4.26-2.61-6.64-2.11c-2.37,0.49-4.43,2.28-5.24,4.57 c-0.55,1.55-0.5,3.19,0.15,4.5c0.55,1.13,1.46,1.91,2.26,2.41c0.06,3.22,0.11,7.11,0.17,11.02c0.01,1.2,0.03,2.41,0.05,3.59 c0.01,1.04,0.03,2.06,0.04,3.05c0,0.01,0,0.01,0,0.02c0.02,1.41,0.04,2.77,0.07,4.04c0,0.01,0,0.01,0,0.02 c0,0.25,0.01,0.5,0.01,0.74c0.01,0.21,0.02,0.49,0.16,0.74c0.24,0.45,0.72,0.69,1.33,0.69c0.21,0,0.44-0.03,0.67-0.08 c0.09-0.03,0.51-0.07,1.24-0.09h0.03c0.03,0,0.06,0,0.08-0.01c1.27-0.07,2.05-0.54,2.41-1.45c0.13-0.33,0.24-0.67,0.35-1 c0.24-0.74,0.47-1.44,0.91-1.99c0.97-1.25,2.9-2.12,4.79-2.16c0.94-0.04,2.61,0.28,3.43,0.63c0.83,0.35,1.47,0.96,1.79,1.71 c0.31,0.71,0.49,1.51,0.63,2.22c0.15,0.71,0.48,1.04,0.72,1.2c0.05,0.03,0.09,0.06,0.14,0.08c0.02,0.01,0.03,0.01,0.05,0.02 c0.01,0.01,0.02,0.01,0.03,0.01l0.01,0.01c0.06,0.02,0.13,0.04,0.19,0.04c0.01,0.01,0.01,0.01,0.02,0h0.01c0,0,0,0,0.01,0v0.01 h0.02c0.01,0,0.01,0,0.01,0c0.02,0.01,0.04,0.01,0.06,0.01c0.02,0.01,0.04,0.01,0.06,0.01c0.1,0,0.18-0.02,0.26-0.03 c0.07-0.02,0.15-0.03,0.23-0.05c0.01,0,0.02,0,0.03-0.01c0.1-0.01,0.21-0.03,0.32-0.04c0.01-0.01,0.01-0.01,0.02-0.01h0.07 c0.05-0.01,0.11-0.02,0.17-0.02c0.27-0.02,0.58-0.02,0.93,0.02c0.01,0.01,0.01,0.01,0.02,0.01c0.04,0,0.09,0.01,0.14,0.02 l0.18,0.03c0.01,0,0.01,0,0.02,0s0.02,0.01,0.03,0.01c0.06,0.01,0.13,0.02,0.2,0.04h0.03v0.01c0.02,0,0.03,0.01,0.05,0.01 s0.04,0.01,0.06,0.02c0.01,0,0.01,0,0.02,0c0.27,0.08,0.78,0.15,1.88,0.15h0.01c0.01,0,0.01,0,0.02,0 c1.38-0.02,1.94-1.07,2.49-2.07c0.62-1.15,1.32-2.44,3.32-3.05c0.68-0.21,1.42-0.14,2.21-0.07l0.48,0.04 c1.03,0.08,1.67,0.23,2.13,0.78c0.55,0.65,1.23,1.63,1.48,2.38c0.05,0.16,0.09,0.32,0.13,0.46c0.16,0.57,0.38,1.34,1.37,1.29 c0.01,0,0.01,0,0.02,0c0.71-0.04,2.19-0.13,2.8,0.07c0.14,0.05,0.3,0.03,0.42-0.05c0.13-0.07,0.22-0.21,0.24-0.36 C46.088,37.417,46.028,34.827,45.868,32.347z M44.818,31.657c-0.43,0.01-0.78,0.03-1.23,0.12l-0.64-1.94 c-0.02-0.04-0.05-0.11-0.07-0.18c0.09,0,0.2-0.01,0.28-0.01c0.71-0.03,1.07,0.03,1.37,0.07c0.05,0.01,0.1,0.01,0.15,0.02 C44.728,30.347,44.778,30.987,44.818,31.657z M44.108,25.747c-1.63,0-3.14-0.05-4.6-0.09c-2.92-0.07-5.69-0.14-9.04,0.07 c-0.66-1.72-0.5-2.4-0.12-3.93c0.08-0.33,0.18-0.7,0.27-1.11c3.07-0.22,5.47-0.1,6.93-0.03c0.3,0.01,0.56,0.02,0.99,0.04 c1.35,1.11,2.69,2.23,4.04,3.37C43.148,24.527,43.798,25.057,44.108,25.747z M20.218,10.827c1.66,0.13,3.23,0.26,4.95,0.12 c0.66-0.05,1.36-0.05,1.51,0.29c0.03,0.08,0.07,0.37,0.09,0.56c0.02,0.16,0.04,0.31,0.06,0.44c0.17,1.05,0.09,2.96,0.03,4.36 c-0.01,0.18-0.02,0.35-0.02,0.51c-0.31,0.03-0.62,0.05-0.92,0.06c-0.25,0.01-0.46,0.2-0.48,0.46c-0.36,4.04-0.38,8.66-0.1,12.99 c-0.86-0.03-1.62-0.07-2.31-0.1c-4.35-0.19-5.97-0.26-11.68,0.37c-0.44,0.05-0.87,0.11-1.3,0.17c-1.55,0.23-2.91,0.42-4.26-0.15 c-0.01-1.08-0.03-2.18-0.04-3.27c-0.05-3.67-0.1-7.35-0.16-10.45c1.08,0.48,2.23,0.73,3.36,0.73c0.7,0,1.4-0.1,2.07-0.3 c2.59-0.77,4.11-1.93,4.65-3.56c0-0.01,0.01-0.01,0.01-0.02c0.31-1.1,0.33-2.26,0.1-3.38 C17.358,10.597,18.808,10.707,20.218,10.827z M5.848,34.837c0.12,0,0.25-0.01,0.38-0.01c0.38,0,0.74-0.01,1.1,0.02 c-0.03,0.93-0.28,1.86-0.53,2.77c-0.03,0.11-0.05,0.17-0.07,0.19c-0.03,0.02-0.11,0.04-0.25,0.05c-0.19,0.02-0.39,0.04-0.58,0.04 C5.878,36.927,5.868,35.897,5.848,34.837z M3.218,13.787c-0.53-1.07-0.57-2.43-0.11-3.72c0.7-1.97,2.47-3.51,4.51-3.93 c0.39-0.09,0.79-0.13,1.18-0.13c1.69,0,3.37,0.71,4.52,1.94c0.62,0.67,1.08,1.49,1.34,2.37c0.01,0.03,0.02,0.06,0.03,0.09v0.01 c0.31,1.08,0.33,2.24,0.03,3.33c-0.44,1.31-1.7,2.24-3.99,2.92c-1.63,0.48-3.51,0.26-5.15-0.6c-0.06-0.03-0.13-0.07-0.2-0.11 c-0.03-0.02-0.07-0.04-0.11-0.06C4.548,15.457,3.708,14.777,3.218,13.787z M24.188,38.697c-0.03,0-0.05,0-0.08,0.01 c-0.05,0.01-0.08,0-0.11-0.02c-0.04-0.03-0.19-0.15-0.28-0.57c-0.15-0.75-0.35-1.61-0.69-2.4c-0.42-0.99-1.25-1.79-2.32-2.24 c-0.95-0.41-2.74-0.73-3.84-0.71c-1.81,0.04-4.24,0.84-5.56,2.54c-0.54,0.69-0.81,1.51-1.07,2.29c-0.1,0.32-0.21,0.64-0.33,0.95 c-0.16,0.4-0.47,0.78-1.6,0.83c-0.01,0-0.01,0-0.02,0c-0.35,0.01-1.16,0.04-1.45,0.12c-0.41,0.1-0.79,0.06-0.87-0.11 c-0.04-0.06-0.04-0.19-0.05-0.36v-0.13c0.22,0,0.44-0.02,0.66-0.04c0.2-0.02,0.56-0.06,0.83-0.31c0.24-0.22,0.31-0.53,0.35-0.68 c0.31-1.11,0.62-2.26,0.56-3.48c-0.01-0.22-0.18-0.42-0.4-0.46c-0.58-0.11-1.15-0.1-1.71-0.1c-0.12,0-0.25,0.01-0.38,0.01 c0-0.61-0.01-1.23-0.02-1.85c0.66,0.22,1.31,0.3,1.96,0.3c0.8,0,1.6-0.12,2.43-0.24c0.41-0.06,0.83-0.12,1.26-0.17 c5.63-0.62,7.12-0.56,11.53-0.36c0.72,0.03,1.52,0.07,2.42,0.11c0.19,2.5,0.47,4.88,0.85,6.96 C25.428,38.487,24.768,38.577,24.188,38.697z M44.908,38.637c-0.64-0.09-1.51-0.06-2.56,0c-0.01,0-0.01,0-0.02,0 s-0.03,0-0.04,0.01c-0.15,0.01-0.18-0.03-0.32-0.56c-0.04-0.16-0.09-0.33-0.15-0.52c-0.36-1.08-1.28-2.25-1.66-2.71 c-0.76-0.9-1.81-1.05-2.83-1.12l-0.46-0.04c-0.85-0.08-1.72-0.16-2.59,0.1c-2.4,0.73-3.27,2.35-3.91,3.53 c-0.57,1.05-0.87,1.55-1.64,1.55c-0.8,0-1.2-0.04-1.41-0.07c-0.43-2.23-0.74-4.82-0.94-7.55c0.01-0.03,0.02-0.06,0.02-0.09 c0-0.07-0.01-0.13-0.04-0.19c0.01-0.01,0.01-0.01,0-0.02c-0.29-4.24-0.29-8.79,0.04-12.81c0.3-0.02,0.6-0.04,0.9-0.08h0.02 c0.01,0,0.01,0,0.02,0c0.53-0.06,1.06-0.13,1.57-0.2c2.07-0.28,4.02-0.55,5.82,0.15c0.93,0.37,1.74,0.98,2.53,1.62 c-1.56-0.07-4.01-0.16-7.09,0.08c-0.22,0.01-0.41,0.18-0.45,0.39c-0.12,0.57-0.24,1.04-0.34,1.45c-0.41,1.67-0.63,2.59,0.26,4.8 c0.01,0.02,0.02,0.05,0.03,0.08c0.01,0.03,0.03,0.06,0.06,0.09c0.01,0.02,0.02,0.03,0.03,0.04c0.02,0.03,0.04,0.05,0.06,0.06 c0.04,0.04,0.09,0.07,0.14,0.08c0.02,0.01,0.05,0.02,0.07,0.02c0,0,0,0,0.01,0v0.01h0.02c0.01,0.01,0.01,0.01,0.02,0h0.03v0.01 c0.01,0,0.01,0,0.02,0c0.03,0,0.07-0.01,0.1-0.01c0.01,0,0.02-0.01,0.03-0.01c3.42-0.22,6.24-0.14,9.23-0.07 c1.54,0.04,3.14,0.09,4.9,0.09c0.04,0.23,0.06,0.49,0.09,0.75c0.03,0.38,0.07,0.78,0.11,1.21c-0.31-0.04-0.74-0.09-1.54-0.06 c-0.4,0.02-0.75,0.04-0.98,0.25c-0.4,0.38-0.19,0.95-0.06,1.29l0.77,2.34c0.07,0.21,0.27,0.34,0.48,0.34c0.04,0,0.08,0,0.12-0.01 c0.62-0.16,0.97-0.19,1.51-0.2C45.018,34.777,45.068,36.947,44.908,38.637z M35.668,29.057c-1.06,0.19-2.16,0.1-3.18-0.26 c-0.26-0.09-0.55,0.04-0.64,0.3c-0.09,0.26,0.04,0.55,0.3,0.64c0.78,0.28,1.6,0.42,2.42,0.42c0.43,0,0.86-0.04,1.28-0.11 c0.27-0.05,0.45-0.31,0.4-0.59C36.198,29.187,35.938,29.007,35.668,29.057z M12.258,11.827h0.03l1.09-0.06 c0.28-0.02,0.49-0.26,0.48-0.53c-0.02-0.28-0.27-0.49-0.53-0.47l-1.1,0.06c-0.27,0.02-0.48,0.25-0.47,0.53 C11.778,11.617,11.998,11.827,12.258,11.827z M9.278,8.927c0.28,0,0.5-0.23,0.5-0.5v-0.98c0-0.27-0.22-0.5-0.5-0.5 c-0.27,0-0.5,0.23-0.5,0.5v0.98C8.778,8.697,9.008,8.927,9.278,8.927z M8.128,11.927c0.82,0.6,1.57,1.31,2.25,2.1 c0.1,0.12,0.24,0.18,0.38,0.18c0.12,0,0.23-0.04,0.32-0.12c0.22-0.18,0.24-0.5,0.06-0.71c-0.66-0.78-1.4-1.48-2.19-2.09l0.63-0.88 c0.17-0.23,0.12-0.54-0.11-0.7c-0.22-0.16-0.54-0.11-0.7,0.11l-0.81,1.13c-0.04,0.06-0.14,0.19-0.15,0.39 C7.808,11.497,7.858,11.727,8.128,11.927z M8.418,13.937c-0.28,0.01-0.5,0.23-0.49,0.51l0.01,1.03c0.01,0.28,0.23,0.49,0.5,0.49 h0.01c0.28,0,0.5-0.23,0.49-0.5l-0.01-1.04C8.918,14.157,8.678,13.917,8.418,13.937z M5.558,11.947c0.27-0.01,0.49-0.24,0.48-0.52 c-0.01-0.27-0.25-0.49-0.52-0.48c-0.2,0-0.33-0.02-0.48-0.05c-0.19-0.04-0.39-0.08-0.72-0.07c-0.28,0.01-0.49,0.24-0.48,0.52 c0,0.27,0.23,0.51,0.51,0.48c0.21-0.01,0.33,0.02,0.49,0.05c0.16,0.03,0.35,0.07,0.62,0.07H5.558z M30.108,26.737v0.01 c0.01,0,0.01,0,0.02,0c0.03,0,0.07-0.01,0.1-0.01H30.108z M30.038,26.737h0.02c0.01,0.01,0.01,0.01,0.02,0 c-0.02,0-0.03,0-0.04-0.01V26.737z M26.818,17.557c0-0.14,0.01-0.29,0.02-0.45c-0.31,0.03-0.62,0.05-0.92,0.06 c-0.25,0.01-0.46,0.2-0.48,0.46c-0.36,4.04-0.38,8.66-0.1,12.99c0.02,0.34,0.04,0.68,0.07,1.01c0.15,0.01,0.31,0.01,0.47,0.02 c0.01,0,0.01,0,0.02,0c0.24,0,0.44-0.16,0.48-0.39c0.01-0.03,0.02-0.06,0.02-0.09c0-0.07-0.01-0.13-0.04-0.19 c0.01-0.01,0.01-0.01,0-0.02c-0.29-4.24-0.29-8.79,0.04-12.81c0.3-0.02,0.6-0.04,0.9-0.08 C27.018,18.047,26.808,17.827,26.818,17.557z M30.038,26.737h0.02c-0.01,0-0.02,0-0.02-0.01V26.737z M30.108,26.737v0.01 c0.01,0,0.01,0,0.02,0c0.03,0,0.07-0.01,0.1-0.01H30.108z M25.338,30.617c-0.86-0.03-1.62-0.07-2.31-0.1 c-4.35-0.19-5.97-0.26-11.68,0.37c-0.44,0.05-0.87,0.11-1.3,0.17c-1.55,0.23-2.91,0.42-4.26-0.15c0.01,0.36,0.01,0.72,0.02,1.08 c0.66,0.22,1.31,0.3,1.96,0.3c0.8,0,1.6-0.12,2.43-0.24c0.41-0.06,0.83-0.12,1.26-0.17c5.63-0.62,7.12-0.56,11.53-0.36 c0.72,0.03,1.52,0.07,2.42,0.11C25.378,31.297,25.358,30.957,25.338,30.617z M24.068,38.717c0.01,0,0.03-0.01,0.04-0.01 c-0.05,0.01-0.08,0-0.11-0.02c-0.04-0.03-0.19-0.15-0.28-0.57c-0.15-0.75-0.35-1.61-0.69-2.4c-0.42-0.99-1.25-1.79-2.32-2.24 c-0.95-0.41-2.74-0.73-3.84-0.71c-1.81,0.04-4.24,0.84-5.56,2.54c-0.54,0.69-0.81,1.51-1.07,2.29c-0.1,0.32-0.21,0.64-0.33,0.95 c-0.16,0.4-0.47,0.78-1.6,0.83c0.25,0.02,0.5,0.21,0.51,0.49c0.01,0.24-0.16,0.44-0.39,0.5c1.27-0.07,2.05-0.54,2.41-1.45 c0.13-0.33,0.24-0.67,0.35-1c0.24-0.74,0.47-1.44,0.91-1.99c0.97-1.25,2.9-2.12,4.79-2.16c0.94-0.04,2.61,0.28,3.43,0.63 c0.83,0.35,1.47,0.96,1.79,1.71c0.31,0.71,0.49,1.51,0.63,2.22c0.15,0.71,0.48,1.04,0.72,1.2c0.05,0.03,0.09,0.06,0.14,0.08 c0.02,0.01,0.03,0.01,0.05,0.02c0.01,0.01,0.02,0.01,0.03,0.01l0.01,0.01c0.06,0.02,0.13,0.04,0.19,0.04 c0.01,0.01,0.01,0.01,0.02,0c-0.2-0.07-0.33-0.26-0.33-0.47C23.568,38.937,23.788,38.717,24.068,38.717z M26.358,30.977 c0.01,0.09,0.02,0.18,0.02,0.28c0.01-0.03,0.02-0.06,0.02-0.09C26.398,31.097,26.388,31.037,26.358,30.977z M30.038,26.737h0.02 c-0.01,0-0.02,0-0.02-0.01V26.737z M30.108,26.737v0.01c0.01,0,0.01,0,0.02,0c0.03,0,0.07-0.01,0.1-0.01H30.108z M35.668,29.057 c-1.06,0.19-2.16,0.1-3.18-0.26c-0.26-0.09-0.55,0.04-0.64,0.3c-0.09,0.26,0.04,0.55,0.3,0.64c0.78,0.28,1.6,0.42,2.42,0.42 c0.43,0,0.86-0.04,1.28-0.11c0.27-0.05,0.45-0.31,0.4-0.59C36.198,29.187,35.938,29.007,35.668,29.057z M35.668,29.057 c-1.06,0.19-2.16,0.1-3.18-0.26c-0.26-0.09-0.55,0.04-0.64,0.3c-0.09,0.26,0.04,0.55,0.3,0.64c0.78,0.28,1.6,0.42,2.42,0.42 c0.43,0,0.86-0.04,1.28-0.11c0.27-0.05,0.45-0.31,0.4-0.59C36.198,29.187,35.938,29.007,35.668,29.057z M24.068,38.717 c0.01,0,0.03-0.01,0.04-0.01c-0.05,0.01-0.08,0-0.11-0.02c-0.04-0.03-0.19-0.15-0.28-0.57c-0.15-0.75-0.35-1.61-0.69-2.4 c-0.42-0.99-1.25-1.79-2.32-2.24c-0.95-0.41-2.74-0.73-3.84-0.71c-1.81,0.04-4.24,0.84-5.56,2.54c-0.54,0.69-0.81,1.51-1.07,2.29 c-0.1,0.32-0.21,0.64-0.33,0.95c-0.16,0.4-0.47,0.78-1.6,0.83c0.25,0.02,0.5,0.21,0.51,0.49c0.01,0.24-0.16,0.44-0.39,0.5 c1.27-0.07,2.05-0.54,2.41-1.45c0.13-0.33,0.24-0.67,0.35-1c0.24-0.74,0.47-1.44,0.91-1.99c0.97-1.25,2.9-2.12,4.79-2.16 c0.94-0.04,2.61,0.28,3.43,0.63c0.83,0.35,1.47,0.96,1.79,1.71c0.31,0.71,0.49,1.51,0.63,2.22c0.15,0.71,0.48,1.04,0.72,1.2 c0.05,0.03,0.09,0.06,0.14,0.08c0.02,0.01,0.03,0.01,0.05,0.02c0.01,0.01,0.02,0.01,0.03,0.01l0.01,0.01 c0.06,0.02,0.13,0.04,0.19,0.04c0.01,0.01,0.01,0.01,0.02,0c-0.2-0.07-0.33-0.26-0.33-0.47 C23.568,38.937,23.788,38.717,24.068,38.717z M26.358,30.977c0.01,0.09,0.02,0.18,0.02,0.28c0.01-0.03,0.02-0.06,0.02-0.09 C26.398,31.097,26.388,31.037,26.358,30.977z M30.108,26.737v0.01c0.01,0,0.01,0,0.02,0c0.03,0,0.07-0.01,0.1-0.01H30.108z M35.668,29.057c-1.06,0.19-2.16,0.1-3.18-0.26c-0.26-0.09-0.55,0.04-0.64,0.3c-0.09,0.26,0.04,0.55,0.3,0.64 c0.78,0.28,1.6,0.42,2.42,0.42c0.43,0,0.86-0.04,1.28-0.11c0.27-0.05,0.45-0.31,0.4-0.59 C36.198,29.187,35.938,29.007,35.668,29.057z M35.668,29.057c-1.06,0.19-2.16,0.1-3.18-0.26c-0.26-0.09-0.55,0.04-0.64,0.3 c-0.09,0.26,0.04,0.55,0.3,0.64c0.78,0.28,1.6,0.42,2.42,0.42c0.43,0,0.86-0.04,1.28-0.11c0.27-0.05,0.45-0.31,0.4-0.59 C36.198,29.187,35.938,29.007,35.668,29.057z"/><path fill="#d03827" d="M7.328,34.847c-0.03,0.93-0.28,1.86-0.53,2.77c-0.03,0.11-0.05,0.17-0.07,0.19 c-0.03,0.02-0.11,0.04-0.25,0.05c-0.19,0.02-0.39,0.04-0.58,0.04c-0.02-0.97-0.03-2-0.05-3.06c0.12,0,0.25-0.01,0.38-0.01 C6.608,34.827,6.968,34.817,7.328,34.847z"/><path fill="#4b7bb2" d="M26.858,16.597c-0.01,0.18-0.02,0.35-0.02,0.51c-0.31,0.03-0.62,0.05-0.92,0.06 c-0.25,0.01-0.46,0.2-0.48,0.46c-0.36,4.04-0.38,8.66-0.1,12.99c-0.86-0.03-1.62-0.07-2.31-0.1c-4.35-0.19-5.97-0.26-11.68,0.37 c-0.44,0.05-0.87,0.11-1.3,0.17c-1.55,0.23-2.91,0.42-4.26-0.15c-0.01-1.08-0.03-2.18-0.04-3.27c-0.05-3.67-0.1-7.35-0.16-10.45 c1.08,0.48,2.23,0.73,3.36,0.73c0.7,0,1.4-0.1,2.07-0.3c2.59-0.77,4.11-1.93,4.65-3.56c0-0.01,0.01-0.01,0.01-0.02 c0.31-1.1,0.33-2.26,0.1-3.38c1.58-0.06,3.03,0.05,4.44,0.17c1.66,0.13,3.23,0.26,4.95,0.12c0.66-0.05,1.36-0.05,1.51,0.29 c0.03,0.08,0.07,0.37,0.09,0.56c0.02,0.16,0.04,0.31,0.06,0.44C26.998,13.287,26.918,15.197,26.858,16.597z"/><path fill="#c0e6ed" d="M26.258,38.587c-0.83-0.1-1.49-0.01-2.07,0.11c-0.03,0-0.05,0-0.08,0.01 c-0.05,0.01-0.08,0-0.11-0.02c-0.04-0.03-0.19-0.15-0.28-0.57c-0.15-0.75-0.35-1.61-0.69-2.4c-0.42-0.99-1.25-1.79-2.32-2.24 c-0.95-0.41-2.74-0.73-3.84-0.71c-1.81,0.04-4.24,0.84-5.56,2.54c-0.54,0.69-0.81,1.51-1.07,2.29c-0.1,0.32-0.21,0.64-0.33,0.95 c-0.16,0.4-0.47,0.78-1.6,0.83c-0.01,0-0.01,0-0.02,0c-0.35,0.01-1.16,0.04-1.45,0.12c-0.41,0.1-0.79,0.06-0.87-0.11 c-0.04-0.06-0.04-0.19-0.05-0.36v-0.13c0.22,0,0.44-0.02,0.66-0.04c0.2-0.02,0.56-0.06,0.83-0.31c0.24-0.22,0.31-0.53,0.35-0.68 c0.31-1.11,0.62-2.26,0.56-3.48c-0.01-0.22-0.18-0.42-0.4-0.46c-0.58-0.11-1.15-0.1-1.71-0.1c-0.12,0-0.25,0.01-0.38,0.01 c0-0.61-0.01-1.23-0.02-1.85c0.66,0.22,1.31,0.3,1.96,0.3c0.8,0,1.6-0.12,2.43-0.24c0.41-0.06,0.83-0.12,1.26-0.17 c5.63-0.62,7.12-0.56,11.53-0.36c0.72,0.03,1.52,0.07,2.42,0.11C25.598,34.127,25.878,36.507,26.258,38.587z"/><path fill="#16b7b8" d="M44.818,31.657c-0.43,0.01-0.78,0.03-1.23,0.12l-0.64-1.94c-0.02-0.04-0.05-0.11-0.07-0.18 c0.09,0,0.2-0.01,0.28-0.01c0.71-0.03,1.07,0.03,1.37,0.07c0.05,0.01,0.1,0.01,0.15,0.02 C44.728,30.347,44.778,30.987,44.818,31.657z"/><path fill="#c0e6ed" d="M44.888,32.657c-0.54,0.01-0.89,0.04-1.51,0.2c-0.04,0.01-0.08,0.01-0.12,0.01 c-0.21,0-0.41-0.13-0.48-0.34l-0.77-2.34c-0.13-0.34-0.34-0.91,0.06-1.29c0.23-0.21,0.58-0.23,0.98-0.25 c0.8-0.03,1.23,0.02,1.54,0.06c-0.04-0.43-0.08-0.83-0.11-1.21c-0.03-0.26-0.05-0.52-0.09-0.75c-1.76,0-3.36-0.05-4.9-0.09 c-2.99-0.07-5.81-0.15-9.23,0.07c-0.01,0-0.02,0.01-0.03,0.01c-0.03,0-0.07,0.01-0.1,0.01c-0.06,0-0.12-0.01-0.17-0.04 c-0.05-0.01-0.1-0.04-0.14-0.08c-0.02-0.01-0.04-0.03-0.06-0.06c-0.01-0.01-0.02-0.02-0.03-0.04c-0.03-0.03-0.05-0.06-0.06-0.09 c-0.01-0.03-0.02-0.06-0.03-0.08c-0.89-2.21-0.67-3.13-0.26-4.8c0.1-0.41,0.22-0.88,0.34-1.45c0.04-0.21,0.23-0.38,0.45-0.39 c3.08-0.24,5.53-0.15,7.09-0.08c-0.79-0.64-1.6-1.25-2.53-1.62c-1.8-0.7-3.75-0.43-5.82-0.15c-0.51,0.07-1.04,0.14-1.57,0.2 c-0.01,0-0.01,0-0.02,0h-0.02c-0.3,0.04-0.6,0.06-0.9,0.08c-0.33,4.02-0.33,8.57-0.04,12.81c0.01,0.01,0.01,0.01,0,0.02 c0.03,0.06,0.04,0.12,0.04,0.19c0,0.03-0.01,0.06-0.02,0.09c0.2,2.73,0.51,5.32,0.94,7.55c0.21,0.03,0.61,0.07,1.41,0.07 c0.77,0,1.07-0.5,1.64-1.55c0.64-1.18,1.51-2.8,3.91-3.53c0.87-0.26,1.74-0.18,2.59-0.1l0.46,0.04c1.02,0.07,2.07,0.22,2.83,1.12 c0.38,0.46,1.3,1.63,1.66,2.71c0.06,0.19,0.11,0.36,0.15,0.52c0.14,0.53,0.17,0.57,0.32,0.56c0.01-0.01,0.03-0.01,0.04-0.01 s0.01,0,0.02,0c1.05-0.06,1.92-0.09,2.56,0C45.068,36.947,45.018,34.777,44.888,32.657z M35.848,30.047 c-0.42,0.07-0.85,0.11-1.28,0.11c-0.82,0-1.64-0.14-2.42-0.42c-0.26-0.09-0.39-0.38-0.3-0.64c0.09-0.26,0.38-0.39,0.64-0.3 c1.02,0.36,2.12,0.45,3.18,0.26c0.27-0.05,0.53,0.13,0.58,0.4C36.298,29.737,36.118,29.997,35.848,30.047z"/><path fill="#010101" d="M36.388,38.157c-0.59-0.24-1.3-0.07-1.7,0.41c-0.43,0.52-0.42,1.3,0.03,1.79 c0.3,0.34,0.72,0.52,1.26,0.52c0.15,0,0.31-0.01,0.47-0.04c0.62-0.1,1.12-0.69,1.12-1.32 C37.578,38.817,36.798,38.317,36.388,38.157z M36.298,39.847c-0.41,0.06-0.69,0.02-0.83-0.15c0-0.01-0.01-0.01-0.01-0.02 c-0.11-0.11-0.11-0.34,0-0.48c0.08-0.09,0.23-0.15,0.37-0.15c0.06,0,0.13,0.01,0.18,0.03c0.28,0.12,0.54,0.35,0.56,0.43 C36.568,39.647,36.428,39.827,36.298,39.847z"/><path fill="#010101" d="M40.088,38.567c-0.16-1-0.36-1.96-1.1-2.62c-0.63-0.56-1.56-0.79-2.55-0.6 c-0.2,0.03-0.46,0.07-0.76,0.11c-0.88,0.11-1.88,0.24-2.45,0.54c-0.98,0.51-1.33,1.67-1.6,2.6l-0.09,0.29 c-0.37,1.23,0.09,2.61,1.09,3.22c0.78,0.48,1.48,0.75,2.12,0.82c0.41,0.04,0.83,0.06,1.24,0.06c0.69,0,1.37-0.06,1.99-0.18 c0.66-0.12,1.1-0.73,1.46-1.22c0.09-0.11,0.17-0.22,0.25-0.32C40.318,40.497,40.228,39.467,40.088,38.567z M38.918,40.627 c-0.09,0.11-0.19,0.24-0.29,0.37c-0.25,0.35-0.56,0.78-0.84,0.83c-0.87,0.17-1.95,0.21-2.93,0.1c-0.49-0.05-1.05-0.27-1.71-0.67 c-0.61-0.38-0.89-1.29-0.65-2.08l0.09-0.3c0.24-0.83,0.49-1.68,1.1-1.99c0.41-0.22,1.4-0.35,2.13-0.44 c0.31-0.04,0.59-0.08,0.8-0.12c0.16-0.03,0.32-0.04,0.48-0.04c0.49,0,0.93,0.14,1.22,0.41c0.5,0.44,0.65,1.21,0.78,2.03 C39.208,39.437,39.288,40.177,38.918,40.627z"/><path fill="#bcbcbc" d="M39.098,38.727c-0.13-0.82-0.28-1.59-0.78-2.03c-0.29-0.27-0.73-0.41-1.22-0.41 c-0.16,0-0.32,0.01-0.48,0.04c-0.21,0.04-0.49,0.08-0.8,0.12c-0.73,0.09-1.72,0.22-2.13,0.44c-0.61,0.31-0.86,1.16-1.1,1.99 l-0.09,0.3c-0.24,0.79,0.04,1.7,0.65,2.08c0.66,0.4,1.22,0.62,1.71,0.67c0.98,0.11,2.06,0.07,2.93-0.1 c0.28-0.05,0.59-0.48,0.84-0.83c0.1-0.13,0.2-0.26,0.29-0.37C39.288,40.177,39.208,39.437,39.098,38.727z M36.448,40.837 c-0.16,0.03-0.32,0.04-0.47,0.04c-0.54,0-0.96-0.18-1.26-0.52c-0.45-0.49-0.46-1.27-0.03-1.79c0.4-0.48,1.11-0.65,1.7-0.41 c0.41,0.16,1.19,0.66,1.18,1.36C37.568,40.147,37.068,40.737,36.448,40.837z"/><path fill="#bcbcbc" d="M36.568,39.507c0,0.14-0.14,0.32-0.27,0.34c-0.41,0.06-0.69,0.02-0.83-0.15 c0-0.01-0.01-0.01-0.01-0.02c-0.11-0.11-0.11-0.34,0-0.48c0.08-0.09,0.23-0.15,0.37-0.15c0.06,0,0.13,0.01,0.18,0.03 C36.288,39.197,36.548,39.427,36.568,39.507z"/><path fill="#010101" d="M17.868,37.917c-0.14-0.22-0.38-0.35-0.71-0.41c-0.65-0.1-1.77,0.11-2.11,0.39 c-0.46,0.39-0.31,1.08-0.21,1.53c0.09,0.4,0.52,0.63,0.78,0.73c0.24,0.09,0.55,0.16,0.87,0.16c0.38,0,0.78-0.09,1.14-0.34 C18.158,39.617,18.128,38.337,17.868,37.917z M16.998,39.197c-0.46,0.26-1.04,0.05-1.2-0.07c-0.03-0.12-0.07-0.35-0.07-0.47 c0.28-0.11,1.01-0.22,1.3-0.16C17.058,38.687,17.048,39.037,16.998,39.197z M17.868,37.917c-0.14-0.22-0.38-0.35-0.71-0.41 c-0.65-0.1-1.77,0.11-2.11,0.39c-0.46,0.39-0.31,1.08-0.21,1.53c0.09,0.4,0.52,0.63,0.78,0.73c0.24,0.09,0.55,0.16,0.87,0.16 c0.38,0,0.78-0.09,1.14-0.34C18.158,39.617,18.128,38.337,17.868,37.917z M16.998,39.197c-0.46,0.26-1.04,0.05-1.2-0.07 c-0.03-0.12-0.07-0.35-0.07-0.47c0.28-0.11,1.01-0.22,1.3-0.16C17.058,38.687,17.048,39.037,16.998,39.197z M17.868,37.917 c-0.14-0.22-0.38-0.35-0.71-0.41c-0.65-0.1-1.77,0.11-2.11,0.39c-0.46,0.39-0.31,1.08-0.21,1.53c0.09,0.4,0.52,0.63,0.78,0.73 c0.24,0.09,0.55,0.16,0.87,0.16c0.38,0,0.78-0.09,1.14-0.34C18.158,39.617,18.128,38.337,17.868,37.917z M16.998,39.197 c-0.46,0.26-1.04,0.05-1.2-0.07c-0.03-0.12-0.07-0.35-0.07-0.47c0.28-0.11,1.01-0.22,1.3-0.16 C17.058,38.687,17.048,39.037,16.998,39.197z M17.868,37.917c-0.14-0.22-0.38-0.35-0.71-0.41c-0.65-0.1-1.77,0.11-2.11,0.39 c-0.46,0.39-0.31,1.08-0.21,1.53c0.09,0.4,0.52,0.63,0.78,0.73c0.24,0.09,0.55,0.16,0.87,0.16c0.38,0,0.78-0.09,1.14-0.34 C18.158,39.617,18.128,38.337,17.868,37.917z M16.998,39.197c-0.46,0.26-1.04,0.05-1.2-0.07c-0.03-0.12-0.07-0.35-0.07-0.47 c0.28-0.11,1.01-0.22,1.3-0.16C17.058,38.687,17.048,39.037,16.998,39.197z M17.868,37.917c-0.14-0.22-0.38-0.35-0.71-0.41 c-0.65-0.1-1.77,0.11-2.11,0.39c-0.46,0.39-0.31,1.08-0.21,1.53c0.09,0.4,0.52,0.63,0.78,0.73c0.24,0.09,0.55,0.16,0.87,0.16 c0.38,0,0.78-0.09,1.14-0.34C18.158,39.617,18.128,38.337,17.868,37.917z M16.998,39.197c-0.46,0.26-1.04,0.05-1.2-0.07 c-0.03-0.12-0.07-0.35-0.07-0.47c0.28-0.11,1.01-0.22,1.3-0.16C17.058,38.687,17.048,39.037,16.998,39.197z M17.868,37.917 c-0.14-0.22-0.38-0.35-0.71-0.41c-0.65-0.1-1.77,0.11-2.11,0.39c-0.46,0.39-0.31,1.08-0.21,1.53c0.09,0.4,0.52,0.63,0.78,0.73 c0.24,0.09,0.55,0.16,0.87,0.16c0.38,0,0.78-0.09,1.14-0.34C18.158,39.617,18.128,38.337,17.868,37.917z M16.998,39.197 c-0.46,0.26-1.04,0.05-1.2-0.07c-0.03-0.12-0.07-0.35-0.07-0.47c0.28-0.11,1.01-0.22,1.3-0.16 C17.058,38.687,17.048,39.037,16.998,39.197z M17.868,37.917c-0.14-0.22-0.38-0.35-0.71-0.41c-0.65-0.1-1.77,0.11-2.11,0.39 c-0.46,0.39-0.31,1.08-0.21,1.53c0.09,0.4,0.52,0.63,0.78,0.73c0.24,0.09,0.55,0.16,0.87,0.16c0.38,0,0.78-0.09,1.14-0.34 C18.158,39.617,18.128,38.337,17.868,37.917z M16.998,39.197c-0.46,0.26-1.04,0.05-1.2-0.07c-0.03-0.12-0.07-0.35-0.07-0.47 c0.28-0.11,1.01-0.22,1.3-0.16C17.058,38.687,17.048,39.037,16.998,39.197z M17.868,37.917c-0.14-0.22-0.38-0.35-0.71-0.41 c-0.65-0.1-1.77,0.11-2.11,0.39c-0.46,0.39-0.31,1.08-0.21,1.53c0.09,0.4,0.52,0.63,0.78,0.73c0.24,0.09,0.55,0.16,0.87,0.16 c0.38,0,0.78-0.09,1.14-0.34C18.158,39.617,18.128,38.337,17.868,37.917z M16.998,39.197c-0.46,0.26-1.04,0.05-1.2-0.07 c-0.03-0.12-0.07-0.35-0.07-0.47c0.28-0.11,1.01-0.22,1.3-0.16C17.058,38.687,17.048,39.037,16.998,39.197z"/><path fill="#010101" d="M20.828,35.757c-0.69-0.77-1.55-0.89-2.39-1.01l-0.12-0.02c-1.3-0.19-2.91-0.43-4.18,0.08 c-1.29,0.52-2.14,1.74-2.29,3.29c-0.15,1.51,0.52,2.99,1.72,3.87c0.92,0.67,2.15,1.02,3.37,1.02c0.86,0,1.72-0.17,2.47-0.52 c1.45-0.69,2.34-2.19,2.43-4.12C21.868,37.777,21.488,36.477,20.828,35.757z M18.988,41.557c-1.51,0.71-3.54,0.54-4.83-0.4 c-0.92-0.67-1.43-1.81-1.32-2.96c0.12-1.19,0.72-2.08,1.67-2.46c0.43-0.17,0.94-0.23,1.48-0.23c0.73,0,1.5,0.11,2.18,0.21 l0.13,0.02c0.83,0.12,1.36,0.22,1.79,0.69c0.48,0.53,0.76,1.59,0.75,1.87C20.798,39.217,20.498,40.847,18.988,41.557z M20.828,35.757c-0.69-0.77-1.55-0.89-2.39-1.01l-0.12-0.02c-1.3-0.19-2.91-0.43-4.18,0.08c-1.29,0.52-2.14,1.74-2.29,3.29 c-0.15,1.51,0.52,2.99,1.72,3.87c0.92,0.67,2.15,1.02,3.37,1.02c0.86,0,1.72-0.17,2.47-0.52c1.45-0.69,2.34-2.19,2.43-4.12 C21.868,37.777,21.488,36.477,20.828,35.757z M18.988,41.557c-1.51,0.71-3.54,0.54-4.83-0.4c-0.92-0.67-1.43-1.81-1.32-2.96 c0.12-1.19,0.72-2.08,1.67-2.46c0.43-0.17,0.94-0.23,1.48-0.23c0.73,0,1.5,0.11,2.18,0.21l0.13,0.02 c0.83,0.12,1.36,0.22,1.79,0.69c0.48,0.53,0.76,1.59,0.75,1.87C20.798,39.217,20.498,40.847,18.988,41.557z M20.828,35.757 c-0.69-0.77-1.55-0.89-2.39-1.01l-0.12-0.02c-1.3-0.19-2.91-0.43-4.18,0.08c-1.29,0.52-2.14,1.74-2.29,3.29 c-0.15,1.51,0.52,2.99,1.72,3.87c0.92,0.67,2.15,1.02,3.37,1.02c0.86,0,1.72-0.17,2.47-0.52c1.45-0.69,2.34-2.19,2.43-4.12 C21.868,37.777,21.488,36.477,20.828,35.757z M18.988,41.557c-1.51,0.71-3.54,0.54-4.83-0.4c-0.92-0.67-1.43-1.81-1.32-2.96 c0.12-1.19,0.72-2.08,1.67-2.46c0.43-0.17,0.94-0.23,1.48-0.23c0.73,0,1.5,0.11,2.18,0.21l0.13,0.02 c0.83,0.12,1.36,0.22,1.79,0.69c0.48,0.53,0.76,1.59,0.75,1.87C20.798,39.217,20.498,40.847,18.988,41.557z M20.828,35.757 c-0.69-0.77-1.55-0.89-2.39-1.01l-0.12-0.02c-1.3-0.19-2.91-0.43-4.18,0.08c-1.29,0.52-2.14,1.74-2.29,3.29 c-0.15,1.51,0.52,2.99,1.72,3.87c0.92,0.67,2.15,1.02,3.37,1.02c0.86,0,1.72-0.17,2.47-0.52c1.45-0.69,2.34-2.19,2.43-4.12 C21.868,37.777,21.488,36.477,20.828,35.757z M18.988,41.557c-1.51,0.71-3.54,0.54-4.83-0.4c-0.92-0.67-1.43-1.81-1.32-2.96 c0.12-1.19,0.72-2.08,1.67-2.46c0.43-0.17,0.94-0.23,1.48-0.23c0.73,0,1.5,0.11,2.18,0.21l0.13,0.02 c0.83,0.12,1.36,0.22,1.79,0.69c0.48,0.53,0.76,1.59,0.75,1.87C20.798,39.217,20.498,40.847,18.988,41.557z M20.828,35.757 c-0.69-0.77-1.55-0.89-2.39-1.01l-0.12-0.02c-1.3-0.19-2.91-0.43-4.18,0.08c-1.29,0.52-2.14,1.74-2.29,3.29 c-0.15,1.51,0.52,2.99,1.72,3.87c0.92,0.67,2.15,1.02,3.37,1.02c0.86,0,1.72-0.17,2.47-0.52c1.45-0.69,2.34-2.19,2.43-4.12 C21.868,37.777,21.488,36.477,20.828,35.757z M18.988,41.557c-1.51,0.71-3.54,0.54-4.83-0.4c-0.92-0.67-1.43-1.81-1.32-2.96 c0.12-1.19,0.72-2.08,1.67-2.46c0.43-0.17,0.94-0.23,1.48-0.23c0.73,0,1.5,0.11,2.18,0.21l0.13,0.02 c0.83,0.12,1.36,0.22,1.79,0.69c0.48,0.53,0.76,1.59,0.75,1.87C20.798,39.217,20.498,40.847,18.988,41.557z M20.828,35.757 c-0.69-0.77-1.55-0.89-2.39-1.01l-0.12-0.02c-1.3-0.19-2.91-0.43-4.18,0.08c-1.29,0.52-2.14,1.74-2.29,3.29 c-0.15,1.51,0.52,2.99,1.72,3.87c0.92,0.67,2.15,1.02,3.37,1.02c0.86,0,1.72-0.17,2.47-0.52c1.45-0.69,2.34-2.19,2.43-4.12 C21.868,37.777,21.488,36.477,20.828,35.757z M18.988,41.557c-1.51,0.71-3.54,0.54-4.83-0.4c-0.92-0.67-1.43-1.81-1.32-2.96 c0.12-1.19,0.72-2.08,1.67-2.46c0.43-0.17,0.94-0.23,1.48-0.23c0.73,0,1.5,0.11,2.18,0.21l0.13,0.02 c0.83,0.12,1.36,0.22,1.79,0.69c0.48,0.53,0.76,1.59,0.75,1.87C20.798,39.217,20.498,40.847,18.988,41.557z M20.828,35.757 c-0.69-0.77-1.55-0.89-2.39-1.01l-0.12-0.02c-1.3-0.19-2.91-0.43-4.18,0.08c-1.29,0.52-2.14,1.74-2.29,3.29 c-0.15,1.51,0.52,2.99,1.72,3.87c0.92,0.67,2.15,1.02,3.37,1.02c0.86,0,1.72-0.17,2.47-0.52c1.45-0.69,2.34-2.19,2.43-4.12 C21.868,37.777,21.488,36.477,20.828,35.757z M18.988,41.557c-1.51,0.71-3.54,0.54-4.83-0.4c-0.92-0.67-1.43-1.81-1.32-2.96 c0.12-1.19,0.72-2.08,1.67-2.46c0.43-0.17,0.94-0.23,1.48-0.23c0.73,0,1.5,0.11,2.18,0.21l0.13,0.02 c0.83,0.12,1.36,0.22,1.79,0.69c0.48,0.53,0.76,1.59,0.75,1.87C20.798,39.217,20.498,40.847,18.988,41.557z M20.828,35.757 c-0.69-0.77-1.55-0.89-2.39-1.01l-0.12-0.02c-1.3-0.19-2.91-0.43-4.18,0.08c-1.29,0.52-2.14,1.74-2.29,3.29 c-0.15,1.51,0.52,2.99,1.72,3.87c0.92,0.67,2.15,1.02,3.37,1.02c0.86,0,1.72-0.17,2.47-0.52c1.45-0.69,2.34-2.19,2.43-4.12 C21.868,37.777,21.488,36.477,20.828,35.757z M18.988,41.557c-1.51,0.71-3.54,0.54-4.83-0.4c-0.92-0.67-1.43-1.81-1.32-2.96 c0.12-1.19,0.72-2.08,1.67-2.46c0.43-0.17,0.94-0.23,1.48-0.23c0.73,0,1.5,0.11,2.18,0.21l0.13,0.02 c0.83,0.12,1.36,0.22,1.79,0.69c0.48,0.53,0.76,1.59,0.75,1.87C20.798,39.217,20.498,40.847,18.988,41.557z"/><path fill="#bcbcbc" d="M20.088,36.427c-0.43-0.47-0.96-0.57-1.79-0.69l-0.13-0.02c-0.68-0.1-1.45-0.21-2.18-0.21 c-0.54,0-1.05,0.06-1.48,0.23c-0.95,0.38-1.55,1.27-1.67,2.46c-0.11,1.15,0.4,2.29,1.32,2.96c1.29,0.94,3.32,1.11,4.83,0.4 c1.51-0.71,1.81-2.34,1.85-3.26C20.848,38.017,20.568,36.957,20.088,36.427z M17.628,39.977c-0.36,0.25-0.76,0.34-1.14,0.34 c-0.32,0-0.63-0.07-0.87-0.16c-0.26-0.1-0.69-0.33-0.78-0.73c-0.1-0.45-0.25-1.14,0.21-1.53c0.34-0.28,1.46-0.49,2.11-0.39 c0.33,0.06,0.57,0.19,0.71,0.41C18.128,38.337,18.158,39.617,17.628,39.977z M20.088,36.427c-0.43-0.47-0.96-0.57-1.79-0.69 l-0.13-0.02c-0.68-0.1-1.45-0.21-2.18-0.21c-0.54,0-1.05,0.06-1.48,0.23c-0.95,0.38-1.55,1.27-1.67,2.46 c-0.11,1.15,0.4,2.29,1.32,2.96c1.29,0.94,3.32,1.11,4.83,0.4c1.51-0.71,1.81-2.34,1.85-3.26 C20.848,38.017,20.568,36.957,20.088,36.427z M17.628,39.977c-0.36,0.25-0.76,0.34-1.14,0.34c-0.32,0-0.63-0.07-0.87-0.16 c-0.26-0.1-0.69-0.33-0.78-0.73c-0.1-0.45-0.25-1.14,0.21-1.53c0.34-0.28,1.46-0.49,2.11-0.39c0.33,0.06,0.57,0.19,0.71,0.41 C18.128,38.337,18.158,39.617,17.628,39.977z"/><path fill="#bcbcbc" d="M16.998,39.197c-0.46,0.26-1.04,0.05-1.2-0.07c-0.03-0.12-0.07-0.35-0.07-0.47 c0.28-0.11,1.01-0.22,1.3-0.16C17.058,38.687,17.048,39.037,16.998,39.197z"/><path fill="#010101" d="M45.848,39.297c-0.02,0.15-0.11,0.29-0.24,0.36c-0.12,0.08-0.28,0.1-0.42,0.05 c-0.61-0.2-2.09-0.11-2.8-0.07c-0.01,0-0.01,0-0.02,0c-0.27,0-0.49-0.2-0.51-0.47c-0.02-0.27,0.17-0.49,0.43-0.52 c0.01-0.01,0.03-0.01,0.04-0.01s0.01,0,0.02,0c1.05-0.06,1.92-0.09,2.56,0c0.16-1.69,0.11-3.86-0.02-5.98 c-0.02-0.34-0.04-0.67-0.07-1c-0.04-0.67-0.09-1.31-0.14-1.92c-0.03-0.36-0.06-0.7-0.09-1.03c-0.04-0.43-0.08-0.83-0.11-1.21 c-0.03-0.26-0.05-0.52-0.09-0.75c-0.05-0.36-0.12-0.68-0.26-0.97c0-0.01-0.01-0.02-0.02-0.03c-0.31-0.69-0.96-1.22-1.53-1.68 c-1.35-1.14-2.69-2.26-4.04-3.37c-0.25-0.22-0.51-0.43-0.76-0.64c-0.17-0.14-0.33-0.27-0.51-0.42c0,0,0,0-0.01,0 c-0.79-0.64-1.6-1.25-2.53-1.62c-1.8-0.7-3.75-0.43-5.82-0.15c-0.51,0.07-1.04,0.14-1.57,0.2c-0.01,0-0.01,0-0.02,0h-0.02 c-0.3,0.04-0.6,0.06-0.9,0.08c-0.33,4.02-0.33,8.57-0.04,12.81c0.01,0.01,0.01,0.01,0,0.02c0.01,0.09,0.02,0.18,0.02,0.28 c0.2,2.73,0.51,5.32,0.94,7.55c0.21,0.03,0.61,0.07,1.41,0.07c0.28,0,0.51,0.22,0.51,0.5c0,0.28-0.2,0.49-0.48,0.5 c-0.01,0-0.01,0-0.02,0h-0.01c-1.1,0-1.61-0.07-1.88-0.15c-0.01,0-0.01,0-0.02,0c-0.02-0.01-0.04-0.02-0.06-0.02 s-0.03-0.01-0.05-0.01v-0.01c-0.03-0.01-0.06-0.02-0.08-0.04c-0.12-0.08-0.21-0.2-0.24-0.34c-0.05-0.24-0.09-0.48-0.14-0.72 c-0.38-2.08-0.66-4.46-0.85-6.96c-0.03-0.33-0.05-0.67-0.07-1.01c-0.28-4.33-0.26-8.95,0.1-12.99c0.02-0.26,0.23-0.45,0.48-0.46 c0.3-0.01,0.61-0.03,0.92-0.06c0.34-0.03,0.68-0.07,1.01-0.11c0.31-0.04,0.62-0.08,0.92-0.12c2.11-0.29,4.28-0.58,6.32,0.21 c1.28,0.51,2.37,1.41,3.33,2.2c0.19,0.16,0.39,0.32,0.58,0.5c0.03,0.02,0.05,0.04,0.08,0.06c1.38,1.15,2.76,2.29,4.14,3.45 c0.63,0.51,1.42,1.16,1.83,2.07c0.1,0.22,0.17,0.45,0.22,0.68l0.04,0.19c0.08,0.37,0.12,0.75,0.16,1.12 c0.05,0.54,0.1,1.13,0.16,1.76c0.01,0.04,0.02,0.09,0.02,0.13v0.04c0.06,0.81,0.13,1.68,0.19,2.58c0.01,0.16,0.02,0.32,0.03,0.48 C46.028,34.827,46.088,37.417,45.848,39.297z"/><path fill="#010101" d="M8.818,39.867c0.01,0.24-0.16,0.44-0.39,0.5c-0.02,0.01-0.05,0.01-0.08,0.01h-0.03 c-0.73,0.02-1.15,0.06-1.24,0.09c-0.23,0.05-0.46,0.08-0.67,0.08c-0.61,0-1.09-0.24-1.33-0.69c-0.14-0.25-0.15-0.53-0.16-0.74 c0-0.24-0.01-0.49-0.01-0.74c0-0.01,0-0.01,0-0.02c-0.03-1.27-0.05-2.63-0.07-4.04c0-0.01,0-0.01,0-0.02 c-0.01-0.99-0.03-2.01-0.04-3.05c-0.02-1.18-0.04-2.39-0.05-3.59c-0.06-3.91-0.11-7.8-0.17-11.02v-0.27 c0-0.28,0.22-0.51,0.49-0.51h0.01c0.07,0,0.13,0.01,0.19,0.04c0.04,0.02,0.08,0.04,0.11,0.06c0.12,0.09,0.2,0.23,0.2,0.39 c0.01,0.27,0.01,0.56,0.01,0.84c0.06,3.1,0.11,6.78,0.16,10.45c0.01,1.09,0.03,2.19,0.04,3.27c0.01,0.36,0.01,0.72,0.02,1.08 c0.01,0.62,0.02,1.24,0.02,1.85c0.01,0.34,0.01,0.67,0.02,1c0.02,1.06,0.03,2.09,0.05,3.06c0.01,0.34,0.01,0.68,0.02,1v0.13 c0.01,0.17,0.01,0.3,0.05,0.36c0.08,0.17,0.46,0.21,0.87,0.11c0.29-0.08,1.1-0.11,1.45-0.12c0.01,0,0.01,0,0.02,0 C8.558,39.397,8.808,39.587,8.818,39.867z"/><path fill="#010101" d="M27.858,16.647c-0.01,0.12-0.01,0.24-0.01,0.35c-0.02,0.21-0.02,0.41-0.03,0.58 c-0.01,0.27-0.22,0.48-0.48,0.49c-0.01,0-0.01,0-0.02,0h-0.02c-0.28-0.02-0.49-0.24-0.48-0.51c0-0.14,0.01-0.29,0.02-0.45 c0-0.16,0.01-0.33,0.02-0.51c0.06-1.4,0.14-3.31-0.03-4.36c-0.02-0.13-0.04-0.28-0.06-0.44c-0.02-0.19-0.06-0.48-0.09-0.56 c-0.15-0.34-0.85-0.34-1.51-0.29c-1.72,0.14-3.29,0.01-4.95-0.12c-1.41-0.12-2.86-0.23-4.44-0.17c-0.2,0.01-0.4,0.02-0.61,0.03 c-0.2,0.01-0.39-0.1-0.48-0.28c-0.01-0.03-0.02-0.06-0.03-0.09c-0.01-0.03-0.02-0.07-0.02-0.1c-0.02-0.27,0.19-0.51,0.47-0.53 c0.13-0.01,0.26-0.02,0.38-0.02c1.73-0.09,3.29,0.04,4.81,0.16c1.62,0.13,3.15,0.25,4.8,0.12c0.71-0.05,2.02-0.14,2.49,0.88 c0.09,0.18,0.12,0.44,0.17,0.85c0.02,0.14,0.04,0.28,0.05,0.4C27.998,13.227,27.918,15.197,27.858,16.647z"/><path fill="#010101" d="M45.308,26.237c0,0.28-0.22,0.5-0.5,0.51h-0.42c-1.76,0-3.36-0.05-4.9-0.09 c-2.99-0.07-5.81-0.15-9.23,0.07c-0.01,0-0.02,0.01-0.03,0.01h-0.06c-0.08,0.01-0.15-0.01-0.21-0.03 c-0.05-0.01-0.1-0.04-0.14-0.08c-0.02-0.01-0.04-0.03-0.06-0.06c-0.01-0.01-0.02-0.02-0.03-0.04c-0.03-0.03-0.05-0.06-0.06-0.09 c-0.01-0.03-0.02-0.06-0.03-0.08c0-0.02-0.01-0.05-0.01-0.08c-0.01-0.28,0.2-0.52,0.47-0.53c0.13-0.01,0.25-0.02,0.37-0.02 c3.35-0.21,6.12-0.14,9.04-0.07c1.46,0.04,2.97,0.09,4.6,0.09h0.7c0.14,0,0.27,0.05,0.46,0.3L45.308,26.237z"/><g><path fill="#010101" d="M39.218,20.197c0,0.28-0.22,0.5-0.5,0.5h-0.18c-0.43-0.02-0.69-0.03-0.99-0.04 c-1.46-0.07-3.86-0.19-6.93,0.03c-0.09,0.41-0.19,0.78-0.27,1.11c-0.38,1.53-0.54,2.21,0.12,3.93c0.04,0.1,0.08,0.21,0.13,0.32 c0.1,0.26-0.02,0.55-0.27,0.66c-0.02,0.01-0.05,0.01-0.07,0.02c-0.01,0-0.02,0.01-0.03,0.01c-0.03,0-0.07,0.01-0.1,0.01 c-0.06,0-0.12-0.01-0.17-0.04c-0.05-0.01-0.1-0.04-0.14-0.08c-0.02-0.01-0.04-0.03-0.06-0.06c-0.01-0.01-0.02-0.02-0.03-0.04 c-0.03-0.03-0.05-0.06-0.06-0.09c-0.01-0.03-0.02-0.06-0.03-0.08c-0.89-2.21-0.67-3.13-0.26-4.8c0.1-0.41,0.22-0.88,0.34-1.45 c0.04-0.21,0.23-0.38,0.45-0.39c3.08-0.24,5.53-0.15,7.09-0.08c0.01,0,0.01,0,0.01,0c0.12,0.01,0.23,0.02,0.33,0.02 c0.47,0.02,0.85,0.04,1.12,0.04c0.1,0,0.2,0.03,0.28,0.09c0.03,0.02,0.05,0.04,0.08,0.06 C39.158,19.937,39.218,20.057,39.218,20.197z"/></g><g><path fill="#010101" d="M36.248,29.457c0.05,0.28-0.13,0.54-0.4,0.59c-0.42,0.07-0.85,0.11-1.28,0.11 c-0.82,0-1.64-0.14-2.42-0.42c-0.26-0.09-0.39-0.38-0.3-0.64c0.09-0.26,0.38-0.39,0.64-0.3c1.02,0.36,2.12,0.45,3.18,0.26 C35.938,29.007,36.198,29.187,36.248,29.457z"/></g><g><path fill="#010101" d="M26.398,31.167c0,0.03-0.01,0.06-0.02,0.09c-0.04,0.23-0.24,0.39-0.48,0.39c-0.01,0-0.01,0-0.02,0 c-0.16-0.01-0.32-0.01-0.47-0.02c-0.9-0.04-1.7-0.08-2.42-0.11c-4.41-0.2-5.9-0.26-11.53,0.36c-0.43,0.05-0.85,0.11-1.26,0.17 c-0.83,0.12-1.63,0.24-2.43,0.24c-0.65,0-1.3-0.08-1.96-0.3c-0.24-0.07-0.48-0.17-0.72-0.29c-0.18-0.09-0.28-0.27-0.28-0.45 c0-0.08,0.02-0.15,0.05-0.22c0.12-0.25,0.42-0.35,0.67-0.23c0.09,0.04,0.17,0.08,0.26,0.11c1.35,0.57,2.71,0.38,4.26,0.15 c0.43-0.06,0.86-0.12,1.3-0.17c5.71-0.63,7.33-0.56,11.68-0.37c0.69,0.03,1.45,0.07,2.31,0.1c0.19,0.01,0.38,0.02,0.58,0.03 c0.21,0.01,0.37,0.13,0.44,0.31c0.01,0.01,0.01,0.01,0,0.02C26.388,31.037,26.398,31.097,26.398,31.167z"/></g><g><path fill="#010101" d="M15.778,10.657c-0.07-0.33-0.16-0.66-0.29-0.99c-0.12,0-0.25,0.01-0.38,0.02 c-0.28,0.02-0.49,0.26-0.47,0.53c0,0.03,0.01,0.07,0.02,0.1c0.01,0.03,0.02,0.06,0.03,0.09c0.31,1.08,0.33,2.25,0.03,3.34 c-0.44,1.31-1.7,2.24-3.99,2.92c-1.63,0.48-3.51,0.26-5.15-0.6c-0.06-0.03-0.13-0.07-0.2-0.11c0.12,0.09,0.2,0.23,0.2,0.39 c0.01,0.27,0.01,0.56,0.01,0.84c1.08,0.48,2.23,0.73,3.36,0.73c0.7,0,1.4-0.1,2.07-0.3c2.59-0.77,4.11-1.93,4.65-3.56 c0-0.01,0.01-0.01,0.01-0.02C15.988,12.937,16.008,11.777,15.778,10.657z M15.778,10.657c-0.07-0.33-0.16-0.66-0.29-0.99 c-0.31-0.88-0.8-1.71-1.44-2.4c-1.66-1.78-4.26-2.61-6.64-2.11c-2.37,0.49-4.43,2.28-5.24,4.57c-0.55,1.55-0.5,3.19,0.15,4.5 c0.55,1.13,1.46,1.91,2.26,2.41c0.18,0.12,0.36,0.22,0.53,0.31c0.16,0.08,0.32,0.16,0.48,0.24c1.08,0.48,2.23,0.73,3.36,0.73 c0.7,0,1.4-0.1,2.07-0.3c2.59-0.77,4.11-1.93,4.65-3.56c0-0.01,0.01-0.01,0.01-0.02C15.988,12.937,16.008,11.777,15.778,10.657z M14.718,13.747c-0.44,1.31-1.7,2.24-3.99,2.92c-1.63,0.48-3.51,0.26-5.15-0.6c-0.06-0.03-0.13-0.07-0.2-0.11 c-0.03-0.02-0.07-0.04-0.11-0.06c-0.72-0.44-1.56-1.12-2.05-2.11c-0.53-1.07-0.57-2.43-0.11-3.72c0.7-1.97,2.47-3.51,4.51-3.93 c0.39-0.09,0.79-0.13,1.18-0.13c1.69,0,3.37,0.71,4.52,1.94c0.62,0.67,1.08,1.49,1.34,2.37c0.01,0.03,0.02,0.06,0.03,0.09 C14.998,11.487,15.018,12.657,14.718,13.747z"/><path fill="#d6e5e5" d="M14.688,10.407c-0.01-0.03-0.02-0.06-0.03-0.09c-0.26-0.88-0.72-1.7-1.34-2.37 c-1.15-1.23-2.83-1.94-4.52-1.94c-0.39,0-0.79,0.04-1.18,0.13c-2.04,0.42-3.81,1.96-4.51,3.93c-0.46,1.29-0.42,2.65,0.11,3.72 c0.49,0.99,1.33,1.67,2.05,2.11c0.04,0.02,0.08,0.04,0.11,0.06c0.07,0.04,0.14,0.08,0.2,0.11c1.64,0.86,3.52,1.08,5.15,0.6 c2.29-0.68,3.55-1.61,3.99-2.92C15.018,12.657,14.998,11.487,14.688,10.407z M5.558,11.947h-0.1c-0.27,0-0.46-0.04-0.62-0.07 c-0.16-0.03-0.28-0.06-0.49-0.05c-0.28,0.03-0.51-0.21-0.51-0.48c-0.01-0.28,0.2-0.51,0.48-0.52c0.33-0.01,0.53,0.03,0.72,0.07 c0.15,0.03,0.28,0.05,0.48,0.05c0.27-0.01,0.51,0.21,0.52,0.48C6.048,11.707,5.828,11.937,5.558,11.947z M8.778,7.447 c0-0.27,0.23-0.5,0.5-0.5c0.28,0,0.5,0.23,0.5,0.5v0.98c0,0.27-0.22,0.5-0.5,0.5c-0.27,0-0.5-0.23-0.5-0.5V7.447z M8.448,15.967 h-0.01c-0.27,0-0.49-0.21-0.5-0.49l-0.01-1.03c-0.01-0.28,0.21-0.5,0.49-0.51c0.26-0.02,0.5,0.22,0.51,0.49l0.01,1.04 C8.948,15.737,8.728,15.967,8.448,15.967z M11.078,14.087c-0.09,0.08-0.2,0.12-0.32,0.12c-0.14,0-0.28-0.06-0.38-0.18 c-0.68-0.79-1.43-1.5-2.25-2.1c-0.27-0.2-0.32-0.43-0.32-0.59c0.01-0.2,0.11-0.33,0.15-0.39l0.81-1.13 c0.16-0.22,0.48-0.27,0.7-0.11c0.23,0.16,0.28,0.47,0.11,0.7l-0.63,0.88c0.79,0.61,1.53,1.31,2.19,2.09 C11.318,13.587,11.298,13.907,11.078,14.087z M13.378,11.767l-1.09,0.06h-0.03c-0.26,0-0.48-0.21-0.5-0.47 c-0.01-0.28,0.2-0.51,0.47-0.53l1.1-0.06c0.26-0.02,0.51,0.19,0.53,0.47C13.868,11.507,13.658,11.747,13.378,11.767z"/></g><g><path fill="#010101" d="M9.778,7.447v0.98c0,0.27-0.22,0.5-0.5,0.5c-0.27,0-0.5-0.23-0.5-0.5v-0.98 c0-0.27,0.23-0.5,0.5-0.5C9.558,6.947,9.778,7.177,9.778,7.447z"/></g><g><path fill="#010101" d="M8.938,15.467c0.01,0.27-0.21,0.5-0.49,0.5h-0.01c-0.27,0-0.49-0.21-0.5-0.49l-0.01-1.03 c-0.01-0.28,0.21-0.5,0.49-0.51c0.26-0.02,0.5,0.22,0.51,0.49L8.938,15.467z"/></g><g><path fill="#010101" d="M13.858,11.237c0.01,0.27-0.2,0.51-0.48,0.53l-1.09,0.06h-0.03c-0.26,0-0.48-0.21-0.5-0.47 c-0.01-0.28,0.2-0.51,0.47-0.53l1.1-0.06C13.588,10.747,13.838,10.957,13.858,11.237z"/></g><g><path fill="#010101" d="M6.038,11.427c0.01,0.28-0.21,0.51-0.48,0.52h-0.1c-0.27,0-0.46-0.04-0.62-0.07 c-0.16-0.03-0.28-0.06-0.49-0.05c-0.28,0.03-0.51-0.21-0.51-0.48c-0.01-0.28,0.2-0.51,0.48-0.52c0.33-0.01,0.53,0.03,0.72,0.07 c0.15,0.03,0.28,0.05,0.48,0.05C5.788,10.937,6.028,11.157,6.038,11.427z"/></g><g><path fill="#010101" d="M11.078,14.087c-0.09,0.08-0.2,0.12-0.32,0.12c-0.14,0-0.28-0.06-0.38-0.18 c-0.68-0.79-1.43-1.5-2.25-2.1c-0.27-0.2-0.32-0.43-0.32-0.59c0.01-0.2,0.11-0.33,0.15-0.39l0.81-1.13 c0.16-0.22,0.48-0.27,0.7-0.11c0.23,0.16,0.28,0.47,0.11,0.7l-0.63,0.88c0.79,0.61,1.53,1.31,2.19,2.09 C11.318,13.587,11.298,13.907,11.078,14.087z"/></g><g><path fill="#010101" d="M45.838,31.867c-0.09-0.15-0.25-0.25-0.43-0.22h-0.15c-0.16,0-0.3,0-0.44,0.01 c-0.43,0.01-0.78,0.03-1.23,0.12l-0.64-1.94c-0.02-0.04-0.05-0.11-0.07-0.18c0.09,0,0.2-0.01,0.28-0.01 c0.71-0.03,1.07,0.03,1.37,0.07c0.05,0.01,0.1,0.01,0.15,0.02c0.16,0.02,0.31,0.03,0.49,0.03c0.27-0.01,0.47-0.22,0.48-0.48v-0.04 c0-0.04-0.01-0.09-0.02-0.13c-0.06-0.21-0.26-0.37-0.49-0.35c-0.17,0-0.3-0.02-0.47-0.04c-0.03,0-0.05-0.01-0.08-0.02 c-0.31-0.04-0.74-0.09-1.54-0.06c-0.4,0.02-0.75,0.04-0.98,0.25c-0.4,0.38-0.19,0.95-0.06,1.29l0.77,2.34 c0.07,0.21,0.27,0.34,0.48,0.34c0.04,0,0.08,0,0.12-0.01c0.62-0.16,0.97-0.19,1.51-0.2c0.12-0.01,0.24-0.01,0.38-0.01h0.15 c0.21-0.01,0.38-0.13,0.45-0.3c0.03-0.07,0.05-0.14,0.05-0.21C45.918,32.047,45.888,31.947,45.838,31.867z"/></g><g><path fill="#010101" d="M27.458,39.357c-0.06,0.23-0.27,0.38-0.49,0.38c-0.04,0-0.08,0-0.12-0.01c-0.01,0-0.01,0-0.02,0 c-0.02-0.01-0.04-0.02-0.06-0.02s-0.03-0.01-0.05-0.01c-0.01,0-0.02-0.01-0.03-0.01c-0.07-0.02-0.14-0.03-0.2-0.04 c-0.01,0-0.02-0.01-0.03-0.01s-0.01,0-0.02,0l-0.18-0.03c-0.05-0.01-0.1-0.02-0.14-0.02c-0.01,0-0.01,0-0.02-0.01 c-0.35-0.04-0.66-0.04-0.93-0.02c-0.06,0-0.12,0.01-0.17,0.02h-0.07c-0.01,0-0.01,0-0.02,0.01c-0.11,0.01-0.22,0.03-0.32,0.04 c-0.01,0.01-0.02,0.01-0.03,0.01c-0.08,0.02-0.16,0.03-0.23,0.05c-0.08,0.01-0.16,0.03-0.26,0.03c-0.02,0-0.04,0-0.06-0.01 c-0.02,0-0.04,0-0.06-0.01c0,0,0,0-0.01,0h-0.01c0,0-0.01,0-0.01-0.01c-0.01,0-0.01,0-0.01,0h-0.01c-0.2-0.07-0.33-0.26-0.33-0.47 c0-0.28,0.22-0.5,0.5-0.5c0.01,0,0.03-0.01,0.04-0.01c0.03-0.01,0.05-0.01,0.08-0.01c0.58-0.12,1.24-0.21,2.07-0.11 c0.26,0.04,0.54,0.09,0.83,0.16C27.358,38.817,27.518,39.087,27.458,39.357z"/></g><g><path fill="#010101" d="M8.318,34.387c0.06,1.22-0.25,2.37-0.56,3.48c-0.04,0.15-0.11,0.46-0.35,0.68 c-0.27,0.25-0.63,0.29-0.83,0.31c-0.22,0.02-0.44,0.04-0.66,0.04h-0.13c-0.14,0-0.27,0-0.41-0.01c-0.26-0.02-0.47-0.24-0.47-0.51 c0-0.01,0-0.01,0-0.02c0.02-0.27,0.25-0.5,0.53-0.47c0.15,0.01,0.31,0.01,0.46,0.01c0.19,0,0.39-0.02,0.58-0.04 c0.14-0.01,0.22-0.03,0.25-0.05c0.02-0.02,0.04-0.08,0.07-0.19c0.25-0.91,0.5-1.84,0.53-2.77c-0.36-0.03-0.72-0.02-1.1-0.02 c-0.13,0-0.26,0.01-0.38,0.01c-0.18,0-0.36,0-0.53-0.01c-0.27-0.01-0.48-0.24-0.48-0.51c0-0.01,0-0.01,0-0.02 c0.01-0.27,0.23-0.48,0.52-0.47c0.16,0.01,0.32,0.01,0.47,0.01c0.13,0,0.26-0.01,0.38-0.01c0.56,0,1.13-0.01,1.71,0.1 C8.138,33.967,8.308,34.167,8.318,34.387z"/></g><g><path fill="#010101" d="M24.328,39.677c-0.11,0.02-0.21,0.03-0.32,0.03c-0.02,0-0.04,0-0.06-0.01c0,0,0,0-0.01,0h-0.02 l-0.01-0.01h-0.01c-0.01,0.01-0.01,0.01-0.02,0c-0.06,0-0.13-0.02-0.19-0.04l-0.01-0.01c-0.01,0-0.02,0-0.03-0.01 c-0.02-0.01-0.03-0.01-0.05-0.02c-0.05-0.02-0.09-0.05-0.14-0.08c-0.24-0.16-0.57-0.49-0.72-1.2c-0.14-0.71-0.32-1.51-0.63-2.22 c-0.32-0.75-0.96-1.36-1.79-1.71c-0.82-0.35-2.49-0.67-3.43-0.63c-1.89,0.04-3.82,0.91-4.79,2.16c-0.44,0.55-0.67,1.25-0.91,1.99 c-0.11,0.33-0.22,0.67-0.35,1c-0.36,0.91-1.14,1.38-2.41,1.45c-0.02,0.01-0.05,0.01-0.08,0.01h-0.03c-0.26,0-0.48-0.2-0.5-0.47 c-0.01-0.28,0.2-0.51,0.47-0.53c0.01,0,0.01,0,0.02,0c1.13-0.05,1.44-0.43,1.6-0.83c0.12-0.31,0.23-0.63,0.33-0.95 c0.26-0.78,0.53-1.6,1.07-2.29c1.32-1.7,3.75-2.5,5.56-2.54c1.1-0.02,2.89,0.3,3.84,0.71c1.07,0.45,1.9,1.25,2.32,2.24 c0.34,0.79,0.54,1.65,0.69,2.4c0.09,0.42,0.24,0.54,0.28,0.57c0.03,0.02,0.06,0.03,0.11,0.02c0.03-0.01,0.05-0.01,0.08-0.01 c0.24-0.02,0.46,0.15,0.51,0.39C24.758,39.357,24.598,39.617,24.328,39.677z"/></g><g><path fill="#010101" d="M42.858,39.107c0.02,0.27-0.19,0.51-0.47,0.53c-0.01,0-0.01,0-0.02,0 c-0.99,0.05-1.21-0.72-1.37-1.29c-0.04-0.14-0.08-0.3-0.13-0.46c-0.25-0.75-0.93-1.73-1.48-2.38c-0.46-0.55-1.1-0.7-2.13-0.78 l-0.48-0.04c-0.79-0.07-1.53-0.14-2.21,0.07c-2,0.61-2.7,1.9-3.32,3.05c-0.55,1-1.11,2.05-2.49,2.07c-0.01,0-0.01,0-0.02,0h-0.01 c-0.27,0-0.5-0.22-0.5-0.5c0-0.27,0.23-0.5,0.5-0.5c0.77,0,1.07-0.5,1.64-1.55c0.64-1.18,1.51-2.8,3.91-3.53 c0.87-0.26,1.74-0.18,2.59-0.1l0.46,0.04c1.02,0.07,2.07,0.22,2.83,1.12c0.38,0.46,1.3,1.63,1.66,2.71 c0.06,0.19,0.11,0.36,0.15,0.52c0.14,0.53,0.17,0.57,0.32,0.56c0.01-0.01,0.03-0.01,0.04-0.01s0.01,0,0.02,0 C42.588,38.637,42.838,38.837,42.858,39.107z"/></g></svg>