<svg xmlns="http://www.w3.org/2000/svg"  viewBox="0 0 512 512" width="64px" height="64px"><path fill="#F6851F" d="M331.8 231.4c-1.8-2.3-3.7-4.4-5.8-6.4 4.5 8.6 8.3 17.6 11.3 26.9.2.5.3 1 .5 1.5C338.9 245.9 337.2 238.4 331.8 231.4zM259.3 246.1c-5.7-5.2-13.1-9-20.1-12.1-3.5-1.5-7.1-2.9-10.8-3.4-.9-.1-1.9-.1-2.5 0 0 0 0 0 0 0-.1.6-.3 1.2-.6 1.6 8.6 4.1 16.7 11.3 22 16.8 7.1 7.2 14 15.6 18.1 25 1.9 4.3 3.2 8.8 4.2 13.3.7-3.9 1-7.9.9-11.9C270.2 264.8 266.1 252.2 259.3 246.1zM186.9 298.8c-2.1-6.5-4.8-12.9-9.2-18.2-3.1-3.8-4.4-5-8.4-6.2-9.6-3-19.9-4.6-30-5.3-3-.2-6.2-.3-9.2-.1 2 .3 4 .7 5.8 1.2 9.1 2.5 17.9 6.4 25.6 11.8 12.6 8.8 21.8 21.8 29.3 35.5C190.1 311 188.8 304.8 186.9 298.8z"/><path fill="#F6851F" d="M420.2,174c-20.4-9.5-44.3-9.5-66.1-5.7c-29.7,5.1-57,18.5-84.9,29.1c-14.4,5.5-28.9,10.2-44,13.5c-15.1,3.3-30.3,5.7-45.5,8.2c-12.6,2.1-25.6,3.9-37.6,8.5c-8.9,3.4-17.5,7.5-25.7,12.3c-18.8,10.8-36.9,24.1-51,40.7c-12.4,14.7-22.3,32.7-19.5,52.6c0,0,0,0.1,0,0.1c1.1,0.8,1.9,2.1,2,3.9c0.9,16.9,5.3,33.6,15,47.7c8.5,12.3,20.1,22.1,33.2,29.2c28.7,15.4,62.4,20.4,94.6,20.1c46.6-0.3,94.5-10.8,135.4-33.5c20-11.1,38.6-24.8,54.7-41c17.1-17.2,30.8-36.7,43.7-57.2c13.5-21.4,25.3-46,27-71.6C453,207,442.5,184.4,420.2,174z M201.8,342.7c-0.5,6-8.6,5.2-10.6,0.8c-8.3-18.6-18.2-39.1-34.8-51.7c-5.6-4.3-12.5-7.7-19.2-9.8c-4-1.3-13.2-4.6-16.7-0.6c-4.7,5.3-13-1.9-8.3-7.3c0.4-0.5,0.9-0.9,1.4-1.4c-0.2-0.4-0.3-0.7-0.5-1.2c-6.4-22.6,48.3-11,57.5-8.1c13.5,4.2,21.3,16.2,25.8,29.3C201.9,308.6,203.2,325.9,201.8,342.7z M271.3,316.1c-2.3,4.7-10.4,3.6-10.4-2c0-11.2-0.5-22.9-4.7-33.4c-3.1-7.7-8.2-14.8-13.9-20.9c-5.5-5.9-11.7-11.7-18.8-15.7c-3.6-2-11-6.4-15-2.8c-5.1,4.8-13.5-2.4-8.3-7.3c4.4-4.1,9.5-5.3,14.6-4.8c0-0.2,0-0.4,0.1-0.6c4.2-22,41.7,1.1,50.2,8.1C288.5,256,283.1,292.1,271.3,316.1z M341.3,274.1c-2.7,4.1-10.3,4-10.4-2c-0.1-5-1.8-9.8-3.4-14.8c-2.5-7.8-5.4-15.5-9-22.9c-3.1-6.4-6.6-13.3-11.6-18.4c-1.8-1.8-4-3.5-5.3-3.8c-1.1-0.2-1.5-0.4-3,1c-5.1,4.9-13.4-2.4-8.3-7.3c1.6-1.5,3.2-2.6,4.8-3.4c0.5-2.3,2.3-4.4,4.9-4.4h4c2.4,0,4.1,1.3,5,3c13,5.7,25.8,14.3,33.4,26.2C352,242.4,351.1,259.3,341.3,274.1z M358.9,222c-0.1-4.8-0.6-9.8-2.3-14.3c-1.3-3.5-2.5-6.7-6.4-5c-6.5,2.9-10-7.5-3.6-10.4c17.3-7.8,23.2,16.6,23.3,28.8C370,228.3,359,229.1,358.9,222z"/><path fill="#010101" d="M460.9,209.2c-4.9-23-21.1-40.1-42.9-48c-51.7-18.9-104.8,7.6-152.4,25.8c-14.4,5.5-29,10.1-44,13.5c-15.3,3.4-30.9,5.6-46.4,8.2c-12.4,2.1-25,4-36.8,8.5c-9,3.4-17.6,7.7-26,12.3c-19.1,10.6-37,23.9-51.8,40c-13.5,14.6-24.9,33-26.1,53.4c-0.2,3.8-0.1,7.5,0.5,11.2c0.2,1.6,1,2.8,2,3.6c0,0.1,0,0.3,0,0.4c1.1,20.8,7.4,41,20.2,57.6c11.7,15.3,28.1,26.3,45.6,33.9c39.1,16.9,84.2,18.3,125.9,13.1c46.2-5.7,91.1-21.6,129.1-48.8c18.9-13.5,35.7-29.9,50.3-47.9c7.7-9.5,14.6-19.6,21-30c6.5-10.5,13-20.9,18.4-32.1C458.3,261.2,466.2,234.5,460.9,209.2z M451.4,230.9c-1.6,25.6-13.5,50.2-27,71.6c-12.9,20.5-26.5,39.9-43.7,57.2c-16.1,16.2-34.7,29.9-54.7,41c-40.9,22.7-88.9,33.2-135.4,33.5c-32.2,0.2-66-4.7-94.6-20.1c-13.1-7.1-24.7-16.9-33.2-29.2c-9.7-14.1-14.1-30.8-15-47.7c-0.1-1.8-0.9-3.1-2-3.9c0,0,0-0.1,0-0.1c-2.8-19.8,7.1-37.9,19.5-52.6c14.1-16.7,32.1-29.9,51-40.7c8.2-4.7,16.8-8.9,25.7-12.3c12-4.6,25-6.4,37.6-8.5c15.2-2.6,30.4-4.9,45.5-8.2c15-3.3,29.6-8,44-13.5c27.9-10.6,55.2-24,84.9-29.1c21.8-3.8,45.7-3.7,66.1,5.7C442.5,184.4,453,207,451.4,230.9z"/><path fill="#010101" d="M196.5 292.6c-4.4-13.1-12.2-25-25.8-29.3-9.2-2.9-63.9-14.5-57.5 8.1.1.4.3.8.5 1.2-.5.4-1 .9-1.4 1.4-4.7 5.3 3.6 12.6 8.3 7.3 3.5-4 12.6-.6 16.7.6 6.7 2.1 13.6 5.6 19.2 9.8 16.6 12.6 26.5 33.1 34.8 51.7 2 4.5 10.1 5.2 10.6-.8C203.2 325.9 201.9 308.6 196.5 292.6zM161.5 281.8c-7.7-5.4-16.5-9.3-25.6-11.8-1.8-.5-3.8-.9-5.8-1.2 3.1-.2 6.2-.1 9.2.1 10.1.7 20.3 2.3 30 5.3 4 1.3 5.3 2.5 8.4 6.2 4.4 5.3 7.1 11.7 9.2 18.2 1.9 6 3.2 12.2 3.8 18.6C183.3 303.6 174.1 290.6 161.5 281.8zM265.2 236.7c-8.5-7-46-30.1-50.2-8.1 0 .2-.1.4-.1.6-5.2-.5-10.2.7-14.6 4.8-5.2 4.8 3.1 12 8.3 7.3 3.9-3.6 11.4.8 15 2.8 7.1 4 13.3 9.8 18.8 15.7 5.7 6 10.8 13.2 13.9 20.9 4.2 10.5 4.7 22.2 4.7 33.4 0 5.6 8.1 6.7 10.4 2C283.1 292.1 288.5 256 265.2 236.7zM269.5 287.4c-1-4.5-2.3-9-4.2-13.3-4-9.4-11-17.7-18.1-25-5.3-5.4-13.4-12.7-22-16.8.2-.5.4-1 .6-1.6 0 0 0 0 0 0 .7-.1 1.6-.1 2.5 0 3.8.5 7.4 1.9 10.8 3.4 7 3 14.4 6.9 20.1 12.1 6.8 6.1 10.9 18.7 11.2 29.4C270.6 279.5 270.2 283.4 269.5 287.4zM342.4 227.4c-7.6-11.9-20.4-20.5-33.4-26.2-.9-1.7-2.6-3-5-3h-4c-2.6 0-4.4 2.1-4.9 4.4-1.6.8-3.2 1.9-4.8 3.4-5.1 4.9 3.2 12.1 8.3 7.3 1.5-1.5 1.9-1.3 3-1 1.3.2 3.6 2 5.3 3.8 5 5 8.6 12 11.6 18.4 3.6 7.4 6.5 15.1 9 22.9 1.6 5.1 3.3 9.8 3.4 14.8.1 6.1 7.7 6.1 10.4 2C351.1 259.3 352 242.4 342.4 227.4zM337.9 253.4c-.2-.5-.3-1-.5-1.5-3-9.2-6.8-18.2-11.3-26.9 2.1 2 4 4.1 5.8 6.4C337.2 238.4 338.9 245.9 337.9 253.4zM346.6 192.4c-6.4 2.9-2.8 13.3 3.6 10.4 3.9-1.8 5.1 1.5 6.4 5 1.7 4.5 2.2 9.5 2.3 14.3.1 7.1 11 6.2 11-.8C369.8 209.1 363.9 184.6 346.6 192.4zM182.9 166.8c.1-1 .5-1.9.8-2.7 2.1-5.1 5.5-9.8 8.5-14.4 6.1-9.1 13.5-18.7 11-30.2-2.8-13.1-14.2-18.9-24.3-25.9-4-2.8-8.3-6.2-9.3-11.3-.9-4.4 1.7-14.1 7.7-13.2 7 1 9.1-9.8 2.1-10.8-17.3-2.5-25.4 19.9-17.9 33 3.4 6 9.1 9.9 14.7 13.6 5.4 3.5 12 7 15 13.1 5.5 11-6.1 22.6-12 31.7-5.5 8.5-13.2 23.8.8 29 6.6 2.4 11.5-7.4 4.9-9.9-.5-.2-1.9-.9-1.8-.8-.1-.1-.1-.1-.2-.1 0-.1 0-.2-.1-.3C182.9 167.9 182.8 167.1 182.9 166.8zM241.9 113.5c-1.4-8.2-6.6-14.8-12.1-20.8-2.3-2.5-4.9-4.9-7.1-7.6-.9-1-1.6-2.1-2.4-3.2-.4-.7-.4-1.6-.5-1.3 1-7-9.8-9.1-10.8-2.1-1 6.8 3.6 11.9 7.9 16.5 5.3 5.7 11.4 11 13.8 18.6 2.8 8.7-4.9 17.9-8.9 25-5.1 9.1-6.7 18.8-2.6 28.7 2.7 6.5 13.1 2.9 10.4-3.6C222 145.5 245.1 132.3 241.9 113.5zM288.1 107.6c-.9-13.5-6.9-39.7-25.5-35.2-6.9 1.7-3.2 12 3.6 10.4 4-1 6.8 7.4 7.8 10.1 2.3 6.5 3.3 13.5 3.2 20.3 0 8.5-3 17.4-5.5 25.4-3.1 9.8-7.3 19.5-12.3 28.5-3.5 6.2 6.4 11 9.9 4.9 6.1-10.8 10.6-22.5 14.2-34.4C286.5 128 288.8 117.8 288.1 107.6z"/></svg>