<?xml version="1.0" encoding="UTF-8"?>
<svg xmlns="http://www.w3.org/2000/svg" xmlns:xlink="http://www.w3.org/1999/xlink" viewBox="0 0 64 64" width="64px" height="64px">
<g id="surface12414117">
<path style=" stroke:none;fill-rule:nonzero;fill:rgb(78.039217%,92.941177%,90.196079%);fill-opacity:1;" d="M 56.449219 36.222656 C 56.640625 35.839844 56.832031 35.390625 56.960938 35.007812 C 58.625 30.078125 56.128906 24.128906 50.753906 22.71875 C 50.175781 15.425781 45.054688 10.496094 39.296875 9.601562 C 32.703125 8.640625 26.6875 12.800781 24.640625 19.457031 C 22.207031 18.625 19.839844 18.6875 17.664062 20.03125 C 16.640625 20.480469 15.742188 21.183594 14.910156 22.078125 C 13.695312 23.425781 12.929688 25.089844 12.609375 26.878906 C 12.160156 26.945312 11.648438 27.007812 11.199219 27.199219 C 8.640625 28.097656 6.976562 30.015625 6.527344 32.894531 C 6.273438 34.6875 6.785156 36.480469 7.105469 37.183594 C 8.320312 40 11.199219 41.664062 14.078125 41.214844 C 14.207031 41.214844 14.464844 41.28125 14.527344 41.34375 C 14.65625 45.886719 16.894531 49.921875 20.160156 52.160156 C 25.472656 55.808594 32.257812 54.71875 36.609375 49.664062 C 38.464844 51.519531 40.640625 52.480469 43.199219 52.160156 C 45.761719 51.839844 47.742188 50.433594 49.214844 48.128906 C 49.855469 48.320312 50.496094 48.574219 51.199219 48.640625 C 53.761719 48.894531 55.871094 47.871094 57.40625 45.566406 C 57.984375 44.671875 58.558594 43.519531 58.558594 41.535156 C 58.625 39.425781 57.792969 37.503906 56.449219 36.222656 Z M 56.449219 36.222656 "/>
<path style=" stroke:none;fill-rule:nonzero;fill:rgb(100%,100%,100%);fill-opacity:1;" d="M 54.078125 39.679688 L 47.679688 39.679688 C 47.488281 39.679688 47.359375 39.550781 47.359375 39.359375 C 47.359375 39.167969 47.488281 39.039062 47.679688 39.039062 L 54.078125 39.039062 C 54.273438 39.039062 54.398438 39.167969 54.398438 39.359375 C 54.398438 39.550781 54.273438 39.679688 54.078125 39.679688 Z M 56.640625 39.679688 L 55.359375 39.679688 C 55.167969 39.679688 55.039062 39.550781 55.039062 39.359375 C 55.039062 39.167969 55.167969 39.039062 55.359375 39.039062 L 56.640625 39.039062 C 56.832031 39.039062 56.960938 39.167969 56.960938 39.359375 C 56.960938 39.550781 56.832031 39.679688 56.640625 39.679688 Z M 59.839844 40.960938 L 53.441406 40.960938 C 53.246094 40.960938 53.121094 40.832031 53.121094 40.640625 C 53.121094 40.449219 53.246094 40.320312 53.441406 40.320312 L 59.839844 40.320312 C 60.03125 40.320312 60.160156 40.449219 60.160156 40.640625 C 60.160156 40.832031 60.03125 40.960938 59.839844 40.960938 Z M 52.160156 40.960938 L 51.519531 40.960938 C 51.328125 40.960938 51.199219 40.832031 51.199219 40.640625 C 51.199219 40.449219 51.328125 40.320312 51.519531 40.320312 L 52.160156 40.320312 C 52.351562 40.320312 52.480469 40.449219 52.480469 40.640625 C 52.480469 40.832031 52.351562 40.960938 52.160156 40.960938 Z M 50.175781 40.960938 L 48.960938 40.960938 C 48.769531 40.960938 48.640625 40.832031 48.640625 40.640625 C 48.640625 40.449219 48.769531 40.320312 48.960938 40.320312 L 50.175781 40.320312 C 50.367188 40.320312 50.496094 40.449219 50.496094 40.640625 C 50.496094 40.832031 50.367188 40.960938 50.175781 40.960938 Z M 56 38.398438 L 52.800781 38.398438 C 52.609375 38.398438 52.480469 38.273438 52.480469 38.078125 C 52.480469 37.886719 52.609375 37.761719 52.800781 37.761719 L 56 37.761719 C 56.191406 37.761719 56.320312 37.886719 56.320312 38.078125 C 56.320312 38.273438 56.191406 38.398438 56 38.398438 Z M 54.078125 42.238281 L 52.800781 42.238281 C 52.609375 42.238281 52.480469 42.113281 52.480469 41.921875 C 52.480469 41.726562 52.609375 41.601562 52.800781 41.601562 L 54.078125 41.601562 C 54.273438 41.601562 54.398438 41.726562 54.398438 41.921875 C 54.398438 42.113281 54.273438 42.238281 54.078125 42.238281 Z M 10.496094 32 L 4.160156 32 C 3.96875 32 3.839844 31.871094 3.839844 31.679688 C 3.839844 31.488281 3.96875 31.359375 4.160156 31.359375 L 10.496094 31.359375 C 10.6875 31.359375 10.816406 31.488281 10.816406 31.679688 C 10.816406 31.871094 10.6875 32 10.496094 32 Z M 12.480469 32 L 11.839844 32 C 11.648438 32 11.519531 31.871094 11.519531 31.679688 C 11.519531 31.488281 11.648438 31.359375 11.839844 31.359375 L 12.480469 31.359375 C 12.671875 31.359375 12.800781 31.488281 12.800781 31.679688 C 12.800781 31.871094 12.671875 32 12.480469 32 Z M 15.679688 33.28125 L 9.921875 33.28125 C 9.726562 33.28125 9.601562 33.152344 9.601562 32.960938 C 9.601562 32.769531 9.726562 32.640625 9.921875 32.640625 L 15.679688 32.640625 C 15.871094 32.640625 16 32.769531 16 32.960938 C 16 33.152344 15.871094 33.28125 15.679688 33.28125 Z M 8.640625 33.28125 L 8 33.28125 C 7.808594 33.28125 7.679688 33.152344 7.679688 32.960938 C 7.679688 32.769531 7.808594 32.640625 8 32.640625 L 8.640625 32.640625 C 8.832031 32.640625 8.960938 32.769531 8.960938 32.960938 C 8.960938 33.152344 8.832031 33.28125 8.640625 33.28125 Z M 6.71875 33.28125 L 5.441406 33.28125 C 5.246094 33.28125 5.121094 33.152344 5.121094 32.960938 C 5.121094 32.769531 5.246094 32.640625 5.441406 32.640625 L 6.71875 32.640625 C 6.910156 32.640625 7.039062 32.769531 7.039062 32.960938 C 7.039062 33.152344 6.910156 33.28125 6.71875 33.28125 Z M 10.558594 34.558594 L 9.28125 34.558594 C 9.089844 34.558594 8.960938 34.433594 8.960938 34.238281 C 8.960938 34.046875 9.089844 33.921875 9.28125 33.921875 L 10.558594 33.921875 C 10.753906 33.921875 10.878906 34.046875 10.878906 34.238281 C 10.878906 34.433594 10.753906 34.558594 10.558594 34.558594 Z M 12.480469 28.800781 C 12.351562 28.800781 11.96875 28.800781 11.839844 28.800781 C 11.648438 28.800781 11.519531 28.929688 11.519531 29.121094 C 11.519531 29.3125 11.648438 29.441406 11.839844 29.441406 C 11.96875 29.441406 12.351562 29.441406 12.480469 29.441406 C 12.671875 29.441406 12.800781 29.3125 12.800781 29.121094 C 12.800781 28.929688 12.671875 28.800781 12.480469 28.800781 Z M 12.480469 30.078125 C 12.351562 30.078125 9.40625 30.078125 9.28125 30.078125 C 9.089844 30.078125 8.960938 30.207031 8.960938 30.398438 C 8.960938 30.59375 9.089844 30.71875 9.28125 30.71875 C 9.40625 30.71875 12.351562 30.71875 12.480469 30.71875 C 12.671875 30.71875 12.800781 30.59375 12.800781 30.398438 C 12.800781 30.207031 12.671875 30.078125 12.480469 30.078125 Z M 15.679688 31.359375 C 15.550781 31.359375 13.886719 31.359375 13.761719 31.359375 C 13.566406 31.359375 13.441406 31.488281 13.441406 31.679688 C 13.441406 31.871094 13.566406 32 13.761719 32 C 13.886719 32 15.550781 32 15.679688 32 C 15.871094 32 16 31.871094 16 31.679688 C 16 31.488281 15.871094 31.359375 15.679688 31.359375 Z M 15.679688 31.359375 "/>
<path style=" stroke:none;fill-rule:nonzero;fill:rgb(99.215686%,98.823529%,93.725491%);fill-opacity:1;" d="M 41.664062 25.921875 C 41.664062 25.921875 39.359375 25.921875 37.761719 25.921875 C 36.160156 25.921875 34.878906 24.640625 34.878906 23.039062 C 34.878906 21.566406 36.03125 20.351562 37.503906 20.160156 C 37.503906 20.03125 37.441406 19.902344 37.441406 19.839844 C 37.441406 18.238281 38.71875 16.960938 40.320312 16.960938 C 41.214844 16.960938 42.046875 17.40625 42.558594 18.046875 C 42.625 16.382812 44.03125 15.039062 45.761719 15.039062 C 47.550781 15.039062 48.960938 16.449219 48.960938 18.238281 C 48.960938 18.496094 48.894531 18.816406 48.832031 19.070312 C 49.214844 18.558594 49.855469 18.238281 50.558594 18.238281 C 51.710938 18.238281 52.609375 19.070312 52.800781 20.222656 C 52.929688 20.222656 53.054688 20.160156 53.121094 20.160156 C 54.71875 20.160156 56 21.441406 56 23.039062 C 56 24.640625 54.71875 25.921875 53.121094 25.921875 C 51.519531 25.921875 47.039062 25.921875 47.039062 25.921875 L 43.585938 25.921875 L 43.585938 26.238281 L 41.664062 26.238281 Z M 41.664062 25.921875 "/>
<path style=" stroke:none;fill-rule:nonzero;fill:rgb(27.843139%,16.862746%,16.078432%);fill-opacity:1;" d="M 45.761719 14.71875 C 47.679688 14.71875 49.28125 16.320312 49.28125 18.238281 C 49.664062 17.984375 50.113281 17.921875 50.558594 17.921875 C 51.710938 17.921875 52.734375 18.753906 53.054688 19.839844 L 53.121094 19.839844 C 54.910156 19.839844 56.320312 21.246094 56.320312 23.039062 C 56.320312 24.832031 54.910156 26.238281 53.121094 26.238281 L 43.585938 26.238281 C 43.390625 26.238281 43.265625 26.113281 43.265625 25.921875 C 43.265625 25.726562 43.390625 25.601562 43.585938 25.601562 L 53.121094 25.601562 C 54.527344 25.601562 55.679688 24.449219 55.679688 23.039062 C 55.679688 21.632812 54.527344 20.480469 53.121094 20.480469 C 53.054688 20.480469 52.992188 20.480469 52.929688 20.480469 L 52.863281 20.480469 C 52.863281 20.480469 52.863281 20.480469 52.800781 20.480469 C 52.671875 20.480469 52.480469 20.351562 52.480469 20.222656 C 52.351562 19.265625 51.519531 18.558594 50.558594 18.558594 C 49.984375 18.558594 49.472656 18.816406 49.089844 19.265625 C 49.023438 19.328125 48.960938 19.390625 48.832031 19.390625 C 48.769531 19.390625 48.703125 19.390625 48.703125 19.328125 C 48.574219 19.265625 48.511719 19.136719 48.511719 18.945312 C 48.574219 18.6875 48.640625 18.433594 48.640625 18.175781 C 48.640625 16.574219 47.359375 15.296875 45.761719 15.296875 C 44.222656 15.296875 43.007812 16.511719 42.878906 18.046875 C 42.878906 18.175781 42.753906 18.304688 42.6875 18.367188 C 42.625 18.367188 42.625 18.367188 42.558594 18.367188 C 42.433594 18.367188 42.367188 18.304688 42.304688 18.238281 C 41.792969 17.601562 41.089844 17.28125 40.320312 17.28125 C 38.910156 17.28125 37.761719 18.433594 37.761719 19.839844 C 37.761719 19.902344 37.761719 19.96875 37.761719 20.03125 L 37.761719 20.097656 C 37.761719 20.160156 37.761719 20.289062 37.695312 20.351562 C 37.632812 20.414062 37.566406 20.480469 37.503906 20.480469 C 36.160156 20.609375 35.199219 21.695312 35.199219 23.039062 C 35.199219 24.449219 36.351562 25.601562 37.761719 25.601562 L 41.664062 25.601562 C 41.855469 25.601562 41.984375 25.726562 41.984375 25.921875 C 41.984375 26.113281 41.855469 26.238281 41.664062 26.238281 L 37.761719 26.238281 C 35.96875 26.238281 34.558594 24.832031 34.558594 23.039062 C 34.558594 21.503906 35.648438 20.222656 37.121094 19.902344 L 37.121094 19.839844 C 37.121094 18.046875 38.527344 16.640625 40.320312 16.640625 C 41.089844 16.640625 41.792969 16.894531 42.367188 17.40625 C 42.753906 15.871094 44.097656 14.71875 45.761719 14.71875 Z M 45.761719 14.71875 "/>
<path style=" stroke:none;fill-rule:nonzero;fill:rgb(27.843139%,16.862746%,16.078432%);fill-opacity:1;" d="M 46.71875 19.199219 C 47.617188 19.199219 48.382812 19.839844 48.574219 20.671875 C 48.832031 20.542969 49.089844 20.480469 49.34375 20.480469 C 50.113281 20.480469 50.753906 21.054688 50.878906 21.824219 C 51.007812 21.824219 51.136719 21.761719 51.265625 21.761719 C 52.222656 21.761719 53.054688 22.527344 53.121094 23.488281 C 53.121094 23.550781 53.054688 23.679688 52.992188 23.679688 C 52.929688 23.679688 52.863281 23.617188 52.863281 23.550781 C 52.800781 22.71875 52.097656 22.078125 51.328125 22.078125 C 51.199219 22.078125 51.007812 22.078125 50.878906 22.144531 C 50.878906 22.144531 50.878906 22.144531 50.816406 22.144531 C 50.753906 22.144531 50.753906 22.144531 50.6875 22.078125 C 50.625 22.078125 50.625 22.015625 50.625 21.953125 C 50.625 21.3125 50.113281 20.734375 49.40625 20.734375 C 49.152344 20.734375 48.832031 20.863281 48.640625 21.054688 C 48.640625 21.054688 48.574219 21.121094 48.511719 21.121094 L 48.449219 21.121094 C 48.382812 21.121094 48.382812 21.054688 48.320312 20.992188 C 48.257812 20.160156 47.550781 19.519531 46.71875 19.519531 C 46.59375 19.519531 46.464844 19.519531 46.273438 19.585938 C 46.273438 19.585938 46.273438 19.585938 46.207031 19.585938 C 46.144531 19.585938 46.078125 19.519531 46.078125 19.457031 C 46.078125 19.390625 46.078125 19.265625 46.207031 19.265625 C 46.398438 19.199219 46.527344 19.199219 46.71875 19.199219 Z M 37.824219 20.160156 C 38.65625 20.160156 39.425781 20.734375 39.679688 21.566406 C 39.679688 21.632812 39.679688 21.761719 39.550781 21.761719 C 39.550781 21.761719 39.550781 21.761719 39.488281 21.761719 C 39.425781 21.761719 39.359375 21.695312 39.359375 21.632812 C 39.167969 20.929688 38.527344 20.480469 37.824219 20.480469 C 37.761719 20.480469 37.695312 20.480469 37.632812 20.480469 C 37.566406 20.480469 37.503906 20.414062 37.503906 20.351562 C 37.503906 20.289062 37.566406 20.160156 37.632812 20.160156 C 37.632812 20.160156 37.761719 20.160156 37.824219 20.160156 Z M 37.824219 20.160156 "/>
<path style=" stroke:none;fill-rule:nonzero;fill:rgb(96.470588%,57.254905%,44.705883%);fill-opacity:1;" d="M 26.558594 48.191406 C 24.128906 48.191406 22.207031 46.207031 22.207031 43.839844 L 22.207031 24.0625 C 22.207031 21.632812 24.191406 19.648438 26.558594 19.648438 L 40.574219 19.648438 C 43.007812 19.648438 44.929688 21.632812 44.929688 24.0625 L 44.929688 43.839844 C 44.929688 46.273438 42.945312 48.191406 40.574219 48.191406 Z M 26.558594 48.191406 "/>
<path style=" stroke:none;fill-rule:nonzero;fill:rgb(98.039216%,90.980393%,90.196079%);fill-opacity:1;" d="M 41.28125 43.070312 L 41.28125 26.433594 C 41.28125 25.601562 41.921875 24.960938 42.625 24.960938 L 44.800781 24.960938 L 44.800781 43.070312 Z M 41.28125 43.070312 "/>
<path style=" stroke:none;fill-rule:nonzero;fill:rgb(27.843139%,16.862746%,16.078432%);fill-opacity:1;" d="M 40.640625 20.097656 C 42.816406 20.097656 44.542969 21.886719 44.542969 24 L 44.542969 43.777344 C 44.542969 45.953125 42.753906 47.742188 40.574219 47.742188 L 26.558594 47.742188 C 24.382812 47.742188 22.59375 45.953125 22.59375 43.777344 L 22.59375 24 C 22.59375 21.824219 24.382812 20.097656 26.558594 20.097656 L 40.640625 20.097656 M 40.640625 19.199219 L 26.625 19.199219 C 23.9375 19.199219 21.761719 21.375 21.761719 24 L 21.761719 43.777344 C 21.761719 46.464844 23.9375 48.640625 26.558594 48.640625 L 40.574219 48.640625 C 43.265625 48.640625 45.441406 46.464844 45.441406 43.777344 L 45.441406 24 C 45.441406 21.375 43.265625 19.199219 40.640625 19.199219 Z M 40.640625 19.199219 "/>
<path style=" stroke:none;fill-rule:nonzero;fill:rgb(27.843139%,16.862746%,16.078432%);fill-opacity:1;" d="M 41.28125 46.71875 C 41.089844 46.71875 40.960938 46.59375 40.960938 46.398438 L 40.960938 26.753906 C 40.960938 25.792969 41.792969 24.960938 42.753906 24.960938 L 45.121094 24.960938 C 45.3125 24.960938 45.441406 25.089844 45.441406 25.28125 C 45.441406 25.472656 45.3125 25.601562 45.121094 25.601562 L 42.753906 25.601562 C 42.113281 25.601562 41.601562 26.113281 41.601562 26.753906 L 41.601562 46.398438 C 41.601562 46.59375 41.472656 46.71875 41.28125 46.71875 Z M 41.28125 46.71875 "/>
<path style=" stroke:none;fill-rule:nonzero;fill:rgb(99.607843%,99.215686%,93.725491%);fill-opacity:1;" d="M 28.222656 34.175781 L 36.992188 34.175781 C 37.566406 34.175781 38.078125 33.664062 38.078125 33.089844 L 38.078125 26.945312 C 38.078125 26.367188 37.566406 25.855469 36.992188 25.855469 L 28.222656 25.855469 C 27.648438 25.855469 27.136719 26.367188 27.136719 26.945312 L 27.136719 33.089844 C 27.199219 33.726562 27.648438 34.175781 28.222656 34.175781 Z M 28.222656 34.175781 "/>
<path style=" stroke:none;fill-rule:nonzero;fill:rgb(27.843139%,16.862746%,16.078432%);fill-opacity:1;" d="M 31.679688 26.238281 L 30.398438 26.238281 C 30.207031 26.238281 30.078125 26.113281 30.078125 25.921875 C 30.078125 25.726562 30.207031 25.601562 30.398438 25.601562 L 31.679688 25.601562 C 31.871094 25.601562 32 25.726562 32 25.921875 C 32 26.113281 31.871094 26.238281 31.679688 26.238281 Z M 31.679688 26.238281 "/>
<path style=" stroke:none;fill-rule:nonzero;fill:rgb(27.843139%,16.862746%,16.078432%);fill-opacity:1;" d="M 36.992188 34.558594 L 28.222656 34.558594 C 27.519531 34.558594 26.878906 33.921875 26.878906 33.152344 L 26.878906 27.007812 C 26.878906 26.238281 27.519531 25.601562 28.222656 25.601562 L 29.121094 25.601562 C 29.3125 25.601562 29.441406 25.726562 29.441406 25.921875 C 29.441406 26.113281 29.3125 26.238281 29.121094 26.238281 L 28.222656 26.238281 C 27.839844 26.238281 27.519531 26.558594 27.519531 27.007812 L 27.519531 33.152344 C 27.519531 33.601562 27.839844 33.921875 28.222656 33.921875 L 36.992188 33.921875 C 37.375 33.921875 37.761719 33.601562 37.761719 33.152344 L 37.761719 27.007812 C 37.761719 26.558594 37.441406 26.238281 36.992188 26.238281 L 32.960938 26.238281 C 32.769531 26.238281 32.640625 26.113281 32.640625 25.921875 C 32.640625 25.726562 32.769531 25.601562 32.960938 25.601562 L 36.992188 25.601562 C 37.761719 25.601562 38.398438 26.238281 38.398438 27.007812 L 38.398438 33.152344 C 38.398438 33.921875 37.761719 34.558594 36.992188 34.558594 Z M 36.992188 34.558594 "/>
<path style=" stroke:none;fill-rule:nonzero;fill:rgb(27.843139%,16.862746%,16.078432%);fill-opacity:1;" d="M 24 24.960938 L 20.800781 24.960938 C 20.609375 24.960938 20.480469 24.832031 20.480469 24.640625 C 20.480469 24.449219 20.609375 24.320312 20.800781 24.320312 L 24 24.320312 C 24.191406 24.320312 24.320312 24.449219 24.320312 24.640625 C 24.320312 24.832031 24.191406 24.960938 24 24.960938 Z M 24 24.960938 "/>
<path style=" stroke:none;fill-rule:nonzero;fill:rgb(27.843139%,16.862746%,16.078432%);fill-opacity:1;" d="M 44.480469 28.800781 L 41.28125 28.800781 C 41.089844 28.800781 40.960938 28.671875 40.960938 28.480469 C 40.960938 28.289062 41.089844 28.160156 41.28125 28.160156 L 44.480469 28.160156 C 44.671875 28.160156 44.800781 28.289062 44.800781 28.480469 C 44.800781 28.671875 44.671875 28.800781 44.480469 28.800781 Z M 44.480469 28.800781 "/>
<path style=" stroke:none;fill-rule:nonzero;fill:rgb(27.843139%,16.862746%,16.078432%);fill-opacity:1;" d="M 44.480469 32.640625 L 41.28125 32.640625 C 41.089844 32.640625 40.960938 32.511719 40.960938 32.320312 C 40.960938 32.128906 41.089844 32 41.28125 32 L 44.480469 32 C 44.671875 32 44.800781 32.128906 44.800781 32.320312 C 44.800781 32.511719 44.671875 32.640625 44.480469 32.640625 Z M 44.480469 32.640625 "/>
<path style=" stroke:none;fill-rule:nonzero;fill:rgb(27.843139%,16.862746%,16.078432%);fill-opacity:1;" d="M 44.480469 35.839844 L 41.28125 35.839844 C 41.089844 35.839844 40.960938 35.710938 40.960938 35.519531 C 40.960938 35.328125 41.089844 35.199219 41.28125 35.199219 L 44.480469 35.199219 C 44.671875 35.199219 44.800781 35.328125 44.800781 35.519531 C 44.800781 35.710938 44.671875 35.839844 44.480469 35.839844 Z M 44.480469 35.839844 "/>
<path style=" stroke:none;fill-rule:nonzero;fill:rgb(27.843139%,16.862746%,16.078432%);fill-opacity:1;" d="M 44.480469 39.679688 L 41.28125 39.679688 C 41.089844 39.679688 40.960938 39.550781 40.960938 39.359375 C 40.960938 39.167969 41.089844 39.039062 41.28125 39.039062 L 44.480469 39.039062 C 44.671875 39.039062 44.800781 39.167969 44.800781 39.359375 C 44.800781 39.550781 44.671875 39.679688 44.480469 39.679688 Z M 44.480469 39.679688 "/>
<path style=" stroke:none;fill-rule:nonzero;fill:rgb(27.843139%,16.862746%,16.078432%);fill-opacity:1;" d="M 44.480469 43.519531 L 41.28125 43.519531 C 41.089844 43.519531 40.960938 43.390625 40.960938 43.199219 C 40.960938 43.007812 41.089844 42.878906 41.28125 42.878906 L 44.480469 42.878906 C 44.671875 42.878906 44.800781 43.007812 44.800781 43.199219 C 44.800781 43.390625 44.671875 43.519531 44.480469 43.519531 Z M 44.480469 43.519531 "/>
<path style=" stroke:none;fill-rule:nonzero;fill:rgb(27.843139%,16.862746%,16.078432%);fill-opacity:1;" d="M 24 28.160156 L 20.800781 28.160156 C 20.609375 28.160156 20.480469 28.03125 20.480469 27.839844 C 20.480469 27.648438 20.609375 27.519531 20.800781 27.519531 L 24 27.519531 C 24.191406 27.519531 24.320312 27.648438 24.320312 27.839844 C 24.320312 28.03125 24.191406 28.160156 24 28.160156 Z M 24 28.160156 "/>
<path style=" stroke:none;fill-rule:nonzero;fill:rgb(27.843139%,16.862746%,16.078432%);fill-opacity:1;" d="M 24 31.359375 L 20.800781 31.359375 C 20.609375 31.359375 20.480469 31.230469 20.480469 31.039062 C 20.480469 30.847656 20.609375 30.71875 20.800781 30.71875 L 24 30.71875 C 24.191406 30.71875 24.320312 30.847656 24.320312 31.039062 C 24.320312 31.230469 24.191406 31.359375 24 31.359375 Z M 24 31.359375 "/>
<path style=" stroke:none;fill-rule:nonzero;fill:rgb(27.843139%,16.862746%,16.078432%);fill-opacity:1;" d="M 24 34.558594 L 20.800781 34.558594 C 20.609375 34.558594 20.480469 34.433594 20.480469 34.238281 C 20.480469 34.046875 20.609375 33.921875 20.800781 33.921875 L 24 33.921875 C 24.191406 33.921875 24.320312 34.046875 24.320312 34.238281 C 24.320312 34.433594 24.191406 34.558594 24 34.558594 Z M 24 34.558594 "/>
<path style=" stroke:none;fill-rule:nonzero;fill:rgb(27.843139%,16.862746%,16.078432%);fill-opacity:1;" d="M 24 37.761719 L 20.800781 37.761719 C 20.609375 37.761719 20.480469 37.632812 20.480469 37.441406 C 20.480469 37.246094 20.609375 37.121094 20.800781 37.121094 L 24 37.121094 C 24.191406 37.121094 24.320312 37.246094 24.320312 37.441406 C 24.320312 37.632812 24.191406 37.761719 24 37.761719 Z M 24 37.761719 "/>
<path style=" stroke:none;fill-rule:nonzero;fill:rgb(27.843139%,16.862746%,16.078432%);fill-opacity:1;" d="M 23.808594 40.320312 L 20.800781 40.320312 C 20.609375 40.320312 20.480469 40.191406 20.480469 40 C 20.480469 39.808594 20.609375 39.679688 20.800781 39.679688 L 23.808594 39.679688 C 24 39.679688 24.128906 39.808594 24.128906 40 C 24.128906 40.191406 24 40.320312 23.808594 40.320312 Z M 23.808594 40.320312 "/>
<path style=" stroke:none;fill-rule:nonzero;fill:rgb(27.843139%,16.862746%,16.078432%);fill-opacity:1;" d="M 23.808594 43.390625 L 20.800781 43.390625 C 20.609375 43.390625 20.480469 43.265625 20.480469 43.070312 C 20.480469 42.878906 20.609375 42.753906 20.800781 42.753906 L 23.808594 42.753906 C 24 42.753906 24.128906 42.878906 24.128906 43.070312 C 24.128906 43.265625 24 43.390625 23.808594 43.390625 Z M 23.808594 43.390625 "/>
<path style=" stroke:none;fill-rule:nonzero;fill:rgb(63.921571%,63.921571%,80.392158%);fill-opacity:1;" d="M 32.640625 30.527344 C 31.742188 30.527344 31.039062 29.824219 31.039062 28.929688 C 31.039062 28.03125 31.742188 27.328125 32.640625 27.328125 C 33.535156 27.328125 34.238281 28.03125 34.238281 28.929688 C 34.238281 29.824219 33.535156 30.527344 32.640625 30.527344 Z M 32.640625 30.527344 "/>
<path style=" stroke:none;fill-rule:nonzero;fill:rgb(27.843139%,16.862746%,16.078432%);fill-opacity:1;" d="M 32.640625 27.710938 C 33.34375 27.710938 33.921875 28.289062 33.921875 28.992188 C 33.921875 29.695312 33.34375 30.273438 32.640625 30.273438 C 31.9375 30.273438 31.359375 29.695312 31.359375 28.992188 C 31.359375 28.289062 31.9375 27.710938 32.640625 27.710938 M 32.640625 27.070312 C 31.617188 27.070312 30.71875 27.902344 30.71875 28.992188 C 30.71875 30.078125 31.550781 30.910156 32.640625 30.910156 C 33.726562 30.910156 34.558594 30.078125 34.558594 28.992188 C 34.558594 27.902344 33.726562 27.070312 32.640625 27.070312 Z M 32.640625 27.070312 "/>
<path style=" stroke:none;fill-rule:nonzero;fill:rgb(63.921571%,63.921571%,80.392158%);fill-opacity:1;" d="M 29.761719 34.238281 C 29.886719 32.449219 31.105469 30.976562 32.640625 30.976562 C 34.175781 30.976562 35.390625 32.382812 35.519531 34.238281 Z M 29.761719 34.238281 "/>
<path style=" stroke:none;fill-rule:nonzero;fill:rgb(27.843139%,16.862746%,16.078432%);fill-opacity:1;" d="M 32.640625 31.296875 C 33.855469 31.296875 34.945312 32.449219 35.136719 33.921875 L 30.144531 33.921875 C 30.335938 32.449219 31.425781 31.296875 32.640625 31.296875 M 32.640625 30.65625 C 30.847656 30.65625 29.441406 32.382812 29.441406 34.558594 L 35.839844 34.558594 C 35.839844 32.382812 34.433594 30.65625 32.640625 30.65625 Z M 32.640625 30.65625 "/>
<path style=" stroke:none;fill-rule:nonzero;fill:rgb(63.921571%,63.921571%,80.392158%);fill-opacity:1;" d="M 28.480469 50.046875 L 27.199219 50.558594 L 27.199219 48.320312 L 29.761719 48.320312 L 29.761719 50.558594 Z M 28.480469 50.046875 "/>
<path style=" stroke:none;fill-rule:nonzero;fill:rgb(27.843139%,16.862746%,16.078432%);fill-opacity:1;" d="M 29.441406 48.640625 L 29.441406 50.113281 L 28.671875 49.855469 L 28.414062 49.792969 L 28.160156 49.855469 L 27.519531 50.113281 L 27.519531 48.640625 L 29.441406 48.640625 M 30.078125 48 L 26.878906 48 L 26.878906 51.007812 L 28.480469 50.433594 L 30.078125 51.007812 Z M 30.078125 48 "/>
<path style=" stroke:none;fill-rule:nonzero;fill:rgb(99.215686%,98.823529%,93.725491%);fill-opacity:1;" d="M 22.078125 46.398438 C 22.078125 46.398438 23.105469 46.398438 24.320312 46.398438 C 25.535156 46.398438 26.558594 45.375 26.558594 44.160156 C 26.558594 43.007812 25.726562 42.113281 24.574219 41.921875 C 24.574219 41.792969 24.640625 41.664062 24.640625 41.601562 C 24.640625 40.382812 23.617188 39.359375 22.398438 39.359375 C 21.761719 39.359375 21.121094 39.679688 20.734375 40.128906 C 20.480469 38.976562 19.457031 38.078125 18.238281 38.078125 C 16.832031 38.078125 15.679688 39.230469 15.679688 40.640625 C 15.679688 40.769531 15.679688 40.894531 15.742188 41.023438 C 15.488281 40.832031 15.105469 40.640625 14.71875 40.640625 C 13.953125 40.640625 13.3125 41.214844 13.121094 41.984375 C 12.992188 41.984375 12.863281 41.921875 12.800781 41.921875 C 11.585938 41.921875 10.558594 42.945312 10.558594 44.160156 C 10.558594 45.375 11.585938 46.398438 12.800781 46.398438 C 14.015625 46.398438 17.601562 46.398438 17.601562 46.398438 L 17.601562 46.71875 L 22.078125 46.71875 Z M 22.078125 46.398438 "/>
<path style=" stroke:none;fill-rule:nonzero;fill:rgb(27.843139%,16.862746%,16.078432%);fill-opacity:1;" d="M 23.230469 43.519531 C 23.167969 43.519531 23.039062 43.457031 23.039062 43.328125 C 23.039062 42.558594 23.679688 41.921875 24.449219 41.921875 C 24.449219 41.921875 24.894531 41.921875 25.214844 41.984375 C 25.28125 41.984375 25.34375 42.113281 25.34375 42.175781 C 25.34375 42.238281 25.214844 42.304688 25.152344 42.304688 C 24.894531 42.238281 24.449219 42.238281 24.449219 42.238281 C 23.871094 42.238281 23.359375 42.753906 23.359375 43.328125 C 23.359375 43.457031 23.296875 43.519531 23.230469 43.519531 Z M 18.878906 46.078125 C 18.703125 46.078125 18.558594 46.222656 18.558594 46.398438 C 18.558594 46.578125 18.703125 46.71875 18.878906 46.71875 C 19.058594 46.71875 19.199219 46.578125 19.199219 46.398438 C 19.199219 46.222656 19.058594 46.078125 18.878906 46.078125 Z M 18.878906 46.078125 "/>
<path style=" stroke:none;fill-rule:nonzero;fill:rgb(27.843139%,16.862746%,16.078432%);fill-opacity:1;" d="M 24.320312 46.71875 L 22.078125 46.71875 C 21.886719 46.71875 21.761719 46.59375 21.761719 46.398438 C 21.761719 46.207031 21.886719 46.078125 22.078125 46.078125 L 24.320312 46.078125 C 25.40625 46.078125 26.238281 45.246094 26.238281 44.160156 C 26.238281 43.199219 25.535156 42.367188 24.574219 42.238281 C 24.511719 42.238281 24.382812 42.175781 24.382812 42.113281 C 24.382812 42.046875 24.320312 41.984375 24.320312 41.855469 C 24.320312 41.726562 24.320312 41.664062 24.320312 41.535156 C 24.320312 40.449219 23.488281 39.617188 22.398438 39.617188 C 21.886719 39.617188 21.375 39.871094 20.992188 40.257812 C 20.929688 40.320312 20.800781 40.382812 20.671875 40.320312 C 20.542969 40.320312 20.480469 40.191406 20.414062 40.0625 C 20.222656 39.039062 19.265625 38.273438 18.238281 38.273438 C 17.023438 38.273438 16 39.296875 16 40.511719 C 16 40.574219 16 40.703125 16 40.769531 C 16 40.894531 15.9375 41.023438 15.871094 41.089844 C 15.808594 41.152344 15.617188 41.152344 15.488281 41.089844 C 15.296875 41.089844 14.976562 40.960938 14.71875 40.960938 C 14.078125 40.960938 13.566406 41.40625 13.441406 41.984375 C 13.441406 42.175781 13.246094 42.238281 13.054688 42.238281 C 12.929688 42.238281 12.863281 42.238281 12.734375 42.238281 C 11.648438 42.238281 10.816406 43.070312 10.816406 44.160156 C 10.816406 45.246094 11.648438 46.078125 12.734375 46.078125 L 17.535156 46.078125 C 17.726562 46.078125 17.855469 46.207031 17.855469 46.398438 C 17.855469 46.59375 17.792969 46.71875 17.601562 46.71875 L 12.800781 46.71875 C 11.390625 46.71875 10.238281 45.566406 10.238281 44.160156 C 10.238281 42.753906 11.390625 41.601562 12.800781 41.601562 C 12.863281 41.601562 12.863281 41.601562 12.929688 41.601562 C 13.183594 40.832031 13.886719 40.320312 14.71875 40.320312 C 14.910156 40.320312 15.167969 40.382812 15.359375 40.449219 C 15.488281 38.976562 16.703125 37.761719 18.238281 37.761719 C 19.390625 37.761719 20.480469 38.464844 20.929688 39.550781 C 21.375 39.230469 21.886719 39.039062 22.398438 39.039062 C 23.808594 39.039062 24.960938 40.191406 24.960938 41.601562 L 24.960938 41.664062 C 26.046875 41.921875 26.878906 42.945312 26.878906 44.160156 C 26.878906 45.566406 25.726562 46.71875 24.320312 46.71875 Z M 24.320312 46.71875 "/>
<path style=" stroke:none;fill-rule:nonzero;fill:rgb(27.843139%,16.862746%,16.078432%);fill-opacity:1;" d="M 20.800781 46.078125 C 20.671875 46.078125 20.289062 46.078125 20.160156 46.078125 C 19.96875 46.078125 19.839844 46.207031 19.839844 46.398438 C 19.839844 46.59375 19.96875 46.71875 20.160156 46.71875 C 20.289062 46.71875 20.671875 46.71875 20.800781 46.71875 C 20.992188 46.71875 21.121094 46.59375 21.121094 46.398438 C 21.121094 46.207031 20.992188 46.078125 20.800781 46.078125 Z M 20.800781 46.078125 "/>
<path style=" stroke:none;fill-rule:nonzero;fill:rgb(99.215686%,98.823529%,93.725491%);fill-opacity:1;" d="M 59.960938 50.359375 C 59.960938 55.660156 55.660156 59.960938 50.359375 59.960938 C 45.058594 59.960938 40.757812 55.660156 40.757812 50.359375 C 40.757812 45.058594 45.058594 40.757812 50.359375 40.757812 C 55.660156 40.757812 59.960938 45.058594 59.960938 50.359375 Z M 59.960938 50.359375 "/>
<path style=" stroke:none;fill-rule:nonzero;fill:rgb(27.843139%,16.862746%,16.078432%);fill-opacity:1;" d="M 50.359375 41.335938 C 55.335938 41.335938 59.382812 45.382812 59.382812 50.359375 C 59.382812 55.335938 55.335938 59.382812 50.359375 59.382812 C 45.382812 59.382812 41.335938 55.335938 41.335938 50.359375 C 41.335938 45.382812 45.382812 41.335938 50.359375 41.335938 M 50.359375 40.4375 C 44.878906 40.4375 40.4375 44.878906 40.4375 50.359375 C 40.4375 55.835938 44.878906 60.277344 50.359375 60.277344 C 55.835938 60.277344 60.277344 55.835938 60.277344 50.359375 C 60.277344 44.878906 55.835938 40.4375 50.359375 40.4375 Z M 50.359375 40.4375 "/>
<path style=" stroke:none;fill-rule:nonzero;fill:rgb(94.509804%,73.725492%,9.803922%);fill-opacity:1;" d="M 58.199219 50.359375 C 58.199219 54.6875 54.6875 58.199219 50.359375 58.199219 C 46.027344 58.199219 42.519531 54.6875 42.519531 50.359375 C 42.519531 46.027344 46.027344 42.519531 50.359375 42.519531 C 54.6875 42.519531 58.199219 46.027344 58.199219 50.359375 Z M 58.199219 50.359375 "/>
<path style=" stroke:none;fill-rule:nonzero;fill:rgb(93.333334%,82.352942%,37.64706%);fill-opacity:1;" d="M 50.359375 42.519531 C 46.035156 42.519531 42.519531 46.035156 42.519531 50.359375 C 42.519531 50.457031 42.53125 50.550781 42.535156 50.648438 C 43.285156 47.015625 46.5 44.277344 50.359375 44.277344 C 54.21875 44.277344 57.433594 47.015625 58.183594 50.652344 C 58.1875 50.554688 58.199219 50.457031 58.199219 50.359375 C 58.199219 46.035156 54.679688 42.519531 50.359375 42.519531 Z M 50.359375 42.519531 "/>
<path style=" stroke:none;fill-rule:nonzero;fill:rgb(27.843139%,16.862746%,16.078432%);fill-opacity:1;" d="M 50.359375 42.679688 C 54.59375 42.679688 58.039062 46.125 58.039062 50.359375 C 58.039062 54.59375 54.59375 58.039062 50.359375 58.039062 C 46.125 58.039062 42.679688 54.59375 42.679688 50.359375 C 42.679688 46.125 46.125 42.679688 50.359375 42.679688 M 50.359375 42.359375 C 45.949219 42.359375 42.359375 45.949219 42.359375 50.359375 C 42.359375 54.769531 45.949219 58.359375 50.359375 58.359375 C 54.769531 58.359375 58.359375 54.769531 58.359375 50.359375 C 58.359375 45.949219 54.769531 42.359375 50.359375 42.359375 Z M 50.359375 42.359375 "/>
<path style=" stroke:none;fill-rule:nonzero;fill:rgb(27.843139%,16.862746%,16.078432%);fill-opacity:1;" d="M 52.359375 51.898438 C 52.359375 51.574219 52.3125 51.292969 52.21875 51.054688 C 52.128906 50.8125 51.992188 50.617188 51.808594 50.460938 C 51.625 50.304688 51.453125 50.183594 51.292969 50.097656 C 51.128906 50.007812 50.925781 49.917969 50.679688 49.828125 L 50.679688 47.574219 C 50.953125 47.589844 51.207031 47.652344 51.441406 47.765625 C 51.679688 47.882812 51.8125 47.9375 51.847656 47.9375 C 51.949219 47.9375 52.035156 47.886719 52.097656 47.78125 C 52.164062 47.675781 52.195312 47.578125 52.195312 47.488281 C 52.195312 47.304688 52.039062 47.15625 51.722656 47.039062 C 51.410156 46.925781 51.0625 46.859375 50.679688 46.839844 L 50.679688 46.4375 C 50.679688 46.304688 50.570312 46.199219 50.4375 46.199219 C 50.304688 46.199219 50.199219 46.304688 50.199219 46.4375 L 50.199219 46.859375 L 50.175781 46.859375 C 49.941406 46.878906 49.726562 46.921875 49.527344 46.992188 C 49.328125 47.058594 49.140625 47.160156 48.964844 47.289062 C 48.789062 47.421875 48.648438 47.601562 48.546875 47.828125 C 48.445312 48.054688 48.394531 48.3125 48.394531 48.609375 C 48.394531 48.855469 48.429688 49.074219 48.507812 49.265625 C 48.585938 49.460938 48.671875 49.617188 48.761719 49.730469 C 48.855469 49.847656 48.996094 49.960938 49.1875 50.074219 C 49.375 50.183594 49.53125 50.265625 49.652344 50.308594 L 50.175781 50.507812 L 50.199219 50.515625 L 50.199219 53.132812 L 50.175781 53.132812 C 49.921875 53.121094 49.695312 53.074219 49.492188 52.992188 C 49.292969 52.90625 49.144531 52.820312 49.054688 52.722656 C 48.960938 52.628906 48.871094 52.542969 48.78125 52.460938 C 48.695312 52.382812 48.625 52.34375 48.574219 52.34375 C 48.484375 52.34375 48.402344 52.394531 48.328125 52.492188 C 48.257812 52.589844 48.21875 52.691406 48.21875 52.796875 C 48.21875 53.027344 48.40625 53.261719 48.785156 53.507812 C 49.160156 53.75 49.621094 53.871094 50.175781 53.878906 L 50.199219 53.878906 L 50.199219 54.277344 C 50.199219 54.410156 50.304688 54.519531 50.4375 54.519531 C 50.570312 54.519531 50.679688 54.410156 50.679688 54.277344 L 50.679688 53.847656 C 51.195312 53.777344 51.601562 53.578125 51.902344 53.246094 C 52.207031 52.917969 52.359375 52.46875 52.359375 51.898438 Z M 49.414062 49.226562 C 49.242188 49.074219 49.152344 48.839844 49.152344 48.53125 C 49.152344 47.980469 49.503906 47.667969 50.199219 47.589844 L 50.199219 49.652344 C 49.851562 49.519531 49.585938 49.378906 49.414062 49.226562 Z M 50.679688 53.101562 L 50.679688 50.71875 C 50.964844 50.84375 51.191406 50.996094 51.347656 51.179688 C 51.515625 51.367188 51.597656 51.636719 51.597656 51.976562 C 51.597656 52.613281 51.289062 52.984375 50.679688 53.101562 Z M 50.679688 53.101562 "/>
</g>
</svg>
