<svg xmlns="http://www.w3.org/2000/svg"  viewBox="0 0 512 512" width="64px" height="64px"><path fill="#D6E5E5" d="M226.2,227.9c-6.8-1.2-21.5-3.5-23.2,6.4c-0.9,4.9-0.3,9.5,4.7,11.6c4.2,1.8,8.9,2.4,13.4,2.5c6.9,0.1,20.6,0.7,21.7-8.3c0.2-1.6,0.9-2.7,1.9-3.4C243.4,230.2,231.4,228.8,226.2,227.9z"/><path fill="#FCBF95" d="M152.9,226.6c-0.6-0.4-1.1-1-1.4-1.7c-0.1,0-0.1,0-0.2-0.1c-0.6-0.2-1.2-0.3-1.8-0.3c-0.8,0.1-1.2,0.2-1.8,0.7c-1.7,1.3-2.7,3.4-3.4,5.4c-1.8,4.5-2.5,9.3-2.3,14.2c0.5,9.9,3.8,21.7,15.5,22.2C155.2,253.6,153.9,240.1,152.9,226.6z"/><path fill="#C56528" d="M160.4,120.1c-0.5,0.2-1.1,0.3-1.7,0.3c-14.8,0.4-19.3,23-20.8,34.3c-2.4,17.1-3.1,38.1,5.7,53.8c2.4,0.1,4.6,1.6,4.5,4.8c0,0.3,0,0.6-0.1,0.9c0.5-0.1,1-0.1,1.5-0.1c0.7-0.5,1.6-0.8,2.6-0.8c-0.7-11.8-1.3-23.5-2.1-35.2c-0.4-5,5.2-6.8,8.4-4.8c1.8-1.2,4.2-1.5,6.3,0.4c0.9,0.7,1.8,1.3,2.8,1.7c1.6-2.3,2.6-5.2,3.5-7.6c1.7-4.8,2.9-9.8,3.9-14.8c1.7-8.4,2.9-16.8,4.1-25.3C172.4,126.4,165.4,124.7,160.4,120.1z"/><path fill="#FCBF95" d="M355.4,194.7c-2.7-7.8-1.2-17-2.3-25.2c-1.4,0.8-3,0.9-4.9,0.2c-14.6-5.4-22.8-23.3-25.4-37.6c-0.2-1-0.1-1.9,0.2-2.7c-5.4,0.4-10.8,0.6-16.3,0.7c-13.6,0.3-27.2,1-40.9,1.5c-25.4,0.8-51,0.8-76.2-2.4c-1.7,12.2-3.3,24.6-6.8,36.5c-1.7,5.8-3.7,11.7-7.3,16.6c-1.6,2.2-4.5,5.6-7.6,4.5c-2.4-0.8-4.7-1.6-6.8-2.8c0.6,10.1,1.1,20.9,1.7,31.9c5.7,1.8,11.3,3.9,16.6,6.3c4.2,1.9,9.6,4.2,13.7,7.7c5.2-14.2,21.8-14.8,35-12.5c7.3,1.3,15.9,3.5,21.5,8.2c1.2-1.9,2.8-3.5,4.7-4.9c0.1-5.8,0.1-11.5,0.1-17.3c0-6.9,10.7-7.8,10.7-0.8c0,4.6,0,9.1-0.1,13.7c8.9-1.8,19.1-0.3,24.5,4.9c3.8-5.4,10.4-10.6,16.5-12.3c11.7-3.4,31.8,0.1,36.8,13c7.5-4.5,16-7.3,24-10.8C361.1,209.2,357,199.2,355.4,194.7z M233.8,203c-1.7,6.7-12.3,4.7-10.5-2c0.2-0.7,0.2-0.5,0.1-0.7c-0.2-0.2-0.5-0.4-0.7-0.6c0.2,4.4-2.7,8.9-6.6,10.6c-0.2,0.1-0.3,0.2-0.5,0.4c-3,1.8-6.2,1.7-9-0.4c-2.3-1.7-3.6-4.7-4.5-7.4c-0.7-1.9-0.3-3.5,0.6-4.7c0-0.4,0.1-0.9,0.1-1.3c0.1-0.4,0.2-0.8,0.3-1.3c-1.4,0.1-2.8,0.4-4.1,0.8c-1.4,0.4-2.5,0.8-3.6,1.7c-0.1,0.1-0.5,0.7-0.5,0.6c-0.3,6.8-11,7.7-10.7,0.8c0.6-13.7,16.6-15.6,27.4-14.5C220.4,186,237,190.8,233.8,203z M337.3,197.3c-0.3-0.3-0.5-0.5-0.8-0.8c0.1,5.2-2.3,10.3-8,10.8c-0.4,0-0.9,0-1.3,0c-0.2,0-0.4,0.1-0.6,0.1c-2.4,0.1-5.1,0-7.3-1.2c-4.9-2.5-5.5-7.5-3.8-11.8c-3.9,1.6-7.6,3.8-10.7,6.2c-5.5,4.2-11.5-4.7-6-8.9c13-9.9,32.7-15.6,45.6-2.5C349.2,194.1,342.2,202.2,337.3,197.3z"/><path fill="#D6E5E5" d="M313.9,218.3c-5.4,0.5-10.1,3.2-13.8,7.1c-3.6,3.8-4.1,6.4-0.9,10.6c5.8,2.8,13.1,3.6,19.2,3c5.8-0.6,14.2-3.5,14.8-10.4C334,220.8,319.4,217.8,313.9,218.3z"/><path fill="#FCBF95" d="M386.7,221.2c-0.1-1.8,0.1-4.5-1.1-6c-1.4-1.9-1.2,0-1.3,1.5c-0.3,3.8-3.6,4.9-6.5,3.9c-0.7,6.8-1.5,13.5-2.3,20.3c-0.3,2.8-0.6,5.7-0.9,8.5c3-0.1,6.4-0.6,8.4-2.9c2.5-2.9,3.2-7.2,3.3-11C386.4,230.8,386.9,226,386.7,221.2z"/><path fill="#C56528" d="M378.2,148.2c-4-14.1-9.6-28.9-22-37.6c-0.3,3.8-0.7,7.6-1.3,11.4c-0.4,2.5-2.6,4-4.9,4.3c-5.9,1-11.8,1.7-17.8,2.3c0.6,0.7,1,1.6,1.2,2.7c1.6,9.1,6.5,20.2,14.4,26.1c0.7-1.3,1.5-2.6,2.5-3.8c2.2-2.6,6.7-2.4,8.5,0.5c6,9.8,3.9,20.3,5.4,31.1c0.5,3.5,1.3,6.6,2.8,9.8c0.7,1.5,1.5,2.9,2.4,4.3c0.6,0.9,1,1.4,1.2,1.6c1.1,0.4,2,1.1,2.7,2.1h0.2c0-0.3,0-0.7,0.1-1c1.4-9.3,6.5-17.6,7.6-27C382.5,165.6,380.7,157.1,378.2,148.2z"/><path fill="#EF4823" d="M279.2,57.7c-7,1.3-15.4,3.5-20-2.1c-3.5-4.2-3.9-11.1-3.9-17.1c-2.9-0.1-5.8-0.1-8.2,0.7c-3.2,1.1-0.6,9.1-0.5,11.9c0.1,2.6-1.4,4.4-3.2,5.1c-0.8,0.9-2,1.6-3.7,1.6c-7.5,0.1-15,1.3-22.5,1.7c0,5.3,0.6,12.1,4.3,12.5c6.9,0.8,14.4-2,20.4,2.7c3.1,2.5,4.6,6.1,4.9,10c0.1,1.8-0.6,7.3,0.9,8.5c1.5,1.2,6.7-0.4,8.4-0.7c1.5-0.3,3.1-0.6,4.6-0.9c-0.9-6.6-2.6-14.3,0.7-19.6c3.9-6.4,10.9-6.2,17.6-5.8C279.2,63.6,279.3,60.7,279.2,57.7z"/><path fill="#D6E5E5" d="M347 15.1c-1.9.6-3.7-.2-4.9-1.7-8-3.5-16.9-2.6-25.4-2.4-9 .3-17.9.2-26.9.6-18.5.8-37 2.5-55.5 3.7-23.3 1.4-52.9.2-69.1 19.9-.1.1-.1.3-.2.4-1.8 3.5-.4 9-.4 12.8 0 6-.3 11.9-.6 17.9-.4 9.3-.7 18.7-.8 28.1 0 6-.3 14.2 4.9 18.4 3.1 2.5 6.8 3.4 10.6 4.1 6.1 1 12.3 1.9 18.4 2.6 25.6 2.7 51.4 2.4 77.1 1.3 23.5-1 47.2-.9 70.5-4.3 2.5-19.9 1.5-39.7 2.6-59.6.4-8.3 1.3-16.7 1.3-25C348.7 26.2 348.6 20.3 347 15.1zM289.6 71.7c0 2.7-1.8 5.8-4.9 5.8-3.4-.1-6.8-.6-10.1-.5-1.1 0-2.4 0-3.5.4.4-.1-.2.5-.3 1.7-.4 5.7 1.1 11.4 1.3 17.1.1 2.8-1.9 5.7-4.9 5.8-8 .3-17 5-24.6.9-3.7-2-5.6-6.2-5.9-10.2-.2-1.8.6-8.5-1.3-9.4-3.5-1.6-8.3 0-12-.2-4.4-.2-8.4-1-11.4-4.6-5.2-6.2-5.1-15.8-5.1-23.4 0-2.8 1.9-5.7 4.9-5.8 8-.1 15.9-1.4 23.9-1.8-.7-6-1.3-12.8 4.1-16.3 6.2-4.1 13.8-2.5 20.8-3.4 2.7-.3 5.8 2.1 5.8 4.9 0 2.8 0 5.6.2 8.4.1 1.8 0 5.1.9 7.2.1-.4 1.4.2 2.8 0 1.7-.2 3.4-.4 5-.7 2.9-.5 5.8-1.2 8.7-1.3 3-.1 5.4 2 5.8 4.9C290.4 58.1 289.7 64.9 289.6 71.7zM288.7 487.1c1-13.1-4.3-26.3-5.1-39.4-.8-14.9-1.6-29.9-4.4-44.6h-.5c-.1-1.3-.2-2.7-.3-4-.1-.3-.1-.7-.2-1 0-.1 0-.1 0-.2-12.9 3.2-28 .4-39.3-5.5-.1-.1-.3-.1-.4-.2-.1 3.7-.7 7.4-1.8 11h-3.2c-.3.9-.9 1.8-1.9 2.5-14.2 10.5-33.3 13-50.3 15.1-11.2 1.4-22.2 2.7-33.1 5.6-6.8 1.8-14.6 1.8-21.5 3.9 13.5 22.9 38.4 35.4 62.8 44.1 14.3 5.1 29.1 10.5 44 13.1 4.9.8 9.7 1.4 14.6 1.7h28.7c4-.2 7.9-.5 11.9-.8C288.7 488 288.7 487.6 288.7 487.1zM256.4 416.3c-.1-1.4.4-2.9 1.3-4 .9-1 2.3-1.8 3.6-1.8h1c1.5 0 2.8.3 4 1.3 1 .9 1.7 2.2 1.8 3.6.1 1.4-.4 2.9-1.3 4-.9 1-2.3 1.8-3.6 1.8h-1c-1.5 0-2.8-.3-4-1.3C257.2 419 256.5 417.7 256.4 416.3zM259.3 442.7v-.7c0-6.9 10.7-7.8 10.7-.8v.7C270 448.7 259.3 449.6 259.3 442.7zM272 467.2c0 1.5-.3 2.8-1.3 4-.9 1-2.2 1.7-3.6 1.8-1.4.1-2.9-.4-4-1.3-1-.9-1.8-2.3-1.8-3.6v-2c0-1.5.3-2.8 1.3-4 .9-1 2.2-1.7 3.6-1.8 1.4-.1 2.9.4 4 1.3 1 .9 1.8 2.3 1.8 3.6V467.2zM396.2 417.3c-27.2-2.4-54.7-2.1-80.2-13.2-1.6-.7-2.5-1.9-2.8-3.2-2.1-2.9-3.8-6-5.1-9.4-2.5.7-5.4.9-7.7 1.3-3.8.7-7.7 1.2-11.4 2.4.1 1.1.1 2.1.2 3.2 3.3 16.6 3.8 33.3 5.3 50.2 1.2 13 5.5 25.8 4.9 38.9 12.1-.8 24.2-1.3 36.2-2.3 15.8-1.4 30.2-5.1 44.3-12.5 10.7-5.7 21-12.1 31.1-18.7 7.4-4.8 17-10.5 21.2-18.7C440.4 419 405.1 418.1 396.2 417.3z"/><path fill="#FCBF95" d="M305.1 377.2c-19.1 5.8-40.1 4.4-59.1-1.2-3.3-1-6.6-2-9.8-3.2.8 3.5 1.5 7 1.9 10.5 1.4-1.2 3.4-1.7 5.6-.5 9.9 5.2 26.1 8.6 36.6 3.3 1.3-.7 2.8-.9 4.2-.6 4.1-1.5 8.7-2.1 13-2.9 2.3-.4 4.5-.8 6.8-1.2.3-.1.8-.2 1.2-.4C305.3 379.7 305.2 378.4 305.1 377.2zM348.7 230.9c-1.8 1.1-3.6 1-5 .3-1.5 7.9-8.8 14.2-16.7 16.9-10.6 3.6-26 2.1-35.4-4.2-1.5-1-2.2-2.3-2.5-3.8-.8-1.2-1.4-2.4-1.8-3.7-2.4-.1-4.6-1.6-4.5-4.8.1-2-.6-2.7-2.8-3.7-2.7-1.2-5.8-1.6-8.7-1.5-1.9.1-4.2.3-6.4.9-.2 9-.6 18-1 27-.2 4.8-.6 10.2 1.2 14.7 1.6 4.2 4.7 5.1 9 4.7 6.9-.6 7.7 10.1.8 10.7-15.1 1.3-21.8-10.4-21.8-24 0-5.4.3-10.9.7-16.3-.3.2-.6.4-.9.6-3.7 13.4-21.2 14.8-33.1 14.3-7.2-.3-15.7-1.4-21.4-6.4-2.5-2.2-4.4-5.1-5.4-8.2-2 0-3.8-1.1-4.5-3.6-1.4-4.9-12.3-8.6-16.9-10.5-2.6-1-5.2-2-7.9-3 3.8 52.6 14 108.3 65 130.8 21 9.3 46.1 15.5 68.9 9.9 24.8-6.2 43.1-25.4 52.7-48.6 10.2-24.5 11.2-51 14.3-77 .8-6.5 1.5-13 2.2-19.5C360.8 225.9 354.3 227.5 348.7 230.9zM299.8 312.8c-10 19.7-32.3 9.9-49.3 10.8-6.9.4-7.7-10.3-.8-10.7 7.8-.4 15.5 1.4 23.2 1.9 6.7.4 13.9-.1 17.3-6.7C293.3 301.9 302.9 306.6 299.8 312.8z"/><path d="M344.4 189.2c-12.9-13.1-32.6-7.4-45.6 2.5-5.5 4.2.5 13.1 6 8.9 3.2-2.4 6.8-4.7 10.7-6.2-1.7 4.4-1 9.3 3.8 11.8 2.2 1.1 4.9 1.3 7.3 1.2.2 0 .4 0 .6-.1.4 0 .9 0 1.3 0 5.7-.5 8.1-5.6 8-10.8.3.2.6.5.8.8C342.2 202.2 349.2 194.1 344.4 189.2zM211.5 185c-10.7-1.1-26.8.8-27.4 14.5-.3 6.9 10.4 6 10.7-.8 0 0 .4-.6.5-.6 1.1-.9 2.3-1.3 3.6-1.7 1.3-.4 2.7-.7 4.1-.8-.1.4-.3.8-.3 1.3-.1.4-.1.9-.1 1.3-.9 1.2-1.3 2.8-.6 4.7.9 2.6 2.2 5.7 4.5 7.4 2.8 2.1 6 2.1 9 .4.2-.1.4-.2.5-.4 3.9-1.7 6.8-6.2 6.6-10.6.2.2.5.4.7.6.2.2.1.1-.1.7-1.7 6.7 8.8 8.7 10.5 2C237 190.8 220.4 186 211.5 185zM289.6 51.2c-.4-3-2.8-5.1-5.8-4.9-2.9.1-5.8.8-8.7 1.3-1.7.3-3.3.5-5 .7-1.4.1-2.8-.4-2.8 0-.9-2-.7-5.3-.9-7.2-.2-2.8-.2-5.6-.2-8.4 0-2.8-3-5.3-5.8-4.9-7 .8-14.6-.7-20.8 3.4-5.4 3.5-4.7 10.3-4.1 16.3-8 .4-15.9 1.7-23.9 1.8-3.1 0-4.9 3-4.9 5.8 0 7.7-.1 17.2 5.1 23.4 3 3.6 7 4.4 11.4 4.6 3.7.2 8.5-1.4 12 .2 1.9.9 1.2 7.6 1.3 9.4.3 4 2.2 8.2 5.9 10.2 7.7 4.1 16.7-.6 24.6-.9 3-.1 5-2.9 4.9-5.8-.1-5.7-1.7-11.4-1.3-17.1.1-1.1.7-1.8.3-1.7 1.1-.4 2.4-.4 3.5-.4 3.4-.1 6.8.4 10.1.5 3.1.1 4.9-3.1 4.9-5.8C289.7 64.9 290.4 58.1 289.6 51.2zM279 66.5c-6.7-.4-13.7-.6-17.6 5.8-3.2 5.2-1.6 13-.7 19.6-1.5.3-3.1.6-4.6.9-1.7.3-6.9 1.9-8.4.7-1.5-1.2-.8-6.7-.9-8.5-.3-3.9-1.8-7.6-4.9-10-6-4.8-13.5-1.9-20.4-2.7-3.7-.4-4.3-7.2-4.3-12.5 7.5-.5 15-1.6 22.5-1.7 1.7 0 2.9-.7 3.7-1.6 1.9-.8 3.3-2.5 3.2-5.1-.1-2.8-2.6-10.9.5-11.9 2.5-.8 5.4-.8 8.2-.7 0 6 .4 12.8 3.9 17.1 4.6 5.6 12.9 3.4 20 2.1C279.3 60.7 279.2 63.6 279 66.5z"/><path d="M443.3,425c-2.2-6.6-8.8-10.7-15-13c-13.8-5.2-30-5.4-44.6-6.4c-21.2-1.5-42.3-2.4-62.1-10.7c-4.2-6.1-6.5-13.4-5.8-20.9c0-0.3,0-0.6,0-0.9c22.1-10.5,37.7-31.7,46.1-54.2c7-18.9,9.4-38.8,11.4-58.7c0,0,0.1,0,0.1,0c7-0.1,14.2-2,18.6-7.9c4.8-6.4,4.7-14.6,5-22.3c0.3-7.2,1.8-17-4.1-22.5c-2.6-2.5-5.8-3.6-8.7-3.5c1.6-10.4,7-19.5,8-30c1-10.2-1.2-19.5-3.9-29.3c-4.9-17.9-13.1-35.1-29.5-45.1c-0.7-0.4-1.3-0.6-1.9-0.7c0.6-14.3,0.4-28.5,1.2-42.8c1-16.7,4.3-35.9-4.1-51.3c-0.8-1.5-3.2-2.7-4.9-2.4c-1.2,0.2-2.3,0.5-3.3,1c-7.5-3.1-15.5-3.4-23.5-3.2c-9.9,0.2-19.8,0.3-29.7,0.7c-19.8,0.7-39.5,2.5-59.2,3.8c-27.1,1.8-60.8,1.1-78.3,26c-0.8,1.2-1.1,2.4-1,3.6c-0.7,3.2-0.6,6.7-0.4,9.9c0.2,5.9,0.1,11.7-0.2,17.5c-0.5,10.8-0.8,21.6-1,32.4c-0.1,5.5,0.2,11,1.8,16.2c-17,3.1-23.9,24.7-26.6,39.6c-1.9,10.4-2,21.4-1.7,32c0.4,13.1,3.4,26.2,11.1,37c0.3,0.4,0.6,0.7,0.9,1c-4.1,5-5.8,12.5-6.6,18.4c-1.2,9,0.7,18.9,4.9,27c4.4,8.5,13.1,12.4,22.3,12.6c0.3,0,0.6,0,0.9-0.1c1.3,6.1,2.9,12.3,4.7,18.3c5.6,18.3,14.5,35.4,27.5,49.4c9.7,10.5,21.7,18,34.6,23.6c-1,1.2-1.4,2.9-1,4.7c1.8,7.2,3,15,1.8,22.2c-0.6,0.2-1.1,0.4-1.7,0.9c-14.1,10.4-34.1,12.3-51,13.9c-10.7,1-21.4,3.2-31.8,6c-9,2.4-18.1,2-26.6,6.5c-1.9,1-3,4.3-2.1,6.2c10.3,20.7,27.6,35.1,48,45.2c10.2,5,20.9,8.9,31.7,12.5c11.8,4,23.7,8.1,35.9,10.5c29.6,6,60.1,0.9,89.8-0.6c15.4-0.8,31-1.5,45.8-6.3c13.8-4.5,26.6-12.1,39-19.7c12.3-7.6,26.3-15.2,35-27C443.4,438.5,445.5,431.7,443.3,425z M384.2,216.7c0.1-1.5-0.1-3.4,1.3-1.5c1.2,1.5,1,4.2,1.1,6c0.2,4.7-0.3,9.6-0.4,14.3c-0.1,3.8-0.8,8-3.3,11c-2,2.3-5.4,2.7-8.4,2.9c0.3-2.8,0.6-5.7,0.9-8.5c0.8-6.7,1.6-13.5,2.3-20.3C380.6,221.6,383.9,220.6,384.2,216.7z M350.1,126.3c2.3-0.4,4.5-1.8,4.9-4.3c0.6-3.8,1-7.6,1.3-11.4c12.4,8.7,18,23.5,22,37.6c2.5,9,4.3,17.4,3.1,26.8c-1.2,9.4-6.2,17.7-7.6,27c-0.1,0.4-0.1,0.7-0.1,1h-0.2c-0.7-0.9-1.6-1.7-2.7-2.1c-0.2-0.2-0.6-0.7-1.2-1.6c-0.9-1.4-1.7-2.8-2.4-4.3c-1.6-3.3-2.4-6.3-2.8-9.8c-1.4-10.8,0.6-21.3-5.4-31.1c-1.8-2.9-6.3-3.1-8.5-0.5c-1,1.2-1.8,2.5-2.5,3.8c-8-5.8-12.8-17-14.4-26.1c-0.2-1.1-0.6-2-1.2-2.7C338.2,128,344.2,127.3,350.1,126.3z M163.2,94.2c0-9.3,0.3-18.8,0.8-28.1c0.3-6,0.6-11.9,0.6-17.9c0-3.8-1.4-9.4,0.4-12.8c0.1-0.1,0.1-0.3,0.2-0.4c16.2-19.6,45.8-18.4,69.1-19.9c18.5-1.1,37-2.9,55.5-3.7c9-0.4,17.9-0.3,26.9-0.6c8.5-0.3,17.4-1.2,25.4,2.4c1.2,1.5,3,2.3,4.9,1.7c1.6,5.3,1.7,11.2,1.7,16.6c0.1,8.4-0.8,16.7-1.3,25c-1.1,20-0.1,39.8-2.6,59.6c-23.3,3.3-47,3.3-70.5,4.3c-25.7,1.1-51.5,1.4-77.1-1.3c-6.2-0.7-12.3-1.5-18.4-2.6c-3.8-0.7-7.6-1.6-10.6-4.1C162.9,108.4,163.2,100.3,163.2,94.2z M142,244.8c-0.2-4.8,0.5-9.6,2.3-14.2c0.8-1.9,1.8-4,3.4-5.4c0.7-0.5,1-0.6,1.8-0.7c0.6,0,1.2,0.1,1.8,0.3c0.1,0,0.1,0,0.2,0.1c0.4,0.7,0.8,1.3,1.4,1.7c1,13.5,2.3,27,4.6,40.3C145.9,266.5,142.5,254.7,142,244.8z M158.4,173.2c-3.3-2-8.8-0.2-8.4,4.8c0.8,11.7,1.4,23.4,2.1,35.2c-1,0-1.9,0.3-2.6,0.8c-0.5,0-1,0.1-1.5,0.1c0-0.3,0-0.6,0.1-0.9c0.1-3.2-2.1-4.7-4.5-4.8c-8.8-15.7-8-36.6-5.7-53.8c1.6-11.3,6.1-33.9,20.8-34.3c0.6,0,1.2-0.1,1.7-0.3c5,4.6,12,6.3,18.7,7.5c-1.2,8.5-2.4,16.9-4.1,25.3c-1,5-2.2,10-3.9,14.8c-0.8,2.4-1.9,5.4-3.5,7.6c-1-0.4-2-1-2.8-1.7C162.6,171.7,160.2,172,158.4,173.2z M161.1,184c2.1,1.2,4.4,2,6.8,2.8c3.1,1.1,6-2.4,7.6-4.5c3.7-4.9,5.6-10.8,7.3-16.6c3.5-11.9,5.1-24.3,6.8-36.5c25.2,3.3,50.8,3.3,76.2,2.4c13.6-0.4,27.2-1.2,40.9-1.5c5.4-0.1,10.8-0.3,16.3-0.7c-0.3,0.8-0.4,1.7-0.2,2.7c2.6,14.3,10.8,32.2,25.4,37.6c1.9,0.7,3.6,0.6,4.9-0.2c1.1,8.2-0.4,17.4,2.3,25.2c1.5,4.5,5.7,14.5,11.4,16.4c-8,3.5-16.6,6.3-24,10.8c-5-12.9-25.1-16.4-36.8-13c-6,1.7-12.7,6.9-16.5,12.3c-5.4-5.2-15.6-6.8-24.5-4.9c0.1-4.6,0.1-9.1,0.1-13.7c0-6.9-10.7-6.1-10.7,0.8c0,5.8,0,11.5-0.1,17.3c-1.9,1.4-3.5,3-4.7,4.9c-5.6-4.7-14.2-6.9-21.5-8.2c-13.3-2.3-29.8-1.7-35,12.5c-4.1-3.4-9.5-5.8-13.7-7.7c-5.4-2.4-11-4.5-16.6-6.3C162.2,204.9,161.7,194.1,161.1,184z M333.3,228.5c-0.6,6.9-9,9.9-14.8,10.4c-6.2,0.6-13.4-0.2-19.2-3c-3.3-4.2-2.7-6.8,0.9-10.6c3.7-3.9,8.4-6.6,13.8-7.1C319.4,217.8,334,220.8,333.3,228.5z M244.7,236.7c-1,0.7-1.7,1.8-1.9,3.4c-1.2,9.1-14.9,8.5-21.7,8.3c-4.5-0.1-9.3-0.6-13.4-2.5c-4.9-2.2-5.5-6.7-4.7-11.6c1.7-9.9,16.4-7.5,23.2-6.4C231.4,228.8,243.4,230.2,244.7,236.7z M163.6,227.5c2.6,0.9,5.3,1.9,7.9,3c4.6,1.9,15.5,5.6,16.9,10.5c0.7,2.5,2.6,3.6,4.5,3.6c1.1,3.1,2.9,6,5.4,8.2c5.7,5,14.2,6,21.4,6.4c11.9,0.5,29.4-0.9,33.1-14.3c0.3-0.2,0.6-0.4,0.9-0.6c-0.3,5.4-0.7,10.9-0.7,16.3c0.1,13.6,6.8,25.3,21.8,24c6.9-0.6,6.1-11.3-0.8-10.7c-4.3,0.4-7.4-0.5-9-4.7c-1.7-4.5-1.4-9.9-1.2-14.7c0.4-9,0.7-18,1-27c2.2-0.6,4.6-0.8,6.4-0.9c2.9-0.1,6,0.3,8.7,1.5c2.2,1,2.9,1.7,2.8,3.7c-0.1,3.1,2.1,4.7,4.5,4.8c0.5,1.3,1.1,2.5,1.8,3.7c0.2,1.4,1,2.8,2.5,3.8c9.4,6.2,24.8,7.7,35.4,4.2c7.9-2.7,15.2-9,16.7-16.9c1.5,0.7,3.3,0.8,5-0.3c5.6-3.4,12.1-5,17.9-7.9c-0.7,6.5-1.5,13-2.2,19.5c-3,26-4.1,52.5-14.3,77c-9.6,23.2-27.9,42.4-52.7,48.6c-22.8,5.7-47.9-0.6-68.9-9.9C177.6,335.8,167.3,280.1,163.6,227.5z M305.4,380.9c-0.4,0.1-0.9,0.3-1.2,0.4c-2.3,0.4-4.5,0.8-6.8,1.2c-4.3,0.8-8.8,1.4-13,2.9c-1.4-0.2-2.9,0-4.2,0.6c-10.5,5.3-26.7,1.9-36.6-3.3c-2.2-1.1-4.2-0.7-5.6,0.5c-0.4-3.5-1.1-7-1.9-10.5c3.2,1.1,6.5,2.2,9.8,3.2c19.1,5.6,40,7,59.1,1.2C305.2,378.4,305.3,379.7,305.4,380.9z M288.7,488.3c-4,0.3-7.9,0.6-11.9,0.8h-28.7c-4.9-0.3-9.7-0.9-14.6-1.7c-14.9-2.6-29.8-8-44-13.1c-24.4-8.7-49.3-21.2-62.8-44.1c6.8-2.1,14.7-2.1,21.5-3.9c10.9-2.9,21.9-4.2,33.1-5.6c17-2.1,36.1-4.6,50.3-15.1c1-0.7,1.6-1.6,1.9-2.5h3.2c1.2-3.6,1.7-7.3,1.8-11c0.1,0.1,0.2,0.2,0.4,0.2c11.3,5.9,26.4,8.7,39.3,5.5c0,0.1,0,0.1,0,0.2c0.1,0.3,0.1,0.7,0.2,1c0.1,1.3,0.2,2.7,0.3,4h0.5c2.8,14.7,3.6,29.7,4.4,44.6c0.7,13.1,6.1,26.3,5.1,39.4C288.7,487.6,288.7,488,288.7,488.3z M432.1,435.4c-4.2,8.2-13.8,13.8-21.2,18.7c-10.1,6.6-20.4,13.1-31.1,18.7c-14,7.4-28.5,11.2-44.3,12.5c-12,1-24.1,1.6-36.2,2.3c0.6-13.1-3.7-26-4.9-38.9c-1.6-16.9-2-33.6-5.3-50.2c-0.1-1.1-0.2-2.1-0.2-3.2c3.7-1.2,7.6-1.7,11.4-2.4c2.4-0.4,5.2-0.6,7.7-1.3c1.3,3.3,3,6.5,5.1,9.4c0.3,1.3,1.2,2.4,2.8,3.2c25.5,11.1,53,10.8,80.2,13.2C405.1,418.1,440.4,419,432.1,435.4z"/><path d="M290.1 308c-3.4 6.6-10.6 7.2-17.3 6.7-7.7-.5-15.4-2.3-23.2-1.9-6.9.4-6.1 11.1.8 10.7 17-.9 39.3 8.9 49.3-10.8C302.9 306.6 293.3 301.9 290.1 308zM266.3 411.9c-1.1-1-2.5-1.3-4-1.3h-1c-1.3 0-2.8.8-3.6 1.8-1 1.1-1.4 2.5-1.3 4 .1 1.4.8 2.7 1.8 3.6 1.1 1 2.5 1.3 4 1.3h1c1.3 0 2.8-.8 3.6-1.8 1-1.1 1.4-2.5 1.3-4C268 414.1 267.3 412.8 266.3 411.9zM259.3 441.9v.7c0 6.9 10.7 6.1 10.7-.8v-.7C270 434.2 259.3 435 259.3 441.9zM270.2 461.7c-1.1-1-2.5-1.4-4-1.3-1.4.1-2.7.8-3.6 1.8-1 1.1-1.3 2.5-1.3 4v2c0 1.3.8 2.8 1.8 3.6 1.1 1 2.5 1.4 4 1.3 1.4-.1 2.7-.8 3.6-1.8 1-1.1 1.3-2.5 1.3-4v-2C272 463.9 271.2 462.5 270.2 461.7z"/></svg>