<svg xmlns="http://www.w3.org/2000/svg"  viewBox="0 0 512 512" width="64px" height="64px"><path fill="#FEBF10" d="M198.2 368.8c-2.4-21.6-6.2-43-10.2-64.3-2.1-11.1-4.3-22.2-6.7-33.3-1.1-5.4-1.9-10.9-2.7-16.4-1.8-.6-3.5-1.7-5-3.2-3.3-3.2-4.4-10.6-9.7-10.1-1 .1-1.8-.1-2.5-.4 0 .1-.1.1-.1.2-.8.9-2.1 1.7-3.4 1.7-.5 0-1.1 0-1.7-.1 1.6 9 2.2 18.2 2.8 27.1 1.5 22.5 5.4 44.2 9.2 66.4 4 23.6 7.8 48.4 3 72.2 0 .2-.1.4-.1.7 1-.8 2.3-1.2 4-.6 9.5 3.1 18.9 5.1 28.4 6.4C202.8 399.7 200 384.1 198.2 368.8zM238 313.9c-.4-18.7-2.2-37.3-4.5-55.9-8.3-.3-15.2-3.3-22.7-6.8-3.4-1.6-6.9-3.8-10.8-3-3.7.8-5.9 2.5-9 4.6-.8.6-1.6 1-2.4 1.4 1 6.5 2 13 3.4 19.4 2.3 10.6 4.3 21.2 6.3 31.9 4 21.3 7.8 42.7 10.1 64.3 1.6 15.4 4.6 30.9 5 46.3 8.7.8 17.5 1.2 26.5 1.4.4 0 .7 0 1.1 0C241 383.1 238.7 348.5 238 313.9z"/><path fill="#FEBF10" d="M385.2,414.4c-1-1.1-1.4-2.4-1.4-3.6c-4.9-0.4-9.7-1.3-14.3-2.8c-2.5-0.8-4.7-3-4-5.9c0.3-1.2,0.6-2.3,1.4-3.2c0.1-0.2,0.3-0.3,0.3-0.4c0.6-1.6,1.9-2.6,3.3-2.9c-4.7-10.5-8.7-23.7-3-32.6c-2.1-1.4-3.8-3.3-5.2-5.6c-6.2-10.5-1.3-20.7-1.4-31.8c-0.1-15.8-1.7-31.8-2.7-47.6c-0.8-12.3-1.4-24.7-1.7-37c-1.3,1-3,1.3-4.9,0.2c-2.7-1.5-4.9-3.4-7.2-5.4c-0.6-0.5-1.2-1.1-2-1.4c0.1,0.1-0.3,0.2-0.8,0.5c-0.1,0-0.1,0.1-0.2,0.1c-0.7,1-1.8,1.8-3,2.1c-0.2,0.2-0.4,0.3-0.7,0.5c0.3,0.9,0.4,1.9,0.1,3c-0.7,2.9-3.2,4.7-5.7,6c-2.2,1.1-4.6,2.4-7.2,3.5c6.9,51.6,15.4,103,15.8,155.2c0,0.2,0,0.4,0,0.6v1.9c2.6-0.5,5.1-1.3,7.2-2.7c5.4-3.6,11,4.7,5.6,8.3c-4.1,2.8-9.3,3.5-14.1,4.3c-2.2,0.4-9.9,0.6-11.2,2.8c-3.3,5.5-12.3,1.1-9-4.4c2.7-4.5,6.9-6,11.5-6.8c-0.1-52.8-8.6-104.9-15.6-157.1c-1.2-0.3-2.1-1-2.7-1.9c-1.3,0.6-2.9,0.7-4.4,0c-0.4-0.2-0.9-0.4-1.4-0.6c-0.1,0-0.2-0.1-0.5-0.1c-0.6-0.2-1.3-0.3-1.9-0.5c-1.8-0.6-3.4-1.2-4.9-2.5c-0.1-0.1-0.2-0.2-0.3-0.3c-0.5-0.1-1.1-0.2-1.6-0.4c-1.5-0.7-3.2-1.1-4.9-1l0,0c0.2,1.1,0.1,2.3-0.4,3.2c-2.9,5.1-8.9,9.8-15.5,12.1c1.9,14.1,3.8,28.2,5.3,42.3c3.6,34.7,4.7,70.1,4.7,105c0,6.4-10,7.2-10,0.8c0-35.5-1.1-71.6-4.9-106.9c-1.4-13.2-3.2-26.4-5-39.6c-2.2-0.2-4.3-0.8-6.2-1.8c-4.5-2.4-8.3-5.9-12.9-8.2c-2.3-1.1-4-1.5-5.3-1.2c0.4,3.3,0.8,6.6,1.2,9.9c2.1,18.2,4,36.5,4.2,54.9c0.3,34.2,3,68.4,3,102.7c0,0.1,0,0.2,0,0.3c4.3,0.2,8.6,0.3,12.9,0.1c6.4-0.2,14.5-0.1,19.8-4.2c5.1-3.9,10.7,4.4,5.6,8.3c-6,4.7-14.7,5.5-22,5.8c-8.6,0.3-17.1-0.2-25.7-0.4c-23.6-0.5-46-1.7-68.6-9.1c-1.8-0.6-2.9-1.9-3.4-3.4c-2.4,9.7-5.2,19.7-3.5,29.6c2,11.4,9.5,20.8,19.8,25.9c10.8,5.4,22.6,6.9,34.6,6.9c16.1,0,32.2,0.4,48.3,0.4c23.2,0,47.3,0.4,69.9-5.6c16-4.3,33-10.4,45.6-21.5c4.7-4.2,9.1-9.7,9.8-16.2C394.9,427,390.2,419.8,385.2,414.4z"/><path fill="#D6E5E5" d="M327.2,107.9c-6.2,1.6-9.5-7.8-3.3-9.4c3.9-1,6.3-3.7,6.9-7.8c0.4-2.5,0.6-6.2-1.5-8.1c-4.1-3.8-10.6-3.1-15.6-1.7c-3.2,0.8-6.3-1-6.6-4.3c-0.7-6.5,0.2-15.7-4.2-21.2c-6.1-7.7-17.3-3.5-24.8-0.9c-4.3,1.5-8.8,2.8-13.1,4.1c-2.1,0.7-4.5,1.5-6.8,0.8c-2.5-0.7-3.8-2.4-5.1-4.5c-1.9-3-4.5-5.3-7.1-7.7c-5.9-5.3-12.6-10.3-20.5-12.1c-8.2-1.9-17-1.7-25.2,0.4c-13.3,3.4-29.5,10.6-28.7,26.7c0.2,3.8-3.7,6.6-7.2,4.9c-19-9.2-43.6-0.2-58.7,12.7c-6.9,5.9-13.4,14-14.3,23.4c-0.9,10.1,6.3,17.7,14,23.1c2.6,1.8,2.1,6.4-0.5,7.9C97,138.8,89.1,146,90.2,156c1.1,9.6,7.9,17.1,15.1,22.9c1.7,1.4,2.1,4,1.2,6c-4.7,9.6-9.7,25.8,2.2,32.3c1.7,0.9,2.5,2.4,2.6,3.9c22.3-2,23.8-30,15.9-47.2c-1-2.3,0.6-5.8,3.1-6.4c12.3-2.7,37.2-22.6,23.9-35.2c-0.5-0.4-1.1-0.9-1.6-1.3c-4.7-4.5,1.5-11.4,6.6-7.5c0.4,0.3,0.8,0.6,1.1,0.9c3.9,2.7,12.4,5.7,15.2,1.7c-0.2-0.6-0.3-1.2-0.3-1.8c-2.2-0.6-4-2.6-3.3-5.5c1.8-6.8,7.5-12.8,14.4-14.3c3.4-2.6,7.9-3.1,11.8,0.3c2,1.7,3.5,3.8,4.6,6.1c1.5,2.7,2.1,6.1,1.4,9.9c-1.1,6.4-10.7,4.4-9.8-1.9c0.2-1.2-0.1-2.4-0.5-3.5c-0.6-0.8-1.7-1.2-2.9-1.2c-1.2,1.3-2.9,1.6-4.4,1.4c-1.3,0.7-2.4,1.6-3.3,2.6c1.7,0.4,3.1,1.7,3.1,4c11.1,5.1,24.8,4.9,36.7,4.8c17.4-0.1,34.7,1.7,52.1,0.5c12-0.8,24.4-1.7,35.9-5.6c8.5-2.8,17.2-7.2,20.4-15.7C330.3,106.8,328.8,107.4,327.2,107.9z M188.4,91.8c-0.7,4.5-3.4,8.6-7.7,10.4c-5.6,2.3-11.6-0.7-16.1-4c-1.8-1.3-2.1-4-1.1-6c-0.9-1.8-0.5-3.9,0.7-5.6c2.2-3,4.7-6,7.9-8c2.5-1.5,5-2.3,7.9-2c2.5,0.2,4.5,1.8,6.1,3.7C188.5,83.3,189,88,188.4,91.8z M236.2,85.4c-2.4,16.3-31.7,25.6-34.4,4.8c-0.2-1.9,0.4-3.2,1.5-4.1c0.7-8.4,7.7-15.6,16.1-16.8C228.8,68,237.6,75.8,236.2,85.4z M267.5,122.4c-7.3,2.6-14.9-0.3-18.3-7.1c-1.4-0.6-2.4-1.9-2.3-4c0.2-7.1,3.5-15.5,11.3-17.2c7-1.5,14,1.2,16.9,8.1C278.3,109.7,275.7,119.4,267.5,122.4z M302.1,88.5c-0.8,2.8-2.5,4.8-5.2,6c-2.3,1-5.1,0.8-7.4,0.4c-3.4-0.7-6.7-2-9.8-3.5c-2.5-1.2-3.4-4.3-2.3-6.7c0,0,0,0,0,0c-0.5-1-0.7-2.1-0.4-3.2c0.9-3.5,2.3-6.4,5.1-8.8c2-1.7,4.6-2.1,7.1-1.9c2.2,0.2,4.2,1.3,5.9,2.6c3,2.1,5.5,5.6,6.6,9.1C302.2,84.3,302.6,86.6,302.1,88.5z"/><path fill="#D6E5E5" d="M259.4 196.1c-1.1.1-2.2.2-3.3.3-10.6.9-21.2.5-31.8.3-13.4-.3-26.9 1.4-40.4 1.4-7.5 0-14.9-.5-22.3-1.8-6.7-1.1-13.3-2.4-20.1-2.7 0 4.4-.6 8.8-1.6 13 .8.3 1.6.8 2.3 1.7 5.8 7.4 9.5 15.8 11.9 24.7 0 0 0 0 .1 0 .6-.3 1.2-.6 1.8-.9.9-.3 1.8-.5 2.7-.5.9 0 1.8.1 2.6.5.5-.3 1.2-.5 1.9-.5 5.1-.5 8.9 1.3 11.8 4.6-1-4.3-2.1-8.5-3.2-12.8-1-3.8-2.4-8-2.7-11.9-.5-6.4 9.5-7.2 10-.8.3 3.2 2.1 8.8 3.1 12.8 1.5 6 3.1 12 4.3 18 .2.8.3 1.6.5 2.3 1.1-.9 2.2-2 3.2-2.6 14.8-9 26.7 4.8 40.9 6.6.3-.5.6-1 1-1.5-.8-5.4-1.8-10.7-3.2-16-1.9-7.7-3.5-15.2-2.7-23.2.6-6.4 10.4-4.5 9.8 1.9-.6 6.3.8 12.4 2.4 18.4.4-1.8 1.8-3.3 4.3-3.3 6.4 0 7.2 10 .8 10-1.7 0-3-.7-3.8-1.7.1.4.2.8.3 1.3.5 2.1.9 4.2 1.3 6.3.3 0 .6-.1.9-.1 5.1-.2 9.7 1.9 13.8 4.6 2.5 1.6 6.5 5.4 9.8 6.5C263.2 232.8 260.8 214.5 259.4 196.1zM213.4 88c.1 1.4-.3 2.5-.9 3.3 2.7 4.1 12.8-2.3 13.7-6.3C228.3 75.8 212.7 79.1 213.4 88zM178.5 87.5C178.5 87.5 178.5 87.5 178.5 87.5c-.1-.3-.2-.6-.3-.9 0 0 0 0 0 0-.1 0-.2.1-.3.1-.4.2-.8.5-1.2.8-.2.2-.4.3-.6.5-.5.4-.9.9-1.3 1.3-.7.8-1.3 1.5-2 2.3.1.1.2.1.3.2.6.3 1.1.6 1.7.8.5.1 1 .2 1.5.3.2 0 .3 0 .5 0 .1 0 .2-.1.2-.1.1-.1.3-.2.4-.3.1-.1.1-.1.2-.2 0-.1.1-.1.1-.2.2-.3.3-.7.5-1 .2-.6.3-1.3.4-2C178.6 88.7 178.6 88.1 178.5 87.5zM291.7 84.5c-.3-.5-.5-.9-.8-1.3-.2-.3-.4-.5-.6-.7 0 0 0 0 0 0-.3-.4-.7-.7-1.1-1.1-.1-.1-.3-.2-.5-.4-.2-.1-.5-.3-.7-.4-.1.1-.1.1-.2.2 0 0 0 0 0 0-.3.6-.6 1.2-.9 1.9-.1.2-.1.4-.2.6 0 .1-.1.2-.1.2.7.3 1.5.6 2.3.9 1 .3 2 .6 3 .7C291.9 84.9 291.8 84.7 291.7 84.5z"/><path fill="#D6E5E5" d="M439 313.1c0-15.8 0-31.6-.8-47.3-.7-13.7-1.8-27.4-4.4-40.8-2.2-11.4-5.3-23.4-11.8-33.1-7-10.6-16.9-16.6-29.6-17.8-12.2-1.2-24.5 1-36.4 3.8-.8.5-1.6 1-2.3 1.4-5.5 3.1-11-4.8-5.9-8.1.5-1 1.4-1.9 3-2.3.2-.1.4-.1.6-.1.7-.6 1.4-1.2 2.1-1.8.1-14.1.6-28 0-42.2-.2-5.2-1.1-10.8-3.8-15.3-1.4-2.3-2.9-4.4-5-6 .4.3-.3.1-.8-.1-.4.2-.9.3-1.4.4 0 .1 0 .2 0 .3-4.3 27.4-40.4 31.2-62.5 32.9-19.2 1.4-38.2-.2-57.4-.2-12.7 0-27.1 0-39.1-5.1-3.4 4.6-9.3 6.4-15.4 6 1.6 15-14.8 31.9-29.4 37.8.9 2.7 1.6 5.5 2.1 8.4 13.7.5 26.9 4.5 40.7 4.5 7.8 0 15.6 0 23.4-.4 5.6-.3 11.2-1.1 16.8-1 10 .2 20 .7 30 0 7.2-.5 18.1-.6 23.8-5.9 4.7-4.4 12.2 2.2 7.5 6.6-3.8 3.5-8.5 5.7-13.5 7 1.4 18.5 3.8 36.9 6.4 55.2 2.6-1.1 5.1-2.6 6.8-4.6-.9-3.8.5-7.6 4.8-9.3 4.8-1.9 10.4-1.1 15 .9.6.3 1.2.7 1.6 1.1.9.1 1.8.5 2.5 1.2 0 0 0 0 0 0 .1 0 .2.1.3.1.3.1 1.1.3 1.2.4 1.7.5 3.3 1 4.9 1.7.5.2 1 .6 1.3 1-2-15.4-3.8-30.7-5.2-46.2-.7.4-1.5.6-2.5.6-6.4 0-7.2-10-.8-10 1.8 0 3.1.7 4 1.8 2.5-2.9 8.5-2.2 8.9 2.8.4 4.4.8 8.9 1.2 13.3 1.8 1.8 2.1 5 .7 6.9 1 9.4 2.1 18.7 3.4 28.1.1 0 .1-.1.2-.1 1.2-.5 1.9-.8 2.7-1.2 0-.1 0-.2 0-.4-.4-1.6-.2-3.4 1-4.6 2-2 4.4-4.6 7.2-5.7.3-.4.7-.8 1.2-1.1 3.6-2.5 7.8-3 11.7-.7 3 1.8 5.2 4.7 8.3 6.4.1.1.2.1.3.2 0-.9 0-1.9 0-2.8 0-3.8 3.5-5.6 6.4-5.1 0-1.4.6-2.8 1.8-3.9 21.4-18.6 38.1 19.9 42.6 35.4 7 23.6 9.6 48.5.6 71.8-2.9 7.4-6.6 14.6-11 21.2-3.7 5.5-8.4 11.9-14.6 14.9-.5 1.2-1.5 2.3-2.9 3-10.2 4.6 1.8 25.8 4.9 32 .4.7.5 1.4.6 2.1 5.5.4 11.1.1 16.6-1.1 10.3-2.1 20.9-6.9 27.8-15.1 7.8-9.3 9.6-21.9 10.1-33.7C439.8 338.3 439 325.7 439 313.1zM297.6 228.2c-.8.9-2.1 1.7-3.4 1.7h-1.5c-1.4 0-2.6-.3-3.7-1.2-1-.9-1.6-2.1-1.7-3.4-.1-1.3.3-2.7 1.2-3.7.8-.9 2.1-1.7 3.4-1.7h1.5c1.4 0 2.6.3 3.7 1.2 1 .9 1.6 2.1 1.7 3.4C299 225.8 298.5 227.2 297.6 228.2zM294.3 179.4c-6.9.3-13.1-3.3-15.6-9.9 0-.1 0-.1-.1-.2-2.5-.9-4.4-3.6-2.7-6.7 3.6-6.5 10.7-10 18-9.2 6.4.6 12.8 5.6 12.4 12.6C306.1 172.9 301.7 179.1 294.3 179.4zM328.9 170.5c0 1.4-.3 2.6-1.2 3.7-.9 1-2.1 1.6-3.4 1.7-1.3.1-2.7-.3-3.7-1.2-.9-.8-1.7-2.1-1.7-3.4v-1.5c0-1.4.3-2.6 1.2-3.7.9-1 2.1-1.6 3.4-1.7 1.3-.1 2.7.3 3.7 1.2.9.8 1.7 2.1 1.7 3.4V170.5zM265.2 104.9c-1.2-1.5-3-1.8-4.8-1-1.9.8-3 2.9-3.4 5.1.4.5.8 1 1.1 1.7 1.1 2.8 4.5 3.6 6.9 1.8C267.2 110.8 266.8 106.9 265.2 104.9z"/><path fill="#D6E5E5" d="M296.3,165.6c-1.3-3.5-6-2.7-9-0.8c0.3,0.4,0.6,0.9,0.8,1.4C289.6,170.1,298.1,170.7,296.3,165.6z"/><path fill="#010101" d="M449.4,331.4c-0.7-29.4,0.3-59-2.7-88.3c-2.3-22.6-6.9-47.7-22.7-65.1c-15.2-16.6-39.2-15.9-60.3-11.9c0-0.4,0-0.8,0-1.2c0-3.2,0.2-6.3,0.3-9.5c0.4-10.9,0.1-21.6-0.4-32.5c-0.3-7.9-2.9-16-7.7-22.3c-3-4-9.5-9.1-15.1-7.5c1-4.5,0.6-9.3-1.4-13.4c-4.3-8.7-13.8-10.4-22.6-9.4c-0.6-6.4-1.2-12.8-4.2-18.7c-4.4-8.7-15.6-11.5-24.5-10.2c-9.1,1.3-17.6,6.3-26.5,8.1c-0.9-1.3-1.8-2.6-2.8-3.8c-3.3-3.8-7.2-7.2-11.2-10.3c-15.6-12.3-35-13.7-53.7-8.3c-14.7,4.2-28.6,13.6-31.5,28.5c-22.2-6.8-47.8,3.4-64.5,18.2c-8.6,7.6-15.5,18.1-16.2,29.8c-0.6,10.5,4.8,19.5,12.2,26.3c-7.8,6.1-13.1,14.3-13.4,24.7c-0.4,11.6,7.4,22,15.8,29.5c-6,14.3-7.6,32.5,7.3,41.5c0,2.6,1.8,5.5,5.2,5.6c13.2,0.5,22.2-5.6,27.4-14.5c13.4,19.4,12.4,45.3,14.2,67.9c2,26.3,8.9,52,11.9,78.1c1.6,13.6,2.2,27.5,0,41.1c-2.2,13.5-7.1,26.3-5.9,40.2c2.3,26.3,27,40.2,50.8,43.1c14.3,1.7,29.1,0.8,43.4,0.9c16.2,0.2,32.4,0.2,48.6-0.4c19.4-0.8,37.6-3.2,56-9.6c15.3-5.3,31.9-12.9,42.3-25.9c10.5-13.1,8-28.8-1.9-41.2c12.8-1.1,25.3-5.7,35.2-13.5C450.2,381.5,449.9,354.5,449.4,331.4z M127.3,173.8c7.8,17.2,6.3,45.2-15.9,47.2c-0.1-1.5-0.9-3-2.6-3.9c-11.9-6.4-6.9-22.7-2.2-32.3c1-1.9,0.6-4.6-1.2-6c-7.2-5.8-14.1-13.3-15.1-22.9c-1.1-10,6.8-17.1,14.6-21.7c2.6-1.5,3.1-6.1,0.5-7.9c-7.7-5.4-14.9-13-14-23.1c0.8-9.4,7.4-17.5,14.3-23.4c15.1-12.9,39.7-21.9,58.7-12.7c3.5,1.7,7.4-1.1,7.2-4.9c-0.8-16.1,15.5-23.3,28.7-26.7c8.1-2.1,17-2.3,25.2-0.4c7.9,1.8,14.6,6.8,20.5,12.1c2.6,2.3,5.2,4.7,7.1,7.7c1.3,2.1,2.6,3.8,5.1,4.5c2.2,0.6,4.6-0.2,6.8-0.8c4.4-1.3,8.8-2.6,13.1-4.1c7.5-2.6,18.7-6.8,24.8,0.9c4.3,5.4,3.5,14.7,4.2,21.2c0.4,3.4,3.5,5.2,6.6,4.3c5-1.3,11.5-2.1,15.6,1.7c2.1,1.9,1.9,5.6,1.5,8.1c-0.6,4-3,6.7-6.9,7.8c-6.2,1.6-2.9,11,3.3,9.4c1.6-0.4,3.1-1.1,4.4-1.9c-3.2,8.5-11.9,12.9-20.4,15.7c-11.5,3.8-23.9,4.7-35.9,5.6c-17.4,1.2-34.7-0.6-52.1-0.5c-11.9,0.1-25.5,0.3-36.7-4.8c0-2.3-1.4-3.6-3.1-4c0.9-1,2.1-1.9,3.3-2.6c1.5,0.3,3.2-0.1,4.4-1.4c1.2,0,2.3,0.3,2.9,1.2c0.5,1.1,0.7,2.4,0.5,3.5c-0.9,6.3,8.7,8.3,9.8,1.9c0.6-3.9,0.1-7.2-1.4-9.9c-1.1-2.3-2.6-4.4-4.6-6.1c-4-3.4-8.4-2.9-11.8-0.3c-7,1.5-12.7,7.5-14.4,14.3c-0.8,2.9,1,4.9,3.3,5.5c0,0.6,0.1,1.2,0.3,1.8c-2.8,3.9-11.3,1-15.2-1.7c-0.4-0.3-0.7-0.6-1.1-0.9c-5.1-3.9-11.3,3.1-6.6,7.5c0.5,0.5,1,0.9,1.6,1.3c13.3,12.6-11.6,32.5-23.9,35.2C127.9,168,126.3,171.5,127.3,173.8z M154.1,233C154.1,233,154.1,233.1,154.1,233c-2.5-8.9-6.1-17.3-12-24.7c-0.7-0.9-1.5-1.4-2.3-1.7c1.1-4.1,1.6-8.5,1.6-13c6.8,0.3,13.4,1.6,20.1,2.7c7.4,1.2,14.8,1.8,22.3,1.8c13.5,0,27-1.7,40.4-1.4c10.6,0.3,21.2,0.6,31.8-0.3c1.1-0.1,2.2-0.2,3.3-0.3c1.5,18.4,3.8,36.7,6.3,54.9c-3.2-1.1-7.3-4.9-9.8-6.5c-4.2-2.7-8.8-4.8-13.8-4.6c-0.3,0-0.6,0-0.9,0.1c-0.4-2.1-0.8-4.2-1.3-6.3c-0.1-0.4-0.2-0.8-0.3-1.3c0.9,1,2.2,1.7,3.8,1.7c6.4,0,5.6-10-0.8-10c-2.5,0-3.9,1.5-4.3,3.3c-1.5-6-3-12.2-2.4-18.4c0.6-6.4-9.2-8.3-9.8-1.9c-0.8,8,0.7,15.5,2.7,23.2c1.3,5.3,2.3,10.6,3.2,16c-0.3,0.5-0.7,1-1,1.5c-14.2-1.8-26.2-15.6-40.9-6.6c-1,0.6-2.1,1.6-3.2,2.6c-0.2-0.8-0.3-1.6-0.5-2.3c-1.2-6-2.8-12-4.3-18c-1-4-2.8-9.6-3.1-12.8c-0.5-6.4-10.5-5.7-10,0.8c0.3,4,1.8,8.1,2.7,11.9c1.1,4.3,2.1,8.5,3.2,12.8c-2.9-3.3-6.7-5.1-11.8-4.6c-0.7,0.1-1.3,0.3-1.9,0.5c-0.8-0.4-1.7-0.6-2.6-0.5c-0.9,0-1.8,0.3-2.7,0.5C155.3,232.4,154.7,232.7,154.1,233z M241,417.7c-0.4,0-0.7,0-1.1,0c-9-0.2-17.8-0.6-26.5-1.4c-0.5-15.5-3.4-31-5-46.3c-2.3-21.6-6-43-10.1-64.3c-2-10.7-4-21.3-6.3-31.9c-1.4-6.4-2.4-12.9-3.4-19.4c0.8-0.4,1.7-0.9,2.4-1.4c3-2.1,5.2-3.9,9-4.6c3.9-0.8,7.4,1.4,10.8,3c7.5,3.5,14.4,6.4,22.7,6.8c2.2,18.6,4.1,37.2,4.5,55.9C238.7,348.5,241,383.1,241,417.7z M159,270.1c-0.6-8.9-1.2-18.1-2.8-27.1c0.6,0.1,1.1,0.1,1.7,0.1c1.2,0,2.6-0.8,3.4-1.7c0.1-0.1,0.1-0.1,0.1-0.2c0.7,0.3,1.5,0.5,2.5,0.4c5.3-0.5,6.5,7,9.7,10.1c1.5,1.5,3.2,2.5,5,3.2c0.8,5.5,1.6,11,2.7,16.4c2.3,11.1,4.6,22.1,6.7,33.3c4,21.3,7.8,42.7,10.2,64.3c1.7,15.3,4.5,30.9,5.2,46.3c-9.5-1.3-18.9-3.3-28.4-6.4c-1.7-0.6-3-0.2-4,0.6c0-0.2,0.1-0.4,0.1-0.7c4.9-23.7,1.1-48.6-3-72.2C164.4,314.3,160.5,292.6,159,270.1z M394.1,434.7c-0.7,6.5-5,12-9.8,16.2c-12.6,11.1-29.6,17.1-45.6,21.5c-22.6,6.1-46.7,5.6-69.9,5.6c-16.1,0-32.2-0.3-48.3-0.4c-11.9,0-23.8-1.5-34.6-6.9c-10.3-5.1-17.8-14.5-19.8-25.9c-1.7-9.9,1.1-19.9,3.5-29.6c0.5,1.5,1.6,2.8,3.4,3.4c22.6,7.4,45,8.6,68.6,9.1c8.6,0.2,17.1,0.8,25.7,0.4c7.4-0.3,16-1.1,22-5.8c5.1-3.9-0.5-12.2-5.6-8.3c-5.3,4.1-13.4,4-19.8,4.2c-4.3,0.1-8.6,0-12.9-0.1c0-0.1,0-0.2,0-0.3c0-34.3-2.7-68.5-3-102.7c-0.2-18.3-2-36.7-4.2-54.9c-0.4-3.3-0.8-6.6-1.2-9.9c1.4-0.4,3.1,0,5.3,1.2c4.6,2.3,8.4,5.8,12.9,8.2c1.9,1,4,1.6,6.2,1.8c1.8,13.2,3.6,26.4,5,39.6c3.8,35.3,4.9,71.4,4.9,106.9c0,6.4,10,5.6,10-0.8c0-34.9-1.1-70.2-4.7-105c-1.4-14.1-3.3-28.2-5.3-42.3c6.6-2.3,12.6-7,15.5-12.1c0.6-1,0.6-2.1,0.4-3.2l0,0c1.7-0.1,3.4,0.3,4.9,1c0.6,0.2,1.1,0.4,1.6,0.4c0.1,0.1,0.2,0.2,0.3,0.3c1.5,1.3,3,1.9,4.9,2.5c0.6,0.2,1.3,0.4,1.9,0.5c0.3,0.1,0.4,0.1,0.5,0.1c0.5,0.2,0.9,0.4,1.4,0.6c1.4,0.7,3,0.6,4.4,0c0.6,0.9,1.5,1.6,2.7,1.9c7,52.2,15.6,104.3,15.6,157.1c-4.6,0.8-8.8,2.3-11.5,6.8c-3.4,5.5,5.6,9.9,9,4.4c1.3-2.2,9-2.4,11.2-2.8c4.8-0.8,10-1.5,14.1-4.3c5.4-3.6-0.2-11.9-5.6-8.3c-2.1,1.4-4.6,2.2-7.2,2.7v-1.9c0-0.2,0-0.4,0-0.6c-0.4-52.1-8.9-103.6-15.8-155.2c2.6-1.1,5-2.3,7.2-3.5c2.5-1.3,5-3.2,5.7-6c0.3-1.1,0.2-2.1-0.1-3c0.2-0.2,0.4-0.3,0.7-0.5c1.3-0.3,2.3-1.1,3-2.1c0.1,0,0.1-0.1,0.2-0.1c0.5-0.4,0.9-0.4,0.8-0.5c0.7,0.3,1.3,0.9,2,1.4c2.3,2,4.5,4,7.2,5.4c1.9,1,3.6,0.7,4.9-0.2c0.3,12.4,0.9,24.7,1.7,37c1,15.8,2.5,31.8,2.7,47.6c0.1,11.1-4.8,21.4,1.4,31.8c1.4,2.3,3.1,4.2,5.2,5.6c-5.7,8.9-1.6,22.1,3,32.6c-1.4,0.4-2.7,1.3-3.3,2.9c-0.1,0.1-0.2,0.2-0.3,0.4c-0.8,1-1.1,2.1-1.4,3.2c-0.8,2.9,1.5,5.1,4,5.9c4.6,1.5,9.4,2.4,14.3,2.8c0,1.2,0.4,2.5,1.4,3.6C390.2,419.8,394.9,427,394.1,434.7z M370.3,309.7c-0.6-8.3-0.9-16.6-1.4-24.8c-1.2-18.4-2.3-36.7-2.3-55.1c1.2,0.3,2.5,0.1,3.8-1c6.1-5.3,10.9-1.9,15.2,3.9c5.1,6.7,8.4,14.7,11.1,22.6c7.6,21.8,10.5,46.8,2,68.6c-2.9,7.4-6.6,14.6-11.2,21.1c-2.1,3-8.6,12.1-12.9,10.6c-9.4-3.3-4.7-19.3-3.9-26.1C371.5,322.9,370.8,316.2,370.3,309.7z M439.3,350.9c-0.5,11.8-2.3,24.4-10.1,33.7c-6.9,8.2-17.5,13-27.8,15.1c-5.5,1.1-11.1,1.5-16.6,1.1c0-0.7-0.2-1.4-0.6-2.1c-3.1-6.2-15.1-27.4-4.9-32c1.5-0.7,2.4-1.7,2.9-3c6.2-3.1,10.9-9.4,14.6-14.9c4.4-6.6,8.2-13.7,11-21.2c9-23.3,6.4-48.2-0.6-71.8c-4.6-15.5-21.3-54-42.6-35.4c-1.3,1.1-1.8,2.5-1.8,3.9c-2.9-0.5-6.4,1.3-6.4,5.1c0,0.9,0,1.9,0,2.8c-0.1-0.1-0.2-0.1-0.3-0.2c-3.1-1.7-5.3-4.6-8.3-6.4c-3.9-2.3-8.1-1.8-11.7,0.7c-0.5,0.3-0.9,0.7-1.2,1.1c-2.8,1.1-5.2,3.7-7.2,5.7c-1.2,1.2-1.5,3-1,4.6c0,0.1,0,0.2,0,0.4c-0.8,0.4-1.5,0.7-2.7,1.2c-0.1,0-0.1,0.1-0.2,0.1c-1.2-9.4-2.3-18.7-3.4-28.1c1.4-1.9,1.1-5.1-0.7-6.9c-0.4-4.4-0.9-8.9-1.2-13.3c-0.4-4.9-6.4-5.6-8.9-2.8c-0.9-1.1-2.2-1.8-4-1.8c-6.4,0-5.6,10,0.8,10c1,0,1.8-0.2,2.5-0.6c1.4,15.4,3.2,30.8,5.2,46.2c-0.4-0.4-0.8-0.7-1.3-1c-1.6-0.7-3.2-1.3-4.9-1.7c-0.1,0-0.9-0.3-1.2-0.4c-0.1,0-0.2-0.1-0.3-0.1c0,0,0,0,0,0c-0.7-0.6-1.6-1-2.5-1.2c-0.4-0.4-0.9-0.8-1.6-1.1c-4.7-2.1-10.2-2.8-15-0.9c-4.3,1.7-5.7,5.5-4.8,9.3c-1.7,2-4.2,3.6-6.8,4.6c-2.5-18.4-4.9-36.7-6.4-55.2c5-1.3,9.7-3.4,13.5-7c4.7-4.4-2.9-11-7.5-6.6c-5.7,5.3-16.5,5.4-23.8,5.9c-10,0.6-20,0.2-30,0c-5.6-0.1-11.2,0.7-16.8,1c-7.8,0.4-15.6,0.4-23.4,0.4c-13.7,0-27-4-40.7-4.5c-0.5-2.9-1.2-5.7-2.1-8.4c14.6-5.8,31-22.8,29.4-37.8c6.1,0.5,12-1.4,15.4-6c12,5.2,26.4,5.1,39.1,5.1c19.2,0,38.2,1.7,57.4,0.2c22-1.6,58.1-5.5,62.5-32.9c0-0.1,0-0.2,0-0.3c0.5,0,1-0.2,1.4-0.4c0.6,0.2,1.2,0.4,0.8,0.1c2.1,1.6,3.6,3.8,5,6c2.7,4.5,3.6,10.2,3.8,15.3c0.6,14.1,0.1,28.1,0,42.2c-0.7,0.6-1.4,1.2-2.1,1.8c-0.2,0.1-0.4,0.1-0.6,0.1c-1.5,0.4-2.5,1.2-3,2.3c-5.1,3.3,0.4,11.2,5.9,8.1c0.7-0.4,1.5-0.9,2.3-1.4c11.9-2.9,24.2-5.1,36.4-3.8c12.7,1.3,22.6,7.2,29.6,17.8c6.4,9.8,9.6,21.8,11.8,33.1c2.6,13.5,3.7,27.1,4.4,40.8c0.8,15.8,0.8,31.5,0.8,47.3C439,325.7,439.8,338.3,439.3,350.9z"/><path fill="#010101" d="M219.5 69.3c-8.4 1.3-15.5 8.4-16.1 16.8-1.1.9-1.8 2.2-1.5 4.1 2.6 20.8 32 11.5 34.4-4.8C237.6 75.8 228.8 68 219.5 69.3zM226.2 85c-.9 4-11 10.4-13.7 6.3.6-.8 1-1.9.9-3.3C212.7 79.1 228.3 75.8 226.2 85zM186 80.2c-1.6-1.9-3.6-3.4-6.1-3.7-2.9-.3-5.4.5-7.9 2-3.2 2-5.7 5-7.9 8-1.2 1.7-1.6 3.8-.7 5.6-.9 2-.7 4.6 1.1 6 4.5 3.3 10.5 6.3 16.1 4 4.3-1.8 7-5.9 7.7-10.4C189 88 188.5 83.3 186 80.2zM178.3 91.2c-.1.3-.3.7-.5 1 0 .1-.1.1-.1.2 0 .1-.1.1-.2.2-.1.1-.2.2-.4.3-.1 0-.2.1-.2.1-.2 0-.3 0-.5 0-.5-.1-1-.2-1.5-.3-.6-.2-1.2-.5-1.7-.8-.1-.1-.2-.1-.3-.2.6-.8 1.3-1.6 2-2.3.4-.5.9-.9 1.3-1.3.2-.2.4-.3.6-.5.4-.3.8-.5 1.2-.8.1 0 .2-.1.3-.1 0 0 0 0 0 0 .1.3.2.6.3.9 0 0 0 0 0 0 .1.6.1 1.2.1 1.8C178.6 89.9 178.4 90.6 178.3 91.2zM327.2 165.6c-1-.9-2.4-1.3-3.7-1.2-1.3.1-2.5.7-3.4 1.7-.9 1.1-1.2 2.3-1.2 3.7v1.5c0 1.2.8 2.6 1.7 3.4 1 .9 2.4 1.3 3.7 1.2 1.3-.1 2.5-.7 3.4-1.7.9-1.1 1.2-2.3 1.2-3.7V169C328.9 167.7 328.1 166.4 327.2 165.6zM297.2 221.1c-1.1-.9-2.3-1.2-3.7-1.2H292c-1.2 0-2.6.8-3.4 1.7-.9 1-1.3 2.4-1.2 3.7.1 1.3.7 2.5 1.7 3.4 1.1.9 2.3 1.2 3.7 1.2h1.5c1.2 0 2.6-.8 3.4-1.7.9-1 1.3-2.4 1.2-3.7C298.8 223.2 298.1 222 297.2 221.1zM293.9 153.4c-7.3-.7-14.4 2.8-18 9.2-1.7 3.1.2 5.7 2.7 6.7 0 .1 0 .1.1.2 2.5 6.6 8.7 10.2 15.6 9.9 7.5-.3 11.8-6.5 12.1-13.4C306.7 159 300.3 154.1 293.9 153.4zM288.1 166.2c-.2-.6-.5-1-.8-1.4 3.1-1.9 7.8-2.7 9 .8C298.1 170.7 289.6 170.1 288.1 166.2zM275.1 102.1c-2.9-6.9-9.9-9.6-16.9-8.1-7.8 1.7-11.1 10.1-11.3 17.2-.1 2.1.9 3.4 2.3 4 3.3 6.8 11 9.8 18.3 7.1C275.7 119.4 278.3 109.7 275.1 102.1zM265 112.5c-2.4 1.8-5.8 1-6.9-1.8-.3-.7-.6-1.3-1.1-1.7.4-2.2 1.4-4.3 3.4-5.1 1.8-.8 3.6-.5 4.8 1C266.8 106.9 267.2 110.8 265 112.5zM301.6 82.4c-1.1-3.5-3.6-7-6.6-9.1-1.7-1.2-3.7-2.4-5.9-2.6-2.5-.2-5.1.2-7.1 1.9-2.7 2.4-4.1 5.3-5.1 8.8-.3 1.1-.1 2.2.4 3.2 0 0 0 0 0 0-1.2 2.4-.2 5.5 2.3 6.7 3.1 1.5 6.4 2.8 9.8 3.5 2.4.5 5.2.6 7.4-.4 2.7-1.1 4.4-3.2 5.2-6C302.6 86.6 302.2 84.3 301.6 82.4zM289 84.4c-.8-.3-1.5-.5-2.3-.9 0-.1.1-.1.1-.2.1-.2.1-.4.2-.6.2-.6.5-1.3.9-1.9 0 0 0 0 0 0 .1-.1.1-.1.2-.2.2.1.5.2.7.4.2.1.3.2.5.4.4.3.8.7 1.1 1.1 0 0 0 0 0 0 .2.2.4.5.6.7.3.4.6.9.8 1.3.1.2.2.4.2.6C291 85 290 84.7 289 84.4z"/></svg>