<svg xmlns="http://www.w3.org/2000/svg"  viewBox="0 0 512 512" width="64px" height="64px"><path fill="#75CCCE" d="M184.1 225.3c1.5-3 3.2-5.9 5-8.7-8-.1-15.2 2.5-16.6 11.6-1.7 10.3-.5 21.3-.2 31.7.2 6.5.5 13 0 19.4-.5 5.6-1.5 11.4-1 17 .3 3.6.7 8.2 4.9 9.1 3 .7 6 .6 9 .2-5.1-12.1-7.9-25.2-8.2-38.4C172 253.3 177.5 237.8 184.1 225.3zM263.6 110.9c-5.9-1.1-13.7.1-13.3 8 .1 1-.1 1.9-.5 2.6 2.9 4.3 7.5 7.6 12.8 7.6 5.7 0 11.8-2.9 12.2-9.3C275.2 114.6 267.6 111.7 263.6 110.9z"/><path fill="#127272" d="M317.6,223.4c-5.1-6.3-14.1-8.5-21.7-9.4c-9-1.1-18.2-0.7-27.1,0.9c-9.4,1.7-17.6,5.7-24.9,12c-7.6,6.6-15.4,16.5-14.9,27.1c-0.1,0.3-0.2,0.5-0.2,0.8c-1,3.9-2,10.2-0.8,14.8c-0.1,8.6,4.5,17.3,9.7,23.9c6.8,8.4,16.7,16.8,27.5,19c10.4,2.1,26.6,2.3,35.3-4.9c4.5-3.8,1.7-9.5-0.3-13.9c-2.4-5.3-5.1-10.6-5.9-16.5c-1.7-12.1,4.7-22.3,13.6-29.9C314.9,241.5,325.1,232.7,317.6,223.4z"/><path fill="#BCBDBD" d="M346.5,216c-6.4-9.8-14.6-19.5-25-25.2c-9.9-5.5-20.9-8.5-32.2-9.5c-22.3-2.1-48.4,1.6-66.9,15c-10.4,7.5-19.1,17.4-25.5,28.5c-6,10.4-13.1,24.2-10.2,36.6c0.2,0.2,0.3,0.4,0.4,0.6c0.1,1.7,0.4,3.3,0.8,4.9c0.6,19.4,6.6,38.7,18.8,54c12.9,16.3,30.6,24.8,51,26.7c20,1.9,41.1-1.7,58.4-12.4c17.8-11.1,32.1-28.6,38.5-48.7C362,263,360.1,237,346.5,216z M315.1,255.7c-4.4,3.8-8.9,8.5-9.8,14.5c-0.9,5.8,1.4,11.1,3.8,16.3c4.4,9.7,8.6,21.2-1.2,29.3c-9.4,7.8-23.6,9.2-35.3,8.6c-10.9-0.6-20.6-4.2-29.4-10.7c-15.2-11.2-28.1-29.6-25.5-48.8c0.5-2.6,1-5.1,0.8-7.7c0,0,0.1,0,0.1-0.1c-1.3-11.5,3.2-22.4,10.8-31.2c7.6-8.7,17.8-16.9,29.1-20c17.6-4.9,40.6-6.5,57.2,2.2c7.5,3.9,14.9,11.1,15.7,20C332.4,240,323.3,248.6,315.1,255.7z"/><path fill="#75CCCE" d="M375.4 434.1c-7 0-14-.2-21-.4 0 .1 0 .2 0 .3-1.2 9.5 15.2 8.7 21 8.1 4.8-.5 9.8-1.3 14.2-3.5 1.2-.6 3.2-2.6 4.4-4.1.5-.8 1.1-1.6 1.5-2.4C389 433.7 382.2 434.2 375.4 434.1zM173 430.5c-11.6 0-24.1 2.1-36.3 2.3 6.1 7 18.9 6.1 27.5 5.9 6.7-.2 24 1.2 24.4-8.2C183.5 430.5 178.3 430.5 173 430.5zM209.9 122.4c-3.4-2.6-8.1-3.5-12.2-4.1-8.2-1.1-16.5-1-24.7-1.2-12.8-.3-32.2-.4-34 15.3 24.2 0 48.4-.9 72.6-1C212.1 128 212.2 124.2 209.9 122.4z"/><path fill="#D6E7E7" d="M410.4,365.5c0.8-15.6,1.8-31.1,1.8-46.8c0-33.1-1.6-66.2-1.8-99.3c-0.1-27.7-2.2-55.7-0.3-83.4c0.7-9.8,1.4-19.8,0.7-29.6c-0.5-6.6-1-15.1-6-20c-51.3,0-102.5,5-153.9,5.8c-26.1,0.4-52.1,0.2-78.2,0.2c-12.4,0-24.8,0.2-37.3,0.7c-5,0.2-10.1,0.4-15.1,0.2c-1.9-0.1-3.8-0.1-5.7-0.1c-0.8,0-1.5,0-2.3,0.1c0.1,56.9,1.1,113.8,0.9,170.7c-0.1,28.9-0.2,57.8,1.5,86.6c0.8,13.5,0.8,26.8,0.7,40.3c-0.1,5.4-0.4,10.8-0.5,16.2c-0.1,3.5-0.4,7.8,0.4,11.5c0.3,0.1,0.7,0.2,1,0.3c9.1,3.6,19.8,2.5,29.3,1.8c10.7-0.8,21.3-1.4,32.1-1.4c26.5,0,53-0.2,79.4,0.6c27.1,0.8,54.2,2.1,81.4,2.4c11,0.1,21.9,0.5,32.9,0.7c8.9,0.1,19.2,0.4,27.4-3.7c2-1,4-0.8,5.6,0.1c2.7-2.2,3.9-7.2,4.5-10.1c1.5-7.2,1.8-14.5,1.8-21.7C410.7,380.4,410.1,372.9,410.4,365.5z M347.6,98.5c7.1,0,7.9,11,0.8,11C341.4,109.5,340.5,98.5,347.6,98.5z M346.2,119c7.1,0,7.9,11,0.8,11C340,129.9,339.1,119,346.2,119z M323.6,99.8c7.1,0,7.9,11,0.8,11C317.4,110.8,316.5,99.8,323.6,99.8z M322.2,120.3c7.1,0,7.9,11,0.8,11C316,131.3,315.1,120.3,322.2,120.3z M297.9,102.4c0.9-1.1,2.3-1.7,3.7-1.9c1.5-0.1,3,0.4,4.1,1.4c0.2,0.2,0.4,0.4,0.6,0.6c0,0,0.1,0.1,0.1,0.1c1.1,0.9,1.7,2.3,1.9,3.7c0.1,1.5-0.4,2.9-1.4,4.1c-0.9,1-2.3,1.9-3.7,1.9c-1.7,0-3.4-0.2-4.7-1.5c-1.2-1.2-1.9-2.6-1.9-4.3C296.5,104.9,296.8,103.5,297.9,102.4z M296.5,122.8c0.9-1.1,2.3-1.7,3.7-1.9c1.5-0.1,3,0.4,4.1,1.4c0.2,0.2,0.4,0.4,0.6,0.6c0,0,0.1,0.1,0.1,0.1c1.1,0.9,1.7,2.3,1.9,3.7c0.1,1.5-0.4,2.9-1.4,4.1c-0.9,1-2.3,1.9-3.7,1.9c-1.7,0-3.4-0.2-4.7-1.5c-1.2-1.2-1.9-2.6-1.9-4.3C295.2,125.4,295.5,124,296.5,122.8z M239.4,119.8c-0.7-13.8,11.6-21.8,24.2-20c9.4,1.4,22,7.6,22.2,18.7c0.3,11.2-8.9,21.1-20.2,21.6c-10.5,0.5-21.1-4.8-26-14.3c-0.9-1.8-0.8-3.6-0.1-5.1C239.4,120.4,239.4,120.1,239.4,119.8z M138.8,143.5c-2.5,0-4.3-1.4-5.1-3.2c-2.9,0.4-5.8-1.1-5.8-4.8c0.2-11,4.7-20.3,15-25.1c9-4.2,19.6-4.5,29.3-4.2c11.2,0.3,23.3-0.5,34.1,2.7c5.8,1.7,11.1,4.2,14.4,9.4c3.5,5.6,1.3,12.2,1.1,18.3c-0.1,2.8-1.8,5.9-5.1,5.9C190.8,142.5,164.8,143.5,138.8,143.5z M365.8,287.2c-7.3,22.9-21.9,43.7-42.5,56.5c-19.8,12.3-43.1,17.2-66.3,15c-23.3-2.2-44-11.9-58.7-30.5c-3.1-3.9-5.9-8.1-8.3-12.5c-0.6,0.3-1.2,0.5-1.9,0.6c-11.1,1.6-24-0.2-26.9-13c-1.8-7.6-0.8-15.2,0-22.8c0.7-7.8,0.3-15.7,0.1-23.5c-0.4-11.7-2.6-27.1,2.7-38.1c5.7-11.9,18.9-14,30.9-12.8c0.6,0.1,1.1,0.2,1.6,0.4c10.9-13.7,24.9-24.7,42-30.2c21.5-7,46.1-9,68.1-3.1c23.2,6.2,42,21.8,53,43.2C370.5,238.1,373.3,263.7,365.8,287.2z M378.1,126.1c-0.9,1-2.3,1.9-3.7,1.9h-0.7c-1.5,0-2.9-0.3-4.1-1.4c-1.1-0.9-1.7-2.3-1.9-3.7c-0.1-1.5,0.4-3,1.4-4.1c0.9-1,2.3-1.9,3.7-1.9h0.7c1.5,0,2.9,0.3,4.1,1.4c1.1,0.9,1.7,2.3,1.9,3.7C379.6,123.5,379.1,125,378.1,126.1z M379.5,105.6c-0.9,1-2.3,1.9-3.7,1.9h-0.7c-1.5,0-2.9-0.3-4.1-1.4c-1.1-0.9-1.7-2.3-1.9-3.7c-0.1-1.5,0.4-3,1.4-4.1c0.9-1,2.3-1.9,3.7-1.9h0.7c1.5,0,2.9,0.3,4.1,1.4c1.1,0.9,1.7,2.3,1.9,3.7C380.9,103,380.4,104.5,379.5,105.6z M399.5,126.1c-0.9,1-2.3,1.9-3.7,1.9h-2c-1.5,0-2.9-0.3-4.1-1.4c-1.1-0.9-1.7-2.3-1.9-3.7c-0.1-1.5,0.4-3,1.4-4.1c0.9-1,2.3-1.9,3.7-1.9h2c1.5,0,2.9,0.3,4.1,1.4c1.1,0.9,1.7,2.3,1.9,3.7C400.9,123.5,400.4,125,399.5,126.1z M400.8,105.6c-0.9,1-2.3,1.9-3.7,1.9h-2c-1.5,0-2.9-0.3-4.1-1.4c-1.1-0.9-1.7-2.3-1.9-3.7c-0.1-1.5,0.4-3,1.4-4.1c0.9-1,2.3-1.9,3.7-1.9h2c1.5,0,2.9,0.3,4.1,1.4c1.1,0.9,1.7,2.3,1.9,3.7C402.3,103,401.8,104.5,400.8,105.6z"/><path d="M101.5 90.4c0 58.8 1.2 117.7.9 176.5-.1 17.7-.1 35.4.3 53.1V86.9C102 87.8 101.5 89 101.5 90.4zM421.5 226.5c-.1-16.4-.3-32.8-.7-49.1-.2-12.3-.8-24.8 0-37.1.8-11.9 1.8-23.9 1-35.9-.7-9.6-2.8-21.6-11.2-27.6-1.4-1-2.8-1.2-4.1-1-.6-.2-1.2-.3-1.9-.3h-2c-.1 0-.2 0-.3 0-54 .1-107.9 5.4-161.9 5.9-27.9.3-55.9.1-83.8.1-12 0-23.9 1.2-35.9 1-4.7-.1-14.8-1.1-17.6 3.9-.2.2-.3.3-.4.5V320c.3 11.8.7 23.7 1.4 35.5.8 13.8.5 27.4.4 41.2-.1 10.6-2.1 21.6 2.9 31.4 1.6 3 4.5 3.2 6.7 1.8 3.2 1.1 6.4 1.8 9.8 2.2 5.9 17.4 25.7 17.9 41.2 17.5 12.9-.3 35.7-1.9 34.7-19.1 18.8 0 37.6 0 56.3.5 28.4.8 56.9 2.1 85.3 2.4.7 0 1.3 0 2 0-1.1 18.8 21.2 21.2 35.7 19.3 7.3-1 14.9-2.9 20.4-7.9 3.4-3.1 7.2-9.2 7.4-14.4 13.9-5.7 14.4-26.1 14.6-39.1.2-8-.3-16-.3-24 0-4.7.7-10 1-15.6.5-8.6.8-17.2.9-25.8C423.7 292.7 421.7 259.7 421.5 226.5zM164.3 438.6c-8.6.2-21.4 1.2-27.5-5.9 12.2-.2 24.7-2.3 36.3-2.3 5.2 0 10.4 0 15.6 0C188.3 439.8 171 438.5 164.3 438.6zM394 434.5c-1.1 1.6-3.2 3.6-4.4 4.1-4.4 2.1-9.4 3-14.2 3.5-5.8.6-22.2 1.5-21-8.1 0-.1 0-.2 0-.3 7 .2 14 .4 21 .4 6.8 0 13.5-.4 20-2C395 432.9 394.5 433.7 394 434.5zM410.7 387.7c0 7.3-.3 14.6-1.8 21.7-.6 2.9-1.8 7.9-4.5 10.1-1.6-.9-3.6-1.1-5.6-.1-8.1 4.1-18.5 3.8-27.4 3.7-11-.1-21.9-.6-32.9-.7-27.1-.3-54.2-1.6-81.4-2.4-26.5-.8-53-.6-79.4-.6-10.8 0-21.3.5-32.1 1.4-9.5.7-20.3 1.8-29.3-1.8-.3-.1-.7-.2-1-.3-.8-3.7-.5-8-.4-11.5.1-5.4.4-10.8.5-16.2.2-13.6.1-26.8-.7-40.3-1.7-28.8-1.6-57.8-1.5-86.6.3-56.9-.8-113.8-.9-170.7.8-.1 1.5-.1 2.3-.1 1.9 0 3.8 0 5.7.1 5 .2 10.1 0 15.1-.2 12.4-.5 24.8-.7 37.3-.7 26.1 0 52.1.2 78.2-.2 51.4-.8 102.5-5.8 153.9-5.8 5 4.9 5.5 13.4 6 20 .7 9.9-.1 19.8-.7 29.6-1.9 27.7.2 55.6.3 83.4.2 33.1 1.8 66.2 1.8 99.3 0 15.7-1 31.2-1.8 46.8C410.1 372.9 410.7 380.4 410.7 387.7z"/><path d="M359.4,216.3c-11-21.4-29.8-37-53-43.2c-22-5.9-46.6-3.9-68.1,3.1c-17.1,5.5-31.1,16.5-42,30.2c-0.5-0.2-1-0.3-1.6-0.4c-12-1.2-25.2,0.9-30.9,12.8c-5.3,11-3,26.4-2.7,38.1c0.2,7.8,0.7,15.7-0.1,23.5c-0.7,7.6-1.7,15.2,0,22.8c3,12.8,15.8,14.6,26.9,13c0.7-0.1,1.4-0.3,1.9-0.6c2.4,4.4,5.2,8.5,8.3,12.5c14.7,18.6,35.4,28.3,58.7,30.5c23.2,2.2,46.5-2.7,66.3-15c20.6-12.8,35.2-33.6,42.5-56.5C373.3,263.7,370.5,238.1,359.4,216.3z M176.1,305.4c-4.2-0.9-4.6-5.5-4.9-9.1c-0.5-5.6,0.6-11.4,1-17c0.5-6.4,0.2-12.9,0-19.4c-0.3-10.4-1.4-21.3,0.2-31.7c1.4-9,8.7-11.7,16.6-11.6c-1.8,2.8-3.4,5.7-5,8.7c-6.5,12.5-12,28-7.2,41.9c0.3,13.1,3.1,26.2,8.2,38.4C182,305.9,179.1,306,176.1,305.4z M354.5,286.5c-6.4,20.1-20.7,37.6-38.5,48.7c-17.3,10.7-38.3,14.3-58.4,12.4c-20.5-1.9-38.2-10.5-51-26.7c-12.1-15.3-18.2-34.7-18.8-54c-0.4-1.6-0.7-3.3-0.8-4.9c-0.1-0.2-0.3-0.4-0.4-0.6c-2.9-12.3,4.3-26.2,10.2-36.6c6.4-11.1,15.1-21,25.5-28.5c18.6-13.4,44.6-17.1,66.9-15c11.3,1.1,22.3,4,32.2,9.5c10.3,5.7,18.6,15.4,25,25.2C360.1,237,362,263,354.5,286.5z"/><path d="M331.4 228.2c-.8-9-8.2-16.1-15.7-20-16.7-8.8-39.7-7.1-57.2-2.2-11.3 3.1-21.5 11.3-29.1 20-7.7 8.8-12.1 19.7-10.8 31.2 0 0-.1 0-.1.1.2 2.6-.3 5.2-.8 7.7-2.6 19.2 10.3 37.6 25.5 48.8 8.8 6.5 18.5 10.1 29.4 10.7 11.7.6 26-.8 35.3-8.6 9.7-8.1 5.6-19.6 1.2-29.3-2.4-5.2-4.7-10.5-3.8-16.3.9-6 5.4-10.8 9.8-14.5C323.3 248.6 332.4 240 331.4 228.2zM308 247.4c-8.9 7.6-15.3 17.8-13.6 29.9.8 5.8 3.5 11.1 5.9 16.5 2 4.4 4.8 10.2.3 13.9-8.7 7.2-24.9 7-35.3 4.9-10.9-2.2-20.8-10.5-27.5-19-5.2-6.5-9.8-15.2-9.7-23.9-1.2-4.7-.2-10.9.8-14.8.1-.3.2-.6.2-.8-.6-10.6 7.2-20.5 14.9-27.1 7.3-6.3 15.4-10.3 24.9-12 8.9-1.6 18.1-2 27.1-.9 7.7.9 16.6 3.1 21.7 9.4C325.1 232.7 314.9 241.5 308 247.4zM220.7 118.3c-3.3-5.3-8.6-7.7-14.4-9.4-10.8-3.2-23-2.4-34.1-2.7-9.8-.3-20.3 0-29.3 4.2-10.2 4.8-14.8 14.1-15 25.1-.1 3.7 2.9 5.2 5.8 4.8.9 1.8 2.6 3.2 5.1 3.2 26 0 52-1 78-1 3.2 0 5-3.1 5.1-5.9C222 130.5 224.2 123.9 220.7 118.3zM211.6 131.5c-24.2.1-48.4.9-72.6 1 1.9-15.8 21.3-15.7 34-15.3 8.2.2 16.6.1 24.7 1.2 4.2.6 8.8 1.4 12.2 4.1C212.2 124.2 212.1 128 211.6 131.5zM263.6 99.8c-12.6-1.9-24.9 6.2-24.2 20 0 .3.1.6.1.9-.7 1.5-.8 3.3.1 5.1 4.9 9.5 15.5 14.8 26 14.3 11.3-.5 20.5-10.4 20.2-21.6C285.5 107.4 273 101.2 263.6 99.8zM262.7 129.2c-5.3 0-10-3.4-12.8-7.6.3-.7.5-1.6.5-2.6-.4-7.9 7.3-9.1 13.3-8 4 .7 11.6 3.7 11.3 8.9C274.5 126.3 268.4 129.2 262.7 129.2zM306.3 102.5c0 0-.1-.1-.1-.1-.2-.2-.4-.4-.6-.6-1.1-1-2.6-1.5-4.1-1.4-1.4.1-2.8.8-3.7 1.9-1 1.2-1.4 2.5-1.4 4.1 0 1.7.8 3.1 1.9 4.3 1.3 1.3 3 1.5 4.7 1.5 1.4 0 2.8-.9 3.7-1.9 1-1.1 1.5-2.6 1.4-4.1C308 104.8 307.4 103.5 306.3 102.5zM323.6 99.8c-7.1 0-6.2 11 .8 11C331.5 110.8 330.6 99.8 323.6 99.8zM347.6 98.5c-7.1 0-6.2 11 .8 11C355.5 109.5 354.6 98.5 347.6 98.5zM379 97.9c-1.2-1-2.5-1.4-4.1-1.4h-.7c-1.4 0-2.8.9-3.7 1.9-1 1.1-1.5 2.6-1.4 4.1.1 1.4.8 2.8 1.9 3.7 1.2 1 2.5 1.4 4.1 1.4h.7c1.4 0 2.8-.9 3.7-1.9 1-1.1 1.5-2.6 1.4-4.1C380.7 100.2 380 98.8 379 97.9zM400.3 97.9c-1.2-1-2.5-1.4-4.1-1.4h-2c-1.4 0-2.8.9-3.7 1.9-1 1.1-1.5 2.6-1.4 4.1.1 1.4.8 2.8 1.9 3.7 1.2 1 2.5 1.4 4.1 1.4h2c1.4 0 2.8-.9 3.7-1.9 1-1.1 1.5-2.6 1.4-4.1C402 100.2 401.4 98.8 400.3 97.9zM305 123c0 0-.1-.1-.1-.1-.2-.2-.4-.4-.6-.6-1.1-1-2.6-1.5-4.1-1.4-1.4.1-2.8.8-3.7 1.9-1 1.2-1.4 2.5-1.4 4.1 0 1.7.8 3.1 1.9 4.3 1.3 1.3 3 1.5 4.7 1.5 1.4 0 2.8-.9 3.7-1.9 1-1.1 1.5-2.6 1.4-4.1C306.7 125.3 306 123.9 305 123zM322.2 120.3c-7.1 0-6.2 11 .8 11C330.2 131.3 329.3 120.3 322.2 120.3zM346.2 119c-7.1 0-6.2 11 .8 11C354.2 129.9 353.3 119 346.2 119zM377.6 118.3c-1.2-1-2.5-1.4-4.1-1.4h-.7c-1.4 0-2.8.9-3.7 1.9-1 1.1-1.5 2.6-1.4 4.1.1 1.4.8 2.8 1.9 3.7 1.2 1 2.5 1.4 4.1 1.4h.7c1.4 0 2.8-.9 3.7-1.9 1-1.1 1.5-2.6 1.4-4.1C379.4 120.6 378.7 119.3 377.6 118.3zM399 118.3c-1.2-1-2.5-1.4-4.1-1.4h-2c-1.4 0-2.8.9-3.7 1.9-1 1.1-1.5 2.6-1.4 4.1.1 1.4.8 2.8 1.9 3.7 1.2 1 2.5 1.4 4.1 1.4h2c1.4 0 2.8-.9 3.7-1.9 1-1.1 1.5-2.6 1.4-4.1C400.7 120.6 400 119.3 399 118.3z"/></svg>