<svg xmlns="http://www.w3.org/2000/svg"  viewBox="0 0 48 48" width="64px" height="64px"><path fill="#8a4581" d="M3.957,13.446c0,4.804-0.187,1.846-0.158,7.279c0.005,0.871,0.245,4.322,0.149,5.188	c-0.238,2.132-0.073,5.574,0.023,7.716c0.269,5.983-0.202,7.909,2.242,9.248c1.833,1.003,6.97,0.594,9.057,0.698	c2.087,0.104,5.634-0.882,7.723-0.842c6.476,0.124,6.334,0.562,11.747,0.781c1.975,0.08,5.951,0.096,7.492-1.142	c1.484-1.191,1.242-3.507,1.404-5.975c0.339-5.163-0.305-7.646-0.283-11.919c0.008-1.633,0.017-3.266,0.025-4.899	c0.007-1.317-0.198-2.622-0.219-3.939c-0.02-1.225,0.233-4.91,0.131-6.165s0.061-2.729-1.593-3.971	c-0.429-0.322-2.019-0.494-2.541-0.618c-0.98-0.233-4.924,0.406-9.964-0.068c-4.807-0.452-3.38,0-8.185,0	c-1.334,0-4.64,0.349-5.974,0.322C11.66,5.07,10.937,5.07,9.862,5.076C3.796,5.108,3.77,8.879,3.957,13.446"/><path fill="#010101" d="M15.59,44.082c-0.118,0-0.233-0.003-0.344-0.009c-0.532-0.026-1.268-0.018-2.094-0.01	c-2.543,0.027-5.705,0.059-7.178-0.748c-2.262-1.238-2.308-2.996-2.408-6.846c-0.021-0.824-0.046-1.758-0.094-2.818L3.463,33.47	c-0.099-2.191-0.248-5.502-0.012-7.612c0.059-0.529-0.025-2.254-0.086-3.513C3.33,21.639,3.3,21.03,3.299,20.728	c-0.015-2.864,0.029-3.413,0.076-3.993c0.041-0.5,0.083-1.017,0.083-3.278C3.33,10.338,3.355,7.825,4.893,6.214	c1.041-1.09,2.665-1.626,4.966-1.639c1.061-0.005,1.775-0.007,5.186,0.064c0.689,0.021,1.941-0.077,3.156-0.165	c1.113-0.081,2.164-0.157,2.807-0.157c1.92,0,2.825-0.072,3.553-0.13c1.103-0.089,1.771-0.142,4.679,0.132	c3.063,0.288,5.764,0.157,7.552,0.072c1.225-0.059,2.034-0.101,2.481,0.008c0.136,0.032,0.35,0.067,0.596,0.109	c0.976,0.163,1.751,0.312,2.129,0.595c1.624,1.221,1.7,2.674,1.762,3.843c0.008,0.165,0.017,0.328,0.029,0.488	c0.064,0.78-0.003,2.424-0.062,3.874c-0.039,0.958-0.075,1.837-0.067,2.323c0.01,0.603,0.059,1.202,0.107,1.802	c0.057,0.699,0.115,1.423,0.111,2.148l-0.025,4.898c-0.009,1.703,0.092,3.15,0.189,4.55c0.146,2.106,0.298,4.284,0.093,7.399	c-0.029,0.447-0.045,0.891-0.061,1.322c-0.071,2.003-0.14,3.894-1.53,5.01c-1.536,1.234-5.1,1.358-7.825,1.252	c-2.414-0.099-3.736-0.24-5.014-0.377c-1.613-0.173-3.137-0.337-6.723-0.405c-0.952-0.027-2.305,0.2-3.607,0.412	C18.048,43.859,16.68,44.082,15.59,44.082z M14.268,43.056c0.39,0,0.737,0.005,1.027,0.02c1.026,0.039,2.5-0.188,3.92-0.419	c1.409-0.229,2.751-0.449,3.787-0.425c3.63,0.069,5.174,0.235,6.81,0.411c1.262,0.135,2.566,0.274,4.948,0.371	c3.553,0.145,6.162-0.232,7.158-1.031c1.034-0.83,1.091-2.422,1.157-4.267c0.016-0.441,0.031-0.894,0.062-1.352	c0.201-3.048,0.052-5.191-0.093-7.265c-0.099-1.417-0.2-2.884-0.191-4.625l0.025-4.897c0.004-0.683-0.054-1.384-0.108-2.062	c-0.051-0.621-0.101-1.243-0.11-1.867c-0.008-0.506,0.029-1.416,0.068-2.379c0.058-1.422,0.123-3.033,0.064-3.753	c-0.014-0.169-0.023-0.342-0.032-0.518c-0.058-1.108-0.112-2.155-1.363-3.095c-0.213-0.16-1.213-0.328-1.693-0.408	c-0.274-0.047-0.511-0.087-0.662-0.123c-0.309-0.073-1.186-0.031-2.202,0.019c-1.814,0.088-4.559,0.22-7.693-0.075	c-2.824-0.267-3.457-0.214-4.506-0.132c-0.745,0.06-1.672,0.134-3.632,0.134c-0.607,0-1.641,0.075-2.734,0.154	c-1.237,0.09-2.516,0.181-3.25,0.168c-3.4-0.07-4.109-0.07-5.16-0.064C7.849,5.586,6.459,6.021,5.616,6.904	c-1.268,1.328-1.278,3.639-1.159,6.521l0,0.021c0,2.312-0.043,2.85-0.085,3.369c-0.045,0.559-0.088,1.086-0.073,3.907	c0.001,0.295,0.031,0.888,0.064,1.574c0.07,1.436,0.149,3.063,0.082,3.673c-0.227,2.032-0.08,5.296,0.017,7.456l0.008,0.182	c0.048,1.068,0.073,2.007,0.094,2.837c0.098,3.765,0.131,5.032,1.889,5.995c1.244,0.681,4.39,0.649,6.688,0.625	C13.542,43.06,13.921,43.056,14.268,43.056z"/><path fill="#d6e5e5" d="M16.916,27.329c-0.98,3.26-2.663,7.223-3.608,10.492c-0.115,0.399,0.256,0.76,0.66,0.662	c0.932-0.227,1.765-0.967,2.514-1.632c1.715-1.522,4.046-3.584,6.045-4.706c0.158-0.089,0.325-0.178,0.506-0.182	c0.243-0.005,0.459,0.143,0.657,0.284c2.732,1.962,5.067,3.947,7.799,5.909c0.142,0.102,0.313,0.21,0.481,0.158	c0.235-0.073,0.273-0.386,0.262-0.632c-0.104-2.483-0.656-4.233-1.359-6.617c-0.602-2.04-1.093-3.372-0.771-3.828	c0.185-0.261,1.346-0.796,1.824-1.099c2.421-1.539,4.8-2.925,6.804-5.043c0.421-0.445,0.292-0.809-0.319-0.835	c-2.514-0.11-7.198,0.103-10.761,0.139c-0.637-4.656-3.015-8.035-3.951-10.565c-0.062-0.169-0.292-0.184-0.381-0.028	c-2.196,3.889-3.286,7.216-3.855,10.936l-8.985-0.672c-0.723-0.067-1.851,0.12-1.913,0.649c-0.058,0.489,0.48,1.015,0.868,1.318	c2.349,1.831,5.04,3.291,7.389,5.122"/><path fill="#010101" d="M13.835,38.999c-0.284,0-0.562-0.114-0.763-0.324c-0.256-0.267-0.348-0.638-0.245-0.992	c0.497-1.716,1.2-3.639,1.881-5.498c0.587-1.604,1.193-3.26,1.652-4.748c-1.117-0.857-2.332-1.65-3.508-2.419	c-1.248-0.815-2.538-1.658-3.729-2.586c-0.529-0.412-1.142-1.054-1.057-1.771c0.111-0.949,1.565-1.169,2.456-1.089l8.518,0.637	c0.631-3.81,1.792-7.021,3.841-10.649c0.139-0.245,0.401-0.373,0.678-0.36c0.278,0.023,0.511,0.2,0.607,0.463	c0.273,0.736,0.671,1.545,1.132,2.481c1.018,2.067,2.272,4.618,2.779,7.75c1.158-0.016,2.416-0.047,3.667-0.078	c2.6-0.066,5.056-0.126,6.687-0.056c0.671,0.03,0.906,0.368,0.986,0.567c0.081,0.201,0.147,0.613-0.325,1.112	c-1.815,1.919-3.878,3.218-6.062,4.593l-0.837,0.528c-0.176,0.112-0.44,0.254-0.718,0.403c-0.325,0.174-0.87,0.466-0.98,0.581	c-0.096,0.232,0.264,1.417,0.581,2.462l0.387,1.294c0.651,2.206,1.167,3.949,1.268,6.361c0.036,0.836-0.417,1.068-0.613,1.13	c-0.422,0.129-0.771-0.12-0.92-0.228c-1.372-0.986-2.662-1.99-3.908-2.962c-1.244-0.969-2.531-1.971-3.892-2.948	c-0.094-0.067-0.265-0.191-0.354-0.191c0,0-0.001,0-0.001,0c-0.063,0.002-0.193,0.075-0.271,0.118	c-1.976,1.11-4.372,3.237-5.958,4.645c-0.785,0.697-1.675,1.487-2.728,1.744C14.002,38.989,13.918,38.999,13.835,38.999z M17.294,27.003c0.107,0.125,0.151,0.301,0.1,0.47c-0.475,1.58-1.122,3.347-1.747,5.056c-0.675,1.843-1.373,3.749-1.859,5.432	c0.873-0.16,1.664-0.862,2.361-1.482c1.618-1.436,4.062-3.605,6.132-4.768c0.169-0.095,0.424-0.238,0.737-0.247	c0.418,0.008,0.762,0.234,0.963,0.38c1.375,0.988,2.669,1.996,3.921,2.971c1.225,0.954,2.49,1.94,3.828,2.903	c0-0.004,0-0.008-0.001-0.013c-0.095-2.289-0.595-3.979-1.227-6.12l-0.385-1.287c-0.541-1.782-0.839-2.765-0.427-3.347	c0.169-0.24,0.547-0.459,1.311-0.868c0.253-0.136,0.493-0.264,0.653-0.365l0.841-0.531c2.127-1.339,4.136-2.604,5.862-4.428	c-1.597-0.067-4.136-0.004-6.59,0.057c-1.415,0.036-2.838,0.071-4.117,0.084c-0.255,0.024-0.467-0.183-0.5-0.433	c-0.435-3.172-1.72-5.782-2.752-7.881c-0.346-0.702-0.677-1.375-0.944-2.003c-1.881,3.444-2.936,6.539-3.501,10.235	c-0.04,0.259-0.266,0.445-0.531,0.424l-8.985-0.672c-0.626-0.063-1.289,0.11-1.394,0.251c-0.004,0.11,0.224,0.457,0.693,0.822	c1.158,0.903,2.431,1.733,3.661,2.537c1.248,0.815,2.538,1.658,3.729,2.586C17.208,26.829,17.265,26.912,17.294,27.003z M23.228,10.008L23.228,10.008L23.228,10.008z"/></svg>