<svg xmlns="http://www.w3.org/2000/svg"  viewBox="0 0 512 512" width="64px" height="64px"><path fill="#F6851F" d="M103.8,221.5c-0.3-0.8-0.4-1.5-0.3-2.2c-10.2-8.5-22-17.7-34.9-20.8c-6.5-1.6-12.8-0.8-18.7,2.5c-3.8,2.2-10.8,6.5-10,11.9c0.5,3.1,4.4,5.5,6.8,7.1c3.7,2.5,7.5,4.9,11.5,6.9c6.7,3.3,15.7,7.8,23.4,7.5c5.2-0.2,10.8-2,15.3-4.6C99.5,228.3,105.1,225.5,103.8,221.5z"/><path fill="#BCBCBC" d="M103.5 393.7c-8.1-3.4-15.8-8.2-21.9-14.6.5 4.5.5 9.2.8 13.7.2 3.5.4 7.1 1.3 10.5.3 1.1.5 2.5 1.1 3.5.5.9 1.5 1.6.8 1.5 5.9 1.6 12.4 1.2 18.5 1.3 7.6.1 15.2.5 22.8.9l.5-11.2c0-.4.1-.8.2-1.2C119.4 397.5 111.3 397 103.5 393.7zM423.9 430.6c-3-1.8-3.9-6.7-1-9.2 0-.4 0-.7 0-1.1-5 .9-10 1.7-15.1 2-2.9.2-5.8-2.4-5.8-5.4.1-3 0-5.9 0-8.9 0-1.6-.1-3.3-.1-4.9-2.3 0-4.6-.1-6.2 0-3.8.2-7.5.3-11.3.4.4 1.5 0 3.2-1.6 4.6-.2.6-.3 1.2-.4 1.9-.2 1.6-.3 3.3-.3 4.9 0 5.2.3 10.4 1 15.5.6 4.8 1.3 9.7 2.6 14.4.4 1.6.8 3.2 1.5 4.7 0-.1.1.2.3.5 0 0 .1 0 .1 0 4.3 2 9.9 2.4 14.6 2.6 4.8.2 10.1.7 14.8-.4C425.1 450.5 424.9 438.7 423.9 430.6z"/><path fill="#BCBCBC" d="M148.5 403.1c-.8-.1-1.6-.2-2.4-.3-1.7-.2-3.5-.3-5.3-.3.1 0-.8.1-1.2.1-.4.5-.9.8-1.3 1l-.5 12.5c-.1 2.8-2.2 5.9-5.4 5.8-10.5-.4-21-.9-31.5-1.1-.6 0-1.2 0-1.9 0 0 .4 0 .9-.1 1.3-.9 5.9-1.2 12-.9 17.9.3 5.2.3 10.9 4.8 14.4 4.3 3.3 10.3 4.1 15.5 4.4 4.8.3 9.5 1 14.2 1.5 3.5.4 10.7 1.6 12.7-2.3 2.4-4.6 2.8-10.1 3-15.2C148.6 429.6 148.1 416.3 148.5 403.1zM360 217.3c2.2-8.2 1.2-16.7-5.4-22.6-5.9-5.2-14-7.9-21.8-7.8-8.6.1-17.6 3.2-24.7 8.2-3.3 2.3-6.6 5.1-8.2 8.9-.6 1.5-1.9 7.9-.6 8.9 2.5 1.7 2.9 4.5 2.2 6.8 16.4 1 32.9 1.6 49.3 1 3.1-.1 6.2-.2 9.3-.3C359.7 219.5 359.7 218.4 360 217.3zM277.5 358.2c-20.6-1-41.2-2.5-61.9-3.6 7.3 3.1 15.2 5.2 23.1 6 9.8 1 19.6-.6 29.4-.8 8.2-.1 15.9.6 23.8 2.4 7.2 1.7 14.8 3.7 22.3 3.1 8-.7 14.4-4.6 20.4-9.8.2-.2.5-.4.7-.6C316.6 360.1 296.7 359.1 277.5 358.2zM352.1 323.8c-3.9-2.5-9-2.6-13.5-2.7-7.4-.2-14.8.4-22.2.8-15.8.7-31.3-2.1-47-2.9-16.2-.8-32.3.2-48.5 1.3-8.1.5-16.6 1.6-24.7 1-4.5-.3-9.9-1.2-14.3.4 1 2.6 2.2 5.1 3.6 7.5.7-1.8 2.3-3.1 4.8-3 29.1 1.2 58.3 3.4 87.5 3 14.1-.2 28.2-.9 42.3-1.3 3.4-.1 6.9 0 10.3-.3 3.1-.3 6.7-1.3 9.8-1.2 1.5.1 3 .1 4.5.1.2 0 .4 0 .6 0 1.1-.9 2.7-1.3 4.5-.6 1.4.5 2.8 1.1 3.8 2.1C353.6 326.1 353.5 324.7 352.1 323.8zM342.4 337.6c-5.5-.2-11 1.4-16.6 1.3-14.6-.3-29.3 1.1-44 1.3-30.2.6-60.4-1.6-90.6-2.9 3.1 3.6 6.6 6.8 10.4 9.5.5-2.2 2.1-3.9 5-3.8 22.9 1 45.8 2.8 68.7 3.9 17.8.8 36.4 2.2 53.9-2.1.9-1 2.2-1.6 4-1.6l2 .1c3.5.1 5.7 3.1 5.7 5.9 3.5-3.7 6.6-7.6 9.1-12C347.6 337.9 344.9 337.7 342.4 337.6z"/><path fill="#F6851F" d="M417.8,237.4c0-3-1.8-7.1-3.6-10.2c-0.9-1.6-1.9-3.2-3.2-4.5c0,0,0,0,0,0c-1.5,0.6-3.4,0.3-4.8-0.6c-0.4,1-1.1,2-2.4,2.7c-7,4-15.7,4.9-23.6,5.6c-8.4,0.7-16.7,0.9-25.1,1.2c-26.5,0.9-52.9-0.8-79.3-2.6c-26.6-1.8-53.5-3.6-80.2-2.9c-12.5,0.3-25.1,2.1-37.7,1.4c-4.2-0.2-8.3-0.8-12.5-1.1c-3.2-0.2-8.1-1.2-11.1,0.2c-1.3,0.6-2.6,0.7-3.8,0.4c-1.5,1.2-3.7,1.7-5.9,0.6c-1.1-0.6-2.6-0.9-3.8-0.9c-1.1,0-1.2,0-2,0.3c0,0,0,0,0,0c0.1,0,0.1,0-0.1,0.1c-1.2,1.8-3.2,2.8-5.2,2.6c-3.6,6.5-12.2,11.1-20.1,13.7c-0.4,9-1.2,18.9,4.9,26.4c6.7,8.3,18.1,14.6,27.8,18.4c5.7,2.3,11.7,3.5,17.6,5.3c5.9,1.8,11.8,3.6,17.8,5.2c9.4,2.6,19.4,4.2,28.4,7.8c1.9,0.8,2.8,2.1,3,3.5c0,0,0.1,0,0.1,0c8.5,0.6,17-0.2,25.5-0.7c17.4-1.2,34.9-2.5,52.4-1.3c17,1.1,33.6,3.5,50.7,2.5c8.3-0.5,16.6-0.8,24.9,0.2c0.4,0,0.8,0.1,1.2,0.2c0.3-1.3,1.1-2.5,2.7-3.2c8.6-4.1,18-5.3,26.8-9c7.7-3.3,14.7-9.8,20.4-15.9c11.3-11.9,18.9-26.4,20.9-42.6C418,239.3,417.8,238.5,417.8,237.4z"/><path fill="#BCBCBC" d="M397,211.5c-6.5-24.5-14.4-51.2-32-69.8c-16.6-17.5-44.2-12.9-65.8-12.8c-30,0.2-60-1.1-89.7,4.4c-20.5,3.8-41.4,8-53.5,26.9c-5.5,8.7-10,18.4-14.6,27.6c-3.9,7.7-10.2,18.7-8.9,27.9c7-1.7,14.6-0.2,21.7,0.4c11.8,1,23.5-0.5,35.2-1c26.6-1.1,53.4,0.5,79.9,2.3c7,0.5,14,1,21,1.5c-5.4-8-1.8-20.8,4.7-27.4c8.4-8.4,21.3-14.6,33.2-15.5c11.9-0.9,25.2,2.1,34,10.7c9.2,8.9,11.9,21,8.5,33.2c0,0,0,0,0,0.1c1.6-0.1,3.3-0.2,4.9-0.3c6.2-0.5,13.6-0.6,19.7-3.1C394.8,214.7,395.6,212.8,397,211.5z"/><path fill="#F6851F" d="M452.5 258.7c-9 .8-18.2-.6-25.1-6.7-3.4 13.3-10 25.7-19.5 35.9-6.4 6.9-14.3 15.1-22.9 19.2-8.2 3.9-17.2 5.2-25.5 8.5 12 10.5.7 28.6-7.4 38-5.4 6.3-11.7 12.3-18.8 16.7-8.9 5.5-18.8 7-29.1 5.6-8.1-1.1-16.2-4.2-24.4-4.7-7.6-.5-15.1-.2-22.7.2-12.8.7-25.1.5-37.4-3.5-22.3-7.2-41.8-22.4-49.3-45.3-.7-2.1-.1-3.9 1-5.1.1-1.5.8-3 2.4-4.1-2-.4-4.1-.8-6-1.2-5.9-1.4-11.7-3.4-17.5-5.1-12-3.6-24.5-6.1-35.7-11.9-10.1-5.2-22.7-12.6-28.1-23.1-3.5-6.8-4.3-13.9-4.4-21.3-1.9 2.6-4 5.1-5.8 7.8-4 6.1-5.1 12.8-6 20-1.9 14.9-2.8 30.6-2.7 45.6 0 5.8.3 12.3 2.1 16.9 1.4 3.8 3.3 7.3 5.1 10.9 1.2 2.4 4.1 6.8 5.6 11.1 1.8-.2 3.7.6 4.9 2.6 5.7 9.4 16 15.9 26.3 19.3 11.6 3.8 24.2 1.6 35.9 5.3 1.2.4 2 1 2.7 1.8 1.9.3 3.7.7 5.3.9 11.1 1.8 20.9 2.6 32.2 2.7 32.1.3 64.2-.8 96.3.3 15.8.6 31.5-1.3 47.3-2.3 11.1-.8 22.1-.5 33.2-.6 8.6-.1 17.2-.3 25.8-.7 4-.2 8-.3 12-.6 1.2-.1 2.5-.2 3.7-.3 1.3-.1 1-.1.2.4.5-.2 1-.3 1.5-.4.1 0 .2-.1.3-.1 14.8-5.8 27.4-14.6 38.3-26.2 1.5-1.6 3.3-2 4.9-1.6 9.1-12.1 14.4-26 14.8-42.1C466.5 299.6 453.5 280.3 452.5 258.7zM169.9 381c-8.1 2.5-16.7 2.6-25.1 2.9-10.2.3-21.1 1.7-31-1.5-17.6-5.7-28.3-23.9-34.1-40.6-2.5-7.3-4.4-16.2.7-22.9 6.3-8.2 20-6.7 28.1-2.9 6.8 3.2 12.2 8.4 18.9 11.5 6.7 3 13.4 5.9 20 9.1 10.2 4.9 19.1 14.5 30.2 17.2 3.2-1.3 7.8.2 8.2 4.7C186.7 369.4 180.3 377.8 169.9 381zM449.4 349.9c-5.9 9-15.3 16-24.4 21.6-9.4 5.7-20.6 11.7-31.9 11.3-12.7-.4-25.3-4.1-36.7-9.7-3-1.5-3.4-4.5-2.3-6.9-.3-1.1-.3-2.4.3-3.7 1.3-3.3 3.2-6.2 5.4-9 7.5-9.3 17.9-15.7 27.9-22 8.2-5.2 15.4-11.3 23.2-17 7.8-5.6 17.1-11.8 27.1-11.4 10.2.4 15.7 9.3 17 18.5C456.1 330.8 454.5 342 449.4 349.9zM492.1 219.9c-5.4-13.1-19.7-11.9-31.4-9.4-7.1 1.5-14.3 3.6-20.7 7-2 1.1-4.8 2.5-7 4.2 1.9 1.9 2.5 5-.1 7.3-1.8 1.7-2.7 3.4-2.9 5.2 0 .3 0 .5 0 .8 0 4.4 4.1 8.7 8.8 11 6.8 3.3 15.4 1.5 22.4-.2 8.7-2.2 17.4-5.2 25.2-9.7C492.6 232.5 495.1 227 492.1 219.9z"/><path fill="#BCBCBC" d="M440.1,385.7c-7.3,5.6-15.2,10.3-23.8,14.1c-0.6,1.2-1.6,2.1-3.1,2.4c0,1.6-0.1,3.2,0,4.6c0,1.3,0.1,2.7,0.1,4c9.3-1.2,18.5-3.6,27.7-5.8C440.8,398.5,440.3,392.1,440.1,385.7z"/><path fill="#F6851F" d="M403.6,165.4c-4.2-7.7-8.3-15.3-12.3-23.1c-3.4-6.7-6.4-13.5-10.4-19.9c-7.1-11.4-16.2-24.1-30-27.3c-13.9-3.2-28.9-2.2-43-1.8c-32.6,1-65.1,3.8-97.4,7.9c-12.9,1.7-26.7,2.4-38.9,7.2c-13,5.1-20.4,14.9-26.3,27c-10.3,21.3-20.2,43.3-32.8,63.5c3.5,2.2,4,8.6-1.1,10.2c-0.7,0.2-1.4,0.5-2,0.7c1.3,1,2.5,2.1,3.7,3.1c1.4,1.1,1.9,2.5,1.9,3.8c2-0.8,4.2-1.1,6.4-1.1c-0.9-14.7,8.4-30,15-42.2c7.6-14.1,14.1-28.2,28.1-37.2c8.6-5.5,18.3-8.8,28.3-11c14-3,28.3-5.2,42.6-6.3c27.5-2.1,55.3-1.3,82.8-1.5c11.6-0.1,24,0.1,35.1,4.1c11.5,4.2,19.8,11.5,26.9,21.4c14.4,20.3,21.9,44.6,28.3,68.4c5-1.7,10.1,2.7,13.1,6.8c1.6-2.1,3.4-4,5.5-5.6C420.3,196.3,411.9,180.8,403.6,165.4z"/><path fill="#FEBF10" d="M145.8 348.2c-6-3.3-12.3-6.1-18.6-8.8-3.5-1.5-6.9-3.1-10.2-4.8-2.8-1.5-5.2-4-7.9-5.7-3.4-2.1-20.6-9.8-20.7-.8-.1 7.3 3.5 14.7 6.9 21 3.9 7.2 8.1 15.4 15.4 19.7 8.4 5 18.3 4.6 27.8 4.2 9.4-.4 31.1 1.9 35.5-8.7C163.4 361.4 155.1 353.4 145.8 348.2zM443.3 320.3c-.9-2.9-2.2-5.7-5.5-6-3.4-.4-7.4 1.4-10.3 3-7.7 4.1-14.5 9.6-21.3 15-13.1 10.4-32.6 17.5-40.7 32.9 8.9 4 19.1 7 28.7 6.6 9.4-.3 18.6-5.5 26.4-10.5 7.1-4.6 16.3-10.5 20.2-18.4C443.8 336.3 445.5 327.3 443.3 320.3z"/><path fill="#010101" d="M454.8 321.7c-1.3-9.3-6.8-18.1-17-18.5-10-.4-19.3 5.9-27.1 11.4-7.8 5.6-15 11.8-23.2 17-10 6.3-20.4 12.7-27.9 22-2.2 2.7-4 5.7-5.4 9-.5 1.3-.6 2.6-.3 3.7-1.1 2.4-.7 5.4 2.3 6.9 11.4 5.6 24 9.3 36.7 9.7 11.4.4 22.5-5.6 31.9-11.3 9.1-5.5 18.6-12.5 24.4-21.6C454.5 342 456.1 330.8 454.8 321.7zM440.6 342.8c-3.9 7.9-13 13.8-20.2 18.4-7.7 5-16.9 10.2-26.4 10.5-9.6.3-19.8-2.7-28.7-6.6 8.1-15.4 27.7-22.5 40.7-32.9 6.8-5.4 13.6-10.9 21.3-15 2.9-1.6 6.9-3.3 10.3-3 3.3.4 4.6 3.1 5.5 6C445.5 327.3 443.8 336.3 440.6 342.8zM185.8 358.4c-.4-4.5-5-6-8.2-4.7-11.1-2.7-20-12.3-30.2-17.2-6.6-3.2-13.3-6-20-9.1-6.8-3.1-12.2-8.3-18.9-11.5-8.1-3.8-21.9-5.3-28.1 2.9-5.1 6.7-3.3 15.6-.7 22.9 5.8 16.7 16.5 34.9 34.1 40.6 9.9 3.2 20.8 1.8 31 1.5 8.4-.2 17-.4 25.1-2.9C180.3 377.8 186.7 369.4 185.8 358.4zM138.4 373c-9.5.5-19.3.8-27.8-4.2-7.3-4.3-11.5-12.5-15.4-19.7-3.4-6.3-7-13.6-6.9-21 .2-9 17.3-1.3 20.7.8 2.7 1.7 5.1 4.2 7.9 5.7 3.3 1.8 6.7 3.4 10.2 4.8 6.3 2.7 12.6 5.4 18.6 8.8 9.3 5.2 17.7 13.2 28.1 16.1C169.4 374.8 147.8 372.5 138.4 373z"/><path fill="#010101" d="M504.4,223.8c-0.7-10.3-7.7-19.2-16.8-23.6c-7.3-3.5-16.4-2.6-24.1-1.4c-9.3,1.4-18.3,4.1-26.8,8c-11.7-27.4-27.2-53.1-40.5-79.7c-6.3-12.6-14.5-24.8-25.2-34.1c-10-8.7-23.1-10.4-35.8-11c-31.9-1.5-64.3,1.4-96,4.6c-15.2,1.5-30.3,3.5-45.5,5.4c-12.6,1.7-25.2,4.1-36.3,10.8c-16.1,9.8-22.7,28.9-30.7,44.9c-9,18-17.5,36.3-28.8,53c-10.8-7.7-22.8-14-35.8-14.5c-14.7-0.5-39,13.9-32.4,31.3c3.6,9.4,16.1,15.5,24.5,19.7c5.5,2.8,12.2,5.7,18.8,7.1c-1.8,2.5-3.8,5-5.6,7.5c-4.1,5.6-5.8,11.5-7,18.2c-2.8,15-2.8,30.5-3.6,45.6c-0.6,11.1-0.5,22.4,4.1,32.7c1.9,4.1,3.9,8.2,5.9,12.2c0.8,1.6,1.6,3.2,2.3,4.8c0.2,0.5,0.5,1.1,0.7,1.7c-0.3,1.4,0.2,2.8,1.1,4c-1,1.2-1.5,2.9-0.9,4.8c3.4,12.9-2.1,31.1,9,41.2c2.2,2,5.5,2.9,9.1,3.3c-2,12.9-3.4,29.7,5.3,40.2c8.6,10.3,25.9,9.2,38,10.6c6.3,0.7,12.3,0.8,18.1-2.1c6-3,8.2-10.8,9.1-16.8c2.5-15.5,0.8-31.8,1.1-47.5c0.4,0.1,0.8,0.1,1.2,0.2c12.2,2,24.7,1.8,37.1,1.8c16.2,0,32.5-0.3,48.7-0.3c15.7,0,31.5,1,47.2,0.7c15.8-0.3,31.6-2.3,47.4-3.1c9.4-0.4,18.8,0,28.2-0.1c1.1,0,2.1-0.1,3.2-0.1c-1.1,2.8-1.2,6.1-1.4,8.8c-0.4,6.4,0.3,12.9,1,19.2c1,8.5,1.6,23.9,10.7,28.2c6,2.8,13.2,3.3,19.7,3.7c6.4,0.4,13.5,0.6,19.7-1.4c13.6-4.4,13.9-22.1,12.3-34.7c0.4-1.2,0.5-2.5,0.1-3.7c-0.2-0.8-0.5-1.7-0.7-2.5c0.5-1.1,0.7-2.4,0.4-3.6c4.6-1.1,9.2-2.2,13.7-3.3c2.5-0.6,3.9-3.1,3.9-5.5c0.3-9.6-1-19.2-0.8-28.8c15.1-15,23.5-33,25.5-54.5c1.1-11.9-1.3-23.3-4.8-34.6c-3.5-11.3-8.1-22.5-8.4-34.5c8.8-2.1,17.3-5.3,25.3-9.3C498.5,242.6,505.2,235.2,504.4,223.8z M111.4,209.1c5.1-1.6,4.6-8.1,1.1-10.2c12.6-20.2,22.4-42.2,32.8-63.5c5.9-12.2,13.3-22,26.3-27c12.3-4.8,26-5.5,38.9-7.2c32.3-4.1,64.8-6.9,97.4-7.9c14.1-0.4,29.1-1.4,43,1.8c13.8,3.2,22.9,15.9,30,27.3c4,6.4,6.9,13.3,10.4,19.9c4,7.8,8.2,15.4,12.3,23.1c8.4,15.4,16.8,30.9,23.5,47.1c-2.1,1.6-4,3.5-5.5,5.6c-3-4.1-8.1-8.5-13.1-6.8c-6.3-23.8-13.8-48.2-28.3-68.4c-7.1-9.9-15.3-17.2-26.9-21.4c-11-4-23.5-4.2-35.1-4.1c-27.6,0.2-55.3-0.6-82.8,1.5c-14.3,1.1-28.6,3.3-42.6,6.3c-9.9,2.1-19.7,5.5-28.3,11c-14,9-20.5,23.1-28.1,37.2c-6.6,12.2-15.9,27.5-15,42.2c-2.2-0.1-4.4,0.3-6.4,1.1c0-1.3-0.5-2.7-1.9-3.8c-1.2-1-2.5-2-3.7-3.1C110,209.5,110.7,209.3,111.4,209.1z M333.4,343.3c-1.8-0.1-3.1,0.6-4,1.6c-17.5,4.3-36.1,2.9-53.9,2.1c-22.9-1.1-45.8-2.9-68.7-3.9c-2.9-0.1-4.6,1.6-5,3.8c-3.8-2.8-7.4-6-10.4-9.5c30.2,1.3,60.3,3.5,90.6,2.9c14.6-0.3,29.3-1.7,44-1.3c5.6,0.1,11-1.5,16.6-1.3c2.5,0.1,5.2,0.3,7.7-0.3c-2.5,4.4-5.6,8.3-9.1,12c0-2.8-2.1-5.8-5.7-5.9L333.4,343.3z M335.4,354.8c-0.2,0.2-0.5,0.4-0.7,0.6c-6,5.2-12.4,9.1-20.4,9.8c-7.5,0.7-15.1-1.4-22.3-3.1c-8-1.8-15.7-2.5-23.8-2.4c-9.8,0.1-19.6,1.7-29.4,0.8c-7.9-0.8-15.8-2.9-23.1-6c20.6,1.1,41.2,2.6,61.9,3.6C296.7,359.1,316.6,360.1,335.4,354.8z M349.8,325.9c-1.9-0.6-3.4-0.3-4.5,0.6c-0.2,0-0.4,0-0.6,0c-1.5,0-3-0.1-4.5-0.1c-3.1-0.1-6.7,0.9-9.8,1.2c-3.4,0.3-6.9,0.2-10.3,0.3c-14.1,0.4-28.2,1.1-42.3,1.3c-29.2,0.4-58.3-1.8-87.5-3c-2.5-0.1-4.1,1.2-4.8,3c-1.4-2.4-2.6-4.9-3.6-7.5c4.4-1.6,9.8-0.7,14.3-0.4c8.2,0.5,16.6-0.5,24.7-1c16.2-1.1,32.3-2.1,48.5-1.3c15.7,0.8,31.3,3.7,47,2.9c7.4-0.3,14.8-1,22.2-0.8c4.5,0.1,9.6,0.3,13.5,2.7c1.4,0.9,1.5,2.3,1.5,4.2C352.6,327,351.2,326.3,349.8,325.9z M350.4,307.5c-1.6,0.8-2.5,2-2.7,3.2c-0.4-0.1-0.8-0.1-1.2-0.2c-8.3-1-16.6-0.7-24.9-0.2c-17.1,1-33.7-1.4-50.7-2.5c-17.5-1.1-34.9,0.2-52.4,1.3c-8.5,0.6-17,1.3-25.5,0.7c0,0-0.1,0-0.1,0c-0.2-1.5-1.1-2.8-3-3.5c-9.1-3.6-19.1-5.2-28.4-7.8c-6-1.6-11.9-3.5-17.8-5.2c-5.9-1.7-11.9-3-17.6-5.3c-9.8-3.9-21.1-10.1-27.8-18.4c-6-7.5-5.2-17.4-4.9-26.4c7.9-2.5,16.4-7.1,20.1-13.7c2,0.2,4-0.9,5.2-2.6c0.2-0.1,0.2-0.1,0.1-0.1c0,0,0,0,0,0c0.8-0.3,0.9-0.3,2-0.3c1.2,0,2.7,0.4,3.8,0.9c2.3,1.2,4.4,0.7,5.9-0.6c1.2,0.3,2.5,0.2,3.8-0.4c3-1.4,8-0.4,11.1-0.2c4.2,0.3,8.3,0.9,12.5,1.1c12.5,0.7,25.1-1.1,37.7-1.4c26.7-0.7,53.6,1,80.2,2.9c26.4,1.8,52.8,3.6,79.3,2.6c8.4-0.3,16.8-0.5,25.1-1.2c7.9-0.7,16.5-1.6,23.6-5.6c1.3-0.7,2-1.7,2.4-2.7c1.4,0.9,3.3,1.2,4.8,0.6c0,0,0,0,0,0c1.3,1.3,2.3,2.9,3.2,4.5c1.8,3.1,3.7,7.2,3.6,10.2c0,1,0.2,1.9,0.6,2.7c-2,16.1-9.5,30.7-20.9,42.6c-5.7,6-12.7,12.6-20.4,15.9C368.5,302.2,359,303.4,350.4,307.5z M395.3,216.5c-6,2.5-13.4,2.6-19.7,3.1c-1.6,0.1-3.3,0.2-4.9,0.3c0,0,0,0,0-0.1c3.3-12.2,0.6-24.3-8.5-33.2c-8.8-8.5-22.1-11.6-34-10.7c-12,0.9-24.8,7.1-33.2,15.5c-6.6,6.6-10.2,19.4-4.7,27.4c-7-0.5-14-1-21-1.5c-26.5-1.8-53.3-3.3-79.9-2.3c-11.7,0.5-23.5,2-35.2,1c-7.1-0.6-14.7-2.1-21.7-0.4c-1.3-9.2,5-20.2,8.9-27.9c4.6-9.2,9.1-18.9,14.6-27.6c12-18.9,33-23.1,53.5-26.9c29.7-5.5,59.7-4.2,89.7-4.4c21.7-0.1,49.3-4.7,65.8,12.8c17.6,18.5,25.5,45.3,32,69.8C395.6,212.8,394.8,214.7,395.3,216.5z M360,220.4c-3.1,0.1-6.2,0.2-9.3,0.3c-16.4,0.6-32.9,0-49.3-1c0.8-2.3,0.3-5.1-2.2-6.8c-1.4-1-0.1-7.4,0.6-8.9c1.6-3.8,4.9-6.6,8.2-8.9c7.1-4.9,16.1-8,24.7-8.2c7.9-0.1,15.9,2.5,21.8,7.8c6.6,5.9,7.6,14.4,5.4,22.6C359.7,218.4,359.7,219.5,360,220.4z M58.1,226.9c-4-2-7.8-4.4-11.5-6.9c-2.3-1.6-6.3-4-6.8-7.1c-0.8-5.3,6.2-9.7,10-11.9c5.9-3.3,12.2-4.1,18.7-2.5c13,3.1,24.7,12.3,34.9,20.8c0,0.7,0,1.4,0.3,2.2c1.3,3.9-4.3,6.8-7.1,8.4c-4.5,2.5-10.1,4.4-15.3,4.6C73.8,234.7,64.7,230.2,58.1,226.9z M85.6,408.4c0.8,0.1-0.2-0.6-0.8-1.5c-0.6-1-0.8-2.4-1.1-3.5c-0.9-3.4-1-7-1.3-10.5c-0.3-4.5-0.3-9.1-0.8-13.7c6,6.4,13.7,11.1,21.9,14.6c7.8,3.3,15.9,3.8,24,4.5c-0.1,0.4-0.1,0.8-0.2,1.2l-0.5,11.2c-7.6-0.4-15.2-0.7-22.8-0.9C98,409.6,91.5,410,85.6,408.4z M148.2,442.8c-0.2,5.1-0.5,10.6-3,15.2c-2,3.9-9.2,2.7-12.7,2.3c-4.8-0.5-9.5-1.2-14.2-1.5c-5.2-0.3-11.2-1.1-15.5-4.4c-4.5-3.4-4.5-9.2-4.8-14.4c-0.3-6,0-12,0.9-17.9c0.1-0.5,0.1-0.9,0.1-1.3c0.7,0,1.3,0,1.9,0c10.5,0.2,21,0.7,31.5,1.1c3.2,0.1,5.2-2.9,5.4-5.8l0.5-12.5c0.5-0.2,0.9-0.6,1.3-1c0.5,0,1.4-0.1,1.2-0.1c1.8-0.1,3.5,0.1,5.3,0.3c0.8,0.1,1.6,0.2,2.4,0.3C148.1,416.3,148.6,429.6,148.2,442.8z M417,452.3c-4.7,1-10.1,0.6-14.8,0.4c-4.7-0.2-10.3-0.6-14.6-2.6c0,0-0.1,0-0.1,0c-0.2-0.3-0.3-0.5-0.3-0.5c-0.6-1.5-1.1-3.1-1.5-4.7c-1.2-4.7-2-9.6-2.6-14.4c-0.6-5.1-1-10.3-1-15.5c0-1.6,0.1-3.3,0.3-4.9c0.1-0.6,0.2-1.2,0.4-1.9c1.6-1.4,1.9-3.1,1.6-4.6c3.8-0.1,7.5-0.3,11.3-0.4c1.6-0.1,3.8,0,6.2,0c0.1,1.6,0.1,3.3,0.1,4.9c0.1,3,0.1,5.9,0,8.9c-0.1,3,2.9,5.5,5.8,5.4c5.1-0.3,10.1-1,15.1-2c0,0.3,0,0.7,0,1.1c-2.9,2.4-2,7.4,1,9.2C424.9,438.7,425.1,450.5,417,452.3z M413.3,410.7c0-1.3,0-2.7-0.1-4c0-1.4,0.1-3,0-4.6c1.5-0.3,2.5-1.2,3.1-2.4c8.5-3.8,16.5-8.5,23.8-14.1c0.1,6.4,0.7,12.8,0.8,19.3C431.8,407.2,422.6,409.6,413.3,410.7z M465.9,321.5c-0.4,16-5.7,30-14.8,42.1c-1.6-0.4-3.4,0-4.9,1.6c-10.8,11.6-23.5,20.3-38.3,26.2c-0.1,0-0.2,0.1-0.3,0.1c-0.5,0.1-1,0.2-1.5,0.4c0.8-0.4,1.2-0.5-0.2-0.4c-1.2,0.1-2.5,0.2-3.7,0.3c-4,0.3-8,0.4-12,0.6c-8.6,0.3-17.2,0.6-25.8,0.7c-11.1,0.1-22.1-0.2-33.2,0.6c-15.8,1.1-31.4,2.9-47.3,2.3c-32.1-1.1-64.2,0-96.3-0.3c-11.3-0.1-21.1-0.9-32.2-2.7c-1.6-0.3-3.4-0.6-5.3-0.9c-0.6-0.8-1.5-1.4-2.7-1.8c-11.7-3.7-24.3-1.5-35.9-5.3c-10.3-3.4-20.6-9.9-26.3-19.3c-1.2-2-3.1-2.7-4.9-2.6c-1.5-4.3-4.4-8.7-5.6-11.1c-1.8-3.6-3.6-7.2-5.1-10.9c-1.7-4.6-2-11.1-2.1-16.9c-0.1-15,0.8-30.7,2.7-45.6c0.9-7.2,2-13.9,6-20c1.8-2.7,3.8-5.2,5.8-7.8c0,7.3,0.9,14.5,4.4,21.3c5.4,10.5,18,17.9,28.1,23.1c11.2,5.8,23.7,8.3,35.7,11.9c5.8,1.8,11.6,3.8,17.5,5.1c2,0.5,4,0.8,6,1.2c-1.6,1.1-2.3,2.6-2.4,4.1c-1.1,1.2-1.7,3-1,5.1c7.4,22.9,27,38.1,49.3,45.3c12.3,4,24.7,4.3,37.4,3.5c7.6-0.4,15.1-0.7,22.7-0.2c8.2,0.6,16.2,3.6,24.4,4.7c10.4,1.4,20.3-0.1,29.1-5.6c7.1-4.4,13.4-10.4,18.8-16.7c8.1-9.5,19.4-27.6,7.4-38c8.3-3.3,17.4-4.7,25.5-8.5c8.6-4.1,16.5-12.3,22.9-19.2c9.5-10.2,16.1-22.6,19.5-35.9c6.9,6.1,16,7.6,25.1,6.7C453.5,280.3,466.5,299.6,465.9,321.5z M486.3,236.2c-7.7,4.6-16.5,7.5-25.2,9.7c-7,1.8-15.6,3.5-22.4,0.2c-4.6-2.2-8.8-6.5-8.8-11c0-0.3,0-0.5,0-0.8c0.2-1.8,1.1-3.5,2.9-5.2c2.6-2.4,2-5.4,0.1-7.3c2.2-1.7,4.9-3.2,7-4.2c6.4-3.4,13.6-5.5,20.7-7c11.7-2.5,26-3.7,31.4,9.4C495.1,227,492.6,232.5,486.3,236.2z"/></svg>