<svg xmlns="http://www.w3.org/2000/svg"  viewBox="0 0 48 48" width="64px" height="64px"><path fill="#d6e5e5" d="M14.704,37.762c-1.485,1.874-3.941,3.433-6.288,3.889s-4.853,0.046-6.932-1.136 c0.453-0.552,1.252-0.621,1.942-0.807C5.49,39.15,6.92,37.297,7.997,35.45c0.04-0.069,0.081-0.143,0.078-0.223 c-0.007-0.144-0.149-0.236-0.274-0.308c-0.973-0.565-1.795-1.352-2.606-2.132c-1.08-1.038-2.921-2.839-3.216-4.307 c-1.103-5.498,0.337-9.287,1.345-12.175s3.054-5.572,5.939-6.588C12.396,8.613,16.049,8.268,19.359,8 c1.731-0.14,8.169-0.411,9.656-0.391c2.985,0.04,6.119,1.354,8.769,2.728c1.698,0.88,3.098,2.248,4.304,3.733 c2.073,2.552,3.982,5.221,4.307,8.493c0.48,4.831-2.198,9.968-5.552,13.478c-0.909,0.952-1.932,1.856-3.18,2.273 c-0.821,0.274-1.697,0.324-2.561,0.371c-2.876,0.157-6.413,0.554-9.29,0.711c-1.056,0.058-2.116,0.115-3.17,0.034 C20.465,39.262,16.756,38.508,14.704,37.762z"/><path d="M6.527,42.331c-1.843,0-3.696-0.476-5.291-1.382c-0.128-0.073-0.218-0.198-0.244-0.344 c-0.027-0.146,0.012-0.295,0.105-0.408c0.47-0.572,1.17-0.731,1.787-0.873c0.139-0.031,0.276-0.063,0.41-0.099 c1.989-0.537,3.341-2.455,4.199-3.907c-1.007-0.597-1.84-1.397-2.646-2.172c-1.571-1.509-3.066-3.107-3.359-4.568 c-1.092-5.439,0.265-9.307,1.255-12.131l0.108-0.308c1.187-3.403,3.463-5.916,6.244-6.896c3.114-1.096,6.612-1.449,10.223-1.742 c1.706-0.139,8.154-0.43,9.703-0.393c3.331,0.045,6.728,1.61,8.993,2.783c1.542,0.801,3.002,2.063,4.461,3.861 c1.955,2.407,4.069,5.267,4.416,8.759c0.526,5.289-2.593,10.634-5.688,13.873c-0.882,0.924-1.974,1.932-3.384,2.402 c-0.893,0.298-1.849,0.35-2.691,0.396c-1.431,0.078-3.058,0.219-4.631,0.354c-1.58,0.137-3.214,0.277-4.659,0.356 c-1.067,0.06-2.151,0.118-3.236,0.033c-2.179-0.168-5.674-0.887-7.735-1.579c-1.599,1.872-4.055,3.346-6.356,3.794 C7.86,42.269,7.194,42.331,6.527,42.331z M2.482,40.463c1.809,0.82,3.895,1.077,5.838,0.697c2.193-0.427,4.545-1.883,5.992-3.709 c0.134-0.169,0.362-0.232,0.563-0.159c1.929,0.701,5.576,1.467,7.806,1.64c1.016,0.077,2.069,0.021,3.088-0.034 c1.446-0.079,3.072-0.22,4.645-0.355c1.581-0.137,3.216-0.277,4.662-0.356c0.818-0.045,1.665-0.091,2.43-0.347 c1.202-0.401,2.18-1.309,2.978-2.145c2.94-3.078,5.908-8.131,5.416-13.082c-0.32-3.218-2.249-5.829-4.197-8.228 c-1.372-1.689-2.729-2.868-4.146-3.604c-2.175-1.127-5.427-2.63-8.546-2.672c-1.5-0.02-7.917,0.252-9.609,0.389 c-3.541,0.288-6.969,0.633-9.971,1.689C6.973,11.052,4.867,13.4,3.796,16.47l-0.107,0.309c-1.006,2.866-2.257,6.433-1.219,11.603 c0.271,1.355,2.163,3.172,3.072,4.045c0.778,0.748,1.583,1.521,2.511,2.061c0.136,0.078,0.502,0.288,0.521,0.717 c0.012,0.23-0.091,0.405-0.146,0.499c-0.942,1.616-2.473,3.841-4.872,4.488C3.41,40.23,3.259,40.265,3.107,40.3 C2.889,40.35,2.675,40.398,2.482,40.463z"/><path fill="#73a1b2" d="M35.667,18.563c-0.573-0.044-1.108,0.266-1.599,0.565c-1.092,0.665-2.922,1.689-4.395,2.54 c0.119-1.129,0.233-2.262,0.326-3.418c0.014-0.18,0.024-0.378-0.078-0.523c-0.079-0.113-0.211-0.169-0.338-0.211 c-0.535-0.178-3.305-0.016-3.866-0.016c-2.856,0-5.844,0.079-9.122,0.039c-0.705-0.009-1.413-0.017-2.111,0.087 c-0.561,0.084-1.159,0.272-1.486,0.758c-0.272,0.404-0.301,0.93-0.319,1.424c-0.035,0.904-0.069,1.809-0.104,2.713 c-0.028,0.728-0.056,1.456-0.084,2.185c-0.049,1.268-0.093,2.568,0.281,3.775c0.058,0.187,0.134,0.382,0.288,0.493 c0.125,0.089,0.281,0.11,0.431,0.127c4.343,0.506,9.499,0.533,13.867,0.439c0.569-0.012,1.244-0.095,1.513-0.622 c0.104-0.204,0.124-0.442,0.143-0.672c0.051-0.637,0.112-1.264,0.173-1.891c1.691,0.666,3.97,1.793,5.095,2.765 c0.213,0.184,0.489,0.388,0.749,0.279c0.241-0.101,0.303-0.407,0.333-0.667c0.142-1.244,0.284-2.488,0.427-3.732 C36.045,22.77,36.167,20.751,35.667,18.563z"/><path d="M36.154,18.451c-0.049-0.214-0.23-0.37-0.449-0.388c-0.758-0.037-1.418,0.345-1.897,0.638 c-0.729,0.443-1.425,0.821-2.12,1.2c-0.466,0.253-0.936,0.514-1.411,0.786c0.079-0.792,0.155-1.592,0.219-2.397 c0.016-0.193,0.045-0.552-0.166-0.85c-0.165-0.236-0.402-0.338-0.59-0.4c-0.413-0.136-1.482-0.127-3.309-0.063 C26.107,16.99,25.85,17,25.717,17c-1.112,0-2.244,0.012-3.405,0.024c-1.82,0.019-3.712,0.037-5.729,0.015 c-0.708-0.009-1.44-0.017-2.173,0.094c-0.877,0.129-1.475,0.448-1.828,0.974c-0.358,0.533-0.385,1.197-0.404,1.684l-0.188,4.897 c-0.047,1.237-0.102,2.639,0.304,3.943c0.082,0.262,0.202,0.556,0.473,0.749c0.231,0.166,0.492,0.197,0.666,0.218 c2.788,0.324,6.135,0.484,10.158,0.484c1.198,0,2.456-0.014,3.777-0.042c0.413-0.01,1.511-0.034,1.948-0.896 c0.149-0.295,0.175-0.607,0.194-0.858c0.034-0.425,0.077-0.844,0.116-1.266c1.574,0.538,3.069,1.391,4.327,2.477 c0.15,0.131,0.5,0.434,0.923,0.434c0.111,0,0.228-0.021,0.346-0.07c0.542-0.227,0.611-0.841,0.638-1.071l0.427-3.732 C36.57,22.577,36.646,20.606,36.154,18.451z M29.009,23.192c-0.177,1.628-0.358,3.311-0.494,5.014 c-0.015,0.18-0.03,0.366-0.091,0.485c-0.113,0.225-0.456,0.335-1.077,0.349c-5.712,0.123-10.227-0.021-13.798-0.436 c-0.06-0.008-0.17-0.021-0.198-0.036c-0.012-0.011-0.046-0.056-0.103-0.235c-0.354-1.14-0.305-2.394-0.258-3.606l0.188-4.898 c0.019-0.49,0.049-0.888,0.234-1.164c0.188-0.278,0.562-0.456,1.146-0.543c0.477-0.071,0.957-0.086,1.461-0.086 c0.187,0,0.376,0.002,0.57,0.004c2.007,0.023,3.906,0.004,5.733-0.015C23.479,18.012,24.608,18,25.717,18 c0.139,0,0.411-0.01,0.75-0.021c0.719-0.026,2.628-0.094,2.958,0.012c0.044,0.015,0.069,0.025,0.079,0.025h0.001 c0.006,0.053-0.002,0.156-0.005,0.194C29.364,19.898,29.184,21.573,29.009,23.192z M35.293,24.943l-0.427,3.732 c-0.014,0.127-0.031,0.199-0.029,0.234c-0.042-0.022-0.114-0.069-0.229-0.169c-1.374-1.188-3.011-2.119-4.731-2.695 c-0.053-0.019-0.106-0.021-0.159-0.021c0.092-0.92,0.188-1.831,0.285-2.725c0.049-0.453,0.097-0.92,0.146-1.381 c0.69-0.416,1.355-0.779,2.016-1.14c0.71-0.386,1.42-0.772,2.163-1.225c0.334-0.204,0.645-0.382,0.94-0.458 C35.629,20.957,35.546,22.735,35.293,24.943z"/></svg>