<svg xmlns="http://www.w3.org/2000/svg"  viewBox="0 0 512 512" width="64px" height="64px"><path d="M5.9,259.3c-1.7,1.6-1.9,4.9-0.4,6.7c1.1,1.4,2.3,2.7,3.5,4v-13.5C7.9,257.4,6.9,258.3,5.9,259.3z"/><path fill="#1E4384" d="M268.6,92.4c0-0.2,0-0.4,0-0.6c0-1.7-2.1-4.8-2.8-6.4c-0.5-1.2-1-2.4-1.6-3.5c-9.6,5-19.5,9.4-29.5,13.4c-2.2,0.9-4.5,1.7-6.7,2.6c1.8,7.9,3,15.8,3.6,23.9c4.1,53.7-12.7,108-35.1,156.2c-11.3,24.4-24.9,47.7-38.4,71c-2.2,3.8-4.4,7.6-6.5,11.5c0,0-2.1,5.1-2,2.5c0,0.9-0.1,1.8-0.2,2.7c-0.7,3.6-1.8,7.2-3.1,10.6c-0.7,1.8-1.5,3.4-2.6,4.7c-0.5,11.3-3.8,22.7-6.1,33.7c-2,9.4-6.5,25.6-0.7,33.6c0.9,1.3,2.2,2.5,3.9,2.9c2.8,0.8,5.5,1,8.4,0.8c11.3-1,22.4-5.4,32.8-9.8c9.9-4.2,19.5-9.1,29-14.2c-0.5-0.7-0.8-1.6-1-2.7c-0.3-1.9,0.6-3.4,0.9-5.2c0.4-2.3,1.7-3.6,3.4-4.1c4.1-10.2,6.4-21,8.4-31.9c2.5-13.4,5.2-26.6,8.7-39.9c7.5-28.4,15.6-56.6,22.5-85.1c7-28.9,13-57.9,14.5-87.6C269.3,145,268.7,118.7,268.6,92.4z"/><path fill="#FEBF10" d="M494.7,281.2c-0.6,0-1.3,0-1.6,0.2c-1.3,0.9-2.6,1.1-3.8,0.9c-0.3,0-0.5,0.1-0.8,0.1c-14.9-0.2-28.4-5.8-37.2-18.1c-20.2-28.3-15-66.4-25.3-98.2c-3.5-10.7-9.4-21.1-15.5-30.5c-6.2-9.7-13.3-19-21.6-27.1c-4.9-4.8-10.2-9.1-15.7-12.9c-0.4,13.4-0.2,26.7-0.2,40.1c0.1,16.2,0,32.5-1.4,48.6c-1.4,15.9-4.3,31.6-6.4,47.4c-4.1,31.6-7.1,63.4-6.9,95.3c0.1,20.4,1.8,40.4,3.9,60.7c0.7,7.1,1.5,14.3,1.6,21.4c9.5-8.5,20.6-12.9,31.5-19.1c11.5-6.6,22.7-14,32.5-23c4.9-4.5,9.6-9.3,13.7-14.5c3.9-4.8,6.9-10.1,10.5-15.1c6.9-9.6,12.9-20,20.4-29.3c6.7-8.3,14.7-15,23.9-20.2C495.9,285.5,495.4,283.4,494.7,281.2z M406.7,247.9c-8.4,1.5-14.6-3.2-17.1-10.3c-2.3-1.3-3.8-4-2.5-7.2c3.2-7.6,10.5-15.7,18.8-17.6c10.6-2.5,17.5,7.6,17.8,17.2C423.9,239.3,415.2,246.4,406.7,247.9z"/><path fill="#1E4384" d="M362.5 88.8c-7.5-4.2-15.5-7.5-23.8-10 .2.7.4 1.5.5 2.3.4 1.7 0 3.1-.7 4.3 4 20.5 6 41.4 6 62.4 0 59.8-13.9 118.8-34.8 174.6-7.7 20.5-15.9 40.9-25.7 60.5-4.1 8.1-8.3 16.1-13.4 23.7-2.3 3.5-5.7 8.6-10.2 9.7-.1.1-.1.2-.2.3-7.8 9.7-18.5 22.2-20.4 35.3 3.9-2 8.4 1.9 7.7 6.1-.2 1.4-.7 3.5-.3 5 2 .3 5-.2 7.3-.5 5-.5 10.5-.6 14.7 2.2 8.3-2.2 14.3 2.7 22.2 6 8.1 3.4 15.9-3.7 22.1-8.4 8.2-6.2 16.6-12.4 23.1-20.4 4.9-6.1 9.5-12.7 14.5-18.9-.7-2.1-.2-4.6 1.4-6.1 0-.1 0-.2.1-.3.2-1.3.2-1.9.3-3.1.2-16.2-2.8-32.2-4-48.3-2.1-28.1-1.7-56.2.3-84.2 1.2-15.9 2.8-31.7 4.8-47.5 2-15.8 5-31.4 6.5-47.3C363.5 153.7 361 121.2 362.5 88.8zM412.5 229.3c-1-4.9-2.6-7.6-7.1-4.3-2.4 1.7-4.5 3.8-6.2 6.3.1.4.2.8.3 1.2.6 4.3 3.4 5.7 7.4 4.1C409.7 235.4 413.2 232.8 412.5 229.3z"/><path fill="#FEBF10" d="M217.5,101.8c-8.2,3.1-16.4,6.1-24.5,9.5c-3.9,1.6-7.8,3.3-11.7,5c-0.2,0.8-0.5,1.5-1.1,2.3c-53.8,67.9-33.7,162.2-72.1,236.6c4.8-0.3,9.6-0.1,14.2,1.1c6.5,1.7,11.7,5.1,15.6,9.8c0.3-1.1,0.6-2.2,0.7-3.3c-0.2,1.6,0.5-2.4,0.6-2.4c0.8-1.6,1.7-3.3,2.6-4.9c6.8-12.5,13.9-25,21.2-37.3c12.8-21.7,24.1-44.2,33.4-67.6C214.7,204.5,228.3,151.5,217.5,101.8z"/><path fill="#FEBF10" d="M326.5,81.3c-0.3-1.3-0.1-2.4,0.4-3.3c-4.1-11.2-12.1-20-23.1-25.8c-17.4-9-37.8-11.8-57.2-11.9c-30.3-0.2-56.8,12.9-85.8,19.5c-24.8,5.6-50.1,7-75.4,6.3c-9-0.3-18.1-0.5-27.1-0.6c-0.3,0-0.6,0-0.9,0c7.9,4.7,17.1,7.6,25.7,9.8c25.4,6.3,53.1,5.1,78.9,1.5c13.1-1.8,25.9-4.8,38.7-8.1c12.6-3.3,25.6-7,38.7-7.4c9.6-0.3,21.6,0.1,28.7,7.7c2.8,3,4.8,6.2,6.6,9.9c0.1,0.3,0.3,0.6,0.5,0.9c2.3,0.2,4.3,1.8,4.3,4.9c0,29.9,1,59.9-0.7,89.8c-1.7,30.1-7.7,59.4-14.9,88.6c-7.1,29-14.8,58.1-23,86.8c-6.7,23.4-7.9,48.2-16.9,70.8c9.6-5.4,19.2-10.9,29-16.1c2-1.1,3.9-0.9,5.5,0c0.5-0.5,1-1.1,1.4-1.7c2.1-2.8,4-5.9,5.8-9c9.2-15.9,16.7-32.8,23.7-49.8c11.5-27.7,21.5-56,29-85C333.3,200.9,338.9,140.3,326.5,81.3z"/><path fill="#1E4384" d="M162.2,123.8c-20.5,6.8-41.8,11.6-61.6,20.2c-9.4,4-18.5,8.9-26.3,15.5c-7.2,6.1-15.2,15.2-17.1,24.7c-0.1,0.7-0.2,1.3-0.3,1.9c0.7-0.5,1.7-0.7,2.8-0.7c10.7,0.1,21,2,31.5,4.1c7,1.4,4.9,12.2-2.1,10.8c-9.4-1.9-18.9-3.8-28.5-3.9c-1.2,0-2.2-0.3-3-0.9c0.9,4,2.5,7.9,4.2,11.7c0.8-1.1,2.1-1.8,4-1.8c7.4,0.1,14.6,1.9,22,2c7,0.1,7.9,11.1,0.8,11c-7.4-0.1-14.6-1.9-22-2c-0.3,0-0.6,0-0.9-0.1c2.8,7.2,4.6,14.5,4.2,22.4c2.8,2.8,1.9,9.1-3.3,9.7c-9.5,1.2-19,3.1-28.1,6c-7,2.2-14.5,4.8-20.6,9.2c4.2,4.8,8.9,9.6,11.8,15.1c13-3.7,26.6-5.2,40-5.3c7.1,0,7.9,10.9,0.8,11c-12.8,0.1-25.8,1.3-38.1,4.9c0,4.7-1.4,9.5-3,14c-1.1,3-2.4,6-3.1,9.2c-0.2,0.8-0.2,1.2-0.2,1.5c0.6,0.7,1.6,1.7,1.9,2.2c0.5,0.8,1,1.5,1.4,2.4c8.2-1.9,17.3-4.8,22.5-11.3c4.5-5.5,12.7,1.7,8.3,7.3c-6.6,8.2-17,11.9-27.1,14.4c1.3,5,1.8,9.8,0.3,14.8c0.8,0.5,1.5,1.1,2.2,1.7c0,0,0.1,0,0.1,0c5.8-1.1,11.7-1.9,17.5-3.3c5.1-1.3,11.3-2.6,14.8-6.8c4.5-5.5,12.8,1.8,8.3,7.3c-8.4,10.2-24.6,11.3-37.2,13.4c-0.2,4.3-1.6,9.1-3.3,13.4c7.1,1,15.1-0.9,21.6-2.5c11.1-2.7,22-6.2,33.2-8.7c2-0.5,4.1-0.9,6.2-1.3c-0.1-0.4-0.2-0.9-0.2-1.4v-6c0-3.3,2.4-5.2,4.9-5.7c16.4-35.5,20.5-75.2,26.5-113.6c5.9-37.5,14.5-74.8,35.2-106.7C162.8,123.5,162.5,123.6,162.2,123.8z M101.6,181.8c-9.3-3.5-19.4-3.4-29.1-3.4c-7.1,0-7.9-11-0.8-11c11.9,0,23.6,0.3,34.9,4.6C113.1,174.4,108.2,184.3,101.6,181.8z M109.6,171.8c-7.8-3.7-16.3-5.5-24.6-7.5c-6.9-1.7-4.8-12.5,2.1-10.8c9.3,2.3,18.7,4.3,27.4,8.5C120.9,165,116,174.9,109.6,171.8z"/><path d="M503.2,273.1c-1.5-3.2-5.1-4.8-8.3-2.7c-0.6,0.4-2.5,0.1-3.2,0.2c-1.2,0.1-2.3,0.5-3.3,1c-0.3,0-0.5-0.1-0.8-0.1c-37.4-0.4-40.5-47.8-44.5-75.5c-1.3-8.6-2.6-17.2-4.6-25.6c-2.2-9.7-6.4-18.4-11-27.3c-10.7-20.6-25.3-39.4-43.7-53.6c-14.8-11.4-32-19.2-50.1-23.4c-16.6-30.3-59.6-36.9-92-36.7c-30.1,0.2-57.5,13.9-86.3,20.4c-24.1,5.5-49.2,5.9-73.8,5.2c-9.1-0.3-18.2-0.5-27.2-0.6c-4.8,0-13.3-1.3-17.5,1.8c-1.8,1.3-2.4,3.1-2.2,4.9c0,0.2-0.1,0.4-0.1,0.7c-0.4,4.6,4.3,7.2,7.6,6.3c1.1,0.9,2.2,1.8,3.4,2.6c3,2.4,6.2,4.2,9.6,5.9c10.3,5.1,21.3,8.6,32.5,10.9c23.3,4.8,48.3,3.4,71.8,0.6c22.9-2.7,44.5-10.2,67.1-14.4c9.1-1.7,20.4-3.4,29.3,0.1c-25.3,12.9-53,20.3-78.7,32.3c-18.9,8.8-39.7,13.4-59.5,19.8c-19.9,6.4-39.9,14.6-55.1,29.3c-7.4,7.2-13.8,16.8-16.3,26.9c-2.4,9.9,1,19.9,5,28.8c3.2,7.4,6.9,14.8,7.5,22.8c-0.1,0.5-0.2,1.1-0.2,1.7v3.1C41.3,241,22.4,245.6,9,256.5V270c4.1,4.5,8.7,9.2,11.3,14.4c3.1,6.3-0.7,14.1-3.2,20c-1.3,3.3-2.6,7.8-2.1,11.4c0.3,2.6,2,4.3,3.4,5.9c1.2,1.5,2,3.3,2.6,5.2c0.1,0.3,0.1,0.5,0.2,0.7c0.5,1.7,0.9,3.4,1.5,5c1.5,4.5,0.7,7.6-1.6,11.8c-1.8,3.1,0.5,7.2,3.9,7.8c4,0.7,3.8,2.7,3,6.3c-0.9,4.2-3,8.1-4.9,11.9c-1.3,2.5-0.3,6.2,2.5,7.4c8.6,3.5,17.9,2.8,26.9,1.2c10.9-2,21.4-5.3,32.1-8.2c15.2-4.1,39.9-11.2,48.1,7.4c0,13.3-4.6,26.8-7.1,39.7c-2.3,12.1-5.4,28.8,4.1,38.7c13,13.7,38.6,2.6,52.5-3c20.5-8.2,39.6-19.3,58.9-30.2c-7.6,10.8-13.7,23-12.5,35.9c0.3,3.1,2.9,5.1,5.9,5.1c0.7,0,1.4,0,2.1-0.1c0.8,4.9,3.6,8.9,9.7,9.6c5.3,0.5,14.2-3.3,18.2,1.2c1.2,1.3,3.9,1.8,5.5,1.1c4.6-2.1,7.6-0.5,11.7,1.8c4.7,2.6,9,4.4,14.4,4.7c8.8,0.5,17.1-6.3,23.6-11.3c8-6,16.5-12.1,23-19.7c9.4-10.7,17.1-22.6,27-33c8.7-9.2,20.9-13.5,31.8-19.6c11.5-6.5,22.4-14,32.3-22.8c9.6-8.6,17.9-18.2,24.9-29c6.5-10.1,13.2-20.4,20.4-30c7.1-9.4,15.7-16.5,26.1-21.8c1.7-0.9,2.5-3.2,2.4-5C507.3,284.4,505.8,278.5,503.2,273.1z M96.5,349.3v6c0,0.5,0.1,1,0.2,1.4c-2.1,0.4-4.2,0.9-6.2,1.3c-11.2,2.5-22.1,6-33.2,8.7c-6.5,1.6-14.5,3.5-21.6,2.5c1.7-4.3,3.1-9.1,3.3-13.4c12.5-2.1,28.8-3.2,37.2-13.4c4.5-5.5-3.8-12.7-8.3-7.3c-3.5,4.2-9.7,5.6-14.8,6.8c-5.8,1.4-11.7,2.2-17.5,3.3c0,0-0.1,0-0.1,0c-0.6-0.6-1.3-1.2-2.2-1.7c1.5-5,1-9.8-0.3-14.8c10.1-2.5,20.6-6.2,27.1-14.4c4.4-5.5-3.8-12.8-8.3-7.3c-5.3,6.6-14.3,9.5-22.5,11.3c-0.4-0.8-0.9-1.6-1.4-2.4c-0.3-0.5-1.3-1.5-1.9-2.2c0-0.2,0-0.7,0.2-1.5c0.7-3.2,2-6.2,3.1-9.2c1.7-4.5,3-9.3,3-14c12.3-3.6,25.3-4.9,38.1-4.9c7.1,0,6.2-11-0.8-11c-13.4,0.1-27.1,1.5-40,5.3c-3-5.5-7.6-10.4-11.8-15.1c6.1-4.4,13.6-7,20.6-9.2c9.1-2.9,18.6-4.7,28.1-6c5.2-0.7,6.1-7,3.3-9.7c0.4-7.8-1.4-15.1-4.2-22.4c0.3,0,0.6,0.1,0.9,0.1c7.4,0.1,14.6,1.9,22,2c7.1,0.1,6.2-10.9-0.8-11c-7.4-0.1-14.6-1.9-22-2c-1.9,0-3.2,0.7-4,1.8c-1.7-3.8-3.3-7.7-4.2-11.7c0.8,0.5,1.8,0.9,3,0.9c9.6,0.1,19.1,2,28.5,3.9c7,1.4,9.1-9.4,2.1-10.8c-10.4-2.1-20.8-4-31.5-4.1c-1.1,0-2.1,0.3-2.8,0.7c0.1-0.6,0.2-1.3,0.3-1.9c1.9-9.5,9.9-18.6,17.1-24.7c7.8-6.6,17-11.5,26.3-15.5c19.9-8.6,41.1-13.4,61.6-20.2c0.3-0.1,0.7-0.2,1-0.4c-20.7,31.9-29.3,69.2-35.2,106.7c-6,38.4-10.1,78-26.5,113.6C98.9,344.1,96.5,346,96.5,349.3z M122.2,356.3c-4.6-1.2-9.4-1.5-14.2-1.1c38.4-74.4,18.3-168.7,72.1-236.6c0.6-0.7,0.9-1.5,1.1-2.3c3.9-1.7,7.8-3.4,11.7-5c8.1-3.4,16.3-6.4,24.5-9.5c10.8,49.7-2.8,102.7-21.3,148.9c-9.3,23.4-20.7,46-33.4,67.6c-7.2,12.3-14.3,24.7-21.2,37.3c-0.9,1.6-1.7,3.3-2.6,4.9c0,0.1-0.7,4-0.6,2.4c-0.1,1.1-0.4,2.2-0.7,3.3C133.9,361.4,128.7,358,122.2,356.3z M214,415.8c-1.7,0.5-3,1.8-3.4,4.1c-0.3,1.8-1.2,3.3-0.9,5.2c0.2,1,0.5,1.9,1,2.7c-9.5,5.1-19.1,10-29,14.2c-10.4,4.4-21.5,8.9-32.8,9.8c-2.9,0.2-5.6,0-8.4-0.8c-1.7-0.5-3-1.7-3.9-2.9c-5.8-7.9-1.2-24.1,0.7-33.6c2.3-11,5.5-22.3,6.1-33.7c1.1-1.3,1.9-2.9,2.6-4.7c1.4-3.4,2.5-7,3.1-10.6c0.2-0.9,0.2-1.8,0.2-2.7c-0.1,2.6,2-2.5,2-2.5c2.1-3.9,4.3-7.7,6.5-11.5c13.5-23.2,27.1-46.6,38.4-71c22.4-48.2,39.2-102.5,35.1-156.2c-0.6-8-1.9-16-3.6-23.9c2.2-0.8,4.5-1.7,6.7-2.6c10.1-4,20-8.3,29.5-13.4c0.6,1.1,1.1,2.3,1.6,3.5c0.7,1.6,2.8,4.7,2.8,6.4c0,0.2,0,0.4,0,0.6c0.1,26.3,0.8,52.6-0.5,78.8c-1.5,29.7-7.5,58.7-14.5,87.6c-6.9,28.5-15,56.7-22.5,85.1c-3.5,13.2-6.2,26.4-8.7,39.9C220.4,394.7,218.1,405.5,214,415.8z M224,420.5c9-22.6,10.2-47.5,16.9-70.8c8.2-28.7,15.9-57.8,23-86.8c7.2-29.2,13.1-58.5,14.9-88.6c1.7-29.9,0.7-59.8,0.7-89.8c0-3-2-4.6-4.3-4.9c-0.2-0.3-0.3-0.6-0.5-0.9c-1.7-3.7-3.8-6.9-6.6-9.9c-7.1-7.5-19.1-8-28.7-7.7c-13.1,0.5-26.1,4.1-38.7,7.4c-12.8,3.3-25.6,6.3-38.7,8.1c-25.8,3.6-53.4,4.8-78.9-1.5c-8.6-2.1-17.9-5.1-25.7-9.8c0.3,0,0.6,0,0.9,0c9,0.1,18.1,0.4,27.1,0.6c25.3,0.7,50.6-0.7,75.4-6.3c29-6.6,55.5-19.7,85.8-19.5c19.4,0.1,39.8,2.9,57.2,11.9c11,5.7,19,14.5,23.1,25.8c-0.5,0.9-0.6,2-0.4,3.3c12.4,59,6.8,119.6-8.2,177.6c-7.5,29-17.5,57.3-29,85c-7.1,17-14.5,33.8-23.7,49.8c-1.8,3.1-3.6,6.1-5.8,9c-0.4,0.6-0.9,1.1-1.4,1.7c-1.6-0.9-3.5-1.1-5.5,0C243.2,409.5,233.6,415,224,420.5z M348.7,365c1.2,16.1,4.2,32.1,4,48.3c0,1.2-0.1,1.8-0.3,3.1c0,0.1,0,0.2-0.1,0.3c-1.7,1.5-2.1,4.1-1.4,6.1c-4.9,6.2-9.5,12.7-14.5,18.9c-6.5,8-14.9,14.2-23.1,20.4c-6.2,4.7-14,11.8-22.1,8.4c-7.8-3.2-13.9-8.2-22.2-6c-4.2-2.8-9.7-2.8-14.7-2.2c-2.4,0.3-5.3,0.8-7.3,0.5c-0.5-1.5,0-3.5,0.3-5c0.7-4.2-3.9-8.1-7.7-6.1c2-13.2,12.7-25.6,20.4-35.3c0.1-0.1,0.1-0.2,0.2-0.3c4.4-1.1,7.8-6.3,10.2-9.7c5.1-7.5,9.3-15.6,13.4-23.7c9.8-19.6,18.1-40,25.7-60.5c20.9-55.8,34.7-114.8,34.8-174.6c0-20.9-2-41.8-6-62.4c0.7-1.2,1.1-2.7,0.7-4.3c-0.2-0.8-0.3-1.5-0.5-2.3c8.3,2.5,16.3,5.9,23.8,10c-1.5,32.4,1,64.9-2.1,97.3c-1.5,15.8-4.5,31.5-6.5,47.3c-2,15.8-3.7,31.6-4.8,47.5C347,308.8,346.6,337,348.7,365z M472.3,308c-7.5,9.2-13.5,19.6-20.4,29.3c-3.6,5-6.6,10.3-10.5,15.1c-4.2,5.2-8.8,10-13.7,14.5c-9.7,9-21,16.5-32.5,23c-10.9,6.2-22,10.7-31.5,19.1c-0.1-7.2-0.9-14.3-1.6-21.4c-2.1-20.2-3.8-40.3-3.9-60.7c-0.1-31.9,2.8-63.7,6.9-95.3c2.1-15.8,5-31.5,6.4-47.4c1.5-16.2,1.5-32.4,1.4-48.6c-0.1-13.4-0.2-26.8,0.2-40.1c5.5,3.8,10.8,8.2,15.7,12.9c8.3,8.1,15.4,17.3,21.6,27.1c6,9.4,12,19.8,15.5,30.5c10.3,31.8,5.1,69.9,25.3,98.2c8.8,12.3,22.3,18,37.2,18.1c0.3,0,0.6,0,0.8-0.1c1.2,0.2,2.5,0,3.8-0.9c0.3-0.2,0.9-0.2,1.6-0.2c0.7,2.1,1.3,4.3,1.6,6.6C487,293,479,299.7,472.3,308z"/><path d="M106.5 172c-11.2-4.2-23-4.6-34.9-4.6-7.1 0-6.2 11 .8 11 9.7 0 19.9 0 29.1 3.4C108.2 184.3 113.1 174.4 106.5 172zM114.5 162c-8.7-4.2-18.1-6.2-27.4-8.5-6.9-1.7-9 9.1-2.1 10.8 8.4 2.1 16.8 3.8 24.6 7.5C116 174.9 120.9 165 114.5 162zM405.9 212.8c-8.3 1.9-15.5 10.1-18.8 17.6-1.3 3.1.2 5.8 2.5 7.2 2.6 7.1 8.7 11.8 17.1 10.3 8.5-1.5 17.1-8.6 16.9-17.9C423.4 220.4 416.5 210.3 405.9 212.8zM406.9 236.5c-4 1.6-6.8.2-7.4-4.1-.1-.4-.2-.8-.3-1.2 1.7-2.4 3.8-4.6 6.2-6.3 4.5-3.2 6.1-.6 7.1 4.3C413.2 232.8 409.7 235.4 406.9 236.5z"/></svg>