<svg xmlns="http://www.w3.org/2000/svg"  viewBox="0 0 512 512" width="64px" height="64px"><path fill="#14B6B9" d="M335.6 319.9c-2.5-3.8-7-4-11.2-3.3-2.7.5-8.1 1.9-8.3 5.4-.2 4.2-4.3 6.2-7.4 5.6-1.5 5.2 2.3 11.2 6.2 14.7 4 3.6 11.9 8.8 17.2 4.7 3.4-2.6 4.1-7.6 4.7-11.6C337.4 330.8 338.3 324.1 335.6 319.9zM281 326.1c-4.1-2.9-11.2-2.1-16-3.3-4.3-1-9-2.4-13.4-2.3-4.1.1-5.1.4-4.5 4.6.6 3.8-2.3 5.7-5.3 5.7-.1 3.4.1 6.7 1.4 9.7 2 4.9 6.5 7.1 11.4 8.1 7.5 1.6 22.8 3 26.5-6C282.4 338.9 284.9 328.8 281 326.1zM275.9 272.8c-3 3.3-6.3 6.2-10.5 8.1-9.3 4.2-20.6 2.1-25.9-7.1-.1-.2-.2-.4-.4-.7-.6 5.9-1.5 12.2.1 17.4 2.4 8.1 11.8 7.1 18.7 6.9 7.3-.2 17.7-.7 18.4-9.8C276.7 282.8 276.3 277.8 275.9 272.8z"/><path fill="#74CCCF" d="M357.6 250.2c-3.5-2.9-1.8-7.3 1.3-8.9-1.3-6.1-2.7-12.7-7.4-16.6-6.7-5.6-17.2-6.7-25.5-7.6-16.6-1.9-33.5-1.6-50.2-2.2-21.2-.8-67.9-2.9-69.6 27.8-.1 1.5-.6 2.6-1.4 3.5-.5 4.6 0 11 .5 15.2.4 3.4.9 6.9 2.1 10.2.1.3.3.7.5 1.1.6-.7 1.4-1.7 1.9-2.6 1.3-2.4 2.4-4.9 3.3-7.5 1.8-4.9 3.2-10.2 6-14.7 3-4.9 8.5-9 14.4-5.7 7.6 4.3 10.3 12.6 13.7 20.1 1.7 3.7 4 7.2 8.6 6.9 5-.4 8.7-3.1 12-6.7 6.8-7.5 12.8-17.9 23.2-21 12.6-3.7 16.8 7.8 25 14.4 1 .8 2 1.6 3.1 2.1.4-.3 1.8-1.4 2.4-1.9 3.2-2.5 6.8-4.3 10.9-4.9 9.6-1.4 13.9 4.4 20.8 9.7C359.5 265.6 361 252.9 357.6 250.2zM455.3 440.4c-3.3-10.5-10.2-19.7-18.3-27.1-37.9-34.6-91.2-13.2-123.8 17.8-2.1 2-5.5 2.8-7.8.5-11.2-11.1-23.8-21.1-38.3-27.7-23.9-10.8-50.3-10.2-72.5 4.5-9.4 6.2-18.8 18.2-31.1 18.5-9.1.2-15.8-5.2-22.3-10.9-14.2-12.4-38.1-25.4-56.1-12.2-8.6 6.3-12 17.2-13.8 27.3-1.3 7.6-2.4 16.2-1 24.1.4.1.8.2 1.2.3 19.6 7.1 42 4.3 62.3 3.1 24.3-1.4 48.6.4 72.9 1.3 51.4 1.8 102.5 1.2 153.8-.7 15.8-.6 31.6-1.1 47.4-.4 6.8.3 13.5.8 20.2 1.5 4.8.5 9.7 1 14.6.5 4.4-.5 9.1-1.5 11.4-5.7C456.7 450.5 456.9 445.4 455.3 440.4z"/><path fill="#14B6B9" d="M332.4,267.3c-0.3-0.6-0.4-1.2-0.4-1.8c-2,1-3.9,2.5-5.3,3.6c-3.5,2.7-7.8,3.8-12,1.9c-3.2-1.5-5.8-3.7-8.1-6.1c-0.2,3.7-0.3,7.3-0.1,11c0.4,6,1.3,14.1,7.7,16.7c6,2.5,14.6,3.1,19.9-1.4C340.8,285.2,335,273.7,332.4,267.3z"/><path fill="#C56528" d="M458.1,268.9c0-4.6,4.7-6.6,8-5.4c-2.4-4.6-4.3-9.5-6-14.4c-3,9-7.7,17.3-16,16c-8.7-1.4-12.8-12-14.3-19.5c-1-5.4-1.4-10.9-2-16.4c-3.2,8.4-7.5,16.1-14.7,14c-9.6-2.8-11.5-18.7-12.2-26.7c-1.1-11.7-0.8-23.3-4-34.4c-3.6,4.7-5.9,10.7-9.6,15.3c-5.6,7.1-13.6,5.9-18.6-1.2c-8.1-11.4-11.6-25.2-13.9-38.8c-1.8-10.3-3.3-20.8-7.7-30.3c-1.3,6.5-0.6,14-4.6,19.5c-5.7,7.9-16.7,7.4-20.6-1.7c-4.2-10-3.6-21.3-3.6-31.9c0-5.5,0.6-13.4-4.5-17c-1-0.7-5.4,1.4-7,1.7c-4.9,0.8-10.5-0.5-14.5-3.6c-3.1-2.4-4.9-5.7-7.3-8.6c-2.5-3-7.6,0-9.1,2.7c-2.1,3.6-3.9,8-5.2,12c-2.9,9.4-5.7,20.7-17.9,20.8c-4.6,0-7.6-1.7-11.6-3.2c-0.7,0.5-1.9,1.3-2.3,2c-0.5,1.1-0.7,1.8-1,3.2c-1.8,8.4-2.1,17.1-4.2,25.5c-1.8,6.9-4.9,15.4-13.3,16c-7,0.5-12.3-3.9-15.7-9.7c-1.4-2.3-2.6-4.8-3.9-7.2c-0.1,0.2-0.2,0.4-0.3,0.6c-1.2,2.3-2.3,4.6-3.2,7.1c-2.3,6.1-3.6,12.5-4.2,19c-1,11.8,0.9,26.3-5.8,36.7c-4.7,7.3-13.2,6.9-18.8,0.8c-3.2-3.5-5.9-7.3-8.1-11.5c-2.1-4-3.4-8.6-5.4-12.6c-1,4.3-1.7,8.8-2.1,13.2c-1.4,15-4.5,29.8-7.7,44.5c-0.6,2.8-3.5,5.1-6.4,4.3c-10-2.4-15.3-9.6-16.2-19.7c-0.4-4.5,0.5-11.8-1.5-17c-2.3,4.8-3.7,10.1-4.9,15c-1.5,6.1-2.9,12.2-2.7,18.5c0.2,5.6,0.9,11.8,0.5,17.8c0.4,0.2,0.8,0.4,1.2,0.6c3.4,2,3.4,6,1.6,8.5c0,0.1,0,0.1,0,0.2l0,1.6c0,1.1,0,2.1-0.1,3.2c-0.3,3.1-0.5,6.2-0.6,9.4c-0.1,6.3,0.1,12.7,0.4,19c0.3,10.1,0.2,20.1-0.4,30.1c-1.1,15.5-3.6,32.7-0.2,48.2c1.4,0.7,2.4,2.1,2.4,4.3v3.4c2.8,0.8,5.4,1.8,8,2.9c9.8,4.5,17.4,10.9,25.7,17.7c2.8,2.3,5.9,5,9.7,5.3c4.2,0.4,8.4-2.3,11.6-4.8c11.2-8.7,21.8-17.2,35.6-21.7c11.7-3.8,24.2-5.2,36.4-3.4c24.6,3.5,46.3,17.1,64.2,33.9c30.9-27.4,77.6-48.4,117.2-27.5c10.6,5.6,21.6,14.4,29.5,24.9c7.1-6.1,8.7-16.6,8.8-25.5c0.2-10.8-1.1-21.4-2-32.2C460.3,331.5,458.2,300.1,458.1,268.9z M364.9,272.6c6.8,17,6.5,37.2,4.4,55.1c-1.3,10.8-3.3,22.1-9.5,31.3c-5.5,8.1-14.1,13.8-23.6,16.3c-11.4,2.9-22.5,1.8-34.1,2.3c-14.6,0.6-29.1,2.1-43.7,1.1c-22.2-1.5-44.9-10.5-50.6-34.1c-2.5-10.5-1.5-20.5-2.1-31.1c-0.5-8.5-1.7-17.6-0.2-26.1c-1.4-0.3-2.8-1-4-2.2c-5.5-5.6-6.6-14.7-7.2-22.2c-0.6-7.1-1.3-15.8,1.7-22.4c0.1-0.2,0.2-0.3,0.2-0.5c6.6-32.7,50.1-34.4,77.9-33.3c19.4,0.7,39.2,0,58.4,3c9.9,1.5,21.1,3.8,28.2,11.4c6.8,7.3,7.5,17,10.4,26c0.7,2.3,0,4.2-1.3,5.5C371.4,259.6,369.8,268.3,364.9,272.6z"/><path fill="#74CCCF" d="M485.3,229.4c-0.1-11-1.2-28.2-13.7-32.4c-3.1-1-3.7-3.7-2.8-6c-0.1-1.1,0-2.1,0.4-3.1c-26.5-33.7-52-67.8-83.6-97c-16.6-15.3-34.2-30-53.5-41.7c-17.6-10.7-36.6-19.7-57.7-16.7c-28.3,4-49.5,24.7-70.3,42.6c-11.8,10.2-23.5,20.5-34.8,31.3c-10.6,10.1-20.2,21.1-30.6,31.3c-10.3,10-21,19.5-31.2,29.5c-6,5.9-11.9,11.8-17.4,18.2c-1.8,2.1-4.2,5-5.4,6.8c-0.5,0.7-0.9,1.5-1.3,2.3c0,0.4,0,0.9,0,1.3c1.2,1.1,1.9,2.8,1.5,4.9c-1.5,7-4,14.4-0.2,21.1c2.7,4.6,6.4,8.5,9,13.2c5,8.8,6,19.2,8.9,28.7c0.4-2.8,0.3-5.7,0.2-8c-0.2-6.2-1.1-12.5-0.4-18.7c1.6-13.2,5.2-28.7,13.4-39.5c1.4-1.8,4.6-2.6,6.6-1.3c8.1,5.2,10,13.4,10.4,22.5c0.2,5.1-0.2,11,2.8,14.6c2.6-12.3,4.9-24.7,6.2-37.3c0.8-7.3,1.2-19.2,7.7-24.2c8.9-6.8,15,7.5,17.1,13.6c1.6,4.8,4.3,9.5,7.3,13.5c1,1.3,2,2.6,3.3,3.6c0.1,0.1,0.2,0.1,0.3,0.2c2.8-2.9,3.1-10.3,3.3-13.8c0.4-6.5,0.5-13,1.1-19.5c1.1-11.2,4-23.9,11-33.1c4.1-5.4,10.7-5.9,15-0.4c3.1,4,4.5,9.8,8,13.1c1.4,1.3,3,2,3.7,1.5c1.5-1.1,2.5-4.9,3-7.1c2-8.4,2.3-17.1,4.2-25.5c1.8-7.9,8.7-16.8,17.8-13.4c3.1,1.1,6.8,4.3,10.2,1.8c3.3-2.3,3.6-7.7,4.8-11.2c2.8-8.3,6.5-21,16.3-23.6c5.1-1.3,10.2-1.7,14.6,1.5c3,2.2,4.6,5.6,7,8.4c5.7,6.5,13.9-2.1,20.6,1.6c11.3,6.2,11,19.5,10.9,30.8c-0.1,5.9,0.1,11.7,1.1,17.5c0.4,2,0.8,4.1,1.6,6c0.1,0.2,0.2,0.5,0.3,0.7c0,0,0.1,0,0.1-0.1c4.3-2.9,3.5-10.5,4.2-15c0.8-5.3,2.4-10.2,6-14.2c2.5-2.7,6.6-2.3,8.7,0.6c15.3,20.6,11.5,47.9,22.4,70.4c1.3,2.8,2.8,5.7,4.8,8l0,0c0.2-0.2,0.4-0.5,0.6-0.7c0.8-1.2,1.6-2.4,2.3-3.6c4-6.9,7.9-14.2,14.7-18.6c3.2-2.1,6.7-0.5,8.3,2.7c5.2,10.9,6.2,22.6,6.8,34.5c0.3,5.8,0.6,11.7,1.7,17.4c0.4,1.8,1.1,5.1,2.1,7.6c1.1-2.3,2.1-4.7,2.9-7.1c1.9-5.2,3.4-10.9,6.3-15.5c2.6-4,8.2-4,10.1,0.6c3.5,8.4,4.1,17.6,5,26.5c0.5,4.8,0.7,16.2,5.9,19.2c0.2-0.2,0.5-0.5,0.8-1c1.4-2.4,2.5-5,3.4-7.6c1.7-5,2.9-10.2,4.3-15.4c1.5-5.3,8.4-5.9,10.6-0.8c5,11.4,7.8,25.9,15.8,36C484.2,252,485.4,239.9,485.3,229.4z"/><path fill="#D6E5E5" d="M354.5,276.3c0-0.1-0.1-0.2-0.1-0.3c-2.3-0.3-4.6-1.2-6.9-2.8c-0.6-0.4-1.2-0.9-1.8-1.4c2.8,9,4,19.1-3,26.2c-3.9,3.9-8.9,6.2-14.3,7.1c4.3,0.1,8.4,1.4,11.8,3.8c6.9,5.2,8.5,14.2,8,22.3c-0.4,7.3-1.6,16.1-6.6,21.9c-18.7,21.3-56.8-13.8-39.6-35.7c1.5-2,3.6-2.3,5.3-1.8c3.1-5.3,9.1-8.9,15.5-10.1c-2.6,0-5.2-0.4-7.7-1.1c-23.5-6.4-19.3-30.8-19.1-49.8c-0.4,0-0.9,0-1.4,0.2c-2.7,1.1-5.6,2.9-7.6,5c-0.3,0.3-0.7,0.7-1,1c0.2,11.2,3.6,23.8-0.2,34.7c-3.9,11-18.5,13-28.4,13c-10.5,0-22.7-0.4-27.6-11.6c-4-9.2-1.3-19.9-1.2-29.6c0-3.5,2.8-5.5,5.5-5.7c-1.3-2.7-2.9-5.1-4.8-6.3c-0.3,0.3-0.5,0.6-0.6,0.9c-1.3,2.4-2.3,5-3.3,7.6c-2.1,5.7-4,11.7-7.5,16.8c0.3,1.1,0.3,2.4-0.3,3.8c-1.6,3.5-1.9,7.6-1.9,11.4c0,6,0.7,12,0.9,18c0.2,5.1-0.4,10.2-0.1,15.4c0.5,9,2.1,19.2,8.7,26c8.3,8.6,20.2,11.5,31.8,12.5c14.7,1.2,29.5-0.5,44.2-1c11.1-0.4,22.8,1.2,33.5-2.4c9.6-3.2,16.6-9.7,19.9-19.3c3.7-10.6,4.7-22.9,4.8-34.1C359.5,299.3,358.9,287.2,354.5,276.3z M292,344.1c-4.7,16-24.4,18.5-38.6,15.5c-7.3-1.6-15.3-4.8-19-11.8c-4.7-9-3-18.1-2.9-27.8c0.1-4.2,4.1-6.3,7.2-5.6c1.7-2,4-3.6,7.1-4.2c6.8-1.4,13.8,0.2,20.4,1.8c8.2,1.9,17.9,1,23.8,8C295.5,326,294.2,336.8,292,344.1z"/><path d="M496.2,229.4c-0.1-12.4-2.9-29.1-13.5-37.1c0.4-1.4,0.1-2.9-1.1-4.4c-4.7-6-9.3-12-14-18c-9.1-11.8-18.3-23.7-27.7-35.2c-18.7-22.8-39.2-43.9-61.7-63.1c-21.5-18.4-46.2-37.3-73.5-45.7c-25.8-7.9-52.1,0.2-73.8,14.9c-11.3,7.6-21.3,17-31.6,25.9c-10.6,9.2-21.2,18.4-31.5,28c-15.3,14.1-28.9,29.8-44.1,44c-11.3,10.6-22.7,21.1-33.5,32.3c-4.6,4.8-9.2,9.7-13.2,15.1c-2.6,3.6-5.7,8.1-4.2,12.8c0.3,0.9,0.7,1.6,1.2,2.1c-1.5,7.1-3.7,14.8-1.5,22c1.9,6.4,6.2,11.6,10.1,17c8.6,12,7.6,28.4,14.8,41.1c1.4,2.4,5.2,3.2,7.4,1.6c0,2.2,0,4.1,0,5.1c-0.3,13.5,1,27,0.4,40.5c-0.9,20-5,41.8,0.3,61.6c-14-0.7-28,4.1-36.3,16.6c-5.9,8.8-8.4,19.8-9.8,30.2c-1.4,10.4-1.8,22.4,2.8,32.1c2.2,4.8,8.6,4,10.4,0.6c22.9,6.3,47.4,2.8,70.8,1.8c15.3-0.7,30.8,0.5,46.1,1.1c16.5,0.6,32.9,1.2,49.4,1.6c32.4,0.8,64.9,0.6,97.4-0.7c30.2-1.2,60.6-3.4,90.7,0c9.4,1.1,20.4,1.9,28.9-3.1c9-5.3,12.2-16.2,10.8-26.1c-0.8-5.3-2.6-10.5-5.1-15.4c18.1-14,14.3-41.9,12.5-61.9c-1.4-15.2-2-30.6-3-45.8c-1.2-17.7-2.1-35.5-2.2-53.2c2.4,3.7,5.3,7.1,8.9,9.9c3,2.3,6.6,1.4,8.6-1.7C494.7,262.7,496.4,244.5,496.2,229.4z M454.2,457c-2.3,4.2-7,5.2-11.4,5.7c-4.9,0.5-9.8,0.1-14.6-0.5c-6.7-0.8-13.4-1.2-20.2-1.5c-15.8-0.6-31.6-0.2-47.4,0.4c-51.4,2-102.5,2.6-153.8,0.7c-24.3-0.9-48.6-2.7-72.9-1.3c-20.3,1.2-42.7,4-62.3-3.1c-0.4-0.1-0.8-0.2-1.2-0.3c-1.4-7.9-0.4-16.5,1-24.1c1.8-10.1,5.1-21,13.8-27.3c18-13.1,41.9-0.1,56.1,12.2c6.5,5.7,13.2,11.2,22.3,10.9c12.2-0.3,21.7-12.3,31.1-18.5c22.2-14.6,48.6-15.2,72.5-4.5c14.5,6.5,27.1,16.6,38.3,27.7c2.3,2.2,5.7,1.5,7.8-0.5c32.7-31,85.9-52.4,123.8-17.8c8.1,7.3,15,16.6,18.3,27.1C456.9,447.3,456.7,452.4,454.2,457z M458.1,267.9c0.1,31.2,2.2,62.6,4.7,93.7c0.9,10.7,2.2,21.4,2,32.2c-0.2,8.9-1.7,19.4-8.8,25.5c-7.9-10.6-18.9-19.3-29.5-24.9c-39.6-20.8-86.3,0.2-117.2,27.5c-17.9-16.8-39.6-30.4-64.2-33.9c-12.3-1.7-24.7-0.4-36.4,3.4c-13.7,4.5-24.3,13.1-35.6,21.7c-3.2,2.4-7.4,5.2-11.6,4.8c-3.7-0.4-6.9-3-9.7-5.3c-8.3-6.8-15.8-13.2-25.7-17.7c-2.6-1.2-5.3-2.2-8-2.9v-3.4c0-2.1-1-3.6-2.4-4.3c-3.4-15.6-0.9-32.8,0.2-48.2c0.7-10.1,0.8-20,0.4-30.1c-0.2-6.3-0.4-12.7-0.4-19c0-3.1,0.2-6.3,0.6-9.4c0.1-1,0.1-2.1,0.1-3.2l0-1.6c0-0.1,0-0.1,0-0.2c1.8-2.5,1.8-6.5-1.6-8.5c-0.4-0.2-0.8-0.4-1.2-0.6c0.4-5.9-0.2-12.1-0.5-17.8c-0.3-6.3,1.2-12.4,2.7-18.5c1.2-4.9,2.6-10.2,4.9-15c2,5.1,1,12.5,1.5,17c0.9,10.1,6.2,17.3,16.2,19.7c3,0.7,5.8-1.5,6.4-4.3c3.2-14.7,6.3-29.5,7.7-44.5c0.4-4.4,1.1-8.9,2.1-13.2c2,4.1,3.3,8.6,5.4,12.6c2.2,4.2,4.8,8.1,8.1,11.5c5.6,6.1,14.1,6.4,18.8-0.8c6.7-10.4,4.9-24.9,5.8-36.7c0.5-6.5,1.8-12.9,4.2-19c0.9-2.4,2-4.8,3.2-7.1c0.1-0.2,0.2-0.4,0.3-0.6c1.4,2.4,2.5,4.8,3.9,7.2c3.4,5.7,8.7,10.1,15.7,9.7c8.3-0.6,11.5-9.1,13.3-16c2.1-8.3,2.4-17,4.2-25.5c0.3-1.4,0.5-2.1,1-3.2c0.4-0.8,1.6-1.5,2.3-2c4,1.5,7,3.3,11.6,3.2c12.2-0.1,15-11.4,17.9-20.8c1.2-4,3-8.4,5.2-12c1.6-2.6,6.6-5.7,9.1-2.7c2.5,2.9,4.2,6.3,7.3,8.6c4,3,9.6,4.3,14.5,3.6c1.6-0.2,6-2.3,7-1.7c5,3.6,4.4,11.5,4.5,17c0.1,10.6-0.6,21.9,3.6,31.9c3.8,9.1,14.9,9.6,20.6,1.7c4-5.6,3.3-13,4.6-19.5c4.3,9.4,5.9,19.9,7.7,30.3c2.3,13.6,5.8,27.4,13.9,38.8c5,7.1,13.1,8.3,18.6,1.2c3.7-4.7,6-10.6,9.6-15.3c3.2,11.1,2.9,22.7,4,34.4c0.8,8,2.7,23.9,12.2,26.7c7.1,2.1,11.5-5.6,14.7-14c0.6,5.5,0.9,11,2,16.4c1.5,7.5,5.6,18.1,14.3,19.5c8.4,1.3,13.1-7,16-16c1.8,4.9,3.7,9.8,6,14.4C462.8,261.3,458.1,263.2,458.1,267.9z M480.1,264.2c-8-10.1-10.8-24.6-15.8-36c-2.2-5.1-9.1-4.6-10.6,0.8c-1.4,5.1-2.6,10.3-4.3,15.4c-0.9,2.6-2,5.2-3.4,7.6c-0.3,0.6-0.6,0.9-0.8,1c-5.2-3.1-5.4-14.4-5.9-19.2c-0.9-9-1.5-18.1-5-26.5c-1.9-4.6-7.6-4.7-10.1-0.6c-3,4.7-4.4,10.4-6.3,15.5c-0.9,2.4-1.8,4.8-2.9,7.1c-1-2.4-1.7-5.7-2.1-7.6c-1.2-5.7-1.4-11.6-1.7-17.4c-0.6-11.9-1.6-23.6-6.8-34.5c-1.5-3.2-5-4.8-8.3-2.7c-6.9,4.4-10.8,11.7-14.7,18.6c-0.7,1.2-1.4,2.5-2.3,3.6c-0.2,0.3-0.4,0.5-0.6,0.7l0,0c-2-2.3-3.5-5.3-4.8-8c-10.9-22.5-7.1-49.8-22.4-70.4c-2.1-2.9-6.2-3.3-8.7-0.6c-3.6,4-5.2,8.9-6,14.2c-0.7,4.6,0.1,12.1-4.2,15c0,0-0.1,0-0.1,0.1c-0.1-0.2-0.2-0.5-0.3-0.7c-0.8-1.9-1.2-4-1.6-6c-1.1-5.9-1.2-11.6-1.1-17.5c0.2-11.3,0.4-24.6-10.9-30.8c-6.7-3.7-14.9,4.9-20.6-1.6c-2.4-2.8-4-6.1-7-8.4c-4.4-3.3-9.5-2.9-14.6-1.5c-9.8,2.6-13.5,15.3-16.3,23.6c-1.2,3.5-1.5,8.9-4.8,11.2c-3.4,2.4-7.1-0.7-10.2-1.8c-9.1-3.4-16,5.5-17.8,13.4c-1.9,8.4-2.2,17.1-4.2,25.5c-0.5,2.2-1.5,5.9-3,7.1c-0.7,0.5-2.3-0.2-3.7-1.5c-3.5-3.3-5-9.1-8-13.1c-4.2-5.5-10.8-5.1-15,0.4c-7,9.2-9.9,21.8-11,33.1c-0.6,6.5-0.7,13-1.1,19.5c-0.2,3.4-0.5,10.9-3.3,13.8c-0.1-0.1-0.2-0.1-0.3-0.2c-1.3-1-2.4-2.3-3.3-3.6c-3.1-4-5.7-8.7-7.3-13.5c-2.1-6.1-8.2-20.4-17.1-13.6c-6.5,4.9-6.9,16.9-7.7,24.2c-1.3,12.5-3.6,24.9-6.2,37.3c-3-3.6-2.6-9.5-2.8-14.6c-0.4-9.1-2.3-17.3-10.4-22.5c-1.9-1.3-5.2-0.5-6.6,1.3c-8.2,10.8-11.8,26.3-13.4,39.5c-0.7,6.2,0.2,12.5,0.4,18.7c0.1,2.4,0.2,5.3-0.2,8c-3-9.5-4-19.9-8.9-28.7c-2.6-4.7-6.4-8.6-9-13.2c-3.8-6.7-1.3-14.1,0.2-21.1c0.4-2.1-0.3-3.8-1.5-4.9c0.1-0.4,0.1-0.8,0-1.3c0.4-0.8,0.8-1.5,1.3-2.3c1.1-1.8,3.6-4.7,5.4-6.8c5.5-6.4,11.4-12.3,17.4-18.2c10.2-10,20.9-19.5,31.2-29.5c10.5-10.2,20-21.2,30.6-31.3c11.3-10.8,23-21.1,34.8-31.3c20.7-17.9,42-38.6,70.3-42.6c21.1-3,40.1,6,57.7,16.7c19.3,11.7,36.9,26.4,53.5,41.7c31.7,29.2,57.2,63.3,83.6,97c-0.4,0.9-0.5,2-0.4,3.1c-0.9,2.3-0.2,4.9,2.8,6c12.5,4.2,13.5,21.4,13.7,32.4C485.4,241.8,484.2,253.9,480.1,264.2z"/><path d="M369.5,252.7c1.3-1.3,2.1-3.2,1.3-5.5c-2.9-9-3.6-18.7-10.4-26c-7.1-7.6-18.3-9.9-28.2-11.4c-19.2-3-39-2.2-58.4-3c-27.8-1.1-71.3,0.6-77.9,33.3c-0.1,0.2-0.2,0.3-0.2,0.5c-3,6.7-2.2,15.4-1.7,22.4c0.6,7.5,1.7,16.6,7.2,22.2c1.2,1.2,2.6,1.9,4,2.2c-1.5,8.5-0.3,17.6,0.2,26.1c0.6,10.6-0.4,20.6,2.1,31.1c5.8,23.7,28.4,32.7,50.6,34.1c14.6,1,29.2-0.5,43.7-1.1c11.6-0.5,22.7,0.6,34.1-2.3c9.5-2.4,18.1-8.1,23.6-16.3c6.2-9.2,8.2-20.5,9.5-31.3c2.2-17.9,2.4-38.1-4.4-55.1C369.8,268.3,371.4,259.6,369.5,252.7z M209.8,273c-0.5,0.9-1.3,1.9-1.9,2.6c-0.2-0.4-0.4-0.9-0.5-1.1c-1.2-3.3-1.7-6.8-2.1-10.2c-0.5-4.1-1-10.6-0.5-15.2c0.8-0.9,1.3-2.1,1.4-3.5c1.6-30.7,48.3-28.6,69.6-27.8c16.7,0.6,33.6,0.3,50.2,2.2c8.3,0.9,18.8,2.1,25.5,7.6c4.7,3.9,6.1,10.5,7.4,16.6c-3.1,1.6-4.9,6-1.3,8.9c3.4,2.8,1.9,15.4-4.2,10.8c-7-5.4-11.2-11.1-20.8-9.7c-4.1,0.6-7.7,2.4-10.9,4.9c-0.6,0.5-2,1.6-2.4,1.9c-1.2-0.5-2.1-1.3-3.1-2.1c-8.2-6.6-12.5-18.2-25-14.4c-10.4,3.1-16.4,13.5-23.2,21c-3.3,3.6-7,6.3-12,6.7c-4.6,0.4-6.9-3.2-8.6-6.9c-3.4-7.5-6.1-15.8-13.7-20.1c-5.9-3.3-11.3,0.8-14.4,5.7c-2.8,4.4-4.2,9.8-6,14.7C212.2,268.1,211.1,270.6,209.8,273z M314.1,292.5c-6.4-2.7-7.3-10.7-7.7-16.7c-0.2-3.7-0.1-7.3,0.1-11c2.3,2.4,4.9,4.6,8.1,6.1c4.2,1.9,8.5,0.9,12-1.9c1.4-1.1,3.3-2.6,5.3-3.6c0,0.6,0.2,1.2,0.4,1.8c2.6,6.5,8.4,18,1.6,23.8C328.7,295.7,320.1,295,314.1,292.5z M335.6,319.9c2.8,4.2,1.9,10.9,1.2,15.6c-0.6,3.9-1.4,9-4.7,11.6c-5.3,4.1-13.2-1.1-17.2-4.7c-3.9-3.5-7.6-9.5-6.2-14.7c3.1,0.6,7.2-1.4,7.4-5.6c0.2-3.5,5.7-4.9,8.3-5.4C328.6,315.9,333,316.1,335.6,319.9z M276.3,287.7c-0.8,9.2-11.1,9.6-18.4,9.8c-6.9,0.2-16.3,1.2-18.7-6.9c-1.6-5.3-0.7-11.5-0.1-17.4c0.1,0.2,0.2,0.5,0.4,0.7c5.3,9.2,16.6,11.3,25.9,7.1c4.2-1.9,7.5-4.8,10.5-8.1C276.3,277.8,276.7,282.8,276.3,287.7z M359.4,310.9c-0.1,11.2-1.1,23.4-4.8,34.1c-3.3,9.6-10.4,16.1-19.9,19.3c-10.8,3.6-22.4,2-33.5,2.4c-14.7,0.5-29.5,2.2-44.2,1c-11.6-0.9-23.5-3.9-31.8-12.5c-6.5-6.8-8.2-17-8.7-26c-0.3-5.1,0.2-10.3,0.1-15.4c-0.2-6-0.9-12-0.9-18c0-3.9,0.3-7.9,1.9-11.4c0.6-1.4,0.7-2.6,0.3-3.8c3.5-5.1,5.4-11.1,7.5-16.8c1-2.6,2-5.2,3.3-7.6c0.1-0.2,0.3-0.5,0.6-0.9c1.9,1.2,3.5,3.6,4.8,6.3c-2.7,0.2-5.5,2.2-5.5,5.7c-0.1,9.6-2.8,20.4,1.2,29.6c4.9,11.2,17.1,11.6,27.6,11.6c9.9,0,24.5-2,28.4-13c3.9-10.9,0.4-23.5,0.2-34.7c0.3-0.3,0.6-0.7,1-1c2.1-2.1,4.9-3.9,7.6-5c0.5-0.2,1-0.3,1.4-0.2c-0.2,19.1-4.4,43.5,19.1,49.8c2.5,0.7,5.1,1,7.7,1.1c-6.4,1.2-12.4,4.8-15.5,10.1c-1.8-0.6-3.8-0.2-5.3,1.8c-17.2,21.9,20.9,57,39.6,35.7c5-5.7,6.2-14.5,6.6-21.9c0.4-8.1-1.1-17.2-8-22.3c-3.3-2.5-7.5-3.7-11.8-3.8c5.4-0.9,10.4-3.3,14.3-7.1c7.1-7.1,5.9-17.2,3-26.2c0.6,0.5,1.2,1,1.8,1.4c2.3,1.6,4.5,2.5,6.9,2.8c0,0.1,0.1,0.2,0.1,0.3C358.9,287.2,359.5,299.3,359.4,310.9z"/><path d="M290.2,319.8c-5.9-7-15.7-6-23.8-8c-6.6-1.6-13.6-3.2-20.4-1.8c-3.1,0.7-5.5,2.2-7.1,4.2c-3.2-0.6-7.2,1.4-7.2,5.6c-0.1,9.8-1.8,18.8,2.9,27.8c3.6,7,11.7,10.3,19,11.8c14.2,3,33.8,0.5,38.6-15.5C294.2,336.8,295.5,326,290.2,319.8z M281,342.5c-3.7,9-18.9,7.7-26.5,6c-4.9-1.1-9.3-3.3-11.4-8.1c-1.2-3-1.5-6.3-1.4-9.7c3,0.1,5.9-1.9,5.3-5.7c-0.6-4.2,0.4-4.5,4.5-4.6c4.5-0.1,9.1,1.3,13.4,2.3c4.8,1.1,11.9,0.4,16,3.3C284.9,328.8,282.4,338.9,281,342.5z"/></svg>