<svg xmlns="http://www.w3.org/2000/svg"  viewBox="0 0 512 512" width="64px" height="64px"><path fill="#FEBF10" d="M234.1,189.2c-1.7-1.2-4-2.2-6.1-2.7c-1.2-0.3-2.5-0.6-3.8-0.6c-0.8,0-1.3,0.1-1.5,0.1c-0.9,1.7-2.6,2.6-4.3,2.8c-2,4.6-1.5,10.9,3.5,13.2c4.4,2,12.2,2.8,15.4-1.7C239.9,196.6,237.3,191.5,234.1,189.2z"/><path fill="#117176" d="M368.3,393c-0.9-14.3-1.9-28.5-2.6-42.8c-0.7-14.4-1.4-28.8-2.9-43.1c-0.7-6.8-1.5-13.6-1.9-20.4c-0.4-6.9-0.6-13.9-2.2-20.6c0-0.1,0-0.2-0.1-0.3c-4.7,0-9.5,0.5-14.2,0.8c-11.3,0.6-22.5,0.6-33.8,0.9c-23.6,0.6-47.1,1.5-70.6,2.7c-23.1,1.2-46.1,3-69.2,0.1c-3.1-0.4-6.7-0.5-10.2-0.9c-0.1,1.2-0.1,2.3-0.1,3.5c-0.5,16-0.3,32.1,0.3,48.1c0.6,15.7,1.2,31.4,3.5,47c2.2,14.8,4.7,29.6,3.6,44.7c-0.4,5.4-0.9,12.4,2.9,16.8c3.8,4.4,11.2,5.4,16.7,5.6c14.5,0.4,29-0.3,43.5,0.4c16.2,0.8,32.4,1.9,48.7,2.4c16.2,0.5,32.5-0.1,48.7-1.1c8.4-0.5,16.7-1.1,25-1.8c3.8-0.3,7.6-0.7,11.4-1.1c1.3-0.1,2.4-0.3,3.5-0.3c0.1-0.3,0.3-0.6,0.5-0.8C370.8,419.6,369.1,406.1,368.3,393z"/><path fill="#FEBF10" d="M173.5 193.2c-1.7-1.2-4-2.2-6.1-2.7-1.2-.3-2.5-.6-3.8-.6-.8 0-1.3.1-1.5.1-.9 1.7-2.6 2.6-4.3 2.8-2 4.6-1.5 10.9 3.5 13.2 4.4 2 12.2 2.8 15.4-1.7C179.2 200.6 176.6 195.5 173.5 193.2zM365 474.3c-4.7-.1-9.4.2-14.1.5.1 3.4.4 10.7 2.5 11.6 3.8 1.7 9.4-.6 13.2-1.4 2.7-.5 5.4-.8 8.1-1.3 1.5-.3 1.2.2 1.2-1.6.1-2.5.3-5 .4-7.4 0-.1 0-.2 0-.3C372.3 474.4 368.4 474.3 365 474.3z"/><path fill="#D6E7E7" d="M372.2,45.8c-12.8-0.1-25.7,0.6-38.5,0.6c-15.9-0.1-32.2,0.6-48.1-0.7c-6.8-0.6-13.6-1-20.4-0.6c-2.9,0.2-11.3,0.8-13.7,3.3c0,0.3,0,0.5,0,0.8c0,0.4,0,0.8,0,1.2c14,0.8,27.9,2.3,41.8,2.8c14.9,0.5,29.8,0.9,44.7,0.9c12.9,0,26.6-0.3,39-3.8c1.9-0.6,4.1-1.1,5.9-2.1c0.2-0.1,0.5-0.3,0.7-0.4C380.6,45.8,375.2,45.8,372.2,45.8z"/><path fill="#FEBF10" d="M366.2 247.9c-.7-.8-1.2-1.8-1.4-2.9-34.3 0-68.6.3-102.9 1.6-35.5 1.3-71 2.9-106.5 3.1 0 2 .1 3.9.8 5.6 1 2.6 4 2.8 6.5 3.1 8.1 1.1 16.3 1.9 24.4 2.3 20.7 1 41.4-1 62.1-2 21.6-1 43.2-1.8 64.8-2.3 10-.2 19.9-.2 29.9-.8 4.6-.3 9.3-.9 14-.8 2.7.1 5.6.4 8.4.2C366.2 252.5 366.3 250.2 366.2 247.9zM188.2 481.3c-.1-1.4-.2-2.9-.2-4.3-8.2-.5-16.4-1.2-24.4-2.5.1 1.8.2 3.5.6 5.2.2 1.1.9 5.5 1.9 6.2 1.3 1.1 7-.2 8.7-.1 3.9.2 8.9 1 12.6-.2.3-.1.5-.1.6-.1 0-.1 0-.3 0-.5C188.1 483.8 188.2 482.6 188.2 481.3zM293.2 189.2c-1.7-1.2-4-2.2-6.1-2.7-1.2-.3-2.5-.6-3.8-.6-.8 0-1.3.1-1.5.1-.9 1.7-2.6 2.6-4.3 2.8-2 4.6-1.5 10.9 3.5 13.2 4.4 2 12.2 2.8 15.4-1.7C299 196.6 296.4 191.5 293.2 189.2z"/><path fill="#D6E7E7" d="M386.9,58.4c-2.7,1.3-5.6,2.1-7.9,2.6c-13.3,2.9-26.6,4.1-40.2,4c-14.9-0.1-29.9-0.2-44.7-0.9c-14.4-0.6-28.6-2.2-43-2.9c-0.2,15,0.2,29.9-0.5,44.9c-0.3,6.8-1.1,16.2,3.2,22c3,4,8.6,4.7,13.8,5.5c2.2-4.1,6.2-6.9,10.6-9.1c9.9-5,22.8-7.5,27.5-18.8c1.9-4.6,8.5-3.6,10.1,0.6c2.1,5.5,4.2,10.6,4.8,15.9c7.1-3.8,12.4-9.8,12.6-18.9c0.2-7,10.4-8,11-0.8c0.3,4.7,3.6,8.9,5,13.3c0.7,2.1,1.1,4.5,1.3,6.9c3.7-2.5,6.8-6.1,10-9.4c3.1-3.2,9.5-1.9,9.6,3.2c0.1,6.5,1.7,13.5,1.6,20.1c6.6-0.6,12.4-3,15.3-9.7c2.9-6.8,3.7-14.6,3.8-21.9C391,89.2,388.1,73.9,386.9,58.4z"/><path fill="#BCBCBC" d="M393.4,404.6c-1.1-18.7-1.9-37.4-2.3-56.1c-0.8-36.9-0.3-73.7-1.4-110.6c-0.4-15.3,0.7-30.8-1-46c-1.2-11.4-3.5-23.9-15.1-29c-11.7-5.1-26.2-3.8-38.6-3.3c-16,0.7-31.9,2.1-47.9,2.1c-28.7,0.2-57.3-3.8-86-4.5c-23.6-0.6-49.2,0.2-69.8,12.8c0,12.1,0,24.2,0.8,36.2c0.8,11.9,2.2,23.7,2.1,35.7c-0.2,24.8-1.1,49.5-0.2,74.4c1,25.3,2.7,50.5,4.1,75.7c0.7,12.3,2.2,24.5,2.5,36.8c0.2,7.7-2.7,17.6,0.4,24.8c0.1,0.2,0.1,0.4,0.2,0.5c5.9,6.3,15,8.1,23.3,9.3c12.5,1.7,25,2.9,37.6,3.2c27.1,0.5,54.2,0.3,81.3,0c13.7-0.1,27.3-0.4,41-1c12-0.6,24.1-2.4,36.1-2.4c5.2,0,10.4,0.2,15.6,0c1.9-3,6.4-4.4,8.8-0.8c4.6-0.6,10.4-2,12-6.4C396.4,439,394.4,421.8,393.4,404.6z M328.8,179.1c1-1.9,2.7-2.8,4.4-2.9c4.4-8.9,19.1-4.9,26-0.6c8.6,5.4,13,16.9,7.6,26.1c-5.7,9.7-20.5,11.2-29.8,6.2C326.5,202.3,323.3,189.5,328.8,179.1z M268.1,183.1c1-1.9,2.7-2.8,4.4-2.9c4.4-8.9,19.1-4.9,26-0.6c8.6,5.4,13,16.9,7.6,26.1c-5.7,9.7-20.5,11.2-29.8,6.2C265.8,206.3,262.6,193.5,268.1,183.1z M209,183.1c1-1.9,2.7-2.8,4.4-2.9c4.4-8.9,19.1-4.9,26-0.6c8.6,5.4,13,16.9,7.6,26.1c-5.7,9.7-20.5,11.2-29.8,6.2C206.7,206.3,203.5,193.5,209,183.1z M148.3,187.1c1-1.9,2.7-2.8,4.4-2.9c4.4-8.9,19.1-4.9,26-0.6c8.6,5.4,13,16.9,7.6,26.1c-5.7,9.7-20.5,11.2-29.8,6.2C146,210.3,142.8,197.5,148.3,187.1z M380.7,423.8c-0.2,4.6,0.8,15-3.9,17.7c-0.8,0.5-1.6,0.7-2.4,0.8c-0.1,0.2-0.3,0.4-0.4,0.6c0.1-0.1,0.1-0.2,0.2-0.3c-1.8,3.1-5.3,3.3-7.8,2c-5.9,0.6-11.8,1.2-17.7,1.7c-16.1,1.3-32.3,2.1-48.4,2.6c-16.3,0.5-32.6-0.6-48.8-1.6c-15.7-0.9-31.6-2-47.3-1.6c-12.2,0.3-26.5,1.8-37.2-5.4c-11.2-7.6-9.9-20.3-9.7-32.1c0.2-15.1-2.7-29.9-4.7-44.9c-2.1-15.7-2.4-31.6-2.9-47.4c-0.5-16-0.7-32,0.1-48c0-0.9,0.3-1.7,0.6-2.3c0,0,0,0-0.1-0.1c-6.1-5.1-5.9-13-5.8-20.3c0-1.4,0.4-2.5,1.1-3.4c0.6-1.8,2.1-3.2,4.6-3.2c37.6,0,75.2-1.8,112.8-3.2c36.2-1.3,72.4-1.5,108.6-1.5c2.8,0,5.9,1.9,5.9,5.1v0.7c0,1.2-0.3,2.3-0.9,3.3c0.1,0.2,0.1,0.5,0.2,0.7c1,5.2,0.1,10.1,0,15.3c-0.1,2.4-1.1,4.9-3.7,5.6c-1.1,0.3-2.2,0.5-3.3,0.7c2.8,13.9,2.7,28.6,4.2,42.6c1.5,15.1,2.2,30.1,2.9,45.2c0.9,16.2,2,32.4,3,48.6C380.3,409.2,381,416.5,380.7,423.8z"/><path fill="#EF4823" d="M360.7,128.5c-3.9,3.5-8.3,6.5-13.6,7.6c-3.2,0.7-7.2-0.9-7.3-4.8c-0.1-3.6-0.2-7.5-1-11.1c-5,7.6-13.2,12.9-23,15.9c-4.7,1.4-8.7-3.1-6.7-7.6c1.2-2.8,1-5.7,0.3-8.5c-4.6,4.6-10.6,7.7-16.8,10.3c-4.4,1.8-11,3.6-14.2,7.2c-0.4,0.4-0.6,0.8-0.8,1.2c0.4,1.2,0.4,2.4,0.1,3.5c0.7,2,2.4,4,3.6,5.6c0.7,1,1,2,1,3c18.7,0,37.2-1.7,55.9-2.3c5.5-0.2,11.3-0.3,17.1,0.1c0-1.6,0.7-3.1,2.3-4.3C361.8,141.1,361.6,134.7,360.7,128.5z"/><path fill="#FEBF10" d="M353.9,185.2c-1.7-1.2-4-2.2-6.1-2.7c-1.2-0.3-2.5-0.6-3.8-0.6c-0.8,0-1.3,0.1-1.5,0.1c-0.9,1.7-2.6,2.6-4.3,2.8c-2,4.6-1.5,10.9,3.5,13.2c4.4,2,12.2,2.8,15.4-1.7C359.7,192.6,357.1,187.5,353.9,185.2z"/><path d="M379.8 401.9c-.9-16.2-2.1-32.4-3-48.6-.8-15.1-1.4-30.1-2.9-45.2-1.4-14.1-1.4-28.7-4.2-42.6 1.1-.2 2.2-.4 3.3-.7 2.5-.7 3.6-3.3 3.7-5.6.1-5.2 1-10.2 0-15.3-.1-.3-.1-.5-.2-.7.6-.9.9-2.1.9-3.3v-.7c0-3.2-3.1-5.1-5.9-5.1-36.2 0-72.4.2-108.6 1.5-37.6 1.4-75.1 3.1-112.8 3.2-2.5 0-4 1.4-4.6 3.2-.7.9-1.1 2-1.1 3.4-.1 7.3-.2 15.2 5.8 20.3 0 0 0 0 .1.1-.3.7-.5 1.5-.6 2.3-.8 16-.6 32-.1 48 .5 15.8.9 31.7 2.9 47.4 2 14.9 4.9 29.7 4.7 44.9-.2 11.8-1.5 24.6 9.7 32.1 10.7 7.2 24.9 5.7 37.2 5.4 15.8-.4 31.6.8 47.3 1.6 16.2.9 32.6 2 48.8 1.6 16.2-.5 32.3-1.3 48.4-2.6 5.9-.5 11.8-1 17.7-1.7 2.5 1.3 5.9 1 7.8-2-.1.1-.1.2-.2.3.2-.2.3-.4.4-.6.8-.1 1.6-.4 2.4-.8 4.6-2.7 3.7-13.1 3.9-17.7C381 416.5 380.3 409.2 379.8 401.9zM156 255.2c-.7-1.7-.8-3.6-.8-5.6 35.5-.1 71-1.7 106.5-3.1 34.3-1.3 68.6-1.5 102.9-1.6.2 1.1.7 2.1 1.4 2.9.1 2.3 0 4.7-.1 7-2.8.2-5.7-.1-8.4-.2-4.6-.1-9.3.5-14 .8-9.9.6-19.9.6-29.9.8-21.6.5-43.2 1.3-64.8 2.3-20.7 1-41.4 2.9-62.1 2-8.1-.4-16.4-1.2-24.4-2.3C160 258 157 257.9 156 255.2zM369 432.7c-.2.3-.4.5-.5.8-1.1 0-2.2.2-3.5.3-3.8.4-7.6.8-11.4 1.1-8.3.7-16.7 1.3-25 1.8-16.2.9-32.4 1.6-48.7 1.1-16.2-.5-32.4-1.7-48.7-2.4-14.5-.7-29 0-43.5-.4-5.5-.2-12.9-1.1-16.7-5.6-3.8-4.4-3.3-11.4-2.9-16.8 1-15.1-1.4-29.8-3.6-44.7-2.3-15.6-2.9-31.2-3.5-47-.6-16-.9-32.1-.3-48.1 0-1.2.1-2.3.1-3.5 3.5.4 7.1.5 10.2.9 23.1 2.9 46.1 1.1 69.2-.1 23.5-1.2 47.1-2.1 70.6-2.7 11.3-.3 22.5-.3 33.8-.9 4.7-.3 9.5-.8 14.2-.8 0 .1 0 .2.1.3 1.6 6.8 1.8 13.7 2.2 20.6.4 6.8 1.1 13.6 1.9 20.4 1.5 14.4 2.3 28.7 2.9 43.1.7 14.3 1.7 28.5 2.6 42.8C369.1 406.1 370.8 419.6 369 432.7zM178.7 183.5c-6.8-4.3-21.6-8.3-26 .6-1.7.1-3.3 1-4.4 2.9-5.5 10.4-2.3 23.2 8.1 28.7 9.3 5 24.1 3.5 29.8-6.2C191.6 200.5 187.3 188.9 178.7 183.5zM176.7 204.3c-3.2 4.5-11 3.7-15.4 1.7-5-2.3-5.5-8.5-3.5-13.2 1.7-.2 3.4-1 4.3-2.8.3-.1.8-.1 1.5-.1 1.2 0 2.6.4 3.8.6 2.1.5 4.3 1.5 6.1 2.7C176.6 195.5 179.2 200.6 176.7 204.3zM239.3 179.5c-6.8-4.3-21.6-8.3-26 .6-1.7.1-3.3 1-4.4 2.9-5.5 10.4-2.3 23.2 8.1 28.7 9.3 5 24.1 3.5 29.8-6.2C252.3 196.5 247.9 184.9 239.3 179.5zM237.3 200.3c-3.2 4.5-11 3.7-15.4 1.7-5-2.3-5.5-8.5-3.5-13.2 1.7-.2 3.4-1 4.3-2.8.3-.1.8-.1 1.5-.1 1.2 0 2.6.4 3.8.6 2.1.5 4.3 1.5 6.1 2.7C237.3 191.5 239.9 196.6 237.3 200.3zM298.4 179.5c-6.8-4.3-21.6-8.3-26 .6-1.7.1-3.3 1-4.4 2.9-5.5 10.4-2.3 23.2 8.1 28.7 9.3 5 24.1 3.5 29.8-6.2C311.4 196.5 307 184.9 298.4 179.5zM296.4 200.3c-3.2 4.5-11 3.7-15.4 1.7-5-2.3-5.5-8.5-3.5-13.2 1.7-.2 3.4-1 4.3-2.8.3-.1.8-.1 1.5-.1 1.2 0 2.6.4 3.8.6 2.1.5 4.3 1.5 6.1 2.7C296.4 191.5 299 196.6 296.4 200.3zM359.1 175.5c-6.8-4.3-21.6-8.3-26 .6-1.7.1-3.3 1-4.4 2.9-5.5 10.4-2.3 23.2 8.1 28.7 9.3 5 24.1 3.5 29.8-6.2C372.1 192.5 367.7 180.9 359.1 175.5zM357.1 196.3c-3.2 4.5-11 3.7-15.4 1.7-5-2.3-5.5-8.5-3.5-13.2 1.7-.2 3.4-1 4.3-2.8.3-.1.8-.1 1.5-.1 1.2 0 2.6.4 3.8.6 2.1.5 4.3 1.5 6.1 2.7C357.1 187.5 359.7 192.6 357.1 196.3z"/><path d="M419.9,63.5c-4.8-4.9-11.6-5.3-17.9-4.5c-1.1,0.1-2.4,0.4-3.7,0.8c-0.5-4.7-0.8-8.9-0.9-12.6c0-2.7-1.6-4.2-3.5-4.7c-4.5-7-16.7-7.6-23.9-7.6c-13-0.1-26.1,0.6-39.1,0.6c-14.8,0-30,0.6-44.7-0.7c-7.6-0.6-15.3-1.1-22.9-0.5c-10.2,0.7-23.5,4-23.5,16.5c0,1,0.2,1.8,0.6,2.4c-0.1,1.7-0.1,3.5-0.1,5.2c-12.7-5-33.5,7.4-26,22c3.9,7.5,16.9,11.8,26.1,9.8c-0.2,7.5-0.9,15.1-0.9,22.6c-0.1,8.2,1.2,17.3,6.9,23.6c5.4,6,13,6.6,20.4,8.1c0.7,2.1,1.8,4.2,3,6.1c-17.1-0.7-34.1-2.4-51.2-3.4c-32.2-1.9-68.5-3.3-96.3,15.8c-2.6,1.8-2.8,4.6-1.7,6.8c0,11.8,0.1,23.6,0.7,35.4c0.7,12.6,2.2,25,2.2,37.6c-0.1,25.5-1.1,50.8-0.1,76.3c1,25.3,2.8,50.5,4.1,75.7c0.7,12.2,2.1,24.4,2.4,36.6c0.2,7.5-1.9,15.6,0,22.9c-0.3,1.3-0.1,2.7,0.9,4.2c5.5,7.4,13.3,11.4,21.8,13.7c0.1,7.6,1,16.1,6.2,21.9c3.9,4.4,11.8,2.5,16.9,2.6c6.3,0.2,13.5,1.1,19-2.5c5.3-3.4,4.8-10.9,4.4-16.9c28.4,1.1,57,0.3,85.3,0.1c15-0.1,29.9-0.4,44.9-1.2c3.6-0.2,7.1-0.5,10.7-0.8c0.3,6.6,1.5,14.7,6.6,19.2c6.2,5.6,16,1.9,23,0.7c6.8-1.2,15-1.5,16.8-9.6c0.9-3.9,0.7-8.2,0.9-12.2c0-0.1,0-0.3,0-0.4c9.1-1.5,17.2-5.3,20.4-14.5c0.1-0.2,0.1-0.4,0.2-0.6c0-0.1,0.1-0.2,0.1-0.3c0.4-1.2,0.3-2.2,0-3.1c-0.6-14.4-2.3-28.9-3.2-43.3c-1-16.1-1.8-32.2-2.3-48.4c-1.1-32.3-0.4-64.7-1-97c-0.3-15.8-1-31.6-0.9-47.5c0.1-14.8,0.2-30-3.9-44.4c-4.4-15.2-16.1-21.7-29.4-24.3c0.6-0.8,1.2-1.5,1.6-2.3c0,0,0.1,0,0.1,0c30.6-0.5,34.3-27.8,32.6-55.5c6.4-1,13.2-3.1,18.1-7.4C426.6,78.7,426.1,69.9,419.9,63.5z M240.2,78.3c-3.8,3-11.7,0.3-15.2-2.3c-2.1-1.6-1.9-2-0.3-3.9c2.4-2.8,7.8-5.3,11.4-3.6c1.5,0.7,2.9,0.7,4,0.3c0,3.2,0.1,6.3,0.1,9.5C240.3,78.3,240.2,78.3,240.2,78.3z M251.4,48.3c2.4-2.5,10.9-3.1,13.7-3.3c6.8-0.5,13.6,0,20.4,0.6c15.9,1.3,32.2,0.7,48.1,0.7c12.9,0,25.7-0.6,38.5-0.6c3,0,8.4,0,11.4,2c-0.3,0.1-0.5,0.3-0.7,0.4c-1.8,1-3.9,1.6-5.9,2.1c-12.4,3.5-26.1,3.8-39,3.8c-14.9,0-29.9-0.3-44.7-0.9c-14-0.5-27.9-2.1-41.8-2.8c0-0.4,0-0.8,0-1.2C251.4,48.8,251.4,48.6,251.4,48.3z M187.9,485.2c0,0.2,0,0.4,0,0.5c-0.1,0-0.3,0-0.6,0.1c-3.7,1.2-8.7,0.3-12.6,0.2c-1.8-0.1-7.4,1.1-8.7,0.1c-0.9-0.8-1.6-5.1-1.9-6.2c-0.4-1.7-0.5-3.5-0.6-5.2c8.1,1.3,16.3,2,24.4,2.5c0.1,1.4,0.2,2.9,0.2,4.3C188.2,482.6,188.1,483.8,187.9,485.2z M376.2,474.7c-0.1,2.5-0.3,5-0.4,7.4c-0.1,1.8,0.2,1.3-1.2,1.6c-2.7,0.5-5.4,0.8-8.1,1.3c-3.8,0.8-9.4,3.1-13.2,1.4c-2.1-0.9-2.4-8.2-2.5-11.6c4.7-0.3,9.4-0.6,14.1-0.5c3.4,0,7.3,0.1,11.3,0C376.3,474.4,376.2,474.6,376.2,474.7z M373.6,162.9c11.7,5.1,13.9,17.6,15.1,29c1.6,15.3,0.5,30.7,1,46c1.1,36.9,0.6,73.7,1.4,110.6c0.4,18.7,1.2,37.4,2.3,56.1c1,17.2,3,34.4,3.7,51.5c-1.6,4.4-7.5,5.8-12,6.4c-2.4-3.6-7-2.3-8.8,0.8c-5.2,0.2-10.4,0-15.6,0c-12,0-24.1,1.8-36.1,2.4c-13.7,0.6-27.3,0.9-41,1c-27.1,0.2-54.2,0.5-81.3,0c-12.6-0.2-25.1-1.5-37.6-3.2c-8.3-1.1-17.5-3-23.3-9.3c-0.1-0.2-0.1-0.3-0.2-0.5c-3.1-7.2-0.3-17.1-0.4-24.8c-0.3-12.3-1.8-24.6-2.5-36.8c-1.4-25.2-3.1-50.5-4.1-75.7c-1-24.9,0-49.5,0.2-74.4c0.1-12-1.3-23.8-2.1-35.7c-0.8-12-0.8-24.1-0.8-36.2c20.6-12.6,46.2-13.5,69.8-12.8c28.7,0.8,57.3,4.7,86,4.5c16-0.1,31.9-1.4,47.9-2.1C347.5,159.1,362,157.8,373.6,162.9z M315.7,136.1c9.8-2.9,18-8.2,23-15.9c0.8,3.6,0.9,7.4,1,11.1c0.1,3.9,4.1,5.5,7.3,4.8c5.3-1.1,9.7-4.1,13.6-7.6c0.9,6.2,1.2,12.7-3.2,15.9c-1.6,1.2-2.3,2.7-2.3,4.3c-5.8-0.3-11.7-0.2-17.1-0.1c-18.7,0.6-37.2,2.3-55.9,2.3c0-1-0.3-2-1-3c-1.2-1.7-2.8-3.6-3.6-5.6c0.3-1.1,0.3-2.4-0.1-3.5c0.2-0.4,0.4-0.8,0.8-1.2c3.2-3.7,9.8-5.4,14.2-7.2c6.2-2.6,12.2-5.7,16.8-10.3c0.8,2.8,1,5.7-0.3,8.5C307.1,132.9,311,137.5,315.7,136.1z M390.7,104.9c-0.1,7.4-0.9,15.1-3.8,21.9c-2.9,6.8-8.6,9.1-15.3,9.7c0.1-6.5-1.4-13.6-1.6-20.1c-0.1-5.1-6.5-6.4-9.6-3.2c-3.2,3.3-6.3,6.8-10,9.4c-0.2-2.4-0.6-4.8-1.3-6.9c-1.5-4.4-4.7-8.6-5-13.3c-0.5-7.2-10.8-6.1-11,0.8c-0.2,9.1-5.5,15.1-12.6,18.9c-0.5-5.3-2.7-10.3-4.8-15.9c-1.6-4.2-8.2-5.2-10.1-0.6c-4.7,11.3-17.6,13.8-27.5,18.8c-4.3,2.2-8.4,5-10.6,9.1c-5.2-0.7-10.9-1.5-13.8-5.5c-4.3-5.8-3.5-15.2-3.2-22c0.7-15,0.3-29.9,0.5-44.9c14.3,0.7,28.6,2.3,43,2.9c14.9,0.6,29.8,0.8,44.7,0.9c13.6,0.1,26.9-1.1,40.2-4c2.3-0.5,5.2-1.4,7.9-2.6C388.1,73.9,391,89.2,390.7,104.9z M400.7,81.2c-0.3-3.4-0.7-6.7-1.1-9.9c0.4-0.3,0.8-0.6,1.2-1c0.1,0,0.2,0,0.3-0.1c1.5-0.3,3-0.4,4.5-0.5c3-0.2,4.4-0.1,7.1,2.1C418.2,76.5,405.4,80.2,400.7,81.2z"/></svg>