<svg xmlns="http://www.w3.org/2000/svg"  viewBox="0 0 48 48" width="64px" height="64px"><path fill="#c56528" d="M3.5,33.5c0,3.06-0.215,3.195,0,6.5c3.479,1.579,5.774,2.239,9,3.756	c0.631,0.297,1.627,0.602,2.315,0.715c0.436,0.072,0.882-0.001,1.313-0.096c1.597-0.352,3.188-1.311,4.688-1.965	c1.494-0.651,2.785-1.259,4.279-1.911c0.11-0.048,0.224-0.099,0.3-0.192c0.127-0.155,0.113-0.377,0.093-0.576	C25.118,36.024,25.278,32.22,25.5,28.5c-3.195-1.36-6.423-2.697-9.619-4.057c-0.216-0.092-0.439-0.186-0.674-0.189	c-0.303-0.005-0.586,0.14-0.855,0.279c-3.273,1.691-6.735,2.968-10.156,4.336c-0.718,0.287-0.718,0.889-0.79,1.923	C3.34,31.738,3.482,32.551,3.5,33.5"/><path fill="#71c598" d="M21.742,7.219c-0.071,2.716,0.007,1.737,0.066,4.453c0.026,1.196,0.093,3.623,0.093,3.623	s3.4,1.113,5.861,1.349c2.623,0.252,3.862-0.149,6.076-0.513c2.327-0.382,3.38-0.824,5.736-0.936c1.7-0.081,2.832-0.063,5.102,0.675	c-0.275-3.029-0.291-10.508-0.573-10.654c-1.988-1.033-5.514-1.245-7.702-0.763c-2.188,0.481-4.305,1.295-6.527,1.584	c-2.151,0.28-5.921-0.659-7.97-1.37C21.904,4.667,21.782,5.68,21.742,7.219z"/><path fill="#010101" d="M29.311,17.223c-0.48,0-1.004-0.024-1.597-0.081c-2.488-0.238-5.828-1.325-5.969-1.371	c-0.201-0.066-0.339-0.251-0.345-0.462c0,0-0.066-2.429-0.093-3.626c-0.022-1.024-0.047-1.52-0.065-1.887	c-0.031-0.609-0.045-0.887,0-2.591c0.04-1.544,0.16-2.556,0.166-2.598c0.018-0.15,0.103-0.284,0.231-0.364	c0.128-0.081,0.285-0.099,0.429-0.049c1.982,0.689,5.681,1.613,7.741,1.347c1.321-0.172,2.644-0.546,3.923-0.907	c0.833-0.236,1.695-0.479,2.561-0.67c2.192-0.482,5.89-0.309,8.04,0.809c0.377,0.195,0.416,0.216,0.582,5.425	c0.067,2.11,0.138,4.292,0.259,5.628c0.015,0.167-0.055,0.331-0.187,0.436c-0.131,0.105-0.305,0.137-0.466,0.085	c-2.145-0.697-3.194-0.732-4.925-0.651c-1.481,0.07-2.44,0.276-3.55,0.515c-0.625,0.135-1.296,0.278-2.128,0.415	c-0.421,0.069-0.806,0.14-1.173,0.207C31.588,17.043,30.606,17.223,29.311,17.223z M22.391,14.925	c0.909,0.281,3.483,1.036,5.419,1.221c2.051,0.195,3.187-0.011,4.757-0.298c0.372-0.068,0.763-0.14,1.19-0.21	c0.813-0.134,1.469-0.274,2.08-0.406c1.152-0.248,2.148-0.462,3.713-0.535c1.517-0.072,2.643-0.075,4.571,0.48	c-0.091-1.349-0.148-3.174-0.205-4.948c-0.058-1.81-0.129-4.023-0.225-4.658c-1.923-0.904-5.219-1.063-7.184-0.63	c-0.837,0.185-1.684,0.424-2.503,0.655c-1.313,0.372-2.673,0.756-4.066,0.938c-2.159,0.282-5.624-0.57-7.596-1.194	c-0.037,0.44-0.08,1.097-0.101,1.893v0.001c-0.045,1.664-0.032,1.913-0.002,2.513c0.02,0.373,0.045,0.876,0.067,1.916	C22.327,12.574,22.371,14.207,22.391,14.925z M21.742,7.219h0.01H21.742z"/><path fill="#010101" d="M15.187,45c-0.15,0-0.302-0.011-0.454-0.036c-0.744-0.121-1.773-0.439-2.445-0.756	c-1.661-0.781-3.06-1.327-4.54-1.906c-1.362-0.532-2.771-1.082-4.454-1.847c-0.168-0.076-0.28-0.238-0.292-0.423	c-0.136-2.094-0.102-2.947-0.057-4.026C2.97,35.367,3,34.639,3,33.505c-0.007-0.351-0.031-0.684-0.055-1.011	c-0.04-0.549-0.081-1.117-0.038-1.738l0.012-0.165c0.065-0.966,0.121-1.799,1.092-2.187l1.835-0.728	c2.759-1.087,5.61-2.211,8.277-3.589c0.295-0.152,0.674-0.332,1.092-0.334c0.342,0.006,0.644,0.136,0.863,0.23	c1.596,0.679,3.2,1.353,4.806,2.026c1.606,0.674,3.214,1.349,4.812,2.029c0.194,0.083,0.315,0.278,0.303,0.489	c-0.204,3.419-0.39,7.383-0.015,11.153c0.021,0.217,0.062,0.619-0.202,0.942c-0.154,0.188-0.354,0.275-0.487,0.333	c-0.741,0.323-1.433,0.636-2.123,0.948c-0.702,0.317-1.404,0.635-2.157,0.962c-0.441,0.193-0.892,0.413-1.348,0.636	c-1.108,0.541-2.254,1.101-3.432,1.359C15.901,44.937,15.549,45,15.187,45z M3.98,39.668c1.54,0.69,2.855,1.204,4.131,1.702	c1.496,0.585,2.91,1.138,4.602,1.934c0.579,0.272,1.538,0.568,2.183,0.674c0.355,0.06,0.752-0.009,1.125-0.091	c1.061-0.233,2.152-0.767,3.208-1.281c0.469-0.229,0.932-0.455,1.387-0.653c0.749-0.326,1.447-0.642,2.145-0.957	c0.695-0.314,1.39-0.629,2.135-0.953c0.039-0.018,0.104-0.046,0.124-0.062c-0.011-0.01-0.024-0.152-0.029-0.199	c-0.369-3.714-0.206-7.583-0.009-10.959c-1.49-0.633-2.987-1.262-4.483-1.89c-1.606-0.674-3.214-1.349-4.812-2.029	c-0.194-0.084-0.353-0.147-0.486-0.149c-0.163,0.019-0.402,0.112-0.616,0.223c-2.712,1.401-5.588,2.535-8.369,3.631l-1.831,0.725	c-0.353,0.142-0.4,0.361-0.465,1.326l-0.012,0.168c-0.039,0.55-0.002,1.058,0.037,1.596C3.968,32.768,3.993,33.119,4,33.491	c0,0.003,0,0.006,0,0.009c0,1.154-0.03,1.896-0.057,2.547C3.9,37.083,3.869,37.846,3.98,39.668z"/><path fill="#2b8c5e" d="M39.935,9.173c-0.285-0.044-1.353,0.269-1.423,1.364c-0.042,0.655,0.248,1.431,1.262,1.574	c1.133,0.159,1.796-0.906,1.712-1.561c-0.123-0.957-0.621-1.225-1.544-1.368"/><path fill="#2b8c5e" d="M26.084,9.411c-0.379-0.053-1.385,0.396-1.427,1.185c-0.039,0.72,0.184,1.55,1.029,1.749	c1.041,0.244,1.692-0.629,1.761-0.784c0.235-0.524,0.208-1.291-0.191-1.704c-0.241-0.25-0.684-0.456-1.172-0.444"/><path fill="#010101" d="M14.592,33.931c-0.05,0-0.102-0.008-0.152-0.023l-0.473-0.15c-0.974-0.311-2.451-0.78-3.192-1.043	c-0.778-0.276-1.567-0.71-2.144-1.026c-0.304-0.167-0.555-0.308-0.725-0.377c-0.717-0.293-2.898-1.183-4.016-1.534	c-0.264-0.082-0.41-0.363-0.327-0.626c0.082-0.264,0.364-0.413,0.626-0.327c0.779,0.244,2.118,0.755,4.094,1.562	c0.194,0.079,0.483,0.235,0.83,0.426c0.576,0.317,1.294,0.712,1.995,0.96c0.734,0.261,2.197,0.727,3.162,1.033l0.474,0.15	c0.263,0.084,0.408,0.365,0.324,0.629C15,33.795,14.804,33.931,14.592,33.931z"/><path fill="#010101" d="M15.028,44.812c-0.202,0-0.393-0.124-0.468-0.324c-0.325-0.868-0.363-3.292-0.36-5.308v-0.119	c0.001-1.002,0.036-1.913,0.071-2.825c0.034-0.9,0.069-1.8,0.07-2.788c0-0.236,0.165-0.439,0.396-0.489	c0.028-0.006,2.793-0.601,4.315-1.309c0.79-0.367,2.043-1.136,3.255-1.879c1.184-0.727,2.302-1.412,2.956-1.704	c0.253-0.112,0.549,0.001,0.661,0.253c0.112,0.253-0.001,0.548-0.253,0.661c-0.596,0.265-1.687,0.934-2.842,1.643	c-1.235,0.758-2.514,1.541-3.355,1.933c-1.283,0.598-3.289,1.097-4.135,1.292c-0.009,0.848-0.039,1.637-0.069,2.426	c-0.034,0.9-0.069,1.8-0.07,2.788v0.12c-0.004,2.751,0.096,4.418,0.297,4.954c0.097,0.259-0.035,0.547-0.294,0.645	C15.146,44.802,15.087,44.812,15.028,44.812z"/><path fill="#010101" d="M39.999,12.627c-0.097,0-0.195-0.007-0.294-0.021c-1.336-0.188-1.746-1.249-1.691-2.102	c0.036-0.562,0.281-1.043,0.71-1.388c0.437-0.351,0.982-0.48,1.288-0.438c0.03,0.005,0.06,0.012,0.088,0.021	c0.888,0.148,1.716,0.484,1.883,1.785c0.067,0.523-0.171,1.141-0.607,1.571C40.998,12.43,40.518,12.627,39.999,12.627z M39.85,9.674	c-0.144,0.024-0.793,0.179-0.838,0.895c-0.022,0.345,0.057,0.938,0.832,1.048c0.404,0.061,0.673-0.116,0.829-0.271	c0.237-0.234,0.341-0.553,0.317-0.732c-0.081-0.633-0.291-0.808-1.124-0.937C39.86,9.676,39.854,9.675,39.85,9.674z"/><path fill="#010101" d="M26.05,12.887c-0.152,0-0.312-0.017-0.479-0.057c-0.934-0.219-1.476-1.085-1.413-2.261	c0.023-0.442,0.242-0.846,0.634-1.167c0.403-0.333,0.945-0.519,1.334-0.49c0.001,0,0.003,0,0.004,0c0.563,0,1.129,0.227,1.486,0.597	c0.576,0.596,0.578,1.606,0.287,2.255C27.753,12.103,27.07,12.887,26.05,12.887z M26.005,9.907c-0.193,0.007-0.827,0.292-0.85,0.715	c-0.021,0.399,0.034,1.092,0.644,1.235c0.751,0.166,1.193-0.51,1.198-0.517c0.165-0.369,0.121-0.907-0.101-1.137	c-0.138-0.143-0.434-0.292-0.768-0.292c-0.015-0.001-0.03,0.001-0.045,0.001C26.057,9.913,26.03,9.911,26.005,9.907z"/><path fill="#010101" d="M20.056,31.936c-0.079,0-0.16-0.019-0.234-0.059c-0.033-0.018-3.29-1.747-5.272-2.705	c-1.968-0.953-4.704-1.98-4.731-1.991c-0.258-0.097-0.39-0.385-0.292-0.644c0.097-0.258,0.382-0.393,0.644-0.292	c0.027,0.01,2.806,1.053,4.815,2.026c1.999,0.967,5.273,2.705,5.306,2.723c0.244,0.13,0.337,0.433,0.207,0.676	C20.407,31.839,20.234,31.936,20.056,31.936z"/><path fill="#010101" d="M31.377,36.047c-0.311,0-0.62-0.017-0.931-0.05c-0.274-0.029-0.473-0.275-0.443-0.551	c0.029-0.274,0.279-0.474,0.551-0.443c3.09,0.331,6.272-1.221,8.125-3.95c0.252-0.37,0.491-0.783,0.732-1.262	c1.044-2.064,1.126-5.282,1.186-7.632c0.007-0.275,0.237-0.49,0.513-0.487c0.276,0.007,0.494,0.236,0.487,0.513	c-0.062,2.444-0.148,5.792-1.293,8.058c-0.261,0.517-0.521,0.966-0.797,1.372C37.634,34.373,34.52,36.047,31.377,36.047z"/><path fill="#010101" d="M7.808,22.318c-0.254,0-0.471-0.192-0.496-0.45c-0.237-2.382-0.481-4.845,0.068-7.271	c0.628-2.771,2.295-4.944,4.461-5.817c1.412-0.568,3.361-0.86,5.181-0.78c0.276,0.013,0.49,0.246,0.479,0.521	C17.487,8.797,17.251,8.978,16.979,9C15.3,8.913,13.48,9.197,12.214,9.708c-1.861,0.75-3.304,2.66-3.859,5.11	c-0.514,2.268-0.277,4.648-0.049,6.95c0.027,0.275-0.173,0.521-0.447,0.547C7.841,22.317,7.824,22.318,7.808,22.318z"/><path fill="#010101" d="M7.744,22.789c-0.559,0-1.013-0.411-1.224-0.602l-2.556-2.312C3.76,19.69,3.744,19.374,3.929,19.17	c0.186-0.205,0.502-0.219,0.706-0.036l2.557,2.312c0.278,0.252,0.459,0.366,0.586,0.34c0.143-0.038,0.279-0.362,0.38-0.6	c0.434-1.022,1.097-1.903,1.934-2.581c0.213-0.174,0.528-0.142,0.703,0.074c0.174,0.214,0.141,0.529-0.074,0.703	c-0.709,0.574-1.272,1.322-1.629,2.162c-0.193,0.459-0.44,1.045-1.06,1.208C7.933,22.777,7.837,22.789,7.744,22.789z"/><path fill="#010101" d="M44.189,26.299c-0.126,0-0.252-0.047-0.349-0.142c-0.596-0.58-1.02-1.288-1.429-1.974	c-0.415-0.693-0.811-1.354-1.352-1.838c-0.229,0.279-0.44,0.553-0.652,0.825c-0.313,0.403-0.626,0.806-0.989,1.228l-0.112,0.129	c-0.364,0.42-0.604,0.698-1.222,1.553c-0.161,0.224-0.476,0.275-0.697,0.113c-0.225-0.161-0.275-0.474-0.113-0.697	c0.643-0.892,0.908-1.198,1.276-1.623l0.111-0.129c0.351-0.406,0.653-0.797,0.956-1.187c0.313-0.403,0.626-0.806,0.989-1.228	c0.166-0.19,0.446-0.229,0.656-0.089c0.919,0.611,1.472,1.536,2.006,2.43c0.395,0.658,0.767,1.281,1.269,1.77	c0.198,0.192,0.202,0.51,0.01,0.707C44.449,26.248,44.319,26.299,44.189,26.299z"/><path fill="#010101" d="M33.438,14.188c-0.195,0-0.395-0.019-0.594-0.055c-1.169-0.214-2.11-1.038-2.455-2.148	c-0.275-0.889-0.171-1.958,0.272-2.79c0.353-0.661,0.881-1.112,1.528-1.306c1.217-0.362,2.581-0.142,3.316,0.541	c0.203,0.188,0.215,0.504,0.026,0.706c-0.188,0.204-0.505,0.215-0.706,0.026c-0.474-0.438-1.482-0.574-2.352-0.314	c-0.486,0.145-0.774,0.524-0.931,0.817c-0.318,0.596-0.396,1.39-0.2,2.022c0.234,0.755,0.878,1.314,1.68,1.462	c0.777,0.138,1.508-0.124,1.966-0.709c0.17-0.221,0.484-0.258,0.701-0.086c0.218,0.17,0.257,0.484,0.086,0.701	C35.206,13.786,34.359,14.188,33.438,14.188z"/><path fill="#010101" d="M31.09,10.843c-0.397,0-0.801-0.046-1.188-0.189c-0.259-0.097-0.391-0.384-0.295-0.643	c0.097-0.26,0.386-0.392,0.643-0.295c0.515,0.19,1.151,0.126,1.77,0.062c0.331-0.034,0.656-0.066,0.965-0.066	c0.276,0,0.5,0.224,0.5,0.5s-0.224,0.5-0.5,0.5s-0.566,0.031-0.863,0.062C31.792,10.807,31.443,10.843,31.09,10.843z"/><path fill="#010101" d="M29.914,12.553c-0.251,0-0.467-0.188-0.496-0.443c-0.031-0.274,0.166-0.522,0.44-0.554	c0.059-0.007,1.458-0.163,3.606-0.227c0.284-0.024,0.507,0.209,0.515,0.485s-0.209,0.506-0.485,0.515	c-2.104,0.062-3.509,0.219-3.522,0.221C29.952,12.552,29.934,12.553,29.914,12.553z"/></svg>