<svg xmlns="http://www.w3.org/2000/svg"  viewBox="0 0 48 48" width="64px" height="64px"><path fill="#d6e5e5" d="M16.128,5.191c0,0-12.064,5.362-12.447,15.415s2.298,19.436,12.255,23.17S37,40.904,38.34,39.372 c1.34-1.532,9.67-12.543,4.021-24.798S23.691,3.564,16.128,5.191z"/><path fill="#ef4754" d="M45.031,17.391c-0.445-1.671-1.261-3.219-2.158-4.697c-1.938-3.193-4.34-6.185-7.462-8.237 c-1.785-1.173-9.405-1.964-11.318-1.921C19.909,2.629,15.292,2.919,11.5,5.5c-1.912,1.301-2.935,3.137-4.509,4.832 c-1.372,1.477-2.565,3.137-3.393,4.975c-0.839,1.862-1.291,3.882-1.492,5.914c-0.456,4.622,0.395,9.367,2.43,13.542 c2.489,5.106,6.963,9.437,12.479,10.793c2.043,0.502,4.162,0.591,6.265,0.662c2.763,0.093,5.618,0.143,8.182-0.891 c1.491-0.602,2.839-1.508,4.3-2.181c5.74-2.646,8.288-8.131,8.857-9.294c0.746-1.525,0.817-3.281,0.861-4.978 c0.053-2.051,0.086-4.102,0.073-6.154C45.54,20.93,45.491,19.12,45.031,17.391z M42.362,29.032 c-0.459,3.076-2.269,5.988-4.408,8.246c-1.375,1.451-3.101,2.516-4.843,3.498c-1.115,0.628-2.256,1.234-3.487,1.585 c-0.831,0.237-1.691,0.354-2.549,0.456c-2.89,0.342-5.831,0.509-8.702,0.028s-5.687-1.652-7.761-3.694 c-2.865-2.82-4.004-6.914-4.894-10.834c-0.393-1.729-0.761-3.485-0.689-5.256c0.106-2.597,0.609-5.526,2.003-7.72 c1.931-3.037,4.825-6.32,8.326-7.472c1.66-0.546,3.32-1.093,4.98-1.639c0.893-0.294,1.791-0.589,2.722-0.722 c1.566-0.224,3.157,0.018,4.72,0.26c1.789,0.277,3.599,0.56,5.263,1.272c2.611,1.118,4.679,3.218,6.413,5.467 c0.615,0.797,1.202,1.629,1.588,2.559c0.588,1.415,1.234,3.245,1.319,4.775C42.534,22.946,42.821,25.956,42.362,29.032z"/><path fill="#74cccf" d="M42.262,19.093c0.038,0.252,0.086,0.508,0.1,0.747c0.172,3.105,0.459,6.115,0,9.191 s-2.269,5.988-4.408,8.246c-1.375,1.451-3.101,2.516-4.843,3.498c-1.115,0.628-2.256,1.234-3.487,1.585 c-0.831,0.237-1.691,0.354-2.549,0.456c-2.89,0.342-5.831,0.509-8.702,0.028s-5.687-1.652-7.761-3.694 c-2.865-2.82-4.004-6.914-4.894-10.834c-0.193-0.849-0.379-1.706-0.511-2.567c-1.205-0.117-2.26-0.267-3.153-0.425 c0.215,3.267,1.047,6.495,2.482,9.439c2.489,5.106,6.963,9.437,12.479,10.793c2.043,0.502,4.162,0.591,6.265,0.662 c2.763,0.093,5.618,0.143,8.182-0.891c1.491-0.602,2.839-1.508,4.3-2.181c5.74-2.646,8.288-8.131,8.857-9.294 c0.746-1.525,0.817-3.281,0.861-4.978c0.053-2.051,0.086-4.102,0.073-6.154c-0.01-1.586-0.067-3.184-0.396-4.731 C44.244,18.356,43.269,18.724,42.262,19.093z"/><path fill="#8a4581" d="M25.966,42.937c-2.531,0.252-5.089,0.326-7.593-0.093c-2.871-0.481-5.687-1.652-7.761-3.694 c-2.865-2.82-4.004-6.914-4.894-10.834c-0.193-0.849-0.379-1.706-0.511-2.567c-1.205-0.117-2.26-0.267-3.153-0.425 c0.215,3.267,1.047,6.495,2.482,9.439c2.489,5.106,6.963,9.437,12.479,10.793c2.043,0.502,4.162,0.591,6.265,0.662 c1.026,0.035,2.065,0.063,3.097,0.032C26.267,45.157,26.129,44.049,25.966,42.937z"/><path fill="#ef4754" d="M33.902,24.532c-0.018,3.152,0.09,6.065-1.178,8.234c-1.933,3.307-6.654,3.319-7.739,2.298 c-1.061-0.999-1.355-3.114-0.663-4.396c0.727-1.348,2.786-2.689,5.658-3.778c0.273-0.103,0.511-0.288,0.721-0.49 c0.689-0.662,0.711-1.738,0.686-2.693c-0.062-2.392-0.005-3.931-0.067-6.323c0.191-1.149-2.154-0.181-3.206,0.055 c-1.454,0.327-3.557,0.567-4.645,0.71c-1.102,0.145-3.064-0.128-3.06,1.066c-0.132,4.423-0.78,7.554-0.458,11.331 c0.085,1,0.202,2.024-0.054,2.995c-0.517,1.958-2.505,3.267-4.515,3.516c-0.722,0.089-1.763,0.057-2.414-0.269 c-1.293-0.648-2.073-2.406-1.628-3.782c0.445-1.376,2.193-2.37,3.499-2.993c1.021-0.487,2.249-0.87,2.709-1.903 c0.21-0.47,0.217-1.002,0.216-1.516c-0.002-4.115-0.254-8.249,0.249-12.333c0.05-0.406,0.128-0.85,0.441-1.114 c0.417-0.351,10.074-1.873,13.767-2.213c0.485-0.045,1.025-0.069,1.403,0.238c0.599,0.488,0.371,1.313,0.331,1.97 c-0.061,1.019-0.013,2.057-0.018,3.077C33.926,18.353,33.914,22.398,33.902,24.532z"/><path fill="#8a4581" d="M20.192,22.869c-1.011,0.052-1.855,0.084-2.467,0.103c0.018,1.207,0.04,2.415,0.04,3.621 c0,0.515-0.007,1.046-0.216,1.516c-0.46,1.033-1.689,1.416-2.709,1.903c-1.306,0.622-3.054,1.617-3.499,2.993 c-0.445,1.376,0.335,3.134,1.628,3.782c0.651,0.326,1.691,0.358,2.414,0.269c2.01-0.249,3.998-1.557,4.515-3.516 c0.256-0.971,0.139-1.994,0.054-2.995C19.724,27.895,19.976,25.554,20.192,22.869z"/><path fill="#74cccf" d="M31.357,21.757c0.004,0.605,0.011,1.237,0.03,1.949c0.025,0.955,0.003,2.031-0.686,2.693 c-0.21,0.202-0.449,0.386-0.721,0.49c-2.873,1.09-4.931,2.43-5.658,3.778c-0.692,1.283-0.398,3.398,0.663,4.396 c1.085,1.021,5.806,1.009,7.739-2.298c1.268-2.169,1.161-5.082,1.178-8.234c0.005-0.857,0.01-2.025,0.014-3.251 C33.088,21.457,32.229,21.615,31.357,21.757z"/><path d="M25.431,46.763c-0.705,0-1.427-0.02-2.168-0.044c-1.868-0.063-4.193-0.143-6.367-0.677 c-5.277-1.297-10.065-5.431-12.809-11.06c-2.091-4.286-2.947-9.062-2.479-13.811c0.224-2.264,0.739-4.306,1.534-6.071 c0.789-1.751,1.961-3.47,3.483-5.109c0.514-0.554,0.978-1.135,1.426-1.697c0.901-1.131,1.834-2.3,3.168-3.208 c3.874-2.637,8.479-2.954,12.863-3.051c1.93-0.037,9.694,0.749,11.604,2.003c2.821,1.854,5.312,4.6,7.614,8.395 c0.771,1.269,1.718,2.964,2.214,4.828c0.476,1.786,0.526,3.599,0.538,5.454c0.012,1.824-0.012,3.785-0.073,6.17 c-0.041,1.563-0.091,3.507-0.912,5.185l-0.049,0.101c-2.727,5.602-6.425,8.22-9.048,9.429c-0.62,0.285-1.236,0.624-1.833,0.951 c-0.796,0.437-1.619,0.889-2.488,1.239C29.705,46.574,27.651,46.763,25.431,46.763z M24.258,3.034 c-0.055,0-0.106,0.001-0.154,0.002C19.869,3.13,15.43,3.43,11.781,5.914c-1.208,0.823-2.054,1.883-2.949,3.005 c-0.459,0.577-0.935,1.172-1.475,1.754l0,0c-1.448,1.559-2.56,3.188-3.304,4.84c-0.75,1.665-1.238,3.603-1.45,5.758 c-0.451,4.564,0.373,9.155,2.382,13.275c2.615,5.364,7.156,9.3,12.148,10.526c1.92,0.472,3.846,0.569,6.162,0.647 c2.96,0.1,5.6,0.104,7.979-0.855c0.814-0.328,1.61-0.766,2.381-1.188c0.612-0.335,1.244-0.683,1.896-0.982 c2.475-1.141,5.97-3.621,8.566-8.958l0.05-0.103c0.726-1.482,0.772-3.306,0.811-4.771c0.062-2.375,0.084-4.326,0.073-6.139 c-0.012-1.788-0.06-3.531-0.505-5.203c-0.463-1.741-1.366-3.355-2.103-4.567c-2.224-3.665-4.614-6.307-7.308-8.078 C33.525,3.816,26.373,3.034,24.258,3.034z"/><path d="M22.233,43.642c-1.284,0-2.618-0.082-3.943-0.305c-2.274-0.381-5.515-1.354-8.029-3.83 c-2.988-2.942-4.164-7.262-5.031-11.08c-0.411-1.81-0.774-3.584-0.701-5.387c0.095-2.289,0.531-5.529,2.082-7.967l0.422,0.268 L6.61,15.072c1.457-2.291,4.51-6.335,8.591-7.679l4.98-1.639c0.901-0.296,1.833-0.603,2.807-0.742 c1.653-0.236,3.287,0.017,4.867,0.261c1.796,0.278,3.652,0.565,5.384,1.307c2.319,0.994,4.421,2.78,6.611,5.622 c0.612,0.794,1.236,1.668,1.654,2.672c0.841,2.028,1.284,3.644,1.355,4.939l0.075,1.27c0.167,2.734,0.324,5.316-0.08,8.023 c-0.425,2.851-2.037,5.875-4.538,8.516c-1.422,1.5-3.225,2.611-4.962,3.589c-1.099,0.62-2.282,1.256-3.596,1.63 c-0.888,0.254-1.784,0.372-2.627,0.472C25.706,43.481,24.019,43.642,22.233,43.642z M24.378,5.918 c-0.418,0-0.835,0.025-1.247,0.084c-0.888,0.127-1.776,0.419-2.637,0.702l-4.98,1.64c-3.786,1.246-6.675,5.087-8.06,7.265 c-1.431,2.251-1.837,5.306-1.926,7.472c-0.069,1.681,0.28,3.383,0.676,5.125c0.875,3.848,1.962,7.835,4.758,10.588 c2.329,2.293,5.36,3.2,7.494,3.557c3.041,0.51,6.173,0.252,8.56-0.03c0.802-0.096,1.653-0.207,2.47-0.44 c1.209-0.345,2.332-0.949,3.38-1.54c1.929-1.085,3.47-2.08,4.726-3.405c2.362-2.493,3.881-5.326,4.276-7.977 c0.388-2.602,0.233-5.134,0.07-7.814l-0.075-1.275c-0.064-1.165-0.495-2.716-1.281-4.611c-0.373-0.896-0.952-1.705-1.522-2.445 c-2.082-2.701-4.057-4.39-6.214-5.313c-1.614-0.691-3.407-0.969-5.142-1.237C26.608,6.092,25.486,5.918,24.378,5.918z"/><path d="M14.647,37.6c-0.653,0-1.366-0.096-1.903-0.365c-1.538-0.771-2.398-2.778-1.879-4.384c0.513-1.587,2.391-2.638,3.759-3.289 c0.173-0.083,0.352-0.162,0.531-0.243c0.839-0.373,1.631-0.726,1.937-1.413c0.16-0.358,0.173-0.788,0.173-1.313 c0-1.02-0.017-2.041-0.032-3.063c-0.048-3.062-0.097-6.228,0.286-9.331c0.044-0.357,0.125-1.022,0.614-1.435 c0.663-0.559,11.441-2.089,14.044-2.329c0.583-0.052,1.244-0.074,1.764,0.349c0.703,0.573,0.612,1.427,0.546,2.05 c-0.013,0.116-0.024,0.23-0.031,0.338c-0.04,0.663-0.032,1.354-0.023,2.023c0.004,0.343,0.008,0.686,0.006,1.027l-0.039,9.089 c-0.007,2.88-0.013,5.601-1.243,7.706c-0.96,1.642-2.724,2.758-4.839,3.063c-1.546,0.225-3.023-0.039-3.675-0.652 c-1.222-1.148-1.577-3.484-0.761-4.998c0.771-1.429,2.873-2.853,5.921-4.009c0.172-0.065,0.353-0.189,0.552-0.382 c0.534-0.513,0.557-1.428,0.533-2.321c-0.031-1.2-0.032-2.187-0.033-3.173c-0.002-0.979-0.003-1.958-0.034-3.149l0.508-0.196 l-0.497,0.053c0.004,0.033,0.041,0.085,0.071,0.099c-0.257-0.121-1.352,0.2-1.875,0.354c-0.302,0.088-0.58,0.169-0.804,0.22 c-1.241,0.28-2.956,0.498-4.091,0.642l-0.599,0.077c-0.263,0.035-0.572,0.048-0.893,0.06c-1.15,0.045-1.733,0.136-1.732,0.509 c-0.051,1.703-0.174,3.183-0.293,4.613c-0.194,2.345-0.363,4.37-0.166,6.676l0.02,0.227c0.084,0.962,0.171,1.957-0.088,2.938 c-0.618,2.339-2.925,3.637-4.938,3.885C15.201,37.582,14.93,37.6,14.647,37.6z M32.7,11.407c-0.139,0-0.286,0.011-0.432,0.025 c-3.847,0.354-12.865,1.816-13.553,2.139c-0.112,0.105-0.167,0.444-0.205,0.75c-0.374,3.035-0.325,6.166-0.278,9.193 c0.016,1.026,0.032,2.053,0.032,3.078c0,0.507,0,1.138-0.259,1.72c-0.463,1.037-1.515,1.506-2.443,1.92 c-0.172,0.076-0.343,0.152-0.508,0.231c-1.883,0.897-2.942,1.778-3.238,2.694c-0.362,1.123,0.293,2.639,1.376,3.182 c0.532,0.267,1.476,0.3,2.128,0.22c1.985-0.245,3.669-1.539,4.094-3.147c0.214-0.813,0.139-1.679,0.059-2.596l-0.02-0.229 c-0.205-2.389-0.024-4.553,0.166-6.844c0.118-1.417,0.24-2.884,0.289-4.544c-0.005-1.39,1.619-1.453,2.693-1.495 c0.288-0.011,0.565-0.021,0.801-0.052l0.604-0.078c1.116-0.142,2.802-0.355,3.997-0.625c0.206-0.046,0.464-0.122,0.742-0.204 c1.349-0.396,2.274-0.623,2.799-0.158c0.135,0.12,0.35,0.393,0.269,0.876c0.038,1.105,0.039,2.092,0.041,3.079 c0.001,0.979,0.002,1.958,0.033,3.149c0.027,1.068-0.013,2.273-0.84,3.067c-0.298,0.287-0.589,0.482-0.89,0.597 c-2.782,1.055-4.749,2.349-5.396,3.548c-0.59,1.093-0.31,2.973,0.565,3.795c0.363,0.343,1.527,0.58,2.847,0.392 c0.857-0.124,2.975-0.622,4.118-2.577c1.095-1.873,1.101-4.463,1.106-7.204l0.039-9.093c0.002-0.335-0.002-0.671-0.006-1.009 c-0.009-0.687-0.017-1.396,0.025-2.096c0.008-0.124,0.021-0.252,0.035-0.384c0.063-0.583,0.081-0.954-0.183-1.168 C33.164,11.441,32.944,11.407,32.7,11.407z"/><path d="M5.149,25.926c-1.277,0-3.262-0.636-3.346-0.663l0.307-0.952c0.02,0.006,1.92,0.615,3.039,0.615V25.926z"/><path d="M42.425,19.345l-0.51-0.86c0.075-0.044,1.856-1.091,3.191-1.091v1C44.224,18.394,42.871,19.081,42.425,19.345z"/><path d="M18.017,23.472l-0.332-0.943c0.048-0.017,1.182-0.411,2.465-0.411v1C19.042,23.117,18.026,23.468,18.017,23.472z"/><path d="M31.613,22.131l-0.333-0.943c0.048-0.017,1.181-0.412,2.465-0.412v1C32.638,21.776,31.623,22.128,31.613,22.131z"/><path d="M26.276,46.224c-0.37,0-0.68-0.156-0.872-0.439c-0.527-0.778,0.032-2.34,0.217-2.8l0.929,0.371 c-0.337,0.844-0.448,1.713-0.315,1.87L26.276,46.224z"/></svg>