<svg xmlns="http://www.w3.org/2000/svg"  viewBox="0 0 48 48" width="64px" height="64px"><path fill="#212121" d="M23.231,23.733l-3.274-6.046l-0.014,0.024C18.628,15.493,16.216,14,13.449,14h-0.913	c-2.762,0-5.17,1.491-6.482,3.706l-0.011-0.019l-3.274,6.046C1.97,25.208,3.038,27,4.715,27H7v3h12v-3h2.285	C22.962,27,24.03,25.208,23.231,23.733z"/><rect width="6" height="3" x="37" y="19" fill="#263238"/><ellipse cx="35" cy="8.791" fill="#78909c" rx="2.927" ry="2.791"/><circle cx="35" cy="13" r="5" fill="#b0bec5"/><ellipse cx="13" cy="12.5" fill="#212121" rx="3" ry="1.5"/><path fill="#263238" d="M40.667,21.724C40,18,38.627,16,35,16s-6.686,2.416-7.667,5.724C28.717,22.896,30,24,30,24l-3,14	c0,0,1.5,2,8,2s8-2,8-2S41,25,40.667,21.724z"/><path fill="#ffb74d" d="M30,24c0,0-1.283-1.104-2.667-2.276C27.119,22.446,27,23.209,27,24v8l1.125,0.75L30,24z"/><rect width="46" height="11" x="1" y="33" fill="#6d4c41"/><rect width="8" height="9" x="9" y="18" fill="#bdbdbd"/><path fill="#f5f5f5" d="M13,14c-1.657,0-3-0.672-3-1.5v2.024h0.005C10.032,15.341,11.36,16,13,16s2.968-0.659,2.995-1.476H16	V12.5C16,13.328,14.657,14,13,14z"/><path fill="#212121" d="M11,13.611c-0.61-0.275-1-0.668-1-1.111v2.024h0.005c0.014,0.432,0.399,0.817,0.995,1.086V13.611z"/><path fill="#212121" d="M15,13.611v2c0.596-0.27,0.981-0.654,0.995-1.086H16V12.5C16,12.943,15.61,13.336,15,13.611z"/><path fill="#ffb74d" d="M13,14c2.758,0,5-2.242,5-5s-2.242-5-5-5S8,6.242,8,9S10.242,14,13,14"/><path fill="#424242" d="M12.781,2C10.344,2.219,8,3.93,8,7.574V9l1,1V7l6.31-2.201L17,7v3l1-1V7.797	C18,5.383,17.865,3.592,15,3l-0.485-1H12.781z"/><path fill="#ffb74d" d="M9.5,27H8v-3h1.5c0.828,0,1.5,0.672,1.5,1.5v0C11,26.328,10.328,27,9.5,27z"/><path fill="#ffb74d" d="M16.5,27H18v-3h-1.5c-0.828,0-1.5,0.672-1.5,1.5v0C15,26.328,15.672,27,16.5,27z"/><rect width="2" height="5" x="12" y="19" fill="#424242"/><rect width="2" height="4" x="12" y="19" fill="#424242" transform="rotate(-90 13 21)"/><path fill="#fb8c00" d="M38,13.222L36.5,11L32,14.111v3.084C32.684,18.284,33.769,19,35,19s2.316-0.716,3-1.804V13.222z"/><path fill="#ffb74d" d="M42.157,21.912c-0.195-0.068-0.379-0.171-0.546-0.31l-5.381-4.498	c-0.741-0.62-0.839-1.723-0.221-2.465c0.621-0.743,1.723-0.839,2.466-0.22l5.381,4.498c0.741,0.62,0.839,1.723,0.221,2.465	C43.596,21.956,42.825,22.144,42.157,21.912z"/><path fill="#8d6e63" d="M47,34H1c-0.552,0-1-0.448-1-1l0,0c0-0.552,0.448-1,1-1h46c0.552,0,1,0.448,1,1l0,0	C48,33.552,47.552,34,47,34z"/><path fill="#6d4c41" d="M47,32H1v-0.632C1,30.612,1.612,30,2.368,30h43.264C46.388,30,47,30.612,47,31.368V32z"/><path fill="#8d6e63" d="M47,45H1c-0.552,0-1-0.448-1-1l0,0c0-0.552,0.448-1,1-1h46c0.552,0,1,0.448,1,1l0,0	C48,44.552,47.552,45,47,45z"/></svg>