<svg xmlns="http://www.w3.org/2000/svg"  viewBox="0 0 100 100" width="64px" height="64px"><path fill="#cee1f4" d="M50,13c-20.435,0-37,16.565-37,37s16.565,37,37,37s37-16.565,37-37S70.435,13,50,13z"/><path fill="#78a0cf" d="M13,27c-1.105,0-2,0.895-2,2s0.895,2,2,2s2-0.895,2-2S14.105,27,13,27z"/><path fill="#f1bc19" d="M77,12c-0.552,0-1,0.448-1,1s0.448,1,1,1s1-0.448,1-1S77.552,12,77,12z"/><path fill="#f1bc19" d="M83,11c-2.209,0-4,1.791-4,4s1.791,4,4,4s4-1.791,4-4S85.209,11,83,11z"/><path fill="#78a0cf" d="M87,22c-1.105,0-2,0.895-2,2s0.895,2,2,2s2-0.895,2-2S88.105,22,87,22z"/><path fill="#fbcd59" d="M81,74c-1.105,0-2,0.895-2,2s0.895,2,2,2s2-0.895,2-2S82.105,74,81,74z M15,59c-2.209,0-4,1.791-4,4 c0,2.209,1.791,4,4,4s4-1.791,4-4C19,60.791,17.209,59,15,59z"/><path fill="#78a0cf" d="M25,85c-1.105,0-2,0.895-2,2s0.895,2,2,2s2-0.895,2-2S26.105,85,25,85z"/><path fill="#fff" d="M18.5,51c-1.381,0-2.5,1.119-2.5,2.5s1.119,2.5,2.5,2.5s2.5-1.119,2.5-2.5S19.881,51,18.5,51z"/><path fill="#f1bc19" d="M21,66c-0.552,0-1,0.448-1,1s0.448,1,1,1s1-0.448,1-1S21.552,66,21,66z"/><path fill="#fff" d="M80,33c-0.552,0-1,0.448-1,1s0.448,1,1,1s1-0.448,1-1S80.552,33,80,33z"/><path fill="#fddbbc" d="M49.885,71.731l16.912-8.528c1.879-0.867,3.035-3.325,2.313-5.348 c-0.578-1.735-2.168-2.746-3.903-2.746c-0.578,0-1.012,0.145-1.59,0.289l-13.876,5.637"/><path fill="#472b29" d="M49.887,72.431c-0.257,0-0.503-0.141-0.626-0.385c-0.174-0.346-0.035-0.767,0.31-0.94 l16.911-8.527c1.644-0.759,2.554-2.852,1.969-4.488c-0.464-1.392-1.735-2.281-3.243-2.281c-0.389,0-0.698,0.081-1.127,0.192 l-0.293,0.075l-13.782,5.606c-0.36,0.148-0.767-0.026-0.912-0.385s0.026-0.767,0.385-0.912l14.249-5.739 c0.469-0.122,0.911-0.238,1.48-0.238c2.121,0,3.913,1.266,4.566,3.225c0.823,2.306-0.403,5.153-2.684,6.206l-16.889,8.517 C50.1,72.406,49.992,72.431,49.887,72.431z"/><path fill="#fddbbc" d="M54.222,73.176l16.912-8.528c1.879-0.867,3.035-3.325,2.313-5.348 c-0.578-1.735-2.168-2.746-3.903-2.746c-0.578,0-1.012,0.145-1.59,0.289L54.077,62.48"/><path fill="#472b29" d="M54.223,73.877c-0.257,0-0.503-0.141-0.626-0.385c-0.174-0.346-0.035-0.767,0.31-0.94 l16.912-8.528c1.644-0.759,2.554-2.852,1.969-4.488c-0.464-1.392-1.735-2.281-3.244-2.281c-0.389,0-0.698,0.081-1.127,0.192 l-0.293,0.075l-13.782,5.607c-0.359,0.146-0.767-0.027-0.912-0.385c-0.146-0.358,0.026-0.767,0.385-0.912l14.249-5.74 c0.469-0.122,0.911-0.238,1.48-0.238c2.122,0,3.914,1.266,4.567,3.225c0.823,2.306-0.403,5.153-2.684,6.206l-16.89,8.518 C54.436,73.853,54.328,73.877,54.223,73.877z"/><path fill="#fddbbc" d="M23.723,53.374l7.805-2.891c1.445-0.578,2.891-0.723,4.336-0.723c2.024,0,4.047,0.434,5.782,1.445 l13.732,7.227c1.735,0.867,2.313,3.035,1.445,4.77l-0.289,0.578l1.735,1.156l14.165-5.782c0.434-0.145,0.867-0.289,1.301-0.289 c1.445,0,2.746,0.867,3.18,2.168c0.578,1.59-0.289,3.614-1.879,4.336l-16.912,8.528c-0.434,0.289-1.156,0.434-1.735,0.434 s-1.156-0.145-1.735-0.434L32.829,63.781l-9.106,3.614"/><path fill="#472b29" d="M56.39,75.033c-0.686,0-1.374-0.171-2.048-0.508l-21.534-9.982l-8.827,3.502 c-0.354,0.146-0.766-0.032-0.908-0.393c-0.143-0.359,0.033-0.766,0.393-0.908l9.106-3.613c0.177-0.072,0.377-0.067,0.552,0.016 L54.95,73.265c0.496,0.247,0.975,0.368,1.44,0.368c0.505,0,1.071-0.133,1.346-0.315l16.985-8.571 c1.27-0.577,1.989-2.227,1.536-3.473c-0.338-1.013-1.372-1.707-2.521-1.707c-0.32,0-0.688,0.123-1.079,0.253l-14.123,5.767 c-0.214,0.087-0.459,0.063-0.653-0.066l-1.734-1.156c-0.293-0.195-0.396-0.579-0.237-0.896l0.289-0.578 c0.72-1.44,0.212-3.159-1.133-3.831L41.32,51.824c-1.54-0.897-3.418-1.364-5.456-1.364c-1.656,0-2.913,0.207-4.076,0.673 l-7.822,2.897c-0.36,0.138-0.765-0.051-0.899-0.413s0.051-0.766,0.413-0.899l7.806-2.892c1.319-0.528,2.736-0.767,4.579-0.767 c2.286,0,4.407,0.533,6.135,1.541l13.705,7.213c2.021,1.011,2.811,3.571,1.745,5.702l-0.013,0.026l0.911,0.607l13.822-5.643 c0.522-0.176,1.019-0.341,1.565-0.341c1.771,0,3.316,1.063,3.844,2.646c0.702,1.933-0.326,4.32-2.253,5.196l-16.887,8.516 C57.902,74.889,57.017,75.033,56.39,75.033z"/><g><path fill="#fddbbc" d="M44.458,61.083c-0.79-0.398-2-1-2-1"/><path fill="#472b29" d="M44.458,61.583c-0.076,0-0.153-0.018-0.226-0.054c-0.788-0.397-1.997-0.998-1.997-0.999 l0.445-0.895c0,0,1.212,0.602,2.003,1.001c0.246,0.124,0.345,0.425,0.221,0.672C44.816,61.482,44.641,61.583,44.458,61.583z"/></g><g><path fill="#fddbbc" d="M56.5,63.5c-0.708,1.25-2.484,2.217-5,1c-1.081-0.523-3.308-1.637-5.138-2.558"/><path fill="#472b29" d="M53.709,65.56c-0.729,0-1.546-0.184-2.427-0.609c-1.082-0.523-3.312-1.64-5.145-2.562 c-0.247-0.124-0.346-0.424-0.222-0.671c0.122-0.249,0.424-0.35,0.671-0.222c1.827,0.918,4.051,2.032,5.131,2.554 c2.258,1.093,3.754,0.254,4.347-0.796c0.137-0.242,0.444-0.326,0.682-0.189c0.24,0.137,0.325,0.441,0.189,0.682 C56.349,64.782,55.212,65.56,53.709,65.56z"/></g><g><path fill="#88ae45" d="M61.466,27H39.37l6.585,20.514c0.445,1.386,1.93,2.149,3.316,1.705L64.282,44.4 c1.386-0.445,2.15-1.93,1.705-3.316L61.466,27z"/><path fill="#472b29" d="M48.468,49.845c-1.327,0-2.563-0.849-2.989-2.178l-6.584-20.514 c-0.084-0.263,0.061-0.544,0.323-0.629c0.264-0.085,0.544,0.061,0.629,0.323l6.584,20.514c0.36,1.122,1.565,1.741,2.688,1.381 l15.011-4.818c1.122-0.36,1.741-1.566,1.381-2.688c-0.084-0.263,0.061-0.544,0.323-0.629c0.264-0.084,0.544,0.061,0.629,0.323 c0.528,1.647-0.381,3.417-2.028,3.945l-15.011,4.818C49.106,49.797,48.785,49.845,48.468,49.845z"/><path fill="#c0d078" d="M66.021,27H42.302l10.964,21.061c0.672,1.292,2.264,1.793,3.556,1.121l13.985-7.28 c1.292-0.672,1.794-2.264,1.121-3.556L66.021,27z"/><path fill="#88ae45" d="M45.611,27l8.586,16.495c0.115-0.083,0.228-0.167,0.357-0.234c1.455-0.758,3.249-0.192,4.006,1.263 c0.067,0.129,0.111,0.263,0.158,0.396l7.603-3.958c-0.082-0.115-0.167-0.228-0.234-0.356c-0.757-1.455-0.192-3.249,1.263-4.006 c0.129-0.067,0.263-0.111,0.396-0.158L62.831,27H45.611z"/><circle cx="59.5" cy="37.5" r="2" fill="#c0d078"/><path fill="#472b29" d="M59.503,39.751c-0.228,0-0.456-0.035-0.679-0.105c-0.573-0.181-1.042-0.574-1.319-1.107 c-0.278-0.533-0.331-1.142-0.15-1.715c0.181-0.573,0.574-1.042,1.107-1.319c0.533-0.278,1.142-0.331,1.715-0.15 c0.573,0.181,1.042,0.574,1.319,1.107c0.278,0.533,0.331,1.142,0.15,1.715c-0.181,0.573-0.574,1.042-1.107,1.319l0,0 C60.213,39.665,59.859,39.751,59.503,39.751z M59.498,35.75c-0.278,0-0.553,0.067-0.806,0.198c-0.415,0.216-0.72,0.58-0.86,1.026 c-0.141,0.446-0.099,0.919,0.117,1.334c0.216,0.415,0.58,0.72,1.026,0.861c0.446,0.141,0.919,0.099,1.334-0.117l0,0 c0.415-0.216,0.72-0.58,0.86-1.026c0.141-0.446,0.099-0.919-0.117-1.334c-0.216-0.415-0.58-0.72-1.026-0.861 C59.853,35.777,59.675,35.75,59.498,35.75z"/><path fill="#472b29" d="M58.624,45.219c-0.031,0-0.063-0.006-0.092-0.017c-0.067-0.027-0.12-0.081-0.144-0.15 c-0.054-0.154-0.09-0.261-0.144-0.364c-0.692-1.33-2.338-1.85-3.669-1.156c-0.104,0.054-0.196,0.122-0.289,0.189 c-0.059,0.042-0.154,0.07-0.222,0.054c-0.071-0.017-0.149-0.05-0.182-0.115l-8.542-16.41c-0.064-0.122-0.016-0.273,0.106-0.337 c0.121-0.064,0.273-0.017,0.337,0.106l8.411,16.158c0.05-0.032,0.099-0.061,0.15-0.088c1.574-0.819,3.522-0.206,4.344,1.369 c0.027,0.052,0.051,0.105,0.073,0.159l7.099-3.695c-0.033-0.05-0.062-0.099-0.088-0.15c-0.82-1.575-0.206-3.524,1.37-4.343 c0.052-0.027,0.105-0.051,0.158-0.073l-1.603-3.079c-0.064-0.122-0.016-0.273,0.106-0.337c0.12-0.063,0.273-0.017,0.337,0.106 l1.734,3.331c0.034,0.064,0.038,0.14,0.011,0.207c-0.027,0.067-0.081,0.12-0.15,0.144c-0.149,0.052-0.258,0.089-0.363,0.144 c-1.331,0.693-1.85,2.338-1.157,3.669c0.054,0.103,0.121,0.194,0.187,0.286c0.042,0.059,0.071,0.153,0.055,0.224 c-0.017,0.071-0.049,0.15-0.114,0.184l-7.603,3.958C58.703,45.209,58.663,45.219,58.624,45.219z"/><path fill="#472b29" d="M55.607,49.982c-0.317,0-0.636-0.049-0.947-0.147c-0.799-0.252-1.452-0.8-1.838-1.543 L41.858,27.231c-0.127-0.245-0.032-0.547,0.212-0.674c0.245-0.128,0.547-0.032,0.674,0.213L53.709,47.83 c0.264,0.506,0.708,0.879,1.252,1.051c0.544,0.172,1.123,0.121,1.629-0.143l13.984-7.28c0.506-0.264,0.88-0.708,1.052-1.253 c0.171-0.544,0.121-1.123-0.143-1.629l-5.907-11.347c-0.127-0.245-0.032-0.547,0.212-0.674c0.246-0.128,0.547-0.032,0.674,0.213 l5.907,11.347c0.387,0.743,0.461,1.592,0.209,2.391c-0.252,0.799-0.8,1.452-1.543,1.839l-13.984,7.28 C56.598,49.862,56.105,49.982,55.607,49.982z"/><path fill="#c0d078" d="M50.264,27c-0.433,1.271-0.375,2.706,0.294,3.99c1.298,2.494,4.373,3.464,6.867,2.165 c2.263-1.178,3.251-3.813,2.449-6.155H50.264z"/><path fill="#472b29" d="M53.051,33.65c-0.032,0-0.063-0.006-0.095-0.019c-1.167-0.477-2.13-1.357-2.714-2.477 c-0.679-1.304-0.792-2.789-0.321-4.182c0.044-0.131,0.188-0.201,0.317-0.157c0.131,0.044,0.201,0.186,0.157,0.317 c-0.428,1.263-0.325,2.609,0.291,3.79c0.529,1.015,1.402,1.813,2.46,2.245c0.128,0.052,0.189,0.198,0.137,0.326 C53.243,33.592,53.149,33.65,53.051,33.65z"/><path fill="#472b29" d="M54.982,34.031c-0.036,0-0.072,0-0.108-0.001c-0.138-0.003-0.248-0.117-0.245-0.255 c0.003-0.136,0.114-0.245,0.25-0.245c0.026,0,0.068,0.001,0.103,0.001c0.773,0,1.543-0.189,2.233-0.548 c2.108-1.097,3.117-3.617,2.347-5.861c-0.045-0.131,0.024-0.273,0.155-0.318c0.131-0.045,0.272,0.025,0.317,0.155 c0.85,2.476-0.263,5.256-2.589,6.467C56.686,33.823,55.836,34.031,54.982,34.031z"/><g><path fill="#472b29" d="M64.546,30.775c-0.09,0-0.177-0.049-0.222-0.135l-1.827-3.509 c-0.064-0.122-0.016-0.273,0.106-0.337c0.122-0.063,0.273-0.017,0.337,0.106l1.827,3.509c0.064,0.122,0.016,0.273-0.106,0.337 C64.625,30.766,64.585,30.775,64.546,30.775z"/></g></g></svg>