<svg xmlns="http://www.w3.org/2000/svg"  viewBox="0 0 512 512" width="64px" height="64px"><path fill="#BCBCBC" d="M350.3,271.4c1.8-6.7,1-13.6-4.4-18.4c-4.8-4.3-11.4-6.4-17.8-6.3c-7,0.1-14.3,2.6-20.1,6.6c-2.7,1.8-5.4,4.1-6.7,7.2c-0.5,1.2-1.6,6.4-0.5,7.2c2,1.4,2.4,3.7,1.8,5.6c13.4,0.8,26.8,1.3,40.1,0.8c2.5-0.1,5-0.2,7.5-0.2C350.1,273.2,350.1,272.4,350.3,271.4z"/><path fill="#BCBCBC" d="M380.5,266.7c-5.3-19.9-11.7-41.7-26.1-56.8c-13.5-14.2-35.9-10.5-53.6-10.4c-24.4,0.2-48.9-0.9-73,3.6c-16.7,3.1-33.7,6.5-43.5,21.9c-4.5,7.1-8.1,15-11.9,22.4c-3.2,6.3-8.3,15.2-7.3,22.7c5.7-1.4,11.9-0.1,17.7,0.4c9.6,0.8,19.1-0.4,28.7-0.8c21.6-0.9,43.4,0.4,65,1.8c5.7,0.4,11.4,0.8,17.1,1.2c-4.4-6.5-1.5-16.9,3.9-22.3c6.8-6.9,17.3-11.9,27.1-12.6c9.7-0.8,20.5,1.7,27.7,8.7c7.5,7.2,9.7,17.1,7,27c0,0,0,0,0,0.1c1.3-0.1,2.7-0.1,4-0.2c5.1-0.4,11.1-0.5,16-2.5C378.7,269.4,379.3,267.8,380.5,266.7z"/><path fill="#FEBF10" d="M141.8,274.9c-0.2-0.6-0.3-1.3-0.3-1.8c-8.3-6.9-17.9-14.4-28.4-17c-5.3-1.3-10.4-0.7-15.2,2.1c-3.1,1.8-8.8,5.3-8.2,9.7c0.4,2.6,3.6,4.5,5.5,5.8c3,2.1,6.1,4,9.3,5.6c5.4,2.7,12.8,6.4,19,6.1c4.2-0.1,8.8-1.6,12.4-3.7C138.3,280.4,142.9,278.1,141.8,274.9z"/><path fill="#BCBCBC" d="M141.6 415.1c-6.6-2.8-12.9-6.7-17.8-11.9.4 3.7.4 7.4.7 11.1.2 2.9.3 5.8 1 8.6.2.9.4 2 .9 2.9.4.8 1.2 1.3.6 1.2 4.8 1.3 10.1 1 15.1 1 6.2.1 12.4.4 18.6.7l.4-9.1c0-.3.1-.7.1-1C154.5 418.1 147.9 417.7 141.6 415.1zM402.4 445.1c-2.5-1.5-3.2-5.5-.8-7.5 0-.3 0-.6 0-.9-4.1.8-8.1 1.4-12.3 1.6-2.3.1-4.8-1.9-4.7-4.4.1-2.4 0-4.8 0-7.2 0-1.3-.1-2.6-.1-4-1.9 0-3.7 0-5 0-3.1.1-6.1.2-9.2.3.3 1.2 0 2.6-1.3 3.7-.1.5-.3 1-.3 1.5-.2 1.3-.2 2.6-.2 4 0 4.2.3 8.4.8 12.6.5 3.9 1.1 7.9 2.1 11.7.3 1.3.7 2.6 1.2 3.8 0-.1.1.1.2.4 0 0 0 0 .1 0 3.5 1.7 8.1 1.9 11.9 2.1 3.9.2 8.2.5 12.1-.3C403.3 461.3 403.2 451.6 402.4 445.1z"/><path fill="#BCBCBC" d="M178.2 422.7c-.6-.1-1.3-.2-1.9-.2-1.4-.2-2.9-.3-4.3-.2.1 0-.6.1-1 .1-.3.4-.7.6-1.1.8l-.4 10.2c-.1 2.3-1.8 4.8-4.4 4.7-8.5-.4-17.1-.8-25.6-.9-.5 0-1 0-1.6 0 0 .3 0 .7-.1 1.1-.8 4.8-1 9.8-.8 14.6.2 4.2.3 8.9 3.9 11.7 3.5 2.7 8.4 3.3 12.6 3.6 3.9.2 7.7.8 11.6 1.2 2.8.3 8.7 1.3 10.3-1.9 2-3.7 2.3-8.2 2.4-12.4C178.3 444.3 177.8 433.5 178.2 422.7zM283.2 386.1c-16.8-.8-33.6-2.1-50.4-2.9 6 2.5 12.4 4.2 18.8 4.9 7.9.8 16-.5 23.9-.6 6.7-.1 12.9.5 19.4 2 5.9 1.3 12.1 3 18.2 2.5 6.5-.6 11.7-3.7 16.6-8 .2-.2.4-.4.6-.5C315.1 387.7 298.8 386.9 283.2 386.1zM343.9 358.2c-3.2-2-7.3-2.1-11-2.2-6-.2-12 .4-18 .6-12.8.6-25.5-1.7-38.3-2.4-13.2-.7-26.3.2-39.5 1.1-6.6.4-13.5 1.3-20.1.9-3.6-.2-8-1-11.6.3.8 2.1 1.8 4.1 2.9 6.1.5-1.4 1.8-2.5 3.9-2.4 23.7 1 47.4 2.8 71.2 2.5 11.5-.2 23-.7 34.5-1.1 2.8-.1 5.6 0 8.4-.2 2.6-.2 5.5-1.1 8-1 1.2.1 2.5.1 3.7.1.1 0 .3 0 .5 0 .9-.7 2.2-1 3.7-.5 1.1.4 2.3.9 3.1 1.7C345.2 360 345.1 358.9 343.9 358.2zM336 369.4c-4.5-.2-8.9 1.2-13.5 1.1-11.9-.3-23.9.9-35.8 1.1-24.6.4-49.2-1.3-73.7-2.4 2.5 2.9 5.4 5.5 8.5 7.8.4-1.8 1.7-3.2 4.1-3.1 18.7.8 37.3 2.3 55.9 3.2 14.5.7 29.7 1.8 43.9-1.7.7-.8 1.8-1.3 3.2-1.3l1.6.1c2.9.1 4.6 2.5 4.6 4.8 2.8-3 5.4-6.2 7.4-9.8C340.3 369.6 338.1 369.4 336 369.4z"/><path fill="#FEBF10" d="M397.4,287.8c0-2.4-1.5-5.8-3-8.3c-0.7-1.3-1.5-2.6-2.6-3.6c0,0,0,0,0,0c-1.2,0.5-2.8,0.2-3.9-0.5c-0.3,0.9-0.9,1.6-2,2.2c-5.7,3.2-12.7,4-19.2,4.6c-6.8,0.6-13.6,0.7-20.5,1c-21.6,0.8-43-0.7-64.6-2.2c-21.7-1.5-43.5-2.9-65.3-2.3c-10.2,0.3-20.5,1.7-30.7,1.1c-3.4-0.2-6.8-0.7-10.2-0.9c-2.6-0.2-6.6-1-9,0.2c-1.1,0.5-2.1,0.6-3.1,0.3c-1.2,1-3,1.4-4.8,0.4c-0.9-0.5-2.1-0.8-3.1-0.7c-0.9,0-0.9,0-1.6,0.2c0,0,0,0,0,0c0.1,0,0.1,0-0.1,0.1c-1,1.4-2.6,2.3-4.3,2.1c-2.9,5.3-9.9,9.1-16.3,11.1c-0.3,7.3-1,15.4,4,21.5c5.4,6.8,14.7,11.9,22.7,15c4.6,1.8,9.6,2.9,14.3,4.3c4.8,1.4,9.6,2.9,14.5,4.3c7.6,2.1,15.8,3.4,23.1,6.3c1.5,0.6,2.3,1.7,2.4,2.9c0,0,0.1,0,0.1,0c6.9,0.5,13.9-0.1,20.7-0.6c14.2-0.9,28.4-2,42.6-1.1c13.9,0.9,27.3,2.9,41.3,2c6.8-0.4,13.5-0.6,20.3,0.1c0.3,0,0.6,0.1,0.9,0.1c0.2-1,0.9-2,2.2-2.6c7-3.3,14.7-4.3,21.8-7.3c6.3-2.7,11.9-8,16.6-12.9c9.2-9.7,15.4-21.5,17-34.7C397.6,289.4,397.4,288.7,397.4,287.8z"/><path fill="#FEBF10" d="M425.6 305.1c-7.4.7-14.8-.5-20.4-5.5-2.8 10.8-8.1 20.9-15.8 29.2-5.2 5.6-11.6 12.3-18.7 15.7-6.7 3.2-14 4.3-20.8 6.9 9.8 8.5.6 23.3-6 31-4.4 5.2-9.5 10-15.3 13.6-7.2 4.5-15.3 5.7-23.7 4.6-6.6-.9-13.2-3.4-19.8-3.8-6.1-.4-12.3-.2-18.4.2-10.4.6-20.5.4-30.5-2.9-18.1-5.9-34-18.3-40.1-36.9-.6-1.7-.1-3.2.8-4.2 0-1.2.6-2.5 1.9-3.3-1.6-.3-3.3-.6-4.9-1-4.8-1.1-9.5-2.7-14.2-4.2-9.7-2.9-20-5-29-9.7-8.2-4.2-18.5-10.3-22.9-18.8-2.8-5.6-3.5-11.3-3.5-17.3-1.6 2.1-3.2 4.2-4.7 6.4-3.3 5-4.1 10.4-4.9 16.3-1.5 12.1-2.3 24.9-2.2 37.1 0 4.7.3 10.1 1.7 13.8 1.2 3.1 2.7 6 4.1 8.9 1 2 3.3 5.6 4.5 9.1 1.5-.1 3 .5 4 2.1 4.7 7.7 13 12.9 21.4 15.7 9.4 3.1 19.7 1.3 29.2 4.3.9.3 1.7.8 2.2 1.4 1.5.3 3 .5 4.3.7 9 1.4 17 2.1 26.2 2.2 26.1.3 52.3-.7 78.4.3 12.9.5 25.6-1 38.5-1.9 9-.6 18-.4 27-.5 7-.1 14-.3 21-.5 3.3-.1 6.5-.3 9.8-.5 1-.1 2-.1 3-.2 1.1-.1.8-.1.1.3.4-.2.8-.3 1.2-.3.1 0 .1-.1.2-.1 12-4.8 22.3-11.9 31.1-21.3 1.2-1.3 2.7-1.6 4-1.3 7.4-9.8 11.7-21.2 12-34.2C437 338.4 426.5 322.8 425.6 305.1zM195.6 404.7c-6.6 2-13.6 2.1-20.5 2.3-8.3.2-17.1 1.4-25.2-1.2-14.3-4.6-23-19.5-27.8-33-2.1-5.9-3.6-13.2.6-18.6 5.1-6.7 16.2-5.5 22.9-2.3 5.5 2.6 9.9 6.8 15.4 9.4 5.4 2.5 10.9 4.8 16.2 7.4 8.3 4 15.5 11.8 24.6 14 2.6-1.1 6.4.1 6.7 3.8C209.3 395.3 204 402.1 195.6 404.7zM423.1 379.4c-4.8 7.3-12.5 13.1-19.9 17.5-7.7 4.7-16.7 9.5-26 9.2-10.4-.3-20.6-3.3-29.9-7.9-2.5-1.2-2.8-3.6-1.9-5.6-.2-.9-.2-2 .2-3 1.1-2.7 2.6-5.1 4.4-7.3 6.1-7.5 14.6-12.8 22.7-17.9 6.6-4.2 12.5-9.2 18.9-13.8 6.3-4.5 13.9-9.6 22.1-9.3 8.3.3 12.8 7.5 13.8 15.1C428.6 363.9 427.3 373 423.1 379.4zM457.9 273.6c-4.4-10.6-16.1-9.7-25.6-7.6-5.8 1.2-11.6 2.9-16.9 5.7-1.7.9-3.9 2-5.7 3.5 1.6 1.6 2 4-.1 6-1.5 1.4-2.2 2.8-2.4 4.2 0 .2 0 .4 0 .6 0 3.6 3.4 7.1 7.1 8.9 5.5 2.7 12.5 1.3 18.2-.2 7.1-1.8 14.2-4.2 20.5-7.9C458.3 283.8 460.3 279.3 457.9 273.6z"/><path fill="#BCBCBC" d="M415.6,408.5c-6,4.6-12.4,8.4-19.4,11.5c-0.5,1-1.3,1.7-2.5,2c0,1.3,0,2.6,0,3.7c0,1.1,0,2.2,0.1,3.2c7.6-0.9,15.1-2.9,22.5-4.7C416.2,419,415.7,413.7,415.6,408.5z"/><path fill="#74CCCF" d="M176 378c-4.9-2.7-10-4.9-15.1-7.1-2.8-1.2-5.6-2.5-8.3-3.9-2.3-1.2-4.2-3.3-6.5-4.7-2.8-1.7-16.7-8-16.9-.6-.1 6 2.8 11.9 5.6 17.1 3.1 5.9 6.6 12.5 12.5 16 6.9 4.1 14.9 3.8 22.6 3.4 7.7-.4 25.3 1.5 28.9-7.1C190.3 388.8 183.6 382.3 176 378zM418.1 355.3c-.7-2.4-1.8-4.6-4.5-4.9-2.8-.3-6 1.1-8.4 2.4-6.3 3.4-11.8 7.8-17.3 12.2-10.6 8.4-26.5 14.2-33.1 26.7 7.2 3.2 15.5 5.7 23.3 5.4 7.7-.3 15.1-4.5 21.5-8.5 5.8-3.8 13.3-8.5 16.4-15C418.6 368.3 419.9 361 418.1 355.3z"/><path fill="#010101" d="M427.5 356.4c-1-7.5-5.5-14.8-13.8-15.1-8.1-.3-15.7 4.8-22.1 9.3-6.4 4.6-12.2 9.6-18.9 13.8-8.1 5.1-16.6 10.3-22.7 17.9-1.8 2.2-3.3 4.6-4.4 7.3-.4 1.1-.5 2.1-.2 3-.9 1.9-.6 4.4 1.9 5.6 9.3 4.6 19.5 7.6 29.9 7.9 9.2.3 18.3-4.6 26-9.2 7.4-4.5 15.1-10.2 19.9-17.5C427.3 373 428.6 363.9 427.5 356.4zM416 373.6c-3.2 6.4-10.6 11.2-16.4 15-6.3 4.1-13.8 8.3-21.5 8.5-7.8.3-16.1-2.2-23.3-5.4 6.6-12.5 22.5-18.3 33.1-26.7 5.5-4.4 11.1-8.8 17.3-12.2 2.4-1.3 5.6-2.7 8.4-2.4 2.7.3 3.8 2.6 4.5 4.9C419.9 361 418.6 368.3 416 373.6zM208.5 386.3c-.3-3.7-4.1-4.9-6.7-3.8-9.1-2.2-16.3-10-24.6-14-5.4-2.6-10.8-4.9-16.2-7.4-5.5-2.5-9.9-6.8-15.4-9.4-6.6-3.1-17.8-4.3-22.9 2.3-4.1 5.4-2.6 12.7-.6 18.6 4.7 13.6 13.4 28.4 27.8 33 8.1 2.6 16.9 1.5 25.2 1.2 6.9-.2 13.8-.3 20.5-2.3C204 402.1 209.3 395.3 208.5 386.3zM169.9 398.2c-7.7.4-15.7.6-22.6-3.4-5.9-3.5-9.4-10.2-12.5-16-2.8-5.2-5.7-11.1-5.6-17.1.1-7.3 14.1-1.1 16.9.6 2.2 1.4 4.2 3.4 6.5 4.7 2.7 1.5 5.5 2.7 8.3 3.9 5.1 2.2 10.3 4.4 15.1 7.1 7.6 4.2 14.4 10.7 22.9 13.1C195.2 399.7 177.6 397.8 169.9 398.2z"/><path fill="none" d="M283.2 386.1c-16.8-.8-33.6-2.1-50.4-2.9 6 2.5 12.4 4.2 18.8 4.9 7.9.8 16-.5 23.9-.6 6.7-.1 12.9.5 19.4 2 5.9 1.3 12.1 3 18.2 2.5 6.5-.6 11.7-3.7 16.6-8 .2-.2.4-.4.6-.5C315.1 387.7 298.8 386.9 283.2 386.1zM397.4 287.8c0-2.4-1.5-5.8-3-8.3-.7-1.3-1.5-2.6-2.6-3.6 0 0 0 0 0 0-1.2.5-2.8.2-3.9-.5-.3.9-.9 1.6-2 2.2-5.7 3.2-12.7 4-19.2 4.6-6.8.6-13.6.7-20.5 1-21.6.8-43-.7-64.6-2.2-21.7-1.5-43.5-2.9-65.3-2.3-10.2.3-20.5 1.7-30.7 1.1-3.4-.2-6.8-.7-10.2-.9-2.6-.2-6.6-1-9 .2-1.1.5-2.1.6-3.1.3-1.2 1-3 1.4-4.8.4-.9-.5-2.1-.8-3.1-.7-.9 0-.9 0-1.6.2 0 0 0 0 0 0 .1 0 .1 0-.1.1-1 1.4-2.6 2.3-4.3 2.1-2.9 5.3-9.9 9.1-16.3 11.1-.3 7.3-1 15.4 4 21.5 5.4 6.8 14.7 11.9 22.7 15 4.6 1.8 9.6 2.9 14.3 4.3 4.8 1.4 9.6 2.9 14.5 4.3 7.6 2.1 15.8 3.4 23.1 6.3 1.5.6 2.3 1.7 2.4 2.9 0 0 .1 0 .1 0 6.9.5 13.9-.1 20.7-.6 14.2-.9 28.4-2 42.6-1.1 13.9.9 27.3 2.9 41.3 2 6.8-.4 13.5-.6 20.3.1.3 0 .6.1.9.1.2-1 .9-2 2.2-2.6 7-3.3 14.7-4.3 21.8-7.3 6.3-2.7 11.9-8 16.6-12.9 9.2-9.7 15.4-21.5 17-34.7C397.6 289.4 397.4 288.7 397.4 287.8zM141.8 274.9c-.2-.6-.3-1.3-.3-1.8-8.3-6.9-17.9-14.4-28.4-17-5.3-1.3-10.4-.7-15.2 2.1-3.1 1.8-8.8 5.3-8.2 9.7.4 2.6 3.6 4.5 5.5 5.8 3 2.1 6.1 4 9.3 5.6 5.4 2.7 12.8 6.4 19 6.1 4.2-.1 8.8-1.6 12.4-3.7C138.3 280.4 142.9 278.1 141.8 274.9zM343.9 358.2c-3.2-2-7.3-2.1-11-2.2-6-.2-12 .4-18 .6-12.8.6-25.5-1.7-38.3-2.4-13.2-.7-26.3.2-39.5 1.1-6.6.4-13.5 1.3-20.1.9-3.6-.2-8-1-11.6.3.8 2.1 1.8 4.1 2.9 6.1.5-1.4 1.8-2.5 3.9-2.4 23.7 1 47.4 2.8 71.2 2.5 11.5-.2 23-.7 34.5-1.1 2.8-.1 5.6 0 8.4-.2 2.6-.2 5.5-1.1 8-1 1.2.1 2.5.1 3.7.1.1 0 .3 0 .5 0 .9-.7 2.2-1 3.7-.5 1.1.4 2.3.9 3.1 1.7C345.2 360 345.1 358.9 343.9 358.2zM179.7 178.4c.9.6 1.6 1.5 2.1 2.5 1.1-.9 2.3-1.8 3.5-2.5H179.7zM380.5 266.7c-5.3-19.9-11.7-41.7-26.1-56.8-13.5-14.2-35.9-10.5-53.6-10.4-24.4.2-48.9-.9-73 3.6-16.7 3.1-33.7 6.5-43.5 21.9-4.5 7.1-8.1 15-11.9 22.4-3.2 6.3-8.3 15.2-7.3 22.7 5.7-1.4 11.9-.1 17.7.4 9.6.8 19.1-.4 28.7-.8 21.6-.9 43.4.4 65 1.8 5.7.4 11.4.8 17.1 1.2-4.4-6.5-1.5-16.9 3.9-22.3 6.8-6.9 17.3-11.9 27.1-12.6 9.7-.8 20.5 1.7 27.7 8.7 7.5 7.2 9.7 17.1 7 27 0 0 0 0 0 .1 1.3-.1 2.7-.1 4-.2 5.1-.4 11.1-.5 16-2.5C378.7 269.4 379.3 267.8 380.5 266.7z"/><path fill="none" d="M350.3 271.4c1.8-6.7 1-13.6-4.4-18.4-4.8-4.3-11.4-6.4-17.8-6.3-7 .1-14.3 2.6-20.1 6.6-2.7 1.8-5.4 4.1-6.7 7.2-.5 1.2-1.6 6.4-.5 7.2 2 1.4 2.4 3.7 1.8 5.6 13.4.8 26.8 1.3 40.1.8 2.5-.1 5-.2 7.5-.2C350.1 273.2 350.1 272.4 350.3 271.4zM336 369.4c-4.5-.2-8.9 1.2-13.5 1.1-11.9-.3-23.9.9-35.8 1.1-24.6.4-49.2-1.3-73.7-2.4 2.5 2.9 5.4 5.5 8.5 7.8.4-1.8 1.7-3.2 4.1-3.1 18.7.8 37.3 2.3 55.9 3.2 14.5.7 29.7 1.8 43.9-1.7.7-.8 1.8-1.3 3.2-1.3l1.6.1c2.9.1 4.6 2.5 4.6 4.8 2.8-3 5.4-6.2 7.4-9.8C340.3 369.6 338.1 369.4 336 369.4zM141.6 415.1c-6.6-2.8-12.9-6.7-17.8-11.9.4 3.7.4 7.4.7 11.1.2 2.9.3 5.8 1 8.6.2.9.4 2 .9 2.9.4.8 1.2 1.3.6 1.2 4.8 1.3 10.1 1 15.1 1 6.2.1 12.4.4 18.6.7l.4-9.1c0-.3.1-.7.1-1C154.5 418.1 147.9 417.7 141.6 415.1z"/><path fill="none" d="M425.6 305.1c-7.4.7-14.8-.5-20.4-5.5-2.8 10.8-8.1 20.9-15.8 29.2-5.2 5.6-11.6 12.3-18.7 15.7-6.7 3.2-14 4.3-20.8 6.9 9.8 8.5.6 23.3-6 31-4.4 5.2-9.5 10-15.3 13.6-7.2 4.5-15.3 5.7-23.7 4.6-6.6-.9-13.2-3.4-19.8-3.8-6.1-.4-12.3-.2-18.4.2-10.4.6-20.5.4-30.5-2.9-18.1-5.9-34-18.3-40.1-36.9-.6-1.7-.1-3.2.8-4.2 0-1.2.6-2.5 1.9-3.3-1.6-.3-3.3-.6-4.9-1-4.8-1.1-9.5-2.7-14.2-4.2-9.7-2.9-20-5-29-9.7-8.2-4.2-18.5-10.3-22.9-18.8-2.8-5.6-3.5-11.3-3.5-17.3-1.6 2.1-3.2 4.2-4.7 6.4-3.3 5-4.1 10.4-4.9 16.3-1.5 12.1-2.3 24.9-2.2 37.1 0 4.7.3 10.1 1.7 13.8 1.2 3.1 2.7 6 4.1 8.9 1 2 3.3 5.6 4.5 9.1 1.5-.1 3 .5 4 2.1 4.7 7.7 13 12.9 21.4 15.7 9.4 3.1 19.7 1.3 29.2 4.3.9.3 1.7.8 2.2 1.4 1.5.3 3 .5 4.3.7 9 1.4 17 2.1 26.2 2.2 26.1.3 52.3-.7 78.4.3 12.9.5 25.6-1 38.5-1.9 9-.6 18-.4 27-.5 7-.1 14-.3 21-.5 3.3-.1 6.5-.3 9.8-.5 1-.1 2-.1 3-.2 1.1-.1.8-.1.1.3.4-.2.8-.3 1.2-.3.1 0 .1-.1.2-.1 12-4.8 22.3-11.9 31.1-21.3 1.2-1.3 2.7-1.6 4-1.3 7.4-9.8 11.7-21.2 12-34.2C437 338.4 426.5 322.8 425.6 305.1zM415.6 408.5c-6 4.6-12.4 8.4-19.4 11.5-.5 1-1.3 1.7-2.5 2 0 1.3 0 2.6 0 3.7 0 1.1 0 2.2.1 3.2 7.6-.9 15.1-2.9 22.5-4.7C416.2 419 415.7 413.7 415.6 408.5zM457.9 273.6c-4.4-10.6-16.1-9.7-25.6-7.6-5.8 1.2-11.6 2.9-16.9 5.7-1.7.9-3.9 2-5.7 3.5 1.6 1.6 2 4-.1 6-1.5 1.4-2.2 2.8-2.4 4.2 0 .2 0 .4 0 .6 0 3.6 3.4 7.1 7.1 8.9 5.5 2.7 12.5 1.3 18.2-.2 7.1-1.8 14.2-4.2 20.5-7.9C458.3 283.8 460.3 279.3 457.9 273.6zM402.4 445.1c-2.5-1.5-3.2-5.5-.8-7.5 0-.3 0-.6 0-.9-4.1.8-8.1 1.4-12.3 1.6-2.3.1-4.8-1.9-4.7-4.4.1-2.4 0-4.8 0-7.2 0-1.3-.1-2.6-.1-4-1.9 0-3.7 0-5 0-3.1.1-6.1.2-9.2.3.3 1.2 0 2.6-1.3 3.7-.1.5-.3 1-.3 1.5-.2 1.3-.2 2.6-.2 4 0 4.2.3 8.4.8 12.6.5 3.9 1.1 7.9 2.1 11.7.3 1.3.7 2.6 1.2 3.8 0-.1.1.1.2.4 0 0 0 0 .1 0 3.5 1.7 8.1 1.9 11.9 2.1 3.9.2 8.2.5 12.1-.3C403.3 461.3 403.2 451.6 402.4 445.1zM178.2 422.7c-.6-.1-1.3-.2-1.9-.2-1.4-.2-2.9-.3-4.3-.2.1 0-.6.1-1 .1-.3.4-.7.6-1.1.8l-.4 10.2c-.1 2.3-1.8 4.8-4.4 4.7-8.5-.4-17.1-.8-25.6-.9-.5 0-1 0-1.6 0 0 .3 0 .7-.1 1.1-.8 4.8-1 9.8-.8 14.6.2 4.2.3 8.9 3.9 11.7 3.5 2.7 8.4 3.3 12.6 3.6 3.9.2 7.7.8 11.6 1.2 2.8.3 8.7 1.3 10.3-1.9 2-3.7 2.3-8.2 2.4-12.4C178.3 444.3 177.8 433.5 178.2 422.7z"/><path fill="#74CCCF" d="M222.1,96.8c-3.7,7.4-8.3,14.3-12.6,21.4c-0.2,0.3-0.3,0.6-0.5,0.9c6.3-0.2,12.7-1.9,18.9-3C226.5,109.3,225,102.7,222.1,96.8z"/><path fill="#74CCCF" d="M430.5,145.5c0-10.1-0.2-20.1-2-30.1c-3.5-19.5-0.6-39.3-0.9-58.9c-57.5,0-114.9-0.4-172.4-0.8c-30.3-0.2-60.6-0.6-91-0.6c-15.1,0-30.1,1.1-45.2,1.3c-7.3,0.1-14.7,0.3-22-0.1c-3.6-0.2-7.2-0.5-10.8-0.1c-0.4,0-1.4,0.1-2.4,0.1c0.4,4-0.4,9-0.4,12.3v34.9c0,11.5-0.5,23,1,34.4c0.7,5.1,1.1,9.7,0.5,14.8c-0.5,4-1.9,9.4-0.3,13.3c2,4.8,9.5,5.7,14,6.3c6.7,0.9,13.4,0.8,20.1,0.9c19.3,0.3,38.5,4.3,57.8,4.3c1.2,0,2.3,0.3,3.2,0.9h5.6c0,0,0.1,0,0.1-0.1c9-5.5,19.2-7.5,29.5-8.8c12.3-1.6,24.7-3.2,37-4.4c25.8-2.6,52.2-5,78.2-3.7c10.4,0.5,21,1.9,29.2,8.9c0.6,0.6,1.2,1.1,1.9,1.7c0.7-0.3,1.5-0.5,2.4-0.5c11.4,0.1,22.8,1.3,34.2,1.6c9.7,0.2,20,0.5,29.6-1.9c0.2-2,1.6-4.1,3.7-5C432.4,159.7,430.5,151.8,430.5,145.5z M175.8,90.2c-6.1,5.6-14.6,5.6-22.6,4.4v59.1c0,7.1-11,7.9-11,0.8V92.6c-5.6-1.1-11.2-2.3-16.8-2.7c-1.7-0.1-4-0.3-6.2-0.1v-11c6.3-0.5,13.2,0.8,18.9,1.9c6.1,1.1,12.2,2.5,18.4,3.2c3,0.3,9,1,11.1-0.9C172.7,78.2,181,85.4,175.8,90.2z M239.1,146.7c-4.6-6-7-12.9-8.8-20c-9.1,1.6-18.1,3.9-27.4,3.1c-3.3,6.6-5.7,13.7-4.8,20.9c0.8,7.1-10.1,7.9-11,0.8c-3.1-25.9,21.2-44.7,28.6-67.5c1.5-4.8,6.7-5.8,10-2c14.3,16.6,9.5,41.5,22.5,58.5C252.5,146.2,243.4,152.3,239.1,146.7z M327.3,85.7c-4.1,4.9-8.7,9.4-13,14c-3.8,4.1-7,8.4-10.4,12.8c5.8,6.3,11.8,12.5,18.4,17.9c5.5,4.5-1.8,12.7-7.3,8.3c-6.6-5.4-12.6-11.5-18.3-17.8c-5.8,6.3-12.2,13-14.6,20.7c-2.1,6.7-13,4.7-10.8-2.1c3.3-10.5,11-18.5,18.1-26.7c-6.1-6.7-12.3-13.3-19.3-19.1c-5.5-4.5,1.8-12.8,7.3-8.3c6.9,5.7,13,12.2,19,18.8c3.1-4,6.1-8,9.7-11.8c4.4-4.6,9-9.1,13-14C323.5,73,331.8,80.3,327.3,85.7z M388.1,141.6c-5,0.1-10,0.7-14.9,1.4c-1.7,1.4-4.3,1.8-6.2,1c-6.4,1-12.8,2-19.3,2.1c-7.1,0.1-7.9-10.9-0.8-11c5.9-0.1,11.7-0.9,17.4-1.8V87.6h-6.1c-7.1,0-7.9-11-0.8-11h21c7.1,0,7.9,11,0.8,11h-3.9v44c4-0.5,8-1,12.1-1C394.3,130.5,395.2,141.5,388.1,141.6z"/><path fill="#FEBF10" d="M385.8 229.2c-3.4-6.2-6.8-12.5-10-18.8-2.8-5.4-5.2-11-8.4-16.2-3.4-5.5-7.4-11.3-12.4-15.8H215.6c-6.4.8-12.8 2-18.7 4.3-10.5 4.1-16.6 12.1-21.4 22-8.4 17.3-16.4 35.3-26.7 51.7 2.9 1.8 3.3 7-.9 8.3-.6.2-1.1.4-1.7.6 1 .8 2 1.7 3 2.5 1.1.9 1.5 2 1.5 3.1 1.6-.7 3.4-.9 5.2-.9-.7-11.9 6.9-24.4 12.2-34.3 6.2-11.5 11.4-23 22.9-30.3 7-4.5 14.9-7.2 23-8.9 11.4-2.4 23.1-4.3 34.7-5.2 22.4-1.7 45-1 67.4-1.2 9.5-.1 19.6.1 28.6 3.3 9.4 3.4 16.1 9.3 21.9 17.4 11.7 16.5 17.8 36.3 23 55.7 4-1.4 8.2 2.2 10.6 5.5 1.3-1.7 2.8-3.2 4.5-4.5C399.5 254.3 392.6 241.7 385.8 229.2zM342.9 171.9c-11.3-2.6-23.5-1.8-35-1.5-26.5.8-53 3.1-79.3 6.4-4.3.5-8.6 1-13 1.5h139.3C351.4 175.4 347.5 173 342.9 171.9z"/><path fill="#010101" d="M467.9,276.7c-0.6-8.4-6.3-15.6-13.7-19.2c-5.9-2.8-13.4-2.1-19.6-1.1c-7.6,1.1-14.9,3.3-21.8,6.5c-9.5-22.3-22.2-43.2-33-64.9c-2.7-5.3-5.7-10.6-9.3-15.4c-2-0.1-4.1-0.1-6.1-0.2c-2.9,0-4.7-1.9-5.4-4.1h-4.1c5,4.4,9,10.3,12.4,15.8c3.2,5.2,5.7,10.8,8.4,16.2c3.2,6.3,6.6,12.5,10,18.8c6.8,12.6,13.7,25.1,19.1,38.4c-1.7,1.3-3.2,2.8-4.5,4.5c-2.4-3.3-6.6-6.9-10.6-5.5c-5.2-19.4-11.3-39.2-23-55.7c-5.8-8.1-12.5-14-21.9-17.4c-9-3.3-19.1-3.4-28.6-3.3c-22.4,0.2-45-0.5-67.4,1.2c-11.7,0.9-23.3,2.7-34.7,5.2c-8.1,1.7-16,4.4-23,8.9c-11.4,7.3-16.7,18.8-22.9,30.3c-5.4,10-13,22.4-12.2,34.3c-1.8-0.1-3.6,0.2-5.2,0.9c0-1.1-0.4-2.2-1.5-3.1c-1-0.8-2-1.7-3-2.5c0.5-0.2,1.1-0.4,1.7-0.6c4.2-1.3,3.7-6.6,0.9-8.3c10.2-16.4,18.2-34.4,26.7-51.7c4.8-9.9,10.8-17.9,21.4-22c5.9-2.3,12.3-3.5,18.7-4.3h-30.3c-1.3,0.8-2.4,1.6-3.5,2.5c1.4,3.2,0.1,7.5-4.4,7.5c-0.9,0-1.8,0-2.8,0c-6,7.9-9.9,17.8-14.2,26.5c-7.3,14.6-14.3,29.6-23.4,43.2c-8.8-6.3-18.6-11.4-29.1-11.8c-11.9-0.4-31.7,11.4-26.4,25.5c2.9,7.7,13.1,12.6,20,16c4.5,2.2,9.9,4.6,15.3,5.8c-1.5,2.1-3.1,4-4.6,6.1c-3.3,4.5-4.7,9.4-5.7,14.8c-2.3,12.2-2.3,24.8-2.9,37.1c-0.5,9-0.4,18.2,3.3,26.6c1.5,3.4,3.2,6.6,4.8,10c0.6,1.3,1.3,2.6,1.9,3.9c0.2,0.4,0.4,0.9,0.5,1.3c-0.2,1.2,0.1,2.3,0.9,3.2c-0.8,1-1.2,2.3-0.8,3.9c2.7,10.5-1.7,25.3,7.3,33.5c1.8,1.6,4.5,2.3,7.4,2.7c-1.6,10.5-2.8,24.2,4.3,32.7c7,8.4,21.1,7.5,30.9,8.6c5.1,0.6,10,0.6,14.7-1.7c4.9-2.4,6.6-8.8,7.4-13.7c2.1-12.6,0.7-25.9,0.9-38.7c0.3,0.1,0.6,0.1,1,0.2c10,1.6,20.1,1.4,30.2,1.4c13.2,0,26.4-0.2,39.6-0.2c12.8,0,25.6,0.8,38.4,0.6c12.9-0.2,25.7-1.9,38.6-2.5c7.7-0.4,15.3,0,23-0.1c0.9,0,1.7,0,2.6-0.1c-0.9,2.2-1,5-1.1,7.1c-0.3,5.2,0.2,10.5,0.8,15.6c0.8,6.9,1.3,19.5,8.7,22.9c4.9,2.3,10.7,2.7,16,3c5.2,0.3,11,0.5,16-1.1c11.1-3.6,11.3-18,10-28.2c0.3-0.9,0.4-2,0.1-3c-0.2-0.7-0.4-1.4-0.6-2c0.4-0.9,0.5-1.9,0.3-2.9c3.7-0.9,7.5-1.8,11.2-2.7c2.1-0.5,3.2-2.6,3.2-4.5c0.2-7.8-0.8-15.6-0.6-23.5c12.3-12.2,19.2-26.8,20.7-44.3c0.9-9.7-1-18.9-3.9-28.2c-2.9-9.2-6.6-18.3-6.8-28.1c7.1-1.7,14.1-4.3,20.6-7.6C463.1,292.1,468.6,286,467.9,276.7z M172.4,247.5c3.8-7.5,7.4-15.4,11.9-22.4c9.8-15.4,26.8-18.8,43.5-21.9c24.1-4.5,48.6-3.4,73-3.6c17.6-0.1,40.1-3.8,53.6,10.4c14.3,15.1,20.8,36.9,26.1,56.8c-1.2,1.1-1.8,2.6-1.4,4.1c-4.9,2-10.9,2.1-16,2.5c-1.3,0.1-2.7,0.2-4,0.2c0,0,0,0,0-0.1c2.7-9.9,0.5-19.8-7-27c-7.2-6.9-18-9.4-27.7-8.7c-9.7,0.8-20.2,5.8-27.1,12.6c-5.4,5.4-8.3,15.8-3.9,22.3c-5.7-0.4-11.4-0.8-17.1-1.2c-21.6-1.5-43.4-2.7-65-1.8c-9.6,0.4-19.1,1.6-28.7,0.8c-5.8-0.5-12-1.7-17.7-0.4C164.1,262.7,169.2,253.7,172.4,247.5z M350.4,273.9c-2.5,0.1-5,0.1-7.5,0.2c-13.4,0.5-26.8,0-40.1-0.8c0.6-1.9,0.2-4.1-1.8-5.6c-1.1-0.8-0.1-6,0.5-7.2c1.3-3.1,4-5.4,6.7-7.2c5.8-4,13.1-6.5,20.1-6.6c6.4-0.1,13,2.1,17.8,6.3c5.4,4.8,6.2,11.7,4.4,18.4C350.1,272.4,350.1,273.2,350.4,273.9z M149.7,281.6c1.7,0.1,3.3-0.7,4.3-2.1c0.1-0.1,0.1-0.1,0.1-0.1c0,0,0,0,0,0c0.7-0.3,0.7-0.2,1.6-0.2c1,0,2.2,0.3,3.1,0.7c1.8,1,3.6,0.6,4.8-0.4c0.9,0.2,2,0.1,3.1-0.3c2.4-1.1,6.5-0.3,9-0.2c3.4,0.2,6.8,0.7,10.2,0.9c10.2,0.5,20.5-0.9,30.7-1.1c21.7-0.6,43.6,0.8,65.3,2.3c21.5,1.5,43,2.9,64.6,2.2c6.8-0.2,13.7-0.4,20.5-1c6.4-0.6,13.5-1.3,19.2-4.6c1-0.6,1.7-1.4,2-2.2c1.2,0.7,2.7,1,3.9,0.5c0,0,0,0,0,0c1.1,1,1.8,2.4,2.6,3.6c1.5,2.5,3,5.9,3,8.3c0,0.8,0.2,1.6,0.5,2.2c-1.6,13.1-7.8,25-17,34.7c-4.7,4.9-10.3,10.2-16.6,12.9c-7.1,3-14.8,4-21.8,7.3c-1.3,0.6-2,1.6-2.2,2.6c-0.3,0-0.6-0.1-0.9-0.1c-6.8-0.8-13.5-0.6-20.3-0.1c-13.9,0.8-27.4-1.2-41.3-2c-14.2-0.9-28.4,0.1-42.6,1.1c-6.9,0.5-13.8,1.1-20.7,0.6c0,0-0.1,0-0.1,0c-0.1-1.2-0.9-2.3-2.4-2.9c-7.4-2.9-15.5-4.2-23.1-6.3c-4.9-1.3-9.7-2.8-14.5-4.3c-4.8-1.4-9.7-2.4-14.3-4.3c-8-3.2-17.2-8.3-22.7-15c-4.9-6.1-4.3-14.1-4-21.5C139.8,290.6,146.7,286.9,149.7,281.6z M328.7,374c-1.5-0.1-2.5,0.5-3.2,1.3c-14.2,3.5-29.4,2.4-43.9,1.7c-18.7-0.9-37.3-2.4-55.9-3.2c-2.4-0.1-3.7,1.3-4.1,3.1c-3.1-2.3-6-4.9-8.5-7.8c24.6,1.1,49.1,2.8,73.7,2.4c11.9-0.2,23.9-1.4,35.8-1.1c4.5,0.1,9-1.2,13.5-1.1c2,0.1,4.3,0.3,6.3-0.2c-2,3.6-4.6,6.8-7.4,9.8c0-2.3-1.7-4.7-4.6-4.8L328.7,374z M330.3,383.4c-0.2,0.2-0.4,0.3-0.6,0.5c-4.8,4.3-10.1,7.4-16.6,8c-6.1,0.5-12.3-1.2-18.2-2.5c-6.5-1.5-12.8-2.1-19.4-2c-8,0.1-16,1.4-23.9,0.6c-6.5-0.7-12.8-2.3-18.8-4.9c16.8,0.9,33.6,2.1,50.4,2.9C298.8,386.9,315.1,387.7,330.3,383.4z M342,359.8c-1.5-0.5-2.8-0.2-3.7,0.5c-0.2,0-0.3,0-0.5,0c-1.2,0-2.5-0.1-3.7-0.1c-2.5-0.1-5.4,0.8-8,1c-2.8,0.2-5.6,0.1-8.4,0.2c-11.5,0.3-23,0.9-34.5,1.1c-23.7,0.3-47.5-1.4-71.2-2.5c-2.1-0.1-3.4,1-3.9,2.4c-1.1-1.9-2.1-4-2.9-6.1c3.6-1.3,8-0.6,11.6-0.3c6.6,0.4,13.5-0.4,20.1-0.9c13.2-0.9,26.3-1.7,39.5-1.1c12.8,0.6,25.5,3,38.3,2.4c6-0.3,12-0.8,18-0.6c3.7,0.1,7.8,0.2,11,2.2c1.1,0.7,1.2,1.9,1.2,3.4C344.3,360.7,343.2,360.2,342,359.8z M104.6,279.3c-3.3-1.6-6.4-3.5-9.3-5.6c-1.9-1.3-5.1-3.3-5.5-5.8c-0.7-4.4,5-7.9,8.2-9.7c4.8-2.7,9.9-3.3,15.2-2.1c10.6,2.5,20.1,10,28.4,17c0,0.6,0,1.2,0.3,1.8c1.1,3.2-3.5,5.5-5.7,6.8c-3.7,2.1-8.2,3.6-12.4,3.7C117.3,285.6,110,282,104.6,279.3z M127,427c0.6,0.1-0.2-0.5-0.6-1.2c-0.5-0.8-0.7-1.9-0.9-2.9c-0.7-2.8-0.9-5.7-1-8.6c-0.2-3.7-0.2-7.4-0.7-11.1c4.9,5.2,11.2,9.1,17.8,11.9c6.3,2.7,12.9,3.1,19.5,3.6c-0.1,0.3-0.1,0.6-0.1,1l-0.4,9.1c-6.2-0.3-12.4-0.6-18.6-0.7C137.1,428,131.8,428.3,127,427z M178,455c-0.1,4.2-0.4,8.6-2.4,12.4c-1.7,3.1-7.5,2.2-10.3,1.9c-3.9-0.4-7.7-1-11.6-1.2c-4.2-0.2-9.2-0.9-12.6-3.6c-3.6-2.8-3.7-7.5-3.9-11.7c-0.2-4.9,0-9.8,0.8-14.6c0.1-0.4,0.1-0.7,0.1-1.1c0.6,0,1.1,0,1.6,0c8.5,0.2,17.1,0.6,25.6,0.9c2.6,0.1,4.3-2.4,4.4-4.7l0.4-10.2c0.4-0.2,0.7-0.5,1.1-0.8c0.4,0,1.1-0.1,1-0.1c1.4,0,2.9,0.1,4.3,0.2c0.6,0.1,1.3,0.2,1.9,0.2C177.8,433.5,178.3,444.3,178,455z M396.8,462.8c-3.8,0.8-8.2,0.5-12.1,0.3c-3.8-0.2-8.4-0.5-11.9-2.1c0,0,0,0-0.1,0c-0.1-0.2-0.2-0.4-0.2-0.4c-0.5-1.2-0.9-2.5-1.2-3.8c-1-3.8-1.6-7.8-2.1-11.7c-0.5-4.2-0.8-8.4-0.8-12.6c0-1.3,0-2.7,0.2-4c0.1-0.5,0.2-1,0.3-1.5c1.3-1.1,1.6-2.5,1.3-3.7c3.1-0.1,6.1-0.2,9.2-0.3c1.3-0.1,3.1,0,5,0c0,1.3,0.1,2.6,0.1,4c0,2.4,0.1,4.8,0,7.2c-0.1,2.4,2.3,4.5,4.7,4.4c4.1-0.2,8.2-0.8,12.3-1.6c0,0.3,0,0.6,0,0.9c-2.4,2-1.7,6,0.8,7.5C403.2,451.6,403.3,461.3,396.8,462.8z M393.7,428.9c0-1.1,0-2.2-0.1-3.2c0-1.1,0.1-2.4,0-3.7c1.2-0.3,2.1-1,2.5-2c7-3.1,13.4-6.9,19.4-11.5c0.1,5.2,0.6,10.5,0.7,15.7C408.8,426,401.3,428,393.7,428.9z M436.6,356.2c-0.3,13-4.6,24.4-12,34.2c-1.3-0.3-2.8,0-4,1.3c-8.8,9.4-19.1,16.6-31.1,21.3c-0.1,0-0.1,0.1-0.2,0.1c-0.4,0.1-0.8,0.1-1.2,0.3c0.7-0.4,0.9-0.4-0.1-0.3c-1,0.1-2,0.2-3,0.2c-3.2,0.2-6.5,0.3-9.8,0.5c-7,0.3-14,0.5-21,0.5c-9,0.1-18-0.1-27,0.5c-12.8,0.9-25.6,2.4-38.5,1.9c-26.1-0.9-52.3,0-78.4-0.3c-9.2-0.1-17.2-0.8-26.2-2.2c-1.3-0.2-2.8-0.5-4.3-0.7c-0.5-0.6-1.2-1.1-2.2-1.4c-9.5-3-19.8-1.2-29.2-4.3c-8.4-2.8-16.8-8-21.4-15.7c-1-1.6-2.5-2.2-4-2.1c-1.2-3.5-3.6-7.1-4.5-9.1c-1.5-2.9-3-5.8-4.1-8.9c-1.4-3.7-1.7-9.1-1.7-13.8c-0.1-12.2,0.7-25,2.2-37.1c0.7-5.8,1.6-11.3,4.9-16.3c1.5-2.2,3.1-4.3,4.7-6.4c0,6,0.7,11.8,3.5,17.3c4.4,8.5,14.6,14.6,22.9,18.8c9.1,4.7,19.3,6.8,29,9.7c4.7,1.4,9.4,3.1,14.2,4.2c1.6,0.4,3.3,0.7,4.9,1c-1.3,0.9-1.9,2.1-1.9,3.3c-0.9,1-1.4,2.4-0.8,4.2c6,18.6,22,31,40.1,36.9c10,3.3,20.1,3.5,30.5,2.9c6.1-0.4,12.3-0.6,18.4-0.2c6.7,0.5,13.2,2.9,19.8,3.8c8.4,1.2,16.5,0,23.7-4.6c5.8-3.6,10.9-8.4,15.3-13.6c6.6-7.7,15.8-22.5,6-31c6.8-2.7,14.1-3.8,20.8-6.9c7-3.3,13.4-10,18.7-15.7c7.7-8.3,13.1-18.4,15.8-29.2c5.6,5,13,6.2,20.4,5.5C426.5,322.8,437,338.4,436.6,356.2z M453.2,286.8c-6.3,3.7-13.4,6.1-20.5,7.9c-5.7,1.4-12.7,2.9-18.2,0.2c-3.8-1.8-7.1-5.3-7.1-8.9c0-0.2,0-0.4,0-0.6c0.2-1.4,0.9-2.9,2.4-4.2c2.1-1.9,1.6-4.4,0.1-6c1.8-1.4,4-2.6,5.7-3.5c5.2-2.8,11.1-4.4,16.9-5.7c9.5-2.1,21.2-3,25.6,7.6C460.3,279.3,458.3,283.8,453.2,286.8z"/><path fill="#010101" d="M361.2,172c-0.6-0.6-1.2-1.2-1.9-1.7c-8.1-7.1-18.8-8.5-29.2-8.9c-25.9-1.2-52.4,1.2-78.2,3.7c-12.4,1.2-24.7,2.8-37,4.4c-10.3,1.3-20.5,3.3-29.5,8.8c0,0-0.1,0-0.1,0.1h30.3c4.4-0.6,8.7-1,13-1.5c26.3-3.4,52.8-5.6,79.3-6.4c11.5-0.4,23.7-1.2,35,1.5c4.6,1.1,8.5,3.4,12,6.5h4.1C358.2,176,358.9,173.2,361.2,172z"/><path d="M167.5 83c-2.1 1.9-8 1.2-11.1.9-6.2-.7-12.3-2.1-18.4-3.2-5.7-1.1-12.6-2.4-18.9-1.9v11c2.1-.2 4.4 0 6.2.1 5.7.5 11.3 1.6 16.8 2.7v61.9c0 7.1 11 6.2 11-.8V94.6c8.1 1.2 16.6 1.2 22.6-4.4C181 85.4 172.7 78.2 167.5 83zM248.2 140.5c-13-17-8.2-41.9-22.5-58.5-3.3-3.8-8.4-2.7-10 2-7.4 22.8-31.6 41.6-28.6 67.5.8 7 11.8 6.2 11-.8-.9-7.3 1.5-14.3 4.8-20.9 9.3.7 18.2-1.5 27.4-3.1 1.8 7.2 4.2 14.1 8.8 20C243.4 152.3 252.5 146.2 248.2 140.5zM209.1 119c.2-.3.3-.6.5-.9 4.2-7.1 8.9-14 12.6-21.4 2.9 6 4.4 12.5 5.8 19.2C221.7 117.1 215.4 118.7 209.1 119zM327.3 85.7c4.5-5.5-3.8-12.8-8.3-7.3-4 4.9-8.6 9.4-13 14-3.5 3.7-6.6 7.8-9.7 11.8-6-6.6-12.2-13.1-19-18.8-5.5-4.5-12.7 3.7-7.3 8.3 7 5.8 13.2 12.4 19.3 19.1-7.1 8.2-14.8 16.2-18.1 26.7-2.2 6.7 8.7 8.8 10.8 2.1 2.5-7.8 8.8-14.4 14.6-20.7 5.8 6.3 11.7 12.4 18.3 17.8 5.5 4.5 12.8-3.8 7.3-8.3-6.7-5.4-12.6-11.6-18.4-17.9 3.4-4.3 6.6-8.7 10.4-12.8C318.6 95.1 323.2 90.7 327.3 85.7zM387.2 130.6c-4.1.1-8.1.5-12.1 1v-44h3.9c7.1 0 6.2-11-.8-11h-21c-7.1 0-6.2 11 .8 11h6.1v45.7c-5.8.9-11.6 1.7-17.4 1.8-7.1.1-6.2 11.1.8 11 6.5-.1 12.9-1.1 19.3-2.1 1.9.8 4.5.5 6.2-1 4.9-.7 9.9-1.3 14.9-1.4C395.2 141.5 394.3 130.5 387.2 130.6zM367.2 178.4c1.1 1.4 2.2 2.8 3.3 4.2 21.6.9 44.8 5.2 65.3-2.4 1.1-.4 1.9-1 2.5-1.8H367.2zM179.7 178.4H81.5c9.6 6.4 24.5 5.7 35 5.8 19.4.2 38.7 3.9 58.1 4.3 2.1-2.8 4.4-5.3 7.2-7.5C181.4 180 180.7 179.1 179.7 178.4z"/><path d="M441.6 150.8c-.6-10.8 0-21.6-1.5-32.4-1.5-10.9-2.6-21.4-2.3-32.5.3-11.5 1.2-22.9.7-34.4-.1-2.3-1.3-3.8-2.9-4.4-1-1-2.3-1.6-4-1.6-59.7 0-119.4-.4-179.2-.8-30.3-.2-60.6-.6-90.9-.6-15.1 0-30.1 1.1-45.1 1.4-7.3.1-14.7.2-22-.2-3.6-.2-7.2-.2-10.8.3-1.7.2-3.2-.2-4.8 0-3.5-1.2-7.2 1.5-7.2 5.6 0 .4 0 .9 0 1.3 0 1.1.2 1.9.7 2.6 0 .2.1.4.1.7.1.2.1.4.2.6 1 1.2 1 1.5 0 1V114c0 5.7-.1 11.4.2 17.1.3 5.9 2.2 12.1 1.6 18-.8 8.2-3.2 17.9 2.5 25 1.3 1.7 2.9 3.1 4.7 4.3h98.2c-.9-.6-1.9-.9-3.2-.9-19.3 0-38.5-4-57.8-4.3-6.7-.1-13.4-.1-20.1-.9-4.5-.6-12-1.5-14-6.3-1.6-3.8-.2-9.3.3-13.3.6-5.1.1-9.7-.5-14.8-1.5-11.4-1-23-1-34.4V68.6c0-3.3.8-8.2.4-12.3 1 0 2 0 2.4-.1 3.6-.5 7.2-.1 10.8.1 7.3.4 14.7.2 22 .1 15.1-.3 30.1-1.4 45.2-1.3 30.3.1 60.6.4 91 .6 57.5.4 114.9.8 172.4.8.3 19.7-2.6 39.4.9 58.9 1.8 9.9 2 20 2 30.1 0 6.3 1.9 14.2.6 20.8-2 .9-3.4 3-3.7 5-9.5 2.4-19.9 2.1-29.6 1.9-11.4-.3-22.8-1.6-34.2-1.6-.9 0-1.7.2-2.4.5 2.1 2 4.1 4.1 6 6.4h71.1c.7-.9 1-1.9 1.1-3 .2-.3.4-.6.6-1C443.2 167 442.1 158.7 441.6 150.8zM181.8 181c-2.7 2.2-5.1 4.7-7.2 7.5.9 0 1.8 0 2.8 0C181.9 188.5 183.2 184.2 181.8 181z"/><path d="M367.2 178.4H359c.7 2.2 2.5 4 5.4 4.1 2 0 4 .1 6.1.2C369.5 181.2 368.4 179.8 367.2 178.4zM361.2 172c-2.3 1.1-3 4-2.2 6.4h8.2C365.3 176.2 363.3 174 361.2 172z"/></svg>