<?xml version="1.0" encoding="UTF-8"?>
<svg xmlns="http://www.w3.org/2000/svg" xmlns:xlink="http://www.w3.org/1999/xlink" viewBox="0 0 64 64" width="64px" height="64px">
<g id="surface12404571">
<path style=" stroke:none;fill-rule:nonzero;fill:rgb(78.039217%,92.941177%,90.196079%);fill-opacity:1;" d="M 55.816406 36.292969 C 56.542969 34.914062 56.960938 33.347656 56.960938 31.679688 C 56.960938 27.441406 54.296875 23.835938 50.558594 22.414062 C 50.558594 22.410156 50.558594 22.40625 50.558594 22.398438 C 50.558594 14.976562 44.542969 8.960938 37.121094 8.960938 C 30.859375 8.960938 25.613281 13.25 24.121094 19.042969 C 23.175781 18.734375 22.167969 18.558594 21.121094 18.558594 C 16.195312 18.558594 12.144531 22.265625 11.589844 27.042969 C 8.261719 27.746094 5.761719 30.699219 5.761719 34.238281 C 5.761719 38.304688 9.054688 41.601562 13.121094 41.601562 C 13.234375 41.601562 13.34375 41.59375 13.457031 41.585938 C 13.453125 41.699219 13.441406 41.808594 13.441406 41.921875 C 13.441406 49.167969 19.3125 55.039062 26.558594 55.039062 C 30.679688 55.039062 34.351562 53.136719 36.757812 50.167969 C 38.152344 51.589844 40.089844 52.480469 42.238281 52.480469 C 45.214844 52.480469 47.792969 50.785156 49.066406 48.308594 C 49.738281 48.523438 50.457031 48.640625 51.199219 48.640625 C 55.089844 48.640625 58.238281 45.488281 58.238281 41.601562 C 58.238281 39.480469 57.300781 37.585938 55.816406 36.292969 Z M 55.816406 36.292969 "/>
<path style=" stroke:none;fill-rule:nonzero;fill:rgb(99.215686%,98.823529%,93.725491%);fill-opacity:1;" d="M 43.199219 24.640625 L 43.199219 24.960938 L 41.28125 24.960938 L 41.28125 24.640625 C 41.28125 24.640625 38.566406 24.640625 37.761719 24.640625 C 36.167969 24.640625 34.878906 23.351562 34.878906 21.761719 C 34.878906 20.265625 36.019531 19.054688 37.476562 18.910156 C 37.460938 18.792969 37.441406 18.679688 37.441406 18.558594 C 37.441406 16.96875 38.730469 15.679688 40.320312 15.679688 C 41.242188 15.679688 42.050781 16.117188 42.578125 16.792969 C 42.667969 15.105469 44.050781 13.761719 45.761719 13.761719 C 47.527344 13.761719 48.960938 15.191406 48.960938 16.960938 C 48.960938 17.246094 48.910156 17.515625 48.839844 17.78125 C 49.25 17.28125 49.863281 16.960938 50.558594 16.960938 C 51.699219 16.960938 52.628906 17.8125 52.769531 18.914062 C 52.886719 18.902344 53 18.878906 53.121094 18.878906 C 54.710938 18.878906 56 20.167969 56 21.761719 C 56 23.351562 54.710938 24.640625 53.121094 24.640625 C 51.53125 24.640625 47.039062 24.640625 47.039062 24.640625 Z M 43.199219 24.640625 "/>
<path style=" stroke:none;fill-rule:nonzero;fill:rgb(27.843139%,16.862746%,16.078432%);fill-opacity:1;" d="M 45.761719 13.441406 C 47.699219 13.441406 49.28125 15.019531 49.28125 16.960938 C 49.28125 16.96875 49.28125 16.980469 49.28125 16.988281 C 49.664062 16.761719 50.105469 16.640625 50.558594 16.640625 C 51.730469 16.640625 52.742188 17.445312 53.027344 18.5625 C 53.058594 18.5625 53.089844 18.558594 53.121094 18.558594 C 54.882812 18.558594 56.320312 19.996094 56.320312 21.761719 C 56.320312 23.523438 54.882812 24.960938 53.121094 24.960938 L 43.199219 24.960938 C 43.023438 24.960938 42.878906 24.816406 42.878906 24.640625 C 42.878906 24.464844 43.023438 24.320312 43.199219 24.320312 L 53.121094 24.320312 C 54.53125 24.320312 55.679688 23.171875 55.679688 21.761719 C 55.679688 20.347656 54.53125 19.199219 53.121094 19.199219 C 53.046875 19.199219 52.972656 19.210938 52.902344 19.21875 L 52.808594 19.234375 C 52.796875 19.234375 52.785156 19.234375 52.769531 19.234375 C 52.613281 19.234375 52.476562 19.117188 52.453125 18.957031 C 52.332031 18 51.515625 17.28125 50.558594 17.28125 C 49.992188 17.28125 49.457031 17.535156 49.085938 17.984375 C 49.023438 18.058594 48.933594 18.101562 48.839844 18.101562 C 48.789062 18.101562 48.742188 18.089844 48.695312 18.066406 C 48.5625 17.996094 48.492188 17.84375 48.53125 17.699219 C 48.605469 17.417969 48.640625 17.183594 48.640625 16.960938 C 48.640625 15.371094 47.347656 14.078125 45.761719 14.078125 C 44.234375 14.078125 42.976562 15.277344 42.898438 16.808594 C 42.890625 16.941406 42.800781 17.054688 42.671875 17.097656 C 42.640625 17.105469 42.609375 17.113281 42.574219 17.113281 C 42.480469 17.113281 42.386719 17.066406 42.324219 16.988281 C 41.832031 16.359375 41.101562 16 40.320312 16 C 38.90625 16 37.761719 17.148438 37.761719 18.558594 C 37.761719 18.636719 37.769531 18.707031 37.78125 18.78125 L 37.792969 18.871094 C 37.804688 18.957031 37.777344 19.042969 37.726562 19.109375 C 37.671875 19.175781 37.59375 19.21875 37.507812 19.226562 C 36.191406 19.359375 35.199219 20.449219 35.199219 21.761719 C 35.199219 23.171875 36.347656 24.320312 37.761719 24.320312 L 41.28125 24.320312 C 41.457031 24.320312 41.601562 24.464844 41.601562 24.640625 C 41.601562 24.816406 41.457031 24.960938 41.28125 24.960938 L 37.761719 24.960938 C 35.996094 24.960938 34.558594 23.523438 34.558594 21.761719 C 34.558594 20.226562 35.640625 18.9375 37.121094 18.640625 C 37.121094 18.613281 37.121094 18.585938 37.121094 18.558594 C 37.121094 16.796875 38.554688 15.359375 40.320312 15.359375 C 41.074219 15.359375 41.789062 15.625 42.355469 16.105469 C 42.738281 14.566406 44.125 13.441406 45.761719 13.441406 Z M 45.761719 13.441406 "/>
<path style=" stroke:none;fill-rule:nonzero;fill:rgb(27.843139%,16.862746%,16.078432%);fill-opacity:1;" d="M 46.71875 17.921875 C 47.617188 17.921875 48.390625 18.558594 48.585938 19.417969 C 48.820312 19.277344 49.085938 19.199219 49.359375 19.199219 C 50.128906 19.199219 50.765625 19.773438 50.867188 20.523438 C 50.996094 20.492188 51.121094 20.480469 51.242188 20.480469 C 52.21875 20.480469 53.039062 21.246094 53.109375 22.226562 C 53.113281 22.316406 53.046875 22.394531 52.960938 22.398438 C 52.957031 22.398438 52.953125 22.398438 52.949219 22.398438 C 52.863281 22.398438 52.792969 22.335938 52.789062 22.25 C 52.730469 21.4375 52.050781 20.800781 51.242188 20.800781 C 51.09375 20.800781 50.941406 20.828125 50.769531 20.882812 C 50.753906 20.886719 50.738281 20.886719 50.726562 20.886719 C 50.691406 20.886719 50.65625 20.875 50.625 20.851562 C 50.585938 20.824219 50.558594 20.769531 50.558594 20.71875 C 50.558594 20.058594 50.023438 19.519531 49.359375 19.519531 C 49.074219 19.519531 48.792969 19.628906 48.570312 19.824219 C 48.542969 19.847656 48.503906 19.863281 48.464844 19.863281 C 48.445312 19.863281 48.425781 19.859375 48.40625 19.851562 C 48.351562 19.828125 48.3125 19.777344 48.308594 19.714844 C 48.242188 18.886719 47.542969 18.238281 46.71875 18.238281 C 46.585938 18.238281 46.449219 18.261719 46.285156 18.308594 C 46.269531 18.3125 46.253906 18.316406 46.238281 18.316406 C 46.167969 18.316406 46.105469 18.269531 46.085938 18.199219 C 46.0625 18.113281 46.109375 18.023438 46.195312 18 C 46.390625 17.945312 46.554688 17.921875 46.71875 17.921875 Z M 46.71875 17.921875 "/>
<path style=" stroke:none;fill-rule:nonzero;fill:rgb(100%,100%,100%);fill-opacity:1;" d="M 9.921875 30.71875 L 3.519531 30.71875 C 3.34375 30.71875 3.199219 30.578125 3.199219 30.398438 C 3.199219 30.222656 3.34375 30.078125 3.519531 30.078125 L 9.921875 30.078125 C 10.097656 30.078125 10.238281 30.222656 10.238281 30.398438 C 10.238281 30.578125 10.097656 30.71875 9.921875 30.71875 Z M 9.921875 30.71875 "/>
<path style=" stroke:none;fill-rule:nonzero;fill:rgb(100%,100%,100%);fill-opacity:1;" d="M 11.839844 30.71875 L 11.199219 30.71875 C 11.023438 30.71875 10.878906 30.578125 10.878906 30.398438 C 10.878906 30.222656 11.023438 30.078125 11.199219 30.078125 L 11.839844 30.078125 C 12.015625 30.078125 12.160156 30.222656 12.160156 30.398438 C 12.160156 30.578125 12.015625 30.71875 11.839844 30.71875 Z M 11.839844 30.71875 "/>
<path style=" stroke:none;fill-rule:nonzero;fill:rgb(100%,100%,100%);fill-opacity:1;" d="M 15.035156 32 L 9.28125 32 C 9.101562 32 8.960938 31.855469 8.960938 31.679688 C 8.960938 31.503906 9.101562 31.359375 9.28125 31.359375 L 15.035156 31.359375 C 15.210938 31.359375 15.355469 31.503906 15.355469 31.679688 C 15.355469 31.855469 15.210938 32 15.035156 32 Z M 15.035156 32 "/>
<path style=" stroke:none;fill-rule:nonzero;fill:rgb(100%,100%,100%);fill-opacity:1;" d="M 8 32 L 7.359375 32 C 7.183594 32 7.039062 31.855469 7.039062 31.679688 C 7.039062 31.503906 7.183594 31.359375 7.359375 31.359375 L 8 31.359375 C 8.175781 31.359375 8.320312 31.503906 8.320312 31.679688 C 8.320312 31.855469 8.175781 32 8 32 Z M 8 32 "/>
<path style=" stroke:none;fill-rule:nonzero;fill:rgb(100%,100%,100%);fill-opacity:1;" d="M 6.078125 32 L 4.800781 32 C 4.625 32 4.480469 31.855469 4.480469 31.679688 C 4.480469 31.503906 4.625 31.359375 4.800781 31.359375 L 6.078125 31.359375 C 6.257812 31.359375 6.398438 31.503906 6.398438 31.679688 C 6.398438 31.855469 6.257812 32 6.078125 32 Z M 6.078125 32 "/>
<path style=" stroke:none;fill-rule:nonzero;fill:rgb(100%,100%,100%);fill-opacity:1;" d="M 9.921875 33.28125 L 8.640625 33.28125 C 8.464844 33.28125 8.320312 33.136719 8.320312 32.960938 C 8.320312 32.785156 8.464844 32.640625 8.640625 32.640625 L 9.921875 32.640625 C 10.097656 32.640625 10.238281 32.785156 10.238281 32.960938 C 10.238281 33.136719 10.097656 33.28125 9.921875 33.28125 Z M 9.921875 33.28125 "/>
<path style=" stroke:none;fill-rule:nonzero;fill:rgb(100%,100%,100%);fill-opacity:1;" d="M 11.839844 27.519531 C 11.726562 27.519531 11.3125 27.519531 11.199219 27.519531 C 11.023438 27.519531 10.878906 27.664062 10.878906 27.839844 C 10.878906 28.015625 11.023438 28.160156 11.199219 28.160156 C 11.3125 28.160156 11.726562 28.160156 11.839844 28.160156 C 12.015625 28.160156 12.160156 28.015625 12.160156 27.839844 C 12.160156 27.664062 12.015625 27.519531 11.839844 27.519531 Z M 11.839844 27.519531 "/>
<path style=" stroke:none;fill-rule:nonzero;fill:rgb(100%,100%,100%);fill-opacity:1;" d="M 11.839844 28.800781 C 11.726562 28.800781 8.753906 28.800781 8.640625 28.800781 C 8.464844 28.800781 8.320312 28.945312 8.320312 29.121094 C 8.320312 29.296875 8.464844 29.441406 8.640625 29.441406 C 8.753906 29.441406 11.726562 29.441406 11.839844 29.441406 C 12.015625 29.441406 12.160156 29.296875 12.160156 29.121094 C 12.160156 28.945312 12.015625 28.800781 11.839844 28.800781 Z M 11.839844 28.800781 "/>
<path style=" stroke:none;fill-rule:nonzero;fill:rgb(100%,100%,100%);fill-opacity:1;" d="M 15.039062 30.078125 C 14.925781 30.078125 13.234375 30.078125 13.121094 30.078125 C 12.945312 30.078125 12.800781 30.222656 12.800781 30.398438 C 12.800781 30.578125 12.945312 30.71875 13.121094 30.71875 C 13.234375 30.71875 14.925781 30.71875 15.039062 30.71875 C 15.214844 30.71875 15.359375 30.578125 15.359375 30.398438 C 15.359375 30.222656 15.214844 30.078125 15.039062 30.078125 Z M 15.039062 30.078125 "/>
<path style=" stroke:none;fill-rule:nonzero;fill:rgb(100%,100%,100%);fill-opacity:1;" d="M 56.640625 40.320312 L 50.238281 40.320312 C 50.0625 40.320312 49.921875 40.175781 49.921875 40 C 49.921875 39.824219 50.0625 39.679688 50.238281 39.679688 L 56.640625 39.679688 C 56.816406 39.679688 56.960938 39.824219 56.960938 40 C 56.960938 40.175781 56.816406 40.320312 56.640625 40.320312 Z M 56.640625 40.320312 "/>
<path style=" stroke:none;fill-rule:nonzero;fill:rgb(100%,100%,100%);fill-opacity:1;" d="M 59.199219 40.320312 L 57.921875 40.320312 C 57.742188 40.320312 57.601562 40.175781 57.601562 40 C 57.601562 39.824219 57.742188 39.679688 57.921875 39.679688 L 59.199219 39.679688 C 59.375 39.679688 59.519531 39.824219 59.519531 40 C 59.519531 40.175781 59.375 40.320312 59.199219 40.320312 Z M 59.199219 40.320312 "/>
<path style=" stroke:none;fill-rule:nonzero;fill:rgb(100%,100%,100%);fill-opacity:1;" d="M 62.398438 41.601562 L 56 41.601562 C 55.824219 41.601562 55.679688 41.457031 55.679688 41.28125 C 55.679688 41.101562 55.824219 40.960938 56 40.960938 L 62.398438 40.960938 C 62.578125 40.960938 62.71875 41.101562 62.71875 41.28125 C 62.71875 41.457031 62.578125 41.601562 62.398438 41.601562 Z M 62.398438 41.601562 "/>
<path style=" stroke:none;fill-rule:nonzero;fill:rgb(100%,100%,100%);fill-opacity:1;" d="M 54.71875 41.601562 L 54.078125 41.601562 C 53.902344 41.601562 53.761719 41.457031 53.761719 41.28125 C 53.761719 41.101562 53.902344 40.960938 54.078125 40.960938 L 54.71875 40.960938 C 54.898438 40.960938 55.039062 41.101562 55.039062 41.28125 C 55.039062 41.457031 54.898438 41.601562 54.71875 41.601562 Z M 54.71875 41.601562 "/>
<path style=" stroke:none;fill-rule:nonzero;fill:rgb(100%,100%,100%);fill-opacity:1;" d="M 52.78125 41.601562 L 51.519531 41.601562 C 51.34375 41.601562 51.199219 41.457031 51.199219 41.28125 C 51.199219 41.101562 51.34375 40.960938 51.519531 40.960938 L 52.78125 40.960938 C 52.957031 40.960938 53.101562 41.101562 53.101562 41.28125 C 53.101562 41.457031 52.957031 41.601562 52.78125 41.601562 Z M 52.78125 41.601562 "/>
<path style=" stroke:none;fill-rule:nonzero;fill:rgb(100%,100%,100%);fill-opacity:1;" d="M 58.558594 39.039062 L 55.359375 39.039062 C 55.183594 39.039062 55.039062 38.898438 55.039062 38.71875 C 55.039062 38.542969 55.183594 38.398438 55.359375 38.398438 L 58.558594 38.398438 C 58.738281 38.398438 58.878906 38.542969 58.878906 38.71875 C 58.878906 38.898438 58.738281 39.039062 58.558594 39.039062 Z M 58.558594 39.039062 "/>
<path style=" stroke:none;fill-rule:nonzero;fill:rgb(100%,100%,100%);fill-opacity:1;" d="M 56.640625 42.878906 L 55.359375 42.878906 C 55.183594 42.878906 55.039062 42.738281 55.039062 42.558594 C 55.039062 42.382812 55.183594 42.238281 55.359375 42.238281 L 56.640625 42.238281 C 56.816406 42.238281 56.960938 42.382812 56.960938 42.558594 C 56.960938 42.738281 56.816406 42.878906 56.640625 42.878906 Z M 56.640625 42.878906 "/>
<path style=" stroke:none;fill-rule:nonzero;fill:rgb(94.509804%,73.725492%,9.803922%);fill-opacity:1;" d="M 45.441406 19.839844 L 42.238281 23.671875 L 39.039062 19.839844 L 35.839844 23.671875 L 32.640625 19.839844 L 29.441406 23.671875 L 26.238281 19.839844 L 23.039062 23.679688 L 19.839844 19.839844 L 16.640625 23.671875 L 16.640625 47.359375 L 48.640625 47.359375 L 48.640625 23.671875 Z M 45.441406 19.839844 "/>
<path style=" stroke:none;fill-rule:nonzero;fill:rgb(93.333334%,24.313726%,32.941177%);fill-opacity:1;" d="M 36.480469 33.921875 L 32.640625 33.921875 L 32.640625 28.800781 L 28.800781 36.480469 L 32.640625 36.480469 L 32.640625 41.601562 Z M 36.480469 33.921875 "/>
<path style=" stroke:none;fill-rule:nonzero;fill:rgb(27.843139%,16.862746%,16.078432%);fill-opacity:1;" d="M 32.640625 32.121094 C 32.550781 32.121094 32.480469 32.046875 32.480469 31.960938 L 32.480469 29.476562 L 31.71875 31 C 31.679688 31.078125 31.585938 31.109375 31.503906 31.070312 C 31.425781 31.03125 31.394531 30.9375 31.433594 30.855469 L 32.496094 28.730469 C 32.53125 28.664062 32.601562 28.628906 32.675781 28.644531 C 32.75 28.660156 32.800781 28.726562 32.800781 28.800781 L 32.800781 31.960938 C 32.800781 32.046875 32.726562 32.121094 32.640625 32.121094 Z M 32.640625 32.121094 "/>
<path style=" stroke:none;fill-rule:nonzero;fill:rgb(27.843139%,16.862746%,16.078432%);fill-opacity:1;" d="M 34.519531 34.078125 L 32.640625 34.078125 C 32.550781 34.078125 32.480469 34.007812 32.480469 33.921875 L 32.480469 32.960938 C 32.480469 32.871094 32.550781 32.800781 32.640625 32.800781 C 32.726562 32.800781 32.800781 32.871094 32.800781 32.960938 L 32.800781 33.761719 L 34.519531 33.761719 C 34.609375 33.761719 34.679688 33.832031 34.679688 33.921875 C 34.679688 34.007812 34.609375 34.078125 34.519531 34.078125 Z M 34.519531 34.078125 "/>
<path style=" stroke:none;fill-rule:nonzero;fill:rgb(27.843139%,16.862746%,16.078432%);fill-opacity:1;" d="M 34.136719 38.769531 C 34.113281 38.769531 34.085938 38.761719 34.0625 38.75 C 33.984375 38.710938 33.953125 38.617188 33.992188 38.535156 L 36.222656 34.082031 L 35.597656 34.082031 C 35.511719 34.082031 35.4375 34.007812 35.4375 33.921875 C 35.4375 33.832031 35.511719 33.761719 35.597656 33.761719 L 36.480469 33.761719 C 36.535156 33.761719 36.585938 33.789062 36.617188 33.835938 C 36.644531 33.882812 36.648438 33.941406 36.625 33.992188 L 34.277344 38.679688 C 34.25 38.734375 34.195312 38.769531 34.136719 38.769531 Z M 34.136719 38.769531 "/>
<path style=" stroke:none;fill-rule:nonzero;fill:rgb(27.843139%,16.862746%,16.078432%);fill-opacity:1;" d="M 32.640625 41.761719 C 32.628906 41.761719 32.617188 41.757812 32.601562 41.753906 C 32.53125 41.738281 32.480469 41.675781 32.480469 41.601562 L 32.480469 36.640625 L 28.800781 36.640625 C 28.746094 36.640625 28.691406 36.609375 28.664062 36.5625 C 28.636719 36.515625 28.632812 36.457031 28.65625 36.410156 L 29.242188 35.242188 C 29.28125 35.160156 29.375 35.128906 29.457031 35.167969 C 29.535156 35.207031 29.566406 35.304688 29.527344 35.382812 L 29.058594 36.320312 L 32.640625 36.320312 C 32.726562 36.320312 32.800781 36.390625 32.800781 36.480469 L 32.800781 40.921875 L 33.488281 39.542969 C 33.527344 39.464844 33.625 39.433594 33.703125 39.472656 C 33.78125 39.511719 33.8125 39.609375 33.773438 39.6875 L 32.78125 41.671875 C 32.753906 41.726562 32.699219 41.761719 32.640625 41.761719 Z M 32.640625 41.761719 "/>
<path style=" stroke:none;fill-rule:nonzero;fill:rgb(27.843139%,16.862746%,16.078432%);fill-opacity:1;" d="M 29.839844 34.558594 C 29.816406 34.558594 29.792969 34.554688 29.769531 34.542969 C 29.6875 34.503906 29.65625 34.40625 29.695312 34.328125 L 30.855469 32.007812 C 30.898438 31.929688 30.992188 31.898438 31.070312 31.9375 C 31.152344 31.976562 31.183594 32.074219 31.144531 32.152344 L 29.984375 34.472656 C 29.957031 34.527344 29.898438 34.558594 29.839844 34.558594 Z M 29.839844 34.558594 "/>
<path style=" stroke:none;fill-rule:nonzero;fill:rgb(27.843139%,16.862746%,16.078432%);fill-opacity:1;" d="M 45.441406 21.238281 L 47.742188 23.996094 L 47.742188 46.464844 L 17.535156 46.464844 L 17.535156 23.996094 L 19.839844 21.238281 L 22.351562 24.253906 L 23.039062 25.078125 L 23.730469 24.253906 L 26.242188 21.238281 L 28.753906 24.246094 L 29.441406 25.066406 L 30.128906 24.246094 L 32.640625 21.238281 L 35.152344 24.246094 L 35.839844 25.066406 L 36.527344 24.246094 L 39.039062 21.238281 L 41.550781 24.246094 L 42.238281 25.066406 L 42.925781 24.246094 L 45.441406 21.238281 M 45.441406 19.839844 L 42.238281 23.671875 L 39.039062 19.839844 L 35.839844 23.671875 L 32.640625 19.839844 L 29.441406 23.671875 L 26.238281 19.839844 L 23.039062 23.679688 L 19.839844 19.839844 L 16.640625 23.671875 L 16.640625 47.359375 L 48.640625 47.359375 L 48.640625 23.671875 Z M 45.441406 19.839844 "/>
<path style=" stroke:none;fill-rule:nonzero;fill:rgb(27.843139%,16.862746%,16.078432%);fill-opacity:1;" d="M 22.71875 31.359375 C 22.542969 31.359375 22.398438 31.214844 22.398438 31.039062 L 22.398438 26.558594 C 22.398438 26.382812 22.542969 26.238281 22.71875 26.238281 C 22.898438 26.238281 23.039062 26.382812 23.039062 26.558594 L 23.039062 31.039062 C 23.039062 31.214844 22.898438 31.359375 22.71875 31.359375 Z M 22.71875 31.359375 "/>
<path style=" stroke:none;fill-rule:nonzero;fill:rgb(27.843139%,16.862746%,16.078432%);fill-opacity:1;" d="M 22.71875 38.398438 C 22.542969 38.398438 22.398438 38.257812 22.398438 38.078125 L 22.398438 32.960938 C 22.398438 32.785156 22.542969 32.640625 22.71875 32.640625 C 22.898438 32.640625 23.039062 32.785156 23.039062 32.960938 L 23.039062 38.078125 C 23.039062 38.257812 22.898438 38.398438 22.71875 38.398438 Z M 22.71875 38.398438 "/>
<path style=" stroke:none;fill-rule:nonzero;fill:rgb(27.843139%,16.862746%,16.078432%);fill-opacity:1;" d="M 22.71875 47.359375 C 22.542969 47.359375 22.398438 47.214844 22.398438 47.039062 L 22.398438 40 C 22.398438 39.824219 22.542969 39.679688 22.71875 39.679688 C 22.898438 39.679688 23.039062 39.824219 23.039062 40 L 23.039062 47.039062 C 23.039062 47.214844 22.898438 47.359375 22.71875 47.359375 Z M 22.71875 47.359375 "/>
<path style=" stroke:none;fill-rule:nonzero;fill:rgb(27.843139%,16.862746%,16.078432%);fill-opacity:1;" d="M 29.121094 32 C 28.945312 32 28.800781 31.855469 28.800781 31.679688 L 28.800781 26.558594 C 28.800781 26.382812 28.945312 26.238281 29.121094 26.238281 C 29.296875 26.238281 29.441406 26.382812 29.441406 26.558594 L 29.441406 31.679688 C 29.441406 31.855469 29.296875 32 29.121094 32 Z M 29.121094 32 "/>
<path style=" stroke:none;fill-rule:nonzero;fill:rgb(27.843139%,16.862746%,16.078432%);fill-opacity:1;" d="M 29.121094 46.71875 C 28.945312 46.71875 28.800781 46.578125 28.800781 46.398438 L 28.800781 38.71875 C 28.800781 38.542969 28.945312 38.398438 29.121094 38.398438 C 29.296875 38.398438 29.441406 38.542969 29.441406 38.71875 L 29.441406 46.398438 C 29.441406 46.578125 29.296875 46.71875 29.121094 46.71875 Z M 29.121094 46.71875 "/>
<path style=" stroke:none;fill-rule:nonzero;fill:rgb(27.843139%,16.862746%,16.078432%);fill-opacity:1;" d="M 25.28125 27.519531 L 17.601562 27.519531 C 17.421875 27.519531 17.28125 27.375 17.28125 27.199219 C 17.28125 27.023438 17.421875 26.878906 17.601562 26.878906 L 25.28125 26.878906 C 25.457031 26.878906 25.601562 27.023438 25.601562 27.199219 C 25.601562 27.375 25.457031 27.519531 25.28125 27.519531 Z M 25.28125 27.519531 "/>
<path style=" stroke:none;fill-rule:nonzero;fill:rgb(27.843139%,16.862746%,16.078432%);fill-opacity:1;" d="M 25.28125 43.519531 L 17.601562 43.519531 C 17.421875 43.519531 17.28125 43.375 17.28125 43.199219 C 17.28125 43.023438 17.421875 42.878906 17.601562 42.878906 L 25.28125 42.878906 C 25.457031 42.878906 25.601562 43.023438 25.601562 43.199219 C 25.601562 43.375 25.457031 43.519531 25.28125 43.519531 Z M 25.28125 43.519531 "/>
<path style=" stroke:none;fill-rule:nonzero;fill:rgb(27.843139%,16.862746%,16.078432%);fill-opacity:1;" d="M 48.320312 43.519531 L 27.199219 43.519531 C 27.023438 43.519531 26.878906 43.375 26.878906 43.199219 C 26.878906 43.023438 27.023438 42.878906 27.199219 42.878906 L 48.320312 42.878906 C 48.496094 42.878906 48.640625 43.023438 48.640625 43.199219 C 48.640625 43.375 48.496094 43.519531 48.320312 43.519531 Z M 48.320312 43.519531 "/>
<path style=" stroke:none;fill-rule:nonzero;fill:rgb(27.843139%,16.862746%,16.078432%);fill-opacity:1;" d="M 36.800781 27.519531 L 27.199219 27.519531 C 27.023438 27.519531 26.878906 27.375 26.878906 27.199219 C 26.878906 27.023438 27.023438 26.878906 27.199219 26.878906 L 36.800781 26.878906 C 36.976562 26.878906 37.121094 27.023438 37.121094 27.199219 C 37.121094 27.375 36.976562 27.519531 36.800781 27.519531 Z M 36.800781 27.519531 "/>
<path style=" stroke:none;fill-rule:nonzero;fill:rgb(27.843139%,16.862746%,16.078432%);fill-opacity:1;" d="M 48.320312 27.519531 L 38.71875 27.519531 C 38.542969 27.519531 38.398438 27.375 38.398438 27.199219 C 38.398438 27.023438 38.542969 26.878906 38.71875 26.878906 L 48.320312 26.878906 C 48.496094 26.878906 48.640625 27.023438 48.640625 27.199219 C 48.640625 27.375 48.496094 27.519531 48.320312 27.519531 Z M 48.320312 27.519531 "/>
<path style=" stroke:none;fill-rule:nonzero;fill:rgb(27.843139%,16.862746%,16.078432%);fill-opacity:1;" d="M 35.519531 32 C 35.34375 32 35.199219 31.855469 35.199219 31.679688 L 35.199219 26.558594 C 35.199219 26.382812 35.34375 26.238281 35.519531 26.238281 C 35.695312 26.238281 35.839844 26.382812 35.839844 26.558594 L 35.839844 31.679688 C 35.839844 31.855469 35.695312 32 35.519531 32 Z M 35.519531 32 "/>
<path style=" stroke:none;fill-rule:nonzero;fill:rgb(27.843139%,16.862746%,16.078432%);fill-opacity:1;" d="M 35.519531 46.71875 C 35.34375 46.71875 35.199219 46.578125 35.199219 46.398438 L 35.199219 40 C 35.199219 39.824219 35.34375 39.679688 35.519531 39.679688 C 35.695312 39.679688 35.839844 39.824219 35.839844 40 L 35.839844 46.398438 C 35.839844 46.578125 35.695312 46.71875 35.519531 46.71875 Z M 35.519531 46.71875 "/>
<path style=" stroke:none;fill-rule:nonzero;fill:rgb(27.843139%,16.862746%,16.078432%);fill-opacity:1;" d="M 41.921875 30.078125 C 41.742188 30.078125 41.601562 29.9375 41.601562 29.761719 L 41.601562 26.558594 C 41.601562 26.382812 41.742188 26.238281 41.921875 26.238281 C 42.097656 26.238281 42.238281 26.382812 42.238281 26.558594 L 42.238281 29.761719 C 42.238281 29.9375 42.097656 30.078125 41.921875 30.078125 Z M 41.921875 30.078125 "/>
<path style=" stroke:none;fill-rule:nonzero;fill:rgb(27.843139%,16.862746%,16.078432%);fill-opacity:1;" d="M 41.921875 39.679688 C 41.742188 39.679688 41.601562 39.535156 41.601562 39.359375 L 41.601562 31.679688 C 41.601562 31.503906 41.742188 31.359375 41.921875 31.359375 C 42.097656 31.359375 42.238281 31.503906 42.238281 31.679688 L 42.238281 39.359375 C 42.238281 39.535156 42.097656 39.679688 41.921875 39.679688 Z M 41.921875 39.679688 "/>
<path style=" stroke:none;fill-rule:nonzero;fill:rgb(27.843139%,16.862746%,16.078432%);fill-opacity:1;" d="M 41.921875 47.359375 C 41.742188 47.359375 41.601562 47.214844 41.601562 47.039062 L 41.601562 41.28125 C 41.601562 41.101562 41.742188 40.960938 41.921875 40.960938 C 42.097656 40.960938 42.238281 41.101562 42.238281 41.28125 L 42.238281 47.039062 C 42.238281 47.214844 42.097656 47.359375 41.921875 47.359375 Z M 41.921875 47.359375 "/>
<path style=" stroke:none;fill-rule:nonzero;fill:rgb(99.215686%,98.823529%,93.725491%);fill-opacity:1;" d="M 14.398438 40.640625 C 14.398438 40.640625 13.398438 40.640625 12.160156 40.640625 C 10.921875 40.640625 9.921875 39.636719 9.921875 38.398438 C 9.921875 37.261719 10.773438 36.332031 11.875 36.1875 C 11.855469 36.074219 11.839844 35.960938 11.839844 35.839844 C 11.839844 34.601562 12.84375 33.601562 14.078125 33.601562 C 14.742188 33.601562 15.328125 33.890625 15.738281 34.34375 C 15.984375 33.1875 17.007812 32.320312 18.238281 32.320312 C 19.652344 32.320312 20.800781 33.464844 20.800781 34.878906 C 20.800781 35.003906 20.78125 35.121094 20.765625 35.238281 C 21.039062 35.015625 21.382812 34.878906 21.761719 34.878906 C 22.546875 34.878906 23.195312 35.449219 23.332031 36.195312 C 23.445312 36.175781 23.558594 36.160156 23.679688 36.160156 C 24.917969 36.160156 25.921875 37.164062 25.921875 38.398438 C 25.921875 39.636719 24.917969 40.640625 23.679688 40.640625 C 22.441406 40.640625 18.878906 40.640625 18.878906 40.640625 L 18.878906 40.960938 L 14.398438 40.960938 Z M 14.398438 40.640625 "/>
<path style=" stroke:none;fill-rule:nonzero;fill:rgb(27.843139%,16.862746%,16.078432%);fill-opacity:1;" d="M 13.28125 37.761719 C 13.367188 37.761719 13.441406 37.6875 13.441406 37.601562 C 13.441406 36.816406 12.804688 36.179688 12.019531 36.179688 C 12 36.1875 11.546875 36.179688 11.222656 36.265625 C 11.140625 36.289062 11.089844 36.378906 11.113281 36.464844 C 11.132812 36.550781 11.222656 36.601562 11.308594 36.574219 C 11.589844 36.5 12.011719 36.5 12.019531 36.5 C 12.625 36.5 13.121094 36.992188 13.121094 37.601562 C 13.121094 37.6875 13.191406 37.761719 13.28125 37.761719 Z M 13.28125 37.761719 "/>
<path style=" stroke:none;fill-rule:nonzero;fill:rgb(27.843139%,16.862746%,16.078432%);fill-opacity:1;" d="M 17.921875 40.640625 C 17.921875 40.816406 17.777344 40.960938 17.601562 40.960938 C 17.421875 40.960938 17.28125 40.816406 17.28125 40.640625 C 17.28125 40.464844 17.421875 40.320312 17.601562 40.320312 C 17.777344 40.320312 17.921875 40.464844 17.921875 40.640625 Z M 17.921875 40.640625 "/>
<path style=" stroke:none;fill-rule:nonzero;fill:rgb(27.843139%,16.862746%,16.078432%);fill-opacity:1;" d="M 12.160156 40.960938 L 14.398438 40.960938 C 14.578125 40.960938 14.71875 40.816406 14.71875 40.640625 C 14.71875 40.464844 14.578125 40.320312 14.398438 40.320312 L 12.160156 40.320312 C 11.101562 40.320312 10.238281 39.457031 10.238281 38.398438 C 10.238281 37.441406 10.960938 36.628906 11.914062 36.507812 C 12 36.496094 12.078125 36.449219 12.128906 36.378906 C 12.183594 36.3125 12.203125 36.226562 12.191406 36.140625 C 12.175781 36.039062 12.160156 35.941406 12.160156 35.839844 C 12.160156 34.78125 13.019531 33.921875 14.078125 33.921875 C 14.625 33.921875 15.128906 34.148438 15.5 34.558594 C 15.582031 34.648438 15.707031 34.6875 15.820312 34.65625 C 15.9375 34.625 16.027344 34.53125 16.050781 34.414062 C 16.269531 33.386719 17.191406 32.640625 18.238281 32.640625 C 19.476562 32.640625 20.480469 33.644531 20.480469 34.878906 C 20.480469 34.972656 20.464844 35.058594 20.453125 35.148438 C 20.433594 35.277344 20.492188 35.429688 20.609375 35.492188 C 20.722656 35.558594 20.863281 35.570312 20.964844 35.488281 C 21.199219 35.300781 21.472656 35.199219 21.761719 35.199219 C 22.378906 35.199219 22.90625 35.640625 23.015625 36.253906 C 23.046875 36.421875 23.207031 36.539062 23.378906 36.511719 C 23.480469 36.496094 23.578125 36.480469 23.679688 36.480469 C 24.738281 36.480469 25.601562 37.339844 25.601562 38.398438 C 25.601562 39.457031 24.738281 40.320312 23.679688 40.320312 L 18.878906 40.320312 C 18.703125 40.320312 18.558594 40.464844 18.558594 40.640625 C 18.558594 40.816406 18.703125 40.960938 18.878906 40.960938 L 23.679688 40.960938 C 25.09375 40.960938 26.238281 39.8125 26.238281 38.398438 C 26.238281 36.988281 25.09375 35.839844 23.679688 35.839844 C 23.640625 35.839844 23.605469 35.839844 23.570312 35.84375 C 23.304688 35.085938 22.585938 34.558594 21.761719 34.558594 C 21.535156 34.558594 21.320312 34.597656 21.113281 34.675781 C 21.007812 33.183594 19.757812 32 18.238281 32 C 17.066406 32 16.023438 32.722656 15.582031 33.773438 C 15.148438 33.457031 14.621094 33.28125 14.078125 33.28125 C 12.667969 33.28125 11.519531 34.429688 11.519531 35.839844 C 11.519531 35.871094 11.519531 35.902344 11.523438 35.929688 C 10.40625 36.21875 9.601562 37.226562 9.601562 38.398438 C 9.601562 39.8125 10.75 40.960938 12.160156 40.960938 Z M 12.160156 40.960938 "/>
<path style=" stroke:none;fill-rule:nonzero;fill:rgb(27.843139%,16.862746%,16.078432%);fill-opacity:1;" d="M 15.679688 40.320312 C 15.78125 40.320312 16.21875 40.320312 16.320312 40.320312 C 16.496094 40.320312 16.640625 40.464844 16.640625 40.640625 C 16.640625 40.816406 16.496094 40.960938 16.320312 40.960938 C 16.21875 40.960938 15.78125 40.960938 15.679688 40.960938 C 15.503906 40.960938 15.359375 40.816406 15.359375 40.640625 C 15.359375 40.464844 15.503906 40.320312 15.679688 40.320312 Z M 15.679688 40.320312 "/>
<path style=" stroke:none;fill-rule:nonzero;fill:rgb(99.215686%,98.823529%,93.725491%);fill-opacity:1;" d="M 60.847656 51.25 C 60.847656 56.550781 56.550781 60.847656 51.25 60.847656 C 45.945312 60.847656 41.648438 56.550781 41.648438 51.25 C 41.648438 45.945312 45.945312 41.648438 51.25 41.648438 C 56.550781 41.648438 60.847656 45.945312 60.847656 51.25 Z M 60.847656 51.25 "/>
<path style=" stroke:none;fill-rule:nonzero;fill:rgb(27.843139%,16.862746%,16.078432%);fill-opacity:1;" d="M 51.25 42.222656 C 56.222656 42.222656 60.273438 46.273438 60.273438 51.25 C 60.273438 56.222656 56.222656 60.273438 51.25 60.273438 C 46.273438 60.273438 42.222656 56.222656 42.222656 51.25 C 42.222656 46.273438 46.273438 42.222656 51.25 42.222656 M 51.25 41.328125 C 45.769531 41.328125 41.328125 45.769531 41.328125 51.25 C 41.328125 56.726562 45.769531 61.167969 51.25 61.167969 C 56.726562 61.167969 61.167969 56.726562 61.167969 51.25 C 61.167969 45.769531 56.726562 41.328125 51.25 41.328125 Z M 51.25 41.328125 "/>
<path style=" stroke:none;fill-rule:nonzero;fill:rgb(94.509804%,73.725492%,9.803922%);fill-opacity:1;" d="M 59.085938 51.25 C 59.085938 55.578125 55.578125 59.089844 51.246094 59.089844 C 46.917969 59.089844 43.40625 55.578125 43.40625 51.25 C 43.40625 46.917969 46.917969 43.40625 51.246094 43.40625 C 55.578125 43.40625 59.085938 46.917969 59.085938 51.25 Z M 59.085938 51.25 "/>
<path style=" stroke:none;fill-rule:nonzero;fill:rgb(93.333334%,82.352942%,37.64706%);fill-opacity:1;" d="M 51.25 43.40625 C 46.925781 43.40625 43.40625 46.925781 43.40625 51.25 C 43.40625 51.347656 43.417969 51.441406 43.421875 51.539062 C 44.175781 47.902344 47.390625 45.167969 51.25 45.167969 C 55.109375 45.167969 58.320312 47.902344 59.074219 51.542969 C 59.078125 51.441406 59.089844 51.347656 59.089844 51.25 C 59.089844 46.925781 55.570312 43.40625 51.25 43.40625 Z M 51.25 43.40625 "/>
<path style=" stroke:none;fill-rule:nonzero;fill:rgb(27.843139%,16.862746%,16.078432%);fill-opacity:1;" d="M 51.246094 43.566406 C 55.480469 43.566406 58.929688 47.011719 58.929688 51.25 C 58.929688 55.484375 55.484375 58.929688 51.246094 58.929688 C 47.011719 58.929688 43.566406 55.484375 43.566406 51.25 C 43.566406 47.011719 47.011719 43.566406 51.246094 43.566406 M 51.246094 43.25 C 46.835938 43.25 43.25 46.835938 43.25 51.25 C 43.25 55.660156 46.835938 59.25 51.246094 59.25 C 55.660156 59.25 59.25 55.660156 59.25 51.25 C 59.25 46.835938 55.660156 43.25 51.246094 43.25 Z M 51.246094 43.25 "/>
<path style=" stroke:none;fill-rule:nonzero;fill:rgb(27.843139%,16.862746%,16.078432%);fill-opacity:1;" d="M 53.25 52.789062 C 53.25 52.464844 53.203125 52.183594 53.109375 51.941406 C 53.015625 51.703125 52.878906 51.503906 52.699219 51.351562 C 52.515625 51.195312 52.34375 51.074219 52.179688 50.984375 C 52.019531 50.898438 51.816406 50.804688 51.566406 50.714844 L 51.566406 48.464844 C 51.84375 48.476562 52.097656 48.542969 52.332031 48.65625 C 52.570312 48.769531 52.703125 48.828125 52.734375 48.828125 C 52.839844 48.828125 52.921875 48.773438 52.988281 48.671875 C 53.050781 48.566406 53.085938 48.46875 53.085938 48.375 C 53.085938 48.191406 52.925781 48.042969 52.613281 47.929688 C 52.300781 47.816406 51.949219 47.75 51.566406 47.726562 L 51.566406 47.328125 C 51.566406 47.195312 51.460938 47.089844 51.328125 47.089844 C 51.195312 47.089844 51.089844 47.195312 51.089844 47.328125 L 51.089844 47.746094 L 51.0625 47.746094 C 50.832031 47.765625 50.617188 47.8125 50.417969 47.878906 C 50.21875 47.949219 50.03125 48.050781 49.855469 48.179688 C 49.679688 48.3125 49.539062 48.488281 49.4375 48.714844 C 49.332031 48.941406 49.28125 49.203125 49.28125 49.5 C 49.28125 49.742188 49.320312 49.960938 49.398438 50.15625 C 49.472656 50.351562 49.558594 50.503906 49.652344 50.621094 C 49.746094 50.734375 49.886719 50.847656 50.078125 50.960938 C 50.265625 51.074219 50.421875 51.152344 50.542969 51.199219 L 51.0625 51.394531 L 51.089844 51.40625 L 51.089844 54.019531 L 51.0625 54.023438 C 50.808594 54.007812 50.582031 53.960938 50.382812 53.878906 C 50.183594 53.796875 50.035156 53.707031 49.941406 53.613281 C 49.851562 53.519531 49.761719 53.429688 49.671875 53.351562 C 49.582031 53.273438 49.511719 53.230469 49.460938 53.230469 C 49.371094 53.230469 49.292969 53.28125 49.21875 53.378906 C 49.144531 53.480469 49.109375 53.582031 49.109375 53.6875 C 49.109375 53.917969 49.296875 54.152344 49.671875 54.394531 C 50.046875 54.636719 50.511719 54.761719 51.0625 54.769531 L 51.089844 54.765625 L 51.089844 55.167969 C 51.089844 55.300781 51.195312 55.40625 51.328125 55.40625 C 51.460938 55.40625 51.566406 55.300781 51.566406 55.167969 L 51.566406 54.738281 C 52.082031 54.664062 52.492188 54.464844 52.792969 54.136719 C 53.097656 53.808594 53.25 53.355469 53.25 52.789062 Z M 50.304688 50.117188 C 50.128906 49.960938 50.042969 49.730469 50.042969 49.421875 C 50.042969 48.867188 50.390625 48.554688 51.089844 48.480469 L 51.089844 50.539062 C 50.738281 50.410156 50.476562 50.269531 50.304688 50.117188 Z M 51.566406 53.988281 L 51.566406 51.605469 C 51.851562 51.734375 52.078125 51.886719 52.238281 52.066406 C 52.402344 52.257812 52.488281 52.523438 52.488281 52.867188 C 52.488281 53.5 52.175781 53.871094 51.566406 53.988281 Z M 51.566406 53.988281 "/>
</g>
</svg>
