<svg xmlns="http://www.w3.org/2000/svg"  viewBox="0 0 512 512" width="64px" height="64px"><path fill="#FEBF10" d="M325 107.5c-.2 0-.4 0-.6 0-1 1.3-2.5 2-4.1 2.1-.5.8-1.3 1.4-2.3 1.9-6 2.8-12.1 5.2-18.2 7.3 1.2 2.9 1.9 5.9 1.8 8.9 3.9-2.7 8.2-5.1 12-7.7C317 117.7 325.7 112.6 325 107.5zM309.3 192.7c-.4-6.8-1.7-13.5-3.5-20.1-1.8-6.7-4-13.4-6.8-19.7-1.5-3.5-3.8-8.5-6-10.4-.1-.1-.2-.2-.3-.3-.5.3-1.1.6-1.6.9.1.4.2.8.2 1.3.1 10.8 3.3 22.1 6.1 32.5 1.8 6.5 3.8 13.1 6.7 19.3.9 2 2 4 3.4 5.6-.1-.1.2.1.5.3.4-.7.6-1.3.8-2C309.4 197.6 309.5 195.2 309.3 192.7zM150.5 131.3c.1.1.2.1.4.2 3.6 1.9 7 2.8 11 3.6 11.9 2.6 24.2 3.6 36.4 4 12.9.4 25.9.3 38.7-1.1 4.5-.5 9.1-1 13.5-2.2 1.6-.4 3.3-.9 4.8-1.6.2-.1 1.4-.9 1.4-.9 2-2.3 4.7-2 6.6-.6.7-.6 1.6-1 2.4-1.1.1-1.7.5-3.5 1.1-5.2C228.7 132.5 189 129.5 150.5 131.3z"/><path fill="#C56528" d="M223.5 273.8c-10.2 3.2-19.3 8.7-26.2 18.1-1.8 2.5-2.9 4.9-2.5 7.2 0 0 .5 1.1 1.3 2.1.2.2 1.7 1.6 2.5 2.1 5.9 4 14 5.7 21 7 3.7.7 7.4 1.2 11.2 1.7C229 299.3 226.9 286.3 223.5 273.8zM350.9 46.7c-2.9 0-5.8.4-8.7.8-7 1-14 2.7-21.1 2.8-4.2.1-7.9-.3-11.7-2-4.5-2-8.5-5-13.1-6.6-12-4.5-21.1 7.4-29.5 13.8-9 6.9-20.8 10.4-32.1 8.1-10.8-2.3-20.1-8.1-30.4-11.7-11.3-3.9-22.2-1-32.2 5.4-5 3.2-8.5 6.6-10.7 12.1-1.8 4.5-3.1 9.5-5.8 13.6-5.9 9-15.3 11.4-25.5 8.9-9.4-2.3-19.7-8.6-29.7-7.7-5 .5-13.9 5.7-12 11.3 1.9 5.7 8.3 9.5 13.3 12.3 12 6.6 25.9 12 39.5 14.1 0 0 0 0 0 0 .2 0 .4-.1.6-.1 54.8-3.6 112.7 4.9 164.7-16.2.3-.3.6-.7.9-.9 1.8-1.5 3.8-2.3 6-2.6.1-1.9 1.1-3.5 3.2-4 .9-1 2.2-1.6 3.5-1.7 2-3.6 2.1-8.6 3.2-12.4 1.8-5.8 8.9-11 13-15.2 4.7-4.8 9.4-10 12.9-15.8 1-1.6 2-3.2 2.6-5 .2-.4.3-.7.3-1C351.8 46.8 351.3 46.7 350.9 46.7z"/><path fill="#FEBF10" d="M277.7 145.1c-3.5 6.7-6.3 13.8-8.8 20.8-3.3 9.1-6.3 18.4-8.4 27.9-1.7 7.8-3.5 16.4-2.3 24.4.4 2.2 1.4 4.8 2.6 6 .5.6 1 .9 1.2 1.1.4-.5 1.4-1.8 1.2-1.4 1.3-2.1 2.3-4.3 3.2-6.6 5.1-13.5 7.3-28.4 9.6-42.6 1.6-9.5 2.1-20.1 5-29.5C279.9 145.4 278.8 145.3 277.7 145.1zM291.7 126.5c-3.2 2.9-7.7.3-8.3-3.1-1.5.4-3 .7-4.5 1-.2.6-.4 1.1-.8 1.6-1.3 2-2.4 3.9-2.6 6.1 0-.4.1 1.2.1 1 0 .1.2.4.3.5.2.3.5.5.1.2.9.8 1.1.9 2.6 1.2 1.8.3 2.1.4 4.4 0 2.8-.4 6-1.8 7.7-4.3.4-.5 1.1-2.4 1.1-3.5C291.8 127.1 291.7 126.8 291.7 126.5z"/><path fill="#C56528" d="M285,338.3c-1.4-8.3-8.5-12.4-16.1-13.9c2,12.3,3.7,24.7,4.8,37.2C280.8,355.9,286.6,347.5,285,338.3z"/><path fill="#C56528" d="M420.7,415.7c-1.2-8.1-10.2-14.7-14.4-21.4c-6.8-10.9-7.3-24.1-7.5-36.7c-0.3-30.6,1.2-61.2,1.7-91.7c0.4-27.5,0.6-56.3-5.5-83.3c-7.1-31.6-26-69.1-59.8-74.5c0.4,13.4-21.7,22.5-32.1,30.9c2.4,3.5,4.1,7.8,5.6,11.4c3.2,7.8,5.9,15.9,7.7,24.2c1.7,7.7,3.3,15.7,2.5,23.7c-0.5,5.1-2.6,12.3-8.3,13.7c-13.1,3.3-18.7-18-21.4-26.9c-1.1-3.7-2.2-7.4-3.3-11.3c-0.4,2.5-0.8,5-1.2,7.5c-2.4,14.2-4.7,29.2-10.5,42.5c-1.9,4.4-4.5,9.1-9,11.1c-4.8,2.1-9.5-0.8-12.5-4.4c-9.8-11.8-4.2-32.2-0.6-45.4c3.9-14.6,8.7-29.8,15.8-43.4h-1.4c-1.2,0-2.4-0.2-3.4-1c-6.3,6.1-18.6,6.6-26.5,7.4c-14.5,1.4-29.3,1.5-43.8,0.7c-8.2-0.4-45.3-1.2-52.8-13.3c-0.5,0.1-0.9,0.2-1.5,0.2c-1.6,0-2.8-0.6-3.7-1.5c-29.1,4.7-43.2,32.1-48.9,59c-6.7,31.7-5.8,65.1-1.6,97.1c3,22.9,7.6,45.5,8.6,68.7c0.6,14.7,0.4,29.6-1.7,44.2c-1,7.2-2.2,14.8-4.6,21.7c-1.5,4.2-3.6,8.2-5.3,12.4c-1.3,3.4-4.4,8.9-1,11.9c3.5,3.1,8.2,4.5,12.8,5.4c12,2.2,24.4,0.9,36.4-0.4c15.3-1.8,30.6-4.2,46-5.2c16.4-1.1,32.8-1.1,49.2-0.8c28.3,0.6,56.5,1.3,84.7,1.8c21.7,0.4,43.9,0.9,65.3-3.3c9.8-1.9,20-4.8,28.5-10.1c4.2-2.6,7.6-5.6,11-9.2C417.5,424.4,421.4,420.4,420.7,415.7z M295.1,343.6c-1.1,13.2-9.7,22.9-20.5,29.3c0.4,7.2,0.7,14.3,0.7,21.5c0,6.4-10,7.2-10,0.8c0-5.9-0.2-11.8-0.5-17.6c-3,1.1-6.1,2.1-9.1,2.7c-2.8,0.6-5.6,1.2-8.4,1.7c-0.5,5.5-8.6,6.3-9.8,1.4c-15.3,1.8-31.4,1.2-45.4-4.2c-2.1-0.8-3-3.4-2.7-5.4c0.4-2.1,1.6-3.9,2-6c1.1-6.4,10.9-4.4,9.8,1.9c-0.1,0.7-0.3,1.3-0.6,1.9c10.5,3,22.4,2.8,33.1,1.9c1.1-0.1,2.3-0.2,3.4-0.3c-0.5-17.2-2.4-34-4.9-51.1c-3.7-0.4-7.3-0.9-11-1.5c-10.9-1.8-28.2-4.5-34.4-15.2c-8.1-14,8.7-28.5,19.6-34.8c4.6-2.6,9.3-4.7,14.1-6.2c-2.3-6.6-5-12.9-8.4-19c-3.2-5.6,5.1-11.2,8.3-5.6c4,7,7.2,14.4,9.7,22.1c5.1-1,10.3-1.6,15.5-1.8c-1.4-5.9-2.7-11.9-4.1-17.8c-1.4-6.2,8-9.6,9.4-3.3c1.6,7,3.2,14,4.8,21c9.8,0.1,19.6,1,29.4,1.8c6.4,0.5,4.4,10.3-1.9,9.8c-8-0.6-16.6-1.4-25.2-1.6c3.3,14.6,6.4,29.3,9,44.1c6.9,0.7,13.7,2.7,19,7.4C292.6,327.1,295.8,335.1,295.1,343.6z"/><path fill="#C56528" d="M258.7 323.7c-5.4-.1-10.8-.3-16.2-.6 2.3 16.3 4.1 32.5 4.7 49 5.9-.9 11.8-2.3 17-4.6C263.1 352.8 261.1 338.2 258.7 323.7zM248 270.1c-5 .2-10 .6-14.9 1.4 3.7 13.6 5.9 27.7 8 41.5 5.3.4 10.6.6 15.9.7C254.3 299.1 251.2 284.5 248 270.1z"/><path fill="#010101" d="M429.2,409.3c-3.5-8.5-11.2-14.7-15.8-22.6c-3.1-5.3-3.5-11.6-4-17.6c-0.7-7.6-0.6-15.2-0.5-22.8c0.2-14.9,0.4-29.8,0.7-44.7c0.7-31.9,2.2-64-1.1-95.8c-4-37.8-16.7-82.1-52.7-101.5c-7.9-4.2-16.6-6.4-25.5-6.8c1.2-3.6,1.8-7.5,2.7-10.7c0.5-1.9,4.7-5.1,6.1-6.6c2.4-2.5,4.9-4.9,7.4-7.5c4.5-4.7,8.4-9.9,11.9-15.4c3.1-4.9,6.7-12.8,1.5-17.7c-4.1-3.9-10.8-3.1-15.9-2.5c-7,0.9-14,2.4-21.1,3c-3.1,0.2-6,0.3-8.9-0.9c-4.9-2-9.2-5.2-14.1-7c-11.5-4.3-22.4,1.1-31.1,8.6c-9.1,7.8-17.9,14.9-30.7,13.1c-10.7-1.5-20.3-8-30.4-11.5c-4.9-1.7-9.8-2.7-15-2.8c-5.7-0.1-11.8,2.4-17,4.6C165,48.7,156.3,55.2,152,66c-1.8,4.5-3,9.4-5.9,13.3c-3.1,4.1-8.3,3.8-12.9,3c-10.2-1.9-19.5-7.5-30-8.1c-9.5-0.5-17.7,4.2-22.7,12.1c-8.7,13.8,8.3,25.8,18.6,31.4c7,3.8,14.8,7.2,22.7,9.8c-9.4,3.5-17.8,9.3-24.6,17.2c-10.8,12.5-16.7,28.8-20.4,44.7c-8,34.5-6.5,71.6-1.6,106.5c3.4,24.4,7.8,48.4,8.2,73.1c0.3,15-0.9,29.9-3.9,44.6c-2.2,10.5-8.2,19.5-10.2,30c-1.9,10.3,7.3,16.8,16,19.5c10.6,3.3,22,3.2,33,2.4c15-1,29.9-3.5,44.9-5.2c16.2-1.8,32.5-2.2,48.8-2.1c30.1,0.1,60.2,1.4,90.4,1.9c21.5,0.4,43,1.1,64.4-1.7c19.7-2.5,40.6-8.3,54.6-23.3C428.1,427.7,433.3,419.3,429.2,409.3z M101.8,107.8c-5-2.8-11.4-6.6-13.3-12.3c-1.9-5.6,7-10.9,12-11.3c9.9-1,20.2,5.3,29.7,7.7c10.3,2.5,19.6,0.1,25.5-8.9c2.7-4.1,3.9-9.1,5.8-13.6c2.2-5.5,5.8-9,10.7-12.1c9.9-6.3,20.9-9.3,32.2-5.4c10.3,3.6,19.7,9.4,30.4,11.7c11.3,2.4,23-1.1,32.1-8.1c8.4-6.4,17.4-18.3,29.5-13.8c4.6,1.7,8.6,4.7,13.1,6.6c3.8,1.7,7.6,2.1,11.7,2c7.1-0.1,14.1-1.7,21.1-2.8c2.9-0.4,5.8-0.8,8.7-0.8c0.4,0,0.8,0.1,1.4,0.2c-0.1,0.3-0.2,0.6-0.3,1c-0.7,1.7-1.7,3.4-2.6,5c-3.5,5.8-8.1,10.9-12.9,15.8c-4.2,4.2-11.2,9.4-13,15.2c-1.2,3.8-1.2,8.8-3.2,12.4c-1.3,0.1-2.6,0.7-3.5,1.7c-2,0.5-3.1,2.2-3.2,4c-2.2,0.3-4.1,1.1-6,2.6c-0.4,0.3-0.7,0.6-0.9,0.9c-52,21.1-109.8,12.6-164.7,16.2c-0.2,0-0.4,0-0.6,0.1c0,0,0,0,0,0C127.7,119.8,113.8,114.4,101.8,107.8z M261.9,225.4c-0.2-0.2-0.6-0.5-1.2-1.1c-1.2-1.3-2.2-3.8-2.6-6c-1.3-8,0.5-16.6,2.3-24.4c2.1-9.5,5-18.8,8.4-27.9c2.6-7,5.3-14.2,8.8-20.8c1.1,0.2,2.2,0.2,3.2,0.2c-2.9,9.4-3.5,20-5,29.5c-2.3,14.2-4.5,29.1-9.6,42.6c-0.9,2.3-1.9,4.5-3.2,6.6C263.4,223.7,262.4,225,261.9,225.4z M278.6,135.2c-1.5-0.3-1.7-0.4-2.6-1.2c0.3,0.3,0.1,0-0.1-0.2c-0.1-0.2-0.2-0.4-0.3-0.5c0.1,0.2,0-1.3-0.1-1c0.2-2.2,1.3-4.2,2.6-6.1c0.4-0.5,0.6-1.1,0.8-1.6c1.5-0.3,3-0.7,4.5-1c0.6,3.4,5.2,5.9,8.3,3.1c0,0.3,0.1,0.6,0.1,1c0,1.1-0.7,3-1.1,3.5c-1.8,2.5-4.9,3.9-7.7,4.3C280.7,135.6,280.4,135.5,278.6,135.2z M292.8,142.2c0.1,0.1,0.2,0.2,0.3,0.3c2.2,1.8,4.5,6.8,6,10.4c2.8,6.4,4.9,13,6.8,19.7c1.8,6.6,3.1,13.3,3.5,20.1c0.1,2.5,0,4.9-0.5,7.4c-0.2,0.7-0.4,1.3-0.8,2c-0.3-0.2-0.6-0.4-0.5-0.3c-1.4-1.7-2.5-3.7-3.4-5.6c-2.9-6.1-4.9-12.7-6.7-19.3c-2.8-10.3-6-21.7-6.1-32.5c0-0.5-0.1-0.9-0.2-1.3C291.7,142.8,292.2,142.5,292.8,142.2z M299.8,118.8c6.1-2.1,12.2-4.4,18.2-7.3c1-0.5,1.7-1.1,2.3-1.9c1.5-0.1,3.1-0.8,4.1-2.1c0.2,0,0.4,0,0.6,0c0.8,5.1-8,10.2-11.4,12.6c-3.8,2.6-8,5-12,7.7C301.7,124.7,301,121.7,299.8,118.8z M266.8,126.6c-0.6,1.7-1,3.4-1.1,5.2c-0.9,0.1-1.7,0.5-2.4,1.1c-1.9-1.4-4.6-1.7-6.6,0.6c0,0-1.1,0.8-1.4,0.9c-1.6,0.7-3.2,1.2-4.8,1.6c-4.4,1.2-9,1.7-13.5,2.2c-12.8,1.4-25.8,1.5-38.7,1.1c-12.2-0.4-24.5-1.4-36.4-4c-4-0.9-7.4-1.8-11-3.6c-0.1-0.1-0.3-0.1-0.4-0.2C189,129.5,228.7,132.5,266.8,126.6z M414.6,427.5c-3.4,3.5-6.9,6.6-11,9.2c-8.5,5.3-18.7,8.2-28.5,10.1c-21.4,4.1-43.6,3.7-65.3,3.3c-28.3-0.6-56.5-1.2-84.7-1.8c-16.4-0.4-32.8-0.3-49.2,0.8c-15.4,1-30.7,3.4-46,5.2c-12.1,1.4-24.4,2.6-36.4,0.4c-4.6-0.8-9.3-2.2-12.8-5.4c-3.4-3-0.4-8.5,1-11.9c1.7-4.2,3.8-8.2,5.3-12.4c2.4-6.9,3.6-14.5,4.6-21.7c2.1-14.6,2.3-29.5,1.7-44.2c-1-23.2-5.6-45.8-8.6-68.7c-4.2-32-5.2-65.4,1.6-97.1c5.7-27,19.9-54.3,48.9-59c0.9,0.9,2.1,1.5,3.7,1.5c0.6,0,1.1-0.1,1.5-0.2c7.5,12.2,44.5,12.9,52.8,13.3c14.6,0.8,29.3,0.7,43.8-0.7c7.9-0.8,20.3-1.3,26.5-7.4c1,0.7,2.1,1,3.4,1h1.4c-7.1,13.5-11.9,28.7-15.8,43.4c-3.5,13.2-9.2,33.5,0.6,45.4c3,3.7,7.7,6.5,12.5,4.4c4.6-2,7.1-6.7,9-11.1c5.8-13.3,8-28.3,10.5-42.5c0.4-2.5,0.8-5,1.2-7.5c1,3.9,2.2,7.7,3.3,11.3c2.7,8.9,8.3,30.2,21.4,26.9c5.8-1.4,7.9-8.6,8.3-13.7c0.7-8-0.8-16-2.5-23.7c-1.9-8.3-4.5-16.4-7.7-24.2c-1.5-3.6-3.2-7.9-5.6-11.4c10.4-8.5,32.4-17.5,32.1-30.9c33.7,5.5,52.7,42.9,59.8,74.5c6,27,5.9,55.8,5.5,83.3c-0.5,30.6-2,61.2-1.7,91.7c0.1,12.6,0.7,25.7,7.5,36.7c4.2,6.7,13.2,13.3,14.4,21.4C421.4,420.4,417.5,424.4,414.6,427.5z"/><path fill="#010101" d="M286.2,321.5c-5.3-4.7-12.1-6.7-19-7.4c-2.7-14.8-5.8-29.5-9-44.1c8.7,0.2,17.3,1,25.2,1.6c6.4,0.5,8.3-9.3,1.9-9.8c-9.8-0.8-19.6-1.6-29.4-1.8c-1.6-7-3.2-14-4.8-21c-1.4-6.3-10.9-2.9-9.4,3.3c1.4,5.9,2.7,11.9,4.1,17.8c-5.2,0.3-10.4,0.8-15.5,1.8c-2.6-7.6-5.7-15-9.7-22.1c-3.2-5.6-11.5,0-8.3,5.6c3.4,6,6.2,12.4,8.4,19c-4.8,1.6-9.5,3.6-14.1,6.2c-10.9,6.2-27.7,20.7-19.6,34.8c6.2,10.7,23.5,13.4,34.4,15.2c3.6,0.6,7.3,1.1,11,1.5c2.5,17.1,4.4,33.9,4.9,51.1c-1.2,0.1-2.3,0.2-3.4,0.3c-10.7,0.9-22.5,1.1-33.1-1.9c0.2-0.6,0.4-1.3,0.6-1.9c1.1-6.3-8.7-8.3-9.8-1.9c-0.4,2.1-1.6,3.9-2,6c-0.4,2,0.6,4.6,2.7,5.4c14,5.4,30,5.9,45.4,4.2c1.2,4.9,9.3,4,9.8-1.4c2.9-0.5,5.7-1.1,8.4-1.7c3-0.7,6.1-1.6,9.1-2.7c0.3,5.9,0.5,11.7,0.5,17.6c0,6.4,10,5.6,10-0.8c0-7.2-0.3-14.3-0.7-21.5c10.8-6.4,19.4-16.2,20.5-29.3C295.8,335.1,292.6,327.1,286.2,321.5z M219.7,310.3c-7-1.3-15.2-2.9-21-7c-0.8-0.5-2.3-1.9-2.5-2.1c-0.8-1-1.3-2.1-1.3-2.1c-0.5-2.3,0.6-4.7,2.5-7.2c7-9.4,16.1-14.9,26.2-18.1c3.4,12.5,5.5,25.5,7.3,38.2C227.1,311.5,223.4,311,219.7,310.3z M241.1,313c-2-13.8-4.3-27.9-8-41.5c4.8-0.8,9.8-1.3,14.9-1.4c3.3,14.5,6.4,29,9,43.7C251.7,313.6,246.4,313.4,241.1,313z M247.2,372.1c-0.5-16.5-2.3-32.6-4.7-49c5.4,0.4,10.8,0.5,16.2,0.6c2.4,14.5,4.3,29.1,5.5,43.7C258.9,369.8,253.1,371.2,247.2,372.1z M273.8,361.6c-1.1-12.4-2.8-24.8-4.8-37.2c7.6,1.5,14.6,5.6,16.1,13.9C286.6,347.5,280.8,355.9,273.8,361.6z"/></svg>