<svg xmlns="http://www.w3.org/2000/svg"  viewBox="0 0 48 48" width="64px" height="64px"><path fill="#d03827" d="M29.688,25.406c0,0,3.018,0.507,3.22,3.803s0.312,7.374,0.312,7.374l5.575,0.188V29.25 c0,0,0.296-2.002,1.466-2.563c1.17-0.561,1.823-0.729,1.823-0.729l-12.559-0.552H29.688z"/><path fill="#d03827" d="M7.355,26.126c0,0,2.567-0.009,2.63,3.12s0.083,6.837,0.083,6.837h6.25l-0.308-7.042 c0,0-0.463-2.332,1.909-2.937C14.502,26.23,7.355,26.126,7.355,26.126z"/><path fill="#d03827" d="M21.459,8.833l1.166-1.603c0,0-0.193,4.076,0.841,4.933s1.427-0.575,1.427-0.575l0.247-5.277 l1.451,1.479l0.397,15.364h-1.707L25,21l-1.542,0.006l-0.322,2.217l-1.678-0.14V8.833z M23.251,14.701 c0.04,0.992-0.034,2.034,0.007,3.026c0.009,0.219,0.034,0.469,0.211,0.597c0.113,0.081,0.26,0.091,0.399,0.097 c0.36,0.015,0.769-0.001,1.008-0.271c0.203-0.229,0.213-0.565,0.212-0.871c-0.002-0.711-0.004-1.423-0.006-2.134 c0-0.132-0.003-0.273-0.077-0.383c-0.071-0.106-0.194-0.163-0.315-0.202C24.258,14.421,23.659,14.504,23.251,14.701z"/><path fill="#16b7b8" d="M44.491,40.51c-0.22-1.377-0.045-2.228-0.265-3.605c-1.987-0.243-3.579-0.961-5.566-1.205 c-2.215-0.271-4.476-0.541-6.662-0.098c-1.187,0.24-2.323,0.686-3.507,0.941c-3.927,0.846-7.949-0.456-11.876-1.302 c-3.927-0.846-8.56-0.862-11.709,1.631c-0.125,1.585-0.186,2.439,0.094,4.004c0.748-0.25,1.515-0.438,2.289-0.59l0.068,0.36 c0.161,0.954,0.461,2.884,0.89,3.752c4.968-1.275,10.092,1.852,15.2,1.398c1.186-0.106,2.345-0.404,3.514-0.635 c4.792-0.948,9.805-0.759,14.512,0.545c0.161-0.771,0.322-2.542,0.483-3.313l0.072-0.596c0.538,0.008,1.076-0.01,1.615-0.091 c0.29-0.043,0.608-0.12,0.773-0.362C44.575,41.108,44.537,40.793,44.491,40.51z"/><path fill="#d03827" d="M3.119,23.82c0.23,0.381,0.042,0.896,0.225,1.301C3.56,25.6,3.019,25.92,3.541,25.974 c6.264,0.641,13.735,0.154,20.025-0.135c1.387-0.064,2.773-0.127,4.16-0.191c3.278-0.151,6.561-0.301,9.841-0.18 c0.434,0.016,0.869,0.037,1.296,0.117c0.376,0.071,0.742,0.187,1.115,0.273c1.582,0.364,3.232,0.174,4.844-0.018 c0.23-0.818,0.345-2.017,0.132-2.839c-0.356-0.385-1.006-0.207-1.525-0.133c-0.772,0.11-1.555-0.015-2.33-0.106 c-5.606-0.659-11.259,0.475-16.904,0.474c-1.456,0-2.912-0.076-4.368-0.117c-5.524-0.155-11.049,0.196-16.565,0.546"/><path fill="#d03827" d="M3.207,19.387c3.359-0.626,6.631-1.83,9.571-3.57c4.773-2.824,7.946-5.929,11.234-10.395 c1.953,1.663,3.905,3.325,5.858,4.988c0.625,0.532,1.251,1.065,1.913,1.551c3.576,2.624,8.479,3.864,12.854,4.593 c-0.074-0.64,0.456-1.278,0.382-1.918c-4.307,0.144-8.108-2.313-11.773-4.58c-0.927-0.574-1.856-1.149-2.716-1.818 c-2.353-1.832-4.385-4.131-6.731-5.972C19.546,9.863,11.556,15.65,3.001,17.279c0.01,0.611,0.01,1.256,0.02,1.867 C3.023,19.254,3.104,19.42,3.207,19.387z"/><path fill="#010101" d="M45.437,22.875c-0.021-0.08-0.061-0.154-0.117-0.215c-0.276-0.298-0.628-0.387-0.978-0.394 c-0.02-1.782-0.14-3.533-0.263-5.307c0.162,0.028,0.311,0.06,0.475,0.088c0.155,0.027,0.313-0.022,0.426-0.131 c0.114-0.107,0.17-0.263,0.152-0.419c-0.023-0.205,0.068-0.462,0.166-0.734c0.125-0.352,0.267-0.749,0.217-1.185 c-0.03-0.259-0.296-0.438-0.513-0.442c-4.028,0.139-7.613-2.102-11.104-4.265L33.5,9.624c-0.897-0.557-1.826-1.132-2.662-1.781 c-1.17-0.911-2.286-1.965-3.366-2.984c-1.074-1.014-2.185-2.063-3.364-2.987c-0.115-0.09-0.264-0.128-0.407-0.097 c-0.143,0.028-0.267,0.118-0.338,0.246C19.161,9.527,11.323,15.186,2.907,16.788c-0.239,0.046-0.41,0.257-0.406,0.5l0.02,1.866 c0.003,0.188,0.087,0.463,0.312,0.624c0.092,0.065,0.244,0.104,0.378,0.104c0.03,0,0.06-0.002,0.087-0.006v0.001 c0.121-0.022,0.24-0.051,0.36-0.075c-0.015,1.11,0.082,2.22,0.078,3.331c-0.168,0.011-0.339,0.02-0.506,0.031 c0,0-0.251,0.156-0.37,0.227c-0.236,0.143-0.313,0.45-0.17,0.687c0.053,0.088,0.056,0.256,0.059,0.434 c0.005,0.249,0.01,0.531,0.139,0.814c0.016,0.037,0.012,0.067-0.025,0.188c-0.043,0.14-0.124,0.4,0.043,0.651 c0.174,0.263,0.482,0.295,0.583,0.305c1.387,0.142,2.838,0.224,4.317,0.271c0.034,0.01,0.065,0.025,0.101,0.027 C8.511,26.807,9,27.355,9.216,27.882c0.268,0.651,0.282,1.412,0.296,2.148c0.009,0.517,0.019,1.388,0.028,2.265 c0.008,0.797,0.017,1.585,0.025,2.131c-1.749,0.276-3.492,0.885-4.97,2.055c-0.109,0.086-0.177,0.214-0.188,0.353 c-0.122,1.546-0.195,2.479,0.1,4.131c0.025,0.144,0.112,0.268,0.237,0.342c0.125,0.075,0.275,0.089,0.414,0.045 c0.568-0.189,1.147-0.339,1.731-0.47L6.9,40.94c0.17,1.05,0.47,2.81,0.9,3.68c0.1,0.21,0.34,0.32,0.57,0.26 c2.61-0.67,5.26-0.07,8.07,0.57c1.94,0.44,3.94,0.89,5.96,0.89c0.36,0,0.72-0.01,1.09-0.05c0.91-0.08,1.81-0.27,2.68-0.45 c0.29-0.07,0.59-0.13,0.89-0.19c4.71-0.93,9.65-0.74,14.28,0.54c0.13,0.04,0.27,0.02,0.39-0.06c0.12-0.07,0.2-0.19,0.23-0.32 c0.08-0.41,0.16-1.03,0.25-1.7c0.08-0.61,0.16-1.25,0.23-1.61c0.016-0.065,0.015-0.132,0.004-0.198 c0.423-0.009,0.847-0.036,1.271-0.1c0.24-0.036,0.802-0.121,1.112-0.575c0.282-0.416,0.204-0.904,0.157-1.195 c-0.104-0.654-0.115-1.179-0.126-1.733c-0.012-0.565-0.023-1.149-0.139-1.872c-0.035-0.22-0.211-0.39-0.433-0.417 c-0.959-0.117-1.813-0.347-2.716-0.59c-0.72-0.193-1.475-0.375-2.272-0.511L39.295,31.5c-0.001-0.6-0.003-2.425,0.2-3.08 c0.203-0.652,0.616-1.153,1.105-1.339c0.08-0.03,0.164-0.056,0.248-0.081c0.278-0.083,0.61-0.195,0.868-0.457 c1.087,0.023,2.168-0.088,3.163-0.207c0.201-0.023,0.367-0.166,0.422-0.36C45.545,25.112,45.681,23.818,45.437,22.875z M3.518,18.817l-0.012-1.128c8.35-1.721,16.1-7.287,20.437-14.669c0.98,0.807,1.925,1.699,2.843,2.565 c1.097,1.035,2.23,2.105,3.438,3.046c0.878,0.683,1.83,1.272,2.76,1.849l0.389,0.241c3.454,2.14,7.02,4.349,11.083,4.419 c-0.028,0.092-0.063,0.188-0.098,0.286c-0.061,0.17-0.125,0.352-0.17,0.543c-5.459-0.956-9.316-2.363-12.108-4.412 c-0.655-0.48-1.28-1.013-1.885-1.528l-5.858-4.988c-0.105-0.09-0.247-0.131-0.382-0.116c-0.138,0.017-0.263,0.089-0.345,0.2 c-0.874,1.188-1.734,2.263-2.604,3.254c-0.03,0.025-0.054,0.053-0.077,0.084c-2.52,2.854-5.127,4.986-8.404,6.924 C9.802,16.997,6.697,18.179,3.518,18.817z M38.013,19.445c0.012-1.308,0.013-2.617,0.008-3.926c1.51,0.48,3.185,0.896,5.047,1.253 c0.129,1.853,0.257,3.679,0.277,5.539c0,0.023,0.01,0.039,0.013,0.06c-0.61,0.086-1.237,0.01-1.903-0.072l-0.297-0.036 c-1.033-0.121-2.07-0.176-3.109-0.195C38.149,21.224,38.006,20.189,38.013,19.445z M32.762,13.211 c1.24,0.753,2.649,1.41,4.259,1.982c0.007,1.273,0.005,2.547-0.005,3.821c-0.006,0.834,0.21,2.131,0.039,3.047 c-1.586,0.009-3.17,0.102-4.736,0.216C32.255,19.245,32.853,16.236,32.762,13.211z M25.28,20.443 c-0.303-0.064-0.61-0.111-0.92-0.14c-0.252-0.021-0.526-0.029-0.798,0.066c-0.493,0.175-0.863,0.672-0.942,1.267 c-0.05,0.377,0.01,0.735,0.083,1.063c-0.205-0.006-0.409-0.008-0.614-0.015c0.008-0.094,0.01-0.197,0.006-0.322 c-0.058-4.439-0.148-8.951-0.264-13.415c0.172-0.197,0.344-0.402,0.515-0.606l0.034,1.992c0.01,0.553,0.023,1.31,0.461,1.909 c0.285,0.391,0.766,0.639,1.254,0.648c0.01,0.001,0.02,0.001,0.03,0.001c0.393,0,0.733-0.158,0.962-0.446 c0.255-0.321,0.298-0.712,0.327-0.971c0.148-1.334,0.206-2.683,0.209-4.026l0.497,0.423c-0.013,0.044-0.027,0.087-0.027,0.135 c0.002,4.699,0.099,9.461,0.288,14.155c0.002,0.052,0.022,0.161,0.052,0.289c0.013,0.054,0.034,0.147,0.047,0.218 c-0.237,0.011-0.474,0.029-0.711,0.037c-0.114-0.569-0.147-1.15-0.093-1.728C25.697,20.727,25.528,20.496,25.28,20.443z M24.759,22.725c-0.187,0.002-0.376,0.01-0.563,0.01c-0.157,0-0.314-0.01-0.47-0.011c-0.002-0.013,0.002-0.025-0.001-0.038 c-0.075-0.313-0.151-0.639-0.114-0.918c0.029-0.219,0.146-0.406,0.286-0.456c0.096-0.034,0.243-0.025,0.374-0.013 c0.127,0.012,0.254,0.026,0.38,0.046C24.637,21.808,24.68,22.269,24.759,22.725z M23.308,7.157 c0.262-0.332,0.523-0.657,0.786-1.008l0.538,0.458c0.033,1.581-0.039,3.182-0.214,4.759c-0.021,0.191-0.046,0.37-0.116,0.459 c-0.037,0.046-0.095,0.074-0.188,0.067c-0.172-0.004-0.368-0.104-0.466-0.239c-0.232-0.318-0.259-0.794-0.269-1.337l-0.053-3.074 C23.325,7.212,23.313,7.186,23.308,7.157z M27.473,22.619c-0.014-0.131-0.038-0.264-0.068-0.393 c-0.013-0.054-0.024-0.1-0.027-0.104c-0.179-4.447-0.269-8.955-0.279-13.414l2.447,2.084c0.618,0.526,1.258,1.07,1.941,1.573 c0.079,0.058,0.167,0.109,0.247,0.166c0.222,3.28-0.496,6.536-0.414,9.82c-0.199,0.015-0.399,0.03-0.597,0.046 C29.654,22.48,28.565,22.556,27.473,22.619z M16.766,13.727c1.447-1.11,2.789-2.326,4.087-3.707 c0.104,4.119,0.186,8.268,0.24,12.357v0.004c-0.001,0.013-0.001,0.026-0.001,0.04c0,0.055,0,0.105,0.001,0.152v0.085h0.003 c0,0.001,0,0.001,0,0.002c-0.418-0.015-0.837-0.03-1.255-0.042c-1.024-0.028-2.052-0.023-3.08-0.02 C16.905,19.639,16.524,16.681,16.766,13.727z M11.08,21.511c-0.007-0.468-0.011-0.935-0.014-1.403 c-0.006-0.869-0.004-1.737,0.002-2.606c0-0.07-0.015-0.128-0.036-0.183c0.684-0.334,1.354-0.689,2.001-1.071 c0.949-0.561,1.834-1.143,2.686-1.747c-0.129,2.695,0.173,5.392,0.043,8.09c-1.538,0.018-3.076,0.066-4.611,0.131 c-0.033-0.088-0.084-0.171-0.175-0.238C11.077,22.559,11.082,21.64,11.08,21.511z M10.107,22.775 c-1.801,0.086-3.593,0.187-5.371,0.298c-0.001-1.162-0.109-2.322-0.075-3.483c1.857-0.436,3.677-1.054,5.407-1.823 c-0.007,1.181-0.006,2.363,0.009,3.544C10.084,21.754,9.991,22.317,10.107,22.775z M41.22,43.99c-0.05,0.38-0.1,0.76-0.15,1.09 c-4.62-1.19-9.52-1.33-14.21-0.41c-0.3,0.06-0.6,0.12-0.9,0.19c-0.84,0.18-1.71,0.36-2.56,0.44c-2.22,0.2-4.52-0.32-6.74-0.83 c-1.92-0.43-3.89-0.88-5.85-0.88c-0.76,0-1.51,0.07-2.26,0.23c-0.28-0.8-0.51-2.09-0.64-2.9l0.013-0.25 c2.725-0.448,5.555-0.282,8.195,0.509c0.455,0.137,0.907,0.291,1.358,0.446c1.188,0.405,2.416,0.825,3.715,0.923 c0.207,0.015,0.412,0.022,0.617,0.022c1.429,0,2.822-0.352,4.174-0.692c0.498-0.126,0.994-0.251,1.492-0.359 c2.55-0.552,5.151-0.641,7.735-0.258c0.778,0.114,1.555,0.271,2.333,0.428c1.233,0.249,2.492,0.502,3.764,0.589l0.124,0.212 C41.36,42.88,41.29,43.42,41.22,43.99z M41.312,36.785c0.785,0.211,1.593,0.428,2.472,0.563c0.058,0.493,0.067,0.921,0.076,1.369 c0.012,0.565,0.023,1.149,0.139,1.872c0.02,0.126,0.062,0.388,0.004,0.474c-0.029,0.043-0.129,0.104-0.435,0.15 c-1.912,0.283-3.814-0.099-5.828-0.505c-0.794-0.16-1.589-0.319-2.384-0.438c-2.703-0.397-5.425-0.308-8.093,0.271 c-0.508,0.109-1.017,0.237-1.525,0.366c-1.536,0.387-2.986,0.759-4.471,0.642c-1.171-0.087-2.286-0.468-3.466-0.871 c-0.464-0.159-0.928-0.317-1.395-0.457c-1.777-0.533-3.634-0.798-5.493-0.798c-1.863,0-3.728,0.267-5.511,0.8 c-0.156-1.123-0.108-1.901-0.015-3.092c3.423-2.562,8.421-1.984,11.123-1.402c0.663,0.143,1.329,0.298,1.997,0.454 c3.304,0.773,6.72,1.571,10.09,0.848c0.589-0.127,1.167-0.3,1.726-0.467c0.608-0.182,1.182-0.353,1.774-0.473 c2.126-0.432,4.352-0.158,6.502,0.104C39.557,36.314,40.409,36.543,41.312,36.785z M15.675,31.754l0.068,0.5 c0.127,0.92,0.19,1.392,0.141,2.335c-1.475-0.265-3.367-0.459-5.321-0.286c-0.008-0.539-0.016-1.275-0.024-2.019 c-0.009-0.88-0.019-1.753-0.028-2.272c-0.015-0.79-0.031-1.686-0.371-2.511c-0.109-0.265-0.252-0.506-0.417-0.721 c0.318,0.003,0.635,0.009,0.954,0.009c1.83,0,3.683-0.047,5.512-0.114c-0.407,0.565-0.699,1.266-0.679,2.053 C15.517,28.957,15.572,30.985,15.675,31.754z M16.733,32.117l-0.067-0.496c-0.078-0.582-0.134-2.109-0.155-2.919 c-0.027-1.066,0.763-1.817,1.097-2.086c1.272-0.054,2.533-0.112,3.753-0.172l6.388-0.298c0.793-0.036,1.594-0.073,2.398-0.106 c0.053,0.071,0.118,0.133,0.205,0.168c0.974,0.396,1.724,1.278,1.956,2.303c0.081,0.355,0.104,0.729,0.128,1.135 c0.047,0.783,0.094,1.816,0.142,2.85c0.04,0.883,0.081,1.756,0.121,2.485c-0.267,0.035-0.534,0.077-0.801,0.131 c-0.637,0.129-1.26,0.315-1.862,0.495c-0.541,0.161-1.1,0.328-1.651,0.446c-3.151,0.68-6.456-0.095-9.651-0.843 c-0.622-0.145-1.242-0.289-1.859-0.424C16.942,33.653,16.871,33.117,16.733,32.117z M38.54,28.123 c-0.22,0.71-0.247,2.179-0.245,3.379l0.004,3.651c-1.513-0.183-3.057-0.347-4.603-0.263c-0.04-0.719-0.079-1.575-0.119-2.44 c-0.047-1.038-0.095-2.076-0.143-2.876c-0.026-0.417-0.052-0.849-0.15-1.283c-0.205-0.902-0.72-1.714-1.421-2.309 c1.895-0.06,3.8-0.086,5.686-0.014c0.418,0.015,0.826,0.034,1.222,0.108c0.214,0.04,0.425,0.097,0.636,0.152 c0.152,0.04,0.305,0.081,0.459,0.116c0.003,0.001,0.007,0.001,0.01,0.001C39.269,26.709,38.788,27.326,38.54,28.123z M44.418,25.384c-1.446,0.169-2.929,0.309-4.329-0.014c-0.144-0.033-0.286-0.07-0.428-0.108c-0.235-0.063-0.47-0.124-0.708-0.168 c-0.462-0.087-0.93-0.109-1.369-0.126c-3.303-0.119-6.647,0.031-9.883,0.181l-6.39,0.297c-5.614,0.273-11.964,0.58-17.422,0.06 c0.02-0.166,0.01-0.368-0.089-0.589c-0.044-0.098-0.047-0.256-0.05-0.424c-0.002-0.109-0.004-0.23-0.019-0.356 c5.28-0.336,10.726-0.668,16.083-0.518c0.458,0.013,0.916,0.029,1.374,0.045c1.002,0.036,2.004,0.071,3.008,0.072 c2.208,0,4.444-0.174,6.606-0.342c3.371-0.262,6.855-0.534,10.239-0.136l0.292,0.035c0.701,0.085,1.427,0.175,2.166,0.069 l0.236-0.037c0.272-0.045,0.598-0.097,0.771-0.036C44.62,23.905,44.558,24.732,44.418,25.384z"/><path fill="#010101" d="M25.42,14.483c-0.183-0.272-0.479-0.368-0.578-0.399c-0.607-0.196-1.346-0.058-1.809,0.167 c-0.179,0.087-0.29,0.271-0.282,0.471c0.02,0.485,0.011,0.983,0.003,1.48c-0.009,0.52-0.017,1.038,0.004,1.544 c0.008,0.211,0.028,0.702,0.418,0.983c0.239,0.173,0.509,0.185,0.67,0.191c0.054,0.002,0.122,0.005,0.199,0.005 c0.339,0,0.858-0.054,1.204-0.444c0.339-0.383,0.338-0.896,0.338-1.204l-0.006-2.134C25.581,14.986,25.58,14.724,25.42,14.483z M24.501,17.818c-0.109,0.124-0.489,0.11-0.613,0.103c-0.031,0.002-0.106-0.003-0.103,0.02c-0.009-0.023-0.022-0.083-0.029-0.234 c-0.02-0.487-0.011-0.987-0.003-1.487c0.006-0.393,0.013-0.784,0.006-1.171c0.274-0.071,0.583-0.085,0.813-0.037 c0.007,0.024,0.007,0.104,0.007,0.147l0.006,2.122C24.588,17.444,24.588,17.72,24.501,17.818z"/></svg>