<svg xmlns="http://www.w3.org/2000/svg"  viewBox="0 0 48 48" width="64px" height="64px"><path fill="#4b7bb2" d="M11.374,8.173l0.459,3.744c0,0,6.839,2.206,13.086,2.103s12.214-2.922,12.214-2.922l0.394-4.853 c0,0-0.57-1.587-7.362-1.708S17.583,4.417,15.792,4.583C14,4.75,11.54,6.679,11.374,8.173z"/><path fill="#4b7bb2" d="M15.229,39.667c0,0,0.73,3.733,3.938,4.304s10.945,0.257,10.945,0.257s4.171,0.398,4.759-5.104 c0,0-0.631,1.699-6.964,2.033s-6.384,0.416-9.115-0.115C15.477,40.398,15.229,39.667,15.229,39.667z"/><path fill="#73a1b2" d="M12.608,6.052c0,0-3.205,2.048,0.029,3.185s8.093,2.624,15.332,1.631s7.868-1.124,9.303-3.038 c1.435-1.914-0.933-2.467-0.933-2.467s-0.757,1.22-4.382,2.137s-7.432,1.451-11.633,0.996C16.125,8.042,13.8,7.604,12.608,6.052z"/><path fill="#73a1b2" d="M11.833,11.917c0,0,8.364,2.479,13.828,2.073c5.464-0.406,11.473-2.644,11.473-2.644l-2.263,27.778 c0,0-4.581,2.775-11.954,2.38c-7.373-0.395-7.803-2.169-7.803-2.169L11.833,11.917z"/><path fill="#010101" d="M13.202,5.326c-0.999,0.301-2.441,1.007-2.58,2.195c-0.172,1.47,1.735,2.198,2.828,2.642 c4.509,1.832,10.188,1.668,14.931,1.164c2.652-0.282,8.843-0.652,9.647-4.017c0.891-3.729-7.305-3.188-9.199-3.227 c-0.644-0.013-0.644,0.987,0,1c1.497,0.03,2.989,0.11,4.478,0.269c1.338,0.143,5.345,0.58,2.663,2.973 c-1.878,1.675-6.05,1.872-8.41,2.081c-2.519,0.223-5.071,0.235-7.592,0.037c-1.54-0.121-3.11-0.299-4.604-0.703 c-0.67-0.181-1.577-0.366-2.14-0.762C11.97,8.096,11.513,6.88,13.468,6.29C14.083,6.105,13.821,5.139,13.202,5.326L13.202,5.326z"/><path fill="#010101" d="M37.065,6.467c-0.464,6.792-1.227,13.553-1.654,20.353c-0.186,2.965-0.354,5.935-0.633,8.893 c-0.189,2-0.172,4.438-1.289,6.166c-1.554,2.405-5.293,2.025-7.843,2.038c-2.112,0.01-4.555,0.144-6.588-0.491 c-2.664-0.831-3.307-3.07-3.646-5.527c-0.475-3.446-0.863-6.905-1.253-10.362c-0.755-6.691-1.418-13.401-2.385-20.066 c-0.092-0.634-1.056-0.365-0.964,0.266c0.936,6.455,1.577,12.954,2.308,19.435c0.355,3.151,0.712,6.302,1.123,9.446 c0.271,2.075,0.262,4.729,1.863,6.283c2.213,2.149,5.845,1.991,8.687,2.014c2.679,0.022,6.834,0.531,8.873-1.621 c1.824-1.926,1.852-4.868,2.093-7.36c0.261-2.697,0.42-5.406,0.591-8.11c0.453-7.134,1.23-14.232,1.718-21.357 C38.109,5.825,37.109,5.828,37.065,6.467L37.065,6.467z"/><path fill="#010101" d="M14.977,40.098c2.948,2.09,7.05,2.045,10.519,1.842c3.001-0.175,6.979-0.393,9.336-2.463 c0.485-0.425-0.225-1.13-0.707-0.707c-2.272,1.995-6.629,2.11-9.457,2.209c-3.089,0.108-6.575,0.107-9.186-1.744 C14.956,38.862,14.455,39.729,14.977,40.098L14.977,40.098z"/><path fill="#010101" d="M12.894,5.717c0.187,1.635,1.56,2.126,3.011,2.511c2.626,0.696,5.397,0.959,8.107,0.933 c2.746-0.026,5.522-0.374,8.173-1.099c1.56-0.427,3.626-0.811,4.129-2.558c0.178-0.62-0.786-0.884-0.964-0.266 c-0.433,1.505-3.63,1.946-4.976,2.235c-1.82,0.39-3.677,0.604-5.537,0.67c-1.808,0.065-10.634,0.265-10.942-2.425 C13.822,5.085,12.821,5.078,12.894,5.717L12.894,5.717z"/><path fill="#73a1b2" d="M28.516,5.156c-0.279,0.913-1.16,0.93-1.811,0.781c-0.65-0.149-1.233-0.511-1.873-0.7 c-0.64-0.189-1.425-0.16-1.859,0.347C22.847,5.732,22.76,5.91,22.64,6.063c-0.311,0.396-1.484,0.297-1.484,0.297 s-0.702-0.44-0.831-0.926c0.012-0.628,0.438-1.354,0.921-1.756s1.085-0.634,1.695-0.783c1.616-0.396,3.483-0.182,4.684,0.97 C28.034,4.256,28.767,4.334,28.516,5.156z"/><path fill="#010101" d="M25.281,2.272c-1.856-0.258-5.603,0.514-5.447,3.095c0.095,1.578,2,1.795,3.058,1.128 c0.078-0.049,0.112-0.125,0.179-0.179c0.861-0.692,1.002-0.756,2.034-0.439c0.611,0.188,1.159,0.531,1.807,0.6 c0.867,0.092,1.515-0.191,1.935-0.918c0.073-0.059,0.132-0.141,0.15-0.269C29.242,3.548,26.712,2.471,25.281,2.272z M26.361,5.309 c-0.315-0.063-0.62-0.279-0.925-0.386c-0.48-0.168-0.961-0.326-1.476-0.283c-0.835,0.069-1.837,1.357-2.488,1.23 c-1.01-0.197-0.124-1.671,0.41-2.032c0.66-0.445,1.643-0.61,2.42-0.626c0.977-0.02,1.86,0.229,2.663,0.775 c0.222,0.151,1.037,0.651,1.061,0.991C27.718,5.39,26.77,5.391,26.361,5.309z"/><path fill="#010101" d="M13.742,5.88C15.478,4.889,18.058,5.002,20,5.054c0.644,0.017,0.643-0.983,0-1 c-2.114-0.056-4.867-0.12-6.763,0.963C12.678,5.336,13.181,6.2,13.742,5.88L13.742,5.88z"/><path fill="#010101" d="M12.074,12.335c8.007,3.125,17.18,2.904,25.04-0.558c0.588-0.259,0.079-1.121-0.505-0.863 c-7.62,3.356-16.525,3.48-24.269,0.457C11.74,11.137,11.48,12.103,12.074,12.335L12.074,12.335z"/><path fill="#010101" d="M26.018,24.816c0.479,0.177,0.96,0.349,1.447,0.502c0.293,0.092,0.569,0.16,0.829-0.057 c0.249-0.207,0.241-0.49,0.269-0.785c0.049-0.518,0.186-1.026,0.398-1.501c0.26-0.583-0.602-1.092-0.863-0.505 c-0.167,0.374-0.314,0.752-0.405,1.153c-0.04,0.179-0.069,0.358-0.093,0.539c-0.016,0.104-0.028,0.209-0.036,0.314 c-0.03,0.215-0.022,0.241,0.024,0.078c0.118-0.049,0.236-0.098,0.354-0.146c-0.201,0.018-0.562-0.168-0.755-0.234 c-0.302-0.103-0.602-0.211-0.902-0.321C25.679,23.628,25.419,24.594,26.018,24.816L26.018,24.816z"/><path fill="#010101" d="M22.633,24.7c0.291-0.603,0.58-1.207,0.872-1.809c0.363-0.75,0.801-1.884,1.816-1.398 c1.229,0.588,1.958,2.416,2.327,3.628c0.187,0.614,1.153,0.352,0.964-0.266c-0.498-1.635-1.614-4.198-3.517-4.569 c-1.882-0.367-2.736,2.688-3.325,3.91C21.491,24.773,22.353,25.28,22.633,24.7L22.633,24.7z"/><path fill="#010101" d="M27.05,28.972c-0.753,0.468-1.429,1.018-2.122,1.567c-0.273,0.216-0.134,0.622,0.101,0.785 c0.706,0.492,1.39,1.033,2.186,1.373c0.585,0.25,1.095-0.611,0.505-0.863c-0.796-0.34-1.481-0.881-2.186-1.373 c0.034,0.262,0.067,0.524,0.101,0.785c0.627-0.497,1.238-0.987,1.92-1.41C28.101,29.497,27.599,28.631,27.05,28.972L27.05,28.972z"/><path fill="#010101" d="M28.724,27.569c0.38,0.484,0.76,0.968,1.14,1.453c0.137,0.175,0.721,0.675,0.682,0.918 c-0.08,0.501-0.771,0.491-1.108,0.476c-1.259-0.056-2.517-0.111-3.776-0.167c-0.643-0.028-0.642,0.972,0,1 c1.126,0.05,2.252,0.1,3.379,0.149c0.735,0.032,1.71,0.241,2.265-0.381c1.133-1.269-1.17-3.258-1.874-4.155 C29.034,26.356,28.331,27.068,28.724,27.569L28.724,27.569z"/><path fill="#010101" d="M20.554,27.322c-0.503,0.774-0.959,1.575-1.35,2.411c-0.24,0.513-0.71,1.256-0.388,1.829 c0.271,0.483,0.93,0.51,1.423,0.563c0.969,0.105,1.929,0.068,2.895-0.04c0.632-0.071,0.64-1.072,0-1 c-0.579,0.065-1.158,0.114-1.741,0.109c-0.286-0.002-0.573-0.015-0.858-0.04c-0.21-0.017-0.418-0.041-0.626-0.073 c-0.21,0.022-0.254-0.042-0.132-0.191c-0.013-0.382,0.545-1.183,0.724-1.519c0.282-0.53,0.59-1.042,0.917-1.545 C21.769,27.286,20.903,26.784,20.554,27.322L20.554,27.322z"/><path fill="#010101" d="M19.42,28.427c0.619-0.396,1.363-0.653,2.031-0.958c-0.251-0.144-0.502-0.288-0.752-0.432 c-0.039,0.67,0.023,1.327,0.174,1.981c0.145,0.627,1.109,0.361,0.964-0.266c-0.132-0.569-0.173-1.133-0.138-1.715 c0.024-0.413-0.434-0.577-0.752-0.432c-0.668,0.305-1.413,0.562-2.031,0.958C18.375,27.91,18.876,28.775,19.42,28.427L19.42,28.427 z"/></svg>