<?xml version="1.0" encoding="UTF-8"?>
<svg xmlns="http://www.w3.org/2000/svg" xmlns:xlink="http://www.w3.org/1999/xlink" viewBox="0 0 64 64" width="64px" height="64px">
<g id="surface14116132">
<path style=" stroke:none;fill-rule:nonzero;fill:rgb(98.823529%,75.294119%,49.411765%);fill-opacity:1;" d="M 55.828125 35.550781 C 56.023438 35.160156 56.191406 34.742188 56.339844 34.308594 C 58.023438 29.335938 55.476562 23.378906 50.109375 21.941406 C 49.53125 14.65625 44.410156 9.65625 38.628906 8.804688 C 32.007812 7.828125 25.945312 12.035156 23.929688 18.714844 C 21.5 17.855469 19.128906 17.960938 16.894531 19.265625 C 15.882812 19.734375 14.957031 20.421875 14.125 21.332031 C 12.90625 22.667969 12.109375 24.351562 11.789062 26.128906 C 11.308594 26.207031 10.839844 26.28125 10.394531 26.441406 C 7.808594 27.367188 6.179688 29.277344 5.730469 32.152344 C 5.453125 33.941406 6.015625 35.726562 6.328125 36.449219 C 7.566406 39.296875 10.4375 40.914062 13.355469 40.488281 C 13.5 40.464844 13.710938 40.53125 13.835938 40.636719 C 13.992188 45.191406 16.203125 49.222656 19.523438 51.523438 C 24.847656 55.21875 31.699219 54.082031 36.023438 49.015625 C 37.875 50.910156 40.078125 51.832031 42.667969 51.496094 C 45.242188 51.164062 47.242188 49.742188 48.699219 47.433594 C 49.375 47.613281 50.011719 47.875 50.675781 47.949219 C 53.261719 48.230469 55.34375 47.191406 56.902344 44.875 C 56.957031 44.796875 57.03125 44.734375 57.097656 44.664062 C 57.320312 44.15625 57.542969 43.644531 57.765625 43.132812 C 57.867188 42.359375 58.039062 41.582031 58.050781 40.808594 C 58.074219 38.726562 57.222656 36.824219 55.828125 35.550781 Z M 55.828125 35.550781 "/>
<path style=" stroke:none;fill-rule:nonzero;fill:rgb(99.215686%,98.823529%,93.725491%);fill-opacity:1;" d="M 47.742188 37.25 C 47.742188 37.25 55.226562 37.25 55.269531 37.25 C 57 37.25 58.398438 35.851562 58.398438 34.121094 C 58.398438 32.613281 57.332031 31.355469 55.914062 31.058594 C 55.929688 30.929688 55.941406 30.792969 55.941406 30.660156 C 55.941406 28.867188 54.488281 27.417969 52.699219 27.417969 C 51.644531 27.417969 50.707031 27.925781 50.117188 28.710938 C 49.964844 26.71875 48.1875 25.179688 46.105469 25.433594 C 44.582031 25.621094 43.320312 26.796875 43.042969 28.304688 C 42.953125 28.789062 42.960938 29.257812 43.050781 29.699219 C 42.640625 29.257812 42.0625 28.984375 41.414062 28.984375 C 40.230469 28.984375 39.261719 29.90625 39.1875 31.070312 C 38.648438 30.949219 38.066406 30.957031 37.449219 31.191406 C 36.269531 31.632812 35.433594 32.742188 35.382812 34 C 35.3125 35.78125 36.738281 37.253906 38.507812 37.253906 C 38.644531 37.253906 39.117188 37.253906 39.226562 37.253906 L 45.722656 37.253906 "/>
<path style=" stroke:none;fill-rule:nonzero;fill:rgb(27.843139%,16.862746%,16.078432%);fill-opacity:1;" d="M 55.269531 37.570312 L 47.742188 37.570312 C 47.566406 37.570312 47.421875 37.429688 47.421875 37.25 C 47.421875 37.074219 47.566406 36.929688 47.742188 36.929688 L 55.269531 36.929688 C 56.820312 36.929688 58.078125 35.671875 58.078125 34.121094 C 58.078125 32.800781 57.140625 31.644531 55.847656 31.375 C 55.6875 31.339844 55.574219 31.1875 55.597656 31.019531 C 55.609375 30.902344 55.621094 30.78125 55.621094 30.660156 C 55.621094 29.046875 54.3125 27.738281 52.699219 27.738281 C 51.78125 27.738281 50.929688 28.164062 50.371094 28.902344 C 50.292969 29.007812 50.152344 29.054688 50.027344 29.015625 C 49.898438 28.976562 49.808594 28.867188 49.796875 28.734375 C 49.730469 27.851562 49.300781 27.023438 48.613281 26.460938 C 47.921875 25.894531 47.042969 25.640625 46.144531 25.753906 C 44.757812 25.921875 43.613281 26.996094 43.359375 28.363281 C 43.277344 28.792969 43.28125 29.21875 43.367188 29.636719 C 43.394531 29.777344 43.324219 29.917969 43.199219 29.984375 C 43.074219 30.050781 42.914062 30.023438 42.816406 29.917969 C 42.449219 29.519531 41.953125 29.304688 41.414062 29.304688 C 40.414062 29.304688 39.574219 30.089844 39.507812 31.089844 C 39.503906 31.183594 39.457031 31.269531 39.382812 31.328125 C 39.308594 31.382812 39.210938 31.402344 39.121094 31.382812 C 38.582031 31.261719 38.074219 31.296875 37.5625 31.488281 C 36.496094 31.890625 35.746094 32.902344 35.703125 34.011719 C 35.675781 34.78125 35.953125 35.515625 36.488281 36.070312 C 37.019531 36.625 37.742188 36.933594 38.511719 36.933594 L 45.722656 36.933594 C 45.902344 36.933594 46.042969 37.074219 46.042969 37.25 C 46.042969 37.429688 45.902344 37.570312 45.722656 37.570312 L 38.511719 37.570312 C 37.566406 37.570312 36.683594 37.195312 36.027344 36.515625 C 35.371094 35.832031 35.027344 34.933594 35.066406 33.984375 C 35.117188 32.625 36.03125 31.382812 37.339844 30.890625 C 37.851562 30.699219 38.378906 30.636719 38.917969 30.699219 C 39.160156 29.535156 40.195312 28.664062 41.417969 28.664062 C 41.855469 28.664062 42.28125 28.777344 42.660156 28.988281 C 42.660156 28.742188 42.683594 28.496094 42.730469 28.246094 C 43.035156 26.609375 44.40625 25.320312 46.066406 25.117188 C 47.136719 24.988281 48.191406 25.289062 49.019531 25.96875 C 49.660156 26.492188 50.117188 27.214844 50.324219 28.011719 C 50.972656 27.425781 51.808594 27.097656 52.699219 27.097656 C 54.664062 27.097656 56.261719 28.695312 56.261719 30.660156 C 56.261719 30.710938 56.261719 30.765625 56.257812 30.816406 C 57.699219 31.25 58.71875 32.59375 58.71875 34.121094 C 58.71875 36.023438 57.171875 37.570312 55.269531 37.570312 Z M 55.269531 37.570312 "/>
<path style=" stroke:none;fill-rule:nonzero;fill:rgb(99.215686%,98.823529%,93.725491%);fill-opacity:1;" d="M 45.929688 30.359375 C 44.773438 30.28125 43.777344 31.082031 43.703125 32.144531 C 43.695312 32.277344 43.703125 32.40625 43.722656 32.53125 C 43.496094 32.28125 43.167969 32.109375 42.789062 32.082031 C 42.09375 32.039062 41.492188 32.496094 41.40625 33.121094 C 41.28125 33.085938 41.148438 33.0625 41.011719 33.054688 C 40 32.988281 39.128906 33.6875 39.066406 34.617188 "/>
<path style=" stroke:none;fill-rule:nonzero;fill:rgb(27.843139%,16.862746%,16.078432%);fill-opacity:1;" d="M 39.066406 34.777344 C 39.0625 34.777344 39.058594 34.777344 39.054688 34.777344 C 38.96875 34.769531 38.902344 34.695312 38.90625 34.605469 C 38.972656 33.589844 39.921875 32.808594 41.023438 32.894531 C 41.109375 32.898438 41.199219 32.910156 41.285156 32.929688 C 41.460938 32.308594 42.085938 31.875 42.796875 31.925781 C 43.070312 31.941406 43.324219 32.027344 43.542969 32.167969 C 43.542969 32.15625 43.542969 32.144531 43.546875 32.132812 C 43.621094 30.984375 44.703125 30.117188 45.941406 30.199219 C 46.027344 30.207031 46.09375 30.28125 46.089844 30.371094 C 46.082031 30.457031 46.023438 30.539062 45.917969 30.519531 C 44.851562 30.449219 43.929688 31.183594 43.863281 32.15625 C 43.855469 32.273438 43.859375 32.394531 43.878906 32.507812 C 43.890625 32.578125 43.851562 32.648438 43.789062 32.679688 C 43.722656 32.707031 43.648438 32.691406 43.601562 32.640625 C 43.398438 32.410156 43.097656 32.265625 42.777344 32.246094 C 42.167969 32.214844 41.640625 32.601562 41.566406 33.144531 C 41.558594 33.1875 41.53125 33.230469 41.496094 33.253906 C 41.457031 33.28125 41.40625 33.289062 41.363281 33.277344 C 41.242188 33.242188 41.121094 33.222656 41.003906 33.214844 C 40.078125 33.15625 39.28125 33.789062 39.226562 34.628906 C 39.21875 34.710938 39.148438 34.777344 39.066406 34.777344 Z M 39.066406 34.777344 "/>
<path style=" stroke:none;fill-rule:nonzero;fill:rgb(99.215686%,98.823529%,93.725491%);fill-opacity:1;" d="M 56.535156 31.425781 C 55.449219 30.914062 54.191406 31.277344 53.726562 32.238281 C 53.671875 32.355469 53.628906 32.480469 53.597656 32.605469 "/>
<path style=" stroke:none;fill-rule:nonzero;fill:rgb(27.843139%,16.862746%,16.078432%);fill-opacity:1;" d="M 53.601562 32.765625 C 53.585938 32.765625 53.578125 32.761719 53.5625 32.761719 C 53.476562 32.742188 53.425781 32.65625 53.445312 32.566406 C 53.476562 32.429688 53.523438 32.296875 53.585938 32.167969 C 54.085938 31.128906 55.441406 30.734375 56.605469 31.28125 C 56.683594 31.320312 56.71875 31.414062 56.683594 31.496094 C 56.644531 31.574219 56.546875 31.609375 56.46875 31.570312 C 55.460938 31.097656 54.296875 31.425781 53.871094 32.304688 C 53.820312 32.414062 53.78125 32.523438 53.753906 32.640625 C 53.738281 32.714844 53.671875 32.765625 53.601562 32.765625 Z M 53.601562 32.765625 "/>
<path style=" stroke:none;fill-rule:nonzero;fill:rgb(100%,100%,100%);fill-opacity:1;" d="M 22.160156 49.769531 L 15.742188 49.769531 C 15.566406 49.769531 15.421875 49.625 15.421875 49.449219 C 15.421875 49.269531 15.566406 49.128906 15.742188 49.128906 L 22.160156 49.128906 C 22.335938 49.128906 22.480469 49.269531 22.480469 49.449219 C 22.480469 49.625 22.335938 49.769531 22.160156 49.769531 Z M 24.003906 49.769531 L 23.078125 49.769531 C 22.902344 49.769531 22.757812 49.625 22.757812 49.449219 C 22.757812 49.269531 22.902344 49.128906 23.078125 49.128906 L 24.003906 49.128906 C 24.179688 49.128906 24.324219 49.269531 24.324219 49.449219 C 24.324219 49.625 24.179688 49.769531 24.003906 49.769531 Z M 26.597656 49.769531 L 24.96875 49.769531 C 24.792969 49.769531 24.648438 49.625 24.648438 49.449219 C 24.648438 49.269531 24.792969 49.128906 24.96875 49.128906 L 26.597656 49.128906 C 26.777344 49.128906 26.917969 49.269531 26.917969 49.449219 C 26.917969 49.625 26.777344 49.769531 26.597656 49.769531 Z M 26.597656 50.960938 L 20.445312 50.960938 C 20.269531 50.960938 20.125 50.820312 20.125 50.640625 C 20.125 50.464844 20.269531 50.320312 20.445312 50.320312 L 26.597656 50.320312 C 26.777344 50.320312 26.917969 50.464844 26.917969 50.640625 C 26.917969 50.820312 26.777344 50.960938 26.597656 50.960938 Z M 19.335938 50.960938 L 18.964844 50.960938 C 18.789062 50.960938 18.644531 50.820312 18.644531 50.640625 C 18.644531 50.464844 18.789062 50.320312 18.964844 50.320312 L 19.335938 50.320312 C 19.511719 50.320312 19.65625 50.464844 19.65625 50.640625 C 19.65625 50.820312 19.511719 50.960938 19.335938 50.960938 Z M 17.816406 50.960938 L 16.882812 50.960938 C 16.707031 50.960938 16.5625 50.820312 16.5625 50.640625 C 16.5625 50.464844 16.707031 50.320312 16.882812 50.320312 L 17.816406 50.320312 C 17.992188 50.320312 18.136719 50.464844 18.136719 50.640625 C 18.136719 50.820312 17.992188 50.960938 17.816406 50.960938 Z M 23.660156 48.574219 L 20.445312 48.574219 C 20.269531 48.574219 20.125 48.429688 20.125 48.253906 C 20.125 48.078125 20.269531 47.933594 20.445312 47.933594 L 23.660156 47.933594 C 23.839844 47.933594 23.980469 48.078125 23.980469 48.253906 C 23.980469 48.429688 23.839844 48.574219 23.660156 48.574219 Z M 23.660156 47.382812 L 22.859375 47.382812 C 22.679688 47.382812 22.539062 47.238281 22.539062 47.0625 C 22.539062 46.882812 22.679688 46.742188 22.859375 46.742188 L 23.660156 46.742188 C 23.839844 46.742188 23.980469 46.882812 23.980469 47.0625 C 23.980469 47.238281 23.839844 47.382812 23.660156 47.382812 Z M 21.570312 52.15625 L 20.445312 52.15625 C 20.269531 52.15625 20.125 52.011719 20.125 51.835938 C 20.125 51.660156 20.269531 51.515625 20.445312 51.515625 L 21.570312 51.515625 C 21.746094 51.515625 21.890625 51.660156 21.890625 51.835938 C 21.890625 52.011719 21.746094 52.15625 21.570312 52.15625 Z M 45.019531 17.894531 L 38.601562 17.894531 C 38.425781 17.894531 38.28125 17.75 38.28125 17.574219 C 38.28125 17.398438 38.425781 17.253906 38.601562 17.253906 L 45.019531 17.253906 C 45.199219 17.253906 45.339844 17.398438 45.339844 17.574219 C 45.339844 17.75 45.199219 17.894531 45.019531 17.894531 Z M 46.863281 17.894531 L 45.9375 17.894531 C 45.761719 17.894531 45.621094 17.75 45.621094 17.574219 C 45.621094 17.398438 45.761719 17.253906 45.9375 17.253906 L 46.863281 17.253906 C 47.042969 17.253906 47.183594 17.398438 47.183594 17.574219 C 47.183594 17.75 47.042969 17.894531 46.863281 17.894531 Z M 49.460938 17.894531 L 47.832031 17.894531 C 47.652344 17.894531 47.511719 17.75 47.511719 17.574219 C 47.511719 17.398438 47.652344 17.253906 47.832031 17.253906 L 49.460938 17.253906 C 49.636719 17.253906 49.78125 17.398438 49.78125 17.574219 C 49.78125 17.75 49.636719 17.894531 49.460938 17.894531 Z M 48.164062 15.507812 L 42.007812 15.507812 C 41.832031 15.507812 41.6875 15.363281 41.6875 15.1875 C 41.6875 15.011719 41.832031 14.867188 42.007812 14.867188 L 48.164062 14.867188 C 48.339844 14.867188 48.484375 15.011719 48.484375 15.1875 C 48.484375 15.363281 48.339844 15.507812 48.164062 15.507812 Z M 40.902344 15.507812 L 40.527344 15.507812 C 40.351562 15.507812 40.210938 15.363281 40.210938 15.1875 C 40.210938 15.011719 40.351562 14.867188 40.527344 14.867188 L 40.902344 14.867188 C 41.078125 14.867188 41.21875 15.011719 41.21875 15.1875 C 41.21875 15.363281 41.078125 15.507812 40.902344 15.507812 Z M 39.378906 15.507812 L 38.449219 15.507812 C 38.269531 15.507812 38.128906 15.363281 38.128906 15.1875 C 38.128906 15.011719 38.269531 14.867188 38.449219 14.867188 L 39.378906 14.867188 C 39.554688 14.867188 39.699219 15.011719 39.699219 15.1875 C 39.699219 15.363281 39.554688 15.507812 39.378906 15.507812 Z M 46.523438 16.699219 L 43.304688 16.699219 C 43.128906 16.699219 42.984375 16.558594 42.984375 16.378906 C 42.984375 16.203125 43.128906 16.0625 43.304688 16.0625 L 46.523438 16.0625 C 46.699219 16.0625 46.84375 16.203125 46.84375 16.378906 C 46.84375 16.558594 46.699219 16.699219 46.523438 16.699219 Z M 46.523438 16.699219 "/>
<path style=" stroke:none;fill-rule:nonzero;fill:rgb(100%,100%,100%);fill-opacity:1;" d="M 46.523438 15.507812 L 45.71875 15.507812 C 45.542969 15.507812 45.398438 15.363281 45.398438 15.1875 C 45.398438 15.011719 45.542969 14.867188 45.71875 14.867188 L 46.523438 14.867188 C 46.699219 14.867188 46.84375 15.011719 46.84375 15.1875 C 46.84375 15.363281 46.699219 15.507812 46.523438 15.507812 Z M 42.375 16.699219 L 41.246094 16.699219 C 41.070312 16.699219 40.929688 16.558594 40.929688 16.378906 C 40.929688 16.203125 41.070312 16.0625 41.246094 16.0625 L 42.375 16.0625 C 42.550781 16.0625 42.695312 16.203125 42.695312 16.378906 C 42.695312 16.558594 42.550781 16.699219 42.375 16.699219 Z M 42.375 16.699219 "/>
<path style=" stroke:none;fill-rule:nonzero;fill:rgb(53.333336%,68.235296%,27.058825%);fill-opacity:1;" d="M 43.664062 22.070312 C 44.464844 21.867188 45.285156 22.355469 45.402344 22.820312 L 48.652344 35.65625 C 48.9375 36.792969 48.449219 37.613281 47.648438 37.816406 L 22.082031 44.28125 C 21.613281 44.402344 21.136719 44.285156 20.785156 44.003906 "/>
<path style=" stroke:none;fill-rule:nonzero;fill:rgb(27.843139%,16.862746%,16.078432%);fill-opacity:1;" d="M 21.710938 44.777344 C 21.28125 44.777344 20.859375 44.632812 20.507812 44.359375 C 20.3125 44.207031 20.28125 43.925781 20.433594 43.730469 C 20.585938 43.535156 20.867188 43.503906 21.058594 43.65625 C 21.320312 43.859375 21.652344 43.929688 21.96875 43.847656 L 47.539062 37.382812 C 47.816406 37.3125 48.03125 37.140625 48.15625 36.886719 C 48.304688 36.589844 48.328125 36.203125 48.214844 35.769531 L 44.96875 22.933594 C 44.953125 22.867188 44.835938 22.714844 44.59375 22.597656 C 44.335938 22.472656 44.035156 22.4375 43.773438 22.503906 C 43.539062 22.566406 43.292969 22.421875 43.230469 22.179688 C 43.167969 21.941406 43.316406 21.695312 43.554688 21.636719 C 44.023438 21.515625 44.53125 21.570312 44.984375 21.792969 C 45.429688 22.007812 45.746094 22.351562 45.839844 22.710938 L 49.085938 35.546875 C 49.246094 36.195312 49.203125 36.796875 48.957031 37.289062 C 48.714844 37.777344 48.289062 38.117188 47.757812 38.253906 L 22.191406 44.71875 C 22.03125 44.757812 21.871094 44.777344 21.710938 44.777344 Z M 21.710938 44.777344 "/>
<path style=" stroke:none;fill-rule:nonzero;fill:rgb(75.294119%,81.568629%,47.058824%);fill-opacity:1;" d="M 44.179688 36.800781 L 21.125 42.632812 C 19.644531 43.007812 18.125 42.101562 17.75 40.621094 L 15.15625 30.363281 C 14.78125 28.882812 15.6875 27.363281 17.167969 26.988281 L 40.222656 21.15625 C 41.707031 20.78125 43.226562 21.6875 43.601562 23.167969 L 46.195312 33.425781 C 46.570312 34.90625 45.664062 36.425781 44.179688 36.800781 Z M 44.179688 36.800781 "/>
<path style=" stroke:none;fill-rule:nonzero;fill:rgb(27.843139%,16.862746%,16.078432%);fill-opacity:1;" d="M 20.445312 43.167969 C 19.871094 43.167969 19.304688 43.011719 18.792969 42.707031 C 18.050781 42.265625 17.527344 41.5625 17.316406 40.730469 L 14.722656 30.476562 C 14.285156 28.75 15.332031 26.992188 17.058594 26.554688 L 40.113281 20.722656 C 41.84375 20.289062 43.597656 21.335938 44.035156 23.058594 L 46.628906 33.3125 C 47.066406 35.039062 46.015625 36.796875 44.292969 37.234375 L 21.238281 43.066406 C 20.976562 43.132812 20.710938 43.167969 20.445312 43.167969 Z M 40.90625 21.519531 C 40.71875 21.519531 40.527344 21.542969 40.335938 21.589844 L 17.28125 27.421875 C 16.679688 27.574219 16.171875 27.953125 15.851562 28.492188 C 15.53125 29.027344 15.4375 29.652344 15.589844 30.253906 L 18.183594 40.507812 C 18.335938 41.109375 18.714844 41.617188 19.253906 41.9375 C 19.789062 42.257812 20.414062 42.351562 21.019531 42.199219 L 44.074219 36.367188 C 45.320312 36.050781 46.078125 34.78125 45.761719 33.535156 L 43.167969 23.28125 C 42.898438 22.222656 41.949219 21.519531 40.90625 21.519531 Z M 44.183594 36.800781 L 44.1875 36.800781 Z M 44.183594 36.800781 "/>
<path style=" stroke:none;fill-rule:nonzero;fill:rgb(53.333336%,68.235296%,27.058825%);fill-opacity:1;" d="M 34.4375 25.078125 L 18.660156 29.070312 C 18.910156 30.046875 18.371094 31.027344 17.460938 31.257812 L 19.355469 38.738281 C 20.265625 38.507812 21.203125 39.113281 21.449219 40.09375 L 42.6875 34.71875 C 42.441406 33.742188 42.980469 32.761719 43.886719 32.53125 L 41.996094 25.050781 C 41.085938 25.28125 40.148438 24.675781 39.902344 23.699219 L 37.992188 24.179688 "/>
<path style=" stroke:none;fill-rule:nonzero;fill:rgb(27.843139%,16.862746%,16.078432%);fill-opacity:1;" d="M 21.449219 40.300781 C 21.355469 40.300781 21.273438 40.234375 21.25 40.144531 C 21.03125 39.277344 20.199219 38.734375 19.40625 38.9375 C 19.292969 38.96875 19.179688 38.898438 19.152344 38.789062 L 17.261719 31.308594 C 17.246094 31.253906 17.253906 31.199219 17.28125 31.152344 C 17.3125 31.101562 17.359375 31.070312 17.410156 31.054688 C 18.207031 30.855469 18.679688 29.988281 18.460938 29.121094 C 18.433594 29.011719 18.5 28.898438 18.609375 28.867188 L 34.386719 24.878906 C 34.5 24.851562 34.609375 24.917969 34.640625 25.027344 C 34.667969 25.140625 34.597656 25.253906 34.488281 25.28125 L 18.90625 29.222656 C 19.050781 30.167969 18.550781 31.078125 17.710938 31.394531 L 19.507812 38.496094 C 20.398438 38.386719 21.269531 38.941406 21.59375 39.84375 L 42.445312 34.566406 C 42.375 34.109375 42.453125 33.648438 42.671875 33.246094 C 42.894531 32.84375 43.230469 32.546875 43.640625 32.394531 L 41.84375 25.292969 C 41.410156 25.351562 40.972656 25.25 40.585938 25.003906 C 40.203125 24.753906 39.914062 24.386719 39.757812 23.949219 L 38.042969 24.382812 C 37.929688 24.414062 37.820312 24.34375 37.789062 24.234375 C 37.761719 24.121094 37.832031 24.007812 37.941406 23.980469 L 39.847656 23.496094 C 39.964844 23.46875 40.074219 23.535156 40.101562 23.648438 C 40.320312 24.511719 41.152344 25.054688 41.945312 24.851562 C 42.058594 24.824219 42.167969 24.890625 42.199219 25 L 44.089844 32.480469 C 44.105469 32.535156 44.09375 32.59375 44.066406 32.640625 C 44.039062 32.6875 43.992188 32.722656 43.941406 32.734375 C 43.554688 32.832031 43.234375 33.085938 43.035156 33.445312 C 42.835938 33.8125 42.785156 34.246094 42.890625 34.667969 C 42.902344 34.722656 42.894531 34.78125 42.867188 34.828125 C 42.839844 34.875 42.792969 34.910156 42.738281 34.921875 L 21.5 40.292969 C 21.484375 40.296875 21.46875 40.300781 21.449219 40.300781 Z M 21.449219 40.300781 "/>
<path style=" stroke:none;fill-rule:nonzero;fill:rgb(27.843139%,16.862746%,16.078432%);fill-opacity:1;" d="M 35.148438 25.109375 C 35.054688 25.109375 34.972656 25.042969 34.945312 24.949219 C 34.917969 24.839844 34.984375 24.726562 35.097656 24.699219 L 35.453125 24.605469 C 35.566406 24.582031 35.675781 24.648438 35.707031 24.757812 C 35.734375 24.871094 35.667969 24.984375 35.554688 25.011719 L 35.199219 25.101562 C 35.183594 25.105469 35.164062 25.109375 35.148438 25.109375 Z M 35.148438 25.109375 "/>
<path style=" stroke:none;fill-rule:nonzero;fill:rgb(75.294119%,81.568629%,47.058824%);fill-opacity:1;" d="M 29.820312 28.515625 C 27.953125 28.988281 26.824219 30.882812 27.296875 32.75 C 27.769531 34.613281 29.664062 35.746094 31.527344 35.273438 C 33.394531 34.800781 34.523438 32.90625 34.050781 31.039062 C 33.582031 29.175781 31.6875 28.046875 29.820312 28.515625 Z M 29.820312 28.515625 "/>
<path style=" stroke:none;fill-rule:nonzero;fill:rgb(27.843139%,16.862746%,16.078432%);fill-opacity:1;" d="M 30.675781 35.585938 C 29.027344 35.585938 27.519531 34.472656 27.09375 32.800781 C 26.597656 30.828125 27.796875 28.8125 29.769531 28.316406 C 31.746094 27.820312 33.757812 29.015625 34.253906 30.988281 C 34.753906 32.964844 33.554688 34.976562 31.582031 35.472656 C 31.277344 35.550781 30.976562 35.585938 30.675781 35.585938 Z M 30.679688 28.617188 C 30.410156 28.617188 30.140625 28.652344 29.871094 28.71875 C 28.121094 29.160156 27.054688 30.945312 27.5 32.699219 C 27.714844 33.546875 28.246094 34.261719 28.996094 34.710938 C 29.75 35.15625 30.632812 35.285156 31.476562 35.070312 C 33.230469 34.628906 34.292969 32.84375 33.851562 31.09375 C 33.636719 30.242188 33.105469 29.53125 32.351562 29.082031 C 31.839844 28.773438 31.265625 28.617188 30.679688 28.617188 Z M 30.679688 28.617188 "/>
<path style=" stroke:none;fill-rule:nonzero;fill:rgb(75.294119%,81.568629%,47.058824%);fill-opacity:1;" d="M 23.78125 32.316406 C 23.191406 32.464844 22.835938 33.0625 22.984375 33.652344 C 23.132812 34.238281 23.734375 34.597656 24.320312 34.449219 C 24.910156 34.296875 25.265625 33.699219 25.117188 33.113281 C 24.96875 32.523438 24.371094 32.164062 23.78125 32.316406 Z M 23.78125 32.316406 "/>
<path style=" stroke:none;fill-rule:nonzero;fill:rgb(27.843139%,16.862746%,16.078432%);fill-opacity:1;" d="M 24.050781 34.691406 C 23.816406 34.691406 23.585938 34.625 23.382812 34.503906 C 23.082031 34.324219 22.871094 34.039062 22.785156 33.699219 C 22.699219 33.363281 22.75 33.011719 22.929688 32.710938 C 23.109375 32.410156 23.394531 32.199219 23.734375 32.113281 C 24.070312 32.027344 24.421875 32.078125 24.722656 32.257812 C 25.023438 32.4375 25.234375 32.722656 25.320312 33.058594 C 25.40625 33.398438 25.355469 33.75 25.175781 34.050781 C 24.996094 34.351562 24.710938 34.5625 24.375 34.648438 C 24.265625 34.675781 24.15625 34.691406 24.050781 34.691406 Z M 24.054688 32.488281 C 23.980469 32.488281 23.90625 32.496094 23.832031 32.515625 C 23.601562 32.574219 23.40625 32.71875 23.285156 32.921875 C 23.164062 33.128906 23.128906 33.367188 23.1875 33.597656 C 23.246094 33.832031 23.390625 34.027344 23.597656 34.148438 C 23.800781 34.269531 24.039062 34.304688 24.269531 34.246094 C 24.503906 34.1875 24.699219 34.042969 24.820312 33.835938 C 24.941406 33.632812 24.976562 33.394531 24.917969 33.160156 C 24.859375 32.929688 24.714844 32.734375 24.507812 32.613281 C 24.371094 32.53125 24.214844 32.488281 24.054688 32.488281 Z M 24.054688 32.488281 "/>
<path style=" stroke:none;fill-rule:nonzero;fill:rgb(75.294119%,81.568629%,47.058824%);fill-opacity:1;" d="M 36.9375 28.988281 C 36.347656 29.136719 35.992188 29.734375 36.140625 30.324219 C 36.289062 30.914062 36.890625 31.269531 37.476562 31.121094 C 38.066406 30.972656 38.421875 30.375 38.273438 29.785156 C 38.125 29.195312 37.527344 28.839844 36.9375 28.988281 Z M 36.9375 28.988281 "/>
<path style=" stroke:none;fill-rule:nonzero;fill:rgb(27.843139%,16.862746%,16.078432%);fill-opacity:1;" d="M 37.210938 31.359375 C 36.625 31.359375 36.089844 30.964844 35.941406 30.375 C 35.765625 29.675781 36.1875 28.960938 36.886719 28.785156 C 37.585938 28.609375 38.300781 29.035156 38.476562 29.734375 C 38.652344 30.429688 38.226562 31.144531 37.53125 31.320312 C 37.421875 31.347656 37.316406 31.359375 37.210938 31.359375 Z M 37.207031 29.160156 C 37.136719 29.160156 37.0625 29.167969 36.988281 29.1875 C 36.511719 29.308594 36.222656 29.792969 36.34375 30.273438 C 36.464844 30.75 36.953125 31.039062 37.425781 30.917969 C 37.902344 30.796875 38.191406 30.3125 38.074219 29.835938 C 37.972656 29.429688 37.605469 29.160156 37.207031 29.160156 Z M 37.207031 29.160156 "/>
<path style=" stroke:none;fill-rule:nonzero;fill:rgb(99.215686%,98.823529%,93.725491%);fill-opacity:1;" d="M 22.96875 45.277344 C 24.171875 45.277344 25.21875 45.277344 25.234375 45.277344 C 26.582031 45.277344 27.679688 44.207031 27.679688 42.886719 C 27.679688 41.734375 26.84375 40.769531 25.734375 40.542969 C 25.75 40.441406 25.757812 40.339844 25.757812 40.234375 C 25.757812 38.867188 24.625 37.757812 23.226562 37.757812 C 22.398438 37.757812 21.667969 38.144531 21.207031 38.746094 C 21.089844 37.222656 19.699219 36.046875 18.070312 36.242188 C 16.878906 36.382812 15.894531 37.28125 15.675781 38.4375 C 15.605469 38.804688 15.613281 39.164062 15.683594 39.503906 C 15.367188 39.167969 14.910156 38.953125 14.40625 38.953125 C 13.480469 38.953125 12.722656 39.660156 12.664062 40.550781 C 12.246094 40.460938 11.789062 40.464844 11.304688 40.640625 C 10.386719 40.980469 9.730469 41.828125 9.691406 42.789062 C 9.636719 44.15625 10.753906 45.277344 12.136719 45.277344 C 12.242188 45.277344 12.609375 45.277344 12.695312 45.277344 L 17.773438 45.277344 M 18.824219 45.277344 L 19.054688 45.277344 "/>
<path style=" stroke:none;fill-rule:nonzero;fill:rgb(27.843139%,16.862746%,16.078432%);fill-opacity:1;" d="M 25.234375 45.597656 L 22.96875 45.597656 C 22.792969 45.597656 22.648438 45.457031 22.648438 45.277344 C 22.648438 45.101562 22.792969 44.957031 22.96875 44.957031 L 25.234375 44.957031 C 26.40625 44.957031 27.359375 44.027344 27.359375 42.886719 C 27.359375 41.910156 26.648438 41.058594 25.671875 40.859375 C 25.507812 40.824219 25.398438 40.671875 25.417969 40.503906 C 25.429688 40.414062 25.4375 40.328125 25.4375 40.234375 C 25.4375 39.046875 24.445312 38.078125 23.222656 38.078125 C 22.523438 38.078125 21.882812 38.390625 21.457031 38.941406 C 21.375 39.046875 21.238281 39.089844 21.113281 39.050781 C 20.984375 39.015625 20.894531 38.902344 20.886719 38.769531 C 20.835938 38.117188 20.523438 37.527344 20.007812 37.105469 C 19.480469 36.667969 18.804688 36.476562 18.105469 36.558594 C 17.054688 36.683594 16.183594 37.480469 15.988281 38.496094 C 15.929688 38.8125 15.929688 39.128906 15.996094 39.4375 C 16.023438 39.578125 15.957031 39.71875 15.832031 39.785156 C 15.703125 39.851562 15.550781 39.824219 15.449219 39.722656 C 15.175781 39.433594 14.804688 39.273438 14.402344 39.273438 C 13.65625 39.273438 13.03125 39.84375 12.980469 40.570312 C 12.976562 40.664062 12.929688 40.75 12.855469 40.804688 C 12.78125 40.863281 12.6875 40.882812 12.59375 40.863281 C 12.1875 40.773438 11.800781 40.800781 11.414062 40.941406 C 10.605469 41.238281 10.042969 41.988281 10.007812 42.800781 C 9.988281 43.363281 10.191406 43.894531 10.582031 44.300781 C 10.988281 44.726562 11.539062 44.957031 12.132812 44.957031 L 17.769531 44.957031 C 17.945312 44.957031 18.089844 45.101562 18.089844 45.277344 C 18.089844 45.453125 17.945312 45.597656 17.769531 45.597656 L 12.132812 45.597656 C 11.375 45.597656 10.640625 45.289062 10.121094 44.746094 C 9.609375 44.210938 9.339844 43.511719 9.371094 42.777344 C 9.414062 41.703125 10.148438 40.726562 11.195312 40.339844 C 11.585938 40.199219 11.988281 40.144531 12.398438 40.183594 C 12.617188 39.292969 13.441406 38.632812 14.40625 38.632812 C 14.722656 38.632812 15.03125 38.703125 15.308594 38.835938 C 15.316406 38.683594 15.332031 38.53125 15.363281 38.375 C 15.605469 37.089844 16.703125 36.078125 18.03125 35.921875 C 18.90625 35.8125 19.75 36.0625 20.414062 36.605469 C 20.894531 37 21.234375 37.507812 21.40625 38.082031 C 21.910156 37.664062 22.546875 37.4375 23.226562 37.4375 C 24.796875 37.4375 26.078125 38.691406 26.078125 40.234375 C 26.078125 40.257812 26.078125 40.277344 26.074219 40.300781 C 27.207031 40.65625 28 41.699219 28 42.882812 C 28 44.382812 26.757812 45.597656 25.234375 45.597656 Z M 19.050781 45.597656 L 18.824219 45.597656 C 18.644531 45.597656 18.503906 45.457031 18.503906 45.277344 C 18.503906 45.101562 18.644531 44.957031 18.824219 44.957031 L 19.050781 44.957031 C 19.230469 44.957031 19.371094 45.101562 19.371094 45.277344 C 19.371094 45.457031 19.230469 45.597656 19.050781 45.597656 Z M 19.050781 45.597656 "/>
<path style=" stroke:none;fill-rule:nonzero;fill:rgb(27.843139%,16.862746%,16.078432%);fill-opacity:1;" d="M 24.140625 41.886719 C 24.128906 41.886719 24.117188 41.882812 24.105469 41.882812 C 24.019531 41.863281 23.964844 41.777344 23.984375 41.691406 C 24.007812 41.582031 24.042969 41.480469 24.09375 41.382812 C 24.480469 40.601562 25.546875 40.3125 26.476562 40.738281 C 26.554688 40.777344 26.589844 40.871094 26.554688 40.949219 C 26.515625 41.03125 26.417969 41.066406 26.339844 41.027344 C 25.570312 40.671875 24.691406 40.894531 24.378906 41.523438 C 24.34375 41.597656 24.316406 41.679688 24.296875 41.757812 C 24.28125 41.835938 24.214844 41.886719 24.140625 41.886719 Z M 20.839844 45.597656 L 20.128906 45.597656 C 19.953125 45.597656 19.8125 45.457031 19.8125 45.277344 C 19.8125 45.101562 19.953125 44.957031 20.128906 44.957031 L 20.839844 44.957031 C 21.015625 44.957031 21.160156 45.101562 21.160156 45.277344 C 21.160156 45.457031 21.015625 45.597656 20.839844 45.597656 Z M 20.839844 45.597656 "/>
<path style=" stroke:none;fill-rule:nonzero;fill:rgb(98.431373%,80.392158%,34.901962%);fill-opacity:1;" d="M 45.929688 31.503906 C 43.722656 31.503906 41.933594 33.292969 41.933594 35.5 C 41.933594 37.707031 43.722656 39.496094 45.929688 39.496094 C 48.136719 39.496094 49.925781 37.707031 49.925781 35.5 C 49.925781 33.292969 48.136719 31.503906 45.929688 31.503906 Z M 45.929688 31.503906 "/>
<path style=" stroke:none;fill-rule:nonzero;fill:rgb(27.843139%,16.862746%,16.078432%);fill-opacity:1;" d="M 45.929688 39.8125 C 43.550781 39.8125 41.613281 37.878906 41.613281 35.5 C 41.613281 33.121094 43.550781 31.183594 45.929688 31.183594 C 48.308594 31.183594 50.246094 33.121094 50.246094 35.5 C 50.246094 37.878906 48.308594 39.8125 45.929688 39.8125 Z M 45.929688 31.824219 C 43.902344 31.824219 42.253906 33.472656 42.253906 35.5 C 42.253906 37.523438 43.902344 39.171875 45.929688 39.171875 C 47.957031 39.171875 49.605469 37.523438 49.605469 35.5 C 49.605469 33.472656 47.957031 31.824219 45.929688 31.824219 Z M 45.929688 31.824219 "/>
<path style=" stroke:none;fill-rule:nonzero;fill:rgb(94.509804%,73.725492%,9.803922%);fill-opacity:1;" d="M 45.929688 32.886719 C 44.488281 32.886719 43.316406 34.054688 43.316406 35.5 C 43.316406 36.941406 44.488281 38.113281 45.929688 38.113281 C 47.371094 38.113281 48.542969 36.941406 48.542969 35.5 C 48.542969 34.054688 47.371094 32.886719 45.929688 32.886719 Z M 45.929688 32.886719 "/>
<path style=" stroke:none;fill-rule:nonzero;fill:rgb(27.843139%,16.862746%,16.078432%);fill-opacity:1;" d="M 45.929688 38.269531 C 44.402344 38.269531 43.15625 37.027344 43.15625 35.5 C 43.15625 33.96875 44.402344 32.726562 45.929688 32.726562 C 47.457031 32.726562 48.703125 33.96875 48.703125 35.5 C 48.703125 37.027344 47.457031 38.269531 45.929688 38.269531 Z M 45.929688 33.046875 C 44.578125 33.046875 43.476562 34.148438 43.476562 35.5 C 43.476562 36.851562 44.578125 37.949219 45.929688 37.949219 C 47.28125 37.949219 48.382812 36.851562 48.382812 35.5 C 48.382812 34.148438 47.28125 33.046875 45.929688 33.046875 Z M 45.929688 33.046875 "/>
<path style=" stroke:none;fill-rule:nonzero;fill:rgb(98.431373%,80.392158%,34.901962%);fill-opacity:1;" d="M 39.503906 36.097656 C 37.296875 36.097656 35.507812 37.886719 35.507812 40.089844 C 35.507812 42.296875 37.296875 44.085938 39.503906 44.085938 C 41.710938 44.085938 43.5 42.296875 43.5 40.089844 C 43.5 37.886719 41.710938 36.097656 39.503906 36.097656 Z M 39.503906 36.097656 "/>
<path style=" stroke:none;fill-rule:nonzero;fill:rgb(27.843139%,16.862746%,16.078432%);fill-opacity:1;" d="M 39.503906 44.40625 C 37.125 44.40625 35.1875 42.472656 35.1875 40.089844 C 35.1875 37.710938 37.125 35.777344 39.503906 35.777344 C 41.882812 35.777344 43.816406 37.710938 43.816406 40.089844 C 43.816406 42.472656 41.882812 44.40625 39.503906 44.40625 Z M 39.503906 36.417969 C 37.476562 36.417969 35.828125 38.066406 35.828125 40.089844 C 35.828125 42.117188 37.476562 43.765625 39.503906 43.765625 C 41.53125 43.765625 43.179688 42.117188 43.179688 40.089844 C 43.179688 38.066406 41.53125 36.417969 39.503906 36.417969 Z M 39.503906 36.417969 "/>
<path style=" stroke:none;fill-rule:nonzero;fill:rgb(94.509804%,73.725492%,9.803922%);fill-opacity:1;" d="M 39.503906 37.480469 C 38.058594 37.480469 36.890625 38.648438 36.890625 40.09375 C 36.890625 41.535156 38.058594 42.703125 39.503906 42.703125 C 40.945312 42.703125 42.113281 41.535156 42.113281 40.09375 C 42.113281 38.648438 40.945312 37.480469 39.503906 37.480469 Z M 39.503906 37.480469 "/>
<path style=" stroke:none;fill-rule:nonzero;fill:rgb(27.843139%,16.862746%,16.078432%);fill-opacity:1;" d="M 39.503906 42.863281 C 37.972656 42.863281 36.730469 41.621094 36.730469 40.089844 C 36.730469 38.5625 37.972656 37.320312 39.503906 37.320312 C 41.03125 37.320312 42.273438 38.5625 42.273438 40.089844 C 42.273438 41.621094 41.03125 42.863281 39.503906 42.863281 Z M 39.503906 37.640625 C 38.152344 37.640625 37.050781 38.738281 37.050781 40.089844 C 37.050781 41.445312 38.152344 42.542969 39.503906 42.542969 C 40.855469 42.542969 41.957031 41.445312 41.957031 40.089844 C 41.957031 38.738281 40.855469 37.640625 39.503906 37.640625 Z M 39.503906 37.640625 "/>
<path style=" stroke:none;fill-rule:nonzero;fill:rgb(27.843139%,16.862746%,16.078432%);fill-opacity:1;" d="M 39.164062 40.789062 C 39.167969 40.789062 39.171875 40.792969 39.183594 40.800781 L 39.179688 40.796875 C 39.230469 40.832031 39.277344 40.863281 39.320312 40.882812 C 39.359375 40.902344 39.40625 40.917969 39.453125 40.925781 L 39.453125 40.085938 L 39.402344 40.058594 C 39.34375 40.027344 39.285156 39.992188 39.234375 39.957031 C 39.179688 39.921875 39.128906 39.882812 39.085938 39.835938 C 39.042969 39.792969 39.007812 39.75 38.976562 39.699219 C 38.949219 39.652344 38.925781 39.597656 38.917969 39.539062 C 38.910156 39.511719 38.90625 39.484375 38.90625 39.460938 C 38.902344 39.433594 38.902344 39.40625 38.902344 39.378906 C 38.902344 39.292969 38.917969 39.21875 38.945312 39.15625 C 38.972656 39.09375 39.011719 39.039062 39.058594 38.996094 C 39.109375 38.953125 39.167969 38.917969 39.234375 38.890625 C 39.300781 38.863281 39.371094 38.847656 39.453125 38.835938 L 39.453125 38.761719 C 39.453125 38.726562 39.460938 38.695312 39.476562 38.671875 C 39.492188 38.644531 39.523438 38.632812 39.566406 38.632812 L 39.574219 38.632812 C 39.667969 38.632812 39.722656 38.679688 39.730469 38.769531 L 39.726562 38.84375 C 39.777344 38.851562 39.828125 38.867188 39.882812 38.886719 C 39.9375 38.90625 39.996094 38.929688 40.0625 38.957031 L 40.054688 38.953125 C 40.085938 38.960938 40.109375 38.976562 40.125 38.992188 C 40.144531 39.007812 40.152344 39.035156 40.15625 39.070312 L 40.15625 39.085938 C 40.15625 39.097656 40.15625 39.113281 40.148438 39.132812 C 40.140625 39.15625 40.132812 39.171875 40.121094 39.191406 C 40.109375 39.210938 40.09375 39.226562 40.078125 39.238281 C 40.0625 39.253906 40.042969 39.257812 40.023438 39.257812 C 40.007812 39.257812 39.992188 39.257812 39.976562 39.253906 C 39.964844 39.253906 39.949219 39.246094 39.929688 39.230469 L 39.929688 39.234375 L 39.902344 39.21875 C 39.847656 39.191406 39.789062 39.167969 39.726562 39.152344 L 39.726562 39.890625 L 39.738281 39.898438 C 39.886719 39.972656 39.996094 40.054688 40.078125 40.144531 C 40.15625 40.234375 40.207031 40.328125 40.234375 40.425781 C 40.246094 40.46875 40.253906 40.503906 40.257812 40.539062 C 40.261719 40.574219 40.265625 40.609375 40.265625 40.644531 C 40.265625 40.726562 40.25 40.804688 40.222656 40.871094 C 40.195312 40.9375 40.160156 40.996094 40.113281 41.042969 C 40.066406 41.09375 40.007812 41.132812 39.941406 41.167969 C 39.878906 41.199219 39.804688 41.21875 39.726562 41.230469 L 39.726562 41.425781 C 39.726562 41.460938 39.722656 41.492188 39.707031 41.515625 C 39.691406 41.542969 39.660156 41.554688 39.617188 41.554688 L 39.601562 41.554688 C 39.554688 41.554688 39.519531 41.542969 39.492188 41.515625 C 39.464844 41.492188 39.453125 41.457031 39.453125 41.410156 L 39.453125 41.230469 C 39.355469 41.21875 39.269531 41.195312 39.199219 41.164062 C 39.128906 41.132812 39.058594 41.09375 38.984375 41.042969 C 38.964844 41.027344 38.949219 41.011719 38.945312 40.996094 C 38.9375 40.984375 38.929688 40.964844 38.917969 40.9375 L 38.917969 40.921875 C 38.917969 40.90625 38.925781 40.886719 38.933594 40.867188 C 38.945312 40.84375 38.957031 40.824219 38.96875 40.808594 C 38.984375 40.789062 39 40.773438 39.015625 40.757812 C 39.03125 40.746094 39.046875 40.738281 39.0625 40.738281 C 39.082031 40.738281 39.097656 40.742188 39.117188 40.753906 C 39.132812 40.765625 39.144531 40.78125 39.160156 40.792969 L 39.164062 40.792969 C 39.167969 40.792969 39.167969 40.792969 39.167969 40.792969 Z M 39.300781 39.640625 C 39.34375 39.679688 39.394531 39.714844 39.453125 39.746094 L 39.453125 39.152344 C 39.382812 39.167969 39.324219 39.195312 39.28125 39.238281 C 39.234375 39.277344 39.210938 39.335938 39.210938 39.40625 C 39.210938 39.414062 39.210938 39.425781 39.210938 39.441406 C 39.210938 39.453125 39.214844 39.46875 39.21875 39.484375 C 39.230469 39.546875 39.257812 39.601562 39.300781 39.640625 Z M 39.855469 40.351562 C 39.820312 40.308594 39.777344 40.269531 39.726562 40.238281 L 39.726562 40.910156 C 39.789062 40.886719 39.84375 40.847656 39.886719 40.792969 C 39.925781 40.742188 39.949219 40.679688 39.949219 40.609375 C 39.949219 40.589844 39.945312 40.574219 39.945312 40.558594 C 39.941406 40.539062 39.9375 40.523438 39.933594 40.503906 C 39.917969 40.449219 39.894531 40.398438 39.855469 40.351562 Z M 45.507812 36.195312 C 45.511719 36.195312 45.519531 36.199219 45.53125 36.207031 L 45.523438 36.207031 C 45.578125 36.242188 45.625 36.269531 45.664062 36.289062 C 45.707031 36.3125 45.75 36.324219 45.796875 36.335938 L 45.796875 35.492188 L 45.75 35.46875 C 45.691406 35.433594 45.632812 35.398438 45.578125 35.363281 C 45.523438 35.328125 45.476562 35.289062 45.433594 35.246094 C 45.390625 35.203125 45.355469 35.15625 45.324219 35.105469 C 45.292969 35.058594 45.273438 35.003906 45.261719 34.949219 C 45.257812 34.917969 45.25 34.890625 45.25 34.867188 C 45.25 34.839844 45.25 34.8125 45.25 34.785156 C 45.25 34.699219 45.265625 34.625 45.292969 34.5625 C 45.320312 34.5 45.359375 34.445312 45.40625 34.402344 C 45.457031 34.359375 45.511719 34.324219 45.578125 34.296875 C 45.644531 34.269531 45.71875 34.253906 45.796875 34.246094 L 45.796875 34.167969 C 45.796875 34.132812 45.808594 34.101562 45.824219 34.078125 C 45.839844 34.050781 45.867188 34.039062 45.910156 34.039062 L 45.921875 34.039062 C 46.015625 34.039062 46.066406 34.085938 46.078125 34.175781 L 46.074219 34.25 C 46.125 34.257812 46.175781 34.273438 46.230469 34.292969 C 46.28125 34.3125 46.34375 34.335938 46.410156 34.363281 L 46.402344 34.359375 C 46.433594 34.371094 46.457031 34.382812 46.472656 34.398438 C 46.492188 34.414062 46.5 34.441406 46.503906 34.476562 L 46.503906 34.492188 C 46.503906 34.507812 46.5 34.523438 46.496094 34.542969 C 46.488281 34.5625 46.480469 34.582031 46.46875 34.597656 C 46.453125 34.617188 46.441406 34.632812 46.421875 34.644531 C 46.40625 34.660156 46.390625 34.667969 46.371094 34.667969 C 46.351562 34.667969 46.339844 34.664062 46.324219 34.664062 C 46.3125 34.660156 46.296875 34.652344 46.277344 34.640625 L 46.246094 34.625 C 46.195312 34.597656 46.136719 34.578125 46.074219 34.5625 L 46.074219 35.300781 L 46.085938 35.304688 C 46.230469 35.378906 46.34375 35.460938 46.421875 35.550781 C 46.503906 35.640625 46.554688 35.734375 46.582031 35.832031 C 46.589844 35.875 46.597656 35.914062 46.605469 35.945312 C 46.609375 35.980469 46.609375 36.015625 46.609375 36.050781 C 46.609375 36.136719 46.597656 36.210938 46.570312 36.277344 C 46.542969 36.34375 46.503906 36.402344 46.457031 36.453125 C 46.414062 36.5 46.355469 36.542969 46.289062 36.574219 C 46.222656 36.605469 46.152344 36.625 46.074219 36.636719 L 46.074219 36.832031 C 46.074219 36.867188 46.066406 36.898438 46.054688 36.921875 C 46.039062 36.949219 46.007812 36.960938 45.964844 36.960938 L 45.949219 36.960938 C 45.902344 36.960938 45.867188 36.949219 45.839844 36.925781 C 45.8125 36.902344 45.800781 36.863281 45.800781 36.816406 L 45.800781 36.636719 C 45.703125 36.625 45.617188 36.605469 45.546875 36.570312 C 45.476562 36.539062 45.40625 36.5 45.332031 36.449219 C 45.3125 36.433594 45.296875 36.417969 45.289062 36.40625 C 45.28125 36.390625 45.273438 36.371094 45.265625 36.34375 L 45.265625 36.328125 C 45.265625 36.308594 45.269531 36.292969 45.28125 36.269531 C 45.289062 36.25 45.300781 36.230469 45.316406 36.210938 C 45.332031 36.191406 45.347656 36.175781 45.363281 36.164062 C 45.378906 36.148438 45.394531 36.144531 45.410156 36.144531 C 45.429688 36.144531 45.445312 36.148438 45.460938 36.160156 C 45.476562 36.171875 45.492188 36.183594 45.507812 36.195312 C 45.511719 36.199219 45.515625 36.199219 45.515625 36.199219 Z M 45.648438 35.046875 C 45.691406 35.085938 45.738281 35.121094 45.796875 35.152344 L 45.796875 34.558594 C 45.730469 34.574219 45.671875 34.601562 45.625 34.644531 C 45.582031 34.683594 45.558594 34.742188 45.558594 34.8125 C 45.558594 34.824219 45.558594 34.832031 45.558594 34.847656 C 45.558594 34.859375 45.5625 34.875 45.566406 34.894531 C 45.578125 34.957031 45.605469 35.007812 45.648438 35.046875 Z M 46.203125 35.761719 C 46.167969 35.714844 46.125 35.675781 46.074219 35.644531 L 46.074219 36.320312 C 46.136719 36.292969 46.191406 36.253906 46.230469 36.203125 C 46.273438 36.148438 46.296875 36.089844 46.296875 36.019531 C 46.296875 36 46.292969 35.980469 46.289062 35.964844 C 46.285156 35.949219 46.285156 35.929688 46.28125 35.914062 C 46.265625 35.855469 46.238281 35.804688 46.203125 35.761719 Z M 46.203125 35.761719 "/>
<path style=" stroke:none;fill-rule:nonzero;fill:rgb(99.215686%,98.823529%,93.725491%);fill-opacity:1;" d="M 59.960938 50.359375 C 59.960938 55.660156 55.660156 59.960938 50.359375 59.960938 C 45.058594 59.960938 40.757812 55.660156 40.757812 50.359375 C 40.757812 45.058594 45.058594 40.757812 50.359375 40.757812 C 55.660156 40.757812 59.960938 45.058594 59.960938 50.359375 Z M 59.960938 50.359375 "/>
<path style=" stroke:none;fill-rule:nonzero;fill:rgb(27.843139%,16.862746%,16.078432%);fill-opacity:1;" d="M 50.359375 41.335938 C 55.335938 41.335938 59.382812 45.382812 59.382812 50.359375 C 59.382812 55.335938 55.335938 59.382812 50.359375 59.382812 C 45.382812 59.382812 41.335938 55.335938 41.335938 50.359375 C 41.335938 45.382812 45.382812 41.335938 50.359375 41.335938 M 50.359375 40.4375 C 44.878906 40.4375 40.4375 44.878906 40.4375 50.359375 C 40.4375 55.835938 44.878906 60.277344 50.359375 60.277344 C 55.835938 60.277344 60.277344 55.835938 60.277344 50.359375 C 60.277344 44.878906 55.835938 40.4375 50.359375 40.4375 Z M 50.359375 40.4375 "/>
<path style="fill-rule:nonzero;fill:rgb(25.882354%,71.764708%,72.941178%);fill-opacity:1;stroke-width:0.5;stroke-linecap:round;stroke-linejoin:round;stroke:rgb(27.843139%,16.862746%,16.078432%);stroke-opacity:1;stroke-miterlimit:10;" d="M 90.936278 78.686522 C 90.936278 85.449217 85.449217 90.936278 78.686522 90.936278 C 71.917723 90.936278 66.436766 85.449217 66.436766 78.686522 C 66.436766 71.917723 71.917723 66.436766 78.686522 66.436766 C 85.449217 66.436766 90.936278 71.917723 90.936278 78.686522 Z M 90.936278 78.686522 " transform="matrix(0.64,0,0,0.64,0,0)"/>
<path style=" stroke:none;fill-rule:nonzero;fill:rgb(36.862746%,76.47059%,78.823531%);fill-opacity:1;" d="M 50.359375 42.519531 C 46.035156 42.519531 42.519531 46.035156 42.519531 50.359375 C 42.519531 50.457031 42.53125 50.550781 42.535156 50.648438 C 43.285156 47.015625 46.5 44.277344 50.359375 44.277344 C 54.21875 44.277344 57.433594 47.015625 58.183594 50.652344 C 58.1875 50.554688 58.199219 50.457031 58.199219 50.359375 C 58.199219 46.035156 54.679688 42.519531 50.359375 42.519531 Z M 50.359375 42.519531 "/>
<path style=" stroke:none;fill-rule:nonzero;fill:rgb(27.843139%,16.862746%,16.078432%);fill-opacity:1;" d="M 50.359375 42.679688 C 54.59375 42.679688 58.039062 46.125 58.039062 50.359375 C 58.039062 54.59375 54.59375 58.039062 50.359375 58.039062 C 46.125 58.039062 42.679688 54.59375 42.679688 50.359375 C 42.679688 46.125 46.125 42.679688 50.359375 42.679688 M 50.359375 42.359375 C 45.949219 42.359375 42.359375 45.949219 42.359375 50.359375 C 42.359375 54.769531 45.949219 58.359375 50.359375 58.359375 C 54.769531 58.359375 58.359375 54.769531 58.359375 50.359375 C 58.359375 45.949219 54.769531 42.359375 50.359375 42.359375 Z M 50.359375 42.359375 "/>
<path style=" stroke:none;fill-rule:nonzero;fill:rgb(27.843139%,16.862746%,16.078432%);fill-opacity:1;" d="M 54.199219 50.039062 L 47.292969 50.039062 L 49.304688 48.023438 C 49.429688 47.898438 49.429688 47.699219 49.304688 47.574219 C 49.179688 47.449219 48.976562 47.449219 48.851562 47.574219 L 46.292969 50.132812 C 46.167969 50.257812 46.167969 50.460938 46.292969 50.585938 L 48.851562 53.144531 C 48.914062 53.207031 48.996094 53.238281 49.078125 53.238281 C 49.160156 53.238281 49.242188 53.207031 49.304688 53.144531 C 49.429688 53.019531 49.429688 52.816406 49.304688 52.691406 L 47.292969 50.679688 L 54.199219 50.679688 C 54.375 50.679688 54.519531 50.535156 54.519531 50.359375 C 54.519531 50.183594 54.375 50.039062 54.199219 50.039062 Z M 54.199219 50.039062 "/>
</g>
</svg>
