<svg xmlns="http://www.w3.org/2000/svg"  viewBox="0 0 512 512" width="64px" height="64px"><path fill="#71C598" d="M183.3 145.1c-11.8-.1-21.9 3.2-31.4 10.2-7.1 5.2-13.6 11.2-20.7 16.4-.4 2.1-2 3.8-4.8 3.8h-2c-5.2 0-8.4-6.9-3.5-10 10.7-7 19.5-16.5 30.5-23.1 10.4-6.2 22.1-8.8 34.2-8.1 2.6.2 5.2.4 7.9.9-1.3-1.4-2.9-2.5-4.2-3.7-2.5-2.1-4.9-4.4-7.6-6.3-6.3-4.3-14.1-7.7-21.9-7.5-13.6.4-24.6 7.6-32.7 18.2-12.8 16.9-20 38.3-36.4 51.9 21.7 12.9 53.1 18.3 73.8 2.2 8.6-6.7 16.4-14.9 22.9-23.7 3.4-4.6 9.2-12.4 10.1-19.5C192.7 145.7 187.8 145.1 183.3 145.1zM330.5 99.2c-12.8 1.7-26.2 5.8-34.8 16-6.1 7.3-9.4 16.2-6.9 24.9.8-.3 1.8-.5 2.7-.4 1.6-1.4 3.2-2.7 4.8-4 11.2-8.9 24-15 37.9-18.4 5.1-1.2 10.1-2.6 15.2-3.5 4.2-.8 8.4-1.5 12.1 1.1 5.8 4-1.5 12.2-7.3 8.3 2.7 1.8.1.9-1.9 1.3-2.1.4-4.2.8-6.3 1.3-3.9.9-7.9 1.8-11.9 2.9-12.1 3.4-23.4 9.1-33 17.3-1.4 1.2-2.7 2.3-4.1 3.5 5.3 21.7 37.7 17.2 53.5 8.3 23.8-13.4 38.4-37.6 49.5-62C377.4 100.8 353.8 96.1 330.5 99.2zM286.6 62.9c-5.1-3-11.6 5-12.1 9.7-.5 6.1 7.6 2.5 9.8.8 3.4-2.6 5.8-6 5.6-9.8C288.9 63.8 287.8 63.6 286.6 62.9z"/><path fill="#C56528" d="M171.7,364.2c-7.5-4.7-15.3-8.8-22.5-13.9c-6.2-4.4-12.3-10-14.9-17.3c-1.5-4.4-1.8-9.5-0.6-14.3c-6.2,4.4-11.1,9.9-13.2,17.2c-0.8,2.8-3.2,4.1-5.6,4.1c1,0.9,2.1,1.7,3.1,2.6c9.7,7.7,20.8,13.6,32.5,17.9c6.6,2.4,12.8,4.3,19.8,5.3c1.8,0.3,3.7,0.5,5.5,0.8C174.4,365.9,173,365.1,171.7,364.2z"/><path fill="#FCBF95" d="M211.9,352c-8.4-3.3-18.2-5-25.9-9.7c-5.3-3.2-9.9-7.8-14.7-11.8c-5.4-4.5-11-9.3-17.3-12.5c-2.3-1.2-4.4-1.9-6.8-1.9c0.3,0-1.1,0.5-0.6,0.2c-0.9,0.6-1.3,1.3-1.8,2.5c-5.7,13.7,9.2,22.5,19,28.5c12,7.3,27.1,14,34,27.1c2.9,5.5-4.7,9.8-8.4,6.1c-0.3,0-0.6-0.1-0.9-0.2c-6.7-2.1-13.7-2.9-20.6-3.9c-7.3-1.1-13.9-3.2-20.8-5.7c-11.6-4.1-22.6-10.1-32.5-17.3c-8-5.8-16.4-13-21-21.8c-3.5-6.7-6-13.9-9.6-20.6c-1.3-2.4-2.8-5.2-5-7.1c-1.8-1.6-2.4-1.7-4.3-0.2c-8.3,6.4-6.5,16.3-3.1,25c3.4,8.6,8.9,15.9,13.8,23.5c4.7,7.3,11,14.2,17.6,19.9c4.2,3.6,11,9.7,17,8c6.6-1.9,8.5,8.5,2,10.4c-8,2.3-16.2-2.8-22.3-7.4c-7.6-5.8-14.2-13.1-19.9-20.6c-10.5-13.9-23.7-32.2-21.6-50.5c0.2-1.4,0.5-2.9,1-4.3c-2.9-0.2-6.1,0.5-8.5,1.4c-5,1.8-7,6-7.3,11.1c-0.6,10.5,6.6,22,12.3,30.2c14.7,21,36.9,35.4,58.1,49.2c5.7,3.7-0.2,12.5-5.9,8.8c-22.7-14.7-45.5-30.3-61.1-52.5c1.4,3.3,3.3,6.5,4.3,8.6c4,7.5,8.8,14.5,14.3,21c12.5,14.6,28.8,25,46.6,31.8c8.2,3.1,17,6,25.7,6.7c7.8,0.7,15.4,1.2,20.8,7.6c5.1,6,2.8,15.9,2.2,22.9c-0.6,7.2,0.2,17.9,4.4,23.9c0.2,0.2,0.3,0.5,0.4,0.7c0.9-0.6,1.9-1,3.2-1h73.5c-0.1-5-0.3-10-0.2-15.1c0.1-7.6,1.4-15,2.8-22.4c2.4-12.7,7.7-24.7,9.1-37.6C256.7,377.3,232.9,360.3,211.9,352z"/><path fill="none" d="M46.8 355.9c1.4 3.3 3.3 6.5 4.3 8.6 4 7.5 8.8 14.5 14.3 21 4.4 5.1 9.3 9.8 14.5 13.9v-10.2C67.5 379.5 55.9 368.8 46.8 355.9zM286.6 62.9c-5.1-3-11.6 5-12.1 9.7-.5 6.1 7.6 2.5 9.8.8 3.4-2.6 5.8-6 5.6-9.8C288.9 63.8 287.8 63.6 286.6 62.9zM79 304c-1.8-1.6-2.4-1.7-4.3-.2-8.3 6.4-6.5 16.3-3.1 25 2.2 5.5 5.2 10.4 8.4 15.3v-39C79.7 304.6 79.3 304.3 79 304zM79.8 362.4c-10.5-13.9-23.7-32.2-21.6-50.5.2-1.4.5-2.9 1-4.3-2.9-.2-6.1.5-8.5 1.4-5 1.8-7 6-7.3 11.1-.6 10.5 6.6 22 12.3 30.2 6.8 9.7 15.1 18 24.3 25.4v-13.2C79.9 362.6 79.9 362.5 79.8 362.4zM183.3 145.1c-11.8-.1-21.9 3.2-31.4 10.2-7.1 5.2-13.6 11.2-20.7 16.4-.4 2.1-2 3.8-4.8 3.8h-2c-5.2 0-8.4-6.9-3.5-10 10.7-7 19.5-16.5 30.5-23.1 10.4-6.2 22.1-8.8 34.2-8.1 2.6.2 5.2.4 7.9.9-1.3-1.4-2.9-2.5-4.2-3.7-2.5-2.1-4.9-4.4-7.6-6.3-6.3-4.3-14.1-7.7-21.9-7.5-13.6.4-24.6 7.6-32.7 18.2-12.8 16.9-20 38.3-36.4 51.9 21.7 12.9 53.1 18.3 73.8 2.2 8.6-6.7 16.4-14.9 22.9-23.7 3.4-4.6 9.2-12.4 10.1-19.5C192.7 145.7 187.8 145.1 183.3 145.1zM330.5 99.2c-12.8 1.7-26.2 5.8-34.8 16-6.1 7.3-9.4 16.2-6.9 24.9.8-.3 1.8-.5 2.7-.4 1.6-1.4 3.2-2.7 4.8-4 11.2-8.9 24-15 37.9-18.4 5.1-1.2 10.1-2.6 15.2-3.5 4.2-.8 8.4-1.5 12.1 1.1 5.8 4-1.5 12.2-7.3 8.3 2.7 1.8.1.9-1.9 1.3-2.1.4-4.2.8-6.3 1.3-3.9.9-7.9 1.8-11.9 2.9-12.1 3.4-23.4 9.1-33 17.3-1.4 1.2-2.7 2.3-4.1 3.5 5.3 21.7 37.7 17.2 53.5 8.3 23.8-13.4 38.4-37.6 49.5-62C377.4 100.8 353.8 96.1 330.5 99.2z"/><path fill="#C56528" d="M427.6 323.9c-.6-.2-1.6-.9-2-1-2.6-.9-3.4-3-3.1-5-.4-.4-.7-.7-1.1-1.1-9.4-8.4-21.3-13.1-32.9-17.6-13.6-5.3-27.1-10.2-41.3-13.5-21.5-5.1-43.6-7.7-65.6-7.6-1.5 5.8-3.2 11.4-5.1 17-2.2 6.6-13 4.6-10.8-2.1 1.5-4.7 3.1-9.6 4.6-14.6-4.9.2-9.8.6-14.7 1.1-30.2 3.1-59.3 9-86.7 22.3-3.9 1.9-8.4 3.7-13 5.6 6 2.4 11.8 6.7 15.7 9.8 5.6 4.4 10.9 9.2 16.4 13.6 1 .8 2 1.5 3.1 2.3 1 .7 1.7 1.1 1.7 1 4.8 2.1 10.1 3.5 15.1 5.3 24.8 8.7 51.8 24.3 56.5 52.7.2 1.2.3 2.4.4 3.6.1 0 .2 0 .3 0 .1-1.2.2-2.4.4-3.6 4.7-28.5 31.7-44 56.5-52.7 5-1.8 10.3-3.1 15.1-5.3-.1 0 .7-.4 1.7-1 1-.7 2.1-1.5 3.1-2.3 5.6-4.4 10.8-9.2 16.4-13.6 8.5-6.6 25.6-18.9 34.5-6.1 4.3 6.2 5.2 15 2.8 22-2.5 7.3-8.7 12.9-14.9 17.3-7.2 5.1-15 9.2-22.5 13.9-1.3.8-2.7 1.7-4.1 2.6 1.8-.3 3.7-.5 5.5-.8 7-1 13.2-2.9 19.8-5.3 11.6-4.3 22.8-10.2 32.5-17.9 7-5.6 12.6-11.1 16.3-18.7C427.9 324 427.7 324 427.6 323.9zM171.7 364.2c-7.5-4.7-15.3-8.8-22.5-13.9-6.2-4.4-12.3-10-14.9-17.3-1.5-4.4-1.8-9.5-.6-14.3-6.2 4.4-11.1 9.9-13.2 17.2-.8 2.8-3.2 4.1-5.6 4.1 1 .9 2.1 1.7 3.1 2.6 9.7 7.7 20.8 13.6 32.5 17.9 6.6 2.4 12.8 4.3 19.8 5.3 1.8.3 3.7.5 5.5.8C174.4 365.9 173 365.1 171.7 364.2z"/><path fill="#FCBF95" d="M211.9 352c-8.4-3.3-18.2-5-25.9-9.7-5.3-3.2-9.9-7.8-14.7-11.8-5.4-4.5-11-9.3-17.3-12.5-2.3-1.2-4.4-1.9-6.8-1.9.3 0-1.1.5-.6.2-.9.6-1.3 1.3-1.8 2.5-5.7 13.7 9.2 22.5 19 28.5 12 7.3 27.1 14 34 27.1 2.9 5.5-4.7 9.8-8.4 6.1-.3 0-.6-.1-.9-.2-6.7-2.1-13.7-2.9-20.6-3.9-7.3-1.1-13.9-3.2-20.8-5.7-11.6-4.1-22.6-10.1-32.5-17.3-8-5.8-16.4-13-21-21.8-3.5-6.7-6-13.9-9.6-20.6-1.1-2-2.3-4.3-3.9-6v39c1.8 2.7 3.6 5.5 5.4 8.2 4.7 7.3 11 14.2 17.6 19.9 4.2 3.6 11 9.7 17 8 6.6-1.9 8.5 8.5 2 10.4-8 2.3-16.2-2.8-22.3-7.4-7.5-5.8-14-12.9-19.7-20.4v13.2c10.7 8.7 22.4 16.3 33.9 23.8 5.7 3.7-.2 12.5-5.9 8.8-9.5-6.1-19-12.4-28-19.3v10.2c9.7 7.6 20.6 13.5 32.1 17.9 8.2 3.1 17 6 25.7 6.7 7.8.7 15.4 1.2 20.8 7.6 5.1 6 2.8 15.9 2.2 22.9-.6 7.2.2 17.9 4.4 23.9.2.2.3.5.4.7.9-.6 1.9-1 3.2-1h73.5c-.1-5-.3-10-.2-15.1.1-7.6 1.4-15 2.8-22.4 2.4-12.7 7.7-24.7 9.1-37.6C256.7 377.3 232.9 360.3 211.9 352zM421.8 408.4c-5.7 3.7-11.6-5.1-5.9-8.8 21.2-13.7 43.4-28.1 58.1-49.2 5.8-8.2 12.9-19.7 12.3-30.2-.3-5.1-2.3-9.3-7.3-11.1-2.4-.9-5.6-1.7-8.5-1.4.5 1.4.8 2.8 1 4.3 2.1 18.3-11 36.6-21.6 50.5-5.8 7.6-12.3 14.8-19.9 20.6-6.1 4.7-14.3 9.7-22.3 7.4-6.5-1.9-4.5-12.2 2-10.4 6 1.7 12.8-4.4 17-8 6.5-5.7 12.8-12.6 17.6-19.9 5-7.7 10.4-15 13.8-23.5 3.4-8.6 5.2-18.6-3.1-25-1.9-1.4-2.5-1.4-4.3.2-2.1 1.8-3.7 4.6-5 7.1-3.6 6.7-6.1 13.8-9.6 20.6-4.6 8.9-13 16-21 21.8-9.9 7.2-20.9 13.2-32.5 17.3-6.9 2.4-13.5 4.6-20.8 5.7-7 1-13.9 1.7-20.6 3.9-.3.1-.6.2-.9.2-3.8 3.7-11.3-.6-8.4-6.1 6.9-13.1 22-19.7 34-27.1 9.8-6 24.7-14.7 19-28.5-.5-1.2-.9-1.9-1.8-2.5.5.3-.9-.2-.6-.2-2.4 0-4.5.8-6.8 1.9-6.3 3.1-11.9 8-17.3 12.5-4.8 4-9.4 8.5-14.7 11.8-7.7 4.7-17.5 6.4-25.9 9.7-20.9 8.2-44.8 25.3-42.1 50.9 1.3 12.9 6.6 25 9.1 37.6 1.4 7.4 2.7 14.9 2.8 22.4.1 5-.1 10-.2 15.1h73.5c1.3 0 2.4.4 3.2 1 .1-.2.2-.5.4-.7 4.2-6.1 5-16.8 4.4-23.9-.6-7.1-2.9-16.9 2.2-22.9 5.4-6.4 13-6.9 20.8-7.6 8.7-.8 17.6-3.6 25.7-6.7 17.8-6.7 34.2-17.2 46.6-31.8 5.5-6.5 10.4-13.4 14.3-21 1.1-2 2.9-5.2 4.3-8.6C467.3 378.1 444.5 393.7 421.8 408.4z"/><path fill="#010101" d="M408.2 81.8c-29.8 11.8-62.8.9-93.4 9.4-24.5 6.9-47.2 32.9-33.9 58.2-3.9 3.8-7.7 7.8-11.2 11.8-5.3 6.1-10.6 13.4-12.9 21.3-4.6-5.1-9.2-10.1-13.4-15.5.1-1-.2-2.1-.8-3.2-2.2-3.8-5-7.3-8.3-10.3-12.2-22.4-10.6-51.9 2-73.7 3.8-6.5 10.4-12 16.3-16.4 6.7-5 14.7-9.7 23.2-10.7.6-.1 1.2-.1 1.8-.1-12.3 5.6-20.8 24.8-7 32.6 8.1 4.6 17.2-.1 23.3-5.7 7.1-6.6 9.1-16.2 4.7-24.8-9.3-18.3-30-13.8-44.7-5.4-17.2 9.8-29.1 24.4-35.1 43.2-5.1 16.1-4.9 33.9-.5 50.2-3.5-1.7-7.2-3.2-10.9-4.4-.3-1.1-.7-2.2-1.2-3.3-2-6.8-8.7-11-13.7-15.5-6.5-5.8-14.7-9.8-23.1-11.9-15.1-3.8-31.5 2-42.7 12.3-19.9 18.2-25.1 49.1-48.8 63.4-2.9 1.7-3.4 6.7-.6 8.7 25.8 18.7 66.7 27.7 93.8 6.6 10.4-8.1 19.8-18.2 27.3-29.1 4-5.8 7.8-12.6 9.2-19.6 6.7 2.6 13.1 6.3 18.2 10.9 5.7 9.8 13.3 18.5 21 26.9 11.4 12.6 22.2 25.2 26.9 41.9.7 2.5 1.2 5 1.5 7.6h10.5c-.8-9-3.2-17.9-7.6-26.5-3.3-6.2-7.3-11.8-11.7-17.2 0-.4 0-.8 0-1.2-.8-9.6 6.4-18.3 12.4-25.1 3-3.4 6.2-6.7 9.5-9.9 9.4 21.1 40.2 21.7 60.8 13 33.5-14 52.4-49.4 65.8-81.2C416.7 85.3 413 79.9 408.2 81.8zM286.6 62.9c1.2.7 2.4.9 3.4.7.1 3.7-2.3 7.2-5.6 9.8-2.3 1.8-10.4 5.4-9.8-.8C274.9 68 281.5 60 286.6 62.9zM187.4 166.4c-6.5 8.7-14.3 17-22.9 23.7-20.7 16.1-52.1 10.7-73.8-2.2 16.5-13.6 23.6-35.1 36.4-51.9 8.1-10.6 19-17.8 32.7-18.2 7.8-.3 15.6 3.2 21.9 7.5 2.7 1.8 5.1 4.2 7.6 6.3 1.3 1.1 2.9 2.3 4.2 3.7-2.7-.4-5.3-.7-7.9-.9-12.1-.7-23.8 1.9-34.2 8.1-11 6.6-19.8 16.1-30.5 23.1-4.9 3.2-1.7 10 3.5 10h2c2.8 0 4.4-1.7 4.8-3.8 7.1-5.2 13.6-11.2 20.7-16.4 9.5-7 19.6-10.3 31.4-10.2 4.5 0 9.3.6 14.2 1.8C196.6 153.9 190.8 161.8 187.4 166.4zM350.7 157.7c-15.8 8.9-48.2 13.4-53.5-8.3 1.4-1.2 2.7-2.4 4.1-3.5 9.6-8.2 20.8-13.9 33-17.3 3.9-1.1 7.9-1.9 11.9-2.9 2.1-.5 4.2-.9 6.3-1.3 2.1-.4 4.6.5 1.9-1.3 5.8 4 13.1-4.3 7.3-8.3-3.7-2.6-7.9-1.8-12.1-1.1-5.1 1-10.2 2.3-15.2 3.5-13.9 3.4-26.7 9.4-37.9 18.4-1.6 1.3-3.2 2.6-4.8 4-.9-.1-1.8.1-2.7.4-2.6-8.7.7-17.6 6.9-24.9 8.6-10.2 22-14.3 34.8-16 23.3-3.1 46.8 1.6 69.6-3.5C389 120.2 374.4 144.3 350.7 157.7zM74.7 303.7c1.9-1.4 2.5-1.4 4.3.2.4.3.7.7 1 1v-12.4c-1.9-.6-3.9-.7-6-.1-3.4 1-6.5 3.1-9.1 5.7-9.8-3.2-23.5.5-28.5 9.3-5.7 10-3.6 21.6.9 31.7-4.8 7-1.9 16.2 1.2 23.3 3.4 7.8 7.8 15.2 12.8 22 8 10.9 17.7 20.2 28.7 27.8v-13.1c-5.3-4.1-10.1-8.8-14.5-13.9-5.5-6.5-10.4-13.4-14.3-21-1.1-2-2.9-5.2-4.3-8.6 9.1 12.9 20.6 23.6 33.2 33.2v-13.2c-9.1-7.5-17.5-15.7-24.3-25.4-5.8-8.2-12.9-19.7-12.3-30.2.3-5.1 2.3-9.3 7.3-11.1 2.4-.9 5.6-1.7 8.5-1.4-.5 1.4-.8 2.8-1 4.3-2.1 18.3 11 36.6 21.6 50.5.1.1.1.1.2.2V344c-3.2-4.9-6.2-9.8-8.4-15.3C68.1 320.1 66.4 310.1 74.7 303.7z"/><path fill="#010101" d="M493.3,307.6c-5-8.8-18.8-12.5-28.5-9.3c-2.5-2.6-5.7-4.7-9.1-5.7c-6.8-2.1-12.9,3.7-16.3,8.8c-2.4,3.6-4.4,7.5-6.2,11.5c-2-2.4-4.7-4.6-6.7-6.3c-4.9-4.1-10.6-7.4-16.4-10.2c-11.6-5.7-24.1-10.3-36.3-14.4c-28.9-9.8-59.1-14.7-89.7-14.9H284c1.9-9.9,2.7-19.9,1.8-29.7h-10.5c1.2,9.7,0,19.9-2.2,29.8c-26.5,0.7-53.4,4.9-78.6,12.4c-12.8,3.9-24.6,9.7-36.8,15.1c-9.8,4.3-19.7,8.5-28.7,14.4c-9.2,6-16.3,14.2-19.4,24.9c-0.1,0.4-0.2,0.8-0.2,1.1c-3.5-3.7-6.3-7.7-8.5-12.6c-3.2-7.2-6.1-14.6-10.5-21.1c-2.4-3.6-6.1-7.4-10.4-8.8V305c1.6,1.8,2.8,4,3.9,6c3.6,6.7,6.1,13.8,9.6,20.6c4.6,8.9,13,16,21,21.8c9.9,7.2,20.9,13.2,32.5,17.3c6.9,2.4,13.5,4.6,20.8,5.7c7,1,13.9,1.7,20.6,3.9c0.3,0.1,0.6,0.2,0.9,0.2c3.8,3.7,11.3-0.6,8.4-6.1c-6.9-13.1-22-19.7-34-27.1c-9.8-6-24.7-14.7-19-28.5c0.5-1.2,0.9-1.9,1.8-2.5c-0.5,0.3,0.9-0.2,0.6-0.2c2.4,0,4.5,0.8,6.8,1.9c6.3,3.1,11.9,8,17.3,12.5c4.8,4,9.4,8.5,14.7,11.8c7.7,4.7,17.5,6.4,25.9,9.7c20.9,8.2,44.8,25.3,42.1,50.9c-1.3,12.9-6.6,25-9.1,37.6c-1.4,7.4-2.7,14.9-2.8,22.4c-0.1,5,0.1,10,0.2,15.1h-73.5c-1.3,0-2.4,0.4-3.2,1c-0.1-0.2-0.2-0.5-0.4-0.7c-4.2-6.1-5-16.8-4.4-23.9c0.6-7.1,2.9-16.9-2.2-22.9c-5.4-6.4-13-6.9-20.8-7.6c-8.7-0.8-17.6-3.6-25.7-6.7c-11.5-4.4-22.5-10.3-32.1-17.9v13.1c5.4,3.7,11.1,7,17,9.9c9.4,4.5,19.3,8,29.5,10.3c4.3,1,8.4,1.7,12.8,2.1c2.7,0.2,8.2,0,10.2,2.4c2.5,3,1.8,7.2,1.4,10.9c-0.4,4.1-0.7,8-0.5,12c0.5,8.8,1.8,18,6.9,25.4c1.9,2.7,4.7,2.5,6.6,0.9c0.7,1.4,2.1,2.3,4.1,2.3h74.9c0.5,0,0.9-0.1,1.3-0.1c3,2.6,8.7,1.7,8.7-3.3c0-8.9-0.8-17.8-0.1-26.6c0.6-7.9,2-15.9,4.1-23.6c2.5-9.2,6-18.8,7.3-28.5c0.3,0.1,0.7,0.1,1.1,0.1c1.3,9.7,4.7,19.2,7.2,28.4c2.1,7.6,3.5,15.7,4.1,23.6c0.7,8.8-0.1,17.8-0.1,26.6c0,5,5.7,5.9,8.7,3.3c0.4,0.1,0.8,0.1,1.3,0.1h74.9c2.1,0,3.4-1,4.1-2.3c2,1.6,4.8,1.8,6.6-0.9c5.1-7.4,6.4-16.6,6.9-25.4c0.2-4.1-0.1-8-0.5-12c-0.4-3.7-1.1-7.9,1.4-10.9c2-2.3,7.5-2.1,10.2-2.4c4.4-0.4,8.5-1.1,12.8-2.1c10.2-2.4,20.1-5.8,29.5-10.3c18.1-8.6,33.8-21.5,45.7-37.7c5-6.8,9.4-14.2,12.8-22c3.1-7.1,6-16.3,1.2-23.3C496.9,329.1,499,317.6,493.3,307.6z M149.1,350.3c7.2,5.1,15,9.2,22.5,13.9c1.3,0.8,2.7,1.7,4.1,2.6c-1.8-0.3-3.7-0.5-5.5-0.8c-7-1-13.2-2.9-19.8-5.3c-11.6-4.3-22.8-10.2-32.5-17.9c-1.1-0.9-2.1-1.7-3.1-2.6c2.3,0,4.7-1.3,5.6-4.1c2.2-7.3,7.1-12.8,13.2-17.2c-1.1,4.7-0.9,9.8,0.6,14.3C136.8,340.4,143,346,149.1,350.3z M265.4,392c-0.2,1.2-0.3,2.4-0.4,3.6c-0.1,0-0.2,0-0.3,0c-0.1-1.2-0.2-2.4-0.4-3.6c-4.7-28.5-31.7-44-56.5-52.7c-5-1.8-10.3-3.1-15.1-5.3c0.1,0-0.7-0.4-1.7-1c-1-0.7-2.1-1.5-3.1-2.3c-5.6-4.4-10.8-9.2-16.4-13.6c-3.9-3.1-9.7-7.4-15.7-9.8c4.6-1.9,9.1-3.8,13-5.6c27.5-13.2,56.6-19.1,86.7-22.3c4.9-0.5,9.8-0.9,14.7-1.1c-1.5,5.1-3.1,10-4.6,14.6c-2.2,6.7,8.6,8.7,10.8,2.1c1.8-5.6,3.6-11.2,5.1-17c22.1-0.1,44.1,2.5,65.6,7.6c14.2,3.4,27.7,8.3,41.3,13.5c11.6,4.5,23.5,9.2,32.9,17.6c0.4,0.4,0.8,0.7,1.1,1.1c-0.4,2,0.5,4.1,3.1,5c0.4,0.1,1.4,0.8,2,1c0.2,0.1,0.4,0.1,0.5,0.2c-3.8,7.6-9.3,13.1-16.3,18.7c-9.7,7.7-20.8,13.6-32.5,17.9c-6.6,2.4-12.8,4.3-19.8,5.3c-1.8,0.3-3.7,0.5-5.5,0.8c1.4-0.9,2.7-1.8,4.1-2.6c7.5-4.7,15.3-8.8,22.5-13.9c6.2-4.4,12.3-10,14.9-17.3c2.4-7,1.6-15.8-2.8-22c-8.9-12.8-26-0.5-34.5,6.1c-5.6,4.4-10.9,9.2-16.4,13.6c-1,0.8-2,1.5-3.1,2.3c-1,0.7-1.7,1.1-1.7,1c-4.8,2.1-10.1,3.5-15.1,5.3C297.1,347.9,270.1,363.5,265.4,392z M421.8,408.4c22.7-14.7,45.5-30.3,61.1-52.5c-1.4,3.3-3.3,6.5-4.3,8.6c-4,7.5-8.8,14.5-14.3,21c-12.5,14.6-28.8,25-46.6,31.8c-8.2,3.1-17,6-25.7,6.7c-7.8,0.7-15.4,1.2-20.8,7.6c-5.1,6-2.8,15.9-2.2,22.9c0.6,7.2-0.2,17.9-4.4,23.9c-0.2,0.2-0.3,0.5-0.4,0.7c-0.9-0.6-1.9-1-3.2-1h-73.5c0.1-5,0.3-10,0.2-15.1c-0.1-7.6-1.4-15-2.8-22.4c-2.4-12.7-7.7-24.7-9.1-37.6c-2.7-25.5,21.2-42.6,42.1-50.9c8.4-3.3,18.2-5,25.9-9.7c5.3-3.2,9.9-7.8,14.7-11.8c5.4-4.5,11-9.3,17.3-12.5c2.3-1.2,4.4-1.9,6.8-1.9c-0.3,0,1.1,0.5,0.6,0.2c0.9,0.6,1.3,1.3,1.8,2.5c5.7,13.7-9.2,22.5-19,28.5c-12,7.3-27.1,14-34,27.1c-2.9,5.5,4.7,9.8,8.4,6.1c0.3,0,0.6-0.1,0.9-0.2c6.7-2.1,13.7-2.9,20.6-3.9c7.3-1.1,13.9-3.2,20.8-5.7c11.6-4.1,22.6-10.1,32.5-17.3c8-5.8,16.4-13,21-21.8c3.5-6.7,6-13.9,9.6-20.6c1.3-2.4,2.8-5.2,5-7.1c1.8-1.6,2.4-1.7,4.3-0.2c8.3,6.4,6.5,16.3,3.1,25c-3.4,8.6-8.9,15.9-13.8,23.5c-4.7,7.3-11,14.2-17.6,19.9c-4.2,3.6-11,9.7-17,8c-6.6-1.9-8.5,8.5-2,10.4c8,2.3,16.2-2.8,22.3-7.4c7.6-5.8,14.2-13.1,19.9-20.6c10.5-13.9,23.7-32.2,21.6-50.5c-0.2-1.4-0.5-2.9-1-4.3c2.9-0.2,6.1,0.5,8.5,1.4c5,1.8,7,6,7.3,11.1c0.6,10.5-6.6,22-12.3,30.2c-14.7,21-36.9,35.4-58.1,49.2C410.1,403.4,416,412.1,421.8,408.4z"/><path fill="#010101" d="M113.9 399.7c-11.4-7.4-23.2-15-33.9-23.8v13.2c9 6.9 18.5 13.2 28 19.3C113.7 412.1 119.6 403.4 113.9 399.7zM120 380.1c-6 1.7-12.8-4.4-17-8-6.5-5.7-12.8-12.6-17.6-19.9-1.8-2.8-3.6-5.5-5.4-8.2v18.6c5.7 7.5 12.2 14.7 19.7 20.4 6.1 4.7 14.3 9.7 22.3 7.4C128.5 388.6 126.5 378.2 120 380.1z"/></svg>