<svg xmlns="http://www.w3.org/2000/svg"  viewBox="0 0 512 512" width="64px" height="64px"><path fill="#EF4823" d="M218.8,242.3c-1.8-5.1-10.7-2.5-14.6-1.7c-13.9,2.7-29.8,2.3-40.9,11.3c1.3,2,1.3,4.7-0.9,6.4c-0.1,0.4-0.1,0.8,0,1.2c0,1.1,0.1,2.2,0.2,3.2c0.2,1.8,0,4.3,0.6,6c1.5,3.8,5,1.8,8.5,1.3c14.6-2.1,29.2,0,43.9-0.2c0.5-3.9,1.3-7.7,2.2-11.6C218.9,253.6,220.5,247.1,218.8,242.3z"/><path fill="#D6E5E5" d="M222.8 215.3c-4.1-2.4-7.6-4.5-12.6-4.1-8.6.7-18.1 2.6-25.4 7.6.2.8.2 1.6.1 2.4 6.8-2.4 16.4-1.4 21.7-1.4 6 .1 12 .7 17.5 2.8 2.4-1.7 5.1-3.1 7.7-4.5C228.7 218 225.7 217.1 222.8 215.3zM177.3 230.3c.1-1.6.6-3 1.2-4.2-2.4.5-4.6 1.7-6.6 3.4-.1 2.2-1.4 4.1-4.1 4.3-1 1.3-1.9 2.6-2.7 4.1 3.7-1.7 7.6-3 11.7-4 .4-.1.8-.2 1.1-.2C177.4 232.7 177.2 231.6 177.3 230.3zM212.6 295.4c-2.6-1-5.1-2.4-6.5-4.9-1.6-3-1.6-6.6-.4-9.7-6.5-.3-12.9-.7-19.4-.6-.3 0-.6 0-.8 0-.2.3-.4.6-.7.8-2.1 2.1-5.1 4.4-5.8 7.5.6.1 1.2.2 1.8.3 5.3.6 10.5.8 15 3.9 5.5 3.8 7.7 10.2 7.5 16.7-.1 3.1-.6 5.8-1.8 8.7-.4.9-.7 1.7-1.1 2.6 4 .4 8 .7 12 .9-.2-.5-.2-1.1-.2-1.8.2-4.6 1.4-9 3.3-13.1-1.8-2.3-2.1-5.8 1.1-7.8C218.7 297.4 214 295.9 212.6 295.4z"/><path fill="#D6E5E5" d="M192.3 307.5c-.8-7.3-6.8-7.1-12.7-7.8-5.3-.6-10.5-2.7-11.6-8.6-.6-3.5.3-6.7 2-9.5-2.5.4-5.2.8-7.6.2-.1 0-.1 0-.2 0-.4.1-.8.1-1.2.1-.4 0-.7-.1-1.1-.1.1.5.2 1.2.2 1.3.4 2.3 1.2 4.5 1.9 6.7 2.2 7.1.8 13.6-1 20.6-.3 1-.7 1.8-1.3 2.4 8.2 2.5 16.5 4.5 24.9 5.9 1.4.2 2.9.5 4.3.7C190.4 315.5 192.8 311.8 192.3 307.5zM265.7 200.1c-1.6-.1-2.8.6-3.8 1.8-2.8 3.4-4.5 7.5-7.4 10.9-3.6 4.2-7.4 9-12.2 11.9-2.4 1.5-5.2 2.7-7.8 4.1 4.3 3.3 8.2 7 12.7 10.2 3.1 2.2 12.4 4.2 12-2.5-.3-4.1-1.1-8.1-1.5-12.2-.4-4.3-1.1-10.2 1.2-14.1 1.8-2.9 4.4-4.4 7.3-4.3.1-.7.2-1.3.6-1.9.6-1.1 1.3-2.1 2-3.1C267.7 200.5 266.7 200.2 265.7 200.1z"/><path fill="#D6E5E5" d="M284.1 227.4c-1.3-1.9-1.2-3.9-.3-5.4-3.8-2-7.5-4-10.8-6.5-.9 1.7-2.6 2.9-4.6 2.6 0 1.2 0 2.3.1 3.5.3 4.3 1 8.5 1.5 12.7 1.3 11.8-10.3 20.7-21.5 17.2-7.7-2.4-13.3-8.4-19.5-13.2 2 5.2 1.7 10.6.8 16.1.5.2 1 .5 1.5.8 6.4 4.9 14.6 6.6 22.4 5.2 6.3-1.2 10.6-4 15.2-8.3 4.5-4.2 8.9-8.7 12.4-13.8C283.1 235.5 286.3 230.7 284.1 227.4zM227.4 265.8c-.6 3.1-1.2 6.1-1.2 9.1-.1 2.9-1.8 5.7-5.1 5.9-.4 0-.9 0-1.3 0-.4 1.7-1.6 3.2-3.6 3.8 0 .1 0 .2-.1.4.7.3 1.5.6 2.2.8 2.5.9 5.4 2.2 6.9 4.4.1.2.3.4.4.7 1.9-2.3 3.8-4.6 5.6-6.7 4.4-5.2 9.6-9.4 15.3-12.5C239.7 271.4 233.2 269.5 227.4 265.8zM417.9 242.6c-1.2-9.5-3.7-17.9-14.8-17.7-.8 0-1.5-.1-2.2-.4-1 1.6-2.1 3.1-3.2 4.7 1.8 1.4 2.9 3.9 1.8 6.7.5-1.2.6-2.1.5-2.7-.3-.8 0-.8 0 0 .1.2.1.3.2.6.2.4.3.8.6 1.1.9 1.6 1.8 3.2 2.6 4.8 1.6 2.8 3.3 5.8 4.3 8.9 1.5 5 1 11.3 1.1 16.5.1 4.4.1 8.8.1 13.1 4.3-3.4 8.7-6.8 13.2-9.9C419 260.3 419 251 417.9 242.6zM398.2 282.8c0-6.2 0-12.4-.2-18.6-.2-4.7.5-10.6-1.7-14.9-1.4-2.9-4.1-6.4-5.7-10-2.2 3.1-4.5 6.2-6.8 9.3 1.7.7 3 2.1 3.3 4.4 1.8 12.9 2.7 25.8 3 38.8 3.1-1.8 6.1-3.8 9-5.9C398.5 285 398.2 284 398.2 282.8zM379.2 296.8c0-13-.8-25.9-2.4-38.7-3.7 5-7.5 9.9-11.2 14.9 3.6.8 6.4 5.4 3.3 9.1-1.6 1.9-.7 8-.5 10.5.2 3 .5 6 .7 9 3.5-1.2 6.9-2.5 10.2-4C379.2 297.2 379.2 297 379.2 296.8z"/><path fill="#FEBF10" d="M441.9,133.5c-3.3-2.4-7.7-5.1-12-6.2c-1.9,3.2-4.1,6.3-6.3,9.4c-4.8,6.8-8.4,14-12.3,21.3c-8.5,16.2-17.5,32.1-26.8,47.8c-1.9,3.2-3.7,6.4-5.6,9.6c-0.2,1-0.8,2-1.6,2.7c-7,12.1-13.9,24.3-21,36.4c-4.4,7.4-8.7,15-13.7,21.9c-3.3,4.6-6.7,9-9.9,13.7c2.2,0.6,3.5,2.3,4,4.2c0.9-0.1,1.8-0.5,2.5-1.3c2.4-2.9,4.1-6.2,5.9-9.4c4.1-7.7,9.5-14.5,14.7-21.4c13-17.2,26.4-34.2,37.7-52.7c10.9-17.8,23.4-34.5,34.3-52.3c2.8-4.6,5.3-9.4,7.8-14.2C440.9,140.6,444.8,135.6,441.9,133.5z"/><path fill="#D6E5E5" d="M445.5 246.8c-2.3-2-5-3.2-7.5-4.9-6.6-4.3-6.9-11.8-6-19 .8-6.2 1.2-13.6-5.4-16.9-4.7-2.3-8.8-1.5-11.8 2.9-1.4 2.1-3.4 2.5-5.2 1.9-.4.7-.8 1.3-1.2 2-.3.5-.6.9-.9 1.4 11.1 1.6 17.9 9.2 20.3 21 1.7 8.1.8 18.3 3.7 26.5 1.8-1.4 3.5-2.8 5.2-4.3 3.4-3.1 6.6-6.5 9.3-10.2C445.8 247.1 445.7 246.9 445.5 246.8zM316 313.5c-7.9-8.6-25.8-17.6-37.3-11.6-6.2 3.3-12.4-5.8-6.1-9.1 6.8-3.6 14.8-4.2 22.7-2.7 3.5-12.8 7.5-25.6 11.6-38.2-6.7 15.7-16.9 29.5-33.5 35.7-2.8 1-5-.2-6.2-2.1-1.4 5.4-1.4 11.6-1 16.2.1.9.2 1.7.3 2.6.1 0 .2-.1.3-.1 8-2.2 16.9-.3 24.6 2.3 3.8 1.3 8.1 2.7 10.9 5.7 1.5 1.6 2.8 4.2 4.4 6.1 4-1 8.1-2.1 12.1-3.2C317.9 315 316.9 314.5 316 313.5z"/><path fill="#EF4823" d="M257.1,316.9c-0.3-2.4-0.6-4.8-0.9-7.3c-0.6-4.5-1.1-9-0.9-13.6c0.3-6,1-12,3-17.4c-7.2,2.3-13.5,6.6-18.7,12.8c-6.2,7.3-16,17.3-16.4,27.4c-0.1,1.3-0.5,2.4-1.1,3.3c2.5,0.2,5,0.3,7.5,0.5c9.3,0.8,18.5,1.4,27.7,1.5c-0.3-0.9-0.3-1.9,0.1-3c0.1-0.2,0.2-0.2,0.1-1.4C257.3,318.8,257.2,317.9,257.1,316.9z"/><path fill="#D6E5E5" d="M291 317.8c-5.7-2.2-14.4-5-20.5-3.3-.9.3-1.8.3-2.6.1 0 .1 0 .2 0 .3.3 2.6 1 5.9.2 8.5-.1.3-.2.5-.3.8 3.7-.1 7.4-.4 11.1-.7 5.6-.5 11.1-1.5 16.5-2.6C294.1 319.6 292.7 318.5 291 317.8zM356.8 285.1c-.2.3-.4.7-.6 1-2.1 3.8-4.1 7.7-6.6 11.2-2.1 3-4.7 5.9-8.2 7.1-5.5 2-9.6-.2-14.9-1.8-1.7-.5-3.4-1.6-4.1-3.3-3.2-.7-5.9-3.9-3.8-7.6.3-.5.6-1 .9-1.5-3.3 2.6-7 4.2-11.2 4 5.8 2.8 11 6.5 14.9 10.8 2.8 3.1 1.4 7.2-1.2 9 .5-.1.9-.3 1.4-.4 11.5-3.1 23.1-5.8 34.6-9.1C357.9 298.9 356.4 291.7 356.8 285.1zM190.2 231.2c-.5.1-.9.2-1.4.4 2.3-.4 4.6-.7 6.9-1C193.8 230.7 191.9 230.8 190.2 231.2zM138.6 257.9c-3.6 4.8-8.8 8.7-12.8 13.2-3.5 3.9-9.9 10.1-9.6 15.8.1 2.3-.9 3.9-2.4 4.8 1.5 1 3 1.9 4.5 2.8 1.7 1 3.5 2 5.3 3 3.5-18.7 16.8-34.3 25.1-51.2 0-.1.1-.2.1-.3C145.1 249.8 141.7 253.7 138.6 257.9zM149.4 284.9c-.8-4.9.5-9.5 3.8-12-.7-1.9-1.1-4-1.3-6-.1-.9-.2-1.8-.3-2.9-7.2 12-15.5 23.7-17.6 37.5-.1.5-.2.9-.4 1.3 5.3 2.5 10.8 4.8 16.4 6.8 0-.4.1-.8.2-1.2 1.2-4.5 3.1-9.5 1.7-14.1C151 291.1 149.9 288 149.4 284.9zM133.2 241.4c-13.7 8.6-27.1 19.2-33.6 34.4-.9 2.1-2.5 3-4.1 3.1 3.2 2.5 6.4 4.8 9.7 7.2.5-15.2 17.2-25.2 25.6-36 4.1-5.4 8.7-10.4 13.7-15C140.6 237 136.9 239.1 133.2 241.4z"/><path fill="#74CCCF" d="M343.1 141.8c-28.9.1-57.4 4.2-85.9 9.4C229 156.4 201 163 173.5 171c-25.1 7.3-50.2 14.4-71.1 30.8-9.1 7.2-18.5 15.5-25.7 24.5-5.8 7.3-8.5 14.9-8.1 23.6.3.5.5 1.2.5 1.9 2.5 1.4 2.6 4.2 1.4 6.4 1.8 2.7 4.7 5 7 6.8 3.3 2.6 6.8 4.9 10 7.6.6.5 1.2 1 1.8 1.4-.2-1-.1-2 .4-3.1 7-16.3 21.4-28.6 36.1-37.9 15.1-9.4 31.4-16.7 48-22.9 1.6-.6 3-.4 4.1.1 8.2-5.7 18.1-8.5 28-9.7 6.4-.8 12.7-.4 18.4 2.9 4 2.3 9 6.2 12.6 1.3 3.1-4.2 4-9.5 6.7-13.9 2.8-4.6 6.8-8.2 11.5-10.7 4.8-2.6 10.4-5.3 15.9-3.8 5.4 1.4 8.1 5.8 11.1 10 .1.2.2.3.3.5 4.1-3.9 9-9.9 15.2-8.5.1 0 .2 0 .3.1.5-.5 1.1-.9 1.9-1.2 9.6-3.8 21.7-3.5 31.3.3.3.1.6.2.8.4 3-9.3 6-18.6 9-27.9.8-2.7 1.7-5.4 2.5-8.1C343.3 141.8 343.2 141.8 343.1 141.8zM458.3 203.6c-2.3-.2-4.3-1.8-4.1-4.8.4-7.8-5.1-11.4-11.6-14.4-3.2-1.5-3.6-1.8-6.9-3.3-1.4-.6-3.2-1.3-4.4-2.5-3.5 5.2-7.1 10.3-10.6 15.5 7.8-.5 16.1 3.4 19.9 10.9 1.7 3.4 3.3 7.2 3.2 11.1-.2 4.5-1.6 9.4-1.1 13.8.5 4.3 5.8 4.7 8.7 7.3.2.2.4.4.6.6 1.5-3 2.7-6.2 3.6-9.5C457.3 221.3 459.2 211.9 458.3 203.6z"/><path fill="#FEBF10" d="M387.4,82.9c-0.6-1.3-0.3-1.3-1.3-1c-2.2,0.7-4.4,2-6,3.6c-8,7.7-12.3,18.5-16.1,28.7c-10.3,28.4-18.2,57.6-27.9,86.2c-9.4,27.6-19.4,55.1-27.5,83.1c0.5,0.1,1.1,0,1.6-0.1c1.2-0.4,2-1,3.2-2c2.6-2.2,4.8-5.3,6.5-8.3c5.1-8.4,8.9-17.6,12.4-26.7c8.1-21.4,16.2-42.9,23.5-64.6c4.8-14.4,9.6-28.9,15.7-42.8c5.9-13.4,14-26.8,16.2-41.5C388.3,93,389.3,87.2,387.4,82.9z"/><path fill="#14B6B9" d="M449.9,259.8c-4.7,4.9-9.9,9.2-15.3,13.2c-0.7,1-1.8,1.8-3.1,2.3c-4.5,3.3-9.1,6.5-13.5,10c-12.3,9.7-24.4,19.1-39.3,24.6c-13.9,5.1-28.6,8.5-42.9,12.2c-8.3,2.1-16.6,4.5-24.9,6.7c-1.3,2.2-3.9,3.4-6.7,1.6c0,0,0,0,0,0c-3.9,0.9-7.8,1.7-11.7,2.4c-15.7,2.7-31.6,3.3-47.4,2.2c-15.7-1-31.5-1.7-47.1-3.3c-28.8-3-58-11.4-83.1-26.3c-12.9-7.6-24.4-16.9-36.4-25.8c-1.7-1.2-3.4-2.5-5.1-3.8c3.3,13.5,7.8,26.7,12.8,39.6c7.2,18.7,15.1,36.7,26.9,53c8.1,11.3,17.3,21.7,27.2,31.4c9.5,9.3,19.1,20.1,30.5,27.1c9.7,6,20.4,8.8,31.1,12.2c1.1-2.7,4-4.6,7.2-2.7c4,2.4,8.6,2.7,13.2,2.9c5,0.3,10.1,0.8,15.1,1.2c11.5,0.9,23,1.4,34.5,1.3c11-0.1,23,0.4,33.5-3.2c8.8-2.9,17.4-6.4,26.4-8.5c6.8-1.6,10.5,8.8,3.6,10.4c-10.6,2.5-20.6,6.8-31,10c-5.7,1.7-12.5,1.8-18.4,2c-5.7,0.2-11.4,0.3-17.1,0.3c-11.9,0-23.7-0.7-35.6-1.6c-2-0.2-4.1-0.2-6.2-0.3c6.3,4.1,12.4,8.7,19,12.6c13.4,8.1,27.8,8,42.8,5.1c11.7-2.3,23.2-4.9,35-7c19-3.3,43-7.8,52.8-26.7c0.6-1.2,1.5-2,2.5-2.5c0.8-1.1,2-1.9,3.3-2.2c6.2-6.7,13.4-12.6,18.2-20.3c6.1-9.8,11.8-20,17.6-30c11.6-19.7,21.2-40.6,27.7-62.5c6.6-22.3,10.1-45.3,12.3-68.5C455.8,252.8,453,256.5,449.9,259.8z"/><path fill="#EF4823" d="M299.7,192.1c-1.8-1.8-2.8-3.8-4.9-1.8c-2.3,2.2-4.5,4.3-6.9,6.4c-3.2,2.9-6.7,5.7-9.4,9.2c5,4.8,12.6,7.3,18.2,10.9c3.3,2.1,5.8,4.6,8.2,7.7c0.8,1.1,1.6,2.4,2.6,3.4c0.3,0.2,0.4,0.4,0.5,0.6c0-0.2,0.2-0.4,0.5-0.7c2.3-2,4.8-1.4,6.4,0.3c0.8-2.3,1.6-4.6,2.4-6.9c1.2-3.5,2.4-7,3.6-10.5C310.3,208.7,306.7,199.1,299.7,192.1z"/><path fill="#D6E5E5" d="M326.2 187.3c-5.1-2-11.5-2.4-17.3-1.3 1 1.2 1.9 2.4 2.9 3.6 3.2 4.3 6.2 9.5 11.9 10.3.3 0 .6.1.8.2 1.4-4.1 2.8-8.3 4.1-12.4C327.9 187.7 327.1 187.6 326.2 187.3zM268.8 187.1c-1.8-.7-4.5.7-6.1 1.4-1.2.6-2.4 1.2-3.5 2 2.6-1.2 5.5-1.7 8.6-1.2 1.3.2 2.6.4 3.8.7C270.8 188.8 269.9 187.5 268.8 187.1zM301.8 237.5c-2.5-1.9-4.1-4.6-6-7-.4 11.6-12.7 23.3-20.2 30.2-2.2 2-4.4 3.7-6.7 5.2.1 0 .2 0 .2 0 5.7-.1 7.8 6.6 3.5 10 0 0 0 0-.1.1 13.5-6.3 20.9-19.4 26.1-33.1 2.2-5.9 10.3-2.6 10.3 2.8.7-2.2 1.5-4.5 2.3-6.7C308.1 240.1 304.7 239.7 301.8 237.5z"/><path fill="#74CCCF" d="M398.1,154.4c-3.4-4-9.6-8.4-15-8.6c-0.8,0-1.7-0.2-2.4-0.5c0,0.1-0.1,0.1-0.1,0.2c-4.5,10.7-8.4,21.7-12.2,32.7c0.2,0.1,0.5,0.1,0.7,0.2c3.5,1.2,6.9,3,10,5c1.7,1.1,2.9,2.8,3,4.6c6.1-10.6,12.1-21.3,17.9-32.1C399.3,155.6,398.7,155.1,398.1,154.4z"/><path fill="#D6E5E5" d="M357.7 208.5c-1.8 4.8-3.6 9.5-5.4 14.3 1.4-.1 2.9.3 4 1.3 1.1 1 2.3 1.8 3.5 2.6 2.3-4.1 4.7-8.1 7-12.2C364.2 212.1 360.8 210.4 357.7 208.5zM354 236.2c-.5-.4-1.1-.8-1.6-1.2-1.2-.8-2.3-1.5-3.3-2.5-.1-.1-.1-.1-.2-.2-4.4 12.3-8.4 24.7-14.1 36.4 4.6-6.7 8.7-13.8 12.8-20.8 2.2-3.8 4.5-7.7 6.7-11.5C354.1 236.3 354.1 236.3 354 236.2zM374.2 193.3c-2.9-1.9-6-3.5-9.3-4.7l-.2.5c-1 3-2.1 6.1-3.2 9.1.2.1.3.2.5.3 3.5 2.1 7.1 4.1 10.3 6.6.8-1.4 1.6-2.7 2.4-4.1 1.5-2.6 3-5.1 4.5-7.7C377.6 194 375.7 194.2 374.2 193.3z"/><path fill="#010101" d="M400.1,233.1C400.1,232.3,399.8,232.3,400.1,233.1L400.1,233.1z"/><path fill="#010101" d="M469.2,193.3c-0.8-1.1-1.9-1.7-2.9-2c-0.6-1.4-1.3-2.7-2.1-4c-0.8-1.3-1.8-2-2.9-2.3c-1.9-2.6-4.4-4.9-7.3-6.8c-3-1.9-6.3-3.3-9.3-5c-1.1-0.6-2.3-1.1-3.5-1.6c-0.5-0.2-0.9-0.4-1.4-0.6c-0.6-0.9-1.4-1.5-2.5-1.9c3.8-5.9,7.4-11.9,10.6-18.1c4.2-8,10.2-18.5,1.2-25.7c-3.8-3-9.2-6.3-14.5-8.1c0.1-0.3,0.2-0.6,0.3-0.8c1.5-4.5-5-8.6-8.5-5.6c-1.9,1.6-3.8,2.8-4.9,5.1c-0.7,1.6-0.6,3-0.1,4.3c-2.6,4.7-6.1,9-9.1,13.4c-2.8,4-5.1,8.2-7.3,12.5c-5.4-5.5-12.3-9.7-19.9-10.8c4.6-9.9,9.3-19.8,12.1-30.4c2.3-8.6,4.3-22.2-2-29.7c-12.3-14.7-29.8,9.4-34.8,19.1c-6.2,12-10.4,25.1-14.4,38.2c-1-0.9-2.3-1.5-3.9-1.5c-30.2,0.1-59.9,4.6-89.6,10.1c-29.8,5.5-59.2,12.7-88.3,21.3c-13.7,4-27.7,8-40.7,13.9c-11.7,5.4-22.6,12.4-32.5,20.7c-18,15.2-37.4,33.2-33,58.9c0.2,1.1,0.5,2.1,0.8,3c4,27.7,14.1,54.1,24.9,79.8c10.7,25.5,27.6,47.5,46.9,67.1c9.4,9.6,19.2,19.6,30.1,27.6c11.5,8.5,24.9,12.3,38.3,16.4c14,4.3,25,12,37,20.2c12.1,8.3,24.3,12,39.1,11.4c12.5-0.5,24.3-4.4,36.5-6.6c9.5-1.7,19-3.1,28.4-5.3c17.5-3.9,35.2-11.2,44.9-26.9c1.1-0.2,2.1-0.8,2.8-1.7c6.6-8.3,15.4-14.7,21.2-23.7c6.8-10.5,12.8-21.7,19.2-32.5c12.5-21,22.1-43.6,29.1-67c7.1-23.9,10.3-48.8,12.4-73.6c0.9-10.1,1.3-20.2,1.9-30.3C471.9,208,473.3,198.4,469.2,193.3z M411.4,158c3.9-7.3,7.5-14.5,12.3-21.3c2.2-3.1,4.3-6.2,6.3-9.4c4.3,1.2,8.8,3.8,12,6.2c2.9,2.1-1.1,7.1-2.2,9.4c-2.5,4.8-5,9.6-7.8,14.2c-10.9,17.8-23.5,34.5-34.3,52.3c-11.2,18.5-24.7,35.4-37.7,52.7c-5.2,7-10.6,13.7-14.7,21.4c-1.8,3.3-3.5,6.6-5.9,9.4c-0.7,0.8-1.6,1.2-2.5,1.3c-0.5-1.9-1.8-3.7-4-4.2c3.2-4.6,6.6-9.1,9.9-13.7c5-7,9.3-14.5,13.7-21.9c7.1-12.1,14-24.2,21-36.4c0.8-0.7,1.3-1.7,1.6-2.7c1.9-3.2,3.7-6.4,5.6-9.6C393.9,190.1,402.9,174.1,411.4,158z M438,241.9c2.5,1.6,5.2,2.9,7.5,4.9c0.2,0.1,0.3,0.3,0.5,0.4c-2.8,3.7-5.9,7-9.3,10.2c-1.7,1.5-3.4,2.9-5.2,4.3c-2.8-8.2-2-18.4-3.7-26.5c-2.4-11.8-9.2-19.4-20.3-21c0.3-0.5,0.6-0.9,0.9-1.4c0.4-0.7,0.8-1.3,1.2-2c1.8,0.6,3.8,0.2,5.2-1.9c3-4.3,7.2-5.1,11.8-2.9c6.6,3.3,6.3,10.7,5.4,16.9C431.1,230.2,431.4,237.6,438,241.9z M407.8,248.5c-0.9-3.1-2.7-6-4.3-8.9c-0.9-1.6-1.8-3.2-2.6-4.8c-0.2-0.4-0.4-0.7-0.6-1.1c-0.1-0.2-0.2-0.4-0.2-0.6c0,0.5-0.1,1.5-0.5,2.7c1.1-2.8,0-5.2-1.8-6.7c1.1-1.5,2.1-3.1,3.2-4.7c0.6,0.2,1.4,0.4,2.2,0.4c11.1-0.2,13.6,8.2,14.8,17.7c1.1,8.4,1.1,17.8,4.4,25.7c-4.5,3.1-8.9,6.5-13.2,9.9c0-4.4,0-8.8-0.1-13.1C408.9,259.8,409.4,253.5,407.8,248.5z M398,264.1c0.2,6.2,0.2,12.4,0.2,18.6c0,1.3,0.4,2.3,0.9,3.1c-3,2.1-6,4.1-9,5.9c-0.2-13-1.2-25.9-3-38.8c-0.3-2.2-1.7-3.7-3.3-4.4c2.3-3.1,4.5-6.2,6.8-9.3c1.6,3.6,4.3,7.1,5.7,10C398.4,253.6,397.8,259.4,398,264.1z M365.5,272.9c3.7-5,7.5-9.9,11.2-14.9c1.6,12.9,2.4,25.8,2.4,38.7c0,0.2,0,0.5,0,0.7c-3.3,1.5-6.7,2.8-10.2,4c-0.2-3-0.5-6-0.7-9c-0.2-2.5-1.1-8.6,0.5-10.5C371.9,278.3,369.1,273.7,365.5,272.9z M323.3,305.2c-3.9-4.3-9.1-8-14.9-10.8c4.2,0.2,7.9-1.4,11.2-4c-0.3,0.5-0.6,1-0.9,1.5c-2.1,3.7,0.6,6.9,3.8,7.6c0.7,1.6,2.4,2.8,4.1,3.3c5.3,1.6,9.3,3.7,14.9,1.8c3.5-1.2,6.1-4.1,8.2-7.1c2.5-3.6,4.5-7.4,6.6-11.2c0.2-0.3,0.4-0.7,0.6-1c-0.5,6.5,1.1,13.8,1.3,19.6c-11.5,3.2-23.1,6-34.6,9.1c-0.5,0.1-0.9,0.3-1.4,0.4C324.7,312.4,326.1,308.3,323.3,305.2z M267.9,314.9c0-0.1,0-0.2,0-0.3c0.8,0.1,1.7,0.1,2.6-0.1c6-1.7,14.8,1.1,20.5,3.3c1.8,0.7,3.2,1.8,4.4,3c-5.5,1.1-10.9,2-16.5,2.6c-3.7,0.4-7.4,0.6-11.1,0.7c0.1-0.3,0.2-0.5,0.3-0.8C268.9,320.8,268.2,317.5,267.9,314.9z M291.5,306.4c-7.8-2.6-16.6-4.5-24.6-2.3c-0.1,0-0.2,0.1-0.3,0.1c-0.1-0.9-0.2-1.7-0.3-2.6c-0.4-4.7-0.4-10.8,1-16.2c1.2,1.9,3.4,3.1,6.2,2.1c16.6-6.2,26.8-20,33.5-35.7c-4.2,12.6-8.1,25.4-11.6,38.2c-7.9-1.5-15.9-0.9-22.7,2.7c-6.3,3.3-0.1,12.4,6.1,9.1c11.5-6,29.4,3,37.3,11.6c0.9,1,1.9,1.5,2.9,1.6c-4,1.1-8.1,2.2-12.1,3.2c-1.6-2-2.9-4.5-4.4-6.1C299.6,309.1,295.2,307.7,291.5,306.4z M256.1,309.6c0.3,2.4,0.6,4.8,0.9,7.3c0.1,1,0.2,2,0.3,3c0.1,1.2,0,1.2-0.1,1.4c-0.4,1.1-0.4,2.1-0.1,3c-9.2-0.1-18.4-0.8-27.7-1.5c-2.5-0.2-5-0.4-7.5-0.5c0.7-0.9,1.1-2,1.1-3.3c0.4-10.1,10.2-20.2,16.4-27.4c5.3-6.2,11.5-10.5,18.7-12.8c-2,5.4-2.7,11.4-3,17.4C255,300.6,255.5,305.1,256.1,309.6z M215.5,306.6c-1.9,4.2-3.1,8.5-3.3,13.1c0,0.7,0.1,1.3,0.2,1.8c-4-0.3-8-0.6-12-0.9c0.4-0.8,0.8-1.7,1.1-2.6c1.2-2.8,1.7-5.6,1.8-8.7c0.2-6.5-2-12.9-7.5-16.7c-4.6-3.2-9.7-3.3-15-3.9c-0.6-0.1-1.2-0.2-1.8-0.3c0.7-3.1,3.7-5.4,5.8-7.5c0.3-0.3,0.5-0.5,0.7-0.8c0.3,0,0.6,0,0.8,0c6.5-0.1,12.9,0.3,19.4,0.6c-1.2,3.1-1.2,6.7,0.4,9.7c1.3,2.5,3.8,4,6.5,4.9c1.5,0.5,6.1,2.1,4,3.4C213.4,300.8,213.7,304.3,215.5,306.6z M162.1,289.8c-0.7-2.2-1.5-4.4-1.9-6.7c0-0.1-0.1-0.8-0.2-1.3c0.4,0,0.7,0,1.1,0.1c0.4,0,0.9,0,1.2-0.1c0.1,0,0.1,0,0.2,0c2.4,0.6,5.1,0.2,7.6-0.2c-1.7,2.9-2.6,6-2,9.5c1,5.9,6.2,8,11.6,8.6c5.9,0.7,11.9,0.5,12.7,7.8c0.5,4.3-1.9,8-3.2,11.9c-1.4-0.2-2.9-0.4-4.3-0.7c-8.4-1.4-16.8-3.4-24.9-5.9c0.6-0.6,1-1.4,1.3-2.4C162.9,303.4,164.3,296.9,162.1,289.8z M163.4,251.9c11.1-9,27-8.6,40.9-11.3c3.9-0.8,12.8-3.4,14.6,1.7c1.7,4.8,0,11.3-1,16.1c-0.8,3.9-1.7,7.7-2.2,11.6c-14.7,0.2-29.3-1.9-43.9,0.2c-3.4,0.5-7,2.5-8.5-1.3c-0.7-1.7-0.5-4.2-0.6-6c-0.1-1.1-0.1-2.2-0.2-3.2c0-0.4,0-0.8,0-1.2C164.7,256.6,164.7,253.9,163.4,251.9z M178,233.7c-0.4,0.1-0.8,0.2-1.1,0.2c-4.1,0.9-8,2.2-11.7,4c0.9-1.4,1.8-2.8,2.7-4.1c2.6-0.2,3.9-2.1,4.1-4.3c2-1.6,4.1-2.8,6.6-3.4c-0.7,1.2-1.1,2.6-1.2,4.2C177.2,231.6,177.4,232.7,178,233.7z M184.9,221.2c0.1-0.8,0.1-1.6-0.1-2.4c7.4-4.9,16.8-6.9,25.4-7.6c4.9-0.4,8.5,1.7,12.6,4.1c3,1.8,5.9,2.6,9,2.8c-2.6,1.4-5.2,2.8-7.7,4.5c-5.6-2.1-11.6-2.7-17.5-2.8C201.3,219.8,191.7,218.8,184.9,221.2z M195.7,230.6c-2.3,0.3-4.6,0.7-6.9,1c0.5-0.2,1-0.3,1.4-0.4C191.9,230.8,193.8,230.7,195.7,230.6z M216.1,285c0-0.1,0.1-0.3,0.1-0.4c2-0.6,3.2-2,3.6-3.8c0.4,0,0.9,0,1.3,0c3.2-0.2,5-3,5.1-5.9c0.1-3,0.6-6,1.2-9.1c5.8,3.7,12.3,5.6,19.1,5.9c-5.7,3.1-10.9,7.3-15.3,12.5c-1.8,2.2-3.7,4.4-5.6,6.7c-0.1-0.2-0.3-0.4-0.4-0.7c-1.5-2.3-4.4-3.6-6.9-4.4C217.5,285.5,216.8,285.3,216.1,285z M253.7,260.4c-7.9,1.5-16.1-0.2-22.4-5.2c-0.5-0.4-1-0.6-1.5-0.8c0.9-5.5,1.2-10.9-0.8-16.1c6.2,4.9,11.8,10.8,19.5,13.2c11.2,3.5,22.8-5.4,21.5-17.2c-0.5-4.3-1.2-8.5-1.5-12.7c-0.1-1.2-0.1-2.3-0.1-3.5c2,0.3,3.6-0.9,4.6-2.6c3.3,2.6,7.1,4.5,10.8,6.5c-0.8,1.6-1,3.5,0.3,5.4c2.2,3.3-1,8.1-2.9,10.9c-3.5,5.1-7.9,9.6-12.4,13.8C264.3,256.3,260.1,259.2,253.7,260.4z M261.9,201.9c1-1.2,2.2-1.9,3.8-1.8c1,0.1,2,0.4,3,0.6c-0.7,1-1.4,2-2,3.1c-0.3,0.6-0.5,1.2-0.6,1.9c-2.9-0.1-5.5,1.4-7.3,4.3c-2.3,3.9-1.6,9.8-1.2,14.1c0.4,4.1,1.2,8.1,1.5,12.2c0.5,6.7-8.9,4.7-12,2.5c-4.5-3.2-8.4-6.9-12.7-10.2c2.6-1.4,5.4-2.6,7.8-4.1c4.7-2.9,8.6-7.7,12.2-11.9C257.4,209.4,259.1,205.3,261.9,201.9z M259.2,190.5c1.1-0.7,2.3-1.4,3.5-2c1.6-0.8,4.3-2.2,6.1-1.4c1.1,0.4,2,1.7,2.8,3c-1.2-0.3-2.5-0.5-3.8-0.7C264.7,188.8,261.8,189.3,259.2,190.5z M321,210.6c-1.2,3.5-2.4,7-3.6,10.5c-0.8,2.3-1.6,4.6-2.4,6.9c-1.6-1.7-4.1-2.3-6.4-0.3c-0.3,0.3-0.5,0.5-0.5,0.7c-0.1-0.1-0.3-0.3-0.5-0.6c-1-0.9-1.8-2.3-2.6-3.4c-2.3-3.2-4.9-5.6-8.2-7.7c-5.6-3.7-13.3-6.1-18.2-10.9c2.7-3.5,6.2-6.3,9.4-9.2c2.3-2.1,4.6-4.3,6.9-6.4c2.1-2,3.1,0,4.9,1.8C306.7,199.1,310.3,208.7,321,210.6z M308.9,186c5.7-1.1,12.1-0.7,17.3,1.3c0.9,0.3,1.7,0.5,2.5,0.4c-1.4,4.2-2.8,8.3-4.1,12.4c-0.3-0.1-0.5-0.1-0.8-0.2c-5.7-0.8-8.7-6-11.9-10.3C310.9,188.4,309.9,187.2,308.9,186z M269.2,265.8c-0.1,0-0.2,0-0.2,0c2.3-1.5,4.5-3.2,6.7-5.2c7.5-6.8,19.8-18.6,20.2-30.2c1.9,2.4,3.5,5.1,6,7c2.9,2.2,6.3,2.6,9.4,1.5c-0.8,2.2-1.5,4.5-2.3,6.7c0-5.4-8-8.7-10.3-2.8c-5.2,13.6-12.6,26.8-26.1,33.1c0,0,0,0,0.1-0.1C277,272.4,275,265.8,269.2,265.8z M366.8,214.6c-2.3,4.1-4.7,8.1-7,12.2c-1.2-0.8-2.4-1.6-3.5-2.6c-1.1-1-2.6-1.5-4-1.3c1.8-4.8,3.6-9.5,5.4-14.3C360.8,210.4,364.2,212.1,366.8,214.6z M361.6,198.1c1.1-3,2.2-6,3.2-9.1l0.2-0.5c3.3,1.2,6.4,2.8,9.3,4.7c1.5,1,3.4,0.8,5-0.1c-1.5,2.6-3,5.1-4.5,7.7c-0.8,1.4-1.6,2.7-2.4,4.1c-3.2-2.5-6.8-4.5-10.3-6.6C361.9,198.3,361.8,198.2,361.6,198.1z M352.4,235c0.6,0.4,1.1,0.8,1.6,1.2c0.1,0.1,0.2,0.1,0.2,0.2c-2.2,3.8-4.4,7.7-6.7,11.5c-4.1,7-8.1,14.1-12.8,20.8c5.7-11.7,9.7-24.1,14.1-36.4c0.1,0.1,0.1,0.1,0.2,0.2C350,233.4,351.2,234.2,352.4,235z M398.1,154.4c0.6,0.7,1.2,1.2,1.9,1.5c-5.7,10.8-11.8,21.5-17.9,32.1c-0.1-1.9-1.3-3.5-3-4.6c-3.1-2-6.5-3.8-10-5c-0.2-0.1-0.5-0.1-0.7-0.2c3.7-11,7.6-22,12.2-32.7c0-0.1,0.1-0.1,0.1-0.2c0.8,0.3,1.6,0.5,2.4,0.5C388.5,146,394.7,150.4,398.1,154.4z M364,114.2c3.7-10.3,8-21,16.1-28.7c1.7-1.6,3.9-2.8,6-3.6c1-0.3,0.7-0.3,1.3,1c1.9,4.4,0.9,10.1,0.2,14.6c-2.2,14.7-10.3,28-16.2,41.5c-6.1,13.9-10.9,28.4-15.7,42.8c-7.3,21.7-15.4,43.2-23.5,64.6c-3.5,9.2-7.3,18.3-12.4,26.7c-1.8,2.9-3.9,6-6.5,8.3c-1.2,1-2,1.5-3.2,2c-0.5,0.2-1.1,0.2-1.6,0.1c8.1-28,18.1-55.5,27.5-83.1C345.8,171.8,353.7,142.6,364,114.2z M70.5,258.2c1.2-2.2,1.1-5-1.4-6.4c-0.1-0.7-0.3-1.3-0.5-1.9c-0.4-8.8,2.3-16.4,8.1-23.6c7.3-9.1,16.6-17.4,25.7-24.5c20.9-16.4,46-23.5,71.1-30.8c27.6-8,55.5-14.6,83.8-19.8c28.4-5.2,56.9-9.3,85.9-9.4c0.1,0,0.2,0,0.3,0c-0.8,2.7-1.6,5.4-2.5,8.1c-2.9,9.3-5.9,18.6-9,27.9c-0.2-0.1-0.5-0.3-0.8-0.4c-9.6-3.8-21.6-4-31.3-0.3c-0.8,0.3-1.4,0.7-1.9,1.2c-0.1,0-0.2,0-0.3-0.1c-6.1-1.3-11.1,4.6-15.2,8.5c-0.1-0.2-0.2-0.3-0.3-0.5c-3-4.2-5.8-8.6-11.1-10c-5.5-1.4-11.1,1.3-15.9,3.8c-4.8,2.6-8.7,6.1-11.5,10.7c-2.7,4.4-3.6,9.8-6.7,13.9c-3.6,5-8.7,1-12.6-1.3c-5.7-3.3-12-3.7-18.4-2.9c-10,1.2-19.8,4.1-28,9.7c-1.1-0.6-2.6-0.7-4.1-0.1c-16.6,6.2-32.9,13.5-48,22.9c-14.8,9.2-29.1,21.5-36.1,37.9c-0.5,1.1-0.6,2.2-0.4,3.1c-0.6-0.5-1.2-1-1.8-1.4c-3.2-2.6-6.7-5-10-7.6C75.3,263.3,72.3,261,70.5,258.2z M149.4,284.9c0.5,3.2,1.6,6.2,2.6,9.3c1.4,4.6-0.5,9.6-1.7,14.1c-0.1,0.4-0.2,0.9-0.2,1.2c-5.6-2-11-4.3-16.4-6.8c0.2-0.4,0.3-0.8,0.4-1.3c2.1-13.8,10.4-25.5,17.6-37.5c0.1,1,0.2,2,0.3,2.9c0.2,2.1,0.6,4.1,1.3,6C149.9,275.3,148.5,279.9,149.4,284.9z M116.1,286.9c-0.3-5.8,6.1-11.9,9.6-15.8c4-4.5,9.2-8.3,12.8-13.2c3.1-4.2,6.5-8.1,10.2-11.8c0,0.1-0.1,0.2-0.1,0.3c-8.2,16.8-21.5,32.4-25.1,51.2c-1.8-1-3.5-2-5.3-3c-1.5-0.9-3-1.8-4.5-2.8C115.2,290.8,116.3,289.2,116.1,286.9z M105.2,286c-3.3-2.3-6.5-4.7-9.7-7.2c1.7-0.1,3.3-1,4.1-3.1c6.5-15.2,19.9-25.8,33.6-34.4c3.7-2.3,7.4-4.4,11.2-6.4c-5,4.6-9.5,9.7-13.7,15C122.4,260.8,105.7,270.8,105.2,286z M446,317.4c-6.5,21.9-16.1,42.9-27.7,62.5c-5.9,10-11.5,20.1-17.6,30c-4.8,7.8-12,13.6-18.2,20.3c-1.3,0.3-2.5,1.1-3.3,2.2c-1,0.5-1.9,1.2-2.5,2.5c-9.8,18.8-33.7,23.3-52.8,26.7c-11.7,2.1-23.3,4.7-35,7c-15,2.9-29.4,3-42.8-5.1c-6.6-4-12.7-8.5-19-12.6c2.1,0.1,4.2,0.2,6.2,0.3c11.8,0.9,23.7,1.6,35.6,1.6c5.7,0,11.4-0.1,17.1-0.3c5.9-0.2,12.8-0.3,18.4-2c10.4-3.2,20.4-7.5,31-10c6.9-1.6,3.2-12-3.6-10.4c-9,2.1-17.6,5.6-26.4,8.5c-10.5,3.5-22.5,3.1-33.5,3.2c-11.5,0.1-23-0.5-34.5-1.3c-5-0.4-10.1-0.9-15.1-1.2c-4.6-0.3-9.2-0.5-13.2-2.9c-3.2-1.9-6.1-0.1-7.2,2.7c-10.6-3.4-21.4-6.2-31.1-12.2c-11.4-7-21-17.8-30.5-27.1c-9.9-9.7-19.1-20.2-27.2-31.4c-11.8-16.3-19.7-34.3-26.9-53c-5-12.9-9.6-26.1-12.8-39.6c1.7,1.3,3.5,2.5,5.1,3.8c12,8.9,23.5,18.1,36.4,25.8c25,14.9,54.2,23.2,83.1,26.3c15.6,1.6,31.4,2.3,47.1,3.3c15.8,1,31.7,0.5,47.4-2.2c3.9-0.7,7.8-1.5,11.7-2.4c0,0,0,0,0,0c2.8,1.7,5.4,0.5,6.7-1.6c8.3-2.1,16.6-4.5,24.9-6.7c14.3-3.7,29-7.1,42.9-12.2c14.9-5.5,27-14.9,39.3-24.6c4.4-3.5,9-6.7,13.5-10c1.3-0.4,2.4-1.2,3.1-2.3c5.4-4,10.6-8.2,15.3-13.2c3.1-3.3,5.9-6.9,8.4-10.8C456.1,272.1,452.6,295.1,446,317.4z M455.5,228.3c-0.9,3.3-2.1,6.5-3.6,9.5c-0.2-0.2-0.4-0.4-0.6-0.6c-2.8-2.7-8.2-3-8.7-7.3c-0.5-4.5,0.9-9.3,1.1-13.8c0.1-3.9-1.4-7.7-3.2-11.1c-3.8-7.5-12.1-11.4-19.9-10.9c3.5-5.2,7.1-10.3,10.6-15.5c1.2,1.2,3,1.9,4.4,2.5c3.4,1.5,3.8,1.8,6.9,3.3c6.5,3,12,6.6,11.6,14.4c-0.2,3.1,1.8,4.6,4.1,4.8C459.2,211.9,457.3,221.3,455.5,228.3z"/></svg>