<svg xmlns="http://www.w3.org/2000/svg"  viewBox="0 0 48 48" width="64px" height="64px"><path fill="#4b7bb2" d="M4.281,10.562c0,4.804-0.214,4.386-0.185,9.82c0.005,0.871,0.224,5.613,0.128,6.479	c-0.238,2.132-0.097,4.285,0.044,6.425c0.193,2.925-0.945,6.31,1.458,8.712c1.478,1.478,5.155,1.096,7.242,1.2	c2.087,0.104,3.764,0.309,5.832,0.011c6.821-0.984,10.824-0.258,16.238-0.038c1.975,0.08,4.697,0.339,6.239-0.899	c1.484-1.191,2.428-1.703,2.4-6.375c-0.025-4.273-0.662-4.89-0.64-9.164c0.008-1.633,0.641-4.624,0.64-7.497	c0-1.317-0.198-2.622-0.219-3.939c-0.02-1.225-0.157-5.882-0.259-7.137c-0.102-1.254-1.065-2.639-2.196-3.19	c-0.482-0.235-1.026-0.303-1.548-0.427c-0.98-0.233-5.241,0.136-7.787,0.254c-4.56,0.211-4.804,0-9.609,0	c-1.334,0-5.393,0.027-6.726,0c-3.375-0.069-5.874-0.181-6.941-0.05C5.67,5.081,4.281,7.68,4.281,10.562"/><path fill="#010101" d="M16.534,43.863c-0.814,0-1.606-0.048-2.421-0.099c-0.378-0.023-0.766-0.047-1.169-0.067	c-0.425-0.021-0.918-0.021-1.445-0.022c-2.142-0.002-4.809-0.006-6.126-1.323c-1.906-1.906-1.772-4.308-1.644-6.63	c0.047-0.842,0.091-1.637,0.041-2.403c-0.14-2.128-0.286-4.33-0.042-6.514c0.062-0.56-0.023-3.056-0.08-4.707	c-0.027-0.792-0.049-1.441-0.051-1.714c-0.015-2.89,0.039-4.155,0.091-5.378c0.046-1.079,0.094-2.195,0.094-4.444	c0-3.441,1.828-5.977,4.548-6.311c0.852-0.105,2.498-0.064,4.774-0.006c0.692,0.017,1.441,0.036,2.238,0.052	c0.958,0.02,3.326,0.012,5.073,0.004l1.643-0.004c1.841,0,3.015,0.031,4.018,0.057c1.608,0.042,2.772,0.073,5.568-0.057	c0.675-0.031,1.471-0.08,2.294-0.131c2.923-0.18,4.895-0.285,5.631-0.11c0.127,0.03,0.256,0.057,0.384,0.083	c0.418,0.087,0.851,0.177,1.268,0.38c1.297,0.632,2.361,2.179,2.476,3.6c0.105,1.282,0.243,6.013,0.262,7.169	c0.01,0.612,0.059,1.222,0.107,1.831c0.055,0.689,0.111,1.402,0.111,2.116c0.001,1.684-0.208,3.369-0.392,4.856	c-0.132,1.062-0.245,1.979-0.248,2.643c-0.012,2.149,0.144,3.336,0.308,4.593c0.157,1.201,0.319,2.443,0.332,4.565	c0.027,4.48-0.797,5.345-2.378,6.601l-0.21,0.167c-1.549,1.244-4.031,1.125-6.021,1.033l-0.55-0.025	c-1.307-0.053-2.53-0.135-3.732-0.216c-3.747-0.251-7.285-0.49-12.414,0.25C18.049,43.822,17.282,43.863,16.534,43.863z M9.934,5.187c-0.641,0-1.147,0.016-1.483,0.057c-2.709,0.333-3.67,3.073-3.67,5.319c0,2.271-0.048,3.397-0.095,4.487	c-0.052,1.211-0.106,2.464-0.091,5.331c0.001,0.268,0.023,0.906,0.05,1.685c0.079,2.309,0.14,4.267,0.075,4.852	c-0.234,2.096-0.092,4.252,0.046,6.337c0.054,0.827,0.006,1.69-0.04,2.524c-0.122,2.2-0.238,4.277,1.352,5.867	c1.025,1.025,3.462,1.028,5.42,1.03c0.544,0.001,1.054,0.002,1.494,0.023c0.407,0.021,0.799,0.044,1.181,0.068	c1.577,0.097,2.938,0.181,4.554-0.053c5.233-0.755,8.822-0.514,12.624-0.257c1.193,0.08,2.409,0.162,3.706,0.215l0.556,0.025	c1.828,0.087,4.094,0.193,5.35-0.814l0.213-0.17c1.307-1.037,2.025-1.608,2-5.812c-0.013-2.06-0.17-3.271-0.323-4.441	c-0.161-1.235-0.328-2.512-0.316-4.728c0.004-0.723,0.12-1.667,0.256-2.761c0.18-1.458,0.385-3.112,0.384-4.734	c0-0.674-0.056-1.367-0.108-2.037c-0.051-0.631-0.101-1.262-0.11-1.895c-0.019-1.148-0.155-5.84-0.258-7.104	c-0.088-1.079-0.93-2.3-1.917-2.781c-0.305-0.148-0.659-0.222-1.034-0.3c-0.137-0.029-0.274-0.058-0.41-0.09	c-0.648-0.154-3.248,0.006-5.339,0.135c-0.828,0.051-1.63,0.1-2.309,0.132c-2.838,0.131-4.014,0.1-5.642,0.058	c-0.996-0.026-2.162-0.057-3.991-0.057l-1.639,0.004c-1.756,0.006-4.135,0.015-5.097-0.004c-0.799-0.017-1.549-0.035-2.243-0.053	C11.855,5.214,10.779,5.187,9.934,5.187z"/><path fill="#d6e5e5" d="M27.83,27.49c-1.811-0.019-3.623-0.038-5.434-0.057c-1.652-0.017-3.303-0.035-4.955-0.052	c-2.199-0.023-4.399-0.046-6.598-0.069c-0.588-0.006-1.207-0.005-1.722,0.279c-0.514,0.284-0.861,0.844-0.895,1.43	c-0.034,0.586,0.241,1.179,0.705,1.538c0.335,0.259,0.748,0.396,1.16,0.495c2.227,0.536,4.554,0.099,6.837-0.09	c1.95-0.162,4.226-0.188,7.093-0.084c2.295,0.084,3.976,0.501,6.16,0L27.83,27.49z"/><path fill="#d6e5e5" d="M14.391,27.349c1.05-1.737,2.962-4.339,4.012-6.076c0.411-0.68,0.822-1.36,1.232-2.039	c1.581-2.616,2.869-4.719,4.975-6.933c0.916-0.963,1.587-1.748,2.484-1.919c0.366-0.07,0.858,0.047,1.149,0.232	c0.544,0.347,0.944,0.865,0.934,1.644c-0.006,0.449-0.43,1.299-0.663,1.683c-0.941,1.551-1.113,1.971-2.483,3.916	c-0.379,0.538-1.618,2.115-1.993,2.657c-0.508,0.735-1.094,1.806-1.675,2.484c-0.939,1.096-1.531,2.542-2.541,4.046L14.391,27.349z"/><path fill="#d6e5e5" d="M12.209,31.307c-0.847,1.144-2.003,3.184-2.364,4.561c-0.038,0.143-0.029,0.291-0.043,0.438	c-0.173,1.703,1.095,1.882,1.735,1.84c0.448-0.029,0.878-0.095,1.261-0.331c0.585-0.362,1.221-0.93,1.672-1.449	c1.679-1.929,2.681-4.15,3.837-5.486L12.209,31.307z"/><path fill="#d6e5e5" d="M23.903,21.259c1.33,2.329,3.636,5.823,5.174,8.02c0.982,1.402,1.43,1.693,2.053,3.258	c0.386,0.97,0.827,2.027,1.518,3.262c0.509,0.909,1.032,1.985,1.995,2.384c0.489,0.202,1.36,0.44,2.116-0.168	c0.917-0.738,0.69-1.906,0.373-2.884c-0.415-1.282-0.764-1.877-1.247-2.784c-1.348-2.531-2.869-5.069-4.561-7.385	c-0.784-1.073-1.143-1.77-1.914-3.008c-0.843-1.352-1.68-2.881-3.04-4.582L23.903,21.259z"/><path fill="#d6e5e5" d="M33.05,27.31c2.183,0,2.436-0.136,4.193,0c0.339,0.026,0.899,0.046,1.231,0.117	c0.457,0.096,0.781,0.418,0.947,0.602c0.262,0.288,0.326,0.606,0.353,0.994c0.029,0.411-0.186,1.09-0.634,1.343	c-0.66,0.373-2.072,0.435-2.386,0.422c-0.329-0.014-0.779,0.027-1.5-0.05L33.05,27.31z"/><path fill="#d6e5e5" d="M21.186,16.723c-0.562-1.197-1.61-3.689-1.89-4.981c-0.129-0.594-0.201-1.291,0.209-1.74	c0.235-0.257,0.432-0.44,0.769-0.527c0.241-0.063,0.693-0.073,0.94-0.045c0.625,0.071,1.02,0.646,1.365,1.171	c0.309,0.469,1.062,1.673,1.324,2.17L21.186,16.723z"/><path fill="#010101" d="M12.489,31.811c-0.842,0-1.683-0.071-2.515-0.271c-0.401-0.097-0.916-0.25-1.35-0.586	c-0.598-0.463-0.942-1.215-0.898-1.963c0.044-0.766,0.486-1.47,1.152-1.838c0.643-0.355,1.38-0.351,1.968-0.342l16.988,0.178	c0.276,0.003,0.498,0.229,0.495,0.505c-0.003,0.274-0.227,0.495-0.5,0.495c-0.002,0-0.004,0-0.005,0l-16.988-0.178	c-0.498-0.005-1.062-0.01-1.475,0.217C9,28.229,8.75,28.629,8.725,29.05c-0.024,0.417,0.177,0.854,0.512,1.114	c0.283,0.219,0.668,0.331,0.971,0.404c1.694,0.408,3.52,0.217,5.284,0.033c0.466-0.048,0.931-0.097,1.394-0.135	c1.977-0.164,4.249-0.191,7.152-0.085c0.666,0.024,1.281,0.076,1.872,0.125c1.437,0.122,2.676,0.225,4.159-0.113	c0.27-0.065,0.537,0.107,0.599,0.375c0.062,0.27-0.106,0.538-0.376,0.599c-1.633,0.375-3.008,0.259-4.467,0.135	c-0.575-0.048-1.174-0.099-1.823-0.123c-2.864-0.105-5.099-0.079-7.033,0.083c-0.456,0.038-0.914,0.085-1.373,0.133	C14.574,31.702,13.531,31.811,12.489,31.811z"/><path fill="#010101" d="M14.39,27.849c-0.088,0-0.177-0.023-0.258-0.072c-0.236-0.143-0.312-0.45-0.169-0.687	c0.532-0.88,1.289-1.989,2.021-3.061c0.725-1.061,1.473-2.158,1.991-3.015l1.232-2.04c1.529-2.53,2.849-4.715,5.041-7.019	l0.232-0.245c0.828-0.877,1.542-1.634,2.521-1.82c0.476-0.089,1.091,0.035,1.511,0.301c0.773,0.493,1.177,1.21,1.166,2.073	c-0.01,0.733-0.729,1.924-0.736,1.936c-0.237,0.392-0.426,0.711-0.598,1.002c-0.505,0.856-0.87,1.475-1.903,2.942	c-0.184,0.26-0.563,0.758-0.953,1.269c-0.417,0.546-0.844,1.105-1.038,1.384c-0.175,0.253-0.359,0.548-0.55,0.852	c-0.372,0.593-0.756,1.206-1.156,1.673c-0.519,0.605-0.943,1.355-1.392,2.15c-0.337,0.595-0.685,1.211-1.114,1.85	c-0.153,0.229-0.465,0.292-0.694,0.136c-0.229-0.154-0.29-0.464-0.136-0.694c0.407-0.607,0.746-1.206,1.073-1.785	c0.474-0.838,0.921-1.629,1.503-2.308c0.352-0.411,0.716-0.992,1.069-1.554c0.199-0.317,0.392-0.624,0.574-0.889	c0.199-0.288,0.637-0.863,1.065-1.423c0.38-0.498,0.752-0.984,0.93-1.237c1.011-1.435,1.367-2.039,1.86-2.875	c0.174-0.293,0.364-0.616,0.604-1.013c0.276-0.454,0.587-1.162,0.591-1.43c0.007-0.52-0.217-0.907-0.703-1.216	c-0.206-0.131-0.57-0.207-0.786-0.163c-0.661,0.126-1.244,0.743-1.981,1.524l-0.235,0.249c-2.116,2.225-3.411,4.367-4.91,6.847	l-1.232,2.04c-0.532,0.88-1.289,1.989-2.021,3.061c-0.725,1.061-1.473,2.158-1.991,3.015C14.725,27.763,14.56,27.849,14.39,27.849z"/><path fill="#010101" d="M11.387,38.65c-0.404,0-1.094-0.084-1.582-0.589c-0.411-0.426-0.58-1.033-0.501-1.805l0.007-0.121	c0.005-0.11,0.012-0.248,0.05-0.394c0.376-1.437,1.541-3.51,2.446-4.731c0.165-0.221,0.478-0.269,0.7-0.104	c0.222,0.165,0.268,0.478,0.104,0.7c-0.861,1.162-1.95,3.122-2.282,4.39c-0.012,0.044-0.015,0.113-0.019,0.186l-0.011,0.174	c-0.047,0.467,0.029,0.807,0.226,1.011c0.291,0.301,0.823,0.291,0.979,0.28c0.357-0.023,0.729-0.07,1.031-0.257	c0.509-0.315,1.106-0.833,1.558-1.352c0.894-1.027,1.608-2.169,2.239-3.177c0.539-0.861,1.048-1.675,1.597-2.308	c0.182-0.208,0.497-0.231,0.706-0.05s0.231,0.497,0.05,0.706c-0.498,0.574-0.987,1.356-1.505,2.183	c-0.65,1.039-1.387,2.217-2.333,3.303c-0.513,0.589-1.197,1.182-1.786,1.546c-0.49,0.303-1.029,0.375-1.491,0.405	C11.519,38.648,11.457,38.65,11.387,38.65z"/><path fill="#010101" d="M35.651,38.905c-0.378,0-0.78-0.086-1.2-0.26c-1.041-0.431-1.607-1.458-2.108-2.363l-0.132-0.238	c-0.717-1.282-1.174-2.386-1.546-3.321c-0.421-1.06-0.738-1.476-1.265-2.164c-0.212-0.277-0.45-0.59-0.732-0.993	c-1.558-2.225-3.849-5.695-5.199-8.059c-0.137-0.24-0.054-0.545,0.186-0.682c0.239-0.139,0.544-0.054,0.682,0.186	c1.275,2.232,3.555,5.705,5.149,7.981c0.273,0.389,0.504,0.691,0.709,0.959c0.538,0.705,0.928,1.214,1.399,2.402	c0.36,0.905,0.802,1.974,1.489,3.202l0.135,0.243c0.441,0.799,0.897,1.626,1.615,1.923c0.653,0.271,1.195,0.238,1.61-0.095	c0.547-0.439,0.607-1.117,0.212-2.34c-0.359-1.109-0.656-1.664-1.068-2.433l-0.145-0.27c-1.478-2.773-3-5.238-4.523-7.324	c-0.56-0.766-0.915-1.357-1.327-2.042c-0.181-0.3-0.375-0.624-0.608-0.998c-0.179-0.288-0.358-0.584-0.542-0.888	C27.78,20.239,27.03,19,25.979,17.686c-0.172-0.216-0.138-0.53,0.078-0.703c0.218-0.172,0.531-0.136,0.703,0.078	c1.093,1.366,1.86,2.634,2.538,3.753c0.182,0.3,0.358,0.593,0.536,0.877c0.235,0.379,0.433,0.707,0.615,1.011	c0.416,0.692,0.745,1.238,1.277,1.967c1.552,2.124,3.1,4.629,4.6,7.444l0.143,0.268c0.421,0.784,0.752,1.403,1.139,2.598	c0.211,0.65,0.77,2.377-0.536,3.427C36.657,38.737,36.178,38.905,35.651,38.905z"/><path fill="#010101" d="M36.834,31.289c-0.042,0-0.076,0-0.1-0.001c-0.096-0.004-0.2-0.003-0.318-0.002	c-0.292,0.002-0.687,0.005-1.214-0.05c-0.274-0.029-0.474-0.275-0.444-0.55c0.029-0.275,0.279-0.476,0.55-0.444	c0.475,0.051,0.825,0.047,1.1,0.045c0.137-0.001,0.26-0.003,0.368,0.002c0.33,0.016,1.604-0.067,2.119-0.358	c0.229-0.129,0.4-0.588,0.381-0.873c-0.025-0.365-0.08-0.534-0.224-0.692c-0.085-0.093-0.343-0.378-0.681-0.449	c-0.22-0.046-0.593-0.07-0.893-0.088l-0.273-0.019c-1.05-0.081-1.537-0.062-2.27-0.037c-0.471,0.018-1.032,0.038-1.886,0.038	c-0.276,0-0.5-0.224-0.5-0.5s0.224-0.5,0.5-0.5c0.837,0,1.388-0.02,1.849-0.037c0.742-0.027,1.276-0.046,2.384,0.039l0.26,0.018	c0.349,0.022,0.744,0.047,1.035,0.108c0.441,0.093,0.838,0.34,1.215,0.756c0.372,0.41,0.451,0.864,0.481,1.295	c0.036,0.525-0.215,1.434-0.887,1.813C38.644,31.221,37.275,31.289,36.834,31.289z"/><path fill="#010101" d="M21.187,17.223c-0.188,0-0.368-0.106-0.453-0.288c-0.591-1.259-1.637-3.754-1.926-5.088	c-0.137-0.632-0.252-1.547,0.329-2.183c0.249-0.272,0.532-0.549,1.013-0.674c0.308-0.08,0.822-0.092,1.122-0.058	c0.876,0.1,1.388,0.878,1.727,1.394c0.313,0.477,1.074,1.69,1.348,2.212c0.129,0.244,0.035,0.546-0.21,0.675	c-0.244,0.129-0.547,0.035-0.675-0.21c-0.249-0.473-0.982-1.646-1.299-2.128c-0.324-0.494-0.624-0.906-1.004-0.95	c-0.218-0.024-0.6-0.008-0.758,0.032c-0.201,0.052-0.32,0.155-0.525,0.38c-0.205,0.224-0.233,0.636-0.089,1.297	c0.257,1.187,1.239,3.565,1.854,4.875c0.117,0.25,0.01,0.548-0.24,0.665C21.33,17.208,21.258,17.223,21.187,17.223z"/></svg>