<?xml version="1.0" encoding="UTF-8"?>
<svg xmlns="http://www.w3.org/2000/svg" xmlns:xlink="http://www.w3.org/1999/xlink" viewBox="0 0 64 64" width="64px" height="64px">
<g id="surface13571072">
<path style=" stroke:none;fill-rule:nonzero;fill:rgb(20%,20%,20%);fill-opacity:1;" d="M 0.988281 32 C 0.988281 14.875 14.875 0.988281 32 0.988281 C 49.125 0.988281 63.011719 14.875 63.011719 32 C 63.011719 49.125 49.125 63.011719 32 63.011719 C 14.875 63.011719 0.988281 49.125 0.988281 32 Z M 0.988281 32 "/>
<path style=" stroke:none;fill-rule:nonzero;fill:rgb(83.92157%,12.941177%,15.294118%);fill-opacity:1;" d="M 42.273438 15.625 C 38.5 15.625 35 17.460938 32.898438 20.539062 L 32.460938 21.085938 L 32.175781 20.710938 C 30.085938 17.511719 26.585938 15.613281 22.773438 15.613281 C 16.273438 15.613281 11.5625 20.324219 11.5625 26.824219 C 11.5625 36.425781 28.9375 50.5625 30.199219 51.574219 C 30.800781 52.148438 31.574219 52.460938 32.414062 52.460938 C 33.238281 52.460938 34.023438 52.148438 34.625 51.574219 C 35.898438 50.550781 53.5 36.1875 53.5 26.824219 C 53.5 20.351562 48.773438 15.625 42.273438 15.625 Z M 42.273438 15.625 "/>
</g>
</svg>
