<svg xmlns="http://www.w3.org/2000/svg" enable-background="new 0 0 1024 1024" viewBox="0 0 1024 1024"><path d="M907.9,875.8c-7.1,0-14.2,0-21.4,0c-19.4,0-38.7,0-58.1,0c-28.6,0-57.2,0-85.9,0c-34.9,0-69.8,0-104.7,0
				c-38.2,0-76.3,0-114.5,0c-38.5,0-76.9,0-115.4,0c-35.6,0-71.3,0-106.9,0c-30.1,0-60.2,0-90.4,0c-21.5,0-42.9,0-64.4,0
				c-9.8,0-19.7,0-29.5,0c-2.6,0-5.2-0.1-7.8-0.5c2.7,0.4,5.3,0.7,8,1.1c-4.5-0.7-8.8-1.8-12.9-3.5c2.4,1,4.8,2,7.2,3
				c-2.8-1.2-5.5-2.6-8.1-4.3c-5.6-3.7,2.9,2.7,1.3,1.2c-1.1-1.1-2.3-2-3.4-3.1c-0.9-0.9-1.8-1.9-2.7-2.9c-3.3-3.6,4.8,6.9,0.8,0.8
				c-1.7-2.6-3.1-5.3-4.3-8.1c1,2.4,2,4.8,3,7.2c-1.7-4.2-2.9-8.5-3.5-12.9c0.4,2.7,0.7,5.3,1.1,8c-1-7.8-0.5-16-0.5-23.9
				c0-16.5,0-32.9,0-49.4c0-24.5,0-49.1,0-73.6c0-30.2,0-60.5,0-90.7c0-33.2,0-66.4,0-99.6c0-33.5,0-67,0-100.5
				c0-31.2,0-62.4,0-93.6c0-26.3,0-52.5,0-78.8c0-18.6,0-37.3,0-55.9c0-8.6,0-17.1,0-25.7c0-2.6,0.2-5.1,0.5-7.7
				c-0.4,2.7-0.7,5.3-1.1,8c0.7-4.5,1.8-8.8,3.5-12.9c-1,2.4-2,4.8-3,7.2c1.2-2.8,2.6-5.5,4.3-8.1c3.7-5.6-2.7,2.9-1.2,1.3
				c1.1-1.1,2-2.3,3.1-3.4c0.9-0.9,1.9-1.8,2.9-2.7c3.6-3.3-6.9,4.8-0.8,0.8c2.6-1.7,5.3-3.1,8.1-4.3c-2.4,1-4.8,2-7.2,3
				c4.2-1.7,8.5-2.9,12.9-3.5c-2.7,0.4-5.3,0.7-8,1.1c9.8-1.2,20.1-0.5,30-0.5c20.2,0,40.5,0,60.7,0c45.8,0,91.6,0,137.5,0
				c11.8,0,24.2-1,35.9,0.4c-2.7-0.4-5.3-0.7-8-1.1c3.6,0.6,6.9,1.5,10.3,2.8c-2.4-1-4.8-2-7.2-3c2.4,1,4.5,2.3,6.7,3.5
				c5,2.7-5.3-5-1.2-1c0.9,0.9,1.9,1.7,2.8,2.6c0.7,0.7,1.4,1.5,2.1,2.3c1.4,1.6,2.8,3.2,4.2,4.9c6.2,7.2,12.5,14.4,18.7,21.5
				c17.5,20.2,35.1,40.4,52.6,60.6c6.8,7.8,13.5,15.6,20.3,23.4c7.9,9.2,13.8,16.5,28.3,17c7.3,0.2,14.7,0,22,0c44,0,88,0,132,0
				c53.9,0,107.9,0,161.8,0c29.5,0,59-0.1,88.4,0c2.6,0,5.2,0.2,7.8,0.5c-2.7-0.4-5.3-0.7-8-1.1c4.5,0.7,8.8,1.8,12.9,3.5
				c-2.4-1-4.8-2-7.2-3c2.8,1.2,5.5,2.6,8.1,4.3c5.6,3.7-2.9-2.7-1.3-1.2c1.1,1.1,2.3,2,3.4,3.1c0.9,0.9,1.8,1.9,2.7,2.9
				c3.3,3.6-4.8-6.9-0.8-0.8c1.7,2.6,3.1,5.3,4.3,8.1c-1-2.4-2-4.8-3-7.2c1.7,4.2,2.9,8.5,3.5,12.9c-0.4-2.7-0.7-5.3-1.1-8
				c0.8,6.7,0.5,13.6,0.5,20.4c0,13.3,0,26.5,0,39.8c0,44.1,0,88.1,0,132.2c0,53.9,0,107.8,0,161.7c0,46.1,0,92.3,0,138.4
				c0,21.9,0.2,43.8,0,65.7c0,2.5-0.2,5-0.5,7.5c0.4-2.7,0.7-5.3,1.1-8c-0.7,4.5-1.8,8.8-3.5,12.9c1-2.4,2-4.8,3-7.2
				c-1.2,2.8-2.7,5.5-4.3,8.1c-3.7,5.6,2.7-2.9,1.2-1.3c-1.1,1.1-2,2.3-3.1,3.4c-0.9,0.9-1.9,1.8-2.9,2.7c-3.6,3.3,6.9-4.8,0.8-0.8
				c-2.6,1.7-5.3,3.1-8.1,4.3c2.4-1,4.8-2,7.2-3c-4.2,1.7-8.5,2.9-12.9,3.5c2.7-0.4,5.3-0.7,8-1.1
				C912.6,875.7,910.3,875.8,907.9,875.8c-15.7,0.2-30.7,13.6-30,30c0.7,16.1,13.2,30.2,30,30c25.2-0.3,48.6-11.7,64-31.7
				c11.1-14.3,16.9-31.5,17.1-49.7c0.1-5.6,0-11.1,0-16.7c0-31.7,0-63.5,0-95.2c0-47.7,0-95.5,0-143.2c0-49.5,0-98.9,0-148.4
				c0-37.4,0-74.8,0-112.2c0-26.8,3-56-12.8-79.4c-14.9-22.1-37.5-35-64.1-37.2c-2.7-0.2-5.4-0.2-8.1-0.2c-10.7,0-21.3,0-32,0
				c-42.6,0-85.3,0-127.9,0c-49.1,0-98.2,0-147.4,0c-29.9,0-59.8,0-89.6,0c-1.4,0-2.9,0-4.3,0c7.1,2.9,14.1,5.9,21.2,8.8
				c-23.1-26.6-46.2-53.3-69.3-79.9c-10.8-12.4-21.5-24.8-32.3-37.3c-15.2-17.5-36.5-25.5-59.3-25.5c-35.7,0-71.4,0-107.1,0
				c-41.5,0-83,0-124.5,0c-14.7,0-29.4-0.5-43.3,5.1c-23.7,9.4-40.9,27.1-49.3,51.2c-2.8,8.2-3.9,17.2-3.9,25.8
				c-0.1,16.1,0,32.3,0,48.4c0,34.7,0,69.3,0,104c0,45.4,0,90.7,0,136.1c0,48.2,0,96.5,0,144.7c0,43.3,0,86.6,0,129.8
				c0,30.5,0,61,0,91.4c0,18.8-2,40.3,5.1,57.9c9.5,23.5,26.7,40.4,50.6,49.1c8.3,3,17.5,4.1,26.3,4.1c4.6,0,9.2,0,13.8,0
				c23.5,0,47,0,70.5,0c37.7,0,75.4,0,113,0c45.8,0,91.6,0,137.4,0c48.4,0,96.8,0,145.2,0c45,0,89.9,0,134.8,0
				c35.6,0,71.3,0,106.9,0c20.4,0,40.9,0,61.3,0c2.7,0,5.4,0,8,0c15.7,0,30.7-13.8,30-30C937.2,889.6,924.8,875.8,907.9,875.8z"/><path d="M907.9,875.8c-7.1,0-14.2,0-21.4,0c-19.4,0-38.7,0-58.1,0c-28.6,0-57.2,0-85.9,0c-34.9,0-69.8,0-104.7,0
				c-38.2,0-76.3,0-114.5,0c-38.5,0-76.9,0-115.4,0c-35.6,0-71.3,0-106.9,0c-30.1,0-60.2,0-90.4,0c-21.5,0-42.9,0-64.4,0
				c-9.8,0-19.7,0-29.5,0c-2.6,0-5.2-0.1-7.8-0.5c2.7,0.4,5.3,0.7,8,1.1c-4.5-0.7-8.8-1.8-12.9-3.5c2.4,1,4.8,2,7.2,3
				c-2.8-1.2-5.5-2.6-8.1-4.3c-5.6-3.7,2.9,2.7,1.3,1.2c-1.1-1.1-2.3-2-3.4-3.1c-0.9-0.9-1.8-1.9-2.7-2.9c-3.3-3.6,4.8,6.9,0.8,0.8
				c-1.7-2.6-3.1-5.3-4.3-8.1c1,2.4,2,4.8,3,7.2c-1.7-4.2-2.9-8.5-3.5-12.9c0.4,2.7,0.7,5.3,1.1,8c-0.8-6.7-0.5-13.6-0.5-20.4
				c0-13.3,0-26.5,0-39.8c0-44.1,0-88.1,0-132.2c0-53.9,0-107.8,0-161.7c0-46.1,0-92.3,0-138.4c0-21.9-0.2-43.8,0-65.7
				c0-2.5,0.2-5,0.5-7.5c-0.4,2.7-0.7,5.3-1.1,8c0.7-4.5,1.8-8.8,3.5-12.9c-1,2.4-2,4.8-3,7.2c1.2-2.8,2.6-5.5,4.3-8.1
				c3.7-5.6-2.7,2.9-1.2,1.3c1.1-1.1,2-2.3,3.1-3.4c0.9-0.9,1.9-1.8,2.9-2.7c3.6-3.3-6.9,4.8-0.8,0.8c2.6-1.7,5.3-3.1,8.1-4.3
				c-2.4,1-4.8,2-7.2,3c4.2-1.7,8.5-2.9,12.9-3.5c-2.7,0.4-5.3,0.7-8,1.1c8.8-1.1,17.9-0.5,26.7-0.5c19,0,38.1,0,57.1,0
				c28.5,0,57,0,85.5,0c34.9,0,69.8,0,104.7,0c38.3,0,76.6,0,114.9,0c38.5,0,77,0,115.5,0c36,0,72,0,108,0c30.3,0,60.7,0,91,0
				c21.6,0,43.2,0,64.9,0c9.9,0,19.8,0,29.7,0c2.6,0,5.2,0.1,7.8,0.5c-2.7-0.4-5.3-0.7-8-1.1c4.5,0.7,8.8,1.8,12.9,3.5
				c-2.4-1-4.8-2-7.2-3c2.8,1.2,5.5,2.6,8.1,4.3c5.6,3.7-2.9-2.7-1.3-1.2c1.1,1.1,2.3,2,3.4,3.1c0.9,0.9,1.8,1.9,2.7,2.9
				c3.3,3.6-4.8-6.9-0.8-0.8c1.7,2.6,3.1,5.3,4.3,8.1c-1-2.4-2-4.8-3-7.2c1.7,4.2,2.9,8.5,3.5,12.9c-0.4-2.7-0.7-5.3-1.1-8
				c0.8,6.7,0.5,13.6,0.5,20.4c0,13.3,0,26.5,0,39.8c0,44.1,0,88.1,0,132.2c0,53.9,0,107.8,0,161.7c0,46.1,0,92.3,0,138.4
				c0,21.9,0.2,43.8,0,65.7c0,2.5-0.2,5-0.5,7.5c0.4-2.7,0.7-5.3,1.1-8c-0.7,4.5-1.8,8.8-3.5,12.9c1-2.4,2-4.8,3-7.2
				c-1.2,2.8-2.7,5.5-4.3,8.1c-3.7,5.6,2.7-2.9,1.2-1.3c-1.1,1.1-2,2.3-3.1,3.4c-0.9,0.9-1.9,1.8-2.9,2.7c-3.6,3.3,6.9-4.8,0.8-0.8
				c-2.6,1.7-5.3,3.1-8.1,4.3c2.4-1,4.8-2,7.2-3c-4.2,1.7-8.5,2.9-12.9,3.5c2.7-0.4,5.3-0.7,8-1.1
				C912.6,875.7,910.3,875.8,907.9,875.8c-15.7,0.2-30.7,13.6-30,30c0.7,16.1,13.2,30.2,30,30c35.5-0.5,65.6-23,77.2-56.3
				c3.1-9,3.9-18.8,3.9-28.3c0-13.6,0-27.1,0-40.7c0-25,0-50,0-75c0-32.2,0-64.4,0-96.6c0-34.8,0-69.6,0-104.3c0-32.7,0-65.5,0-98.2
				c0-26.5,0-53,0-79.5c0-15.6,0-31.2,0-46.9c0-2.3,0-4.6,0-7c-0.2-14.8-4.1-30.1-12.1-42.6c-10-15.7-24-26.5-41.1-33.4
				c-13-5.3-26.7-5.1-40.4-5.1c-14.6,0-29.1,0-43.7,0c-22.9,0-45.8,0-68.7,0c-29,0-58.1,0-87.1,0c-32.9,0-65.7,0-98.6,0
				c-34.8,0-69.6,0-104.4,0c-34.4,0-68.8,0-103.2,0c-31.8,0-63.6,0-95.4,0c-26.9,0-53.9,0-80.8,0c-20.1,0-40.3,0-60.4,0
				c-11,0-22,0-33,0c-2.3,0-4.7,0-7,0.1C78.4,224,47.9,247.1,38.1,281c-3.9,13.4-3.1,27.7-3.1,41.5c0,20.1,0,40.2,0,60.2
				c0,29.3,0,58.7,0,88c0,34.1,0,68.2,0,102.3c0,34.2,0,68.4,0,102.6c0,30.1,0,60.3,0,90.4c0,21.4,0,42.8,0,64.2
				c0,8.2-0.1,16.4,0,24.6c0.2,15.6,4.5,31.9,13.6,44.8c10.6,15.1,24.3,25.5,41.5,31.9c9,3.4,18.8,4.3,28.4,4.3c9.8,0,19.5,0,29.3,0
				c19.2,0,38.3,0,57.5,0c26.2,0,52.4,0,78.7,0c31.4,0,62.7,0,94.1,0c34.2,0,68.4,0,102.6,0c34.9,0,69.7,0,104.6,0
				c33.2,0,66.4,0,99.5,0c29.6,0,59.3,0,88.9,0c23.7,0,47.5,0,71.2,0c15.7,0,31.3,0,47,0c5.4,0,10.8,0,16.2,0
				c15.7,0,30.7-13.8,30-30C937.2,889.6,924.8,875.8,907.9,875.8z"/></svg>