<svg xmlns="http://www.w3.org/2000/svg" viewBox="0 0 50 50"><path d="M25 49.07L48.809 40l-13.125-5 13.125-5-13.125-5 13.125-5-13.125-5 13.125-5L25 .93 1.191 10l13.125 5-13.125 5 13.125 5-13.125 5 13.125 5-13.125 5L25 49.07zM6.809 10L25 3.07 43.191 10l-10.316 3.93-7.875 3-7.875-3L6.809 10zm0 10l10.316-3.93 7.875 3 7.875-3L43.191 20l-10.316 3.93-7.875 3-7.875-3L6.809 20zm0 10l10.316-3.93 7.875 3 7.875-3L43.191 30l-10.316 3.93-7.875 3-7.875-3L6.809 30zm26.066 6.07L43.191 40 25 46.93 6.809 40l10.316-3.93 7.875 3 7.875-3z"/></svg>